<?xml version="1.0" encoding="UTF-8" standalone="no"?><!DOCTYPE svg PUBLIC "-//W3C//DTD SVG 1.1//EN" "http://www.w3.org/Graphics/SVG/1.1/DTD/svg11.dtd"><svg width="100%" height="100%" viewBox="0 0 125 125" version="1.1" xmlns="http://www.w3.org/2000/svg" xmlns:xlink="http://www.w3.org/1999/xlink" xml:space="preserve" xmlns:serif="http://www.serif.com/" style="fill-rule:evenodd;clip-rule:evenodd;stroke-linejoin:round;stroke-miterlimit:2;"><g id="ionicons"><path d="M62.498,12.097c-27.837,-0 -50.401,22.564 -50.401,50.401c-0,27.836 22.564,50.4 50.401,50.4c27.836,0 50.4,-22.564 50.4,-50.4c0,-3.715 -0.398,-7.33 -1.158,-10.804l11.818,-2.581c0.942,4.316 1.442,8.795 1.442,13.385c0,34.516 -27.986,62.497 -62.502,62.497c-34.517,0 -62.498,-27.981 -62.498,-62.497c0,-34.517 27.981,-62.498 62.498,-62.498c15.292,0 29.316,5.498 40.178,14.625l-7.781,9.261c-9.065,-7.632 -20.548,-11.81 -32.397,-11.789Z" style="fill:#444;fill-rule:nonzero;"/><path d="M106.852,20.156c-3.32,0 -6.053,2.733 -6.053,6.054c0,3.32 2.733,6.053 6.053,6.053c3.32,-0 6.051,-2.732 6.051,-6.051c0,-3.319 -2.731,-6.051 -6.051,-6.051l0,-0.005Zm-18.147,6.056c-0,-9.955 8.192,-18.147 18.147,-18.147c9.956,-0 18.148,8.192 18.148,18.147c0,9.956 -8.192,18.148 -18.148,18.148c-9.955,-0 -18.147,-8.192 -18.147,-18.148Z" style="fill:#444;fill-rule:nonzero;"/><circle cx="62.495" cy="62.495" r="24.193" style="fill:#444;"/></g></svg>