<svg xmlns="http://www.w3.org/2000/svg" viewBox="0 0 256 256" width="20" height="20"><path fill="none" d="M0 0h256v256H0z"/><path d="M248 216a8 8 0 01-8 8H96a8 8 0 010-16h144a8 8 0 018 8zm-24-28a4 4 0 004-4v-35.677a36.107 36.107 0 00-26.365-34.687l-46.979-13.05-31.183-54.57a4.002 4.002 0 00-2.208-1.81l-13.47-4.491A12 12 0 0092 51.1v31.46l-25.242-7.89-15.229-28.552a4 4 0 00-2.264-1.913l-13.47-4.49A12 12 0 0020 51.1v52.63a36.12 36.12 0 0026.294 34.666l176.628 49.456A4.006 4.006 0 00224 188z"/></svg>