<svg xmlns="http://www.w3.org/2000/svg" viewBox="0 0 256 256" width="20" height="20"><path fill="none" d="M0 0h256v256H0z"/><path d="M215.015 86.234l-29.807 27.989 30.198 83.043a8.002 8.002 0 01-1.862 8.391l-24 24a8 8 0 01-12.262-1.144l-42.587-62.337-18.808 17.33V204a8 8 0 01-2.343 5.657l-20 20a8 8 0 01-13.233-3.088l-12.924-38.112-38.064-12.879a8 8 0 01-3.093-13.235l20-20A8.002 8.002 0 0151.887 140h20.687l18.756-18.757-63.88-42.587a8 8 0 01-1.22-12.313l24-24a8.003 8.003 0 018.391-1.862l83.063 30.206 26.606-28.141a7.983 7.983 0 01.97-1.174 32 32 0 0147.019 43.344 8.035 8.035 0 01-1.264 1.518z"/></svg>