<svg xmlns="http://www.w3.org/2000/svg" viewBox="0 0 256 256" width="20" height="20"><path fill="none" d="M0 0h256v256H0z"/><path d="M176 216a8 8 0 01-8 8H24a8 8 0 010-16h144a8 8 0 018 8zm71.096-126.533l-18.64-22.781a35.814 35.814 0 00-46.115-8.233L139.539 83.63 81.265 64.205a4.008 4.008 0 00-2.84.118l-16.5 7.071a12 12 0 00-3.3 19.95l26.587 23.928-21.467 12.267-26.17-11.216a4.003 4.003 0 00-3.15 0l-16.753 7.18a12 12 0 00-3.482 19.784h.001l37.696 35.34a35.782 35.782 0 0042.717 4.859L246.01 95.458a4.001 4.001 0 001.085-5.991z"/></svg>