<svg xmlns="http://www.w3.org/2000/svg" viewBox="0 0 256 256" width="20" height="20"><path fill="none" d="M0 0h256v256H0z"/><path d="M215 86.2l-29.8 28 30.2 83.1a8 8 0 01-1.9 8.4l-24 24a8.2 8.2 0 01-6.4 2.3 8.1 8.1 0 01-5.8-3.5l-42.6-62.3-18.8 17.3V204a8.2 8.2 0 01-2.4 5.7l-20 20a7.9 7.9 0 01-5.6 2.3l-1.8-.2a8 8 0 01-5.8-5.2l-12.9-38.1-38.1-12.9a8 8 0 01-5.2-5.8 8.3 8.3 0 012.1-7.5l20-20a8.1 8.1 0 015.7-2.3h20.7l18.7-18.8-63.9-42.5a8.7 8.7 0 01-3.5-5.9 8.2 8.2 0 012.3-6.5l24-24a7.9 7.9 0 018.4-1.8l83.1 30.2 26.6-28.2a5.2 5.2 0 011-1.1 32 32 0 0147 43.3 6.4 6.4 0 01-1.3 1.5z"/></svg>