<svg xmlns="http://www.w3.org/2000/svg" viewBox="0 0 256 256" width="20" height="20"><path fill="none" d="M0 0h256v256H0z"/><path d="M235.5 54.5l-34-34a8 8 0 10-11.3 11.3l34 34a8 8 0 005.6 2.3 8.3 8.3 0 005.7-2.3 8 8 0 000-11.3zM65.8 20.5a8 8 0 00-11.3 0l-34 34a8 8 0 000 11.3 8.3 8.3 0 005.7 2.3 8 8 0 005.6-2.3l34-34a8 8 0 000-11.3zM224 125.2a14.8 14.8 0 01-.1-2.1 96 96 0 00-90.9-91h-10A96 96 0 0032.1 123a14.8 14.8 0 01-.1 2.1v5.6a14.8 14.8 0 01.1 2.1 96 96 0 0090.9 91.1h10a96 96 0 0090.9-90.9 14.8 14.8 0 01.1-2.1v-5.6zM184 136h-56a8 8 0 01-8-8V72a8 8 0 0116 0v48h48a8 8 0 010 16z"/></svg>