<svg xmlns="http://www.w3.org/2000/svg" viewBox="0 0 256 256" width="20" height="20"><path fill="none" d="M0 0h256v256H0z"/><path d="M235.48 54.46l-33.94-33.94a8 8 0 00-11.314 11.314l33.94 33.94a8 8 0 1011.315-11.313zM65.774 20.52a8 8 0 00-11.313 0L20.52 54.46a8 8 0 0011.314 11.314l33.94-33.94a8 8 0 000-11.314zm158.183 104.704a98.25 98.25 0 00-.082-2.15l-.004-.073a96.003 96.003 0 00-90.872-90.872l-.074-.004a97.875 97.875 0 00-2.149-.082c-.107-.003-.214-.009-.322-.012Q129.23 32.001 128 32q-1.23 0-2.454.031c-.108.003-.215.009-.322.012a98.25 98.25 0 00-2.15.082l-.073.004a96.004 96.004 0 00-90.872 90.872l-.004.074a97.875 97.875 0 00-.082 2.149c-.003.107-.009.214-.012.322Q32.001 126.77 32 128q0 1.23.031 2.454c.003.108.009.215.012.322.02.718.046 1.434.082 2.15l.004.073a96.003 96.003 0 0090.872 90.872l.074.004c.715.036 1.43.062 2.149.082.107.003.214.009.322.012q1.225.03 2.454.031 1.23 0 2.454-.031c.108-.003.215-.01.322-.012a98.25 98.25 0 002.15-.082l.073-.004a96.004 96.004 0 0090.872-90.872l.004-.074c.036-.715.062-1.43.082-2.149.003-.107.009-.214.012-.322q.03-1.225.031-2.454 0-1.23-.031-2.454c-.003-.108-.009-.215-.012-.322zM184 136h-56a8 8 0 01-8-8V72a8 8 0 0116 0v48h48a8 8 0 010 16z"/></svg>