<svg xmlns="http://www.w3.org/2000/svg" viewBox="0 0 256 256" width="20" height="20"><path fill="none" d="M0 0h256v256H0z"/><path d="M216 136a8 8 0 00-8 8 40.046 40.046 0 01-40 40 47.795 47.795 0 00-32 12.271V120h32a8 8 0 000-16h-32V78.83a28 28 0 10-16 0V104H88a8 8 0 000 16h32v76.271A47.795 47.795 0 0088 184a40.046 40.046 0 01-40-40 8 8 0 00-16 0 56.063 56.063 0 0056 56 32.037 32.037 0 0132 32 8 8 0 0016 0 32.037 32.037 0 0132-32 56.063 56.063 0 0056-56 8 8 0 00-8-8zM116 52a12 12 0 1112 12 12.013 12.013 0 01-12-12z"/></svg>