<svg xmlns="http://www.w3.org/2000/svg" viewBox="0 0 256 256" width="20" height="20"><path fill="none" d="M0 0h256v256H0z"/><path d="M207.058 88.666q-1.107-1.103-2.241-2.169l24.84-24.84a8 8 0 00-11.314-11.314l-25.97 25.97a111.421 111.421 0 00-128.555.191l-26.161-26.16a8 8 0 00-11.314 11.313l25.06 25.06A113.383 113.383 0 0016 169.128V192a16.018 16.018 0 0016 16h192a16.018 16.018 0 0016-16v-24a111.252 111.252 0 00-32.942-79.334zM92 168a12 12 0 1112-12 12 12 0 01-12 12zm72 0a12 12 0 1112-12 12 12 0 01-12 12z"/></svg>