<svg xmlns="http://www.w3.org/2000/svg" viewBox="0 0 256 256" width="20" height="20"><path fill="none" d="M0 0h256v256H0z"/><path d="M232 128A104 104 0 0054.46 54.46 104 104 0 00127.97 232l.03.002.065-.003A103.999 103.999 0 00232 128zM49.176 88.92l51.216 9.35-53.741 63.266a88.433 88.433 0 012.525-72.616zm160.173 5.544a88.433 88.433 0 01-2.525 72.616l-51.216-9.35zM201.27 79.26l-33.72 39.696-27.92-78.176a87.986 87.986 0 0161.64 38.48zm-78.838-39.067l17.511 49.033L58.296 74.32a88.35 88.35 0 017.478-8.545 87.334 87.334 0 0156.658-25.582zM54.73 176.74l33.72-39.696 27.92 78.176a87.986 87.986 0 01-61.64-38.48zm78.838 39.067l-17.511-49.033 23.082 4.214.046.008 58.52 10.684a88.35 88.35 0 01-7.48 8.545 87.334 87.334 0 01-56.657 25.582z"/></svg>