<svg xmlns="http://www.w3.org/2000/svg" viewBox="0 0 256 256" width="20" height="20"><path fill="none" d="M0 0h256v256H0z"/><path d="M64.3 204.1l-9.4 16A8.1 8.1 0 0148 224a8.7 8.7 0 01-4.1-1.1 8.1 8.1 0 01-2.8-11l9.5-16a8 8 0 1113.7 8.2zM232 160h-47.8l-30.7-52a8 8 0 00-11-2.8 7.9 7.9 0 00-2.8 10.9l61.4 104a8.1 8.1 0 006.9 3.9 8.7 8.7 0 004.1-1.1 8.1 8.1 0 002.8-11L193.7 176H232a8 8 0 000-16zm-89.5 0H90.4l44.4-75.2h.1l24-40.6a8 8 0 00-13.8-8.2L128 64.9l-17.1-29a8 8 0 10-13.8 8.2l21.6 36.5L71.8 160H24a8 8 0 000 16h118.5a8 8 0 000-16z"/></svg>