<svg xmlns="http://www.w3.org/2000/svg" viewBox="0 0 256 256" width="20" height="20"><path fill="none" d="M0 0h256v256H0z"/><path d="M130.66 29.631A40.25 40.25 0 01168 4a8 8 0 010 16 24.154 24.154 0 00-22.408 15.38 8 8 0 01-14.932-5.749zm91.385 126.125a40.017 40.017 0 01-2.732-70 8 8 0 002.142-11.791A68.012 68.012 0 00128 61.005 68.005 68.005 0 0020 116c0 25.503 8.336 52.467 22.871 73.979C57.265 211.282 75.631 224 92 224h72c22.465 0 47.926-23.865 61.916-58.035a8.004 8.004 0 00-3.871-10.21z"/></svg>