<svg xmlns="http://www.w3.org/2000/svg" viewBox="0 0 256 256" width="20" height="20"><path fill="none" d="M0 0h256v256H0z"/><path d="M128 144a28 28 0 1128-28 28.1 28.1 0 01-28 28zm12.5 0h-25a19.9 19.9 0 00-15.4 7.3 19.6 19.6 0 00-4.2 16.6l9.6 48a20.1 20.1 0 0019.6 16.1h5.8a20.1 20.1 0 0019.6-16.1l9.6-48a19.6 19.6 0 00-4.2-16.6 19.9 19.9 0 00-15.4-7.3zm39.7 4.3a8 8 0 0014.9 5.8A70.7 70.7 0 00200 128a72 72 0 00-144 0 70.3 70.3 0 004.9 26.1 8 8 0 007.4 5.1 7.2 7.2 0 002.9-.6 8 8 0 004.6-10.3 56 56 0 11104.4 0zM128 24a104 104 0 00-56 191.7 8 8 0 008.7-13.5 88 88 0 1194.6 0 8 8 0 004.4 14.7 8.8 8.8 0 004.3-1.2A104 104 0 00128 24z"/></svg>