<svg xmlns="http://www.w3.org/2000/svg" viewBox="0 0 256 256" width="20" height="20"><path fill="none" d="M0 0h256v256H0z"/><path d="M208 32H48a16 16 0 00-16 16v160a16 16 0 0016 16h160a16 16 0 0016-16V48a16 16 0 00-16-16zM88.4 112.4a8 8 0 0111.3 0l20.3 20.3V72a8 8 0 0116 0v60.7l20.3-20.3a8 8 0 0111.3 11.3l-33.9 34h-.2l-.4.4h-.2l-.5.3c0 .1-.1.1-.1.2l-.5.3h-.2l-.5.3h-.1l-.7.3h-4.6l-.7-.3h-.1l-.5-.3h-.2l-.5-.3c0-.1-.1-.1-.1-.2l-.5-.3h-.2l-.4-.4h-.2l-33.9-34a8 8 0 010-11.3zM208 208H48v-40h28.7L96 187.3a15.9 15.9 0 0011.3 4.7h41.4a15.9 15.9 0 0011.3-4.7l19.3-19.3H208v40z"/></svg>