<svg xmlns="http://www.w3.org/2000/svg" viewBox="0 0 256 256" width="20" height="20"><path fill="none" d="M0 0h256v256H0z"/><path d="M208 32H48a16.018 16.018 0 00-16 16v111.884c0 .039-.006.077-.006.116s.006.077.006.116V208a16.018 16.018 0 0016 16h160a16.018 16.018 0 0016-16V48a16.018 16.018 0 00-16-16zM88.402 112.401a8.002 8.002 0 0111.314 0L120 132.686V72a8 8 0 0116 0v60.686l20.284-20.285a8 8 0 0111.314 11.315l-33.94 33.941c-.055.054-.115.101-.17.154-.133.126-.266.252-.408.369-.067.055-.139.102-.207.155-.14.107-.277.215-.423.313-.056.038-.116.069-.174.105a7.82 7.82 0 01-.5.299c-.042.023-.086.04-.129.062a7.86 7.86 0 01-.58.274c-.028.012-.058.02-.087.032a7.918 7.918 0 01-.648.232c-.03.01-.06.015-.09.023-.219.064-.44.123-.667.168-.066.013-.133.019-.199.03-.19.034-.382.067-.577.086a7.893 7.893 0 01-1.598 0c-.195-.019-.386-.052-.577-.085-.066-.012-.133-.018-.199-.03a8.037 8.037 0 01-.668-.169c-.029-.008-.06-.013-.089-.023a7.977 7.977 0 01-.65-.233l-.085-.03a7.967 7.967 0 01-.58-.275c-.043-.022-.087-.04-.13-.062a7.805 7.805 0 01-.5-.3c-.057-.035-.117-.066-.173-.104-.146-.098-.283-.206-.423-.313-.068-.053-.14-.1-.207-.155-.138-.114-.267-.238-.397-.36-.06-.055-.123-.105-.18-.163l-33.941-33.941a8 8 0 010-11.315zM208 208H48v-40l28.68-.001 19.315 19.316A15.898 15.898 0 00107.308 192h41.373a15.896 15.896 0 0011.313-4.687L179.308 168h28.7l.002 40z"/></svg>