<svg xmlns="http://www.w3.org/2000/svg" viewBox="0 0 256 256" width="20" height="20"><path fill="none" d="M0 0h256v256H0z"/><path d="M48 80a48.079 48.079 0 0147.334 40h65.332A47.955 47.955 0 01216 80.68V72a40.045 40.045 0 00-40-40H80a40.045 40.045 0 00-40 40v8.68a48.117 48.117 0 018-.68z"/><path d="M239.932 126.01a31.946 31.946 0 00-.083-1.081c-.015-.165-.034-.33-.052-.493q-.06-.533-.135-1.06a33.12 33.12 0 00-.066-.436q-.096-.6-.213-1.191l-.052-.266A32 32 0 00176 128v40a8 8 0 01-16 0v-32H96v32a8 8 0 01-16 0v-40a32 32 0 00-63.331-6.517l-.052.266q-.117.592-.213 1.191c-.023.145-.044.29-.066.436q-.076.527-.135 1.06c-.018.164-.037.328-.052.493-.035.359-.06.72-.083 1.081-.01.152-.022.302-.029.454-.024.51-.039 1.02-.039 1.536a32.013 32.013 0 0024 30.992V200a16.018 16.018 0 0016 16h144a16.018 16.018 0 0016-16v-41.008A32.013 32.013 0 00240 128c0-.515-.015-1.027-.04-1.536-.006-.152-.019-.302-.028-.454z"/></svg>