<svg xmlns="http://www.w3.org/2000/svg" viewBox="0 0 256 256" width="20" height="20"><path fill="none" d="M0 0h256v256H0z"/><path d="M50.343 117.653a8 8 0 0111.314-11.314L120 164.683V31.996a8 8 0 0116 0v132.687l58.343-58.344a8 8 0 0111.314 11.314L133.66 189.65a8.056 8.056 0 01-.591.534c-.086.07-.176.131-.264.197-.12.091-.24.185-.365.269-.11.073-.223.136-.335.203-.111.067-.22.137-.336.199-.116.062-.235.115-.354.17-.118.056-.234.115-.355.165-.115.048-.233.086-.35.128-.13.047-.257.096-.39.136-.117.036-.236.062-.355.092-.134.034-.266.07-.403.098-.139.028-.28.044-.42.064-.118.017-.233.04-.352.051a8.05 8.05 0 01-1.58 0c-.119-.011-.234-.034-.353-.05-.14-.02-.28-.037-.42-.065-.136-.027-.268-.064-.402-.098-.119-.03-.238-.056-.356-.092-.132-.04-.26-.089-.389-.136-.117-.042-.235-.08-.35-.128-.121-.05-.237-.109-.355-.165-.119-.056-.238-.108-.355-.17-.114-.062-.224-.132-.335-.199-.112-.067-.226-.13-.335-.203-.126-.084-.245-.178-.365-.269-.088-.066-.178-.127-.264-.197q-.308-.253-.59-.534zM216 207.996H40a8 8 0 000 16h176a8 8 0 000-16z"/></svg>