<svg xmlns="http://www.w3.org/2000/svg" viewBox="0 0 256 256" width="20" height="20"><path fill="none" d="M0 0h256v256H0z"/><path d="M213.657 42.343a8.003 8.003 0 00-11.314 0L160 84.686V56a8 8 0 00-16 0v47.995q0 .399.04.797c.01.107.031.211.046.317.02.153.04.306.07.457.024.125.059.246.09.37.032.13.061.26.1.39.037.12.082.237.124.355.046.129.089.258.14.384.046.108.098.211.148.317.061.132.12.264.19.394.051.097.111.188.167.283.076.13.15.261.236.388.066.099.14.19.21.287.084.114.165.23.256.341.116.141.242.274.367.407.054.057.102.119.159.175.054.055.114.1.169.153.135.128.27.256.414.374.106.087.218.164.328.245.1.074.197.152.3.221.123.082.249.153.374.227.1.06.196.122.299.176.124.067.251.123.378.183.11.052.219.107.332.154.121.05.245.09.368.134.123.045.245.092.372.13.121.037.245.064.368.095.13.033.259.07.391.096.141.028.284.044.425.065.117.016.231.038.35.05.262.026.525.04.789.04h48a8 8 0 000-16h-28.686l42.343-42.343a8.001 8.001 0 000-11.314zM111.96 151.208c-.01-.107-.031-.211-.046-.317-.02-.153-.04-.306-.07-.457-.024-.125-.059-.246-.09-.37-.032-.13-.061-.26-.1-.39-.037-.12-.082-.237-.124-.355-.046-.129-.089-.258-.14-.384-.046-.108-.098-.211-.148-.317-.061-.132-.12-.264-.19-.394-.051-.097-.111-.188-.167-.283-.076-.13-.15-.261-.236-.388-.066-.099-.14-.19-.21-.287-.084-.114-.165-.23-.256-.341-.116-.141-.242-.274-.367-.407-.054-.057-.102-.119-.159-.175-.053-.054-.111-.099-.166-.15-.136-.129-.272-.258-.417-.377-.104-.086-.214-.16-.322-.24-.102-.076-.201-.156-.308-.227-.118-.079-.24-.148-.362-.22-.103-.062-.204-.127-.31-.183-.12-.064-.24-.117-.361-.174-.117-.055-.232-.114-.351-.163-.113-.047-.228-.084-.342-.125-.133-.048-.264-.099-.4-.14-.109-.033-.22-.057-.33-.085-.143-.036-.284-.076-.429-.105-.121-.024-.244-.037-.367-.055-.135-.02-.27-.046-.408-.06a8.086 8.086 0 00-.607-.03c-.06-.001-.117-.009-.177-.009H56a8 8 0 000 16h28.686l-42.343 42.343a8 8 0 0011.314 11.314L96 171.314V200a8 8 0 0016 0v-47.995q0-.399-.04-.797z"/></svg>