<svg xmlns="http://www.w3.org/2000/svg" viewBox="0 0 256 256" width="20" height="20"><path fill="none" d="M0 0h256v256H0z"/><path d="M205.657 138.343a8.002 8.002 0 00-11.314 0L136 196.687V40a8 8 0 00-16 0v156.687l-58.343-58.344a8 8 0 00-11.314 11.314l72 72c.026.026.055.048.081.073.162.158.329.312.504.456.097.08.2.15.301.225.109.08.215.165.328.24.116.079.237.146.357.218.105.062.207.128.315.185.12.065.244.12.366.177.114.054.227.111.343.16.119.048.24.088.36.131.126.045.25.094.38.133.12.036.241.063.362.093.132.033.263.07.397.097.14.028.28.044.42.064.119.017.234.04.353.051a8.052 8.052 0 001.58 0c.119-.012.234-.034.353-.05.14-.02.28-.037.42-.065.134-.027.265-.064.397-.097.121-.03.243-.057.362-.093.13-.04.254-.088.38-.133.12-.043.241-.083.36-.131.116-.049.229-.106.343-.16.122-.058.246-.112.366-.177.108-.057.21-.123.315-.185.12-.072.24-.14.357-.217.113-.076.22-.16.328-.241.1-.075.204-.145.301-.225a8.01 8.01 0 00.513-.464c.023-.023.049-.042.072-.065l72-72a8 8 0 000-11.314z"/></svg>