<svg xmlns="http://www.w3.org/2000/svg" viewBox="0 0 256 256" width="20" height="20"><path fill="none" d="M0 0h256v256H0z"/><path d="M150.627 198.059L136 212.686V160a8 8 0 00-16 0v52.686l-14.627-14.627a8 8 0 00-11.314 11.314l28.284 28.284c.046.046.096.085.143.13.142.135.284.269.435.393.061.05.128.094.19.143.145.112.289.224.44.325.052.035.106.063.158.097.169.107.339.213.516.308.037.02.077.035.115.055.194.1.39.196.594.28.023.01.047.017.07.027.218.087.438.168.664.237.028.01.058.014.085.022.221.065.444.124.672.17.067.012.136.018.203.03.19.033.38.066.573.085a7.902 7.902 0 001.598 0c.194-.019.383-.052.573-.085.067-.012.136-.018.203-.03.228-.046.45-.105.672-.17.027-.008.057-.013.085-.022a8.44 8.44 0 00.664-.237c.023-.01.047-.017.07-.026.204-.085.4-.181.594-.281.038-.02.078-.035.115-.055a8.36 8.36 0 00.516-.308c.052-.034.107-.062.158-.097.151-.101.295-.213.44-.325.062-.049.129-.092.19-.143.151-.124.293-.258.435-.393.047-.045.097-.084.143-.13l28.284-28.284a8 8 0 00-11.314-11.314zM105.373 57.941L120 43.314V96a8 8 0 0016 0V43.314l14.627 14.627a8 8 0 0011.314-11.314l-28.284-28.284c-.041-.041-.088-.077-.13-.117a7.827 7.827 0 00-.448-.406c-.061-.051-.128-.094-.19-.143-.145-.112-.289-.224-.44-.325-.052-.035-.106-.063-.158-.097a8.151 8.151 0 00-.516-.308c-.037-.02-.077-.036-.116-.055a7.81 7.81 0 00-.592-.28c-.026-.011-.052-.019-.078-.029a7.838 7.838 0 00-.657-.235c-.028-.01-.058-.014-.085-.022a7.904 7.904 0 00-.672-.17c-.067-.012-.136-.018-.203-.03a7.65 7.65 0 00-.573-.085 7.902 7.902 0 00-1.598 0c-.194.019-.383.052-.573.085-.067.012-.136.018-.203.03a7.906 7.906 0 00-.672.17c-.027.008-.057.013-.085.022a7.838 7.838 0 00-.657.235l-.078.028c-.203.085-.399.18-.592.28-.039.02-.079.036-.116.056a8.36 8.36 0 00-.516.308c-.052.034-.107.062-.158.097-.151.101-.295.213-.44.325-.062.049-.129.092-.19.143a7.827 7.827 0 00-.448.406c-.042.04-.089.076-.13.117L94.059 46.627a8 8 0 0011.314 11.314zM43.313 136H96a8 8 0 000-16H43.313l14.628-14.627a8 8 0 00-11.314-11.314l-28.284 28.284c-.031.03-.056.064-.086.095a7.88 7.88 0 00-.442.489c-.086.104-.16.214-.24.321-.075.102-.155.201-.225.307-.083.123-.155.252-.23.379-.058.097-.12.191-.173.291-.068.128-.126.259-.187.39-.05.106-.104.21-.15.32-.051.126-.093.254-.14.382-.041.119-.087.236-.124.357-.039.129-.068.26-.1.39-.03.122-.065.245-.09.37-.03.151-.05.304-.07.457-.015.106-.035.21-.046.317a8.023 8.023 0 000 1.584c.01.107.03.21.046.317.02.153.04.306.07.457.025.125.06.247.09.37.032.13.061.261.1.39.037.12.083.238.125.357.046.128.088.256.14.382.045.11.098.214.149.32.06.131.119.262.187.39.053.1.115.194.173.291.075.127.147.256.23.38.07.105.15.204.225.306.08.107.154.217.24.321.137.167.284.325.434.48.032.034.06.07.094.104l28.284 28.284a8 8 0 0011.314-11.314zm194.872-2.927c.086-.104.16-.214.24-.321.075-.102.155-.201.225-.307.083-.123.155-.252.23-.379.058-.097.12-.191.173-.291.068-.128.126-.259.187-.39.05-.106.104-.21.15-.32.051-.126.093-.254.14-.382.041-.119.087-.236.124-.357.039-.129.068-.26.1-.39.03-.122.065-.245.09-.37.03-.151.05-.304.07-.457.015-.106.035-.21.046-.317a8.023 8.023 0 000-1.584c-.01-.107-.03-.21-.046-.317a6.996 6.996 0 00-.07-.457c-.025-.125-.06-.247-.09-.37-.032-.13-.061-.261-.1-.39-.037-.12-.083-.238-.125-.357-.046-.128-.088-.256-.14-.382-.045-.11-.098-.214-.149-.32-.06-.131-.119-.262-.187-.39-.053-.1-.115-.194-.173-.291-.075-.127-.147-.256-.23-.38-.07-.105-.15-.204-.225-.306-.08-.107-.154-.217-.24-.321a7.88 7.88 0 00-.442-.488c-.03-.032-.055-.065-.086-.096L209.373 94.06a8 8 0 00-11.314 11.314L212.687 120H160a8 8 0 000 16h52.687l-14.628 14.627a8 8 0 0011.314 11.314l28.284-28.284c.033-.033.062-.07.094-.104.15-.155.297-.313.434-.48z"/></svg>