<svg xmlns="http://www.w3.org/2000/svg" viewBox="0 0 256 256" width="20" height="20"><path fill="none" d="M0 0h256v256H0z"/><path d="M117.657 205.657a8.002 8.002 0 000-11.314L59.313 136H216a8 8 0 000-16H59.313l58.344-58.343a8 8 0 00-11.314-11.314l-72 72c-.026.026-.048.055-.073.081a8.064 8.064 0 00-.456.504c-.08.097-.15.2-.225.301-.08.109-.165.215-.24.328-.079.116-.146.237-.218.357-.062.105-.128.207-.185.315-.065.12-.12.244-.177.366-.054.114-.111.227-.16.343-.048.119-.088.24-.131.36-.045.126-.094.25-.133.38-.036.12-.063.241-.093.362-.033.132-.07.263-.097.397-.028.14-.044.28-.064.42-.017.119-.04.234-.051.353a8.052 8.052 0 000 1.58c.012.119.034.234.05.353.02.14.037.28.065.42.027.134.064.265.097.397.03.121.057.243.093.362.04.13.088.254.133.38.043.12.083.241.131.36.049.116.106.229.16.343.058.122.112.246.177.366.057.108.123.21.185.315.072.12.14.24.217.357.076.113.16.22.241.328.075.1.145.204.225.301.147.178.303.348.464.513.023.023.042.049.065.072l72 72a8 8 0 0011.314 0z"/></svg>