<svg xmlns="http://www.w3.org/2000/svg" viewBox="0 0 256 256" width="20" height="20"><path fill="none" d="M0 0h256v256H0z"/><path d="M239.96 79.208c-.01-.107-.031-.211-.046-.317-.02-.153-.04-.306-.07-.457-.024-.125-.059-.246-.09-.37-.032-.13-.06-.26-.1-.39-.037-.12-.082-.237-.124-.355-.046-.129-.089-.258-.14-.384-.046-.108-.098-.211-.148-.317-.061-.132-.12-.264-.19-.394-.051-.097-.111-.188-.167-.283-.077-.13-.15-.261-.236-.388-.066-.099-.14-.19-.21-.287-.085-.114-.165-.23-.256-.341-.116-.141-.242-.274-.367-.407-.055-.057-.102-.119-.159-.175-.053-.054-.111-.099-.166-.15-.136-.129-.272-.258-.417-.377-.104-.086-.214-.16-.322-.24-.102-.076-.201-.156-.308-.227-.118-.079-.24-.148-.362-.22-.103-.062-.204-.127-.31-.183-.119-.064-.24-.117-.361-.174-.117-.055-.232-.114-.351-.163-.113-.047-.228-.084-.342-.125-.133-.048-.264-.099-.4-.14-.109-.033-.22-.057-.33-.085-.143-.036-.284-.076-.43-.105-.12-.024-.243-.037-.365-.055-.136-.02-.27-.046-.409-.06a8.072 8.072 0 00-.607-.03c-.06-.001-.117-.009-.177-.009h-72a8 8 0 000 16h52.686L120 180.687 29.657 90.343a8 8 0 00-11.314 11.314l96 96a8.002 8.002 0 0011.314 0L224 99.314V152a8 8 0 0016 0V80.005a7.98 7.98 0 00-.04-.797z"/></svg>