<svg xmlns="http://www.w3.org/2000/svg" viewBox="0 0 256 256" width="20" height="20"><path fill="none" d="M0 0h256v256H0z"/><path d="M201.54 110.46a104 104 0 00-147.08 0l-18.342 18.344V84.118a8 8 0 00-16 0v63.995c0 .266.014.532.04.797.01.108.031.211.046.317.021.153.04.306.07.458.025.125.06.246.09.369.032.13.061.26.1.39.037.12.082.237.124.355.046.129.089.258.141.385.045.107.098.21.147.316.061.132.12.265.19.394.052.097.111.189.167.283.077.13.15.261.236.388.066.099.14.191.21.287.085.114.165.23.256.341.116.141.242.274.367.407.055.058.103.119.159.175.053.054.111.099.166.15.136.13.272.258.417.377.104.085.213.16.32.24.103.076.203.156.31.228.117.078.24.146.36.218.104.062.206.127.313.185.118.063.24.117.36.173.117.055.232.114.352.163.112.047.227.084.341.125.133.049.264.099.4.14.108.033.219.057.33.085.142.037.284.076.43.105.12.023.24.037.361.055.138.02.274.046.413.06.202.02.405.026.607.03.06.001.117.01.177.01h64a8 8 0 000-16H47.433l18.342-18.343A88 88 0 01216 184a8 8 0 0016 0 103.322 103.322 0 00-30.46-73.54z"/></svg>