<svg xmlns="http://www.w3.org/2000/svg" viewBox="0 0 256 256" width="20" height="20"><path fill="none" d="M0 0h256v256H0z"/><path d="M200 72a8 8 0 00-8 8v88a48 48 0 01-96 0V51.313l34.343 34.344a8 8 0 0011.314-11.314l-48-48c-.016-.016-.034-.029-.05-.045a8.053 8.053 0 00-.536-.484c-.094-.077-.193-.145-.29-.217-.112-.084-.222-.171-.34-.25-.112-.075-.23-.14-.345-.21-.109-.065-.215-.133-.326-.192-.117-.063-.237-.115-.356-.172-.118-.055-.234-.114-.354-.164-.114-.047-.23-.085-.345-.127-.132-.047-.26-.097-.395-.138-.114-.034-.23-.059-.345-.088-.137-.035-.274-.073-.414-.101-.13-.026-.262-.041-.394-.06-.126-.019-.251-.043-.38-.055a8.036 8.036 0 00-.699-.036c-.03 0-.058-.004-.088-.004s-.059.004-.088.004a8.036 8.036 0 00-.699.036c-.129.012-.254.036-.38.055-.132.019-.264.034-.394.06-.14.028-.277.066-.414.1-.115.03-.231.055-.345.09-.134.04-.263.09-.395.137-.115.042-.23.08-.345.127-.12.05-.236.109-.354.164-.12.057-.24.11-.356.172-.111.06-.217.127-.326.192-.116.07-.233.135-.346.21-.117.079-.227.166-.34.25-.096.072-.195.14-.29.217a8.053 8.053 0 00-.535.484c-.016.016-.034.03-.05.045l-48 48a8 8 0 0011.314 11.314L80 51.313V168a64 64 0 00128 0V80a8 8 0 00-8-8z"/></svg>