<svg xmlns="http://www.w3.org/2000/svg" viewBox="0 0 256 256" width="20" height="20"><path fill="none" d="M0 0h256v256H0z"/><path d="M195.883 60.118a96.11 96.11 0 00-135.766 0L39.833 80.402V51.716a8 8 0 00-16 0V99.71a7.974 7.974 0 00.04.797c.01.107.031.212.046.318.021.153.04.305.07.456.025.126.06.248.09.372.033.13.061.26.1.387.037.123.083.24.126.36.045.127.087.254.138.379.046.111.1.217.152.326.06.128.117.258.184.384.056.102.119.2.178.3.074.124.144.25.225.37.073.11.155.213.234.318.077.104.149.21.232.31.148.181.307.354.47.52.02.021.037.044.058.065.016.016.034.029.05.045.171.169.35.331.536.484.094.077.193.144.29.217.112.084.222.171.339.25.113.075.23.14.346.21.109.064.215.132.326.192.117.062.237.115.356.171.118.056.234.115.354.165.114.047.23.085.345.126.131.048.26.098.395.138.114.035.23.06.345.089.137.035.274.073.414.101.13.026.262.04.393.06.127.019.252.043.381.055.232.023.465.033.699.035.03 0 .058.005.088.005h48a8 8 0 000-16H51.147L71.432 71.43a80 80 0 110 113.137 8 8 0 00-11.315 11.315A96 96 0 10195.883 60.118z"/></svg>