<svg xmlns="http://www.w3.org/2000/svg" viewBox="0 0 256 256" width="20" height="20"><path fill="none" d="M0 0h256v256H0z"/><path d="M74.343 173.657a8 8 0 010-11.314L172.687 64H92a8 8 0 010-16h100c.03 0 .059.004.088.004.234.003.467.013.699.036.129.012.254.036.381.055.13.019.263.034.393.06.14.028.277.066.416.101.114.03.229.054.343.088.135.041.265.092.397.14.114.04.23.078.342.125.123.05.24.11.36.166.117.056.235.108.35.17.115.06.223.13.335.197.112.067.227.131.336.205.124.082.24.174.358.262.09.068.183.131.272.203a8.044 8.044 0 011.117 1.117c.076.093.141.19.212.284.086.115.174.226.254.345.076.114.142.232.212.35.064.106.131.21.19.32.064.12.118.243.175.365.054.115.112.228.16.346.05.118.089.239.132.359.045.126.094.25.133.38.036.12.063.243.094.365.033.13.07.26.096.394.028.14.044.282.065.423.016.117.039.232.05.35.026.263.04.527.04.79v100a8 8 0 01-16 0V75.314l-98.343 98.343a8 8 0 01-11.314 0zM216 207.997H40a8 8 0 000 16h176a8 8 0 000-16z"/></svg>