<svg xmlns="http://www.w3.org/2000/svg" viewBox="0 0 256 256" width="20" height="20"><path fill="none" d="M0 0h256v256H0z"/><path d="M225.73 107.56c.133-.026.262-.062.392-.095.123-.03.247-.058.368-.095.127-.038.249-.085.372-.13.123-.044.247-.084.368-.134.113-.047.222-.102.332-.154.127-.06.254-.116.378-.183.103-.055.2-.117.299-.176.125-.074.251-.145.373-.227.104-.07.201-.147.301-.221.11-.081.222-.158.328-.246.144-.118.279-.246.414-.373.055-.053.115-.099.17-.153.056-.056.103-.118.158-.175.125-.133.251-.266.367-.407.091-.11.171-.227.255-.342.071-.095.145-.188.211-.286.085-.127.16-.258.236-.388.056-.095.115-.187.167-.284.07-.129.129-.261.19-.393.05-.106.102-.21.147-.317.052-.127.095-.256.14-.384.043-.118.088-.235.125-.355.04-.13.068-.26.1-.39.03-.124.066-.245.09-.37.03-.151.05-.304.07-.457.015-.106.035-.21.046-.317a7.974 7.974 0 00.04-.797V51.716a8 8 0 00-16 0V80.4l-20.284-20.284a96.111 96.111 0 00-135.766 0 8 8 0 0011.315 11.315 80.088 80.088 0 01113.136 0l20.285 20.284h-28.686a8 8 0 000 16h48c.264 0 .527-.014.79-.04.118-.012.232-.034.349-.05.142-.02.284-.037.424-.065zM184.568 184.568a80.088 80.088 0 01-113.136 0l-20.285-20.284h28.686a8 8 0 000-16h-48c-.06 0-.117.008-.177.01a8.04 8.04 0 00-.607.03c-.138.013-.273.038-.409.059-.122.018-.244.032-.366.056-.145.028-.286.068-.428.104-.11.028-.222.052-.332.085-.135.041-.266.092-.399.14-.114.041-.229.078-.342.125-.12.05-.234.108-.35.163-.121.057-.243.11-.361.174-.107.057-.208.122-.311.183-.122.072-.244.141-.362.22-.106.071-.206.15-.308.227-.108.08-.218.154-.322.24-.145.12-.28.248-.417.377-.055.051-.113.097-.166.15-.057.056-.104.118-.159.175-.125.133-.251.266-.367.407-.091.11-.171.227-.255.342-.071.095-.145.188-.211.286-.085.127-.16.258-.236.388-.056.095-.115.187-.167.284-.07.129-.129.261-.19.393-.05.106-.102.21-.147.317-.052.126-.095.256-.14.384-.043.118-.088.235-.125.355-.04.13-.068.26-.1.39-.03.124-.066.245-.09.37-.03.151-.05.304-.07.457-.015.106-.035.21-.046.317a7.974 7.974 0 00-.04.797v47.995a8 8 0 0016 0V175.6l20.284 20.284a96.111 96.111 0 00135.766 0 8 8 0 00-11.315-11.315z"/></svg>