<svg xmlns="http://www.w3.org/2000/svg" viewBox="0 0 256 256" width="20" height="20"><path fill="none" d="M0 0h256v256H0z"/><path d="M168 48H80a8 8 0 000 16h88a48 48 0 010 96H51.313l34.344-34.343a8 8 0 00-11.314-11.314l-48 48c-.024.024-.044.051-.068.075-.16.164-.315.332-.46.51-.084.102-.158.21-.236.315-.077.104-.158.205-.23.312-.082.123-.153.25-.227.375-.059.099-.12.194-.175.296-.068.127-.126.257-.186.386-.05.108-.105.213-.15.324-.052.125-.094.253-.14.38-.042.12-.088.237-.125.358-.039.129-.068.26-.1.39-.03.122-.066.245-.09.37-.03.15-.05.304-.07.457-.015.106-.035.21-.046.317a8.023 8.023 0 000 1.584c.01.107.031.211.046.317.02.153.04.306.07.457.024.125.06.247.09.37.032.13.061.261.1.39.037.121.083.238.125.358.046.127.088.255.14.38.045.11.1.216.15.324.06.13.118.26.186.386.054.101.116.197.175.296.074.125.145.252.227.375.072.107.153.208.23.312.078.105.152.213.236.316.143.174.295.339.452.5.026.027.049.057.076.084l48 48a8 8 0 1011.314-11.314L51.313 176H168a64 64 0 000-128z"/></svg>