<svg xmlns="http://www.w3.org/2000/svg" viewBox="0 0 256 256" width="20" height="20"><path fill="none" d="M0 0h256v256H0z"/><path d="M144 24a64.072 64.072 0 00-64 64v116.686l-34.343-34.343a8 8 0 00-11.314 11.314l48 48c.024.024.05.044.075.068.164.16.332.315.51.46.1.082.204.153.306.23.107.08.211.162.322.236.12.08.242.149.364.222.102.06.202.125.307.18.123.067.25.122.375.181.111.053.221.109.336.156.12.05.243.09.365.134.124.044.247.092.374.13.122.037.246.065.37.096.13.032.257.069.39.095.141.028.285.045.428.065.115.017.229.039.346.05a8.046 8.046 0 001.579 0c.117-.011.23-.033.345-.05.143-.02.287-.037.43-.065.13-.026.259-.063.388-.095.124-.031.248-.059.37-.095.127-.039.25-.087.374-.131.122-.044.245-.084.366-.134.114-.047.224-.103.336-.156.125-.059.251-.114.374-.18.105-.056.205-.12.307-.181.122-.073.245-.142.364-.222.11-.074.215-.157.322-.236.102-.077.207-.148.307-.23.177-.145.345-.3.51-.46.024-.024.05-.044.074-.068l48-48a8 8 0 00-11.314-11.314L96 204.686V88a48 48 0 0196 0v88a8 8 0 0016 0V88a64.072 64.072 0 00-64-64z"/></svg>