<svg xmlns="http://www.w3.org/2000/svg" viewBox="0 0 256 256" width="20" height="20"><path fill="none" d="M0 0h256v256H0z"/><path d="M199.999 63.978q-.001-.384-.04-.767c-.01-.12-.033-.237-.05-.357-.02-.14-.036-.279-.064-.417-.027-.135-.064-.266-.097-.399-.03-.12-.057-.24-.093-.36-.04-.13-.088-.256-.134-.383-.043-.12-.082-.239-.13-.356-.05-.118-.106-.23-.16-.345-.058-.122-.112-.246-.177-.366-.057-.107-.123-.21-.186-.315-.07-.119-.139-.24-.216-.356-.076-.113-.16-.22-.242-.33-.075-.1-.144-.202-.224-.3a8.103 8.103 0 00-.472-.521c-.02-.02-.037-.043-.057-.063-.023-.023-.048-.042-.071-.064a8.137 8.137 0 00-.514-.465c-.096-.079-.198-.148-.297-.221-.11-.083-.218-.168-.333-.246-.113-.076-.232-.142-.349-.211-.107-.065-.212-.132-.323-.191-.116-.062-.235-.115-.354-.17-.118-.057-.235-.116-.357-.167-.112-.046-.226-.083-.339-.123-.133-.049-.265-.1-.402-.14-.109-.034-.22-.058-.33-.086-.142-.037-.283-.076-.43-.105-.12-.024-.243-.038-.365-.056-.136-.02-.27-.045-.409-.059a8.144 8.144 0 00-.607-.03c-.06-.001-.117-.009-.177-.009H88a8 8 0 000 16h84.686L58.343 186.343a8 8 0 0011.314 11.314L184 83.314V168a8 8 0 0016 0V64z"/></svg>