<svg xmlns="http://www.w3.org/2000/svg" viewBox="0 0 256 256" width="20" height="20"><path fill="none" d="M0 0h256v256H0z"/><path d="M144.04 104.792c.01.108.031.212.046.319.021.152.04.304.07.455.025.126.06.248.09.372.032.13.061.26.1.387.037.123.083.24.126.36.045.127.087.255.138.38.046.11.1.216.152.325.06.129.117.258.185.384.055.103.117.2.177.3.074.124.144.25.225.37.073.11.155.213.234.318.077.104.149.21.232.31.148.181.307.354.47.52.02.022.037.044.058.065.016.016.034.03.05.045.171.169.35.331.536.484.094.078.194.145.29.218.112.084.222.17.339.248.114.077.233.144.351.214.107.063.21.13.32.189.12.064.243.118.366.176.114.054.226.11.343.16.119.048.24.088.36.13.126.046.25.095.38.134.12.036.241.063.362.093.132.033.262.07.396.097.141.028.284.044.425.065.117.016.231.039.35.05.262.026.525.04.789.04h40a8 8 0 000-16h-20.686l42.343-42.343a8 8 0 00-11.314-11.314L160 84.686V64a8 8 0 00-16 0v39.995q0 .399.04.797zm-32.08 46.416c-.01-.108-.031-.212-.046-.319-.021-.152-.04-.304-.07-.455-.025-.126-.06-.248-.09-.372-.032-.13-.061-.26-.1-.387-.037-.123-.083-.24-.126-.36-.045-.127-.087-.255-.138-.38-.046-.11-.1-.216-.152-.325-.06-.129-.117-.258-.185-.384-.055-.103-.117-.2-.177-.3-.074-.124-.144-.25-.225-.37-.073-.11-.155-.213-.234-.318-.077-.104-.149-.21-.232-.31a8.007 8.007 0 00-.47-.52c-.02-.022-.037-.044-.058-.065-.016-.016-.034-.03-.05-.045a7.916 7.916 0 00-.536-.484c-.093-.077-.193-.144-.29-.217-.112-.084-.222-.171-.34-.25-.112-.075-.23-.14-.346-.21-.108-.065-.214-.133-.325-.192-.117-.063-.237-.115-.356-.172-.118-.055-.233-.114-.354-.164-.114-.047-.23-.085-.345-.126-.132-.048-.26-.098-.395-.139-.114-.034-.23-.059-.344-.088-.138-.035-.275-.074-.415-.101-.13-.026-.262-.041-.394-.06-.126-.019-.251-.043-.38-.055a8.026 8.026 0 00-.699-.036c-.03 0-.058-.004-.088-.004H64a8 8 0 000 16h20.686l-42.343 42.343a8 8 0 0011.314 11.314L96 171.314V192a8 8 0 0016 0v-39.995q0-.399-.04-.797zM171.314 160H192a8 8 0 000-16h-40c-.03 0-.059.004-.088.004a8.026 8.026 0 00-.699.036c-.129.012-.254.036-.38.055-.132.019-.264.034-.394.06-.14.027-.277.066-.415.1-.114.03-.23.055-.344.09-.134.04-.264.09-.395.137-.115.042-.23.08-.345.127-.12.05-.236.109-.354.164-.12.057-.24.11-.356.172-.111.06-.217.127-.325.192-.116.07-.234.135-.347.21-.117.079-.227.166-.34.25-.096.073-.196.14-.29.217a7.916 7.916 0 00-.535.484c-.016.016-.034.03-.05.045-.02.02-.038.043-.058.064-.163.167-.322.34-.47.52-.083.101-.155.207-.232.31-.079.106-.16.21-.234.319-.081.12-.151.246-.225.37-.06.1-.122.197-.177.3-.068.126-.125.255-.185.384-.051.108-.106.215-.152.326-.05.124-.093.252-.138.378-.043.12-.09.238-.126.36-.039.128-.068.258-.1.387-.03.124-.065.247-.09.373-.03.15-.049.303-.07.455-.015.107-.035.211-.046.319q-.04.398-.04.797V192a8 8 0 0016 0v-20.686l42.343 42.343a8 8 0 0011.314-11.314zM112 64a8 8 0 00-16 0v20.686L53.657 42.343a8 8 0 10-11.314 11.314L84.686 96H64a8 8 0 000 16h40c.264 0 .527-.014.79-.04.118-.012.232-.034.349-.05.141-.02.284-.037.424-.065.135-.027.265-.064.397-.097.12-.03.242-.057.362-.093.13-.04.254-.088.38-.133.12-.043.241-.083.36-.132.117-.048.229-.105.343-.16.123-.057.246-.111.366-.175.11-.059.213-.126.32-.189.117-.07.237-.137.351-.214.117-.078.226-.164.338-.248.097-.073.197-.14.291-.218.187-.153.365-.315.536-.484.016-.016.034-.03.05-.045.02-.02.038-.043.058-.064.163-.167.322-.34.47-.52.083-.101.155-.207.232-.31.079-.106.16-.21.234-.319.08-.12.151-.246.225-.37.06-.1.122-.197.177-.3.068-.126.125-.255.185-.384.051-.109.106-.215.152-.326.05-.124.093-.252.138-.378.043-.12.09-.238.126-.36.039-.129.068-.258.1-.388.03-.124.065-.246.09-.372.03-.15.049-.303.07-.455.015-.107.035-.211.046-.32q.04-.397.04-.796z"/></svg>