<svg xmlns="http://www.w3.org/2000/svg" viewBox="0 0 256 256" width="20" height="20"><path fill="none" d="M0 0h256v256H0z"/><path d="M152 112a7.976 7.976 0 005.657-2.343L200 67.314V88a8 8 0 0016 0V48.005c0-.266-.014-.532-.04-.797-.01-.107-.031-.211-.046-.317a6.996 6.996 0 00-.07-.457c-.025-.126-.06-.248-.09-.372-.032-.13-.061-.26-.1-.387-.037-.122-.083-.24-.125-.359-.046-.127-.088-.255-.14-.38-.045-.11-.099-.216-.15-.324-.06-.13-.118-.26-.186-.386-.054-.101-.116-.198-.175-.297-.074-.125-.145-.252-.227-.374-.072-.107-.152-.207-.229-.31-.078-.106-.152-.215-.237-.318a7.88 7.88 0 00-.442-.489c-.03-.03-.055-.064-.086-.095-.027-.027-.057-.05-.085-.077a8.12 8.12 0 00-.5-.452c-.099-.08-.203-.152-.305-.228-.107-.08-.212-.163-.324-.237-.117-.08-.24-.148-.36-.22-.103-.061-.204-.126-.31-.183-.122-.065-.247-.12-.37-.178-.114-.054-.225-.11-.341-.159-.119-.048-.24-.088-.36-.131-.127-.045-.25-.094-.38-.133-.12-.036-.241-.063-.363-.093-.132-.033-.262-.07-.396-.097-.14-.028-.28-.044-.421-.064-.118-.017-.233-.04-.352-.05A8.05 8.05 0 00208 40h-40a8 8 0 000 16h20.686l-42.343 42.342A8 8 0 00152 112zm-53.657 34.343L56 188.686V168a8 8 0 00-16 0v39.995c0 .266.014.532.04.797.01.107.031.212.046.318.02.152.04.305.07.456.025.126.06.248.09.372.032.13.061.26.1.387.037.122.083.24.125.36.046.127.088.254.14.38.045.11.099.215.15.323.06.13.118.26.186.386.054.101.115.197.174.295.074.126.146.253.229.376.07.106.15.206.226.309.08.106.154.216.24.32.139.17.288.33.44.488.03.03.056.064.087.095.027.027.057.05.085.077.16.156.326.309.5.452.1.082.205.154.309.23.106.08.209.162.319.235.119.08.242.149.364.222.102.06.203.125.307.181.123.066.25.121.375.18.111.053.22.109.335.156.122.05.246.092.37.135.123.044.244.091.369.13.123.037.249.064.374.096.128.032.255.068.386.094.142.028.286.045.429.065.115.017.229.039.345.05.263.026.526.04.79.04h40a8 8 0 000-16H67.314l42.343-42.343a8 8 0 00-11.314-11.314zm116.081 66.411c.076-.103.155-.203.226-.309.083-.123.155-.25.23-.376.058-.098.119-.194.173-.295.068-.127.126-.257.186-.386.051-.108.105-.213.15-.324.052-.125.094-.252.14-.38.042-.12.088-.237.125-.359.039-.128.068-.258.1-.387.03-.124.065-.246.09-.372.03-.151.049-.304.07-.456.015-.106.035-.21.046-.318.026-.265.04-.531.04-.797V168a8 8 0 00-16 0v20.686l-42.343-42.343a8 8 0 00-11.314 11.314L188.686 200H168a8 8 0 000 16h40c.264 0 .527-.014.79-.04.116-.011.23-.033.345-.05.143-.02.287-.037.429-.065.13-.026.258-.062.386-.094.125-.032.25-.06.374-.097.125-.038.246-.085.369-.129.124-.044.248-.085.37-.135.114-.047.224-.103.335-.156.125-.059.252-.114.374-.18.105-.056.205-.12.308-.181.122-.073.245-.142.364-.222.11-.073.213-.156.32-.234.103-.077.208-.15.308-.231a8.12 8.12 0 00.5-.452c.028-.027.058-.05.085-.077.031-.03.056-.064.086-.095a7.88 7.88 0 00.442-.489c.085-.103.16-.213.239-.32zM67.314 56H88a8 8 0 000-16H48c-.264 0-.527.014-.79.04-.119.012-.234.034-.352.05-.14.02-.281.037-.42.065-.135.027-.265.064-.397.097-.122.03-.243.057-.363.093-.13.04-.253.088-.38.133-.12.043-.24.083-.36.131-.116.049-.227.105-.34.159-.124.058-.249.113-.37.178-.106.057-.207.122-.31.183-.122.072-.244.14-.361.22-.112.074-.217.157-.324.237-.102.076-.206.147-.305.228a8.12 8.12 0 00-.5.452c-.028.027-.058.05-.085.077-.031.03-.056.064-.086.095a7.88 7.88 0 00-.442.489c-.085.103-.159.212-.237.318-.077.103-.157.203-.229.31-.081.122-.153.249-.227.374-.058.099-.121.195-.175.297-.068.127-.126.257-.186.386-.05.108-.105.213-.15.323-.052.125-.094.254-.14.381-.042.12-.088.237-.125.359-.039.128-.068.258-.1.387-.03.124-.065.246-.09.372-.03.151-.049.304-.07.457-.015.106-.035.21-.046.317-.026.265-.04.531-.04.797V88a8 8 0 0016 0V67.314l42.343 42.343a8 8 0 0011.314-11.314z"/></svg>