<svg xmlns="http://www.w3.org/2000/svg" viewBox="0 0 256 256" width="20" height="20"><path fill="none" d="M0 0h256v256H0z"/><path d="M230.183 157.075c.091-.11.171-.227.255-.342.071-.095.145-.188.211-.286.085-.127.16-.258.236-.388.056-.095.115-.186.167-.284.07-.129.129-.261.19-.393.05-.106.102-.21.147-.317.052-.127.095-.255.14-.384.043-.119.088-.235.125-.355.04-.13.068-.26.1-.39.03-.124.066-.245.09-.37.03-.151.05-.304.07-.457.015-.106.035-.21.046-.317a8.023 8.023 0 000-1.584c-.01-.107-.031-.211-.046-.317-.02-.153-.04-.306-.07-.457-.024-.125-.06-.247-.09-.37-.032-.13-.06-.26-.1-.39-.037-.12-.082-.237-.124-.355-.046-.129-.089-.258-.14-.384-.046-.108-.098-.211-.148-.317-.061-.132-.12-.265-.19-.393-.052-.098-.111-.19-.167-.284-.077-.13-.15-.261-.236-.388-.066-.098-.14-.191-.21-.286-.085-.115-.165-.231-.256-.342-.116-.141-.242-.274-.367-.407-.055-.058-.102-.119-.159-.175l-48-48a8 8 0 00-11.314 11.314L204.686 144H128a88.1 88.1 0 01-88-88 8 8 0 00-16 0 104.118 104.118 0 00104 104h76.686l-34.343 34.343a8 8 0 0011.314 11.314l48-48c.057-.056.104-.117.159-.176.125-.132.251-.265.367-.406z"/></svg>