<svg xmlns="http://www.w3.org/2000/svg" viewBox="0 0 256 256" width="20" height="20"><path fill="none" d="M0 0h256v256H0z"/><path d="M198.41 196.772c.081-.109.166-.216.242-.33.077-.115.145-.236.216-.356.063-.105.129-.207.186-.315.065-.12.119-.243.176-.365.055-.115.112-.227.16-.345.05-.117.088-.237.131-.356.046-.127.094-.253.134-.383.036-.12.062-.24.093-.36.033-.133.07-.264.097-.4.028-.137.044-.277.064-.417.017-.119.04-.236.051-.356q.038-.383.039-.767L200 192V88a8 8 0 00-16 0v84.686L69.657 58.343a8 8 0 00-11.314 11.314L172.686 184H88a8 8 0 000 16h104c.264 0 .527-.014.79-.04.119-.012.234-.034.353-.05.14-.02.28-.037.42-.065.134-.027.265-.064.397-.097.121-.03.243-.057.362-.093.13-.04.254-.088.38-.133.12-.043.241-.083.36-.131.116-.05.229-.106.343-.16.122-.058.246-.112.366-.177.108-.057.21-.123.315-.185.12-.072.24-.139.357-.217.113-.076.22-.16.328-.24.1-.076.204-.146.301-.226.178-.147.348-.303.513-.464.023-.023.049-.042.072-.065.02-.02.037-.042.057-.063.164-.167.323-.34.472-.522.08-.097.149-.2.224-.3z"/></svg>