<svg xmlns="http://www.w3.org/2000/svg" viewBox="0 0 256 256" width="20" height="20"><path fill="none" d="M0 0h256v256H0z"/><path d="M200 100v100c0 .263-.014.527-.04.79-.011.117-.034.232-.05.348-.02.142-.037.285-.065.426-.026.132-.063.26-.095.39-.031.123-.059.247-.095.37-.039.126-.087.25-.132.374-.043.121-.083.244-.133.364-.047.115-.103.225-.156.337-.059.125-.114.251-.18.374-.056.104-.12.203-.18.304-.073.123-.143.247-.223.367-.072.108-.153.21-.23.314-.079.105-.152.213-.236.315a8.183 8.183 0 01-.43.475c-.034.036-.063.074-.098.11-.035.035-.074.064-.11.1-.154.147-.31.292-.474.427-.1.082-.206.154-.31.231-.106.08-.21.162-.32.235-.117.08-.24.148-.36.22-.103.061-.205.126-.31.183-.122.065-.246.12-.37.178-.113.053-.225.11-.341.158-.119.05-.24.09-.36.132-.126.045-.25.094-.38.133-.12.036-.24.063-.362.093-.132.033-.263.07-.397.097-.14.028-.28.044-.42.064-.119.017-.234.04-.353.051-.263.026-.526.04-.79.04H92a8 8 0 010-16h80.686L74.343 93.657a8 8 0 1111.314-11.314L184 180.686V100a8 8 0 0116 0zm16-67.996H40a8 8 0 000 16h176a8 8 0 000-16z"/></svg>