<svg xmlns="http://www.w3.org/2000/svg" viewBox="0 0 256 256" width="20" height="20"><path fill="none" d="M0 0h256v256H0z"/><path d="M224 208V48a16.018 16.018 0 00-16-16H48a16.018 16.018 0 00-16 16v160a16.018 16.018 0 0016 16h160a16.018 16.018 0 0016-16zm-62.343-102.343L119.314 148H148a8 8 0 010 16h-48c-.06 0-.118-.008-.177-.009a8.4 8.4 0 01-.607-.03c-.139-.014-.274-.04-.41-.06-.122-.018-.244-.031-.365-.055-.146-.03-.288-.07-.431-.106-.11-.028-.22-.052-.328-.084-.137-.042-.27-.093-.404-.141-.113-.04-.226-.078-.337-.123-.122-.051-.24-.11-.36-.167-.117-.056-.236-.108-.35-.17-.113-.06-.22-.128-.329-.193-.115-.07-.231-.134-.344-.21-.117-.078-.227-.165-.339-.249-.097-.072-.196-.14-.29-.217a8.078 8.078 0 01-.525-.474c-.02-.02-.041-.035-.06-.055-.017-.016-.031-.035-.048-.052a8.082 8.082 0 01-.482-.533c-.08-.097-.15-.2-.224-.3-.081-.109-.166-.216-.242-.33-.078-.115-.145-.236-.216-.356-.063-.105-.129-.207-.186-.315-.065-.12-.12-.245-.178-.369-.054-.113-.11-.224-.158-.34-.05-.12-.09-.242-.134-.364-.044-.125-.092-.247-.13-.375-.038-.123-.065-.247-.096-.371-.033-.13-.069-.257-.095-.388-.029-.145-.046-.291-.067-.437-.015-.112-.037-.223-.048-.337a8.082 8.082 0 01-.04-.793V108a8 8 0 0116 0v28.686l42.343-42.343a8 8 0 1111.314 11.314z"/></svg>