<svg xmlns="http://www.w3.org/2000/svg" viewBox="0 0 256 256" width="20" height="20"><path fill="none" d="M0 0h256v256H0z"/><path d="M229.657 154.343a8.001 8.001 0 00-11.314 0L184 188.686V64a8 8 0 00-8-8H32a8 8 0 000 16h136v116.686l-34.343-34.343a8 8 0 00-11.314 11.314l48 48c.016.016.034.03.05.045.171.169.35.331.536.484.094.078.194.145.29.218.113.084.222.17.339.248.114.077.233.144.351.214.107.063.21.13.32.189.12.064.243.118.366.176.114.054.226.11.343.16.119.048.24.088.36.13.126.046.25.095.38.134.12.036.241.063.362.093.132.033.262.07.397.097.14.028.283.044.424.065.117.016.231.038.35.05a8.042 8.042 0 001.579 0c.118-.012.232-.034.349-.05.141-.02.284-.037.424-.065.135-.027.265-.064.397-.097.12-.03.242-.057.362-.093.13-.04.254-.088.38-.133.12-.043.241-.083.36-.132.117-.048.229-.105.343-.16.123-.057.246-.111.366-.175.11-.059.213-.126.32-.189.117-.07.237-.137.351-.214.117-.078.226-.164.338-.248.097-.073.197-.14.291-.218.187-.153.365-.315.536-.484.016-.016.034-.03.05-.045l48-48a8 8 0 000-11.314z"/></svg>