<svg xmlns="http://www.w3.org/2000/svg" viewBox="0 0 256 256" width="20" height="20"><path fill="none" d="M0 0h256v256H0z"/><path d="M221.657 74.343l-48-48c-.02-.02-.043-.037-.064-.058a7.977 7.977 0 00-.52-.47c-.1-.082-.204-.152-.306-.229-.107-.08-.212-.163-.324-.237-.117-.08-.24-.148-.36-.22-.104-.061-.205-.126-.31-.183-.123-.066-.249-.121-.374-.18-.112-.053-.222-.108-.336-.156-.122-.05-.246-.091-.37-.135-.122-.044-.244-.091-.37-.13-.123-.037-.248-.064-.373-.095-.129-.033-.255-.069-.386-.095-.145-.029-.291-.046-.437-.067-.112-.015-.223-.037-.336-.048a8.069 8.069 0 00-1.582 0c-.113.011-.224.033-.336.048-.146.021-.292.038-.437.067-.13.026-.257.062-.386.095-.125.03-.25.058-.374.096-.125.038-.247.085-.37.13-.123.043-.247.084-.369.134-.114.048-.224.103-.336.156-.125.059-.25.114-.373.18-.106.057-.207.122-.31.183-.122.072-.244.14-.361.22-.112.074-.217.157-.324.237-.102.077-.206.147-.306.229-.18.148-.353.307-.52.47-.02.02-.043.038-.064.058l-48 48a8 8 0 0011.314 11.314L160 51.314V168a48 48 0 01-96 0V80a8 8 0 00-16 0v88a64 64 0 00128 0V51.314l34.343 34.343a8 8 0 0011.314-11.314z"/></svg>