<svg xmlns="http://www.w3.org/2000/svg" viewBox="0 0 256 256" width="20" height="20"><path fill="none" d="M0 0h256v256H0z"/><path d="M224 184H88V67.314l34.343 34.343a8 8 0 0011.314-11.314l-48-48c-.016-.016-.034-.03-.05-.045a7.916 7.916 0 00-.536-.484c-.093-.077-.193-.144-.29-.217-.112-.084-.222-.171-.34-.25-.112-.075-.23-.14-.346-.21-.108-.065-.214-.132-.325-.192-.117-.063-.237-.115-.356-.172-.118-.055-.233-.114-.354-.164-.114-.047-.23-.085-.345-.126-.132-.048-.26-.098-.395-.139-.114-.034-.23-.059-.344-.088-.138-.035-.275-.074-.415-.101-.13-.026-.262-.041-.394-.06-.126-.019-.251-.043-.38-.055a8.026 8.026 0 00-.699-.035c-.03 0-.058-.005-.088-.005s-.059.004-.088.004a8.026 8.026 0 00-.699.036c-.129.012-.254.036-.38.055-.132.019-.264.034-.394.06-.14.027-.277.066-.415.1-.114.03-.23.055-.344.09-.134.04-.263.09-.395.137-.115.042-.23.08-.345.127-.12.05-.236.109-.354.164-.12.057-.24.11-.356.172-.111.06-.217.127-.325.192-.116.07-.234.135-.347.21-.117.079-.227.166-.34.25-.096.073-.196.14-.29.217a7.916 7.916 0 00-.535.484c-.016.016-.034.03-.05.045l-48 48a8 8 0 0011.314 11.314L72 67.314V192a8 8 0 008 8h144a8 8 0 000-16z"/></svg>