<svg xmlns="http://www.w3.org/2000/svg" viewBox="0 0 256 256" width="20" height="20"><path fill="none" d="M0 0h256v256H0z"/><path d="M230.185 173.073c.086-.104.16-.214.24-.321.075-.102.155-.201.225-.307.083-.123.155-.252.23-.379.058-.097.12-.191.173-.291.068-.128.126-.259.187-.39.05-.106.104-.21.15-.32.051-.126.094-.254.14-.382.042-.119.087-.236.124-.357.039-.129.068-.26.1-.39.03-.122.066-.245.09-.37.03-.151.05-.304.07-.457.015-.106.035-.21.046-.317a8.023 8.023 0 000-1.584c-.01-.107-.031-.21-.046-.317a6.996 6.996 0 00-.07-.457c-.024-.125-.06-.247-.09-.37-.032-.13-.061-.261-.1-.39-.037-.12-.082-.238-.125-.357-.045-.128-.088-.256-.14-.382-.045-.11-.099-.214-.149-.32-.06-.131-.119-.262-.187-.39-.053-.1-.115-.194-.172-.291-.076-.127-.148-.256-.23-.38-.071-.105-.15-.204-.226-.306-.08-.107-.154-.217-.24-.321a7.96 7.96 0 00-.442-.488c-.03-.032-.055-.065-.086-.096l-48-48a8 8 0 10-11.314 11.314L204.687 160H88a48 48 0 010-96h88a8 8 0 000-16H88a64 64 0 000 128h116.687l-34.344 34.343a8 8 0 0011.314 11.314l48-48c.034-.033.062-.07.094-.104.15-.155.297-.313.434-.48z"/></svg>