<svg xmlns="http://www.w3.org/2000/svg" viewBox="0 0 256 256" width="20" height="20"><path fill="none" d="M0 0h256v256H0z"/><path d="M200 24A104.118 104.118 0 0096 128v76.687l-34.343-34.344a8 8 0 00-11.314 11.314l48 48c.054.054.114.1.169.153.135.127.27.255.414.374.106.087.218.164.328.245.1.074.197.152.3.221.123.082.249.153.374.227.1.059.196.122.299.176.124.067.251.123.378.183.11.052.219.107.332.154.121.05.245.09.368.134.123.045.245.092.372.13.121.037.245.064.368.096.13.032.259.068.391.095.141.028.283.045.425.065.117.016.231.038.35.05a8.046 8.046 0 001.579 0c.118-.012.232-.034.349-.05.141-.02.284-.037.424-.065.133-.027.262-.063.392-.095.123-.032.247-.059.368-.095.127-.039.249-.086.372-.13.123-.045.247-.085.368-.135.113-.047.222-.102.332-.154.127-.06.254-.116.378-.183.103-.054.2-.117.299-.176.125-.074.251-.145.373-.227.104-.069.2-.147.301-.22.11-.082.222-.159.328-.246.144-.119.279-.246.414-.374.055-.052.115-.099.17-.153l48-48a8 8 0 00-11.315-11.314L112 204.687V128a88.1 88.1 0 0188-88 8 8 0 000-16z"/></svg>