<svg xmlns="http://www.w3.org/2000/svg" viewBox="0 0 256 256" width="20" height="20"><path fill="none" d="M0 0h256v256H0z"/><path d="M133.657 154.343c-.053-.054-.111-.099-.166-.15-.136-.129-.272-.258-.417-.377-.104-.086-.214-.16-.322-.24-.102-.076-.201-.156-.308-.227-.118-.079-.24-.148-.362-.22-.103-.062-.204-.126-.31-.183-.12-.064-.24-.117-.361-.174-.117-.055-.232-.113-.351-.163-.113-.047-.228-.084-.342-.125-.133-.048-.264-.099-.4-.14-.109-.033-.22-.057-.33-.085-.143-.036-.284-.076-.429-.105-.121-.024-.244-.037-.367-.055-.135-.02-.27-.046-.408-.06a8.054 8.054 0 00-.607-.03c-.06-.001-.117-.009-.177-.009s-.118.008-.177.009c-.202.004-.405.01-.607.03-.138.014-.273.04-.408.06-.123.018-.246.031-.367.055-.145.03-.286.069-.428.105-.11.028-.222.052-.331.085-.136.041-.267.092-.4.14-.114.04-.23.078-.342.125-.12.05-.234.108-.35.163-.121.057-.243.11-.361.173-.107.057-.207.122-.311.184-.122.072-.244.141-.362.22-.107.071-.206.15-.308.227-.108.08-.218.154-.322.24-.145.119-.281.248-.417.377-.055.051-.113.096-.166.15l-28.284 28.284a8 8 0 0011.314 11.314L120 179.314V232a8 8 0 0016 0v-52.686l14.627 14.627a8 8 0 0011.314-11.314zM122.343 101.657c.054.055.114.1.169.153.135.128.27.256.414.374.106.087.218.164.328.245.1.074.197.152.3.221.123.082.249.153.374.227.1.06.197.122.299.176.124.067.251.123.378.183.11.052.219.107.332.154.121.05.245.09.368.135.123.044.245.091.372.13.121.036.245.063.368.094.13.033.259.07.391.096.141.028.284.044.425.065.117.016.231.038.35.05a8.042 8.042 0 001.579 0c.118-.012.232-.034.349-.05.141-.02.284-.037.424-.065.133-.026.262-.063.392-.096.123-.03.247-.058.368-.094.127-.039.249-.086.372-.13.123-.044.247-.085.368-.135.113-.047.222-.102.332-.154.127-.06.254-.116.378-.183.102-.054.2-.117.299-.176.125-.074.251-.145.373-.227.104-.07.2-.147.301-.22.11-.082.222-.159.328-.246.144-.118.279-.246.414-.374.055-.052.115-.098.17-.153l28.283-28.284a8 8 0 00-11.314-11.314L136 76.686V24a8 8 0 00-16 0v52.686L105.373 62.06A8 8 0 0094.06 73.373zM101.816 133.482c.125-.133.25-.266.367-.407.091-.11.171-.227.255-.341.07-.096.145-.188.211-.287.085-.127.16-.258.236-.388.056-.095.115-.186.167-.283.07-.13.129-.262.19-.394.05-.106.102-.209.147-.317.052-.126.095-.255.14-.384.043-.118.088-.235.125-.355.039-.13.068-.26.1-.39.031-.123.066-.245.09-.37.03-.151.05-.304.07-.457.015-.106.035-.21.046-.317a8.022 8.022 0 000-1.584c-.01-.107-.031-.211-.046-.317-.02-.153-.04-.306-.07-.457-.024-.125-.059-.247-.09-.37-.032-.13-.061-.26-.1-.39-.037-.12-.082-.237-.124-.355-.046-.129-.089-.258-.14-.384-.046-.108-.098-.211-.148-.317-.061-.132-.12-.264-.19-.394-.052-.096-.111-.188-.167-.283-.076-.13-.15-.261-.236-.388-.066-.099-.14-.191-.21-.287-.085-.114-.165-.23-.256-.341-.116-.141-.242-.274-.367-.407-.054-.057-.102-.119-.159-.175L73.373 94.059a8 8 0 00-11.314 11.314L76.686 120H24a8 8 0 000 16h52.686l-14.627 14.627a8 8 0 0011.314 11.314l28.284-28.284c.057-.056.105-.118.159-.175zM232 120h-52.686l14.627-14.627a8 8 0 00-11.314-11.314l-28.284 28.284c-.057.056-.105.118-.159.175-.125.133-.25.266-.367.407-.091.11-.171.227-.255.341-.07.096-.145.188-.211.287-.085.127-.16.258-.236.388-.056.095-.115.187-.167.283-.07.13-.129.262-.19.394-.05.106-.102.209-.147.317-.052.126-.095.255-.14.384-.043.118-.088.235-.125.355-.039.13-.068.26-.1.39-.031.123-.066.245-.09.37-.03.151-.049.304-.07.457-.015.106-.035.21-.046.317a8.022 8.022 0 000 1.584c.01.107.031.211.046.317.021.153.04.306.07.457.024.125.059.247.09.37.032.13.061.26.1.39.037.12.082.237.124.355.046.129.089.258.14.384.046.108.099.211.148.317.061.132.12.264.19.394.052.096.111.188.167.283.076.13.15.261.236.388.066.099.14.191.21.287.085.114.165.23.256.341.116.141.242.274.367.407.054.057.102.119.159.175l28.284 28.284a8 8 0 0011.314-11.314L179.314 136H232a8 8 0 000-16z"/></svg>