<svg xmlns="http://www.w3.org/2000/svg" viewBox="0 0 256 256" width="20" height="20"><path fill="none" d="M0 0h256v256H0z"/><path d="M200 216a88.1 88.1 0 01-88-88V51.314l34.343 34.343a8 8 0 0011.314-11.314l-48-48c-.053-.053-.111-.099-.166-.15-.136-.129-.272-.258-.417-.377-.104-.086-.214-.16-.322-.24-.102-.077-.201-.156-.308-.227-.118-.079-.24-.148-.362-.22-.103-.062-.204-.127-.31-.184-.119-.063-.24-.116-.361-.173-.117-.056-.232-.114-.351-.163-.113-.047-.228-.084-.342-.125-.133-.048-.264-.099-.4-.14-.109-.033-.22-.057-.33-.085-.143-.036-.284-.076-.43-.105-.12-.024-.243-.037-.365-.055-.136-.021-.27-.046-.409-.06a8.136 8.136 0 00-.607-.03c-.06-.001-.117-.009-.177-.009s-.117.008-.177.009a8.142 8.142 0 00-.607.03c-.138.014-.273.04-.409.06-.122.018-.245.031-.366.055-.145.03-.286.069-.428.105-.11.028-.222.052-.332.085-.135.041-.266.092-.399.14-.114.04-.229.078-.342.125-.12.05-.234.108-.35.163-.121.057-.243.11-.361.174-.107.056-.208.121-.311.183-.122.072-.244.141-.362.22-.107.071-.206.15-.308.227-.108.08-.218.154-.322.24-.145.12-.28.248-.417.377-.055.051-.113.097-.166.15l-48 48a8 8 0 0011.314 11.314L96 51.314V128a104.118 104.118 0 00104 104 8 8 0 000-16z"/></svg>