<svg xmlns="http://www.w3.org/2000/svg" viewBox="0 0 256 256" width="20" height="20"><path fill="none" d="M0 0h256v256H0z"/><path d="M161.9 182.6a8 8 0 01-5.6 13.7H136V232a8 8 0 01-16 0v-35.7H99.7a8 8 0 01-5.6-13.7l28.2-28.3a8.1 8.1 0 0111.4 0zm-39.6-80.9a8.2 8.2 0 0011.4 0l28.2-28.3a8 8 0 00-5.6-13.7H136V24a8 8 0 00-16 0v35.7H99.7a8 8 0 00-5.6 13.7zm-20.6 20.6L73.4 94.1a8 8 0 00-13.7 5.6V120H24a8 8 0 000 16h35.7v20.3a8.2 8.2 0 005 7.4 7.7 7.7 0 003 .6 8 8 0 005.7-2.4l28.3-28.2a8.1 8.1 0 000-11.4zM232 120h-35.7V99.7a8 8 0 00-13.7-5.6l-28.3 28.2a8.1 8.1 0 000 11.4l28.3 28.2a8 8 0 005.7 2.4 7.7 7.7 0 003-.6 8.2 8.2 0 005-7.4V136H232a8 8 0 000-16z"/></svg>