<svg xmlns="http://www.w3.org/2000/svg" viewBox="0 0 256 256" width="20" height="20"><path fill="none" d="M0 0h256v256H0z"/><path d="M181.657 82.343a8.001 8.001 0 010 11.314L83.314 192H164a8 8 0 010 16H64c-.264 0-.527-.014-.79-.04-.119-.012-.234-.034-.353-.05-.14-.021-.28-.037-.42-.065-.134-.027-.265-.064-.397-.097-.121-.03-.243-.057-.362-.093-.13-.04-.254-.088-.38-.133-.12-.043-.241-.083-.36-.132-.116-.048-.228-.105-.342-.158-.123-.058-.247-.113-.368-.178-.106-.057-.207-.122-.311-.183-.12-.072-.243-.14-.36-.22-.11-.073-.214-.156-.32-.235-.104-.077-.21-.149-.31-.231a7.936 7.936 0 01-.465-.42c-.04-.038-.08-.07-.12-.108-.037-.038-.069-.08-.106-.118a7.984 7.984 0 01-.42-.466c-.085-.102-.158-.21-.236-.315-.078-.104-.159-.206-.23-.314-.081-.12-.15-.244-.224-.367-.06-.101-.124-.2-.18-.304-.066-.123-.121-.249-.18-.374-.053-.112-.109-.222-.156-.337-.05-.12-.09-.243-.133-.364-.045-.125-.093-.248-.132-.375-.036-.122-.064-.246-.094-.369-.033-.13-.07-.258-.096-.39-.028-.141-.045-.284-.065-.426-.016-.116-.039-.23-.05-.349A8.046 8.046 0 0156 200V100a8 8 0 0116 0v80.686l98.343-98.343a8.003 8.003 0 0111.314 0zM216 32.003H40a8 8 0 000 16h176a8 8 0 000-16z"/></svg>