<svg xmlns="http://www.w3.org/2000/svg" viewBox="0 0 256 256" width="20" height="20"><path fill="none" d="M0 0h256v256H0z"/><path d="M237.657 90.343a8.003 8.003 0 00-11.314 0L136 180.687 43.314 88H96a8 8 0 000-16H24c-.06 0-.117.008-.177.009-.203.004-.405.01-.607.03-.138.014-.273.04-.409.06-.122.018-.244.031-.366.055-.145.03-.286.069-.428.105-.11.028-.222.052-.332.085-.135.041-.266.092-.399.14-.114.04-.229.078-.342.125-.12.05-.234.108-.35.163-.121.057-.243.11-.361.174-.107.056-.208.121-.311.183-.122.072-.244.141-.362.22-.106.071-.206.15-.308.227-.108.08-.218.154-.322.24-.145.12-.28.248-.417.377-.055.051-.113.096-.166.15-.057.056-.104.118-.159.175-.125.133-.251.266-.367.407-.091.11-.171.227-.255.341-.071.096-.145.188-.211.287-.085.127-.16.258-.236.388-.056.095-.115.186-.167.283-.07.13-.129.262-.19.394-.05.106-.102.209-.147.317-.052.126-.095.255-.14.384-.043.118-.088.235-.125.355-.04.13-.068.26-.1.39-.03.124-.066.245-.09.37-.03.151-.049.304-.07.457-.015.106-.035.21-.046.317a7.98 7.98 0 00-.04.797V152a8 8 0 0016 0V99.314l98.343 98.343a8.002 8.002 0 0011.314 0l96-96a8.001 8.001 0 000-11.314z"/></svg>