<svg xmlns="http://www.w3.org/2000/svg" viewBox="0 0 256 256" width="20" height="20"><path fill="none" d="M0 0h256v256H0z"/><path d="M225.334 107.621c.132-.02.264-.034.394-.06.14-.028.277-.066.414-.101.115-.03.231-.054.345-.089.134-.04.263-.09.395-.138.115-.041.23-.079.345-.126.12-.05.236-.109.354-.165.12-.056.24-.109.356-.171.111-.06.217-.128.326-.192.116-.07.233-.135.346-.21.117-.079.227-.166.34-.25.096-.073.195-.14.29-.217a8.04 8.04 0 00.535-.484c.016-.016.034-.03.05-.045.02-.02.038-.044.058-.064.163-.167.322-.34.47-.52.083-.101.155-.207.232-.31.079-.106.16-.21.234-.319.08-.12.151-.246.225-.37.06-.1.122-.198.177-.3.068-.126.125-.256.185-.384.051-.109.106-.215.152-.326.051-.125.093-.252.138-.378.043-.12.09-.238.126-.36.039-.129.067-.259.1-.388.03-.124.065-.246.09-.372.03-.151.049-.303.07-.456.015-.106.035-.21.046-.318a7.974 7.974 0 00.04-.797V51.716a8 8 0 00-16 0v28.686l-20.284-20.284a95.955 95.955 0 100 135.764 8 8 0 10-11.315-11.313 80 80 0 110-113.138l20.285 20.285h-28.686a8 8 0 000 16h48c.03 0 .059-.004.088-.005.234-.002.467-.012.699-.035.129-.012.254-.036.38-.055z"/></svg>