<svg xmlns="http://www.w3.org/2000/svg" viewBox="0 0 256 256" width="20" height="20"><path fill="none" d="M0 0h256v256H0z"/><path d="M48 224h160a16.018 16.018 0 0016-16V48a16.018 16.018 0 00-16-16H48a16.018 16.018 0 00-16 16v160a16.018 16.018 0 0016 16zM94.343 94.343a8 8 0 0111.314 0L148 136.686V108a8 8 0 0116 0v47.998c0 .264-.014.529-.04.793-.011.113-.033.224-.049.336-.02.146-.037.292-.066.437-.026.131-.062.259-.095.388-.03.124-.058.248-.095.371-.039.128-.087.25-.131.375-.044.122-.084.244-.134.364-.048.116-.104.227-.158.34-.058.124-.113.248-.178.37-.057.107-.123.21-.186.315-.07.119-.138.24-.216.356-.076.113-.16.22-.242.329-.075.1-.144.203-.225.3a8.103 8.103 0 01-.481.533c-.017.017-.03.036-.047.052-.02.02-.041.035-.06.055a8.106 8.106 0 01-.526.474c-.094.078-.193.145-.29.217-.112.084-.222.171-.34.25-.112.075-.228.14-.343.209-.11.065-.216.133-.329.194-.115.061-.233.113-.35.169-.12.056-.238.116-.36.167-.111.046-.224.082-.337.123-.134.049-.267.1-.404.141-.108.033-.218.056-.328.084-.143.037-.285.077-.431.106-.121.024-.243.037-.365.055-.136.021-.271.046-.41.06-.202.02-.404.025-.607.03-.06.001-.117.01-.177.01h-48a8 8 0 010-16h28.686l-42.343-42.344a8 8 0 010-11.314z"/></svg>