<svg xmlns="http://www.w3.org/2000/svg" viewBox="0 0 256 256" width="20" height="20"><path fill="none" d="M0 0h256v256H0z"/><path d="M176 176a7.977 7.977 0 01-5.657-2.343L72 75.314V156a8 8 0 01-16 0V56c0-.263.014-.527.04-.79.011-.118.034-.233.05-.35.02-.141.037-.283.065-.423.027-.134.063-.263.096-.394.03-.122.058-.245.094-.366.04-.129.088-.253.133-.38.043-.12.083-.24.131-.358.05-.118.107-.231.161-.346.057-.122.111-.245.175-.364.059-.11.126-.215.19-.322.07-.117.136-.235.212-.349.08-.119.168-.23.254-.345.07-.094.136-.191.212-.284a8.044 8.044 0 011.117-1.117c.089-.072.181-.135.272-.203.118-.088.234-.18.358-.262.11-.074.224-.138.336-.205.112-.067.22-.136.335-.198.115-.061.233-.113.35-.169.12-.056.237-.116.36-.166.113-.047.228-.085.342-.126.132-.047.262-.098.397-.139.114-.034.23-.059.343-.088.139-.035.275-.073.416-.101.13-.026.262-.041.393-.06.127-.019.252-.043.381-.055.232-.023.465-.033.699-.036.03 0 .058-.004.088-.004h100a8 8 0 010 16H83.313l98.344 98.343A8 8 0 01176 176zM32 215.996a8 8 0 008 8h176a8 8 0 000-16H40a8 8 0 00-8 8z"/></svg>