<svg xmlns="http://www.w3.org/2000/svg" viewBox="0 0 256 256" width="20" height="20"><path fill="none" d="M0 0h256v256H0z"/><path d="M230.184 181.074c.087-.106.164-.218.245-.328.074-.1.152-.197.22-.3.084-.125.157-.254.233-.382.057-.096.118-.19.17-.29.07-.127.128-.259.19-.39.049-.106.102-.21.147-.32.052-.126.095-.254.14-.382.043-.119.088-.235.125-.356.039-.13.068-.26.1-.39.031-.124.066-.245.09-.37.03-.151.05-.305.07-.458.015-.105.035-.21.046-.316a8.023 8.023 0 000-1.584c-.01-.107-.03-.211-.045-.316-.022-.153-.04-.307-.07-.458-.025-.125-.06-.247-.09-.37-.033-.13-.062-.26-.101-.39-.037-.12-.082-.237-.125-.356-.045-.128-.088-.257-.14-.383-.045-.109-.098-.213-.148-.32-.061-.13-.12-.262-.188-.39-.053-.1-.114-.193-.171-.29-.076-.127-.149-.256-.232-.38-.07-.104-.147-.202-.22-.301-.082-.11-.159-.222-.246-.328a7.774 7.774 0 00-.421-.466c-.037-.038-.068-.08-.106-.117l-32-32a8 8 0 00-11.314 11.314L204.687 168H32a8 8 0 000 16h172.687l-18.344 18.343a8 8 0 0011.314 11.314l32-32c.04-.04.074-.084.114-.125a7.81 7.81 0 00.413-.458zM25.57 75.254c-.073.1-.15.197-.22.3-.083.125-.156.254-.232.382-.057.096-.118.19-.17.29-.07.127-.128.259-.19.39-.049.106-.102.21-.147.32-.052.126-.095.254-.14.382-.043.119-.088.235-.125.356-.039.13-.068.26-.1.39-.031.124-.066.245-.09.37-.03.151-.05.305-.07.458-.015.105-.035.21-.046.316a8.023 8.023 0 000 1.584c.01.107.03.211.045.316.022.153.04.307.07.458.025.125.06.247.09.37.033.13.062.26.101.39.037.12.082.237.125.356.045.128.088.257.14.383.045.109.098.213.148.32.061.13.12.262.188.39.053.1.114.193.171.29.076.127.149.256.232.38.07.104.147.202.22.301.082.11.159.222.246.328.13.159.27.31.413.458.04.04.074.085.114.125l32 32a8 8 0 0011.314-11.314L51.313 88H224a8 8 0 000-16H51.313l18.344-18.343a8 8 0 00-11.314-11.314l-32 32c-.038.037-.07.079-.106.117a7.76 7.76 0 00-.421.466c-.087.106-.164.218-.245.328z"/></svg>