<svg xmlns="http://www.w3.org/2000/svg" viewBox="0 0 256 256" width="20" height="20"><path fill="none" d="M0 0h256v256H0z"/><path d="M229.079 156.019c.12-.018.241-.032.36-.055.147-.029.289-.069.432-.105.11-.028.22-.052.33-.085.135-.041.266-.091.399-.14.114-.04.229-.078.341-.125.12-.05.235-.108.352-.163.12-.057.242-.11.36-.173.107-.058.209-.123.313-.185.12-.072.243-.14.36-.219.107-.071.207-.151.31-.228.107-.08.216-.154.32-.239.145-.119.28-.248.417-.377.055-.051.113-.097.166-.15.056-.056.104-.117.159-.176.125-.132.251-.265.367-.406.091-.11.171-.227.255-.342.07-.095.145-.188.211-.286.085-.127.16-.258.236-.388.056-.095.115-.186.167-.284.07-.128.129-.261.19-.393.05-.106.102-.21.147-.317.052-.127.095-.255.14-.384.043-.118.088-.235.125-.355.039-.13.068-.26.1-.39.03-.123.065-.245.09-.37.03-.151.049-.304.07-.457.015-.106.035-.21.046-.317.026-.265.04-.531.04-.797V84.118a8 8 0 10-16 0v44.686l-18.343-18.343A104 104 0 0024 184a8 8 0 0016 0 87.999 87.999 0 01150.225-62.225l18.342 18.343h-44.685a8 8 0 000 16h64c.06 0 .117-.008.177-.009.202-.004.405-.01.607-.03.14-.014.275-.04.413-.06z"/></svg>