<svg xmlns="http://www.w3.org/2000/svg" viewBox="0 0 256 256" width="20" height="20"><path fill="none" d="M0 0h256v256H0z"/><path d="M106.343 186.343L88 204.686V32a8 8 0 00-16 0v172.686l-18.343-18.343a8 8 0 00-11.314 11.314l32 32c.038.038.08.07.118.107.15.145.304.288.466.42.103.085.21.16.317.238.103.077.204.157.311.229.121.08.247.151.371.225.1.06.198.123.3.178.125.066.252.122.379.182.11.052.219.107.332.154.122.05.246.091.37.135.123.044.244.091.369.13.123.037.249.064.374.095.128.033.255.069.386.095.142.028.286.045.429.065.115.017.229.039.345.05a8.042 8.042 0 001.58 0c.116-.011.23-.033.345-.05.143-.02.287-.037.429-.065.13-.026.258-.062.386-.095.125-.03.25-.058.374-.096.125-.038.246-.085.369-.129.124-.044.248-.085.37-.135.113-.047.222-.102.332-.154.127-.06.254-.116.378-.182.103-.055.2-.118.3-.178.125-.074.25-.144.372-.225.107-.072.208-.152.31-.23.107-.078.215-.152.318-.236a8.08 8.08 0 00.466-.421c.038-.037.08-.07.118-.107l32-32a8 8 0 00-11.314-11.314zm107.314-128l-32-32c-.035-.035-.073-.064-.109-.098a8.222 8.222 0 00-.475-.43c-.102-.084-.21-.157-.315-.235-.105-.078-.206-.159-.314-.23-.12-.081-.244-.15-.367-.224-.101-.06-.2-.124-.304-.18-.123-.066-.249-.121-.374-.18-.112-.053-.222-.109-.337-.156-.12-.05-.243-.09-.365-.133-.124-.045-.247-.093-.374-.132-.122-.036-.245-.064-.369-.095-.13-.032-.258-.069-.39-.095-.141-.028-.284-.045-.426-.065-.116-.016-.23-.039-.348-.05a8.049 8.049 0 00-1.58 0c-.117.011-.232.034-.348.05-.142.02-.285.037-.425.065-.133.026-.261.063-.391.095-.124.031-.247.059-.37.095-.126.039-.25.087-.373.132-.122.043-.245.083-.365.133-.115.047-.225.103-.337.156-.125.059-.251.114-.374.18-.104.056-.202.12-.304.18-.123.073-.247.143-.367.223-.108.072-.21.153-.314.23-.105.079-.213.152-.315.236a8.254 8.254 0 00-.475.43c-.036.034-.074.063-.11.098l-32 32a8 8 0 0011.315 11.314L168 51.314V224a8 8 0 0016 0V51.314l18.343 18.343a8 8 0 0011.314-11.314z"/></svg>