<svg xmlns="http://www.w3.org/2000/svg" viewBox="0 0 256 256" width="20" height="20"><path fill="none" d="M0 0h256v256H0z"/><path d="M224 128a8 8 0 01-8 8H40a8 8 0 010-16h176a8 8 0 018 8zM101.657 53.657L120 35.314V96a8 8 0 0016 0V35.314l18.343 18.343a8 8 0 0011.314-11.314l-32-32c-.053-.053-.111-.099-.166-.15a8.218 8.218 0 00-.417-.377c-.104-.086-.214-.16-.322-.24-.102-.076-.201-.156-.308-.227-.118-.079-.24-.148-.362-.22-.103-.062-.204-.127-.31-.183-.12-.064-.24-.117-.361-.174-.117-.055-.232-.114-.351-.163-.113-.047-.228-.084-.342-.125-.133-.048-.264-.099-.4-.14-.109-.033-.22-.057-.33-.085-.143-.036-.284-.076-.429-.105-.121-.024-.244-.037-.367-.055-.135-.02-.27-.046-.408-.06a8.15 8.15 0 00-.607-.03C128.117 8.008 128.06 8 128 8s-.118.008-.177.009a8.155 8.155 0 00-.607.03c-.138.014-.273.04-.408.06-.123.018-.246.031-.367.055-.145.03-.286.069-.428.105-.11.028-.222.052-.331.085-.136.041-.267.092-.4.14-.114.04-.23.078-.342.125-.12.05-.234.108-.35.163-.121.057-.243.11-.361.174-.107.056-.207.121-.311.183-.122.072-.244.141-.362.22-.107.071-.206.15-.308.227-.108.08-.218.154-.322.24a8.29 8.29 0 00-.417.377c-.055.051-.113.097-.166.15l-32 32a8 8 0 0011.314 11.314zm52.686 148.686L136 220.686V160a8 8 0 00-16 0v60.686l-18.343-18.343a8 8 0 00-11.314 11.314l32 32c.054.054.114.1.169.153.135.127.27.256.414.374.106.087.218.164.328.245.1.074.197.152.3.221.123.082.249.153.374.227.1.059.197.122.299.176.124.067.251.123.378.183.11.052.219.107.332.154.121.05.245.09.368.134.123.045.245.092.372.13.121.037.245.065.368.095.13.033.259.07.391.096.141.028.284.044.425.065.117.016.231.038.35.05a8.042 8.042 0 001.579 0c.118-.012.232-.034.349-.05.141-.02.284-.037.424-.065.133-.026.262-.063.392-.096.123-.03.247-.058.368-.094.127-.039.249-.086.372-.13.123-.045.247-.085.368-.135.113-.047.222-.102.332-.154.127-.06.254-.116.378-.183.102-.054.2-.117.299-.176.125-.074.251-.145.373-.227.104-.069.2-.147.301-.22.11-.082.222-.159.328-.246.144-.118.279-.247.414-.374.055-.052.115-.099.17-.153l32-32a8 8 0 00-11.315-11.314z"/></svg>