<svg xmlns="http://www.w3.org/2000/svg" viewBox="0 0 256 256" width="20" height="20"><path fill="none" d="M0 0h256v256H0z"/><path d="M192 72H67.313l34.344-34.343a8 8 0 00-11.314-11.314l-48 48c-.02.02-.038.043-.058.064-.163.167-.322.34-.47.52-.083.101-.155.207-.232.31-.079.106-.16.21-.234.319-.08.12-.151.246-.225.37-.06.1-.122.197-.177.3-.068.126-.125.255-.185.384-.051.108-.106.215-.152.326-.05.124-.093.252-.138.378-.043.12-.09.238-.126.36-.039.128-.068.258-.1.388-.03.124-.065.246-.09.372-.03.15-.049.303-.07.455-.015.107-.035.211-.046.319a8.023 8.023 0 000 1.584c.01.108.031.212.046.319.021.152.04.304.07.455.025.126.06.248.09.372.032.13.061.26.1.387.037.123.083.24.126.36.045.127.087.255.138.38.046.11.1.217.152.325.06.129.117.258.185.384.055.103.117.2.177.3.074.124.144.25.225.37.073.11.155.213.234.318.077.104.149.21.232.31.148.181.307.354.47.52.02.022.037.044.058.065l48 48a8 8 0 0011.314-11.314L67.313 88H184v136a8 8 0 0016 0V80a8 8 0 00-8-8z"/></svg>