<svg xmlns="http://www.w3.org/2000/svg" viewBox="0 0 256 256" width="20" height="20"><path fill="none" d="M0 0h256v256H0z"/><path d="M215.96 47.208c-.01-.108-.031-.212-.046-.319-.021-.152-.04-.304-.07-.455-.025-.126-.06-.248-.09-.372-.032-.13-.061-.26-.1-.387-.037-.123-.083-.24-.126-.36-.045-.127-.087-.254-.138-.38-.046-.11-.1-.217-.152-.325-.06-.129-.117-.258-.185-.384-.055-.103-.117-.2-.177-.3-.074-.124-.144-.25-.225-.37-.073-.11-.155-.213-.234-.318-.077-.104-.149-.21-.232-.31a7.975 7.975 0 00-.47-.52c-.02-.021-.037-.044-.058-.065-.016-.016-.034-.029-.05-.045a7.942 7.942 0 00-.536-.484c-.093-.077-.193-.145-.29-.217-.112-.084-.222-.171-.34-.25-.112-.075-.23-.14-.346-.21-.108-.065-.214-.133-.325-.192-.117-.063-.237-.115-.356-.172-.118-.055-.233-.114-.354-.164-.114-.047-.23-.085-.345-.127-.132-.047-.26-.097-.395-.138-.114-.034-.23-.059-.344-.088-.138-.035-.275-.073-.415-.101-.13-.026-.262-.041-.394-.06-.127-.019-.252-.043-.38-.055a8.03 8.03 0 00-.699-.036c-.03 0-.058-.004-.088-.004h-48a8 8 0 000 16h28.686l-42.343 42.343a8 8 0 0011.314 11.314L200 67.314V96a8 8 0 0016 0V48.005q0-.399-.04-.797zM98.343 146.343L56 188.686V160a8 8 0 00-16 0v47.995q0 .399.04.797c.01.108.031.212.046.319.021.152.04.304.07.455.025.126.06.248.09.372.032.13.061.26.1.387.037.123.083.24.126.36.045.127.087.254.138.38.046.11.1.216.152.325.06.129.117.258.185.384.055.103.117.2.177.3.074.124.144.25.225.37.073.11.155.213.234.318.077.104.149.21.232.31.148.181.307.354.47.52.02.021.037.044.058.065.016.016.034.029.05.045.171.169.35.331.536.484.094.078.194.145.29.218.112.084.222.17.339.248.114.077.233.144.351.214.107.063.21.13.32.189.12.064.243.118.366.176.114.054.226.11.343.16.119.048.24.088.36.131.126.045.25.094.38.133.12.036.241.063.362.093.132.033.262.07.396.097.141.028.284.044.425.065.117.016.231.038.35.05.262.026.525.04.789.04h48a8 8 0 000-16H67.314l42.343-42.343a8 8 0 00-11.314-11.314z"/></svg>