<svg xmlns="http://www.w3.org/2000/svg" viewBox="0 0 256 256" width="20" height="20"><path fill="none" d="M0 0h256v256H0z"/><path d="M136 40v176a8 8 0 01-16 0V40a8 8 0 0116 0zm-40 80H35.314l18.343-18.343a8 8 0 00-11.314-11.314l-32 32c-.057.056-.105.118-.159.175-.125.133-.25.266-.367.407-.091.11-.171.227-.255.341-.07.096-.145.188-.211.287-.085.127-.16.258-.236.388-.056.095-.115.186-.167.283-.07.13-.129.262-.19.394-.05.106-.102.209-.147.317-.052.126-.095.255-.14.384-.043.118-.088.235-.125.355-.039.13-.068.26-.1.39-.031.124-.066.245-.09.37-.03.151-.05.304-.07.457-.015.106-.035.21-.046.317a8.023 8.023 0 000 1.584c.01.107.031.211.046.317.02.153.04.306.07.457.024.125.059.246.09.37.032.13.061.26.1.39.037.12.082.237.124.355.046.129.089.258.14.384.046.108.098.211.148.317.061.132.12.264.19.394.052.097.111.188.167.283.076.13.15.261.236.388.066.099.14.191.21.287.085.114.165.23.256.341.116.141.242.274.367.407.054.057.102.119.159.175l32 32a8 8 0 0011.314-11.314L35.314 136H96a8 8 0 000-16zm150.183 13.075c.091-.11.171-.227.255-.341.07-.096.145-.188.211-.287.085-.127.16-.258.236-.388.056-.095.115-.186.167-.283.07-.13.129-.262.19-.394.05-.106.102-.209.147-.317.052-.126.095-.255.14-.384.043-.118.088-.235.125-.355.039-.13.068-.26.1-.39.031-.124.066-.245.09-.37.03-.151.05-.304.07-.457.015-.106.035-.21.046-.317a8.023 8.023 0 000-1.584c-.01-.107-.031-.211-.046-.317a6.996 6.996 0 00-.07-.457c-.024-.125-.059-.246-.09-.37-.032-.13-.061-.26-.1-.39-.037-.12-.082-.237-.124-.355-.046-.129-.089-.258-.14-.384-.046-.108-.098-.211-.148-.317-.061-.132-.12-.264-.19-.394-.052-.097-.111-.188-.167-.283-.076-.13-.15-.261-.236-.388-.066-.099-.14-.191-.21-.287-.085-.114-.165-.23-.256-.341-.116-.141-.242-.274-.367-.407-.054-.057-.102-.119-.159-.175l-32-32a8 8 0 00-11.314 11.314L220.686 120H160a8 8 0 000 16h60.686l-18.343 18.343a8 8 0 0011.314 11.314l32-32c.057-.056.105-.118.159-.175.125-.133.25-.266.367-.407z"/></svg>