<svg xmlns="http://www.w3.org/2000/svg" viewBox="0 0 256 256" width="20" height="20"><path fill="none" d="M0 0h256v256H0z"/><path d="M138.343 50.343a8 8 0 0111.314 11.314L91.313 120H224a8 8 0 010 16H91.313l58.344 58.343a8 8 0 01-11.314 11.314L66.346 133.66a8.059 8.059 0 01-.534-.591c-.07-.086-.131-.176-.197-.264-.091-.12-.185-.24-.269-.365-.073-.11-.136-.223-.203-.335-.067-.111-.137-.22-.199-.336-.062-.116-.114-.235-.17-.354-.056-.118-.115-.234-.165-.355-.048-.115-.086-.233-.128-.35-.047-.13-.096-.257-.136-.39-.036-.117-.062-.236-.092-.355-.034-.134-.07-.266-.098-.403-.028-.139-.044-.28-.064-.42-.017-.118-.04-.233-.051-.352a8.048 8.048 0 010-1.58c.012-.119.034-.234.05-.353.02-.14.037-.28.065-.42.027-.136.064-.268.098-.402.03-.119.056-.238.092-.356.04-.132.09-.26.136-.389.042-.117.08-.235.128-.35.05-.121.109-.237.165-.355.056-.119.108-.238.17-.355.062-.114.132-.224.199-.335.067-.112.13-.226.203-.335.084-.126.178-.245.269-.365.066-.088.127-.178.197-.264q.253-.308.534-.59zM48 216V40a8 8 0 00-16 0v176a8 8 0 0016 0z"/></svg>