<svg xmlns="http://www.w3.org/2000/svg" viewBox="0 0 256 256" width="20" height="20"><path fill="none" d="M0 0h256v256H0z"/><path d="M152 104a8 8 0 018-8h80a8 8 0 010 16h-80a8 8 0 01-8-8zm88 24h-80a8 8 0 000 16h80a8 8 0 000-16zm0 32h-80a8 8 0 000 16h80a8 8 0 000-16zm0 32H72a8 8 0 000 16h168a8 8 0 000-16zM79.93 176a55.968 55.968 0 01-49.5-82.15A27.995 27.995 0 0147.93 44a8.002 8.002 0 014.24 1.216l61.782 38.614A12 12 0 00111.93 60a8 8 0 010-16 28 28 0 010 56 8.002 8.002 0 01-4.24-1.216L77.734 80.062a40.001 40.001 0 00-5.851 79.125l.046-44.718a8 8 0 018-7.992h.008a8 8 0 017.992 8.008l-.046 44.719a39.888 39.888 0 0030.867-29.518 8 8 0 1115.528 3.858A55.888 55.888 0 0179.929 176zM39.886 80.908a56.183 56.183 0 0118.84-12.726L45.907 60.17a12.003 12.003 0 00-6.022 20.738z"/></svg>