<svg xmlns="http://www.w3.org/2000/svg" viewBox="0 0 256 256" width="20" height="20"><path fill="none" d="M0 0h256v256H0z"/><path d="M48.023 128V83.896l25.216 40.346a8 8 0 0013.569 0l25.215-40.346v44.106a8 8 0 000 16h24a8 8 0 000-16h-8V64h8a8 8 0 000-16h-16c-.04 0-.078.005-.118.006a8.079 8.079 0 00-.462.023c-.117.009-.235.016-.352.03-.128.015-.254.037-.381.058-.138.023-.275.045-.41.074-.104.023-.205.052-.307.079-.151.04-.302.079-.45.126-.094.031-.186.069-.279.103-.118.043-.24.081-.354.13-.03.012-.056.027-.084.04-.104.045-.204.098-.307.147-.125.062-.251.12-.373.188s-.239.144-.357.218c-.097.06-.194.117-.288.18-.128.09-.252.186-.376.282-.079.061-.159.12-.235.183-.119.1-.232.208-.346.315-.058.055-.121.105-.177.161-.018.018-.033.038-.051.056-.098.1-.19.205-.283.311-.06.068-.125.131-.183.201-.023.028-.043.06-.066.088-.074.093-.143.19-.213.286-.09.124-.18.249-.264.378-.021.033-.046.063-.068.097l-33.216 53.146L46.808 51.76c-.022-.034-.047-.064-.068-.097a7.819 7.819 0 00-.264-.378c-.07-.097-.14-.193-.213-.286-.023-.028-.043-.06-.066-.088-.058-.07-.123-.133-.183-.2-.093-.106-.185-.213-.283-.313-.018-.017-.033-.037-.05-.055-.057-.056-.12-.106-.177-.16-.114-.108-.228-.216-.348-.316-.075-.063-.154-.12-.232-.18-.125-.098-.25-.195-.379-.284-.093-.064-.19-.121-.286-.181-.119-.074-.236-.15-.358-.217-.123-.069-.25-.128-.377-.19-.1-.049-.2-.101-.302-.146-.03-.012-.056-.028-.085-.04-.116-.05-.239-.088-.359-.132-.091-.033-.181-.07-.274-.1-.148-.048-.3-.088-.453-.128-.1-.026-.2-.055-.302-.078-.138-.03-.277-.052-.416-.075-.125-.02-.25-.042-.375-.057-.119-.014-.239-.022-.358-.03a8.344 8.344 0 00-.456-.023c-.04 0-.08-.006-.12-.006h-16a8 8 0 000 16h8v64h-8a8 8 0 100 16h24a8 8 0 000-16zM168.023 112h72a8 8 0 000-16h-72a8 8 0 000 16zM240.023 128h-72a8 8 0 000 16h72a8 8 0 000-16zM240.023 160h-168a8 8 0 000 16h168a8 8 0 000-16zM240.023 192h-168a8 8 0 000 16h168a8 8 0 000-16z"/></svg>