<svg xmlns="http://www.w3.org/2000/svg" viewBox="0 0 256 256" width="20" height="20"><path fill="none" d="M0 0h256v256H0z"/><path d="M56 136a8 8 0 01-8 8H24a8 8 0 010-16h8V64h-8a8 8 0 010-16h16a8 8 0 016.8 3.8L80 104.9l33.2-53.1A8 8 0 01120 48h16a8 8 0 010 16h-8v64h8a8 8 0 010 16h-24a8 8 0 010-16V83.9l-25.2 40.3a8 8 0 01-13.6 0L48 83.9V128a8 8 0 018 8zm112-24h72a8 8 0 000-16h-72a8 8 0 000 16zm72 16h-72a8 8 0 000 16h72a8 8 0 000-16zm0 32H72a8 8 0 000 16h168a8 8 0 000-16zm0 32H72a8 8 0 000 16h168a8 8 0 000-16z"/></svg>