<svg xmlns="http://www.w3.org/2000/svg" viewBox="0 0 256 256" width="20" height="20"><path fill="none" d="M0 0h256v256H0z"/><path d="M196.095 128a195.65 195.65 0 0019.2-32.718c11.078-24.615 11.215-44.136.386-54.964-17.449-17.444-53.14-4.909-87.681 19.685-34.54-24.594-70.232-37.13-87.681-19.685-10.829 10.828-10.692 30.349.386 54.964A195.65 195.65 0 0059.905 128a195.65 195.65 0 00-19.2 32.718c-11.078 24.615-11.215 44.136-.386 54.964 5.618 5.617 13.125 8.127 21.878 8.127 18.433 0 42.383-11.14 65.803-27.817 23.42 16.677 47.37 27.817 65.803 27.817 8.75 0 16.261-2.511 21.878-8.127 10.829-10.828 10.692-30.349-.386-54.964a195.65 195.65 0 00-19.2-32.718zm-2.32-79.7c4.776 0 8.395 1.136 10.593 3.333 5.624 5.624 4.255 19.487-3.663 37.084a172.93 172.93 0 01-14.79 25.932A306.726 306.726 0 00164.77 91.23 300.507 300.507 0 00141.286 70.1c21.899-14.887 40.714-21.8 52.49-21.8zM176.121 128a288.408 288.408 0 01-22.665 25.455 288.639 288.639 0 01-25.455 22.699 288.507 288.507 0 01-25.457-22.699A288.408 288.408 0 0179.879 128 296.263 296.263 0 01128 79.847a288.52 288.52 0 0125.456 22.698A288.408 288.408 0 01176.121 128zM55.295 88.717c-7.918-17.597-9.287-31.46-3.663-37.084 2.198-2.198 5.815-3.333 10.593-3.333 11.775 0 30.59 6.913 52.49 21.799A300.454 300.454 0 0091.23 91.23a306.726 306.726 0 00-21.144 23.419 172.93 172.93 0 01-14.79-25.932zm-3.663 115.65c-5.624-5.624-4.255-19.487 3.663-37.084a172.93 172.93 0 0114.79-25.932A306.726 306.726 0 0091.23 164.77a300.52 300.52 0 0023.492 21.132c-30.786 20.93-55.473 26.08-63.09 18.465zm152.736 0c-2.198 2.198-5.815 3.333-10.593 3.333-11.775-.001-30.593-6.914-52.493-21.802a300.515 300.515 0 0023.488-21.128 306.726 306.726 0 0021.144-23.419 172.93 172.93 0 0114.79 25.932c7.919 17.597 9.288 31.46 3.664 37.084zM140 128a12 12 0 11-12-12 12 12 0 0112 12z"/></svg>