<svg xmlns="http://www.w3.org/2000/svg" viewBox="0 0 256 256" width="20" height="20"><path fill="none" d="M0 0h256v256H0z"/><path d="M196.1 128a195.3 195.3 0 0019.2-32.7c11.1-24.6 11.2-44.2.4-55-17.5-17.4-53.2-4.9-87.7 19.7-34.5-24.6-70.2-37.1-87.7-19.7-10.8 10.8-10.7 30.4.4 55A195.3 195.3 0 0059.9 128a195.3 195.3 0 00-19.2 32.7c-11.1 24.6-11.2 44.2-.4 55 5.6 5.6 13.1 8.1 21.9 8.1 18.4 0 42.4-11.1 65.8-27.8 23.4 16.7 47.4 27.8 65.8 27.8 8.8 0 16.3-2.5 21.9-8.1 10.8-10.8 10.7-30.4-.4-55a195.3 195.3 0 00-19.2-32.7zm-2.3-79.7c4.8 0 8.4 1.1 10.6 3.3 5.6 5.7 4.2 19.5-3.7 37.1a169.7 169.7 0 01-14.8 25.9c-6.4-7.9-13.5-15.7-21.1-23.4s-15.4-14.5-23.5-21.1c21.9-14.9 40.7-21.8 52.5-21.8zM176.1 128a277.3 277.3 0 01-22.6 25.5 314.1 314.1 0 01-25.5 22.7 314.1 314.1 0 01-25.5-22.7A277.3 277.3 0 0179.9 128a277.3 277.3 0 0122.6-25.5A314.1 314.1 0 01128 79.8a314.1 314.1 0 0125.5 22.7 277.3 277.3 0 0122.6 25.5zM55.3 88.7c-7.9-17.6-9.3-31.4-3.7-37.1 2.2-2.2 5.8-3.3 10.6-3.3 11.8 0 30.6 6.9 52.5 21.8-8.1 6.6-16 13.7-23.5 21.1s-14.7 15.5-21.1 23.4a169.7 169.7 0 01-14.8-25.9zm-3.7 115.7c-5.6-5.7-4.2-19.5 3.7-37.1a169.7 169.7 0 0114.8-25.9c6.4 7.9 13.5 15.7 21.1 23.4s15.4 14.5 23.5 21.1c-30.8 20.9-55.5 26.1-63.1 18.5zm152.8 0c-2.2 2.2-5.8 3.3-10.6 3.3-11.8 0-30.6-6.9-52.5-21.8 8.1-6.6 16-13.7 23.5-21.1s14.7-15.5 21.1-23.4a169.7 169.7 0 0114.8 25.9c7.9 17.6 9.3 31.4 3.7 37.1zM140 128a12 12 0 11-12-12 12 12 0 0112 12z"/></svg>