<svg xmlns="http://www.w3.org/2000/svg" viewBox="0 0 256 256" width="20" height="20"><path fill="none" d="M0 0h256v256H0z"/><path d="M215.995 39.998H68.526a16.116 16.116 0 00-13.718 7.766L9.136 123.88a8.025 8.025 0 000 8.234l45.672 76.117v.008a16.107 16.107 0 0013.718 7.758h147.47a16.016 16.016 0 0016-16v-144a16.016 16.016 0 00-16-16zm-50.344 106.344a8 8 0 11-11.312 11.312l-18.344-18.343-18.344 18.343a8 8 0 01-11.312-11.312l18.344-18.344-18.344-18.344a8 8 0 0111.312-11.312l18.344 18.344 18.344-18.344a8 8 0 0111.312 11.312l-18.343 18.344z"/></svg>