<svg xmlns="http://www.w3.org/2000/svg" viewBox="0 0 256 256" width="20" height="20"><path fill="none" d="M0 0h256v256H0z"/><path d="M128 16a88.1 88.1 0 00-88 88c0 23.4 9.4 49.4 25.1 69.5 11.9 15.2 26.2 25.7 41.3 30.9L96.6 229a8 8 0 00.8 7.5 7.9 7.9 0 006.6 3.5h48a7.9 7.9 0 006.6-3.5 8 8 0 00.8-7.5l-9.8-24.6c15.1-5.2 29.4-15.7 41.3-30.9 15.7-20.1 25.1-46.1 25.1-69.5a88.1 88.1 0 00-88-88zm48.7 87.9h-1.4a8.1 8.1 0 01-7.9-6.7 39.7 39.7 0 00-32.7-32.7 8.1 8.1 0 01-6.6-9.3 7.9 7.9 0 019.2-6.5 55.9 55.9 0 0145.9 45.9 7.9 7.9 0 01-6.5 9.3z"/></svg>