<svg xmlns="http://www.w3.org/2000/svg" viewBox="0 0 256 256" width="20" height="20"><path fill="none" d="M0 0h256v256H0z"/><circle cx="128" cy="128" r="12"/><path d="M184.568 128l27.716-27.716a40 40 0 10-56.568-56.568L128 71.432l-27.716-27.716a40 40 0 10-56.568 56.568L71.432 128l-27.716 27.716a40 40 0 1056.568 56.568L128 184.568l27.716 27.716a40 40 0 1056.568-56.568zM128 94.06L161.94 128 128 161.94 94.06 128zm39.03-39.03a24 24 0 1133.94 33.94l-27.716 27.716-33.94-33.94zM88.97 200.97a24 24 0 11-33.94-33.94l27.716-27.716 33.94 33.94z"/></svg>