<svg xmlns="http://www.w3.org/2000/svg" viewBox="0 0 256 256" width="20" height="20"><path fill="none" d="M0 0h256v256H0z"/><path d="M248 88a8 8 0 00-8 8v64a8 8 0 0016 0V96a8 8 0 00-8-8zm-48-40.002H48a24.026 24.026 0 00-24 24v112a24.026 24.026 0 0024 24h152a24.026 24.026 0 0024-24v-112a24.026 24.026 0 00-24-24zm-52.578 82.969l-16 40a7.994 7.994 0 11-14.844-5.938l11.61-29.03H108a7.993 7.993 0 01-7.422-10.97l16-40a7.994 7.994 0 1114.844 5.938l-11.61 29.031H140a7.993 7.993 0 017.422 10.969z"/></svg>