<svg xmlns="http://www.w3.org/2000/svg" viewBox="0 0 256 256" width="20" height="20"><path fill="none" d="M0 0h256v256H0z"/><path d="M160 80a8 8 0 018-8h64a8 8 0 010 16h-64a8 8 0 01-8-8zm88 72a8 8 0 01-8 8h-71a32.1 32.1 0 0031 24 31.5 31.5 0 0022.6-9.4 8 8 0 0111.3 0 7.9 7.9 0 010 11.3A47.4 47.4 0 01200 200a48 48 0 1148-48zm-17-8a32 32 0 00-62 0zm-91 14a42 42 0 01-42 42H32a8 8 0 01-8-8V64a8 8 0 018-8h54a38 38 0 0128.3 63.3A42 42 0 01140 158zM40 116h46a22 22 0 000-44H40zm84 42a26.1 26.1 0 00-26-26H40v52h58a26.1 26.1 0 0026-26z"/></svg>