<svg xmlns="http://www.w3.org/2000/svg" viewBox="0 0 256 256" width="20" height="20"><path fill="none" d="M0 0h256v256H0z"/><path d="M213.92 210.618a8 8 0 01-11.84 10.764l-19.456-21.403H48.984a15.999 15.999 0 01-13.797-24.064c5.937-10.215 13.016-29.6 13.016-63.936v-8a79.694 79.694 0 0110.721-40.068L42.08 45.38a8 8 0 1111.84-10.763zM160 215.98H96a8 8 0 000 16h64a8 8 0 000-16zm42.9-41.266a8 8 0 0013.364-8.315c-5.614-14.244-8.46-32.552-8.46-54.419v-7.096c0-44.285-35.527-80.577-79.196-80.902a79.496 79.496 0 00-40.075 10.456 8.001 8.001 0 00-1.95 12.327z"/></svg>