<svg xmlns="http://www.w3.org/2000/svg" viewBox="0 0 256 256" width="20" height="20"><path fill="none" d="M0 0h256v256H0z"/><path d="M220.8 175.9c-5.9-10.2-13-29.6-13-63.9v-7.1c0-44.3-35.5-80.6-79.2-80.9h-.6a79.9 79.9 0 00-79.8 80v8c0 34.3-7.1 53.7-13 63.9a16.2 16.2 0 00-.1 16.1 15.9 15.9 0 0013.9 8h39a40 40 0 0080 0h39a15.9 15.9 0 0013.9-8 16.2 16.2 0 00-.1-16.1zM128 224a24.1 24.1 0 01-24-24h48a24.1 24.1 0 01-24 24zm20-72h-40a7.9 7.9 0 01-7.2-4.6 7.8 7.8 0 011.1-8.5l29-34.9H108a8 8 0 010-16h40a7.9 7.9 0 017.2 4.6 7.8 7.8 0 01-1.1 8.5l-29 34.9H148a8 8 0 010 16z"/></svg>