<svg xmlns="http://www.w3.org/2000/svg" viewBox="0 0 256 256" width="20" height="20"><path fill="none" d="M0 0h256v256H0z"/><path d="M168 224a8 8 0 01-8 8H96a8 8 0 010-16h64a8 8 0 018 8zm39.805-112a79.707 79.707 0 00-79.197-79.998l-.61-.002a79.899 79.899 0 00-79.795 80c0 34.336-7.079 53.72-13.016 63.936A15.999 15.999 0 0048.983 200h158.034a15.998 15.998 0 0013.797-24.06c-5.934-10.216-13.01-29.602-13.01-63.94zm20.722-49.432a112.284 112.284 0 00-40.824-45.344 8 8 0 10-8.54 13.529 96.298 96.298 0 0135.01 38.886 8 8 0 1014.354-7.07zm-186.7 7.07a96.298 96.298 0 0135.01-38.885 8 8 0 10-8.54-13.53 112.284 112.284 0 00-40.824 45.345 8 8 0 1014.353 7.07z"/></svg>