<svg xmlns="http://www.w3.org/2000/svg" viewBox="0 0 256 256" width="20" height="20"><path fill="none" d="M0 0h256v256H0z"/><path d="M53.9 34.6a8 8 0 00-11.8 10.8l16.8 18.5A80.2 80.2 0 0048.2 104v8c0 34.3-7.1 53.7-13 63.9A16 16 0 0049 200h39a40 40 0 0080 0h14.6l19.5 21.4a8 8 0 005.9 2.6 8.2 8.2 0 005.4-2.1 7.9 7.9 0 00.5-11.3zM128 224a24.1 24.1 0 01-24-24h48a24.1 24.1 0 01-24 24zM86.6 46.8a8.1 8.1 0 011.9-12.4A80.2 80.2 0 01128.6 24c43.7.3 79.2 36.6 79.2 80.9v7.1c0 21.9 2.8 40.1 8.4 54.4a8 8 0 01-13.3 8.3z"/></svg>