<svg xmlns="http://www.w3.org/2000/svg" viewBox="0 0 256 256" width="20" height="20"><path fill="none" d="M0 0h256v256H0z"/><path d="M207.805 112a79.707 79.707 0 00-79.197-79.998l-.61-.002a79.899 79.899 0 00-79.795 80c0 34.336-7.079 53.72-13.016 63.936A15.999 15.999 0 0048.983 200H88a40 40 0 0080 0h39.017a15.998 15.998 0 0013.797-24.06c-5.934-10.216-13.01-29.602-13.01-63.94zM128 224a24.027 24.027 0 01-24-24h48a24.027 24.027 0 01-24 24zm96.886-150.72a7.995 7.995 0 01-10.712-3.641 96.298 96.298 0 00-35.01-38.886 8 8 0 118.54-13.53 112.284 112.284 0 0140.823 45.345 8 8 0 01-3.641 10.712zm-190.242.825a8.003 8.003 0 01-7.171-11.537 112.284 112.284 0 0140.824-45.344 8 8 0 118.54 13.529 96.298 96.298 0 00-35.01 38.886 8.002 8.002 0 01-7.183 4.466z"/></svg>