<svg xmlns="http://www.w3.org/2000/svg" viewBox="0 0 256 256" width="20" height="20"><path fill="none" d="M0 0h256v256H0z"/><path d="M220.814 175.94c-5.934-10.216-13.01-29.602-13.01-63.94v-7.096c0-44.285-35.527-80.578-79.196-80.902l-.61-.002a79.899 79.899 0 00-79.795 80v8c0 34.336-7.079 53.72-13.016 63.936A15.999 15.999 0 0048.983 200H88a40 40 0 0080 0h39.017a15.998 15.998 0 0013.797-24.06zM128 224a24.027 24.027 0 01-24-24h48a24.027 24.027 0 01-24 24zm20-72h-40a8 8 0 01-6.146-13.121L130.92 104H108a8 8 0 010-16h40a8 8 0 016.146 13.121L125.08 136H148a8 8 0 010 16z"/></svg>