<svg xmlns="http://www.w3.org/2000/svg" viewBox="0 0 256 256" width="20" height="20"><path fill="none" d="M0 0h256v256H0z"/><path d="M53.92 34.618a8 8 0 10-11.84 10.764l16.852 18.536A79.701 79.701 0 0048.203 104v8c0 34.336-7.079 53.72-13.016 63.936A15.999 15.999 0 0048.983 200H88a40 40 0 0080 0h14.642l19.438 21.382a8 8 0 1011.84-10.764zM128 224a24.027 24.027 0 01-24-24h48a24.027 24.027 0 01-24 24zM86.595 46.777a8 8 0 011.952-12.328 79.893 79.893 0 0140.061-10.447c43.67.324 79.197 36.617 79.197 80.902V112c0 21.85 2.841 40.148 8.445 54.387a8 8 0 01-13.364 8.311z"/></svg>