<svg xmlns="http://www.w3.org/2000/svg" viewBox="0 0 256 256" width="20" height="20"><path fill="none" d="M0 0h256v256H0z"/><path d="M168 224a8 8 0 01-8 8H96a8 8 0 010-16h64a8 8 0 018 8zm52.854-32.003A15.8 15.8 0 01207.017 200H48.983a15.999 15.999 0 01-13.796-24.064c5.937-10.215 13.016-29.6 13.016-63.936v-8a79.899 79.899 0 0179.795-80l.61.002c43.67.324 79.197 36.617 79.197 80.902V112c0 34.338 7.075 53.724 13.01 63.94a15.87 15.87 0 01.039 16.057zM156 144a8 8 0 00-8-8h-22.92l29.066-34.879A8 8 0 00148 88h-40a8 8 0 000 16h22.92l-29.066 34.879A8 8 0 00108 152h40a8 8 0 008-8z"/></svg>