<svg xmlns="http://www.w3.org/2000/svg" viewBox="0 0 256 256" width="20" height="20"><path fill="none" d="M0 0h256v256H0z"/><path d="M256 160a48 48 0 11-78.744-36.827l23.834 40.858a8 8 0 1013.82-8.062l-23.844-40.875A47.983 47.983 0 01256 160zm-208.007 8a8 8 0 01-6.457-12.713l27.875-38.229a48.136 48.136 0 1012.918 9.44l-27.865 38.215a7.989 7.989 0 01-6.47 3.287zM165.93 72H192a8.01 8.01 0 018 8 8 8 0 0016 0 24.027 24.027 0 00-24-24h-40a8 8 0 00-6.91 12.03L156.739 88H99.26L82.91 59.97A7.999 7.999 0 0076 56H48a8 8 0 000 16h23.405l13.716 23.513-15.71 21.545a48.232 48.232 0 0112.918 9.44L93.922 110.6l31.168 53.43a8 8 0 1013.82-8.06L108.595 104h57.477l11.184 19.173a48.023 48.023 0 0113.81-8.08z"/></svg>