<svg xmlns="http://www.w3.org/2000/svg" viewBox="0 0 256 256" width="20" height="20"><path fill="none" d="M0 0h256v256H0z"/><path d="M188.8 169.6L133.3 128l23.5-17.6a8 8 0 001.6-11.2 8.1 8.1 0 00-11.2-1.6L128 112V48l19.2 14.4a8 8 0 0011.2-1.6 8.1 8.1 0 00-1.6-11.2l-32-24A8 8 0 00112 32v80L60.8 73.6a8.1 8.1 0 00-11.2 1.6 8 8 0 001.6 11.2l55.5 41.6-55.5 41.6A8 8 0 0056 184a7.7 7.7 0 004.8-1.6L112 144v80a8.2 8.2 0 004.4 7.2 9.4 9.4 0 003.6.8 7.7 7.7 0 004.8-1.6l64-48a8 8 0 000-12.8zM128 208v-64l42.7 32zM219.3 80l18.4-18.3a8.1 8.1 0 00-11.4-11.4L208 68.7l-18.3-18.4a8.1 8.1 0 00-11.4 11.4L196.7 80l-18.4 18.3a8.1 8.1 0 000 11.4 8.2 8.2 0 0011.4 0L208 91.3l18.3 18.4a8.2 8.2 0 0011.4 0 8.1 8.1 0 000-11.4z"/></svg>