<svg xmlns="http://www.w3.org/2000/svg" viewBox="0 0 256 256" width="20" height="20"><path fill="none" d="M0 0h256v256H0z"/><path d="M213.92 210.619l-31.391-34.53-.01-.01-31.357-34.493-.021-.024L53.919 34.62a8 8 0 10-11.838 10.76l70.84 77.926-61.727 46.296a8 8 0 109.6 12.8l51.2-38.4v80a8 8 0 0012.8 6.4l50.83-38.124 26.457 29.102a8 8 0 0011.838-10.762zm-85.926-2.617v-64l11.76 8.82 25.06 27.566zm-8-128.38a8 8 0 008-8v-23.62l42.667 32-24.99 18.744a8 8 0 109.599 12.8l33.524-25.144a8 8 0 000-12.8l-64-48a8 8 0 00-12.8 6.4v39.62a8 8 0 008 8z"/></svg>