<svg xmlns="http://www.w3.org/2000/svg" viewBox="0 0 256 256" width="20" height="20"><path fill="none" d="M0 0h256v256H0z"/><path d="M188.8 169.603l-55.467-41.6 23.467-17.6a8 8 0 10-9.6-12.8l-19.2 14.4v-64L147.2 62.4a8 8 0 009.599-12.8l-32-23.998a8 8 0 00-12.799 6.4v80l-51.2-38.4a8 8 0 00-9.6 12.8l55.467 41.6-55.467 41.6a8 8 0 109.6 12.8l51.2-38.4v80a8 8 0 0012.8 6.4l64-48a8 8 0 000-12.8zm-60.8 38.4v-64l42.666 32zM219.313 80l18.344-18.343a8 8 0 00-11.314-11.314L208 68.687l-18.343-18.344a8 8 0 00-11.314 11.314L196.687 80l-18.344 18.343a8 8 0 1011.314 11.314L208 91.313l18.343 18.344a8 8 0 1011.314-11.314z"/></svg>