<svg xmlns="http://www.w3.org/2000/svg" viewBox="0 0 256 256" width="20" height="20"><path fill="none" d="M0 0h256v256H0z"/><path d="M213.9 210.6l-31.4-34.5-31.3-34.5h-.1l-97.2-107a8 8 0 00-11.8 10.8l70.8 77.9-61.7 46.3A8 8 0 0056 184a7.7 7.7 0 004.8-1.6L112 144v80a8.2 8.2 0 004.4 7.2 9 9 0 003.6.8 7.7 7.7 0 004.8-1.6l50.8-38.1 26.5 29.1a8 8 0 005.9 2.6 8.2 8.2 0 005.4-2.1 7.9 7.9 0 00.5-11.3zM128 208v-64l11.8 8.8 25 27.6zM120 79.6a8 8 0 008-8V48l42.7 32-25 18.7a7.9 7.9 0 00-1.6 11.2 7.8 7.8 0 006.4 3.2 8.1 8.1 0 004.8-1.6l33.5-25.1a8 8 0 000-12.8l-64-48A8 8 0 00112 32v39.6a8 8 0 008 8z"/></svg>