<svg xmlns="http://www.w3.org/2000/svg" viewBox="0 0 256 256" width="20" height="20"><path fill="none" d="M0 0h256v256H0z"/><path d="M221.1 110.6l-13.1-4.4V56a16 16 0 00-16-16h-56V24a8 8 0 00-16 0v16H64a16 16 0 00-16 16v50.2l-13.1 4.4A16 16 0 0024 125.8V160a8.3 8.3 0 00.3 2.2c15.7 55 86.1 74 100.1 77.2a16.4 16.4 0 007.2 0c14-3.2 84.4-22.2 100.1-77.2a8.3 8.3 0 00.3-2.2v-34.2a16 16 0 00-10.9-15.2zM136 168a8 8 0 01-16 0v-55.6a8 8 0 0116 0zm56-67.1l-58.9-19.6a16.2 16.2 0 00-10.2 0L64 100.9V56h128z"/></svg>