<svg xmlns="http://www.w3.org/2000/svg" viewBox="0 0 256 256" width="20" height="20"><path fill="none" d="M0 0h256v256H0z"/><path d="M248 132a56 56 0 00-32-50.6V72a48 48 0 00-88-26.5A48 48 0 0040 72v9.4a56 56 0 000 101.2v1.4a48 48 0 0088 26.5 48 48 0 0088-26.5v-1.4a56.1 56.1 0 0032-50.6zM88 216a32 32 0 01-31.8-28.6 49.3 49.3 0 007.8.6h8a8 8 0 000-16h-8a40 40 0 01-13.3-77.7 8.1 8.1 0 005.3-7.6V72a32 32 0 0164 0v76.3A47.4 47.4 0 0088 136a8 8 0 000 16 32 32 0 010 64zm104-44h-8a8 8 0 000 16h8a49.3 49.3 0 007.8-.6A32 32 0 11168 152a8 8 0 000-16 47.4 47.4 0 00-32 12.3V72a32 32 0 0164 0v14.7a8.1 8.1 0 005.3 7.6A40 40 0 01192 172zM60 128a8 8 0 010-16 20.1 20.1 0 0020-20v-8a8 8 0 0116 0v8a36 36 0 01-36 36zm144-8a8 8 0 01-8 8 36 36 0 01-36-36v-8a8 8 0 0116 0v8a20.1 20.1 0 0020 20 8 8 0 018 8z"/></svg>