<svg xmlns="http://www.w3.org/2000/svg" viewBox="0 0 256 256" width="20" height="20"><path fill="none" d="M0 0h256v256H0z"/><path d="M216.008 64H176v-8a24.027 24.027 0 00-24-24h-48a24.027 24.027 0 00-24 24v8H40.008a16.018 16.018 0 00-16 16v128a16.018 16.018 0 0016 16h176a16.018 16.018 0 0016-16V80a16.018 16.018 0 00-16-16zM96 56a8.01 8.01 0 018-8h48a8.01 8.01 0 018 8v8H96zm120.008 24l.003 41.606A184 184 0 01128 144a184 184 0 01-87.992-22.384V80zM108 120a8 8 0 018-8h24a8 8 0 010 16h-24a8 8 0 01-8-8z"/></svg>