<svg xmlns="http://www.w3.org/2000/svg" viewBox="0 0 256 256" width="20" height="20"><path fill="none" d="M0 0h256v256H0z"/><circle cx="128" cy="128" r="40"/><path d="M82.7 82.7a7.9 7.9 0 000-11.3 8 8 0 00-11.3 0 80 80 0 00-17.1 25.5 79.9 79.9 0 000 62.2 80 80 0 0017.1 25.5 8.3 8.3 0 005.7 2.3 8 8 0 005.6-2.3 7.9 7.9 0 000-11.3A65.4 65.4 0 0169 152.9a64.5 64.5 0 010-49.8 65.4 65.4 0 0113.7-20.4zM208 128a78.6 78.6 0 00-6.3-31.1 80 80 0 00-17.1-25.5 8 8 0 00-11.3 0 7.9 7.9 0 000 11.3 65.4 65.4 0 0113.7 20.4 64.5 64.5 0 010 49.8 65.4 65.4 0 01-13.7 20.4 7.9 7.9 0 000 11.3 8 8 0 005.6 2.3 8.3 8.3 0 005.7-2.3 80 80 0 0017.1-25.5A78.6 78.6 0 00208 128z"/><path d="M32.2 168.5a104.1 104.1 0 010-81 101.3 101.3 0 0122.3-33 8.1 8.1 0 00-11.4-11.4 121.8 121.8 0 00-25.7 38.2 120.7 120.7 0 000 93.4 121.8 121.8 0 0025.7 38.2 8.5 8.5 0 005.7 2.3 8.3 8.3 0 005.7-2.3 8.1 8.1 0 000-11.4 101.3 101.3 0 01-22.3-33zM238.6 81.3a121.8 121.8 0 00-25.7-38.2 8.1 8.1 0 10-11.4 11.4A103.5 103.5 0 01232 128a103.5 103.5 0 01-30.5 73.5 8.1 8.1 0 000 11.4 8.3 8.3 0 005.7 2.3 8.5 8.5 0 005.7-2.3 121.8 121.8 0 0025.7-38.2 120.7 120.7 0 000-93.4z"/></svg>