<svg xmlns="http://www.w3.org/2000/svg" viewBox="0 0 256 256" width="20" height="20"><path fill="none" d="M0 0h256v256H0z"/><circle cx="128" cy="128" r="40"/><path d="M82.745 82.745a8 8 0 10-11.314-11.313 79.94 79.94 0 000 113.136 8 8 0 1011.314-11.313 63.94 63.94 0 010-90.51zM208 128a79.777 79.777 0 00-23.43-56.568 8 8 0 10-11.315 11.313 63.94 63.94 0 010 90.51 8 8 0 0011.314 11.313A79.777 79.777 0 00208 128z"/><path d="M32.17 168.479A103.904 103.904 0 0154.46 54.461a8 8 0 00-11.314-11.314 119.906 119.906 0 000 169.706 8 8 0 1011.315-11.314 103.651 103.651 0 01-22.291-33.06zM238.566 81.288a119.581 119.581 0 00-25.712-38.14 8 8 0 10-11.315 11.313 103.905 103.905 0 010 147.078 8 8 0 0011.315 11.314 120.121 120.121 0 0025.712-131.565z"/></svg>