<svg xmlns="http://www.w3.org/2000/svg" viewBox="0 0 256 256" width="20" height="20"><path fill="none" d="M0 0h256v256H0z"/><path d="M191.287 46.993l14.098-13.14a8 8 0 00-10.91-11.705l-15.356 14.314a87.817 87.817 0 00-102.379 0L61.385 22.148a8 8 0 00-10.91 11.704l14.097 13.14A87.697 87.697 0 0039.93 108v40a88 88 0 00176 0v-40a87.695 87.695 0 00-24.643-61.007zM127.93 36a72.081 72.081 0 0172 72v12h-144v-12a72.081 72.081 0 0172-72zm16 56a12 12 0 1112 12 12 12 0 01-12-12zm-56 0a12 12 0 1112 12 12 12 0 01-12-12z"/></svg>