<svg xmlns="http://www.w3.org/2000/svg" viewBox="0 0 256 256" width="20" height="20"><path fill="none" d="M0 0h256v256H0z"/><path d="M50.416 33.796a8 8 0 0111.027-11.592L80.107 39.96a79.844 79.844 0 0195.708-.06l18.601-17.695a8 8 0 1111.027 11.592L187.63 50.743A79.694 79.694 0 01207.6 96H48.4a79.695 79.695 0 0119.907-45.185zM32 96a8 8 0 000 16h16V96zm176 56c0 2.7-.138 5.368-.4 8H224a8 8 0 010 16h-19.683a80.003 80.003 0 01-152.634 0H32a8 8 0 010-16h16.4c-.262-2.632-.4-5.3-.4-8v-8H32a8 8 0 010-16h16v-16h160v16h16a8 8 0 010 16h-16zm-72-16a8 8 0 00-16 0v64a8 8 0 0016 0zm96-32a8 8 0 00-8-8h-16v16h16a8 8 0 008-8z"/></svg>