<svg xmlns="http://www.w3.org/2000/svg" viewBox="0 0 256 256" width="20" height="20"><path fill="none" d="M0 0h256v256H0z"/><path d="M50.4 33.8a8 8 0 0111-11.6L80.1 40a79.8 79.8 0 0195.7-.1l18.6-17.7a8 8 0 0111.3.3 7.9 7.9 0 01-.3 11.3l-17.8 16.9a79.6 79.6 0 0120 45.3H48.4a79.9 79.9 0 0119.9-45.2zM32 96a8 8 0 000 16h16V96zm176 56a70.3 70.3 0 01-.4 8H224a8 8 0 010 16h-19.7a80 80 0 01-152.6 0H32a8 8 0 010-16h16.4a70.3 70.3 0 01-.4-8v-8H32a8 8 0 010-16h16v-16h160v16h16a8 8 0 010 16h-16zm-72-16a8 8 0 00-16 0v64a8 8 0 0016 0zm96-32a8 8 0 00-8-8h-16v16h16a8 8 0 008-8z"/></svg>