<svg xmlns="http://www.w3.org/2000/svg" viewBox="0 0 256 256" width="20" height="20"><path fill="none" d="M0 0h256v256H0z"/><path d="M167.9 92a12 12 0 11-12-12 12 12 0 0112 12zm-68-12a12 12 0 1012 12 12 12 0 00-12-12zM252 128a8 8 0 01-8 8h-28v8a88.1 88.1 0 01-3.2 23.7l23.1 13.4a8 8 0 01-4 14.9 7.6 7.6 0 01-4-1.1L207 182.8a88 88 0 01-158 0l-20.9 12.1a7.6 7.6 0 01-4 1.1 8 8 0 01-4-14.9l23.1-13.4A88.1 88.1 0 0140 144v-8H12a8 8 0 010-16h28v-8a88.1 88.1 0 013.2-23.7L20.1 74.9a8 8 0 01-3-10.9 8.1 8.1 0 0111-2.9L49 73.2a88 88 0 01158 0l20.9-12.1a8.1 8.1 0 0111 2.9 8 8 0 01-3 10.9l-23.1 13.4A88.1 88.1 0 01216 112v8h28a8 8 0 018 8zm-116 16a8 8 0 00-16 0v64a8 8 0 0016 0zm64-32a72 72 0 00-144 0v8h144z"/></svg>