<svg xmlns="http://www.w3.org/2000/svg" viewBox="0 0 256 256" width="20" height="20"><path fill="none" d="M0 0h256v256H0z"/><path d="M167.93 92a12 12 0 11-12-12 12 12 0 0112 12zm-68-12a12 12 0 1012 12 12 12 0 00-12-12zM252 128a8 8 0 01-8 8h-28v8a87.784 87.784 0 01-3.244 23.696l23.167 13.376a8 8 0 11-8 13.856l-20.965-12.104a87.976 87.976 0 01-157.915 0l-20.966 12.104a8 8 0 11-8-13.856l23.167-13.376A87.784 87.784 0 0140 144v-8H12a8 8 0 010-16h28v-8a87.787 87.787 0 013.244-23.696L20.077 74.928a8 8 0 018-13.856l20.965 12.104a87.975 87.975 0 01157.915 0l20.966-12.104a8 8 0 018 13.856l-23.167 13.376A87.787 87.787 0 01216 112v8h28a8 8 0 018 8zm-116 16a8 8 0 00-16 0v64a8 8 0 0016 0zm64-32a72 72 0 00-144 0v8h144z"/></svg>