<svg xmlns="http://www.w3.org/2000/svg" viewBox="0 0 256 256" width="20" height="20"><path fill="none" d="M0 0h256v256H0z"/><path d="M240 207.983h-8.006v-104a16.018 16.018 0 00-16-16h-64v-48a16.018 16.018 0 00-16-16h-96a16.018 16.018 0 00-16 16v168H16a8 8 0 000 16h224a8 8 0 000-16zm-120.006-72a8 8 0 01-8 8h-32a8 8 0 010-16h32a8 8 0 018 8zm-56-72h32a8 8 0 110 16h-32a8 8 0 010-16zm0 104h32a8 8 0 110 16h-32a8 8 0 010-16zm88-64h64v104h-64z"/><path d="M191.994 167.983h-16a8 8 0 000 16h16a8 8 0 100-16zM175.994 143.983h16a8 8 0 100-16h-16a8 8 0 000 16z"/></svg>