<svg xmlns="http://www.w3.org/2000/svg" viewBox="0 0 256 256" width="20" height="20"><path fill="none" d="M0 0h256v256H0z"/><path d="M240 208h-8V104a16 16 0 00-16-16h-64V40a16 16 0 00-16-16H40a16 16 0 00-16 16v168h-8a8 8 0 000 16h224a8 8 0 000-16zm-120-72a8 8 0 01-8 8H80a8 8 0 010-16h32a8 8 0 018 8zM64 64h32a8 8 0 010 16H64a8 8 0 010-16zm0 104h32a8 8 0 010 16H64a8 8 0 010-16zm88-64h64v104h-64z"/><path d="M192 168h-16a8 8 0 000 16h16a8 8 0 000-16zM176 144h16a8 8 0 000-16h-16a8 8 0 000 16z"/></svg>