<svg xmlns="http://www.w3.org/2000/svg" viewBox="0 0 256 256" width="20" height="20"><path fill="none" d="M0 0h256v256H0z"/><path d="M206 80h-70V69.4c11.5-5.1 18.2-12.5 20.1-22C160.2 26 136 4.3 133.2 2a7.8 7.8 0 00-10.3-.1C120 4.2 95.1 25.7 99.1 47.2c1.8 9.7 8.9 17.2 20.9 22.3V80H50a32.1 32.1 0 00-32 32v13.3A43.3 43.3 0 0030.9 156l1.1 1v51a16 16 0 0016 16h160a16 16 0 0016-16v-51l1.1-1a43.3 43.3 0 0012.9-30.7V112a32.1 32.1 0 00-32-32zm2 128H48v-41.8a39.3 39.3 0 0012.8 1.8A42.2 42.2 0 0094 150.6a41.9 41.9 0 0068 0 42.2 42.2 0 0033.2 17.4h.8a40.6 40.6 0 0012-1.8z"/></svg>