<svg xmlns="http://www.w3.org/2000/svg" viewBox="0 0 256 256" width="20" height="20"><path fill="none" d="M0 0h256v256H0z"/><path d="M200 24H56a16.018 16.018 0 00-16 16v176a16.018 16.018 0 0016 16h144a16.018 16.018 0 0016-16V40a16.018 16.018 0 00-16-16zM88 199.992a12 12 0 1112-12 12.014 12.014 0 01-12 12zm0-40a12 12 0 1112-12 12.014 12.014 0 01-12 12zm40 40a12 12 0 1112-12 12.014 12.014 0 01-12 12zm0-40a12 12 0 1112-12 12.014 12.014 0 01-12 12zm40 40a12 12 0 1112-12 12.014 12.014 0 01-12 12zm0-40a12 12 0 1112-12 12.014 12.014 0 01-12 12zm16-56a8 8 0 01-8 8H80a8 8 0 01-8-8v-40a8 8 0 018-8h96a8 8 0 018 8z"/></svg>