<svg xmlns="http://www.w3.org/2000/svg" viewBox="0 0 256 256" width="20" height="20"><path fill="none" d="M0 0h256v256H0z"/><path d="M207.994 31.997h-24v-8a8 8 0 10-16 0v8h-80v-8a8 8 0 00-16 0v8h-24a16.016 16.016 0 00-16 16v160a16.016 16.016 0 0016 16h160a16.016 16.016 0 0016-16v-160a16.016 16.016 0 00-16-16zM157.65 170.341a8 8 0 11-11.312 11.312l-18.344-18.343-18.344 18.343a8 8 0 01-11.312-11.312l18.344-18.344-18.344-18.344a8 8 0 1111.312-11.312l18.344 18.344 18.344-18.344a8 8 0 1111.312 11.312l-18.343 18.344zm50.344-90.344h-160v-32h24v8a8 8 0 0016 0v-8h80v8a8 8 0 1016 0v-8h24z"/></svg>