<svg xmlns="http://www.w3.org/2000/svg" viewBox="0 0 256 256" width="20" height="20"><path fill="none" d="M0 0h256v256H0z"/><path d="M207.994 31.997h-24v-8a8 8 0 00-16 0v8h-80v-8a8 8 0 10-16 0v8h-24a16.016 16.016 0 00-16 16v160a16.016 16.016 0 0016 16h160a16.016 16.016 0 0016-16v-160a16.016 16.016 0 00-16-16zM104 187.997a23.845 23.845 0 01-16.96-7.02 8 8 0 0111.307-11.32 8 8 0 105.653-13.66h-.005c-.249 0-.498-.015-.746-.038-.08-.007-.158-.02-.236-.029a8.216 8.216 0 01-.773-.134c-.15-.033-.3-.072-.45-.115-.09-.026-.181-.052-.27-.08-.15-.05-.3-.106-.448-.164-.08-.032-.162-.061-.24-.095a8.16 8.16 0 01-.512-.246c-.048-.026-.1-.047-.148-.073q-.316-.174-.621-.378c-.069-.046-.132-.097-.199-.145-.117-.084-.236-.165-.35-.256l-.042-.037c-.12-.098-.233-.204-.348-.309-.084-.076-.172-.15-.251-.228-.077-.077-.147-.16-.221-.24a8.04 8.04 0 01-1.951-3.718c-.005-.025-.014-.05-.02-.075-.027-.135-.044-.274-.065-.41-.019-.125-.043-.248-.057-.373-.01-.103-.012-.208-.02-.312-.01-.164-.023-.328-.024-.492 0-.018-.003-.035-.003-.053 0-.083.01-.164.013-.246.005-.166.01-.331.025-.497.01-.112.027-.22.043-.331.02-.15.04-.298.067-.446.023-.119.053-.234.081-.352.033-.136.065-.272.105-.407.036-.121.079-.24.12-.358.045-.127.088-.254.139-.379.05-.122.106-.24.162-.36.055-.116.107-.233.168-.348.065-.125.139-.245.21-.365.062-.104.122-.209.189-.31.085-.129.177-.25.269-.374.056-.074.103-.152.162-.225l5.602-7.002H92a8 8 0 110-16h28a8 8 0 016.247 12.998l-8.87 11.086A23.993 23.993 0 01104 187.997zm64-8a8 8 0 01-16 0v-36l-3.2 2.4a8 8 0 01-9.6-12.8l16-12a8 8 0 0112.8 6.4zm39.994-100h-160v-32h24v8a8 8 0 0016 0v-8h80v8a8 8 0 1016 0v-8h24z"/></svg>