<svg xmlns="http://www.w3.org/2000/svg" viewBox="0 0 256 256" width="20" height="20"><path fill="none" d="M0 0h256v256H0z"/><path d="M208 32h-24v-8a8 8 0 00-16 0v8H88v-8a8 8 0 00-16 0v8H48a16 16 0 00-16 16v160a16 16 0 0016 16h160a16 16 0 0016-16V48a16 16 0 00-16-16zm-50.3 138.3a8.1 8.1 0 010 11.4 8.5 8.5 0 01-5.7 2.3 8.3 8.3 0 01-5.7-2.3L128 163.3l-18.3 18.4a8.5 8.5 0 01-5.7 2.3 8.3 8.3 0 01-5.7-2.3 8.1 8.1 0 010-11.4l18.4-18.3-18.4-18.3a8.1 8.1 0 0111.4-11.4l18.3 18.4 18.3-18.4a8.1 8.1 0 0111.4 11.4L139.3 152zM208 80H48V48h24v8a8 8 0 0016 0v-8h80v8a8 8 0 0016 0v-8h24z"/></svg>