<svg xmlns="http://www.w3.org/2000/svg" viewBox="0 0 256 256" width="20" height="20"><path fill="none" d="M0 0h256v256H0z"/><path d="M39.4 18.6a7.9 7.9 0 00-11.3-.5 8 8 0 00-.6 11.3L51.7 56H48a24.1 24.1 0 00-24 24v112a24.1 24.1 0 0024 24h149.2l19.4 21.4a8.2 8.2 0 005.9 2.6 7.8 7.8 0 005.4-2.1 8 8 0 00.6-11.3zM128 168a36 36 0 01-36-36 36.4 36.4 0 018.1-22.8l47.9 52.7a35.3 35.3 0 01-20 6.1zm80-112h-27.7l-13.7-20.4A7.6 7.6 0 00160 32H96a7.9 7.9 0 00-6.7 3.6l-2 3a8 8 0 00.8 9.8l130 143a7.9 7.9 0 005.9 2.6 7.4 7.4 0 002.9-.5 8 8 0 005.1-7.5V80a24.1 24.1 0 00-24-24z"/></svg>