<svg xmlns="http://www.w3.org/2000/svg" viewBox="0 0 256 256" width="20" height="20"><path fill="none" d="M0 0h256v256H0z"/><path d="M39.375 18.619a8 8 0 00-11.84 10.762L51.733 56H48a24.027 24.027 0 00-24 24v112a24.027 24.027 0 0024 24h149.188l19.438 21.381a8 8 0 0011.84-10.762zM128 168a35.973 35.973 0 01-27.864-58.758l47.886 52.676A35.812 35.812 0 01128 168zM208 56h-27.725L166.65 35.562A8 8 0 00159.994 32h-64a8 8 0 00-6.658 3.563l-2.007 3.014a8 8 0 00.737 9.818L218.08 191.41A8 8 0 00232 186.03V80a24.027 24.027 0 00-24-24z"/></svg>