<svg xmlns="http://www.w3.org/2000/svg" viewBox="0 0 256 256" width="20" height="20"><path fill="none" d="M0 0h256v256H0z"/><path d="M132.2 25.2a7.9 7.9 0 00-8.4 0A153.5 153.5 0 0096.2 48C77.8 67.1 68 87.9 68 108a60 60 0 00120 0c0-47.9-53.5-81.4-55.8-82.8zM128 152a23.9 23.9 0 01-24-24c0-24 24-40 24-40s24 16 24 40a23.9 23.9 0 01-24 24zm95.6 74.4a8 8 0 01-7.6 5.6 6.7 6.7 0 01-2.4-.4L128 204.4l-85.6 27.2a6.7 6.7 0 01-2.4.4 8 8 0 01-7.6-5.6 7.9 7.9 0 015.2-10l64-20.4-64-20.4a8 8 0 114.8-15.2l85.6 27.2 85.6-27.2a8 8 0 114.8 15.2l-64 20.4 64 20.4a7.9 7.9 0 015.2 10z"/></svg>