<svg xmlns="http://www.w3.org/2000/svg" viewBox="0 0 256 256" width="20" height="20"><path fill="none" d="M0 0h256v256H0z"/><path d="M221.4 36.3a16.3 16.3 0 00-17 4l-16.9 16.9a111.5 111.5 0 00-119 0L51.6 40.3a16.3 16.3 0 00-17-4 15.9 15.9 0 00-10.6 15V136c0 49.1 40.1 89.6 91.6 95.3a4 4 0 004.4-4v-32l-13.4-13.4a8.3 8.3 0 01-.4-11.4 8.1 8.1 0 0111.5-.2l10.3 10.4 10.3-10.4a8.1 8.1 0 0111.5.2 8.3 8.3 0 01-.4 11.4L136 195.3v32a4 4 0 004.4 4c51.5-5.7 91.6-46.2 91.6-95.3V51.3a15.9 15.9 0 00-10.6-15zM84 152a12 12 0 1112-12 12 12 0 01-12 12zm20-64a8 8 0 01-16 0V69a8 8 0 0116 0zm32 0a8 8 0 01-16 0V64a8 8 0 0116 0zm16 0V69a8 8 0 0116 0v19a8 8 0 01-16 0zm20 64a12 12 0 1112-12 12 12 0 01-12 12z"/></svg>