<svg xmlns="http://www.w3.org/2000/svg" viewBox="0 0 256 256" width="20" height="20"><path fill="none" d="M0 0h256v256H0z"/><path d="M194.08 165.025a8 8 0 0013.92-5.382V43.314A16 16 0 00180.687 32L129.75 82.934a8 8 0 00-.262 11.038zM214.218 221.021c.133-.164.26-.332.378-.505.028-.04.054-.082.081-.124a8.01 8.01 0 00.319-.524c.03-.055.058-.111.087-.167.087-.168.171-.338.246-.51.033-.078.063-.156.094-.233.062-.158.122-.315.174-.475.032-.099.06-.198.088-.298.041-.147.08-.294.113-.442.025-.112.045-.224.065-.337a7.96 7.96 0 00.1-.784c.011-.147.02-.294.022-.44.002-.062.01-.12.01-.182s-.008-.121-.01-.182a8.104 8.104 0 00-.199-1.608c-.022-.097-.048-.192-.074-.288a8.04 8.04 0 00-.141-.477c-.028-.082-.06-.163-.09-.244a7.869 7.869 0 00-.2-.49c-.032-.072-.067-.141-.1-.21a8.122 8.122 0 00-.265-.5c-.033-.058-.069-.115-.104-.172a7.986 7.986 0 00-.436-.64q-.2-.264-.418-.51c-.016-.016-.028-.035-.044-.052l-160-176A8 8 0 1042.075 45.39l59.629 65.592L16 196.686A16 16 0 0027.313 224h180.51c.059.001.116.008.174.008a7.99 7.99 0 003.11-.636l.005-.003q.348-.147.685-.33l.023-.013q.319-.173.624-.378l.047-.032q.285-.195.556-.416l.07-.058c.086-.072.175-.137.259-.214.078-.07.146-.149.221-.222a7.937 7.937 0 00.531-.574l.09-.11z"/></svg>