<svg xmlns="http://www.w3.org/2000/svg" viewBox="0 0 256 256" width="20" height="20"><path fill="none" d="M0 0h256v256H0z"/><path d="M229.7 146.3a8.1 8.1 0 010 11.4 8.2 8.2 0 01-11.4 0L200 139.3l-18.3 18.4a8.2 8.2 0 01-11.4 0 8.1 8.1 0 010-11.4l18.4-18.3-18.4-18.3a8.1 8.1 0 0111.4-11.4l18.3 18.4 18.3-18.4a8.1 8.1 0 0111.4 11.4L211.3 128zm-26.9 18.5a3.9 3.9 0 00-5.6 0L193 169a24 24 0 01-17 7 23.6 23.6 0 01-17.2-7.3c-9.2-9.5-8.7-24.7.6-34.1l6.7-6.6-6.7-6.6c-9.5-9.6-9.7-25.4 0-34.7a24.1 24.1 0 0133.6.3l4.2 4.2a3.9 3.9 0 005.6 0L207 87a2.9 2.9 0 001-2.3V43.8a16.6 16.6 0 00-9.2-15 15.9 15.9 0 00-18.1 3.2L16.3 196.4a16.3 16.3 0 00-4 17 15.9 15.9 0 0015 10.6H192a16 16 0 0016-16v-36.8a3 3 0 00-1-2.2z"/></svg>