<svg xmlns="http://www.w3.org/2000/svg" viewBox="0 0 256 256" width="20" height="20"><path fill="none" d="M0 0h256v256H0z"/><path d="M211.314 128l18.343-18.343a8 8 0 10-11.314-11.314L200 116.686l-18.343-18.343a8 8 0 00-11.314 11.314L188.686 128l-18.343 18.343a8 8 0 0011.314 11.314L200 139.314l18.343 18.343a8 8 0 0011.314-11.314z"/><path d="M200 161.941l-7.03 7.03a24 24 0 01-33.94-33.942l7.029-7.029-7.03-7.03a24 24 0 0133.942-33.94L200 94.058l7.03-7.03c.311-.312.646-.586.97-.877V43.313A16 16 0 00180.687 32L16 196.687A16 16 0 0027.313 224H192a16.018 16.018 0 0016-16v-38.152c-.324-.291-.659-.565-.97-.877z"/></svg>