<svg xmlns="http://www.w3.org/2000/svg" viewBox="0 0 256 256" width="20" height="20"><path fill="none" d="M0 0h256v256H0z"/><path d="M216 40H40a16.018 16.018 0 00-16 16v144.001A16 16 0 0040.001 216l13.39-.001a8 8 0 007.224-4.567 48.024 48.024 0 0186.77 0 8 8 0 007.225 4.567L216 216a16.018 16.018 0 0016-16V56a16.018 16.018 0 00-16-16zM104 168a32 32 0 1132-32 32.037 32.037 0 01-32 32zm112 32l-56.566-.001A63.899 63.899 0 00146.266 184H192a8 8 0 008-8V80a8 8 0 00-8-8H64a8 8 0 00-8 8v96a7.996 7.996 0 006.029 7.745A63.914 63.914 0 0048.566 200L40 200V56h176z"/></svg>