<svg xmlns="http://www.w3.org/2000/svg" viewBox="0 0 256 256" width="20" height="20"><path fill="none" d="M0 0h256v256H0z"/><path d="M100 116.5a8.1 8.1 0 004-7v-72a8 8 0 00-10.7-7.6A104.3 104.3 0 0024 128a109.1 109.1 0 001.7 19 8.1 8.1 0 004.5 5.8 8.4 8.4 0 003.4.8 8 8 0 004-1.1zM88 49.6v55.3l-47.9 27.7c-.1-1.6-.1-3.1-.1-4.6a88.3 88.3 0 0148-78.4z"/><path d="M218.3 76.4a.8.8 0 01-.2-.4l-.4-.5A103.9 103.9 0 00128 24a8 8 0 00-8 8v91.4l-79.1 45.7a7.9 7.9 0 00-3 10.9v.2l.3.5A104 104 0 00232 128a103.5 103.5 0 00-13.7-51.6z"/></svg>