<svg xmlns="http://www.w3.org/2000/svg" viewBox="0 0 256 256" width="20" height="20"><path fill="none" d="M0 0h256v256H0z"/><path d="M99.999 116.453a8 8 0 004-6.928V37.463a8 8 0 00-10.666-7.543 104.15 104.15 0 00-67.6 117.084 8 8 0 0011.868 5.475zm-12-66.863v55.316l-47.883 27.645Q40 130.279 40 128a88.201 88.201 0 0147.999-78.41z"/><path d="M218.271 76.399c-.067-.133-.129-.268-.204-.399-.102-.177-.216-.342-.329-.508A104.052 104.052 0 00128 24a8 8 0 00-8 8v91.381l-79.139 45.69A8 8 0 0037.933 180c.034.058.076.108.11.165.09.18.177.359.28.534A104.011 104.011 0 00232 128a103.365 103.365 0 00-13.729-51.601z"/></svg>