<svg xmlns="http://www.w3.org/2000/svg" viewBox="0 0 256 256" width="20" height="20"><path fill="none" d="M0 0h256v256H0z"/><path d="M224 200H40v-20.683l56.002-56.004 26.343 26.344a8.001 8.001 0 0011.315 0l66.342-66.343V104a8 8 0 0016 0V64.005c0-.266-.013-.532-.04-.797-.01-.107-.03-.21-.045-.316-.021-.153-.04-.307-.07-.458-.025-.125-.06-.246-.09-.37-.033-.13-.062-.26-.1-.39-.037-.12-.083-.237-.125-.356-.046-.128-.088-.257-.14-.383-.046-.109-.099-.213-.148-.32-.062-.13-.12-.262-.189-.39-.053-.099-.114-.193-.17-.29-.076-.127-.15-.256-.233-.38-.069-.104-.147-.202-.22-.301-.081-.11-.158-.222-.245-.328a7.774 7.774 0 00-.422-.466c-.036-.038-.068-.08-.105-.117-.035-.035-.074-.064-.11-.098a8.222 8.222 0 00-.474-.43c-.103-.084-.21-.157-.316-.235-.104-.078-.205-.159-.313-.23-.12-.081-.244-.15-.367-.224-.102-.06-.2-.124-.305-.18-.122-.066-.248-.121-.374-.18-.111-.053-.222-.109-.337-.156-.12-.05-.242-.09-.364-.133-.124-.045-.247-.093-.374-.132-.122-.036-.246-.064-.37-.095-.13-.032-.258-.069-.39-.095-.14-.028-.283-.045-.425-.065-.117-.016-.231-.039-.349-.05a8.05 8.05 0 00-.79-.04h-40a8 8 0 000 16h20.686l-60.686 60.687-26.342-26.344a8.001 8.001 0 00-11.315 0L40 156.688V48a8 8 0 00-16 0v160a8 8 0 008 8h192a8 8 0 000-16z"/></svg>