<svg xmlns="http://www.w3.org/2000/svg" viewBox="0 0 256 256" width="20" height="20"><path fill="none" d="M0 0h256v256H0z"/><path d="M230.5 189.8a80 80 0 00-60.9-117.2 80 80 0 10-144.1 69.2l-6.2 21.6a13.9 13.9 0 0017.3 17.3l21.6-6.2a80.8 80.8 0 0028.2 8.9 80 80 0 00111.4 39.1l21.6 6.2a13.9 13.9 0 0017.3-17.3zm-15.4-5.1a7.6 7.6 0 00-.9 6.2l6.2 21.5-21.5-6.2a7.6 7.6 0 00-6.2.9 64.2 64.2 0 01-88.4-23.5A80.2 80.2 0 00176 104a83.6 83.6 0 00-1.3-14.3A64 64 0 01224 152a64.8 64.8 0 01-8.9 32.7z"/></svg>