<svg xmlns="http://www.w3.org/2000/svg" viewBox="0 0 256 256" width="20" height="20"><path fill="none" d="M0 0h256v256H0z"/><path d="M230.54 189.767a80.014 80.014 0 00-60.975-117.18 80.001 80.001 0 10-144.105 69.18l-6.184 21.65a14 14 0 0017.306 17.309l21.652-6.186a79.841 79.841 0 0028.19 8.883 80.037 80.037 0 00111.343 39.116l21.651 6.187a14 14 0 0017.307-17.308zm-15.488-5.108a8.001 8.001 0 00-.816 6.287l6.116 21.406-21.406-6.116a8.002 8.002 0 00-6.286.817 64.034 64.034 0 01-88.34-23.486 79.905 79.905 0 0070.375-93.86 64.022 64.022 0 0140.357 94.952z"/></svg>