<svg xmlns="http://www.w3.org/2000/svg" viewBox="0 0 256 256" width="20" height="20"><path fill="none" d="M0 0h256v256H0z"/><path d="M65.774 54.46a8.001 8.001 0 010 11.315 87.957 87.957 0 00-22.79 39.437 8 8 0 11-15.458-4.127A103.977 103.977 0 0154.461 54.46a8.002 8.002 0 0111.313 0zM43 150.777a8 8 0 10-15.455 4.14 103.976 103.976 0 0026.911 46.639 8 8 0 0011.303-11.324 87.963 87.963 0 01-22.76-39.455zm107.774 62.242a87.95 87.95 0 01-45.55-.018 8 8 0 10-4.14 15.455 103.98 103.98 0 0053.846.014 8 8 0 00-4.156-15.451zm72.035-67.898a8 8 0 00-9.793 5.666 87.951 87.951 0 01-22.79 39.438 8 8 0 0011.314 11.314 103.97 103.97 0 0026.935-46.625 8 8 0 00-5.666-9.793zM213 105.224a8 8 0 1015.455-4.14 103.96 103.96 0 00-26.911-46.64 8 8 0 00-11.303 11.325A87.947 87.947 0 01213 105.224zM105.227 42.981a87.95 87.95 0 0145.55.017 8 8 0 104.14-15.455 104.009 104.009 0 00-53.846-.013 8 8 0 004.156 15.45z"/></svg>