<svg xmlns="http://www.w3.org/2000/svg" viewBox="0 0 256 256" width="20" height="20"><path fill="none" d="M0 0h256v256H0z"/><path d="M225.862 102.815c-3.772-3.933-7.673-8-9.146-11.563-1.355-3.273-1.437-8.695-1.516-13.94-.147-9.758-.314-20.819-8.004-28.508s-18.75-7.857-28.508-8.004c-5.245-.08-10.666-.161-13.94-1.516-3.562-1.473-7.63-5.374-11.563-9.146C146.275 23.51 138.442 16 128 16s-18.274 7.51-25.185 14.138c-3.933 3.772-8 7.673-11.563 9.146-3.273 1.355-8.695 1.437-13.94 1.516-9.758.147-20.819.314-28.508 8.004s-7.857 18.75-8.004 28.509c-.08 5.244-.161 10.665-1.516 13.939-1.473 3.562-5.374 7.63-9.146 11.563C23.51 109.725 16 117.558 16 128s7.51 18.274 14.138 25.185c3.772 3.933 7.673 8 9.146 11.563 1.355 3.273 1.437 8.695 1.516 13.94.147 9.758.314 20.819 8.004 28.508s18.75 7.857 28.509 8.004c5.244.08 10.665.161 13.939 1.516 3.562 1.473 7.63 5.374 11.563 9.146C109.725 232.49 117.558 240 128 240s18.274-7.51 25.185-14.138c3.933-3.772 8-7.673 11.563-9.146 3.273-1.355 8.695-1.437 13.94-1.516 9.758-.147 20.819-.314 28.508-8.004s7.857-18.75 8.004-28.508c.08-5.245.161-10.666 1.516-13.94 1.473-3.562 5.374-7.63 9.146-11.563C232.49 146.275 240 138.442 240 128s-7.51-18.274-14.138-25.185zm-48.339 6.972l-58.667 56a8 8 0 01-11.046 0l-29.333-28a8 8 0 1111.046-11.574l23.81 22.727 53.144-50.727a8 8 0 1111.046 11.574z"/></svg>