<svg xmlns="http://www.w3.org/2000/svg" viewBox="0 0 256 256" width="20" height="20"><path fill="none" d="M0 0h256v256H0z"/><path d="M128 72a8 8 0 00-8 8v48c0 .073.009.143.01.215.006.161.011.322.025.482.01.124.028.246.044.368.018.13.035.259.06.387a9.134 9.134 0 00.174.743 8.262 8.262 0 00.249.734 8.268 8.268 0 001.182 2.05 8.51 8.51 0 001.069 1.105c.098.083.2.162.301.241.1.076.198.153.301.225.13.092.266.176.401.26.063.038.12.081.184.118l41.57 24a8 8 0 008-13.856L136 123.382V80a8 8 0 00-8-8z"/><path d="M224.167 51.716a8 8 0 00-8 8v20.686l-20.285-20.284a95.955 95.955 0 100 135.764 8 8 0 10-11.314-11.313 80 80 0 110-113.138l20.285 20.285h-20.686a8 8 0 000 16h39.997c.265 0 .53-.014.793-.04.114-.011.224-.033.336-.049.146-.02.293-.038.438-.066.131-.026.259-.063.388-.095.124-.031.248-.058.37-.095.129-.04.252-.087.378-.132.12-.044.242-.083.361-.133.118-.049.231-.106.346-.16.121-.057.244-.111.363-.175.112-.06.218-.128.327-.193.115-.07.231-.134.343-.209.123-.082.238-.173.355-.26.091-.07.186-.133.274-.206a8.056 8.056 0 001.118-1.118c.072-.087.134-.179.2-.268.09-.12.183-.237.266-.36.074-.111.138-.226.205-.34.067-.11.136-.218.197-.331.062-.117.115-.237.172-.356.055-.118.114-.234.164-.354.048-.116.086-.233.128-.35.046-.13.096-.257.136-.389.035-.118.061-.237.091-.357.034-.133.071-.265.099-.402.027-.137.043-.276.063-.415.017-.12.04-.237.052-.358.025-.263.04-.526.04-.79v-40a8 8 0 00-8-8z"/></svg>