<svg xmlns="http://www.w3.org/2000/svg" viewBox="0 0 256 256" width="20" height="20"><path fill="none" d="M0 0h256v256H0z"/><path d="M136 80v43.4l37.6 21.7a8 8 0 01-4 14.9 7.1 7.1 0 01-4-1.1l-41.6-24h-.2l-.4-.2-.3-.3-.3-.2-.3-.3-.2-.2c-.2-.1-.3-.3-.4-.4l-.2-.2-.2-.4-.2-.3-.2-.3a.5.5 0 01-.2-.4l-.2-.3c0-.1-.1-.2-.1-.4a.4.4 0 01-.1-.3l-.2-.4a.4.4 0 00-.1-.3c0-.2 0-.3-.1-.4v-.4c0-.2-.1-.3-.1-.4V80a8 8 0 0116 0zm91.2-27.7a8 8 0 00-8.7 1.8l-14.3 14.3-8.3-8.3a96 96 0 100 135.8 8 8 0 000-11.3 7.9 7.9 0 00-11.3 0 80 80 0 110-113.2l8.3 8.3-14.4 14.4a8 8 0 005.7 13.6h40a8 8 0 008-8v-40a8.2 8.2 0 00-5-7.4z"/></svg>