<svg xmlns="http://www.w3.org/2000/svg" viewBox="0 0 256 256" width="20" height="20"><path fill="none" d="M0 0h256v256H0z"/><path d="M128 24a104 104 0 10104 104A104.118 104.118 0 00128 24zm56 112h-36.687l25.942 25.941a8 8 0 01-11.314 11.314l-39.597-39.598a8.062 8.062 0 01-.531-.587c-.074-.09-.138-.184-.207-.276-.087-.117-.178-.232-.26-.353-.074-.112-.138-.228-.207-.342-.065-.11-.134-.216-.194-.329-.063-.117-.116-.237-.172-.357-.056-.117-.114-.232-.164-.353-.048-.116-.087-.234-.129-.351-.046-.128-.095-.256-.135-.388-.036-.118-.062-.237-.092-.357-.034-.133-.07-.265-.098-.401-.027-.138-.044-.277-.063-.416-.018-.12-.04-.237-.052-.358q-.038-.383-.039-.767L120 128l.001-.022q.001-.385.04-.767c.01-.121.033-.238.05-.358.02-.14.037-.278.064-.416.027-.136.064-.268.098-.401.03-.12.056-.24.092-.357.04-.132.09-.26.136-.388.042-.117.08-.235.128-.351.05-.12.108-.236.164-.353.056-.12.11-.24.172-.357.06-.113.129-.22.194-.329.069-.114.133-.23.208-.342.081-.122.172-.236.26-.353.068-.092.132-.186.206-.276a8.045 8.045 0 011.117-1.117c.092-.075.188-.14.281-.21.115-.087.228-.176.347-.255.114-.077.233-.143.35-.213.107-.064.211-.131.321-.19.12-.064.243-.118.365-.175.115-.055.227-.112.345-.16.119-.05.24-.09.36-.132.126-.046.25-.094.378-.133.122-.036.246-.064.37-.094.13-.033.257-.07.39-.096.142-.028.287-.045.432-.066.113-.016.226-.038.341-.049q.395-.04.791-.04H184a8 8 0 010 16z"/></svg>