<svg xmlns="http://www.w3.org/2000/svg" viewBox="0 0 256 256" width="20" height="20"><path fill="none" d="M0 0h256v256H0z"/><path d="M128 72a8 8 0 00-8 8v48c0 .073.009.143.01.215.006.161.011.322.025.482.01.124.028.246.044.368.018.13.035.259.06.387a9.134 9.134 0 00.174.743 8.262 8.262 0 00.249.734 8.258 8.258 0 001.182 2.05 8.51 8.51 0 001.069 1.105c.098.083.2.162.301.241.1.076.198.153.301.225.13.092.266.176.401.26.063.038.12.081.184.118l41.57 24a8 8 0 008-13.856L136 123.382V80a8 8 0 00-8-8z"/><path d="M195.882 60.118a96.108 96.108 0 00-135.764 0L39.833 80.402V59.716a8 8 0 10-16 0v40l.002.022q.001.384.039.767c.011.12.034.238.05.358.021.139.037.278.064.416.028.136.065.268.099.402.03.119.056.238.091.356.04.132.09.26.136.389.042.117.08.234.128.35.05.12.109.236.164.354.057.119.11.239.172.356.06.113.13.222.197.332.067.113.131.228.205.338.083.124.175.242.265.36.067.09.13.182.201.27a8.034 8.034 0 001.119 1.118c.085.07.175.13.263.197.121.091.24.184.366.269.108.072.221.135.333.202.112.067.222.138.337.2.115.06.233.112.35.168.12.057.237.116.36.167.113.047.228.084.342.125.132.048.263.098.398.14.113.034.229.059.343.088.138.035.275.073.415.101.131.026.263.04.394.06.127.019.252.042.38.055.233.023.467.033.7.035.03 0 .058.005.087.005h40a8 8 0 000-16H51.147L71.432 71.43a80 80 0 110 113.137 8 8 0 00-11.314 11.315A96 96 0 00195.882 60.118z"/></svg>