<svg xmlns="http://www.w3.org/2000/svg" viewBox="0 0 256 256" width="20" height="20"><path fill="none" d="M0 0h256v256H0z"/><path d="M216 40H40a16.018 16.018 0 00-16 16v144a16.018 16.018 0 0016 16h176a16.018 16.018 0 0016-16V56a16.018 16.018 0 00-16-16zM96 148a19.853 19.853 0 0014.286-6.003 8 8 0 0111.428 11.197 36 36 0 110-50.388 8 8 0 01-11.428 11.197A20 20 0 1096 148zm72 0a19.853 19.853 0 0014.286-6.003 8 8 0 0111.428 11.197 36 36 0 110-50.388 8 8 0 01-11.428 11.197A20 20 0 10168 148z"/></svg>