<svg xmlns="http://www.w3.org/2000/svg" viewBox="0 0 256 256" width="20" height="20"><path fill="none" d="M0 0h256v256H0z"/><path d="M176 196a12 12 0 11-12-12 12 12 0 0112 12zM76 184a12 12 0 1012 12 12 12 0 00-12-12zm40 16a12 12 0 1012 12 12 12 0 00-12-12zm-48 24a12 12 0 1012 12 12 12 0 00-12-12zm88 0a12 12 0 1012 12 12 12 0 00-12-12zm3.3-207.9A76.1 76.1 0 0085 64.8a74.8 74.8 0 00-5 26.9 8.3 8.3 0 01-7.4 8.3 8 8 0 01-8.6-8 91.6 91.6 0 012.4-21.1 4 4 0 00-5-4.8A52.1 52.1 0 0024 116.3C24.2 145 48.1 168 76.8 168H156a76 76 0 003.3-151.9z"/></svg>