<svg xmlns="http://www.w3.org/2000/svg" viewBox="0 0 256 256" width="20" height="20"><path fill="none" d="M0 0h256v256H0z"/><path d="M156 72a76.166 76.166 0 00-12.356 1.012A71.977 71.977 0 0088.168 9.825a8 8 0 00-9.587 9.587A56.339 56.339 0 0180 32a56.063 56.063 0 01-56 56 56.396 56.396 0 01-12.59-1.418 8 8 0 00-9.586 9.588 72.188 72.188 0 0032.29 45.061A51.966 51.966 0 0076 224h80a76 76 0 000-152zM21.368 103.952q1.315.049 2.632.048a72.081 72.081 0 0072-72q0-1.337-.05-2.673a55.65 55.65 0 0131.983 48.053 76.42 76.42 0 00-42.896 43.403A52.311 52.311 0 0076 120a51.697 51.697 0 00-30.028 9.586 56.254 56.254 0 01-24.604-25.634z"/></svg>