<svg xmlns="http://www.w3.org/2000/svg" viewBox="0 0 256 256" width="20" height="20"><path fill="none" d="M0 0h256v256H0z"/><path d="M156 72a78.8 78.8 0 00-20.2 2.7 58.9 58.9 0 00-9.4-11.5l9.4-13.6a7.9 7.9 0 00-1.9-11.1 8 8 0 00-11.2 1.9L113.2 54a55 55 0 00-26.9-6l-2.9-16.3a8 8 0 10-15.8 2.8l2.9 16.3a55.7 55.7 0 00-23.3 14.8l-13.6-9.5a8 8 0 00-11.1 2 7.9 7.9 0 001.9 11.1L38 78.7a55.1 55.1 0 00-6 27l-16.3 2.9a8 8 0 001.4 15.9h1.4l16.3-2.9a52.3 52.3 0 005.9 12.4A51.9 51.9 0 0076 224h80a76 76 0 000-152zM48.6 111.1v-.4a39.6 39.6 0 016.5-29.5V81h.1a40.1 40.1 0 0125.6-16.4h.5a39.5 39.5 0 0129.1 6.3l.5.3.4.3a37.4 37.4 0 019.3 9.3 76.6 76.6 0 00-35.6 40 53.8 53.8 0 00-9-.8 52.6 52.6 0 00-22.1 4.9 40 40 0 01-5.3-13.8z"/></svg>