<svg xmlns="http://www.w3.org/2000/svg" viewBox="0 0 256 256" width="20" height="20"><path fill="none" d="M0 0h256v256H0z"/><path d="M160.001 40a88.102 88.102 0 00-78.713 48.67h-.005A87.463 87.463 0 0071.989 128a8 8 0 01-16 0 103.437 103.437 0 017.78-39.453A63.992 63.992 0 0072.001 216h88a88 88 0 000-176zm31.59 123.716l-33.936 33.937a7.959 7.959 0 01-.592.535c-.084.07-.172.128-.258.193-.123.093-.243.188-.371.273-.108.072-.22.134-.33.2-.113.069-.224.14-.341.202-.115.061-.234.114-.351.17-.12.056-.236.115-.358.165-.114.048-.232.086-.348.128-.13.046-.258.096-.391.136-.117.036-.236.062-.354.091-.134.034-.267.072-.404.099-.139.028-.28.044-.42.064-.118.017-.234.04-.353.051a8.048 8.048 0 01-1.58 0c-.119-.011-.235-.034-.353-.051-.14-.02-.28-.036-.42-.064-.137-.027-.27-.065-.404-.099-.118-.03-.237-.055-.353-.09-.133-.04-.262-.09-.392-.137-.116-.042-.233-.08-.348-.128-.121-.05-.239-.11-.357-.166-.118-.055-.236-.108-.352-.169-.116-.063-.227-.133-.34-.201-.11-.067-.223-.129-.33-.2-.128-.086-.249-.181-.371-.274-.086-.065-.175-.124-.258-.193a7.957 7.957 0 01-.592-.535l-33.937-33.937a8 8 0 1111.313-11.314l20.284 20.285V112a8 8 0 0116 0v60.687l20.284-20.285a8 8 0 1111.314 11.314z"/></svg>