<svg xmlns="http://www.w3.org/2000/svg" viewBox="0 0 256 256" width="20" height="20"><path fill="none" d="M0 0h256v256H0z"/><path d="M156 72a75.81 75.81 0 00-20.236 2.739 55.732 55.732 0 00-9.41-11.58l9.483-13.544a8 8 0 00-13.106-9.178l-9.484 13.545A55.868 55.868 0 0086.25 48.02l-2.876-16.314a8 8 0 10-15.757 2.777l2.874 16.304a55.397 55.397 0 00-23.315 14.848l-13.563-9.496a8 8 0 00-9.176 13.107l13.56 9.495a55.395 55.395 0 00-5.987 26.985l-16.305 2.875a8 8 0 001.38 15.88 8.128 8.128 0 001.398-.123l16.31-2.875a55.95 55.95 0 005.856 12.427A51.967 51.967 0 0076 224h80a76 76 0 000-152zM48.63 111.094c-.01-.057-.012-.113-.022-.17-.01-.063-.03-.122-.042-.184a39.728 39.728 0 016.562-29.554c.035-.048.076-.09.11-.14.04-.054.07-.112.107-.168a39.728 39.728 0 0125.486-16.24c.074-.01.148-.016.222-.029.07-.012.136-.033.205-.046a39.957 39.957 0 0129.174 6.288c.161.133.323.265.497.387.127.09.263.152.393.232a39.788 39.788 0 019.265 9.31 76.448 76.448 0 00-35.55 40.003A52.311 52.311 0 0076 120a51.676 51.676 0 00-22.076 4.933 40.035 40.035 0 01-5.294-13.839z"/></svg>