<svg xmlns="http://www.w3.org/2000/svg" viewBox="0 0 256 256" width="20" height="20"><path fill="none" d="M0 0h256v256H0z"/><path d="M175.995 196a12 12 0 11-12-12 12.014 12.014 0 0112 12zm-100-12a12 12 0 1012 12 12.014 12.014 0 00-12-12zm40 16a12 12 0 1012 12 12.014 12.014 0 00-12-12zm-48 24a12 12 0 1012 12 12.014 12.014 0 00-12-12zm88 0a12 12 0 1012 12 12.014 12.014 0 00-12-12zm0-208A76.13 76.13 0 0085.04 64.766l-.007.017A75.623 75.623 0 0079.995 92a8 8 0 01-16 0 91.687 91.687 0 014.17-27.41A52.001 52.001 0 0075.995 168h80a76 76 0 000-152z"/></svg>