<svg xmlns="http://www.w3.org/2000/svg" viewBox="0 0 256 256" width="20" height="20"><path fill="none" d="M0 0h256v256H0z"/><path d="M160.001 40a88.102 88.102 0 00-78.713 48.67h-.005A87.463 87.463 0 0071.989 128a8 8 0 01-16 0 103.437 103.437 0 017.78-39.453A63.992 63.992 0 0072.001 216h88a88 88 0 000-176zm31.59 111.598a8 8 0 01-11.313 0l-20.284-20.285V192a8 8 0 01-16 0v-60.687l-20.284 20.285a8 8 0 11-11.313-11.314l33.937-33.937a7.957 7.957 0 01.592-.535c.083-.07.172-.128.258-.193.122-.093.243-.188.37-.273.108-.072.22-.134.329-.2.114-.068.225-.14.343-.202.113-.06.23-.112.346-.167.12-.057.24-.117.363-.169.112-.046.226-.083.34-.124.132-.048.264-.099.4-.14.113-.034.227-.058.34-.087.14-.036.277-.074.418-.102.13-.026.261-.04.392-.06.127-.019.253-.043.382-.055.232-.023.465-.033.698-.036.03 0 .06-.004.09-.004s.058.004.088.004c.233.003.466.013.698.036.13.012.255.036.382.055.13.02.262.034.392.06.141.028.279.066.417.102.114.029.229.053.341.087.136.041.268.092.4.14.114.041.228.078.34.124.124.052.243.112.364.17.115.054.232.105.345.166.118.063.23.134.343.202.11.066.221.128.329.2.127.085.248.18.37.273.086.065.175.124.259.193a7.959 7.959 0 01.592.535l33.937 33.937a8 8 0 010 11.314z"/></svg>