<svg xmlns="http://www.w3.org/2000/svg" viewBox="0 0 256 256" width="20" height="20"><path fill="none" d="M0 0h256v256H0z"/><path d="M232 126.8V78.7a15.6 15.6 0 00-2.1-7.9h-.1a15.5 15.5 0 00-6-5.9l-88-49.5a16 16 0 00-15.6 0l-88 49.5a16.2 16.2 0 00-6 5.9.1.1 0 01-.1.1v.2a15 15 0 00-2.1 7.6v98.6a16.1 16.1 0 008.2 14l44 24.7 44 24.8a16.5 16.5 0 007.2 2h1.3a16.1 16.1 0 007.1-2l44-24.8 44-24.7a16.1 16.1 0 008.2-14v-50.5zM83.9 147L40 122.2V87.6l80.9 45.1-.8 89.7L88 204.3v-50.4a7.9 7.9 0 00-4.1-6.9zM79 56.7L124.1 82a7.5 7.5 0 007.8 0L177 56.7 207.7 74l-78.8 44.8L48.4 74zm57.9 76l79.1-45v34.5L172.1 147a7.9 7.9 0 00-4.1 6.9v50.4l-31.9 18z"/></svg>