<svg xmlns="http://www.w3.org/2000/svg" viewBox="0 0 256 256" width="20" height="20"><path fill="none" d="M0 0h256v256H0z"/><path d="M80 56V24a8 8 0 0116 0v32a8 8 0 01-16 0zm40 8a8 8 0 008-8V24a8 8 0 00-16 0v32a8 8 0 008 8zm32 0a8 8 0 008-8V24a8 8 0 00-16 0v32a8 8 0 008 8zm96 56v8a40.046 40.046 0 01-37.508 39.915A96.654 96.654 0 01183.464 208H208a8 8 0 010 16h-51.18c-.037 0-.075.006-.112.006-.028 0-.056-.006-.084-.006H32a8 8 0 010-16h24.536A96.32 96.32 0 0124 136V88a8 8 0 018-8h176a40.045 40.045 0 0140 40zm-16 0a24.038 24.038 0 00-16-22.624V136a95.323 95.323 0 01-1.203 15.014A24.039 24.039 0 00232 128z"/></svg>