<svg xmlns="http://www.w3.org/2000/svg" viewBox="0 0 256 256" width="20" height="20"><path fill="none" d="M0 0h256v256H0z"/><path d="M207.6 63.8C186.8 53.5 159.3 48 128 48s-58.8 5.5-79.6 15.8S16 88.8 16 104v48c0 15.2 11.8 29.9 32.4 40.2S96.7 208 128 208s58.8-5.5 79.6-15.8 32.4-25 32.4-40.2v-48c0-15.2-11.8-29.9-32.4-40.2zM120 159.9v32c-19-.7-35-3.5-48-7.5V153c14.3 4 30.5 6.3 48 6.9zm16 0c17.5-.6 33.7-2.9 48-6.9v31.4c-13 4-29 6.8-48 7.5zM32 152v-18.5a84.5 84.5 0 0016.4 10.7l7.6 3.4V178c-15.8-7.8-24-17.7-24-26zm168 26v-30.4l7.6-3.4a84.5 84.5 0 0016.4-10.7V152c0 8.3-8.2 18.2-24 26z"/></svg>