<svg xmlns="http://www.w3.org/2000/svg" viewBox="0 0 256 256" width="20" height="20"><path fill="none" d="M0 0h256v256H0z"/><path d="M207.578 63.845C186.847 53.479 159.33 48 128 48s-58.847 5.479-79.578 15.845C27.817 74.147 16 88.783 16 104v48c0 15.217 11.817 29.853 32.422 40.155C69.153 202.521 96.67 208 128 208s58.847-5.479 79.578-15.845C228.183 181.853 240 167.217 240 152v-48c0-15.217-11.817-29.853-32.422-40.155zM120 159.863v31.992c-18.985-.622-35.026-3.428-48-7.494v-31.316a203.764 203.764 0 0048 6.818zm16 0a203.764 203.764 0 0048-6.818v31.316c-12.974 4.066-29.015 6.872-48 7.494zM32 152v-18.47a82.61 82.61 0 0016.422 10.625A116.221 116.221 0 0056 147.594v30.433C40.173 170.165 32 160.294 32 152zm168 26.027v-30.433a116.221 116.221 0 007.578-3.439A82.61 82.61 0 00224 133.531V152c0 8.294-8.173 18.165-24 26.027z"/></svg>