<svg xmlns="http://www.w3.org/2000/svg" viewBox="0 0 256 256" width="20" height="20"><path fill="none" d="M0 0h256v256H0z"/><path d="M110.5 51.2a15.7 15.7 0 00-14.7-4.3 16 16 0 00-11.6 10.2L30.3 205.2a16.1 16.1 0 0015 21.4 17.1 17.1 0 005.5-.9l148.1-53.9a16 16 0 0010.2-11.6 15.7 15.7 0 00-4.3-14.7zM63.8 159.8L83 107l66 66-52.8 19.2zM160 72a38.2 38.2 0 013.8-15.6C169.1 45.8 179.1 40 192 40c6.7 0 11-2.3 13.7-7.2a22.3 22.3 0 002.3-8.9 7.9 7.9 0 018-7.9 8 8 0 018 8c0 12.9-8.5 32-32 32-6.7 0-11 2.3-13.7 7.2a22.3 22.3 0 00-2.3 8.9 7.9 7.9 0 01-8 7.9 8 8 0 01-8-8zm-24-32V16a8 8 0 0116 0v24a8 8 0 01-16 0zm101.7 82.3a8.1 8.1 0 010 11.4 8.2 8.2 0 01-11.4 0l-16-16a8.1 8.1 0 0111.4-11.4zm4.8-42.7l-24 8a7.3 7.3 0 01-2.5.4 8 8 0 01-2.5-15.6l24-8a8 8 0 015 15.2z"/></svg>