<svg xmlns="http://www.w3.org/2000/svg" viewBox="0 0 256 256" width="20" height="20"><path fill="none" d="M0 0h256v256H0z"/><path d="M216 48v40a8 8 0 01-4.9 7.4 8.5 8.5 0 01-3.1.6 8.3 8.3 0 01-5.7-2.3l-40-40a8.4 8.4 0 01-1.7-8.8A8 8 0 01168 40h40a8 8 0 018 8zM53.7 162.3a8.4 8.4 0 00-8.8-1.7A8 8 0 0040 168v40a8 8 0 008 8h40a8 8 0 007.4-4.9 8.4 8.4 0 00-1.7-8.8zm157.4-1.7a8.4 8.4 0 00-8.8 1.7l-40 40a8.4 8.4 0 00-1.7 8.8 8 8 0 007.4 4.9h40a8 8 0 008-8v-40a8 8 0 00-4.9-7.4zM88 40H48a8 8 0 00-8 8v40a8 8 0 004.9 7.4 8.5 8.5 0 003.1.6 8.3 8.3 0 005.7-2.3l40-40a8.4 8.4 0 001.7-8.8A8 8 0 0088 40z"/></svg>