<svg xmlns="http://www.w3.org/2000/svg" viewBox="0 0 256 256" width="20" height="20"><path fill="none" d="M0 0h256v256H0z"/><path d="M232 144h-16v-32h16a8 8 0 000-16h-16V56a16 16 0 00-16-16h-40V24a8 8 0 00-16 0v16h-32V24a8 8 0 00-16 0v16H56a16 16 0 00-16 16v40H24a8 8 0 000 16h16v32H24a8 8 0 000 16h16v40a16 16 0 0016 16h40v16a8 8 0 0016 0v-16h32v16a8 8 0 0016 0v-16h40a16 16 0 0016-16v-40h16a8 8 0 000-16zm-68 12a8 8 0 01-8 8h-56a8 8 0 01-8-8v-56a8 8 0 018-8h56a8 8 0 018 8zm-56-48h40v40h-40z"/></svg>