<svg xmlns="http://www.w3.org/2000/svg" viewBox="0 0 256 256" width="20" height="20"><path fill="none" d="M0 0h256v256H0z"/><path d="M236 120h-12.336A96.154 96.154 0 00136 32.336V20a8 8 0 00-16 0v12.336A96.154 96.154 0 0032.336 120H20a8 8 0 000 16h12.336A96.154 96.154 0 00120 223.664V236a8 8 0 0016 0v-12.336A96.154 96.154 0 00223.664 136H236a8 8 0 000-16zm-40 16h11.6a80.142 80.142 0 01-71.6 71.6V196a8 8 0 00-16 0v11.6A80.142 80.142 0 0148.4 136H60a8 8 0 000-16H48.4A80.142 80.142 0 01120 48.4V60a8 8 0 0016 0V48.4a80.142 80.142 0 0171.6 71.6H196a8 8 0 000 16z"/><circle cx="128" cy="128" r="40"/></svg>