<svg xmlns="http://www.w3.org/2000/svg" viewBox="0 0 256 256" width="20" height="20"><path fill="none" d="M0 0h256v256H0z"/><path d="M238.728 73.535a15.904 15.904 0 00-16.706-2.3l-50.584 22.483-29.452-53.015a15.999 15.999 0 00-27.972 0L84.56 93.717 33.969 71.23a16 16 0 00-22.073 18.28L37.34 197.846a15.836 15.836 0 007.408 10.092 16.155 16.155 0 0012.493 1.65 265.897 265.897 0 01141.469-.013 16.153 16.153 0 0012.487-1.651 15.835 15.835 0 007.408-10.084l25.49-108.318a15.905 15.905 0 00-5.368-15.986zm-70.772 88.98a7.99 7.99 0 01-8.793 7.12 298.375 298.375 0 00-62.326 0 8 8 0 01-1.674-15.912 314.358 314.358 0 0165.674 0 8 8 0 017.12 8.793z"/></svg>