<svg xmlns="http://www.w3.org/2000/svg" viewBox="0 0 256 256" width="20" height="20"><path fill="none" d="M0 0h256v256H0z"/><path d="M229.922 70.812c-.025-.045-.043-.092-.069-.137-.011-.02-.024-.037-.036-.056a15.989 15.989 0 00-5.973-5.886l-88-49.5a16.093 16.093 0 00-15.688 0l-88 49.5a15.99 15.99 0 00-5.988 5.913c-.016.027-.034.051-.049.078-.024.044-.042.09-.065.133A15.983 15.983 0 0024 78.679v98.642a16.02 16.02 0 008.156 13.946l88 49.5a15.971 15.971 0 007.245 2.022c.179.013.357.03.539.032h.072c.251 0 .499-.014.744-.037a15.971 15.971 0 007.088-2.017l88-49.5A16.02 16.02 0 00232 177.32V78.68a15.986 15.986 0 00-2.078-7.867zM128.91 118.821L48.38 73.966 128 29.179l79.744 44.856zm87.09 58.5l-79.879 44.932.787-89.574L216 87.746z"/></svg>