<svg xmlns="http://www.w3.org/2000/svg" viewBox="0 0 256 256" width="20" height="20"><path fill="none" d="M0 0h256v256H0z"/><path d="M240 128h-22.115l21.527-52.99a8 8 0 00-14.824-6.02L200.615 128h-41.23l-23.973-59.01a8 8 0 00-14.824 0L96.615 128h-41.23L31.412 68.99a8 8 0 00-14.824 6.02L38.115 128H16a8 8 0 000 16h28.615l23.973 59.01a8 8 0 0014.824 0L107.385 144h41.23l23.973 59.01a8 8 0 0014.824 0L211.385 144H240a8 8 0 000-16zM76 178.745L61.885 144h28.23zM113.885 128L128 93.255 142.115 128zM180 178.745L165.885 144h28.23z"/></svg>