<svg xmlns="http://www.w3.org/2000/svg" viewBox="0 0 256 256" width="20" height="20"><path fill="none" d="M0 0h256v256H0z"/><path d="M170.483 115.701A43.973 43.973 0 00144 40.19V24a8 8 0 00-16 0v15.999l-16-.001V24a8 8 0 00-16 0v15.997l-16.005-.002h-16a8 8 0 000 16h8v136h-8a8 8 0 000 16h15.998l16.007.001V224a8 8 0 0016 0v-16.003l16 .002V224a8 8 0 0016 0v-16h8a48 48 0 0018.483-92.299zM168 84a28.031 28.031 0 01-28 28H87.994V55.996l15.952.001L104 56l.054-.003 31.94.003H140a28.031 28.031 0 0128 28zm-15.999 108l-64.007-.004V128H152a32 32 0 01.001 64z"/></svg>