<svg xmlns="http://www.w3.org/2000/svg" viewBox="0 0 256 256" width="20" height="20"><path fill="none" d="M0 0h256v256H0z"/><path d="M128 24c-53.832 0-96 24.598-96 56v96c0 31.402 42.168 56 96 56s96-24.598 96-56V80c0-31.402-42.168-56-96-56zm80 104c0 9.617-7.875 19.429-21.605 26.918C170.928 163.354 150.19 168 128 168s-42.928-4.646-58.395-13.082C55.875 147.428 48 137.618 48 128v-16.644C65.06 126.321 94.234 136 128 136s62.94-9.68 80-24.644zm-21.605 74.918C170.928 211.354 150.19 216 128 216s-42.928-4.646-58.395-13.082C55.875 195.428 48 185.618 48 176v-16.644C65.06 174.321 94.234 184 128 184s62.94-9.68 80-24.644V176c0 9.617-7.875 19.429-21.605 26.918z"/></svg>