<svg xmlns="http://www.w3.org/2000/svg" viewBox="0 0 256 256" width="20" height="20"><path fill="none" d="M0 0h256v256H0z"/><path d="M128 24c-53.8 0-96 24.6-96 56v96c0 31.4 42.2 56 96 56s96-24.6 96-56V80c0-31.4-42.2-56-96-56zm80 104c0 9.6-7.9 19.4-21.6 26.9-15.5 8.5-36.2 13.1-58.4 13.1s-42.9-4.6-58.4-13.1C55.9 147.4 48 137.6 48 128v-16.6c17.1 14.9 46.2 24.6 80 24.6s62.9-9.7 80-24.6zm-21.6 74.9c-15.5 8.5-36.2 13.1-58.4 13.1s-42.9-4.6-58.4-13.1C55.9 195.4 48 185.6 48 176v-16.6c17.1 14.9 46.2 24.6 80 24.6s62.9-9.7 80-24.6V176c0 9.6-7.9 19.4-21.6 26.9z"/></svg>