<svg xmlns="http://www.w3.org/2000/svg" viewBox="0 0 256 256" width="20" height="20"><path fill="none" d="M0 0h256v256H0z"/><path d="M88 75.3a16.1 16.1 0 010-22.6L116.7 24a15.9 15.9 0 0122.6 0L168 52.7a16.1 16.1 0 010 22.6L139.3 104a15.9 15.9 0 01-22.6 0zm144 41.4L203.3 88a15.9 15.9 0 00-22.6 0L152 116.7a16.1 16.1 0 000 22.6l28.7 28.7a15.9 15.9 0 0022.6 0l28.7-28.7a16.1 16.1 0 000-22.6zm-128 0L75.3 88a15.9 15.9 0 00-22.6 0L24 116.7a16.1 16.1 0 000 22.6L52.7 168a15.9 15.9 0 0022.6 0l28.7-28.7a16.1 16.1 0 000-22.6zm35.3 35.3a15.9 15.9 0 00-22.6 0L88 180.7a16.1 16.1 0 000 22.6l28.7 28.7a15.9 15.9 0 0022.6 0l28.7-28.7a16.1 16.1 0 000-22.6z"/></svg>