<svg xmlns="http://www.w3.org/2000/svg" viewBox="0 0 256 256" width="20" height="20"><path fill="none" d="M0 0h256v256H0z"/><path d="M247.295 169.809L213.32 56.563a15.953 15.953 0 00-9.237-10.206l-.538.164.55-.192a185.844 185.844 0 00-34.535-10.307 8 8 0 10-3.12 15.693q6.726 1.337 13.184 3.147a7.978 7.978 0 01-4.46 15.077 188.853 188.853 0 00-93.261-.183 7.995 7.995 0 01-5.566-14.873l.034.012q6.454-1.808 13.2-3.152a8 8 0 00-3.12-15.694 185.885 185.885 0 00-34.535 10.307 15.958 15.958 0 00-9.238 10.206L8.705 169.809a16.09 16.09 0 004.887 16.726c.954.83 1.933 1.645 2.925 2.452.024.019.044.04.067.06 16.23 13.166 37.503 23.225 61.519 29.087a8 8 0 003.794-15.543 160.727 160.727 0 01-31.337-11.067l.065.005a7.997 7.997 0 018.6-13.242C78.21 186.744 102.063 192 128 192s49.807-5.263 68.792-13.72a7.997 7.997 0 018.583 13.25l.065-.006a160.727 160.727 0 01-31.337 11.067 8 8 0 103.794 15.543c24.016-5.862 45.289-15.921 61.519-29.087.024-.02.045-.042.069-.062.992-.806 1.97-1.621 2.924-2.45a16.09 16.09 0 004.886-16.726zM96 156a12 12 0 1112-12 12 12 0 01-12 12zm64 0a12 12 0 1112-12 12 12 0 01-12 12z"/></svg>