<svg xmlns="http://www.w3.org/2000/svg" viewBox="0 0 256 256" width="20" height="20"><path fill="none" d="M0 0h256v256H0z"/><path d="M60 48a12 12 0 1012 12 12.014 12.014 0 00-12-12zm68 0a12 12 0 1012 12 12.014 12.014 0 00-12-12zm68 24a12 12 0 10-12-12 12.014 12.014 0 0012 12zM60 184a12 12 0 1012 12 12.014 12.014 0 00-12-12zm68 0a12 12 0 1012 12 12.014 12.014 0 00-12-12zm68 0a12 12 0 1012 12 12.014 12.014 0 00-12-12zM60 116a12 12 0 1012 12 12.014 12.014 0 00-12-12zm68 0a12 12 0 1012 12 12.014 12.014 0 00-12-12zm68 0a12 12 0 1012 12 12.014 12.014 0 00-12-12z"/></svg>