<svg xmlns="http://www.w3.org/2000/svg" viewBox="0 0 256 256" width="20" height="20"><path fill="none" d="M0 0h256v256H0z"/><path d="M122.343 133.657c.026.026.055.048.081.073.162.158.329.312.504.456.097.08.2.15.301.225.109.081.215.165.328.24.116.079.237.146.357.218.105.062.207.128.315.185.12.065.244.12.366.177.114.054.227.11.343.16.119.048.24.088.36.131.126.045.25.094.38.133.12.036.241.063.362.093.132.033.263.07.397.097.14.028.28.044.42.064.119.017.234.04.353.051a8.05 8.05 0 001.58 0c.119-.012.234-.034.353-.05.14-.02.28-.037.42-.065.134-.027.265-.064.397-.097.121-.03.243-.057.362-.093.13-.04.254-.088.38-.133.12-.043.241-.083.36-.131.116-.05.229-.106.343-.16.122-.058.246-.112.366-.177.108-.057.21-.123.315-.185.12-.072.24-.139.357-.217.113-.076.22-.16.328-.24.1-.076.204-.146.301-.226.178-.147.348-.303.513-.464.023-.023.049-.042.072-.065l48-48a8 8 0 10-11.314-11.314L136 108.687V24a8 8 0 00-16 0v84.687L85.657 74.343a8 8 0 00-11.314 11.314z"/><path d="M224 120h-54.059l-24.97 24.97a24 24 0 01-33.942 0L86.06 120H32a16.018 16.018 0 00-16 16v64a16.018 16.018 0 0016 16h192a16.018 16.018 0 0016-16v-64a16.018 16.018 0 00-16-16zm-36 60a12 12 0 1112-12 12 12 0 01-12 12z"/></svg>