<svg xmlns="http://www.w3.org/2000/svg" viewBox="0 0 256 256" width="20" height="20"><path fill="none" d="M0 0h256v256H0z"/><path d="M86.261 32.744A103.858 103.858 0 01186.41 42a153.224 153.224 0 01-44.543 40.484 169.261 169.261 0 00-55.605-49.74zm41.316 57.29a152.978 152.978 0 00-58.115-47.935 104.382 104.382 0 00-41.543 57.56A151.81 151.81 0 0064 104a151.049 151.049 0 0063.577-13.965zm104.22 31.657a103.765 103.765 0 00-32.889-69.689 169.341 169.341 0 01-48.394 43.941 167.294 167.294 0 0113.542 29.898 168.14 168.14 0 0167.742-4.15zm-63.33 19.532a167.821 167.821 0 014.45 38.47 168.652 168.652 0 01-6.084 44.778 104.242 104.242 0 0064.682-86.652 152.389 152.389 0 00-63.047 3.404zm-19.64-10.455a151.4 151.4 0 00-12.391-27.205A166.974 166.974 0 0164 119.998a167.828 167.828 0 01-39.236-4.638 103.89 103.89 0 0035.958 91.883 168.965 168.965 0 0188.105-76.475zM73.784 216.72a103.934 103.934 0 0074.584 13.27 152.666 152.666 0 008.549-50.298 151.825 151.825 0 00-3.733-33.463 152.892 152.892 0 00-79.4 70.491z"/></svg>