<svg xmlns="http://www.w3.org/2000/svg" viewBox="0 0 256 256" width="20" height="20"><path fill="none" d="M0 0h256v256H0z"/><path d="M213.9 210.6a7.9 7.9 0 01-.5 11.3 8.2 8.2 0 01-5.4 2.1 8 8 0 01-5.9-2.6l-37.9-41.7a29.7 29.7 0 01-4.2.3 28.1 28.1 0 01-28-28 31.1 31.1 0 01.7-6.9L96 104.7a8 8 0 01-16-.7 50.4 50.4 0 012.2-14.5L64.5 70a71.4 71.4 0 00-8.5 34c0 26.7 8.5 34.9 17.6 43.6S92 165.4 92 188a36 36 0 0063.8 22.9 7.9 7.9 0 0111.2-1.1 8.1 8.1 0 011.1 11.3A52 52 0 0176 188c0-15.8-5.7-21.3-13.5-28.8-10-9.7-22.5-21.7-22.5-55.2a87.8 87.8 0 0113.2-46.4L42.1 45.4a8 8 0 0111.8-10.8l15.3 16.9h.1l28 30.8 75.4 83zM91.1 42.2A72 72 0 01200 104a8 8 0 0016 0A88 88 0 0082.9 28.4a8 8 0 00-2.8 11 8.1 8.1 0 0011 2.8zm67.2 83.2a7.7 7.7 0 004.8 1.6 8 8 0 006.4-3.2A31.6 31.6 0 00176 104a48 48 0 00-48-48 48.6 48.6 0 00-15.6 2.6 8 8 0 005.2 15.1A32.9 32.9 0 01128 72a32.1 32.1 0 0132 32 16 16 0 01-3.3 10.2 7.9 7.9 0 001.6 11.2z"/></svg>