<svg xmlns="http://www.w3.org/2000/svg" viewBox="0 0 256 256" width="20" height="20"><path fill="none" d="M0 0h256v256H0z"/><path d="M231.991 55.81q-.005-.223-.022-.444-.014-.18-.036-.358a7.862 7.862 0 00-.236-1.17 7.792 7.792 0 00-.393-1.093 7.973 7.973 0 00-.173-.36 7.73 7.73 0 00-1.106-1.637c-.044-.05-.081-.104-.127-.154-.038-.042-.08-.077-.12-.118a8.274 8.274 0 00-.298-.295 7.998 7.998 0 00-.287-.26 7.907 7.907 0 00-.295-.237 7.734 7.734 0 00-.331-.248c-.098-.068-.199-.131-.3-.195-.119-.075-.237-.15-.359-.219-.107-.06-.217-.113-.327-.168-.12-.06-.238-.12-.36-.174-.121-.054-.246-.1-.37-.148-.115-.044-.23-.088-.347-.127a7.784 7.784 0 00-.405-.117c-.114-.031-.228-.063-.343-.089a8.165 8.165 0 00-.412-.077 8.2 8.2 0 00-.367-.057 7.872 7.872 0 00-.396-.036 7.997 7.997 0 00-.404-.02c-.06-.001-.117-.009-.176-.009H32c-.055 0-.108.007-.162.008-.146.003-.29.011-.435.022a7.829 7.829 0 00-.368.034 8.038 8.038 0 00-.396.06 8.338 8.338 0 00-.385.073c-.124.028-.246.061-.37.095-.127.035-.255.07-.38.11-.125.041-.246.088-.368.135-.118.046-.236.09-.35.14-.128.056-.252.119-.377.182-.105.052-.21.104-.312.162-.126.07-.248.147-.37.224-.098.062-.196.123-.29.19a7.56 7.56 0 00-.337.251 7.5 7.5 0 00-.291.234 7.875 7.875 0 00-.289.263c-.102.095-.2.192-.297.293-.04.04-.082.076-.12.118-.046.05-.084.103-.128.154a8.386 8.386 0 00-.497.63 7.65 7.65 0 00-.224.333 7.668 7.668 0 00-.703 1.387 7.4 7.4 0 00-.347 1.127 8.297 8.297 0 00-.136.783q-.022.178-.036.358-.017.222-.022.443c-.002.064-.01.127-.01.191v136a16.018 16.018 0 0016 16h176a16.018 16.018 0 0016-16V56c0-.064-.008-.127-.01-.19zM216.001 192h-176V74.187l82.594 75.71a8.002 8.002 0 0010.812 0l82.595-75.712.009 117.815z"/></svg>