<svg xmlns="http://www.w3.org/2000/svg" viewBox="0 0 256 256" width="20" height="20"><path fill="none" d="M0 0h256v256H0z"/><path d="M231.99 55.81q-.005-.223-.022-.444-.014-.18-.036-.358a7.912 7.912 0 00-.236-1.17 8.248 8.248 0 00-.11-.367 7.967 7.967 0 00-.138-.374 7.8 7.8 0 00-.144-.351 8.475 8.475 0 00-.782-1.367 8.083 8.083 0 00-.497-.63c-.044-.051-.082-.105-.128-.155-.038-.042-.08-.077-.12-.118a7.865 7.865 0 00-.298-.294 8.238 8.238 0 00-.287-.261 8.186 8.186 0 00-.295-.237 7.734 7.734 0 00-.331-.248c-.098-.068-.199-.131-.3-.195-.119-.075-.237-.15-.36-.218-.106-.06-.215-.114-.324-.169-.12-.06-.24-.12-.363-.175-.12-.052-.242-.098-.365-.145-.118-.045-.235-.09-.354-.13-.13-.043-.262-.078-.394-.114a7.4 7.4 0 00-.355-.092 7.97 7.97 0 00-.4-.075 7.975 7.975 0 00-.38-.058 7.846 7.846 0 00-.383-.035 8.373 8.373 0 00-.42-.021c-.056-.002-.11-.009-.168-.009H32c-.054 0-.105.007-.16.008a8.093 8.093 0 00-.441.022c-.122.01-.242.02-.362.033a7.76 7.76 0 00-.401.062c-.128.022-.255.043-.38.072-.126.028-.25.062-.375.096-.126.035-.252.069-.376.11-.125.04-.248.088-.371.135-.117.045-.234.089-.348.139-.128.056-.252.119-.377.182-.105.053-.21.104-.312.161a7.94 7.94 0 00-.37.225c-.097.062-.196.123-.29.19a7.333 7.333 0 00-.337.25 7.66 7.66 0 00-.29.235 8.085 8.085 0 00-.29.263 8.18 8.18 0 00-.297.292c-.039.041-.082.077-.12.12-.046.05-.084.103-.128.153a8.382 8.382 0 00-.497.63 8.017 8.017 0 00-1.41 3.63q-.022.178-.036.358-.017.222-.022.443c-.002.064-.01.127-.01.191v136a16.018 16.018 0 0016 16h176a16.018 16.018 0 0016-16V56c0-.064-.008-.127-.01-.19zM40 74.185L98.706 128 40 181.814zM52.567 192l57.979-53.147 12.048 11.044a8.001 8.001 0 0010.812 0l12.049-11.044L203.433 192zm104.727-64l58.708-53.815.007 107.637z"/></svg>