<svg xmlns="http://www.w3.org/2000/svg" viewBox="0 0 256 256" width="20" height="20"><path fill="none" d="M0 0h256v256H0z"/><path d="M231.995 95.923a7.926 7.926 0 00-.226-1.814c-.017-.07-.038-.137-.056-.206q-.092-.336-.213-.666c-.03-.081-.06-.162-.093-.242a8.245 8.245 0 00-.278-.606c-.04-.077-.076-.156-.118-.233a7.958 7.958 0 00-.393-.637c-.031-.046-.057-.095-.09-.14l-.014-.024a8.193 8.193 0 00-.555-.69c-.043-.048-.091-.092-.136-.139a8.068 8.068 0 00-.523-.512c-.061-.053-.124-.104-.187-.156q-.277-.231-.569-.434c-.037-.025-.07-.055-.107-.08l-96-64a8.001 8.001 0 00-8.875 0l-96 64c-.036.024-.066.053-.102.077q-.297.205-.576.439c-.061.05-.123.1-.182.153a7.854 7.854 0 00-.528.516c-.044.046-.09.09-.132.136a8.114 8.114 0 00-.556.69l-.014.023c-.033.046-.059.095-.09.141-.142.209-.274.42-.393.637-.042.077-.078.155-.118.233a8.23 8.23 0 00-.371.848q-.122.33-.213.666c-.018.069-.04.137-.056.206a7.926 7.926 0 00-.226 1.814c0 .026-.005.051-.005.077v104a16.018 16.018 0 0016 16h176a16.018 16.018 0 0016-16V96c0-.026-.004-.05-.005-.077zM40 111.53l56.723 40.44L40 192.038zM113.086 160h29.828l56.629 40H56.458zm46.191-8.03L216 111.529v80.507z"/></svg>