<svg xmlns="http://www.w3.org/2000/svg" viewBox="0 0 256 256" width="20" height="20"><path fill="none" d="M0 0h256v256H0z"/><path d="M231.995 95.923a7.928 7.928 0 00-.226-1.815c-.017-.068-.038-.136-.056-.205q-.092-.336-.213-.666a8.245 8.245 0 00-.372-.848c-.039-.078-.075-.156-.117-.232a7.883 7.883 0 00-.393-.638c-.031-.046-.057-.095-.09-.14l-.014-.024a8.187 8.187 0 00-.555-.69c-.043-.048-.091-.092-.136-.139a7.94 7.94 0 00-.523-.511c-.061-.055-.124-.105-.187-.158q-.277-.23-.569-.433c-.037-.025-.07-.055-.107-.08l-96-64a8.001 8.001 0 00-8.875 0l-96 64c-.036.024-.066.053-.102.077q-.297.205-.576.439c-.061.05-.123.1-.182.153a7.747 7.747 0 00-.528.516c-.044.046-.09.09-.132.136a8.114 8.114 0 00-.556.69l-.014.023c-.033.046-.059.095-.09.141-.142.209-.274.42-.393.638-.042.076-.078.155-.118.232a8.23 8.23 0 00-.371.848q-.122.33-.213.666c-.018.069-.04.137-.056.205a7.928 7.928 0 00-.226 1.815c0 .026-.005.051-.005.077v104a16.018 16.018 0 0016 16h176a16.018 16.018 0 0016-16V96c0-.026-.004-.05-.005-.077zM40 200v-88.471l65.901 46.985a8.001 8.001 0 004.645 1.486h34.908a8.001 8.001 0 004.645-1.486L216 111.529V200z"/></svg>