<svg xmlns="http://www.w3.org/2000/svg" viewBox="0 0 256 256" width="20" height="20"><path fill="none" d="M0 0h256v256H0z"/><path d="M84 96a8 8 0 01-8 8H36a8 8 0 010-16h40a8 8 0 018 8zm-8 24H36a8 8 0 000 16h40a8 8 0 000-16zm0 32H36a8 8 0 000 16h40a8 8 0 000-16zm0 32H36a8 8 0 000 16h40a8 8 0 000-16zm72-64h-40a8 8 0 000 16h40a8 8 0 000-16zm0 32h-40a8 8 0 000 16h40a8 8 0 000-16zm0 32h-40a8 8 0 000 16h40a8 8 0 000-16zm72-96h-40a8 8 0 000 16h40a8 8 0 000-16zm-40-16h40a8 8 0 000-16h-40a8 8 0 000 16zm40 48h-40a8 8 0 000 16h40a8 8 0 000-16zm0 32h-40a8 8 0 000 16h40a8 8 0 000-16zm0 32h-40a8 8 0 000 16h40a8 8 0 000-16z"/></svg>