<svg xmlns="http://www.w3.org/2000/svg" viewBox="0 0 256.001 256" width="20" height="20"><path fill="none" d="M0 0h256v256H0z"/><path d="M216.001 207.833h-85.657l34.73-34.73.016-.014.014-.017 56.554-56.552a24.03 24.03 0 000-33.942l-45.255-45.255a24 24 0 00-33.941 0l-56.56 56.56-.01.009-.009.01-56.559 56.559a24 24 0 000 33.941l37.09 37.088a8.002 8.002 0 005.656 2.343h143.931a8 8 0 000-16zM153.776 48.638a7.997 7.997 0 0111.313 0l45.255 45.255a8.009 8.009 0 010 11.313l-50.911 50.911-56.568-56.568z"/></svg>