<svg xmlns="http://www.w3.org/2000/svg" viewBox="0 0 256 256" width="20" height="20"><path fill="none" d="M0 0h256v256H0z"/><path d="M211.501 129.235a147.79 147.79 0 0018.722-19.333 8 8 0 00-12.446-10.054 128.725 128.725 0 01-21.284 20.954c-.054.038-.103.08-.156.12A109.59 109.59 0 01128 144a109.59 109.59 0 01-68.352-23.089c-.06-.046-.118-.096-.18-.14a128.706 128.706 0 01-21.246-20.923 8 8 0 10-12.446 10.054 147.761 147.761 0 0018.682 19.299l-19.497 33.77a8 8 0 1013.855 8l18.49-32.026a123.58 123.58 0 0035.245 16.282l-5.815 32.978a8.001 8.001 0 006.49 9.268 8.12 8.12 0 001.399.122 8.003 8.003 0 007.87-6.613l5.716-32.427a136.26 136.26 0 0039.488.014l5.718 32.427a8.003 8.003 0 007.87 6.611 8.131 8.131 0 001.399-.122 8.002 8.002 0 006.489-9.268l-5.813-32.965a123.56 123.56 0 0035.288-16.278l18.382 31.838a8 8 0 0013.856-8z"/></svg>