<svg xmlns="http://www.w3.org/2000/svg" viewBox="0 0 256 256" width="20" height="20"><path fill="none" d="M0 0h256v256H0z"/><path d="M247.31 124.758c-.351-.79-8.819-19.575-27.653-38.41C194.573 61.26 162.877 48 128 48a133.97 133.97 0 00-21.995 1.793 8 8 0 00-4.603 13.272l101.291 111.42a8.001 8.001 0 0011.258.577c22.813-20.433 32.94-42.86 33.36-43.806a8.003 8.003 0 000-6.498zM53.92 34.618A8 8 0 1042.08 45.38l19.241 21.165C25.001 88.837 9.385 123.194 8.69 124.758a8.003 8.003 0 000 6.498c.352.791 8.82 19.573 27.655 38.405C61.428 194.74 93.122 208 128 208a126.97 126.97 0 0052.066-10.834l22.014 24.215a8 8 0 0011.84-10.763zM128 164a35.986 35.986 0 01-29.523-56.582l47.204 51.925A35.78 35.78 0 01128 164z"/></svg>