<svg xmlns="http://www.w3.org/2000/svg" viewBox="0 0 256 256" width="20" height="20"><path fill="none" d="M0 0h256v256H0z"/><path d="M247.3 124.8c-.3-.8-8.8-19.6-27.6-38.5C194.6 61.3 162.9 48 128 48a132.4 132.4 0 00-22 1.8 8.1 8.1 0 00-4.6 13.3l101.3 111.4a8 8 0 005.9 2.6 8.6 8.6 0 005.4-2c22.8-20.5 32.9-42.9 33.3-43.8a8.2 8.2 0 000-6.5zM53.9 34.6a8 8 0 00-11.8 10.8l19.2 21.1C25 88.8 9.4 123.2 8.7 124.8a8.2 8.2 0 000 6.5c.3.7 8.8 19.5 27.6 38.4 25.1 25 56.8 38.3 91.7 38.3a126.9 126.9 0 0052.1-10.8l22 24.2a8 8 0 005.9 2.6 8.2 8.2 0 005.4-2.1 7.9 7.9 0 00.5-11.3zM128 164a36 36 0 01-29.5-56.6l47.2 51.9A35.4 35.4 0 01128 164z"/></svg>