<svg xmlns="http://www.w3.org/2000/svg" viewBox="0 0 256 256" width="20" height="20"><path fill="none" d="M0 0h256v256H0z"/><path d="M247.31 124.75c-.351-.79-8.819-19.576-27.653-38.41-25.084-25.087-56.78-38.348-91.657-38.348s-66.573 13.26-91.657 38.347C17.509 105.174 9.04 123.961 8.689 124.751a8.003 8.003 0 000 6.498c.352.79 8.82 19.572 27.655 38.404 25.084 25.081 56.778 38.339 91.656 38.339s66.572-13.258 91.656-38.339c18.834-18.832 27.303-37.613 27.655-38.404a8.003 8.003 0 000-6.498zM128 92a36 36 0 11-36 36 36.04 36.04 0 0136-36z"/></svg>