<svg xmlns="http://www.w3.org/2000/svg" viewBox="0 0 256 256" width="20" height="20"><path fill="none" d="M0 0h256v256H0z"/><path d="M223.997 67.504a35.736 35.736 0 00-11.262-25.661c-14.018-13.27-36.719-12.771-50.603 1.113l-21.948 21.949a24.03 24.03 0 00-33.154.752l-7.03 7.03a16.018 16.018 0 000 22.627l2.06 2.059-50.345 50.343a40.156 40.156 0 00-11.01 35.77l-9.783 22.41a13.663 13.663 0 002.877 15.217 15.915 15.915 0 0011.28 4.703 16.077 16.077 0 006.435-1.353l21-9.168a40.154 40.154 0 0035.77-11.01l50.343-50.344 2.06 2.059a16.018 16.018 0 0022.627 0l7.03-7.03a24.028 24.028 0 00.751-33.154l22.36-22.36a35.717 35.717 0 0010.542-25.952zM96.97 192.97a24.096 24.096 0 01-23.192 6.214 8.005 8.005 0 00-5.264.398l-21.471 9.373 9.374-21.471a8.002 8.002 0 00.397-5.264 24.099 24.099 0 016.214-23.192l50.344-50.343 33.941 33.941z"/></svg>