<svg xmlns="http://www.w3.org/2000/svg" viewBox="0 0 256 256" width="20" height="20"><path fill="none" d="M0 0h256v256H0z"/><path d="M224 67.5a35.5 35.5 0 00-11.3-25.7c-14-13.2-36.7-12.7-50.6 1.2l-21.9 21.9a24.1 24.1 0 00-33.2.8l-7 7a16.1 16.1 0 000 22.6l2.1 2.1-50.4 50.3a40.3 40.3 0 00-11 35.8l-9.8 22.4a13.6 13.6 0 002.9 15.2 15.8 15.8 0 0011.3 4.7 16.3 16.3 0 006.4-1.3l21-9.2a40.3 40.3 0 0035.8-11l50.3-50.4 2.1 2.1a15.9 15.9 0 0022.6 0l7-7a24.1 24.1 0 00.8-33.2l22.4-22.3a36.2 36.2 0 0010.5-26zM137.9 152H70.1l43.3-43.3 33.9 33.9zm64.2-69.9l-28 28a8.1 8.1 0 000 11.4l4.9 4.8a8.1 8.1 0 010 11.4l-7 7L111.3 84l7-7a8 8 0 0111.4 0l4.8 4.9a8.1 8.1 0 0011.4 0l27.5-27.6c7.9-7.8 20.6-8.2 28.3-.8a19.7 19.7 0 016.3 14.2 19.4 19.4 0 01-5.9 14.4z"/></svg>