<svg xmlns="http://www.w3.org/2000/svg" viewBox="0 0 256 256" width="20" height="20"><path fill="none" d="M0 0h256v256H0z"/><path d="M224 72h-1a16 16 0 00-9.5-9.4l-80-29.1a16 16 0 00-11 0l-80 29.1A16 16 0 0033 72h-1a32.1 32.1 0 00-32 32v24a32.1 32.1 0 0032 32h5.2c6.6 14.4 19.3 27 37.6 37.2 21.1 11.7 43.6 17 49.9 18.3l3.3.3 3.3-.3c6.3-1.3 28.8-6.6 49.9-18.3 18.3-10.2 31-22.8 37.6-37.2h5.2a32.1 32.1 0 0032-32v-24a32.1 32.1 0 00-32-32zM32 144a16 16 0 01-16-16v-24a16 16 0 0116-16v48a52.9 52.9 0 00.6 8zm136 8H88a8 8 0 010-16h80a8 8 0 010 16zm0-32H88a8 8 0 010-16h80a8 8 0 010 16zm72 8a16 16 0 01-16 16h-.6a52.9 52.9 0 00.6-8V88a16 16 0 0116 16z"/></svg>