<svg xmlns="http://www.w3.org/2000/svg" viewBox="0 0 256 256" width="20" height="20"><path fill="none" d="M0 0h256v256H0z"/><path d="M224 72h-1.031a16.04 16.04 0 00-9.501-9.433l-80-29.091a16.025 16.025 0 00-10.936 0l-80 29.09a16.04 16.04 0 00-9.5 9.434H32a32.036 32.036 0 00-32 32v24a32.036 32.036 0 0032 32h5.197c6.56 14.38 19.255 26.999 37.632 37.208 21.022 11.678 43.525 16.96 49.92 18.3a15.724 15.724 0 006.502 0c6.395-1.34 28.898-6.622 49.92-18.3 18.377-10.21 31.071-22.827 37.632-37.208H224a32.036 32.036 0 0032-32v-24a32.036 32.036 0 00-32-32zM32 144a16.018 16.018 0 01-16-16v-24a16.018 16.018 0 0116-16v48a58.67 58.67 0 00.553 8zm136 8H88a8 8 0 010-16h80a8 8 0 010 16zm0-32H88a8 8 0 010-16h80a8 8 0 010 16zm72 8a16.018 16.018 0 01-16 16h-.553a58.67 58.67 0 00.553-8V88a16.018 16.018 0 0116 16z"/></svg>