<svg xmlns="http://www.w3.org/2000/svg" viewBox="0 0 256.001 256.001" width="20" height="20"><path fill="none" d="M0 0h256v256H0z"/><path d="M128.001 112a8 8 0 00-8 8v96a8 8 0 0016 0v-96a8 8 0 00-8-8zm72 80a8 8 0 00-8 8l.001 16a8 8 0 0016 0l-.001-16a8 8 0 00-8-8zm24-32h-16l.001-120a8 8 0 10-16 0l-.001 120h-16a8 8 0 000 16h48a8 8 0 000-16zm-168 0a8 8 0 00-8 8v48a8 8 0 0016 0v-48a8 8 0 00-8-8zm24-32h-16V40a8 8 0 00-16 0v88h-16a8 8 0 000 16h48a8 8 0 100-16zm72-48h-16V40a8 8 0 10-16 0v40h-16a8 8 0 000 16h48a8 8 0 000-16z"/></svg>