<svg xmlns="http://www.w3.org/2000/svg" viewBox="0 0 256 256" width="20" height="20"><path fill="none" d="M0 0h256v256H0z"/><path d="M213.59 82.275l-55.933-55.932c-.08-.08-.167-.15-.25-.227-.108-.099-.213-.201-.326-.295-.075-.061-.156-.115-.233-.174-.13-.1-.26-.202-.397-.294-.062-.041-.128-.076-.19-.116a8.13 8.13 0 00-.484-.289c-.045-.024-.091-.042-.136-.065a7.782 7.782 0 00-.573-.271c-.03-.013-.063-.022-.093-.034a7.845 7.845 0 00-.643-.23c-.032-.01-.064-.016-.096-.025a7.953 7.953 0 00-.66-.166c-.072-.014-.146-.02-.218-.033-.185-.032-.37-.065-.559-.083A7.913 7.913 0 00152 24H55.992a16.018 16.018 0 00-16 16v176a16.018 16.018 0 0016 16H200a16.018 16.018 0 0016-16V88.155c.001-.052.008-.103.008-.155a7.971 7.971 0 00-2.419-5.725zm-51.933 79.382l-28 28c-.023.023-.05.042-.072.065a8.352 8.352 0 01-.513.464c-.097.08-.2.15-.301.225-.109.081-.215.165-.328.24-.116.079-.237.146-.357.218-.105.062-.207.128-.315.185-.12.065-.244.12-.366.177-.114.054-.227.111-.343.16-.119.049-.24.088-.36.13-.126.046-.25.095-.38.134-.12.036-.24.063-.362.093-.132.033-.263.07-.397.097-.14.028-.28.044-.42.064-.119.017-.234.04-.353.051a8.065 8.065 0 01-1.58 0c-.119-.012-.234-.034-.353-.05-.14-.021-.28-.037-.42-.065-.134-.027-.265-.064-.397-.097-.121-.03-.243-.057-.362-.093-.13-.04-.254-.088-.38-.133-.12-.043-.241-.082-.36-.131-.116-.049-.229-.106-.343-.16-.122-.058-.246-.112-.366-.177-.108-.057-.21-.123-.315-.185-.12-.072-.24-.14-.357-.217-.113-.076-.22-.16-.328-.241-.1-.075-.204-.145-.301-.225a8.1 8.1 0 01-.504-.455c-.026-.026-.055-.048-.08-.074l-28-28a8 8 0 0111.313-11.314L120 164.687V120a8 8 0 0116 0v44.687l14.343-14.344a8 8 0 0111.314 11.314zM152 88V43.313L196.686 88z"/></svg>