<svg xmlns="http://www.w3.org/2000/svg" viewBox="0 0 256 256" width="20" height="20"><path fill="none" d="M0 0h256v256H0z"/><path d="M80.1 201.8A24 24 0 0064 160H48a8 8 0 00-8 8v48a8 8 0 0016 0v-8h9l8.3 12.4A7.9 7.9 0 0080 224a7.8 7.8 0 004.4-1.3 8 8 0 002.2-11.1zM64 192h-8v-16h8a8 8 0 010 16zm88 12c0 13.1-9.3 21-25 21a33.4 33.4 0 01-20.1-6.8 7.6 7.6 0 01-2.9-6.2 8 8 0 018-8 8.3 8.3 0 015.1 1.8h-.1a18.4 18.4 0 0010 3.2c9 0 9-3 9-5s0-.9-1.2-1.6-5.8-2.2-9.2-3.1C117 197 104 193.5 104 180s9.5-21 23-21a33.4 33.4 0 0120.1 6.8 7.6 7.6 0 012.9 6.2 8 8 0 01-8 8 8.3 8.3 0 01-5.1-1.8h.1a18.4 18.4 0 00-10-3.2c-4.6 0-7 1.7-7 5v.2c1.1 1.3 6.6 2.8 9.7 3.6C138 186 152 189.7 152 204zm61.7-121.7l-56-56A8.1 8.1 0 00152 24H56a16 16 0 00-16 16v88a8 8 0 008 8h120a8 8 0 018 8v80a8 8 0 008 8h16a16 16 0 0016-16V88a8.1 8.1 0 00-2.3-5.7zM152 88V44l44 44z"/></svg>