<svg xmlns="http://www.w3.org/2000/svg" viewBox="0 0 256 256" width="20" height="20"><path fill="none" d="M0 0h256v256H0z"/><path d="M219.4 171.1l-20 48a8 8 0 01-14.8 0l-20-48a8 8 0 1114.8-6.2l12.6 30.3 12.6-30.3a8 8 0 1114.8 6.2zM66 176a12.9 12.9 0 018.6 3.4 7.9 7.9 0 0011.3-.6 8 8 0 00-.5-11.3A29.3 29.3 0 0066 160c-16.5 0-30 14.4-30 32s13.5 32 30 32a29.3 29.3 0 0019.4-7.5 8 8 0 00.5-11.3 7.9 7.9 0 00-11.3-.6A12.9 12.9 0 0166 208c-7.7 0-14-7.2-14-16s6.3-16 14-16zm63.7 7.8c-3.1-.8-8.6-2.3-9.7-3.6v-.2c0-3.3 2.4-5 7-5a18.4 18.4 0 0110 3.2h-.1a8.3 8.3 0 005.1 1.8 8 8 0 008-8 7.6 7.6 0 00-2.9-6.1A33.4 33.4 0 00127 159c-13.5 0-23 8.6-23 21s13 17 21.6 19.3c3.4.9 7 1.8 9.2 3.1s1.2 1 1.2 1.6 0 5-9 5a18.4 18.4 0 01-10-3.2h.1a8.3 8.3 0 00-5.1-1.8 8 8 0 00-8 8 7.6 7.6 0 002.9 6.1A33.4 33.4 0 00127 225c15.7 0 25-7.9 25-21s-14-18-22.3-20.2zM40 128V40a16 16 0 0116-16h96a8.1 8.1 0 015.7 2.3l56 56A8.1 8.1 0 01216 88v40a8 8 0 01-8 8H48a8 8 0 01-8-8zm112-40h44l-44-44z"/></svg>