<svg xmlns="http://www.w3.org/2000/svg" viewBox="0 0 256 256" width="20" height="20"><path fill="none" d="M0 0h256v256H0z"/><path d="M152 164v49.2a8.1 8.1 0 01-4.5 7.2 8.5 8.5 0 01-3.5.8 7.9 7.9 0 01-4.9-1.7l-19.1-15v3.5a16 16 0 01-16 16H48a16 16 0 01-16-16v-40a16 16 0 0116-16h56a16 16 0 0116 16v4l19.2-14.4A8 8 0 01152 164zm64-76v128a16 16 0 01-16 16h-32a8 8 0 010-16h32V96h-48a8 8 0 01-8-8V40H56v80a8 8 0 01-16 0V40a16 16 0 0116-16h96a8.1 8.1 0 015.7 2.3l56 56A8.1 8.1 0 01216 88zm-27.3-8L160 51.3V80z"/></svg>