<svg xmlns="http://www.w3.org/2000/svg" viewBox="0 0 256 256" width="20" height="20"><path fill="none" d="M0 0h256v256H0z"/><path d="M60 160H44a8 8 0 00-8 8v48a8 8 0 0016 0v-8h8a24 24 0 000-48zm0 32h-8v-16h8a8 8 0 010 16zm92-24v48a8 8 0 01-5.5 7.6 7.3 7.3 0 01-2.5.4 7.8 7.8 0 01-6.4-3.2L116 192v24a8 8 0 01-16 0v-48a8 8 0 015.5-7.6 7.9 7.9 0 018.9 2.8L136 192v-24a8 8 0 0116 0zm72 37.8a7.5 7.5 0 01-1.3 4.3A29.4 29.4 0 01198 224c-16.5 0-30-14.4-30-32s13.5-32 30-32a28.4 28.4 0 0116.6 5.4 8 8 0 01-9.2 13 12.6 12.6 0 00-7.4-2.4c-7.7 0-14 7.2-14 16s6.3 16 14 16a13.3 13.3 0 0010-4.8V202h-4a8 8 0 010-16h12a8 8 0 018 8zM48 136h160a8 8 0 008-8V88a8.1 8.1 0 00-2.3-5.7l-56-56A8.1 8.1 0 00152 24H56a16 16 0 00-16 16v88a8 8 0 008 8zm104-92l44 44h-44z"/></svg>