<svg xmlns="http://www.w3.org/2000/svg" viewBox="0 0 256 256" width="20" height="20"><path fill="none" d="M0 0h256v256H0z"/><path d="M213.59 82.275l-55.933-55.932c-.08-.08-.167-.15-.25-.227-.108-.099-.213-.201-.326-.295-.075-.061-.156-.115-.233-.174-.13-.1-.26-.202-.397-.294-.062-.041-.128-.076-.19-.116a8.13 8.13 0 00-.484-.289c-.045-.024-.091-.042-.136-.065a7.782 7.782 0 00-.573-.271c-.03-.013-.063-.022-.093-.034a7.845 7.845 0 00-.643-.23c-.032-.01-.064-.016-.096-.025a7.953 7.953 0 00-.66-.166c-.072-.014-.146-.02-.218-.033-.185-.032-.37-.065-.559-.083A7.913 7.913 0 00152 24H55.992a16.018 16.018 0 00-16 16v176a16.018 16.018 0 0016 16H200a16.018 16.018 0 0016-16V88.155c.001-.052.008-.103.008-.155a7.971 7.971 0 00-2.419-5.725zM152 160h-48a8 8 0 010-16h48a8 8 0 010 16zm0-72V43.313L196.686 88z"/></svg>