<svg xmlns="http://www.w3.org/2000/svg" viewBox="0 0 256 256" width="20" height="20"><path fill="none" d="M0 0h256v256H0z"/><path d="M175.982 120.01a8 8 0 00-8 8 230.705 230.705 0 01-17.333 88.155 8 8 0 1014.8 6.084 246.64 246.64 0 0018.533-94.24 8 8 0 00-8-8zM127.982 88.01a40.064 40.064 0 0129.815 13.332 8 8 0 1011.922-10.671 56 56 0 00-97.737 37.338 136.088 136.088 0 01-16.976 65.852 8 8 0 1013.992 7.76 152.13 152.13 0 0018.984-73.612 40.046 40.046 0 0140-40zM69.317 62.415a8 8 0 10-10.67-11.922 104.158 104.158 0 00-34.665 77.516 87.287 87.287 0 01-7.975 36.663 8 8 0 1014.54 6.674 103.16 103.16 0 009.435-43.337 88.143 88.143 0 0129.335-65.594z"/><path d="M127.982 24.01a103.764 103.764 0 00-34.667 5.92 8 8 0 005.332 15.085 88.067 88.067 0 01117.335 82.994 281.584 281.584 0 01-6.938 62.229 8 8 0 1015.603 3.54 297.643 297.643 0 007.335-65.769 104.118 104.118 0 00-104-104zM113.898 200.739a8.002 8.002 0 00-10.607 3.933A184.974 184.974 0 0197 217.108a8 8 0 1013.992 7.758 200.122 200.122 0 006.84-13.52 7.999 7.999 0 00-3.934-10.607zM127.97 120.008a8 8 0 00-8 8 184.686 184.686 0 01-5.796 46.006 8 8 0 1015.495 3.989 200.701 200.701 0 006.302-49.995 8 8 0 00-8-8z"/></svg>