<svg xmlns="http://www.w3.org/2000/svg" viewBox="0 0 256 256" width="20" height="20"><path fill="none" d="M0 0h256v256H0z"/><path d="M128.006 24.008a104.118 104.118 0 00-104 104A87.786 87.786 0 0119 157.342a8 8 0 1015.086 5.332 103.75 103.75 0 005.92-34.666 88 88 0 01176 0 282.278 282.278 0 01-5.29 54.454 8 8 0 1015.697 3.093 298.253 298.253 0 005.593-57.547 104.118 104.118 0 00-104-104z"/><path d="M93.01 84.289a8 8 0 00-10.008-12.485 71.7 71.7 0 00-26.996 56.205 118.801 118.801 0 01-12.48 53.352 8 8 0 1014.327 7.123 134.646 134.646 0 0014.153-60.475A55.773 55.773 0 0193.01 84.29zM128.006 120.01a8 8 0 00-8 8 184.13 184.13 0 01-22.972 89.1 8 8 0 1013.992 7.76 200.168 200.168 0 0024.98-96.86 8 8 0 00-8-8z"/><path d="M128.006 88.01a40.046 40.046 0 00-40 40 8 8 0 0016 0 24 24 0 0148 0 214.097 214.097 0 01-20.51 91.995 8 8 0 1014.472 6.822 229.987 229.987 0 0022.038-98.818 40.046 40.046 0 00-40-40z"/><path d="M94.396 152.169a8.008 8.008 0 00-9.43 6.249 150.79 150.79 0 01-17.204 45.437 8 8 0 1013.86 7.996 166.733 166.733 0 0019.024-50.252 8 8 0 00-6.25-9.43zM128.006 56.01a72.929 72.929 0 00-8.991.556 8 8 0 101.982 15.877 56.71 56.71 0 017.009-.434 56.063 56.063 0 0156 56 251.412 251.412 0 01-1.92 31.01 8 8 0 1015.878 1.98 267.59 267.59 0 002.042-32.99 72.081 72.081 0 00-72-72zM185.936 184.261a7.994 7.994 0 00-9.742 5.753 247.408 247.408 0 01-5.018 16.949 8 8 0 1015.168 5.091 262.375 262.375 0 005.345-18.051 7.999 7.999 0 00-5.753-9.742z"/></svg>