<svg xmlns="http://www.w3.org/2000/svg" viewBox="0 0 256 256" width="20" height="20"><path fill="none" d="M0 0h256v256H0z"/><path d="M176 120a8 8 0 00-8 8 229.3 229.3 0 01-17.4 88.2 8 8 0 007.4 11 7.9 7.9 0 007.4-5A246.5 246.5 0 00184 128a8 8 0 00-8-8zM128 88a40.4 40.4 0 0129.8 13.3 8 8 0 0011.3.7 8 8 0 00.6-11.3A56 56 0 0072 128a136.4 136.4 0 01-17 65.9 8 8 0 003.1 10.8 8.1 8.1 0 003.9 1 7.9 7.9 0 007-4.1A152.2 152.2 0 0088 128a40.1 40.1 0 0140-40zM69.3 62.4a8 8 0 10-10.7-11.9A104.2 104.2 0 0024 128a87.6 87.6 0 01-8 36.7 8.1 8.1 0 003.9 10.6 8.3 8.3 0 003.4.7 7.8 7.8 0 007.2-4.7A102.4 102.4 0 0040 128a88.3 88.3 0 0129.3-65.6z"/><path d="M128 24a104.5 104.5 0 00-34.7 5.9 8.1 8.1 0 00-4.9 10.2A8 8 0 0098.6 45 88.1 88.1 0 01216 128a281.8 281.8 0 01-7 62.2 8.2 8.2 0 006.1 9.6l1.8.2a7.9 7.9 0 007.7-6.2A296.3 296.3 0 00232 128 104.2 104.2 0 00128 24zM113.9 200.7a8.1 8.1 0 00-10.6 4c-1.9 4.2-4.1 8.4-6.3 12.4a8.1 8.1 0 003.1 10.9 7.8 7.8 0 003.9 1 8.1 8.1 0 007-4.1c2.4-4.4 4.7-9 6.8-13.6a8 8 0 00-3.9-10.6zM128 120a8 8 0 00-8 8 186.5 186.5 0 01-5.8 46 8 8 0 005.7 9.8l2 .2a8.1 8.1 0 007.8-6 199.8 199.8 0 006.3-50 8 8 0 00-8-8z"/></svg>