<svg xmlns="http://www.w3.org/2000/svg" viewBox="0 0 256 256" width="20" height="20"><path fill="none" d="M0 0h256v256H0z"/><path d="M197.128 66.604c-13.075-20.82-29.91-38.675-44.653-53.393a7.999 7.999 0 00-12.875 2.222l-30.85 64.786L76.474 58.7a8 8 0 00-11.104 2.235C45.88 90.313 36 116.915 36 140a92 92 0 00184 0c0-24.878-7.481-48.886-22.872-73.396zm-9.834 82.617a59.697 59.697 0 01-50.072 50.074 8.115 8.115 0 01-1.231.095 8 8 0 01-1.212-15.908 44.317 44.317 0 0036.703-36.703 8 8 0 1115.812 2.442z"/></svg>