<svg xmlns="http://www.w3.org/2000/svg" viewBox="0 0 256 256" width="20" height="20"><path fill="none" d="M0 0h256v256H0z"/><path d="M168 76a12 12 0 11-12-12 12 12 0 0112 12zm30.2 92c-26.5 26.4-68.4 37.4-125.1 32.9 1.6 11.8 3.8 24.3 6.7 37.4a7.9 7.9 0 01-6.1 9.5l-1.7.2a8 8 0 01-7.8-6.3c-3.3-14.9-5.7-29.1-7.4-42.5-13.4-1.7-27.6-4.2-42.5-7.4a8 8 0 013.4-15.7c13.1 2.9 25.6 5.2 37.4 6.8-4.5-56.7 6.5-98.6 32.9-125.1 41-41 105.8-30.9 124.7-26.8A15.9 15.9 0 01225 43.3c4.1 18.9 14.2 83.7-26.8 124.7zm11.2-121.3c-15-3.3-62.3-10.9-97.3 12.1a87.9 87.9 0 0085.1 85.1c23-35 15.4-82.3 12.2-97.2z"/></svg>