<svg xmlns="http://www.w3.org/2000/svg" viewBox="0 0 256 256" width="20" height="20"><path fill="none" d="M0 0h256v256H0z"/><path d="M219.578 40.85a7.996 7.996 0 00-8.378.754c-28.3 21.226-52.283 10.947-80.05-.953-28.243-12.104-60.254-25.82-95.95.953-.048.036-.089.076-.135.112-.11.087-.217.177-.323.27-.1.086-.198.173-.291.264a7.988 7.988 0 00-.255.26c-.1.105-.199.21-.292.32-.071.084-.138.17-.205.257a7.607 7.607 0 00-.27.36c-.063.091-.121.185-.18.278-.078.123-.155.245-.226.37-.06.108-.114.218-.17.328-.058.117-.117.233-.169.352a8.069 8.069 0 00-.154.384c-.042.11-.084.218-.12.329a7.87 7.87 0 00-.122.417c-.03.11-.06.22-.086.333a8.07 8.07 0 00-.079.41c-.021.126-.042.25-.058.377a8.585 8.585 0 00-.057.813c-.001.056-.008.11-.008.167v168a8 8 0 0016 0v-43.866c26.923-18.163 50.136-8.23 76.848 3.219 16.264 6.97 33.776 14.476 52.523 14.475 13.808 0 28.287-4.073 43.428-15.428a8 8 0 003.2-6.4v-120a8 8 0 00-4.421-7.156z"/></svg>