<svg xmlns="http://www.w3.org/2000/svg" viewBox="0 0 256 256" width="20" height="20"><path fill="none" d="M0 0h256v256H0z"/><path d="M219.6 40.8a8.2 8.2 0 00-8.4.8c-28.3 21.2-52.3 11-80-.9s-60.3-25.9-96 .9A8 8 0 0032 48v168a8 8 0 0016 0v-43.9c26.9-18.1 50.1-8.2 76.8 3.3 16.3 6.9 33.8 14.4 52.6 14.4 13.8 0 28.3-4 43.4-15.4a8.1 8.1 0 003.2-6.4V48a8.2 8.2 0 00-4.4-7.2zM156 170.3v-53.5c-18.9-5.4-37.1-15.9-56-21.3v53.6c-16.3-4.2-33.6-4.8-52 4.5v-52.8c18.3-10.6 35.4-10 52-5.3V45.7a243.3 243.3 0 0124.8 9.7c10 4.2 20.4 8.7 31.2 11.5v49.9c16.6 4.7 33.7 5.3 52-5.3v52.4c-18.3 12.3-34.9 11.7-52 6.4z"/></svg>