<svg xmlns="http://www.w3.org/2000/svg" viewBox="0 0 256 256" width="20" height="20"><path fill="none" d="M0 0h256v256H0z"/><path d="M219.6 40.8a8.2 8.2 0 00-8.4.8c-28.3 21.2-52.3 11-80-.9s-60.3-25.9-96 .9h-.1l-.4.3-.2.2-.3.3-.3.3-.2.3-.3.3c0 .1-.1.2-.2.3l-.2.4c0 .1-.1.2-.1.3a.8.8 0 00-.2.4c-.1.1-.1.2-.2.4s-.1.2-.1.3-.1.3-.1.4-.1.2-.1.3-.1.3-.1.4v.5c0 .1-.1.3-.1.4V216a8 8 0 0016 0v-43.9c26.9-18.1 50.1-8.2 76.8 3.3 16.3 6.9 33.8 14.4 52.6 14.4 13.8 0 28.3-4 43.4-15.4a8.1 8.1 0 003.2-6.4V48a8.2 8.2 0 00-4.4-7.2z"/></svg>