<svg xmlns="http://www.w3.org/2000/svg" viewBox="0 0 256 256" width="20" height="20"><path fill="none" d="M0 0h256v256H0z"/><path d="M241.88 110.645A16.04 16.04 0 00228.9 104H216V88a16.018 16.018 0 00-16-16h-69.333l-27.733-20.8a16.103 16.103 0 00-9.601-3.2H40a16.018 16.018 0 00-16 16v144c0 .051.007.1.008.151.002.113.01.224.016.337.012.19.029.379.053.566q.02.152.047.303c.035.205.078.406.128.605.021.083.04.166.064.248.069.239.149.472.238.701.017.042.03.086.047.128a7.867 7.867 0 00.39.816c.016.029.035.056.051.084q.192.34.416.656c.019.027.033.056.052.083.035.049.077.09.114.139a7.891 7.891 0 001.034 1.126c.064.057.125.118.19.173a7.947 7.947 0 00.696.528l.02.012a7.968 7.968 0 00.736.433c.064.033.13.062.195.094a7.96 7.96 0 00.85.356q.302.106.614.188c.084.023.168.046.252.065.214.049.432.086.652.118.08.011.157.027.237.036a8.062 8.062 0 00.9.054h176a8.001 8.001 0 007.59-5.47l28.49-85.47a16.039 16.039 0 00-2.2-14.415zM93.333 64l27.733 20.8a16.103 16.103 0 009.601 3.2H200v16H69.766a15.98 15.98 0 00-15.18 10.94L40 158.702V64z"/></svg>