<svg xmlns="http://www.w3.org/2000/svg" viewBox="0 0 256 256" width="20" height="20"><path fill="none" d="M0 0h256v256H0z"/><path d="M96 208a8 8 0 01-8 8H39.4A15.4 15.4 0 0124 200.6V192a8 8 0 0116 0v8h48a8 8 0 018 8zm64-8h-32a8 8 0 000 16h32a8 8 0 000-16zm64-56a8 8 0 00-8 8v48h-16a8 8 0 000 16h16.9a15.2 15.2 0 0015.1-15.1V152a8 8 0 00-8-8zm-8-72h-48a8 8 0 000 16h48v24a8 8 0 0016 0V88a16 16 0 00-16-16zM32 88h96a8 8 0 007.4-4.9 8.4 8.4 0 00-1.7-8.8L104 44.7A15.9 15.9 0 0092.7 40H40a16 16 0 00-16 16v24a8 8 0 008 8zm0 72a8 8 0 008-8v-32a8 8 0 00-16 0v32a8 8 0 008 8z"/></svg>