<svg xmlns="http://www.w3.org/2000/svg" viewBox="0 0 256 256" width="20" height="20"><path fill="none" d="M0 0h256v256H0z"/><path d="M24 80V64a16 16 0 0116-16h53.3a15.6 15.6 0 019.6 3.2l29.9 22.4A8 8 0 01128 88a7.7 7.7 0 01-4.8-1.6L93.3 64H40v16a8 8 0 01-16 0zm64 120H40v-8a8 8 0 00-16 0v8.6A15.4 15.4 0 0039.4 216H88a8 8 0 000-16zm72 0h-32a8 8 0 000 16h32a8 8 0 000-16zm64-56a8 8 0 00-8 8v48h-16a8 8 0 000 16h16.9a15.2 15.2 0 0015.1-15.1V152a8 8 0 00-8-8zm-8-72h-48a8 8 0 000 16h48v24a8 8 0 0016 0V88a16 16 0 00-16-16zM32 160a8 8 0 008-8v-32a8 8 0 00-16 0v32a8 8 0 008 8z"/></svg>