<svg xmlns="http://www.w3.org/2000/svg" viewBox="0 0 256 256" width="20" height="20"><path fill="none" d="M0 0h256v256H0z"/><path d="M241.88 110.645A16.04 16.04 0 00228.9 104H216V88a16.018 16.018 0 00-16-16h-69.333l-27.733-20.8a16.103 16.103 0 00-9.601-3.2H40a16.018 16.018 0 00-16 16v144a8.062 8.062 0 00.045.846c.003.027.01.054.013.081a7.868 7.868 0 00.138.816c.016.072.037.143.055.215a7.783 7.783 0 00.283.897q.126.33.28.645c.032.064.06.129.093.192a7.981 7.981 0 001.013 1.5c.061.07.125.137.188.206a7.86 7.86 0 001.194 1.067c.054.04.107.084.163.122a7.917 7.917 0 00.772.472c.026.013.053.024.078.037a7.862 7.862 0 00.738.336c.071.028.144.053.217.08q.317.115.646.204c.085.023.169.046.254.066.22.051.441.091.666.124.082.012.163.028.245.037A8.046 8.046 0 0032 216h176a8.001 8.001 0 007.59-5.47l28.49-85.47a16.039 16.039 0 00-2.2-14.415zM93.333 64l27.733 20.8a16.103 16.103 0 009.601 3.2H200v16h-53.578a15.948 15.948 0 00-8.875 2.688L117.578 120H69.416a15.923 15.923 0 00-14.855 10.058L40 166.459V64z"/></svg>