<svg xmlns="http://www.w3.org/2000/svg" viewBox="0 0 256 256" width="20" height="20"><path fill="none" d="M0 0h256v256H0z"/><path d="M224 64h-69.333l-27.733-20.8a16.103 16.103 0 00-9.601-3.2H72a16.018 16.018 0 00-16 16v16H40a16.018 16.018 0 00-16 16v112a16.018 16.018 0 0016 16h152.889A15.128 15.128 0 00208 200.889V184h16.889A15.128 15.128 0 00240 168.889V80a16.018 16.018 0 00-16-16zm0 104h-16v-56a16.018 16.018 0 00-16-16h-69.333L94.934 75.2a16.103 16.103 0 00-9.601-3.2H72V56h45.333l27.733 20.8a16.103 16.103 0 009.601 3.2H224z"/></svg>