<svg xmlns="http://www.w3.org/2000/svg" viewBox="0 0 256 256" width="20" height="20"><path fill="none" d="M0 0h256v256H0z"/><path d="M226 56.3A32.3 32.3 0 00199.7 30c-31.4-5.3-90.4-7.7-133.9 35.8S24.7 168.3 30 199.7A32.3 32.3 0 0056.3 226a206.3 206.3 0 0033.3 2.8c31.1 0 69.8-7.7 100.6-38.6 43.5-43.5 41.1-102.5 35.8-133.9zM59 210.2A15.9 15.9 0 0145.8 197a178.7 178.7 0 01-2.7-30.6l46.5 46.5a179.5 179.5 0 01-30.6-2.7zm106.7-108.5l-15.1 15 9 9a8 8 0 010 11.3 8.3 8.3 0 01-5.7 2.3 8 8 0 01-5.6-2.3l-9-9-11.3 11.3 9 9a8 8 0 010 11.3 7.8 7.8 0 01-5.7 2.3 7.6 7.6 0 01-5.6-2.3l-9-9-15 15.1a8.2 8.2 0 01-11.4 0 8.1 8.1 0 010-11.4l15.1-15-9-9a8 8 0 0111.3-11.3l9 9 11.3-11.3-9-9a8 8 0 0111.3-11.3l9 9 15-15.1a8.1 8.1 0 0111.4 11.4zm.7-58.6a179.5 179.5 0 0130.6 2.7A15.9 15.9 0 01210.2 59a178.7 178.7 0 012.7 30.6z"/></svg>