<svg xmlns="http://www.w3.org/2000/svg" viewBox="0 0 256 256" width="20" height="20"><path fill="none" d="M0 0h256v256H0z"/><path d="M127.989 79.775a8.113 8.113 0 00-.022-.434 8.414 8.414 0 00-.05-.434c-.01-.074-.014-.148-.026-.222l-8-48a8 8 0 10-15.782 2.63L110.556 72H92V32a8 8 0 00-16 0v40H57.444l6.447-38.685a8 8 0 10-15.782-2.63l-8 48c-.012.074-.015.148-.026.222a8.41 8.41 0 00-.05.434c-.012.145-.017.29-.022.434-.002.076-.011.15-.011.225 0 .071.005.141.005.212l.004.147A44.06 44.06 0 0076 123.258V224a8 8 0 0016 0V123.258a44.06 44.06 0 0035.99-42.9c.003-.048.003-.097.005-.146 0-.07.005-.14.005-.212 0-.076-.01-.15-.011-.225zm84.004-47.917a7.673 7.673 0 00-.058-.83 8.089 8.089 0 00-.375-1.627c-.016-.045-.025-.09-.041-.135-.018-.048-.041-.093-.06-.141q-.09-.235-.195-.462-.068-.148-.14-.292-.1-.193-.209-.38a7.982 7.982 0 00-.2-.33 8.294 8.294 0 00-.205-.299 7.375 7.375 0 00-.261-.349c-.066-.083-.136-.164-.205-.244a8.093 8.093 0 00-.308-.338c-.074-.077-.151-.15-.228-.223a7.78 7.78 0 00-.326-.296 7.24 7.24 0 00-.276-.222 8.406 8.406 0 00-.318-.238 7.808 7.808 0 00-.34-.222c-.097-.061-.194-.123-.294-.18a7.919 7.919 0 00-.399-.209 8.891 8.891 0 00-.278-.134 8.158 8.158 0 00-.432-.177c-.096-.036-.193-.073-.291-.106a7.75 7.75 0 00-.425-.129 8.415 8.415 0 00-.343-.088 8.353 8.353 0 00-1.136-.174q-.245-.02-.494-.025c-.052-.001-.103-.008-.156-.008-.048 0-.096.006-.144.007a7.937 7.937 0 00-1.242.12 7.634 7.634 0 00-1.213.313c-.045.016-.09.025-.135.041-.099.037-.196.08-.294.116-.037.015-.075.028-.112.044-20.61 7.746-37.115 33.03-49.057 75.178a398.222 398.222 0 00-11.757 59.328A8 8 0 00148 168h48v56a8 8 0 0016 0V32c0-.048-.006-.094-.007-.142z"/></svg>