<svg xmlns="http://www.w3.org/2000/svg" viewBox="0 0 256 256" width="20" height="20"><path fill="none" d="M0 0h256v256H0z"/><path d="M247.458 181.743a12.436 12.436 0 00-.025-.132l-16.35-84.423c-.013-.063-.033-.123-.046-.186a60.086 60.086 0 00-59.019-49.262h-.023l-87.99.26a59.868 59.868 0 00-59.099 49.589 8.426 8.426 0 00-.035.218L8.577 181.605l-.025.138a36.002 36.002 0 0060.906 31.714q.217-.217.416-.447l40.729-45.025 34.85-.139 40.67 45.15q.204.236.429.461a36.001 36.001 0 0060.906-31.714zM104 116h-8v8a8 8 0 01-16 0v-8h-8a8 8 0 010-16h8v-8a8 8 0 0116 0v8h8a8 8 0 010 16zm40-8a8 8 0 018-8h32a8 8 0 010 16h-32a8 8 0 01-8-8zm71.478 99.691a20.034 20.034 0 01-17.457-5.394L166.91 167.76l5.108-.02a60.005 60.005 0 0050.94-28.35l8.753 45.192a20.022 20.022 0 01-16.233 23.108z"/></svg>