<svg xmlns="http://www.w3.org/2000/svg" viewBox="0 0 256 256" width="20" height="20"><path fill="none" d="M0 0h256v256H0z"/><path d="M215.072 144.951a8 8 0 01-4.141-15.455l22.955-6.15A112.203 112.203 0 00136 48.282V72a8 8 0 01-16 0V48.294c-45.146 3.24-83.01 33.694-97.582 75.133l22.651 6.07a8 8 0 11-4.141 15.454l-22.739-6.093A114.064 114.064 0 0016 161.128V184a16.018 16.018 0 0016 16h55.223l78.26-101.991a8 8 0 0112.695 9.74L107.39 200H224a16.018 16.018 0 0016-16v-24a113.233 113.233 0 00-1.997-21.193z"/></svg>