<svg xmlns="http://www.w3.org/2000/svg" viewBox="0 0 256.001 256.001" width="20" height="20"><path fill="none" d="M0 0h256v256H0z"/><path d="M232.399 147.198l-12.436-16.58a93.676 93.676 0 000-5.237l12.43-16.58a16.027 16.027 0 002.481-14.37 111.771 111.771 0 00-7.553-18.255 16.033 16.033 0 00-11.925-8.422l-20.517-2.93q-.9-.953-1.824-1.878-.923-.922-1.879-1.826l-2.933-20.514a16.031 16.031 0 00-8.409-11.914 111.635 111.635 0 00-18.248-7.567 16.038 16.038 0 00-14.388 2.476l-16.58 12.435a94.554 94.554 0 00-5.236 0L108.8 23.604a16.036 16.036 0 00-14.37-2.478 111.643 111.643 0 00-18.253 7.552 16.033 16.033 0 00-8.424 11.925l-2.93 20.518q-.955.902-1.877 1.825-.924.923-1.826 1.877l-20.516 2.934a16.03 16.03 0 00-11.913 8.408 111.66 111.66 0 00-7.567 18.248 16.035 16.035 0 002.476 14.388l12.436 16.581a93.676 93.676 0 000 5.236l-12.43 16.58a16.027 16.027 0 00-2.481 14.37 111.771 111.771 0 007.553 18.255 16.033 16.033 0 0011.925 8.422l20.517 2.931q.9.952 1.824 1.877.923.923 1.879 1.826l2.933 20.515a16.031 16.031 0 008.409 11.914 111.635 111.635 0 0018.248 7.567 15.896 15.896 0 004.762.728 16.062 16.062 0 009.626-3.204l16.58-12.436c1.747.05 3.489.049 5.236 0l16.581 12.432a16.036 16.036 0 0014.37 2.479 111.644 111.644 0 0018.253-7.553 16.033 16.033 0 008.424-11.925l2.93-20.517q.955-.903 1.877-1.825.924-.924 1.826-1.878l20.516-2.934a16.03 16.03 0 0011.913-8.408 111.66 111.66 0 007.567-18.248 16.035 16.035 0 00-2.476-14.388zM172 128a44 44 0 11-44-44 44.05 44.05 0 0144 44z"/></svg>