<svg xmlns="http://www.w3.org/2000/svg" viewBox="0 0 256.001 256.001" width="20" height="20"><path fill="none" d="M0 0h256v256H0z"/><path d="M238.266 108.355a15.962 15.962 0 00-7.997-11.193l-20.523-11.393a92.275 92.275 0 00-4.3-7.461l.395-23.492a15.93 15.93 0 00-5.682-12.51 111.53 111.53 0 00-34.038-19.621 15.962 15.962 0 00-13.693 1.328L132.3 36.091a92.092 92.092 0 00-8.612-.007l-20.146-12.088a15.926 15.926 0 00-13.676-1.334A111.529 111.529 0 0055.854 42.33a15.96 15.96 0 00-5.695 12.522l.395 23.47a92.435 92.435 0 00-4.312 7.455l-20.54 11.402a15.969 15.969 0 00-8.001 11.214 111.543 111.543 0 00.033 39.253 15.962 15.962 0 007.997 11.193l20.523 11.393a92.262 92.262 0 004.3 7.46l-.395 23.492a15.93 15.93 0 005.682 12.51 111.53 111.53 0 0034.038 19.622 15.96 15.96 0 0013.693-1.329L123.7 219.91c2.868.137 5.75.14 8.612.007l20.146 12.088a15.93 15.93 0 0013.676 1.335 111.529 111.529 0 0034.012-19.668 15.96 15.96 0 005.695-12.522l-.395-23.47a92.436 92.436 0 004.312-7.455l20.54-11.402a15.971 15.971 0 008.001-11.215 111.543 111.543 0 00-.033-39.252zM171.996 128a44 44 0 11-44-44 44.05 44.05 0 0144 44z"/></svg>