<svg xmlns="http://www.w3.org/2000/svg" viewBox="0 0 256 256" width="20" height="20"><path fill="none" d="M0 0h256v256H0z"/><path d="M216 72h-34.967a32 32 0 00-47.377-42.912A30.992 30.992 0 00128 37.3a31.012 31.012 0 00-5.657-8.212A32 32 0 0074.967 72H40a16.018 16.018 0 00-16 16v32a16.018 16.018 0 0016 16v64a16.018 16.018 0 0016 16h144a16.018 16.018 0 0016-16v-64a16.018 16.018 0 0016-16V88a16.018 16.018 0 00-16-16zm-71.03-31.598a16 16 0 1122.628 22.628c-4.94 4.94-19.226 7.715-31.257 8.629.914-12.032 3.688-26.316 8.629-31.257zm-56.569 0a16.02 16.02 0 0122.628 0c4.942 4.941 7.716 19.226 8.63 31.257-12.032-.914-26.316-3.689-31.257-8.63a16.02 16.02 0 010-22.627zM216 120h-80v72a8 8 0 01-16 0v-72H40V88h80v32h16V88h80l.01 32z"/></svg>