<svg xmlns="http://www.w3.org/2000/svg" viewBox="0 0 256 256" width="20" height="20"><path fill="none" d="M0 0h256v256H0z"/><path d="M104 68a36 36 0 10-44 35.093v49.814a36 36 0 1016 0v-49.814A36.055 36.055 0 00104 68zM88 188a20 20 0 11-20-20 20.023 20.023 0 0120 20zM196.002 152.907l-.001-33.026a55.635 55.635 0 00-16.402-39.596L155.314 56H176a8 8 0 000-16h-40l-.045.002a8.018 8.018 0 00-.742.038c-.128.012-.253.036-.38.054-.13.02-.261.035-.392.06-.145.029-.285.068-.427.105-.11.028-.222.052-.33.085-.14.042-.275.094-.412.144-.11.04-.22.075-.328.12-.127.052-.25.114-.373.173-.113.053-.227.103-.337.162-.12.064-.233.136-.348.205-.108.066-.219.127-.325.198-.124.082-.24.174-.358.263-.091.069-.184.132-.273.204a8.1 8.1 0 00-.539.487l-.048.043c-.02.02-.037.043-.057.064a8.01 8.01 0 00-.47.52c-.084.101-.156.207-.233.31-.078.106-.16.21-.234.319-.08.12-.15.246-.225.37-.06.1-.122.197-.177.3-.068.126-.125.255-.185.384-.05.109-.105.215-.151.326-.051.124-.093.252-.139.378-.042.12-.089.238-.126.36-.038.129-.067.258-.099.388-.031.124-.066.246-.091.372-.03.15-.048.303-.07.455-.014.107-.035.211-.046.32q-.04.397-.04.796V88a8 8 0 0016 0V67.314L168.285 91.6A39.739 39.739 0 01180 119.882l.002 33.025a36 36 0 1016 0z"/></svg>