<svg xmlns="http://www.w3.org/2000/svg" viewBox="0 0 256 256" width="20" height="20"><path fill="none" d="M0 0h256v256H0z"/><path d="M204.002 152.907l-.001-33.026a55.633 55.633 0 00-16.402-39.596L163.314 56H184a8 8 0 000-16h-40c-.148 0-.294.014-.441.022-.111.006-.223.006-.334.017-.172.017-.34.046-.509.073-.088.015-.177.024-.265.041-.168.033-.33.077-.495.12-.088.024-.178.043-.266.069-.152.046-.3.102-.45.157-.097.036-.195.067-.292.107-.134.056-.263.12-.393.183-.107.05-.215.098-.32.154-.12.064-.235.137-.35.207-.11.065-.219.126-.325.196-.117.08-.229.167-.342.252-.096.072-.196.14-.29.217a7.84 7.84 0 00-.431.39c-.05.047-.104.089-.154.138-.06.06-.11.124-.167.185-.122.13-.245.258-.358.396-.094.115-.178.236-.265.355-.067.09-.138.179-.201.273-.087.13-.164.265-.243.4-.053.09-.11.178-.16.27-.072.134-.132.27-.195.406-.047.101-.099.2-.142.305-.054.13-.098.263-.145.395-.04.115-.085.228-.12.345-.04.132-.07.266-.103.4-.03.12-.063.238-.088.36-.03.154-.05.31-.071.465-.014.104-.034.205-.044.31q-.04.397-.04.797V88a8 8 0 0016 0V67.315L176.285 91.6A39.731 39.731 0 01188 119.88l.001 33.027a36 36 0 1016 0zM112.002 160a8 8 0 00-8 8v20.686L79.717 164.4a39.736 39.736 0 01-11.716-28.28v-33.027a36 36 0 10-16 0v33.027a55.637 55.637 0 0016.402 39.595L92.688 200H72.002a8 8 0 100 16h40c.264 0 .528-.014.79-.04.118-.012.232-.034.35-.05.14-.02.283-.037.424-.065.133-.026.261-.063.392-.096.123-.03.246-.058.368-.094.126-.039.248-.086.372-.13.123-.044.246-.085.367-.135.114-.047.222-.102.332-.154.127-.06.255-.116.379-.183.102-.054.2-.117.298-.176.126-.074.252-.145.374-.227.103-.07.2-.147.3-.22.11-.082.222-.159.329-.246.144-.118.278-.246.414-.374.055-.052.114-.098.169-.153.056-.056.104-.118.158-.175.126-.133.251-.266.368-.407.09-.11.17-.227.255-.341.07-.096.144-.188.21-.287.086-.127.16-.258.237-.388.055-.095.115-.186.167-.283.069-.13.128-.262.19-.394.049-.106.102-.209.147-.317.052-.126.095-.255.14-.384.042-.118.088-.235.124-.355.04-.13.068-.26.1-.39.032-.123.066-.245.091-.37.03-.151.049-.304.07-.457.014-.106.035-.21.045-.317q.04-.398.04-.797V168a8 8 0 00-8-8z"/></svg>