<svg xmlns="http://www.w3.org/2000/svg" viewBox="0 0 256 256" width="20" height="20"><path fill="none" d="M0 0h256v256H0z"/><path d="M224 216a8 8 0 01-8 8 32.037 32.037 0 01-32-32v-8a16.018 16.018 0 00-16-16h-12v40a16.018 16.018 0 0016 16 8 8 0 010 16 32.037 32.037 0 01-32-32v-40h-24v40a32.037 32.037 0 01-32 32 8 8 0 010-16 16.018 16.018 0 0016-16v-40H88a16.018 16.018 0 00-16 16v8a32.037 32.037 0 01-32 32 8 8 0 010-16 16.018 16.018 0 0016-16v-8a31.995 31.995 0 0114.78-26.95A55.951 55.951 0 0148 112v-8a55.671 55.671 0 017.69-28.338A59.738 59.738 0 0161.071 28 8 8 0 0168 24a59.749 59.749 0 0148.007 23.999l23.986.001A59.746 59.746 0 01188 24a8 8 0 016.928 4 59.738 59.738 0 015.383 47.662A55.671 55.671 0 01208 104v8a55.951 55.951 0 01-22.78 45.05A31.995 31.995 0 01200 184v8a16.018 16.018 0 0016 16 8 8 0 018 8z"/></svg>