<svg xmlns="http://www.w3.org/2000/svg" viewBox="0 0 256 256" width="20" height="20"><path fill="none" d="M0 0h256v256H0z"/><path d="M225.86 163.209a7.95 7.95 0 00.373-1.057 104.006 104.006 0 00-.01-68.331 7.96 7.96 0 00-.355-1.008 104.177 104.177 0 00-97.826-68.812l-.042-.037-.042.037a104.177 104.177 0 00-97.822 68.8 7.944 7.944 0 00-.365 1.035 104.004 104.004 0 00.014 68.367 7.975 7.975 0 00.341.968A104.176 104.176 0 00127.957 232l.043.037.043-.037a104.177 104.177 0 0097.817-68.791zM128 45.559A110.409 110.409 0 01153.522 88h-51.044A110.409 110.409 0 01128 45.56zM102.478 168h51.044A110.414 110.414 0 01128 210.442 110.414 110.414 0 01102.478 168zm-4.188-16a126.934 126.934 0 010-48h59.42a126.934 126.934 0 010 48zm75.738-48h38.645a88.237 88.237 0 010 48h-38.645a147.054 147.054 0 000-48zm32.344-16h-35.964a127.44 127.44 0 00-24.133-46.086A88.318 88.318 0 01206.372 88zm-60.098 126.087A127.445 127.445 0 00170.407 168h35.965a88.318 88.318 0 01-60.098 46.087z"/></svg>