<svg xmlns="http://www.w3.org/2000/svg" viewBox="0 0 256 256" width="20" height="20"><path fill="none" d="M0 0h256v256H0z"/><path d="M223.487 169.18a7.963 7.963 0 00.498-1.165 103.918 103.918 0 00-36.213-125.072 8.063 8.063 0 00-1.14-.79A103.946 103.946 0 0042.618 187.312c.04.07.073.145.115.215a7.967 7.967 0 00.807 1.09 103.847 103.847 0 00147.723 21.865 7.98 7.98 0 001.403-1.095 104.572 104.572 0 0030.821-40.206zM61.48 185.558l3.913-2.362a16.001 16.001 0 007.733-13.61l.19-33.818a8 8 0 011.255-4.259l14.035-21.995a8 8 0 0111.438-2.175l12.783 9.262a15.956 15.956 0 0011.534 2.898l31.482-4.264a15.993 15.993 0 009.95-5.384l22.156-25.6a15.929 15.929 0 003.884-11.24l-.28-5.812a87.914 87.914 0 0121.283 84.187l-15.93-14.57a16.055 16.055 0 00-16.94-2.968l-30.451 12.657a15.999 15.999 0 00-9.688 12.442l-2.385 16.197a15.985 15.985 0 0011.768 17.807l21.459 5.631 3.988 3.996a87.86 87.86 0 01-113.177-17.02z"/></svg>