<svg xmlns="http://www.w3.org/2000/svg" viewBox="0 0 256 256" width="20" height="20"><path fill="none" d="M0 0h256v256H0z"/><path d="M223.5 169.2a6.1 6.1 0 00.5-1.2 104 104 0 00-36.2-125.1l-1.2-.7A103 103 0 00128 24a104 104 0 00-85.4 163.3v.2a10.5 10.5 0 00.8 1.1 104 104 0 00147.8 21.9l1.4-1.1a105.3 105.3 0 0030.9-40.2zm-162 16.4l3.9-2.4a15.8 15.8 0 007.7-13.6l.2-33.8a8.3 8.3 0 011.3-4.3l14-22a8 8 0 0111.4-2.2l12.8 9.3a16.5 16.5 0 0011.6 2.9l31.4-4.3a15.8 15.8 0 0010-5.4l22.1-25.6a15.4 15.4 0 003.9-11.2l-.2-5.8A87.7 87.7 0 01216 128a86.4 86.4 0 01-3.2 23.4l-15.9-14.6a16.1 16.1 0 00-16.9-3l-30.5 12.7a16.1 16.1 0 00-9.7 12.4l-2.4 16.2a16.2 16.2 0 0011.8 17.9l21.5 5.6 4 4a88 88 0 01-113.2-17z"/></svg>