<svg xmlns="http://www.w3.org/2000/svg" viewBox="0 0 256 256" width="20" height="20"><path fill="none" d="M0 0h256v256H0z"/><path d="M232 128A104.118 104.118 0 00128.042 24l-.042-.036-.042.037A104 104 0 00127.957 232l.043.037.043-.037A104.118 104.118 0 00232 128zm-16.368-8H175.78c-1.591-29.637-12.01-57.017-29.504-78.086A88.192 88.192 0 01215.632 120zM96.26 136h63.482c-1.81 28.756-13.294 55.703-31.741 74.442C109.554 191.703 98.069 164.756 96.26 136zm0-16c1.809-28.756 13.293-55.703 31.74-74.44 18.447 18.738 29.932 45.685 31.741 74.441zm50.015 94.087c17.494-21.07 27.913-48.45 29.505-78.087h39.853a88.192 88.192 0 01-69.358 78.087z"/></svg>