<svg xmlns="http://www.w3.org/2000/svg" viewBox="0 0 256 256" width="20" height="20"><path fill="none" d="M0 0h256v256H0z"/><path d="M225.9 163.2l.3-1a103.7 103.7 0 000-68.4l-.3-1A104.2 104.2 0 00128 24a104.2 104.2 0 00-97.9 68.8l-.3 1a103.7 103.7 0 000 68.4l.3 1A104.4 104.4 0 00128 232a104.2 104.2 0 0097.9-68.8zM128 45.6A108.6 108.6 0 01153.5 88h-51A108.6 108.6 0 01128 45.6zM102.5 168h51a108.6 108.6 0 01-25.5 42.4 108.6 108.6 0 01-25.5-42.4zm-4.2-16a126.4 126.4 0 010-48h59.4a126.4 126.4 0 010 48zm75.7-48h38.7a88.9 88.9 0 010 48H174a145 145 0 000-48zm32.4-16h-36a128.7 128.7 0 00-24.1-46.1A88.6 88.6 0 01206.4 88zm-60.1 126.1a128.7 128.7 0 0024.1-46.1h36a88.6 88.6 0 01-60.1 46.1z"/></svg>