<svg xmlns="http://www.w3.org/2000/svg" viewBox="0 0 256 256" width="20" height="20"><path fill="none" d="M0 0h256v256H0z"/><path d="M136 24v24a8 8 0 01-16 0V24a8 8 0 0116 0zm40 36a8 8 0 00-8 8v24a8 8 0 0016 0V68a8 8 0 00-8-8zm-48 140a8 8 0 00-8 8v24a8 8 0 0016 0v-24a8 8 0 00-8-8zm0-128a8 8 0 00-8 8v96a8 8 0 0016 0V80a8 8 0 00-8-8zM80 60a8 8 0 00-8 8v64a8 8 0 0016 0V68a8 8 0 00-8-8zm96 56a8 8 0 00-8 8v64a8 8 0 0016 0v-64a8 8 0 00-8-8zm-144-8a8 8 0 00-8 8v24a8 8 0 0016 0v-24a8 8 0 00-8-8zm48 48a8 8 0 00-8 8v24a8 8 0 0016 0v-24a8 8 0 00-8-8zm144-48a8 8 0 00-8 8v24a8 8 0 0016 0v-24a8 8 0 00-8-8z"/></svg>