<svg xmlns="http://www.w3.org/2000/svg" viewBox="0 0 256 256" width="20" height="20"><path fill="none" d="M0 0h256v256H0z"/><path d="M232 124h-45a67.4 67.4 0 0013-40 68.1 68.1 0 00-68-68 8 8 0 00-8 8v45a67.4 67.4 0 00-40-13 68.1 68.1 0 00-68 68 8 8 0 008 8h45a67.4 67.4 0 00-13 40 68.1 68.1 0 0068 68 8 8 0 008-8v-45a67.4 67.4 0 0040 13 68.1 68.1 0 0068-68 8 8 0 00-8-8zM84 72a51.5 51.5 0 0140 18.8V116H32.6A52.1 52.1 0 0184 72zm88 112a51.5 51.5 0 01-40-18.8V140h91.4a52.1 52.1 0 01-51.4 44z"/></svg>