<svg xmlns="http://www.w3.org/2000/svg" viewBox="0 0 256 256" width="20" height="20"><path fill="none" d="M0 0h256v256H0z"/><path d="M180 209.6a119.4 119.4 0 0016-8.5V240a8 8 0 01-16 0zM120.9 92.2a8.2 8.2 0 003.3 10.9L171 128l17-9.1-56.2-30a8.2 8.2 0 00-10.9 3.3zm130.9-3.3l-120-64a8.5 8.5 0 00-7.6 0l-120 64a8.1 8.1 0 000 14.2L28 115.7v49.8a15.5 15.5 0 003.2 9.5c7.9 10.6 38.3 45 96.8 45a128.7 128.7 0 0052-10.5v-76.7l-9-4.8-43 22.9-88.2-47L25 96l103-54.9L231 96l-14.8 7.9-28.2 15 3.8 2a8.4 8.4 0 013.2 3.3 7.5 7.5 0 011 3.8v73.1a111.8 111.8 0 0028.8-26.1 15.5 15.5 0 003.2-9.5v-49.8l23.8-12.6a8.1 8.1 0 000-14.2z"/></svg>