<svg xmlns="http://www.w3.org/2000/svg" viewBox="0 0 256 256" width="20" height="20"><path fill="none" d="M0 0h256v256H0z"/><path d="M180 209.592a118.305 118.305 0 0016-8.467V240a8 8 0 01-16 0zM120.941 92.235a8 8 0 003.294 10.824L171 128l17-9.066-56.235-29.993a7.998 7.998 0 00-10.824 3.294zm130.824-3.294l-120-64a8 8 0 00-7.53 0l-120 64a8 8 0 000 14.118L28 115.733v49.721a16.06 16.06 0 003.194 9.593C39.12 185.593 69.52 220 128 220a128.69 128.69 0 0052-10.456V132.8l-9-4.8-43 22.934-88.164-47.021-.057-.03L25 96l103-54.934L231 96l-14.78 7.882-.056.03L188 118.935l3.765 2.007A8.103 8.103 0 01196 128v73.067a110.425 110.425 0 0028.805-26.019 16.06 16.06 0 003.195-9.594v-49.72l23.765-12.675a8 8 0 000-14.118z"/></svg>