<svg xmlns="http://www.w3.org/2000/svg" viewBox="0 0 256 256" width="20" height="20"><path fill="none" d="M0 0h256v256H0z"/><path d="M24 104a8 8 0 018-8h80a8 8 0 010 16H32a8 8 0 01-8-8zm200-8h-80a8 8 0 000 16h80a8 8 0 000-16zM84 144a8 8 0 00-8-8H32a8 8 0 000 16h44a8 8 0 008-8zm140-8h-44a8 8 0 000 16h44a8 8 0 000-16zm-128 8a8 8 0 008 8h48a8 8 0 000-16h-48a8 8 0 00-8 8zm-40 32H32a8 8 0 000 16h24a8 8 0 000-16zm56 0H88a8 8 0 000 16h24a8 8 0 000-16zm56 0h-24a8 8 0 000 16h24a8 8 0 000-16zm56 0h-24a8 8 0 000 16h24a8 8 0 000-16zM32 72h192a8 8 0 000-16H32a8 8 0 000 16z"/></svg>