<svg xmlns="http://www.w3.org/2000/svg" viewBox="0 0 256 256" width="20" height="20"><path fill="none" d="M0 0h256v256H0z"/><path d="M200 80h-16V64a31.98 31.98 0 00-56-21.132 31.974 31.974 0 00-55.795 17.555A31.978 31.978 0 0024 88v40a104 104 0 00208 0v-16a32.036 32.036 0 00-32-32zm-48-32a16.018 16.018 0 0116 16v16h-32V64a16.018 16.018 0 0116-16zM88 64a16 16 0 0132 0v40a16 16 0 01-32 0V64zM40 88a16 16 0 0132 0v16a16 16 0 01-32 0zm88 128a88.106 88.106 0 01-87.92-84.249A31.94 31.94 0 0080 125.132a31.926 31.926 0 0044.58 3.346 32.235 32.235 0 0011.795 11.441A47.906 47.906 0 00120 176a8 8 0 0016 0 32.036 32.036 0 0132-32 8 8 0 000-16h-16a16.018 16.018 0 01-16-16V96h64a16.018 16.018 0 0116 16v16a88.1 88.1 0 01-88 88z"/></svg>