<svg xmlns="http://www.w3.org/2000/svg" viewBox="0 0 256 256" width="20" height="20"><path fill="none" d="M0 0h256v256H0z"/><path d="M188 84a27.832 27.832 0 00-12 2.707V52a27.992 27.992 0 00-41.358-24.603A27.998 27.998 0 0080 36v14.707A27.991 27.991 0 0040 76v76a88 88 0 00176 0v-40a28.031 28.031 0 00-28-28zm12 68a72 72 0 01-144 0V76a12 12 0 0124 0v36a8 8 0 0016 0V36a12 12 0 0124 0v68a8 8 0 0016 0V52a12 12 0 0124 0v72.666A48.079 48.079 0 00120 172a8 8 0 0016 0 32.036 32.036 0 0132-32 8 8 0 008-8v-20a12 12 0 0124 0z"/></svg>