<svg xmlns="http://www.w3.org/2000/svg" viewBox="0 0 256 256" width="20" height="20"><path fill="none" d="M0 0h256v256H0z"/><path d="M119.76 214.802a7.989 7.989 0 01-9.7 5.82l-30.14-7.534a16.1 16.1 0 01-6.617-3.447l-22.551-19.603a8 8 0 0110.496-12.076l22.553 19.603 30.14 7.536a7.999 7.999 0 015.82 9.7zm132.602-95.246a15.882 15.882 0 01-8.066 9.384l-23.268 11.634-14.947 17.486c-.052.06-.11.117-.163.176-.05.054-.098.108-.148.16-.039.04-.074.083-.113.122l-36.797 36.798a16.098 16.098 0 01-11.35 4.68 15.848 15.848 0 01-3.845-.473l-57.957-14.489a15.902 15.902 0 01-5.976-2.918l-54.028-42.248-24-12a16.001 16.001 0 01-7.027-21.716L29.27 59.055a16.08 16.08 0 0121.338-6.905l22.375 11.187 48.672-14.189a16.016 16.016 0 0111.074.783l32.997 14.93h16.386l23.28-11.64a16.073 16.073 0 0121.338 6.906l24.593 47.096a15.88 15.88 0 011.04 12.333zm-64.639 34.269l-31.65-23.018L148 136.86a40.206 40.206 0 01-48 0l-5.42-4.065a16 16 0 01-1.715-24.113L132 69.548a16.195 16.195 0 011.833-1.556l-7.7-3.484L77.41 78.713l-27.236 52.159 49.415 38.64 57.957 14.49zm18.683-20.77L179.152 80.86h-15.13l-.027.002-.037-.002h-20.645l-39.133 39.135 5.42 4.066a24.125 24.125 0 0028.8 0l12.8-9.6a7.998 7.998 0 019.505-.07l38.02 27.65z"/></svg>