<svg xmlns="http://www.w3.org/2000/svg" viewBox="0 0 256 256" width="20" height="20"><path fill="none" d="M0 0h256v256H0z"/><path d="M188 84a27.828 27.828 0 00-14.642 4.145A27.978 27.978 0 00136 74.707V36a28 28 0 00-56 0v91.41l-6.999-12.123a28 28 0 00-48.67 27.696C56.777 211.399 78.393 240 128 240a88.1 88.1 0 0088-88v-40a28.031 28.031 0 00-28-28zm12 68a72.081 72.081 0 01-72 72c-20.179 0-34.227-5.455-46.975-18.238-12.499-12.534-24.772-32.786-42.364-69.902q-.139-.293-.302-.574a12 12 0 0120.786-12l21.927 37.98a8 8 0 0014.928-4V36a12 12 0 0124 0v68a8 8 0 0016 0v-4a12 12 0 0124 0v12a8 8 0 0016 0 12 12 0 0124 0z"/></svg>