<svg xmlns="http://www.w3.org/2000/svg" viewBox="0 0 256 256" width="20" height="20"><path fill="none" d="M0 0h256v256H0z"/><path d="M220.203 103.988l-19.999-34.64a28.027 28.027 0 00-47.298-1.923l-17.343-30.04a27.992 27.992 0 00-48.114-.635 28.003 28.003 0 00-43.024 34.78l7.353 12.736a27.992 27.992 0 00-21.995 41.904l38 65.818a88 88 0 10152.42-88zm-6.663 62.636a72 72 0 01-131.901 17.364l-38-65.817a12 12 0 0120.785-12l18 31.177a8.016 8.016 0 00.556.826c.052.07.108.136.163.204q.236.292.495.558c.059.06.116.122.176.18a8.003 8.003 0 00.725.624l.017.012a8.009 8.009 0 00.768.502c.075.044.151.083.227.124q.317.172.649.313c.073.032.145.066.22.095a8.053 8.053 0 00.889.296c.02.005.04.007.059.013a8.052 8.052 0 00.854.167c.086.012.171.02.257.03q.36.04.724.047c.053.001.105.01.157.01.026 0 .052-.005.077-.005a7.944 7.944 0 00.93-.06l.075-.012a7.933 7.933 0 00.841-.165c.09-.023.178-.05.268-.075q.337-.096.667-.224c.087-.034.174-.065.26-.102a7.96 7.96 0 003.802-11.358l-18-31.178-.004-.006L58.28 63.529a12 12 0 0120.785-12l7.984 13.828.015.029 26 45.033a8 8 0 1013.857-8l-26-45.033a12 12 0 1120.786-12l29.998 51.957.002.005 6.33 10.963a48.025 48.025 0 00-10.972 60.998 8 8 0 1013.856-8 32 32 0 0111.714-43.713 7.969 7.969 0 00.67-.433c.18-.13.35-.269.515-.41.032-.027.067-.05.098-.078.19-.168.371-.344.543-.527l.016-.016q.26-.277.488-.575l.017-.02c.145-.19.278-.385.405-.584.013-.021.028-.04.041-.062a7.93 7.93 0 00.314-.562c.022-.042.047-.082.069-.125a8.24 8.24 0 00.237-.546c.023-.06.052-.115.075-.175.08-.215.149-.434.21-.655.009-.03.021-.059.03-.09.007-.029.011-.06.019-.089a8.12 8.12 0 00.145-.674c.012-.07.015-.14.025-.21.026-.19.052-.378.065-.57.004-.057.001-.116.004-.174a7.96 7.96 0 00.01-.61c-.002-.04-.008-.078-.01-.117a8.023 8.023 0 00-.054-.665c-.003-.025-.01-.05-.013-.075a8.086 8.086 0 00-.126-.694c-.007-.027-.017-.054-.023-.082a8.007 8.007 0 00-.19-.668c-.023-.065-.052-.128-.076-.193-.066-.18-.132-.36-.212-.537a7.98 7.98 0 00-.364-.712l-10-17.32a12 12 0 0120.785-12l20 34.64a71.533 71.533 0 017.192 54.636zM87.668 244.562a7.999 7.999 0 01-11.133 2.015 118.949 118.949 0 01-35.463-38.586 8 8 0 1113.856-8 103.08 103.08 0 0030.724 33.438 8 8 0 012.016 11.133zM168 30.992A8 8 0 01176 23h.008a60.211 60.211 0 0151.946 30.004 8 8 0 11-13.857 8A44.164 44.164 0 00175.992 39 8 8 0 01168 30.993z"/></svg>