<svg xmlns="http://www.w3.org/2000/svg" viewBox="0 0 256 256" width="20" height="20"><path fill="none" d="M0 0h256v256H0z"/><path d="M119.8 214.8a8.1 8.1 0 01-7.8 6.1 6.3 6.3 0 01-1.9-.3l-30.2-7.5a15.7 15.7 0 01-6.6-3.5L50.8 190a7.9 7.9 0 1110.4-12l22.6 19.6 30.1 7.5a8.1 8.1 0 015.9 9.7zm132.6-95.2a15.8 15.8 0 01-8.1 9.3L221 140.6l-14.9 17.5h-.2c0 .1-.1.1-.1.2h-.1l-36.8 36.8a16.5 16.5 0 01-11.4 4.7 15.8 15.8 0 01-3.8-.5l-58-14.3a15.2 15.2 0 01-6-2.9l-54-42.2-24-12a16.3 16.3 0 01-8.1-9.4 16 16 0 011.1-12.3l24.6-47.1a16.1 16.1 0 0121.3-7L73 63.3l48.7-14.2a16.6 16.6 0 0111 .8l33 15h16.4l23.3-11.7a16 16 0 0121.3 6.9l24.6 47.1a16.2 16.2 0 011.1 12.4zm-64.7 34.2l-31.6-23-8.1 6.1a40.2 40.2 0 01-48 0l-5.4-4.1a15.9 15.9 0 01-1.7-24.1L132 69.5l1.8-1.5-7.7-3.5-48.7 14.2-27.2 52.2 49.4 38.6 57.9 14.5zm18.7-20.7l-27.2-52.2h-35.9L104.2 120l5.4 4.1a24.3 24.3 0 0028.8 0l12.8-9.6a8 8 0 019.5-.1l38 27.6z"/></svg>