<svg xmlns="http://www.w3.org/2000/svg" viewBox="0 0 256 256" width="20" height="20"><path fill="none" d="M0 0h256v256H0z"/><path d="M233.456 128v80a40.046 40.046 0 01-40 40H136a8 8 0 010-16h57.456a24.027 24.027 0 0024-24v-1.376a23.894 23.894 0 01-8 1.376h-16a24.027 24.027 0 01-24-24v-40a24.027 24.027 0 0124-24h23.645a88.017 88.017 0 00-88.314-79.998h-.119A88.02 88.02 0 0040.355 120H64a24.027 24.027 0 0124 24v40a24.027 24.027 0 01-24 24H48a24.027 24.027 0 01-24-24v-56A104 104 0 01128.728 24.002l.735-.002a104 104 0 01103.993 104z"/></svg>