<svg xmlns="http://www.w3.org/2000/svg" viewBox="0 0 256 256" width="20" height="20"><path fill="none" d="M0 0h256v256H0z"/><path d="M176 32a59.855 59.855 0 00-48 23.96A60.02 60.02 0 0020 92a85.216 85.216 0 004.93 28h42.789l13.625-20.438a8 8 0 0113.312 0L120 137.578l9.344-14.016A8 8 0 01136 120h24a8 8 0 010 16h-19.719l-13.625 20.438a8 8 0 01-13.312 0L88 118.422l-9.344 14.016A8 8 0 0172 136H31.984c26.65 49.81 88.774 85.113 92.107 86.98a8 8 0 007.818 0 317.34 317.34 0 0051.443-37.534C218.286 154.005 236 122.565 236 92a60.068 60.068 0 00-60-60z"/></svg>