<svg xmlns="http://www.w3.org/2000/svg" viewBox="0 0 256 256" width="20" height="20"><path fill="none" d="M0 0h256v256H0z"/><path d="M202.053 54.978A103.255 103.255 0 00128 24h-8a8 8 0 00-8 8v27.53L11.807 121.187a8 8 0 00-2.295 11.493l13.787 19.116a31.835 31.835 0 0031.338 12.823c13.651-2.31 38.592-4.232 61.524 6.191l-26.139 36.595a87.945 87.945 0 01-20.686-13.81 8 8 0 00-10.672 11.921A103.662 103.662 0 00128.013 232q1.043 0 2.088-.02a104.001 104.001 0 0071.952-177.002zM124 112a12 12 0 1112-12 12 12 0 01-12 12z"/></svg>