<svg xmlns="http://www.w3.org/2000/svg" viewBox="0 0 256 256" width="20" height="20"><path fill="none" d="M0 0h256v256H0z"/><path d="M193.648 88.405A16.085 16.085 0 00200 75.641V40a16.018 16.018 0 00-16-16H72a16.018 16.018 0 00-16 16v36a16.076 16.076 0 006.4 12.8l18.127 13.595L114.667 128 62.4 167.2A16.075 16.075 0 0056 180v36a16.018 16.018 0 0016 16h112a16.018 16.018 0 0016-16v-35.641a16.085 16.085 0 00-6.352-12.764L141.267 128l22.704-17.162zM72 40h112v35.642l-5.76 4.354H77.328L72 76zm112 140.359V216H72v-36l48-36v23.996a8 8 0 0016 0v-23.92z"/></svg>