<svg xmlns="http://www.w3.org/2000/svg" viewBox="0 0 256 256" width="20" height="20"><path fill="none" d="M0 0h256v256H0z"/><path d="M200 75.641V40a16.018 16.018 0 00-16-16H72a16.018 16.018 0 00-16 16v36a16.076 16.076 0 006.4 12.8l52.267 39.2L62.4 167.2a16.061 16.061 0 00-6.348 11.923A7.943 7.943 0 0056 180v36a16.018 16.018 0 0016 16h112a16.018 16.018 0 0016-16v-35.641a8.049 8.049 0 00-.053-.893 16.069 16.069 0 00-6.299-11.87L141.267 128l52.381-39.595A16.085 16.085 0 00200 75.641zM82.597 172.052l45.384-34.038 45.366 34.293zM184 75.642l-56.019 42.344L72 76V40h112z"/></svg>