<svg xmlns="http://www.w3.org/2000/svg" viewBox="0 0 256 256" width="20" height="20"><path fill="none" d="M0 0h256v256H0z"/><path d="M216 40H40a16.018 16.018 0 00-16 16v144a16.018 16.018 0 0016 16h176a16.018 16.018 0 0016-16V56a16.018 16.018 0 00-16-16zm-90.914 135.745a8.003 8.003 0 01-9.742-5.753 24.01 24.01 0 00-46.488.002 8 8 0 11-15.495-3.989 39.896 39.896 0 0116.36-23.161 32 32 0 1144.758 0 39.898 39.898 0 0116.36 23.159 8 8 0 01-5.753 9.742zM192 152h-40a8 8 0 010-16h40a8 8 0 010 16zm0-32h-40a8 8 0 010-16h40a8 8 0 010 16z"/><circle cx="92.101" cy="120" r="16"/></svg>