<svg xmlns="http://www.w3.org/2000/svg" viewBox="0 0 256 256" width="20" height="20"><path fill="none" d="M0 0h256v256H0z"/><path d="M216 40H40a16 16 0 00-16 16v144a16 16 0 0016 16h176a16 16 0 0016-16V56a16 16 0 00-16-16zm-90.9 135.7a8 8 0 01-9.8-5.7 24 24 0 00-46.4 0 8.1 8.1 0 01-7.8 6l-2-.3a7.9 7.9 0 01-5.7-9.7 40.2 40.2 0 0116.3-23.2 32 32 0 1144.8 0 40.2 40.2 0 0116.3 23.2 7.9 7.9 0 01-5.7 9.7zM192 152h-40a8 8 0 010-16h40a8 8 0 010 16zm0-32h-40a8 8 0 010-16h40a8 8 0 010 16z"/><circle cx="92.1" cy="120" r="16"/></svg>