<svg xmlns="http://www.w3.org/2000/svg" viewBox="0 0 256 256" width="20" height="20"><path fill="none" d="M0 0h256v256H0z"/><path d="M240 88h-13.062L220.9 45.735A16.079 16.079 0 00205.062 32H50.938a16.08 16.08 0 00-15.84 13.737L29.062 88H16a8 8 0 000 16h12v104a16.018 16.018 0 0016 16h24a16.018 16.018 0 0016-16v-24h20v-56a8 8 0 0116 0v56h16v-56a8 8 0 0116 0v56h20v24a16.018 16.018 0 0016 16h24a16.018 16.018 0 0016-16V104h12a8 8 0 000-16zM72 144a12 12 0 1112-12 12 12 0 01-12 12zm112 0a12 12 0 1112-12 12 12 0 01-12 12z"/></svg>