<svg xmlns="http://www.w3.org/2000/svg" viewBox="0 0 256 256" width="20" height="20"><path fill="none" d="M0 0h256v256H0z"/><path d="M231.799 32.2a28.055 28.055 0 00-39.667.07L18.274 210.412a8 8 0 003.927 13.383 155.06 155.06 0 0034.957 4.003c33.421-.001 66.877-10.87 98.328-32.175 31.745-21.504 50.146-45.8 50.914-46.823a8.001 8.001 0 00-.743-10.457l-18.738-18.738 44.978-47.903a28.034 28.034 0 00-.098-39.502zm-42.592 112.321a225.51 225.51 0 01-43.104 38.132c-34.47 23.232-69.999 32.665-105.838 28.135L146.56 101.873l23.301 23.302q.208.228.439.444l.082.076z"/></svg>