<svg xmlns="http://www.w3.org/2000/svg" viewBox="0 0 256 256" width="20" height="20"><path fill="none" d="M0 0h256v256H0z"/><path d="M215.5 213.3L164.5 73l9.1-25H184a8 8 0 000-16H88a8 8 0 000 16h4.6L32.5 213.3a7.9 7.9 0 004.8 10.2 8.6 8.6 0 002.7.5 7.9 7.9 0 007.5-5.3l9.7-26.7h47l-7.7 21.3a7.9 7.9 0 004.8 10.2 8.6 8.6 0 002.7.5 7.9 7.9 0 007.5-5.3L130 168h52l18.5 50.7a7.9 7.9 0 007.5 5.3 8.6 8.6 0 002.7-.5 7.9 7.9 0 004.8-10.2zm-88-85.3h-47l11.6-32h47zm29.1-80l-8.1 22.3-3.6 9.7H98l11.6-32zM63.1 176l11.6-32h47L110 176zm72.7-24L156 96.4l20.2 55.6z"/></svg>