<svg xmlns="http://www.w3.org/2000/svg" viewBox="0 0 256 256" width="20" height="20"><path fill="none" d="M0 0h256v256H0z"/><path d="M224 39.5a8.1 8.1 0 00-7.5-7.5C140.2 27.5 79.1 50.5 53 93.6a87.3 87.3 0 00-12.8 49.1c.6 15.9 5.2 32.1 13.8 48L154.3 90.3a8.1 8.1 0 0111.4 11.4L65.3 202c15.9 8.6 32.1 13.2 48 13.8h3.3a87 87 0 0045.8-12.8c43.1-26.1 66.1-87.2 61.6-163.5z"/><path d="M57.1 196.1c-1.1-1.8-2.1-3.6-3.1-5.4l-19.7 19.6a8.1 8.1 0 000 11.4 8.2 8.2 0 0011.4 0L65.3 202l-5.4-3.1a9.3 9.3 0 01-2.8-2.8z"/></svg>