<svg xmlns="http://www.w3.org/2000/svg" viewBox="0 0 256 256" width="20" height="20"><path fill="none" d="M0 0h256v256H0z"/><path d="M223.986 39.53a8 8 0 00-7.516-7.516C140.156 27.52 79.054 50.53 52.998 93.554a87.32 87.32 0 00-12.786 49.133c.569 15.957 5.223 32.064 13.824 47.963L154.343 90.343a8 8 0 0111.314 11.314L65.35 201.964c15.899 8.6 32.006 13.256 47.963 13.824 1.117.04 2.227.06 3.335.06a87.186 87.186 0 0045.799-12.845c43.022-26.057 66.028-87.169 61.54-163.473z"/><path d="M57.14 196.116a140.783 140.783 0 01-3.104-5.466l-19.693 19.693a8 8 0 0011.314 11.314l19.693-19.693a140.725 140.725 0 01-5.466-3.104 7.996 7.996 0 01-2.744-2.744z"/></svg>