<svg xmlns="http://www.w3.org/2000/svg" viewBox="0 0 256 256" width="20" height="20"><path fill="none" d="M0 0h256v256H0z"/><path d="M202.16 200.833a103.806 103.806 0 000-145.666 7.397 7.397 0 00-1.326-1.327 103.806 103.806 0 00-145.668 0 7.397 7.397 0 00-1.327 1.327 103.806 103.806 0 000 145.666 8.099 8.099 0 00.622.706 8.018 8.018 0 00.706.621 103.806 103.806 0 00145.666 0 8.018 8.018 0 00.706-.62 8.099 8.099 0 00.622-.707zM96 128a32 32 0 1132 32 32.037 32.037 0 01-32-32zm88.28-67.595l-28.492 28.493a47.838 47.838 0 00-55.576 0L71.72 60.405a87.82 87.82 0 01112.562 0zM71.72 195.595l28.492-28.493a47.838 47.838 0 0055.576 0l28.493 28.493a87.82 87.82 0 01-112.562 0z"/></svg>