<svg xmlns="http://www.w3.org/2000/svg" viewBox="0 0 256 256" width="20" height="20"><path fill="none" d="M0 0h256v256H0z"/><path d="M176 232a8 8 0 01-8 8H88a8 8 0 010-16h80a8 8 0 018 8zm40-128a87.544 87.544 0 01-33.642 69.208A16.235 16.235 0 00176 185.977V192a16.018 16.018 0 01-16 16H96a16.018 16.018 0 01-16-16v-6.031a16.02 16.02 0 00-6.23-12.66 87.575 87.575 0 01-33.769-68.814c-.263-47.662 38.263-87.35 85.881-88.47A88.002 88.002 0 01216 104zm-50.343 2.343a8.002 8.002 0 00-11.314 0L128 132.687l-26.343-26.344a8 8 0 00-11.314 11.314L120 147.314V184a8 8 0 0016 0v-36.686l29.657-29.657a8 8 0 000-11.314z"/></svg>