<svg xmlns="http://www.w3.org/2000/svg" viewBox="0 0 256 256" width="20" height="20"><path fill="none" d="M0 0h256v256H0z"/><path d="M176.002 232a8 8 0 01-8 8h-80a8 8 0 110-16h80a8 8 0 018 8zm40-128a87.543 87.543 0 01-33.641 69.208 16.23 16.23 0 00-6.359 12.768V192a16.018 16.018 0 01-16 16h-64a16.018 16.018 0 01-16-16v-6.031a16.018 16.018 0 00-6.229-12.66 87.576 87.576 0 01-33.77-68.814c-.262-47.662 38.264-87.35 85.882-88.47A88.001 88.001 0 01216.002 104zm-32.788-9.396a55.85 55.85 0 00-45.764-45.708 8 8 0 10-2.655 15.777 39.84 39.84 0 0132.644 32.604 8.003 8.003 0 007.878 6.664 8.103 8.103 0 001.347-.113 8 8 0 006.55-9.224z"/></svg>