<svg xmlns="http://www.w3.org/2000/svg" viewBox="0 0 256 256" width="20" height="20"><path fill="none" d="M0 0h256v256H0z"/><path d="M53.9 34.6a8 8 0 00-11.8 10.8l39.2 43.1-39.1 42a7.9 7.9 0 00-2 7.3 8.2 8.2 0 005 5.7l57.6 21.6-14.6 73.3a8.1 8.1 0 004.1 8.7 8.4 8.4 0 003.7.9 7.7 7.7 0 005.8-2.6l61.9-66.2 38.4 42.2a8 8 0 005.9 2.6 8.2 8.2 0 005.4-2.1 7.9 7.9 0 00.5-11.3zM179.8 149.3a8 8 0 005.8 2.6h.1a7.7 7.7 0 005.8-2.6l22.3-23.9a7.9 7.9 0 00-3-12.9l-57.6-21.6 14.6-73.4a8 8 0 00-13.6-7l-45.9 49.2a7.9 7.9 0 00-.1 10.8z"/></svg>