<svg xmlns="http://www.w3.org/2000/svg" viewBox="0 0 256 256" width="20" height="20"><path fill="none" d="M0 0h256v256H0z"/><path d="M176 232a8 8 0 01-8 8H88a8 8 0 010-16h80a8 8 0 018 8zm40-128a87.7 87.7 0 01-33.6 69.2A16.1 16.1 0 00176 186v6a16 16 0 01-16 16H96a16 16 0 01-16-16v-6a16.2 16.2 0 00-6.2-12.7A87.8 87.8 0 0140 104.5c-.3-47.7 38.3-87.4 85.9-88.5a87.9 87.9 0 0190.1 88zm-32.8-9.4a55.8 55.8 0 00-45.8-45.7 8 8 0 10-2.6 15.8 39.7 39.7 0 0132.6 32.6 8 8 0 007.9 6.6h1.4a7.9 7.9 0 006.5-9.3z"/></svg>