<svg xmlns="http://www.w3.org/2000/svg" viewBox="0 0 256 256" width="20" height="20"><path fill="none" d="M0 0h256v256H0z"/><path d="M238.6 78.6A31.6 31.6 0 01216 88a32.2 32.2 0 01-7.6-.9l-26.7 49.4.9.9a31.9 31.9 0 010 45.2 31.9 31.9 0 01-45.2 0 32 32 0 01-5-38.9l-20.1-20.1A32.7 32.7 0 0196 128a32.2 32.2 0 01-7.6-.9l-26.7 49.4.9.9a31.9 31.9 0 010 45.2 31.9 31.9 0 01-45.2 0 31.9 31.9 0 010-45.2 32.1 32.1 0 0130.2-8.5l26.7-49.4-.9-.9a31.9 31.9 0 010-45.2 32 32 0 0150.2 38.9l20.1 20.1a32.4 32.4 0 0123.9-3.5l26.7-49.4-.9-.9a31.9 31.9 0 010-45.2 32 32 0 0145.2 45.2z"/></svg>