<svg xmlns="http://www.w3.org/2000/svg" viewBox="0 0 256 256" width="20" height="20"><path fill="none" d="M0 0h256v256H0z"/><path d="M88 72V48a8 8 0 1116 0v24a8 8 0 01-16 0zm72 104a8 8 0 00-8 8v24a8 8 0 0016 0v-24a8 8 0 00-8-8zM48 104h24a8 8 0 000-16H48a8 8 0 100 16zm160 48h-24a8 8 0 000 16h24a8 8 0 000-16zm-86.06 27.313l-11.313 11.314a32 32 0 01-45.255-45.254l11.314-11.313a8 8 0 00-11.313-11.315L54.059 134.06a48 48 0 0067.884 67.881l11.313-11.313a8 8 0 00-11.314-11.315zm68.687-113.94a32.038 32.038 0 01.001 45.254l-11.314 11.313a8 8 0 1011.313 11.315l11.315-11.315a48 48 0 10-67.884-67.881l-11.313 11.313a8 8 0 0011.314 11.315l11.314-11.314a32.035 32.035 0 0145.254 0z"/></svg>