<svg xmlns="http://www.w3.org/2000/svg" viewBox="0 0 256 256" width="20" height="20"><path fill="none" d="M0 0h256v256H0z"/><path d="M210.025 45.976a52.001 52.001 0 00-73.54 0l-19.799 19.798A8 8 0 10128 77.09l19.8-19.799a36 36 0 1150.91 50.91l-28.283 28.285a36.04 36.04 0 01-50.912 0 8 8 0 00-11.314 11.315 52.063 52.063 0 0073.54 0l28.284-28.285a52.002 52.002 0 000-73.54z"/><path d="M128 178.911l-19.8 19.799a36 36 0 11-50.91-50.91l28.283-28.285a36.038 36.038 0 0150.912 0 8 8 0 1011.314-11.315 52.063 52.063 0 00-73.54 0l-28.284 28.285a52 52 0 0073.54 73.54l19.799-19.8A8 8 0 00128 178.912z"/></svg>