<svg xmlns="http://www.w3.org/2000/svg" viewBox="0 0 256 256" width="20" height="20"><path fill="none" d="M0 0h256v256H0z"/><path d="M139.3 173.3L111 201.5a39.7 39.7 0 01-56.5 0 40 40 0 010-56.5l28.2-28.3a8 8 0 00-11.3-11.3l-28.3 28.3a56 56 0 0079.2 79.2l28.3-28.3a8 8 0 000-11.3 7.9 7.9 0 00-11.3 0zM212.9 43.1a56 56 0 00-79.2 0l-28.3 28.3a8 8 0 0011.3 11.3L145 54.5a39.7 39.7 0 0156.5 0 40 40 0 010 56.5l-28.2 28.3a7.9 7.9 0 000 11.3 7.7 7.7 0 005.6 2.4 8 8 0 005.7-2.4l28.3-28.3a56.1 56.1 0 000-79.2z"/></svg>