<svg xmlns="http://www.w3.org/2000/svg" viewBox="0 0 256 256" width="20" height="20"><path fill="none" d="M0 0h256v256H0z"/><path d="M156.278 88.393l-67.882 67.881A8 8 0 0099.71 167.59l67.882-67.882a8 8 0 10-11.314-11.314z"/><path d="M139.305 173.253l-28.284 28.284a40 40 0 11-56.567-56.567l28.284-28.284a8 8 0 10-11.315-11.315L43.14 133.655a56 56 0 0079.196 79.197l28.285-28.285a8 8 0 00-11.315-11.314zM212.85 43.14a56.002 56.002 0 00-79.196 0L105.37 71.426a8 8 0 0011.314 11.314l28.284-28.284a40 40 0 0156.568 56.567l-28.285 28.285a8 8 0 0011.315 11.314l28.284-28.284a56.065 56.065 0 000-79.196z"/></svg>