<svg xmlns="http://www.w3.org/2000/svg" viewBox="0 0 256 256" width="20" height="20"><path fill="none" d="M0 0h256v256H0z"/><path d="M224 128a8 8 0 01-8 8H104a8 8 0 010-16h112a8 8 0 018 8zM104 72h112a8 8 0 000-16H104a8 8 0 000 16zm112 112H104a8 8 0 000 16h112a8 8 0 000-16zM43.6 67.2l4.4-2.3V108a8 8 0 0016 0V52a7.9 7.9 0 00-3.8-6.8 8 8 0 00-7.8-.4l-16 8a8 8 0 107.2 14.4zm28.6 103.1A21.5 21.5 0 0076 158a22 22 0 00-42.3-8.6 8 8 0 0014.8 6.3A5.8 5.8 0 0154 152a6 6 0 016 6 5.7 5.7 0 01-.9 3.2l-25.5 34A8 8 0 0040 208h28a8 8 0 000-16H56l16-21.4z"/></svg>