<svg xmlns="http://www.w3.org/2000/svg" viewBox="0 0 256 256" width="20" height="20"><path fill="none" d="M0 0h256v256H0z"/><path d="M223.999 128a8 8 0 01-8 8H104a8 8 0 010-16h111.999a8 8 0 018 8zM104 72h111.999a8 8 0 000-16H104a8 8 0 000 16zm111.999 112h-112a8 8 0 100 16h112a8 8 0 000-16zM43.578 67.155L48 64.945v43.05a8 8 0 1016 0V52a8 8 0 00-11.578-7.155l-16 8a8 8 0 107.156 14.31zm28.66 103.15a22.002 22.002 0 10-38.506-20.87 8 8 0 1014.736 6.232 6.002 6.002 0 1110.597 5.552l-25.467 33.983A8 8 0 0040 208h28a8 8 0 000-16H55.992l16.019-21.375q.118-.157.227-.32z"/></svg>