<svg xmlns="http://www.w3.org/2000/svg" viewBox="0 0 256 256" width="20" height="20"><path fill="none" d="M0 0h256v256H0z"/><path d="M248 152a8 8 0 01-8 8h-16v16a8 8 0 01-16 0v-16h-16a8 8 0 010-16h16v-16a8 8 0 0116 0v16h16a8 8 0 018 8zM64 68h12v12a8 8 0 0016 0V68h12a8 8 0 000-16H92V40a8 8 0 00-16 0v12H64a8 8 0 000 16zm120 124h-8v-8a8 8 0 00-16 0v8h-8a8 8 0 000 16h8v8a8 8 0 0016 0v-8h8a8 8 0 000-16zm-2.3-74.3L75.3 224a15.9 15.9 0 01-22.6 0L32 203.3a15.9 15.9 0 010-22.6L180.7 32a16.1 16.1 0 0122.6 0L224 52.7a15.9 15.9 0 010 22.6l-42.3 42.4zM155.3 80l20.7 20.7L212.7 64 192 43.3z"/></svg>