<svg xmlns="http://www.w3.org/2000/svg" viewBox="0 0 256 256" width="20" height="20"><path fill="none" d="M0 0h256v256H0z"/><path d="M206.954 50.247a87.403 87.403 0 00-62.366-26.246l-.336-.001A87.42 87.42 0 0082 49.81L48.3 83.92v.002l-.002.001-32.4 32.798a16.038 16.038 0 00.068 22.56l28.653 28.653a15.889 15.889 0 0011.313 4.686h.095a15.89 15.89 0 0011.352-4.818l32.02-32.777.002-.002.003-.003 33.573-34.365a16.08 16.08 0 0122.374-.188 15.588 15.588 0 014.725 11.196 16.88 16.88 0 01-4.845 11.993l-34.106 33.076-.008.007-.004.004-32.85 31.859a16 16 0 00-.176 22.8l28.654 28.654a16.052 16.052 0 0022.517.109l32.957-32.319.005-.004.003-.004 33.552-32.902c34.449-34.45 34.978-90.384 1.18-124.689zM55.934 156.62l-28.655-28.653 26.712-27.038 28.504 28.503zm72.122 72.122L99.4 200.088l27.287-26.463 28.505 28.504z"/></svg>