<svg xmlns="http://www.w3.org/2000/svg" viewBox="0 0 256 256" width="20" height="20"><path fill="none" d="M0 0h256v256H0z"/><path d="M228.923 49.694a8 8 0 00-6.864-1.455L160.931 63.52 99.578 32.844l-.054-.022a8.028 8.028 0 00-.86-.363c-.052-.019-.105-.031-.157-.049q-.367-.121-.745-.207a7.688 7.688 0 00-.247-.05q-.358-.07-.723-.106c-.07-.007-.139-.017-.208-.022a7.93 7.93 0 00-.94-.017l-.024.002a7.975 7.975 0 00-.884.096c-.1.016-.198.039-.298.059-.126.025-.252.042-.379.074l-64 16A8 8 0 0024 56v144a8 8 0 009.941 7.761l61.13-15.282 61.352 30.676c.036.018.074.03.111.048q.325.157.663.284l.125.05a7.954 7.954 0 00.815.24l.128.028q.36.08.73.127c.05.006.1.014.152.019a7.293 7.293 0 001.892-.022c.112-.015.222-.043.333-.062.19-.033.38-.058.57-.106l64-16A8 8 0 00232 200V56a7.999 7.999 0 00-3.077-6.306zM152 203.056l-48-24V52.944l48 24z"/></svg>