<svg xmlns="http://www.w3.org/2000/svg" viewBox="0 0 256 256" width="20" height="20"><path fill="none" d="M0 0h256v256H0z"/><path d="M201.54 54.46A104 104 0 1054.46 201.54 104 104 0 10201.54 54.46zM88 206.37V176h80v30.37a88.38 88.38 0 01-80 0zM104 136h43.787l.045.002.035-.002H152v24h-48zm86.225 54.226A88.603 88.603 0 01184 195.87V176a16.018 16.018 0 00-16-16v-24a16.011 16.011 0 00-13.736-15.82L143.602 73.3a16 16 0 00-31.204 0l-10.662 46.88A16.011 16.011 0 0088 136v24a16.018 16.018 0 00-16 16v19.87a88.603 88.603 0 01-6.225-5.644 88 88 0 11124.45 0z"/></svg>