<svg xmlns="http://www.w3.org/2000/svg" viewBox="0 0 256 256" width="20" height="20"><path fill="none" d="M0 0h256v256H0z"/><path d="M201.5 54.5a103.8 103.8 0 00-147 0 103.8 103.8 0 000 147 103.8 103.8 0 00147 0 103.8 103.8 0 000-147zM88 206.4V176h80v30.4a88.8 88.8 0 01-80 0zm16-70.4h48v24h-48zm86.2 54.2c-2 2-4.1 3.9-6.2 5.7V176a16 16 0 00-16-16v-24a16 16 0 00-13.7-15.8l-10.7-46.9a16 16 0 00-31.2 0l-10.7 46.9A16 16 0 0088 136v24a16 16 0 00-16 16v19.9c-2.1-1.8-4.2-3.7-6.2-5.7a88 88 0 11124.4 0z"/></svg>