<svg xmlns="http://www.w3.org/2000/svg" viewBox="0 0 256 256" width="20" height="20"><path fill="none" d="M0 0h256v256H0z"/><path d="M104 176H80v-24a8 8 0 00-16 0v24H40a8 8 0 000 16h24v24a8 8 0 0016 0v-24h24a8 8 0 000-16zM104 64H40a8 8 0 000 16h64a8 8 0 000-16zM152 176.066h64a8 8 0 000-16h-64a8 8 0 000 16zM216 191.934h-64a8 8 0 000 16h64a8 8 0 000-16zM154.343 101.657a8 8 0 0011.314 0L184 83.313l18.343 18.344a8 8 0 1011.314-11.314L195.314 72l18.343-18.343a8 8 0 00-11.314-11.314L184 60.687l-18.343-18.344a8 8 0 00-11.314 11.314L172.686 72l-18.343 18.343a8 8 0 000 11.314z"/></svg>