<svg xmlns="http://www.w3.org/2000/svg" viewBox="0 0 256 256" width="20" height="20"><path fill="none" d="M0 0h256v256H0z"/><path d="M104 176H80v-24a8 8 0 00-16 0v24H40a8 8 0 000 16h24v24a8 8 0 0016 0v-24h24a8 8 0 000-16zM104 64H40a8 8 0 000 16h64a8 8 0 000-16zM152 176.1h64a8 8 0 000-16h-64a8 8 0 000 16zM216 191.9h-64a8 8 0 000 16h64a8 8 0 000-16zM154.3 101.7a8.2 8.2 0 0011.4 0L184 83.3l18.3 18.4a8.2 8.2 0 0011.4 0 8.1 8.1 0 000-11.4L195.3 72l18.4-18.3a8.1 8.1 0 00-11.4-11.4L184 60.7l-18.3-18.4a8.1 8.1 0 00-11.4 11.4L172.7 72l-18.4 18.3a8.1 8.1 0 000 11.4z"/></svg>