<svg xmlns="http://www.w3.org/2000/svg" viewBox="0 0 256 256" width="20" height="20"><path fill="none" d="M0 0h256v256H0z"/><path d="M220.475 86.64l-82.08-23.94-.051-.014-93.87-27.38a16 16 0 00-20.48 15.361v138.666a16.025 16.025 0 0015.955 16.013 16.162 16.162 0 004.526-.653L128 180.332V192a16.018 16.018 0 0016 16h32a16.018 16.018 0 0016-16v-30.335l28.474-8.305a16.082 16.082 0 0011.52-15.36v-36a16.08 16.08 0 00-11.52-15.36zM176 192h-32v-16.335l32-9.333zm39.994-54l-34.353 10.02-.029.008L144 158.998V81.001L215.994 102z"/></svg>