<svg xmlns="http://www.w3.org/2000/svg" viewBox="0 0 256 256" width="20" height="20"><path fill="none" d="M0 0h256v256H0z"/><path d="M240 120a48.055 48.055 0 00-48-48h-39.983c-.519-.002-52.381-.69-101.727-42.076a15.999 15.999 0 00-26.291 12.244v155.664a15.84 15.84 0 009.23 14.491 16.073 16.073 0 006.806 1.526 15.912 15.912 0 0010.254-3.772c37.877-31.768 77.234-39.556 93.711-41.461v35.103a15.965 15.965 0 007.124 13.312l10.993 7.33a16 16 0 0024.397-9.433l11.84-47.362A48.063 48.063 0 00240 120zm-69.009 91.047L160 203.719V168h21.754zM192 152h-32V88h32a32 32 0 010 64z"/></svg>