<svg xmlns="http://www.w3.org/2000/svg" viewBox="0 0 256 256" width="20" height="20"><path fill="none" d="M0 0h256v256H0z"/><path d="M96 88a65.1 65.1 0 00.4 7.7l-74.8 102a16 16 0 001.6 20.8l14.3 14.3a16 16 0 0020.8 1.6l102-74.8a65.1 65.1 0 007.7.4 71.9 71.9 0 0041.1-12.9 4 4 0 00.5-6.1L115 46.4a4 4 0 00-6.1.5A71.9 71.9 0 0096 88zm17.7 65.7l-20 20a8.2 8.2 0 01-11.4 0 8.1 8.1 0 010-11.4l20-20a8.1 8.1 0 0111.4 11.4zM239.9 84a72 72 0 01-12.8 45.1 4 4 0 01-6.1.5L126.4 35a4 4 0 01.5-6.1 72 72 0 01113 55.1z"/></svg>