<svg xmlns="http://www.w3.org/2000/svg" viewBox="0 0 256 256" width="20" height="20"><path fill="none" d="M0 0h256v256H0z"/><path d="M219.3 80h-4.5a33.5 33.5 0 005.2-18 34 34 0 00-51.4-29.2A40 40 0 0096 56a42.6 42.6 0 00.8 8H40a16 16 0 00-16 16v96a16 16 0 0016 16h36.7a64 64 0 00118.7-.2A40 40 0 00232 152V92.7A12.7 12.7 0 00219.3 80zM136 32a24.1 24.1 0 0124 24 24.3 24.3 0 01-4.1 13.4A15.9 15.9 0 00144 64h-30.6a24.5 24.5 0 01-1.4-8 24.1 24.1 0 0124-24zM84 152v-40H74a8 8 0 010-16h36a8 8 0 010 16h-10v40a8 8 0 01-16 0zm100 16a48 48 0 01-48 48 48.5 48.5 0 01-41.6-24H144a16 16 0 0016-16V96h24zm2-88a18 18 0 01-14-6.7 39.2 39.2 0 004-17.3 37.7 37.7 0 00-.9-8.3A17.7 17.7 0 01186 44a18 18 0 010 36zm30 72a24 24 0 01-16.4 22.7 49.2 49.2 0 00.4-6.7V96h16z"/></svg>