<svg xmlns="http://www.w3.org/2000/svg" viewBox="0 0 256 256" width="20" height="20"><path fill="none" d="M0 0h256v256H0z"/><path d="M213.92 210.618l-160-176a8 8 0 10-11.84 10.764L80 87.094V128a47.99 47.99 0 0073.912 40.397l10.875 11.962a63.992 63.992 0 01-100.396-45.238 8 8 0 00-15.903 1.758A79.837 79.837 0 00120 207.597V232a8 8 0 0016 0v-24.41a79.72 79.72 0 0039.62-15.314l26.46 29.106a8 8 0 1011.84-10.764zM162.08 129.81A8 8 0 00176 124.43V64a48.005 48.005 0 00-88.845-25.225 8.001 8.001 0 00.884 9.591zM192.165 161.665a7.993 7.993 0 0010.364-4.536 79.616 79.616 0 004.983-20.25 8 8 0 00-15.903-1.758 63.674 63.674 0 01-3.98 16.18 8 8 0 004.536 10.364z"/></svg>