<svg xmlns="http://www.w3.org/2000/svg" viewBox="0 0 256 256" width="20" height="20"><path fill="none" d="M0 0h256v256H0z"/><path d="M213.9 210.6l-160-176a8 8 0 00-11.8 10.8L80 87.1V128a48 48 0 0073.9 40.4l10.9 12a64 64 0 01-100.4-45.3 8 8 0 10-15.9 1.8 79.9 79.9 0 0071.5 70.7V232a8 8 0 0016 0v-24.4a79.2 79.2 0 0039.6-15.3l26.5 29.1a8 8 0 005.9 2.6 8.2 8.2 0 005.4-2.1 7.9 7.9 0 00.5-11.3zm-51.8-80.8a7.9 7.9 0 005.9 2.6 7.4 7.4 0 002.9-.5 8 8 0 005.1-7.5V64a48 48 0 00-48-48 47.5 47.5 0 00-40.8 22.8 8 8 0 00.8 9.6zm30.1 31.9a9.3 9.3 0 002.9.5 7.8 7.8 0 007.4-5.1 78.7 78.7 0 005-20.2 8 8 0 10-15.9-1.8 60.1 60.1 0 01-4 16.2 8.1 8.1 0 004.6 10.4z"/></svg>