<svg xmlns="http://www.w3.org/2000/svg" viewBox="0 0 256 256" width="20" height="20"><path fill="none" d="M0 0h256v256H0z"/><path d="M200 24H72a16 16 0 00-16 16v24H40a16 16 0 00-16 16v96a16 16 0 0016 16h16v24a16 16 0 0016 16h128a16 16 0 0016-16V40a16 16 0 00-16-16zM68.2 153.9l-12-48a8 8 0 0115.6-3.8l6.3 25.4 6.6-14.7a8 8 0 0114.6 0l6.6 14.7 6.3-25.4a8 8 0 1115.6 3.8l-12 48a8.1 8.1 0 01-7.1 6.1h-.7a7.9 7.9 0 01-7.3-4.8L92 135.7l-8.7 19.5a8 8 0 01-8 4.8 8.1 8.1 0 01-7.1-6.1zM200 216H72v-24h72a16 16 0 0016-16v-8h40zm0-64h-40v-48h40zm0-64h-40v-8a16 16 0 00-16-16H72V40h128z"/></svg>