<svg xmlns="http://www.w3.org/2000/svg" viewBox="0 0 256 256" width="20" height="20"><path fill="none" d="M0 0h256v256H0z"/><path d="M200 24H72a16 16 0 00-16 16v24H40a16 16 0 00-16 16v96a16 16 0 0016 16h16v24a16 16 0 0016 16h128a16 16 0 0016-16V40a16 16 0 00-16-16zM69.2 158.4a8 8 0 01-1.6-11.2L82 128l-14.4-19.2a8 8 0 1112.8-9.6L92 114.7l11.6-15.5a8 8 0 0112.8 9.6L102 128l14.4 19.2a8 8 0 01-1.6 11.2 7.7 7.7 0 01-4.8 1.6 8 8 0 01-6.4-3.2L92 141.3l-11.6 15.5A8 8 0 0174 160a7.7 7.7 0 01-4.8-1.6zM128 216H72v-24h56zm0-152H72V40h56zm72 152h-56v-24a16 16 0 0016-16v-8h40zm0-64h-40v-48h40zm0-64h-40v-8a16 16 0 00-16-16V40h56z"/></svg>