<svg xmlns="http://www.w3.org/2000/svg" viewBox="0 0 256 256" width="20" height="20"><path fill="none" d="M0 0h256v256H0z"/><path d="M72 104h32v48H72zm160-48v160a8 8 0 01-11.578 7.155L192 208.945l-28.422 14.21a8 8 0 01-7.156 0L128 208.945l-28.422 14.21a7.996 7.996 0 01-7.156 0L64 208.945l-28.422 14.21A8 8 0 0124 216V56a16.018 16.018 0 0116-16h176a16.018 16.018 0 0116 16zM120 96a8 8 0 00-8-8H64a8 8 0 00-8 8v64a8 8 0 008 8h48a8 8 0 008-8zm80 48a8 8 0 00-8-8h-48a8 8 0 000 16h48a8 8 0 008-8zm0-32a8 8 0 00-8-8h-48a8 8 0 000 16h48a8 8 0 008-8z"/></svg>