<svg xmlns="http://www.w3.org/2000/svg" viewBox="0 0 256 256" width="20" height="20"><path fill="none" d="M0 0h256v256H0z"/><path d="M229.657 58.343l-32-32a8 8 0 00-11.314 0l-96 96A8 8 0 0088 128v32a8 8 0 008 8h32a8 8 0 005.657-2.343l96-96a8 8 0 000-11.314zM200 76.686L179.314 56 192 43.314 212.687 64z"/><path d="M217.611 104.33l-72.638 72.638a23.844 23.844 0 01-16.971 7.03h-32a24.027 24.027 0 01-24-24v-32a23.841 23.841 0 017.03-16.97l72.657-72.658a7.882 7.882 0 00-7.671-6.372H48.002a16.016 16.016 0 00-16 16v160a16.016 16.016 0 0016 16h160a16.016 16.016 0 0016-16v-95.992a7.88 7.88 0 00-6.39-7.676z"/></svg>