<svg xmlns="http://www.w3.org/2000/svg" viewBox="0 0 256 256" width="20" height="20"><path fill="none" d="M0 0h256v256H0z"/><path d="M128 24a104 104 0 10104 104A104.12 104.12 0 00128 24zm24.031 150.047a33.996 33.996 0 11-48.062-48.094 30.898 30.898 0 013.106-2.508c-.092-.09-.203-.151-.294-.242a29.99 29.99 0 01.016-42.422c11.297-11.312 31.094-11.328 42.422.016a29.99 29.99 0 01-.016 42.422c-.086.086-.191.143-.278.228a30.838 30.838 0 013.122 2.522 33.988 33.988 0 01-.016 48.078z"/><path d="M137.89 111.906a14 14 0 10-19.796-.015 14.318 14.318 0 0019.797.015zM128 132a17.998 17.998 0 00-12.734 30.719 18.435 18.435 0 0025.453.015A18 18 0 00128 132z"/></svg>