<svg xmlns="http://www.w3.org/2000/svg" viewBox="0 0 256 256" width="20" height="20"><path fill="none" d="M0 0h256v256H0z"/><path d="M175.9 130a68.8 68.8 0 00-16.4-11.4 59.4 59.4 0 009.9-7.4 53.6 53.6 0 000-79.1 61.3 61.3 0 00-82.8 0 53.6 53.6 0 000 79.1 59.4 59.4 0 009.9 7.4A68.8 68.8 0 0080.1 130a61.9 61.9 0 000 91.3 70.7 70.7 0 0095.8 0 61.9 61.9 0 000-91.3zM97.6 99.5a37.5 37.5 0 010-55.7 45.1 45.1 0 0160.8 0 37.5 37.5 0 010 55.7 45.1 45.1 0 01-60.8 0zM165 209.7a55 55 0 01-74 0 46 46 0 010-68 54.7 54.7 0 0174 0 46 46 0 010 68z"/></svg>