<svg xmlns="http://www.w3.org/2000/svg" viewBox="0 0 256 256" width="20" height="20"><path fill="none" d="M0 0h256v256H0z"/><path d="M175.902 130a68.12 68.12 0 00-16.363-11.356 58.783 58.783 0 009.836-7.44 53.632 53.632 0 000-79.075 61.132 61.132 0 00-82.75 0 53.632 53.632 0 000 79.076 58.762 58.762 0 009.837 7.44A68.119 68.119 0 0080.098 130a61.93 61.93 0 000 91.332 70.795 70.795 0 0095.804 0 61.93 61.93 0 000-91.333zM97.576 99.54a37.638 37.638 0 010-55.747 45.14 45.14 0 0160.848 0 37.638 37.638 0 010 55.747 45.138 45.138 0 01-60.848 0zm67.375 110.128a54.8 54.8 0 01-73.902 0 45.936 45.936 0 010-68.002 54.8 54.8 0 0173.902-.001 45.936 45.936 0 010 68.003z"/></svg>