<svg xmlns="http://www.w3.org/2000/svg" viewBox="0 0 256 256" width="20" height="20"><path fill="none" d="M0 0h256v256H0z"/><path d="M183.93 148a12 12 0 11-12-12 12 12 0 0112 12zm29.405 17.287a88.006 88.006 0 01-120.073 59.59 7.952 7.952 0 01-1.157-.506 88.236 88.236 0 01-51.482-69.306l-.004-.039a88.473 88.473 0 01-.69-11.026 87.479 87.479 0 0114.088-47.707A36.022 36.022 0 0170 28a8.002 8.002 0 013.478.795L187.685 83.93A20 20 0 00186 44a8 8 0 010-16 36 36 0 010 72 8.002 8.002 0 01-3.478-.795l-56.264-27.163a72.064 72.064 0 00-70.26 69.255l36.097-19.252.053-.028 32.017-17.076A8 8 0 01135.93 112v103.545a71.812 71.812 0 0061.878-54.117 8 8 0 1115.527 3.86zm-93.405-39.954l-16 8.534v78.005a71.417 71.417 0 0016 3.673zm-55.562-42.13a88.162 88.162 0 0137.091-23.132l-33.144-16a20.007 20.007 0 00-3.947 39.131zm23.562 120.63V142.4l-30.495 16.264a72.18 72.18 0 0030.495 45.169z"/></svg>