<svg xmlns="http://www.w3.org/2000/svg" viewBox="0 0 256 256" width="20" height="20"><path fill="none" d="M0 0h256v256H0z"/><path d="M229.927 70.822c-.026-.049-.046-.099-.074-.147-.011-.02-.026-.04-.038-.06a15.984 15.984 0 00-5.972-5.882l-87.999-49.5a16.095 16.095 0 00-15.688 0l-88.001 49.5a15.994 15.994 0 00-5.987 5.913c-.015.027-.034.051-.05.079-.023.043-.041.088-.065.132A15.982 15.982 0 0024 78.68v98.642a16.021 16.021 0 008.156 13.946l88.001 49.5a15.978 15.978 0 007.235 2.022c.182.014.363.03.548.032h.072c.252 0 .501-.014.747-.037a15.959 15.959 0 007.085-2.017l88-49.5A16.018 16.018 0 00232 177.32V78.68a15.98 15.98 0 00-2.073-7.857zM128 29.179l79.743 44.856-30.62 17.396-80.683-44.5zm.91 89.642L48.379 73.966l31.66-17.809 80.764 44.545zm7.212 103.432l.786-89.574 32.114-18.244v38.076a8 8 0 0016 0v-47.166L216 87.746v89.575z"/></svg>