<svg xmlns="http://www.w3.org/2000/svg" viewBox="0 0 256 256" width="20" height="20"><path fill="none" d="M0 0h256v256H0z"/><path d="M256 204a28 28 0 01-56 0c0-23.042 21.43-44.744 22.343-45.656a8 8 0 0111.314 0C234.57 159.256 256 180.958 256 204zm-123.515-79.509a12 12 0 10-16.97 0 12.015 12.015 0 0016.97 0zm98.48-1.007a8 8 0 00-2.343-5.656L121.138 10.343a8.001 8.001 0 00-11.315 0L69.737 50.43l40.949 40.95a28 28 0 11-11.314 11.313l-40.95-40.949-44.766 44.767a24.029 24.029 0 000 33.94l84.858 84.858a24 24 0 0033.941 0l96.167-96.167a8 8 0 002.343-5.657zM43.515 24.207A8 8 0 0032.2 35.521l26.223 26.222L69.737 50.43z"/></svg>