<svg xmlns="http://www.w3.org/2000/svg" viewBox="0 0 256 256" width="20" height="20"><path fill="none" d="M0 0h256v256H0z"/><path d="M256 204a28 28 0 01-56 0c0-23 21.4-44.7 22.3-45.7a8.2 8.2 0 0111.4 0c.9 1 22.3 22.7 22.3 45.7zm-123.5-79.5a12 12 0 000-17 12.1 12.1 0 00-17 0 12 12 0 0017 17zm98.5-1a8.2 8.2 0 00-2.4-5.7L121.1 10.3a8 8 0 00-11.3 0L69.7 50.4l41 41a28 28 0 11-11.3 11.3l-41-41-44.7 44.8a24 24 0 000 34l84.8 84.8a24.1 24.1 0 0034 0l96.1-96.2a8 8 0 002.4-5.6zM43.5 24.2a8 8 0 00-11.3 11.3l26.2 26.2 11.3-11.3z"/></svg>