<svg xmlns="http://www.w3.org/2000/svg" viewBox="0 0 256 256" width="20" height="20"><path fill="none" d="M0 0h256v256H0z"/><path d="M232 120A104.2 104.2 0 00128 16 104.2 104.2 0 0024 120a8.2 8.2 0 003.2 6.4L120 196v20h-8a8 8 0 000 16h32a8 8 0 000-16h-8v-20l92.8-69.6a8.2 8.2 0 003.2-6.4zm-16.4-8h-39.8c-1.5-37.9-13.9-62.4-25.1-77a88.1 88.1 0 0164.9 77zm-61.2 16L128 175.5 101.6 128zm-71.1 0l19.5 35.1L56 128zm89.4 0H200l-46.8 35.1zm-67.4-93c-11.2 14.6-23.6 39.1-25.1 77H40.4a88.1 88.1 0 0164.9-77z"/></svg>