<svg xmlns="http://www.w3.org/2000/svg" viewBox="0 0 256 256" width="20" height="20"><path fill="none" d="M0 0h256v256H0z"/><path d="M240 108a28 28 0 11-28-28 28.031 28.031 0 0128 28zm-168 0a28 28 0 10-28 28 28.031 28.031 0 0028-28zm20-20a28 28 0 10-28-28 28.031 28.031 0 0028 28zm72 0a28 28 0 10-28-28 28.031 28.031 0 0028 28zm23.092 60.845a35.332 35.332 0 01-16.842-21.124 43.998 43.998 0 00-84.5-.005 35.28 35.28 0 01-16.8 21.105 40.007 40.007 0 0034.572 72.052 64.086 64.086 0 0148.866-.037 40.007 40.007 0 0034.704-71.991z"/></svg>