<svg xmlns="http://www.w3.org/2000/svg" viewBox="0 0 256 256" width="20" height="20"><path fill="none" d="M0 0h256v256H0z"/><path d="M213.638 186.938a104 104 0 10-171.276 0 8.096 8.096 0 00.446.714c.12.171.255.325.386.484a103.914 103.914 0 00169.613 0c.13-.16.265-.313.385-.484a8.096 8.096 0 00.446-.714zM216 128a87.461 87.461 0 01-11.64 43.702L136 123.835V40.367A88.117 88.117 0 01216 128zm-96-87.633v83.468l-68.36 47.867A87.967 87.967 0 01120 40.367zM60.838 184.793L120 143.368v72.265a87.902 87.902 0 01-59.162-30.84zM136 215.633v-72.265l59.162 41.425A87.902 87.902 0 01136 215.633z"/></svg>