<svg xmlns="http://www.w3.org/2000/svg" viewBox="0 0 256 256" width="20" height="20"><path fill="none" d="M0 0h256v256H0z"/><circle cx="127.887" cy="44" r="36"/><path d="M211.675 139.514l-39.33-50.568a7.933 7.933 0 00-.658-.745 27.819 27.819 0 00-19.8-8.201h-48a27.819 27.819 0 00-19.8 8.201 7.933 7.933 0 00-.657.745L44.1 139.514a20 20 0 0028.274 28.274l14.1-10.968-19.833 62.64a20 20 0 0036.238 16.897l25.008-39.359 25.01 39.36a20 20 0 0036.237-16.898l-19.832-62.64 14.1 10.968a20 20 0 0028.273-28.274z"/></svg>