<svg xmlns="http://www.w3.org/2000/svg" viewBox="0 0 256 256" width="20" height="20"><path fill="none" d="M0 0h256v256H0z"/><path d="M232.006 92.69l-68.687-68.688a16.022 16.022 0 00-22.628.001l-25.118 25.119-58.053 21.77a16.045 16.045 0 00-10.165 12.35L26.59 207.84a4 4 0 006.774 3.486l55.084-55.086a32.038 32.038 0 1111.311 11.316l-55.091 55.093a4 4 0 003.486 6.774l124.614-20.77a16.043 16.043 0 0012.35-10.163l21.77-58.054 25.118-25.118a15.999 15.999 0 000-22.628zm-32 32L131.32 56.002l20.686-20.686 68.685 68.686z"/><circle cx="116.006" cy="140.003" r="16"/></svg>