<svg xmlns="http://www.w3.org/2000/svg" viewBox="0 0 256 256" width="20" height="20"><path fill="none" d="M0 0h256v256H0z"/><path d="M228.687 88A15.894 15.894 0 00224 76.687l-44.687-44.688a16.022 16.022 0 00-22.627.001l-120 120a15.953 15.953 0 00-3.569 5.446 7.957 7.957 0 00-.271.76 16.007 16.007 0 00-.846 5.107V208a16.018 16.018 0 0016 16h44.687a16.007 16.007 0 005.158-.864c.239-.073.474-.157.706-.252a15.947 15.947 0 005.449-3.57l83.666-83.667 3.475 13.899-36.798 36.797a8 8 0 0011.314 11.314l40-40a8 8 0 002.104-7.597l-6.902-27.606L224 99.314A15.895 15.895 0 00228.687 88zM192 108.686L147.314 64 168 43.313 212.686 88z"/></svg>