<svg xmlns="http://www.w3.org/2000/svg" viewBox="0 0 256 256" width="20" height="20"><path fill="none" d="M0 0h256v256H0z"/><path d="M201.5 54.5a103.8 103.8 0 00-147 0 103.8 103.8 0 000 147 103.8 103.8 0 00147 0 103.8 103.8 0 000-147zM128 170.9a31.9 31.9 0 00-32.3-9.8L111 128h34l15.3 33.1a31.9 31.9 0 00-32.3 9.8zm40 35.5a89 89 0 01-32 9.2V192a16 16 0 0132 0zm22.2-16.2c-2 2-4.1 3.9-6.2 5.7V176a9.8 9.8 0 00-.7-3.4l-48-104h-.1a4.1 4.1 0 00-.5-.9c0-.1 0-.1-.1-.2l-.5-.7h-.1a4.6 4.6 0 00-.7-.7h-.2l-.7-.6h-.2l-.8-.5h-.1l-.9-.3h-.3l-.9-.2h-2.4l-1 .2h-.2l-.8.3h-.2l-.9.4h-.1l-.7.6h-.2l-.7.7h-.1l-.5.7-.2.2a4.1 4.1 0 01-.5.9l-22.1 48-25.9 56.1a9.8 9.8 0 00-.7 3.4v19.9c-2.1-1.8-4.2-3.7-6.2-5.7a88 88 0 11124.4 0z"/></svg>