<svg xmlns="http://www.w3.org/2000/svg" viewBox="0 0 256 256" width="20" height="20"><path fill="none" d="M0 0h256v256H0z"/><path d="M120 56a32 32 0 1132 32 32.1 32.1 0 01-32-32zm104 77.6a8 8 0 00-8-8 7.8 7.8 0 00-3.7.9h.1c-.1 0-6.5 3.1-18.2 1.9s-29.5-6.4-53.3-25.1c-15-11.7-38.3-24.6-64.4-19.6-15.8 3-24.9 11.1-25.9 12a7.9 7.9 0 00-.5 11.3 8 8 0 0011.3.5c1.1-1 25.8-22.4 64.6 4.6a147.9 147.9 0 01-21.9 44.4l-2.4 3.1c-18.9 24.2-42.1 35-68.9 32.3a8 8 0 10-1.6 16c3.3.3 6.4.4 9.5.4 32.6 0 56.6-17.4 73.2-38.3 19.4 5.2 54.1 20.2 54.1 61.9a8 8 0 0016 0c0-24.7-10.1-45.4-29.2-59.9-10.4-7.9-22-12.8-31.2-15.8a164.5 164.5 0 0016-34.1c25.8 17.9 46.2 22.3 60 22.3s19.5-3.5 20.1-3.9a7.8 7.8 0 004.3-6.9z"/></svg>