<svg xmlns="http://www.w3.org/2000/svg" viewBox="0 0 256 256" width="20" height="20"><path fill="none" d="M0 0h256v256H0z"/><path d="M120.888 108.283l-.043-.048-31.083-34.19c-.016-.02-.033-.037-.05-.055L53.92 34.618a8 8 0 10-11.84 10.764l27.96 30.754a142.754 142.754 0 00-43.863 30.04 56.072 56.072 0 00-4.69 73.878 16.033 16.033 0 0018.55 4.997l47.315-18.926a15.95 15.95 0 009.746-11.719l5.905-29.511a76.196 76.196 0 019.074-2.518l90.004 99.005a8 8 0 1011.84-10.764zm108.936-2.107a144.204 144.204 0 00-109.736-41.96 8 8 0 00-5.483 13.369l94.36 103.799a8.008 8.008 0 002.95 2.047l4.048 1.62a16.034 16.034 0 0018.553-4.998 56.073 56.073 0 00-4.692-73.877z"/></svg>