<svg xmlns="http://www.w3.org/2000/svg" viewBox="0 0 256 256" width="20" height="20"><path fill="none" d="M0 0h256v256H0z"/><path d="M221.972 158.427l-46.838-20.073a15.951 15.951 0 00-15.179 1.394l-25.043 16.693a76.54 76.54 0 01-35.205-35.05l.002-.001 16.635-25.418a15.97 15.97 0 001.32-15.067L97.572 34.027a16.028 16.028 0 00-16.652-9.583A56.07 56.07 0 0032 80c0 79.402 64.598 144 144 144a56.07 56.07 0 0055.556-48.92 16.035 16.035 0 00-9.584-16.653zm-64.62-110.698a72.12 72.12 0 0150.92 50.92 8 8 0 0015.456-4.131 88.164 88.164 0 00-62.246-62.247 8 8 0 00-4.13 15.457zm-8.285 30.917a40.066 40.066 0 0128.287 28.287 8 8 0 0015.457-4.131 56.106 56.106 0 00-39.613-39.614 8 8 0 00-4.13 15.457z"/></svg>