<svg xmlns="http://www.w3.org/2000/svg" viewBox="0 0 256 256" width="20" height="20"><path fill="none" d="M0 0h256v256H0z"/><path d="M221.972 158.427l-46.838-20.073a15.949 15.949 0 00-15.179 1.394l-25.043 16.693a76.54 76.54 0 01-35.205-35.05l.002-.001 16.635-25.418a15.97 15.97 0 001.32-15.067L97.572 34.027a16.036 16.036 0 00-16.652-9.583A56.07 56.07 0 0032 80c0 79.402 64.598 144 144 144a56.07 56.07 0 0055.556-48.92 16.035 16.035 0 00-9.584-16.653z"/><path d="M152.086 97.109c.02.153.04.306.07.457.024.125.059.247.09.37.032.13.061.26.1.39.037.12.082.237.124.355.046.129.089.258.14.384.046.108.098.211.148.317.061.132.12.265.19.393.052.098.111.19.167.284.076.13.15.261.236.388.066.098.14.191.21.286.085.115.165.231.256.342.116.141.242.274.367.406.054.059.102.12.159.176.054.054.114.1.169.153.135.128.27.255.414.374.106.088.218.164.328.245.1.074.197.152.3.221.123.082.249.153.374.227.1.06.197.122.299.176.124.067.251.123.378.183.11.052.219.107.332.154.121.05.245.09.368.134.123.045.245.092.372.13.121.037.245.064.368.096.13.032.259.068.391.095.141.028.284.045.425.065.117.016.231.038.35.05.262.026.525.04.789.04h40a8 8 0 000-16h-20.686l34.343-34.343a8 8 0 00-11.314-11.314L168 76.686V56a8 8 0 00-16 0v39.995c0 .266.014.532.04.797.01.107.031.21.046.317z"/></svg>