<svg xmlns="http://www.w3.org/2000/svg" viewBox="0 0 256 256" width="20" height="20"><path fill="none" d="M0 0h256v256H0z"/><path d="M229.824 90.176c-56.145-56.144-147.5-56.147-203.648 0a56.072 56.072 0 00-4.69 73.878 16.033 16.033 0 0018.55 4.997l47.315-18.926a15.95 15.95 0 009.746-11.719l5.905-29.511a76.516 76.516 0 0149.677-.11v.002l6.21 29.738a15.963 15.963 0 009.721 11.584l47.353 18.942a16.036 16.036 0 0018.553-4.998 56.073 56.073 0 00-4.692-73.877zM216 192H40a8 8 0 000 16h176a8 8 0 000-16z"/></svg>