<svg xmlns="http://www.w3.org/2000/svg" viewBox="0 0 256 256" width="20" height="20"><path fill="none" d="M0 0h256v256H0z"/><path d="M222 158.4l-46.9-20a15.6 15.6 0 00-15.1 1.3l-25.1 16.7a76.5 76.5 0 01-35.2-35L116.3 96a15.9 15.9 0 001.4-15.1L97.6 34a16.3 16.3 0 00-16.7-9.6A56.2 56.2 0 0032 80c0 79.4 64.6 144 144 144a56.2 56.2 0 0055.6-48.9 16.3 16.3 0 00-9.6-16.7zM157.4 47.7a72.6 72.6 0 0150.9 50.9 8 8 0 007.7 6 7.6 7.6 0 002.1-.3 7.9 7.9 0 005.6-9.8 88 88 0 00-62.2-62.2 8 8 0 10-4.1 15.4zm-8.3 30.9a40.4 40.4 0 0128.3 28.3 7.9 7.9 0 007.7 6 6.4 6.4 0 002-.3 7.9 7.9 0 005.7-9.8 55.8 55.8 0 00-39.6-39.6 8 8 0 10-4.1 15.4z"/></svg>