<svg xmlns="http://www.w3.org/2000/svg" viewBox="0 0 256 256" width="20" height="20"><path fill="none" d="M0 0h256v256H0z"/><path d="M221.972 158.427l-46.838-20.073a15.949 15.949 0 00-15.179 1.394l-25.043 16.693a76.54 76.54 0 01-35.205-35.05l.002-.001 16.635-25.418a15.97 15.97 0 001.32-15.067L97.572 34.027a16.03 16.03 0 00-16.652-9.583A56.07 56.07 0 0032 80c0 79.402 64.598 144 144 144a56.07 56.07 0 0055.556-48.92 16.035 16.035 0 00-9.584-16.653z"/><path d="M154.343 101.657a8.002 8.002 0 0011.314 0L184 83.314l18.343 18.343a8 8 0 0011.314-11.314L195.314 72l18.343-18.343a8 8 0 00-11.314-11.314L184 60.686l-18.343-18.343a8 8 0 00-11.314 11.314L172.686 72l-18.343 18.343a8.001 8.001 0 000 11.314z"/></svg>