<svg xmlns="http://www.w3.org/2000/svg" viewBox="0 0 256 256" width="20" height="20"><path fill="none" d="M0 0h256v256H0z"/><path d="M120.9 108.3h-.1L89.8 74h-.1L53.9 34.6a8 8 0 00-11.8 10.8L70 76.1a143.9 143.9 0 00-43.8 30.1 56.1 56.1 0 00-4.7 73.9 16.2 16.2 0 0012.6 6.1 17.1 17.1 0 005.9-1.1l47.4-19a16 16 0 009.7-11.7l5.9-29.5a72.1 72.1 0 019.1-2.5l90 99a8 8 0 005.9 2.6 8.2 8.2 0 005.4-2.1 7.9 7.9 0 00.5-11.3zM229.8 106.2a144.4 144.4 0 00-109.7-42 8 8 0 00-5.5 13.4L209 181.4a7.2 7.2 0 002.9 2l4.1 1.7a17.1 17.1 0 005.9 1.1 16.2 16.2 0 0012.6-6.1 56.1 56.1 0 00-4.7-73.9z"/></svg>