<svg xmlns="http://www.w3.org/2000/svg" viewBox="0 0 256 256" width="20" height="20"><path fill="none" d="M0 0h256v256H0z"/><path d="M221.972 158.427l-46.838-20.073a15.951 15.951 0 00-15.179 1.394l-25.043 16.693a76.54 76.54 0 01-35.205-35.05l.002-.001 16.635-25.418a15.97 15.97 0 001.32-15.067L97.572 34.027a16.028 16.028 0 00-16.652-9.583A56.07 56.07 0 0032 80c0 79.402 64.598 144 144 144a56.07 56.07 0 0055.556-48.92 16.035 16.035 0 00-9.584-16.653z"/><path d="M160 104a7.978 7.978 0 005.657-2.343L200 67.314V88a8 8 0 0016 0V48.005c0-.266-.014-.532-.04-.797-.01-.107-.031-.21-.046-.317a6.996 6.996 0 00-.07-.457c-.024-.125-.059-.246-.09-.37-.032-.13-.061-.26-.1-.39-.037-.12-.082-.236-.124-.355-.046-.129-.089-.257-.14-.384-.046-.108-.098-.211-.148-.317-.061-.132-.12-.264-.19-.393-.051-.098-.111-.19-.167-.284-.076-.13-.15-.261-.236-.388-.066-.098-.14-.191-.21-.286-.084-.115-.165-.231-.256-.342-.116-.141-.242-.274-.367-.406-.054-.059-.102-.12-.159-.176-.053-.053-.111-.099-.166-.15a8.243 8.243 0 00-.417-.377c-.104-.086-.214-.16-.322-.24-.102-.077-.201-.156-.308-.227-.118-.079-.24-.148-.362-.22-.103-.062-.204-.127-.31-.184-.12-.063-.24-.116-.361-.173-.117-.055-.232-.113-.351-.163-.113-.047-.228-.084-.342-.125-.133-.049-.264-.099-.4-.14-.109-.033-.22-.057-.33-.085-.143-.036-.284-.076-.429-.105-.121-.024-.244-.037-.367-.055-.135-.021-.27-.046-.408-.06a8.144 8.144 0 00-.607-.03c-.06-.001-.117-.009-.177-.009h-40a8 8 0 000 16h20.686l-34.343 34.343A8 8 0 00160 104z"/></svg>