<svg xmlns="http://www.w3.org/2000/svg" viewBox="0 0 256 256" width="20" height="20"><path fill="none" d="M0 0h256v256H0z"/><path d="M142 24H68c-.068 0-.135.009-.203.01a7.96 7.96 0 00-.484.025c-.114.01-.227.024-.339.038a7.924 7.924 0 00-.429.065 7.842 7.842 0 00-.392.085 7.853 7.853 0 00-.354.091c-.151.043-.299.092-.446.144-.097.034-.193.068-.289.105a7.894 7.894 0 00-.474.208c-.055.026-.112.046-.168.074-.03.015-.057.034-.088.05a8.09 8.09 0 00-.434.245c-.091.054-.184.108-.274.166-.115.076-.226.157-.337.238-.107.078-.215.155-.317.237-.084.068-.163.141-.244.213-.118.102-.235.204-.345.313-.066.064-.126.133-.189.2-.114.12-.228.24-.333.367-.064.076-.122.157-.182.235-.095.122-.19.243-.277.37-.071.104-.134.213-.201.32-.066.107-.135.212-.195.322-.075.135-.141.275-.209.415-.042.088-.088.175-.127.265-.067.151-.123.308-.18.465-.032.085-.066.169-.094.255-.048.149-.087.3-.127.452-.027.103-.057.206-.08.31-.028.13-.049.262-.07.395-.023.134-.046.267-.062.402-.013.108-.019.216-.027.325a7.48 7.48 0 00-.025.492c0 .035-.005.068-.005.103v132a74.084 74.084 0 0074 74 8 8 0 008-8v-58a74 74 0 000-148zm-16 106.111L80.944 40H126zM76.552 172H126v49.45A58.127 58.127 0 0176.552 172zM142 156V40a58 58 0 010 116z"/></svg>