<svg xmlns="http://www.w3.org/2000/svg" viewBox="0 0 256 256" width="20" height="20"><path fill="none" d="M0 0h256v256H0z"/><path d="M229.7 218.3l-48.4-48.4 3.3-1a59.6 59.6 0 0033.9-31.1 60.4 60.4 0 002-45.9 8.4 8.4 0 00-4.2-4.5 7.6 7.6 0 00-6.1-.2l-44.4 16.1 1-2a60 60 0 00-74.9-81.8 8.4 8.4 0 00-4.5 4.2 7.6 7.6 0 00-.2 6.1l16.1 44.4-2-1a60 60 0 00-81.8 74.9 8.4 8.4 0 004.2 4.5 7.7 7.7 0 003.4.7 6.5 6.5 0 002.7-.5l44.4-16.1-1 2a60 60 0 0054.3 85.4 61.2 61.2 0 0020.6-3.6 8.4 8.4 0 004.5-4.2 7.6 7.6 0 00.2-6.1l-16.1-44.4 2 1a59.6 59.6 0 0022.4 5.6l57.2 57.3a8.2 8.2 0 0011.4 0 8.1 8.1 0 000-11.4zM131.1 36a44.2 44.2 0 013.7 77.9l-29.6-81.4a43.8 43.8 0 0125.9 3.5zm-22.2 168a44.2 44.2 0 01-3.7-77.9l29.6 81.4a43.8 43.8 0 01-25.9-3.5z"/></svg>