<svg xmlns="http://www.w3.org/2000/svg" viewBox="0 0 256 256" width="20" height="20"><path fill="none" d="M0 0h256v256H0z"/><path d="M223.251 115.999A96.03 96.03 0 01128 224a95.503 95.503 0 01-57.96-19.525c24.55-6.154 53.441-18.44 81.96-34.906 28.542-16.479 53.645-35.373 71.251-53.57zM245.779 60c-5.468-9.471-20.316-18.428-59.823-8.479A95.947 95.947 0 0032 128a96.483 96.483 0 00.748 11.994C4.418 169.208 4.755 186.534 10.221 196c3.693 6.397 11.875 12.788 29.813 12.788a117.69 117.69 0 0025.476-3.232 186.6 186.6 0 004.53-1.081 96.85 96.85 0 01-14.243-13.28c-18.655 3.318-29.316.97-31.72-3.195-1.5-2.6-.658-7.485 2.312-13.404a83.041 83.041 0 0110.74-15.619 96.045 96.045 0 0018.668 32.218q2.971-.528 6.21-1.252c23.946-5.372 53.065-17.529 81.993-34.23s54.015-35.84 70.642-53.893q2.272-2.468 4.228-4.799a96.046 96.046 0 00-18.668-32.217 83.296 83.296 0 0118.952-1.504c6.614.387 11.268 2.1 12.769 4.7 2.402 4.16-.884 14.55-13.053 29.021A95.192 95.192 0 01223.25 116a187.023 187.023 0 003.16-3.339C251.696 85.205 250.9 68.87 245.778 60z"/></svg>