<svg xmlns="http://www.w3.org/2000/svg" viewBox="0 0 256 256" width="20" height="20"><path fill="none" d="M0 0h256v256H0z"/><path d="M223.3 116a117.3 117.3 0 01.7 12 96 96 0 01-154 76.5c24.6-6.2 53.5-18.5 82-34.9s53.6-35.4 71.3-53.6zm22.5-56c-5.5-9.5-20.3-18.4-59.8-8.5A96 96 0 0032 128a117.3 117.3 0 00.7 12c-28.3 29.2-27.9 46.5-22.5 56 3.7 6.4 11.9 12.8 29.8 12.8a121.7 121.7 0 0025.5-3.2l4.5-1.1a105 105 0 01-14.2-13.3c-18.7 3.3-29.3 1-31.7-3.2-1.5-2.6-.7-7.5 2.3-13.4A85.7 85.7 0 0137.1 159a95.2 95.2 0 0018.7 32.2l6.2-1.3c24-5.3 53.1-17.5 82-34.2s54-35.8 70.6-53.9a62 62 0 004.3-4.8 95.2 95.2 0 00-18.7-32.2 83.9 83.9 0 0119-1.5c6.6.4 11.2 2.1 12.7 4.7 2.4 4.2-.9 14.5-13 29a107.3 107.3 0 014.4 19l3.1-3.3c25.3-27.5 24.5-43.8 19.4-52.7z"/></svg>