<svg xmlns="http://www.w3.org/2000/svg" viewBox="0 0 256 256" width="20" height="20"><path fill="none" d="M0 0h256v256H0z"/><path d="M237.7 29.7L211.3 56l5.4 5.4a31.9 31.9 0 010 45.2L191.3 132l2.4 2.3a8.1 8.1 0 010 11.4 8.2 8.2 0 01-11.4 0l-8-8-56-56-8-8a8.1 8.1 0 0111.4-11.4l2.3 2.4 25.4-25.4a31.9 31.9 0 0145.2 0l5.4 5.4 26.3-26.4a8.1 8.1 0 0111.4 11.4zm-99.4 108.6L120 156.7 99.3 136l18.4-18.3a8.1 8.1 0 00-11.4-11.4L88 124.7l-6.3-6.4-8-8a8.1 8.1 0 00-11.4 11.4l2.4 2.3-25.4 25.4a31.9 31.9 0 000 45.2l5.4 5.4-26.4 26.3a8.1 8.1 0 000 11.4 8.2 8.2 0 0011.4 0L56 211.3l5.4 5.4a31.9 31.9 0 0045.2 0l25.4-25.4 2.3 2.4a8.2 8.2 0 0011.4 0 8.1 8.1 0 000-11.4l-8-8-6.4-6.3 18.4-18.3a8.1 8.1 0 00-11.4-11.4z"/></svg>