<svg xmlns="http://www.w3.org/2000/svg" viewBox="0 0 256 256" width="20" height="20"><path fill="none" d="M0 0h256v256H0z"/><path d="M202.16 200.833a103.806 103.806 0 000-145.666 7.397 7.397 0 00-1.326-1.327 103.806 103.806 0 00-145.668 0 7.397 7.397 0 00-1.327 1.327 103.806 103.806 0 000 145.666 7.39 7.39 0 001.328 1.327 103.806 103.806 0 00145.666 0 7.39 7.39 0 001.328-1.327zM40.369 136h24.15a63.67 63.67 0 0012.956 31.212l-17.07 17.069A87.606 87.606 0 0140.369 136zm20.037-64.28l17.069 17.068A63.67 63.67 0 0064.518 120h-24.15a87.606 87.606 0 0120.037-48.28zM215.632 120h-24.15a63.67 63.67 0 00-12.956-31.212l17.07-17.069A87.606 87.606 0 01215.631 120zm-48.42-42.527A63.668 63.668 0 00136 64.518v-24.15a87.608 87.608 0 0148.28 20.037zM120 64.518a63.668 63.668 0 00-31.212 12.955L71.72 60.405A87.608 87.608 0 01120 40.367zM88.788 178.527A63.668 63.668 0 00120 191.482v24.15a87.608 87.608 0 01-48.28-20.037zM136 191.482a63.668 63.668 0 0031.212-12.955l17.069 17.068A87.608 87.608 0 01136 215.633zm42.526-24.27A63.67 63.67 0 00191.482 136h24.15a87.606 87.606 0 01-20.037 48.28z"/></svg>