<svg xmlns="http://www.w3.org/2000/svg" viewBox="0 0 256 256" width="20" height="20"><path fill="none" d="M0 0h256v256H0z"/><path d="M230.6 49.4a31.9 31.9 0 00-45.2 0 30.2 30.2 0 00-5.2 6.7L152 48.4a32 32 0 00-54.6-23 32 32 0 00-5.8 37.4L57.7 93.3a32 32 0 00-40.3 4.1 31.9 31.9 0 000 45.2A31.6 31.6 0 0040 152a32.1 32.1 0 0020.3-7.2l70 51.3a32 32 0 007.1 34.5 31.9 31.9 0 0045.2 0 31.9 31.9 0 000-45.2 43.3 43.3 0 00-4.7-4l27.3-77.5h2.8a31.6 31.6 0 0022.6-9.4 31.9 31.9 0 000-45.1zm-67.8 126.7a32.4 32.4 0 00-23.1 7.1l-70-51.3a32.4 32.4 0 00-1.3-26.7l33.9-30.5A32.4 32.4 0 00120 80a31.6 31.6 0 0022.6-9.4 30.2 30.2 0 005.2-6.7l28.2 7.7a31.6 31.6 0 009.4 23 43.3 43.3 0 004.7 4z"/></svg>