<svg xmlns="http://www.w3.org/2000/svg" viewBox="0 0 256 256" width="20" height="20"><path fill="none" d="M0 0h256v256H0z"/><path d="M224.1 79.9l-.3-.4A43.9 43.9 0 00168 41.7a44 44 0 00-80 0 43.9 43.9 0 00-55.8 37.8l-.3.4a15.7 15.7 0 00-4.6 15.2l27.5 116.6A15.9 15.9 0 0070.3 224h115.4a15.9 15.9 0 0015.5-12.3l27.5-116.6a15.7 15.7 0 00-4.6-15.2zM76 56a27.4 27.4 0 0113.1 3.3 8.4 8.4 0 007.1.2 8.2 8.2 0 004.5-5.6 28 28 0 0154.6 0 8.2 8.2 0 004.5 5.6 8.4 8.4 0 007.1-.2A27.4 27.4 0 01180 56a28 28 0 0127 20.5l-38.6 11.1-34.5-13.8a15.1 15.1 0 00-11.8 0L87.6 87.6 49 76.5A28 28 0 0176 56zM42.9 91.4l37.9 10.9L94.9 208H70.3zM185.7 208h-24.6l14.1-105.7 37.9-10.9z"/></svg>