<svg xmlns="http://www.w3.org/2000/svg" viewBox="0 0 256 256" width="20" height="20"><path fill="none" d="M0 0h256v256H0z"/><path d="M216 40h-80V24a8 8 0 00-16 0v16H40a16.018 16.018 0 00-16 16v120a16.018 16.018 0 0016 16h39.355l-21.602 27.003a8 8 0 1012.494 9.994L99.845 192h56.31l29.598 36.997a8 8 0 0012.494-9.994L176.645 192H216a16.018 16.018 0 0016-16V56a16.018 16.018 0 00-16-16zM104 144a8 8 0 01-16 0v-24a8 8 0 0116 0zm32 0a8 8 0 01-16 0v-40a8 8 0 0116 0zm32 0a8 8 0 01-16 0V88a8 8 0 0116 0z"/></svg>