<svg xmlns="http://www.w3.org/2000/svg" viewBox="0 0 256 256" width="20" height="20"><path fill="none" d="M0 0h256v256H0z"/><path d="M231.999 107.314l-58.527 58.528c4.556 12.68 6.445 33.89-13.19 59.986a15.97 15.97 0 01-11.646 6.33q-.563.04-1.124.04a16.004 16.004 0 01-11.32-4.692L88 179.314l-34.343 34.343a8 8 0 01-11.314-11.314L76.686 168l-48.39-48.39a16.013 16.013 0 011.283-23.786c25.426-20.512 49.762-16.472 60.414-13.131L148.686 24v-.001a16.021 16.021 0 0122.628 0L232 84.687a15.999 15.999 0 01-.001 22.627z"/></svg>