<svg xmlns="http://www.w3.org/2000/svg" viewBox="0 0 256 256" width="20" height="20"><path fill="none" d="M0 0h256v256H0z"/><path d="M213.92 210.619a8 8 0 01-11.84 10.762l-26.423-29.065c-2.455 14.173-9.886 26.216-15.375 33.511a15.969 15.969 0 01-11.646 6.33q-.563.04-1.124.04a16.004 16.004 0 01-11.32-4.691L88 179.314l-34.343 34.343a8 8 0 01-11.314-11.314L76.686 168l-48.39-48.39a16.013 16.013 0 011.283-23.786c16.177-13.05 31.91-16.16 43.96-15.838L42.08 45.381A8 8 0 0153.92 34.62zM232 84.687l-60.687-60.688a16.022 16.022 0 00-22.627.001L110.71 61.976a8 8 0 00-.263 11.038l68.572 75.429a8.001 8.001 0 005.73 2.616c.063.002.126.003.19.003a8.001 8.001 0 005.657-2.344l41.403-41.404A15.999 15.999 0 00232 84.687z"/></svg>