<svg xmlns="http://www.w3.org/2000/svg" viewBox="0 0 256 256" width="20" height="20"><path fill="none" d="M0 0h256v256H0z"/><path d="M213.382 221.92a8 8 0 01-11.302-.539L168.097 184H136v56a8 8 0 01-16 0v-56H56.154a7.034 7.034 0 01-.29 0H40a8 8 0 010-16h9.288l16.95-96.045L42.08 45.38a8 8 0 0111.84-10.76l75.217 82.739 48.42 53.26.002.004 36.361 39.997a8 8 0 01-.538 11.3zm-22.887-60.853a8 8 0 0013.798-6.772L185.535 48H192a8 8 0 000-16H91.2a8 8 0 00-7.941 7.544 7.926 7.926 0 00-.009.723 7.973 7.973 0 002.099 5.139z"/></svg>