<svg xmlns="http://www.w3.org/2000/svg" viewBox="0 0 256 256" width="20" height="20"><path fill="none" d="M0 0h256v256H0z"/><path d="M213.9 210.6a7.9 7.9 0 01-.5 11.3 8.2 8.2 0 01-5.4 2.1 8 8 0 01-5.9-2.6l-26.4-29.1c-2.5 14.2-9.9 26.2-15.4 33.5a16.3 16.3 0 01-11.7 6.4h-1.1a16.1 16.1 0 01-11.3-4.7L88 179.3l-34.3 34.4a8.2 8.2 0 01-11.4 0 8.1 8.1 0 010-11.4L76.7 168l-48.4-48.4a15.9 15.9 0 011.3-23.8c16.2-13 31.9-16.1 43.9-15.8L42.1 45.4a8 8 0 0111.8-10.8zM232 84.7L171.3 24a16.1 16.1 0 00-22.6 0l-38 38a8 8 0 00-.3 11l68.6 75.4a8.1 8.1 0 005.7 2.7h.2a8 8 0 005.7-2.4l41.4-41.4a15.9 15.9 0 000-22.6z"/></svg>