<svg xmlns="http://www.w3.org/2000/svg" viewBox="0 0 256 256" width="20" height="20"><path fill="none" d="M0 0h256v256H0z"/><path d="M165.78 224.001L208 224a16.018 16.018 0 0016-16v-37.651a8 8 0 00-11.06-7.392 23.255 23.255 0 01-8.94 1.77c-13.233 0-24-11.092-24-24.727s10.767-24.728 24-24.728a23.255 23.255 0 018.94 1.771 8 8 0 0011.06-7.392V72a16.018 16.018 0 00-16.001-16l-36.217.001A36.61 36.61 0 00172 52a36 36 0 00-72 0 36.61 36.61 0 00.217 4.001L64 56a16.018 16.018 0 00-16 16v32.218a36.475 36.475 0 00-4-.218 36 36 0 000 72 36.475 36.475 0 004-.218V208a16.018 16.018 0 0015.999 16l42.22.001"/></svg>