<svg xmlns="http://www.w3.org/2000/svg" viewBox="0 0 256 256" width="20" height="20"><path fill="none" d="M0 0h256v256H0z"/><rect x="40.002" y="40" width="80" height="80" rx="16"/><rect x="40.002" y="136" width="80" height="80" rx="16"/><rect x="136.002" y="40" width="80" height="80" rx="16"/><path d="M144.002 184a8 8 0 008-8v-32a8 8 0 00-16 0v32a8 8 0 008 8z"/><path d="M208.002 152h-24v-8a8 8 0 00-16 0v56h-24a8 8 0 100 16h32a8 8 0 008-8v-40h24a8 8 0 000-16zm0 32a8 8 0 00-8 8v16a8 8 0 0016 0v-16a8 8 0 00-8-8z"/></svg>