<svg xmlns="http://www.w3.org/2000/svg" viewBox="0 0 256 256" width="20" height="20"><path fill="none" opacity=".1" d="M0 0h256v256H0z"/><path fill="none" d="M0 0h256v256H0z"/><path d="M116 72v88a48.054 48.054 0 01-48 48 8 8 0 010-16 32.036 32.036 0 0032-32v-8H40a16.018 16.018 0 01-16-16V72a16.018 16.018 0 0116-16h60a16.018 16.018 0 0116 16zm100-16h-60a16.018 16.018 0 00-16 16v64a16.018 16.018 0 0016 16h60v8a32.036 32.036 0 01-32 32 8 8 0 000 16 48.054 48.054 0 0048-48V72a16.018 16.018 0 00-16-16z"/></svg>