<svg xmlns="http://www.w3.org/2000/svg" viewBox="0 0 256 256" width="20" height="20"><path fill="none" d="M0 0h256v256H0z"/><path d="M248 160a48.054 48.054 0 01-48 48h-48c-17.645 0-32-14.754-32-32.889s14.355-32.888 32-32.888a31.542 31.542 0 013.335.175A48.005 48.005 0 01248 160zM112 72a87.532 87.532 0 0161.348 24.91 8 8 0 0011.155-11.47A104 104 0 008 160v16a8 8 0 0016 0v-16a88.1 88.1 0 0188-88zm0 32a55.551 55.551 0 0133.128 10.845 8 8 0 109.477-12.89A72.005 72.005 0 0040 160v16a8 8 0 0016 0v-16a56.063 56.063 0 0156-56zm15.205 26.713a8 8 0 00-5.936-9.631A40.025 40.025 0 0072 160v16a8 8 0 0016 0v-16a24.03 24.03 0 0129.574-23.352 7.996 7.996 0 009.631-5.935z"/></svg>