<svg xmlns="http://www.w3.org/2000/svg" viewBox="0 0 256 256" width="20" height="20"><path fill="none" d="M0 0h256v256H0z"/><path d="M248 104a31.992 31.992 0 00-52.938-24.19c-16.754-8.902-36.761-14.28-57.666-15.526l5.196-31.176 21.831 3.359a24.004 24.004 0 102.435-15.814l-29.642-4.56a7.996 7.996 0 00-9.107 6.592l-6.913 41.478c-21.839.941-42.813 6.378-60.258 15.647a31.993 31.993 0 00-42.593 47.74A59.047 59.047 0 0016 144c0 21.935 12.042 42.352 33.907 57.49C70.875 216.005 98.61 224 128 224s57.125-7.994 78.093-22.51C227.958 186.351 240 165.934 240 144a59.017 59.017 0 00-2.346-16.45A32.172 32.172 0 00248 104zM72 132a16 16 0 1116 16 16.018 16.018 0 01-16-16zm92.696 51.11a80.122 80.122 0 01-73.392 0 8 8 0 017.34-14.217 64.094 64.094 0 0058.711 0 8 8 0 017.341 14.216zM168 148a16 16 0 1116-16 16.018 16.018 0 01-16 16z"/></svg>