<svg xmlns="http://www.w3.org/2000/svg" viewBox="0 0 256 256" width="20" height="20"><path fill="none" d="M0 0h256v256H0z"/><path d="M248 104a32 32 0 00-52.9-24.2c-16.8-8.9-36.8-14.3-57.7-15.5l5.2-31.2 21.8 3.4a24.2 24.2 0 102.5-15.8l-29.7-4.6a8 8 0 00-9.1 6.6l-6.9 41.5c-21.8.9-42.8 6.3-60.3 15.6a32 32 0 00-42.6 47.7A61.4 61.4 0 0016 144c0 21.9 12 42.4 33.9 57.5S98.6 224 128 224s57.1-8 78.1-22.5S240 165.9 240 144a60.1 60.1 0 00-2.3-16.4A32.4 32.4 0 00248 104zM72 132a16 16 0 1116 16 16 16 0 01-16-16zm92.7 51.1a80.1 80.1 0 01-73.4 0 8 8 0 017.3-14.2 64.2 64.2 0 0058.8 0 8 8 0 017.3 14.2zM168 148a16 16 0 1116-16 16 16 0 01-16 16z"/></svg>