<svg xmlns="http://www.w3.org/2000/svg" viewBox="0 0 256 256" width="20" height="20"><path fill="none" d="M0 0h256v256H0z"/><path d="M144 216h-32a8 8 0 000 16h32a8 8 0 000-16z"/><path d="M219.629 143.859l-30.237-36.284a124.523 124.523 0 00-7.98-34.884c-11.617-30.212-32.156-49.999-43.365-59.105a16.077 16.077 0 00-20.078-.067c-11.356 9.097-32.158 28.87-43.893 59.086a122.762 122.762 0 00-8.097 35.724l-29.608 35.53a16.1 16.1 0 00-3.328 13.714l12.363 55.633a15.985 15.985 0 0025.614 9.023L98.806 200h58.388l27.785 22.229a15.912 15.912 0 009.965 3.517 16.09 16.09 0 005.347-.92 15.906 15.906 0 0010.303-11.62l12.363-55.632a16.102 16.102 0 00-3.328-13.715zM61.025 209.735l-12.363-55.633 17.927-21.513q3.409 28.037 19.14 57.383zM128 108a12 12 0 1112-12 12 12 0 01-12 12zm66.975 101.735l-24.75-19.8q15.53-29.552 18.743-57.877l18.37 22.044z"/></svg>