<svg xmlns="http://www.w3.org/2000/svg" viewBox="0 0 256 256" width="20" height="20"><path fill="none" d="M0 0h256v256H0z"/><path d="M96.589 176.979a8.001 8.001 0 00-10.12 5.06c-6.553 19.659-27.895 25.747-40.137 27.63 1.883-12.249 7.972-33.586 27.63-40.138a8 8 0 10-5.06-15.18c-16.361 5.454-28.38 18.451-34.758 37.588a92.733 92.733 0 00-4.654 26.57 8 8 0 008 8 92.736 92.736 0 0026.571-4.652c19.136-6.379 32.133-18.398 37.587-34.758a8.001 8.001 0 00-5.06-10.12z"/><path d="M227.612 41.82a15.879 15.879 0 00-13.433-13.432c-11.286-1.684-40.621-2.513-69.21 26.073L136 63.43H74.745a15.901 15.901 0 00-11.314 4.687L31.089 100.46a16 16 0 008.177 27.002L78.8 135.37l41.83 41.83 7.906 39.534a15.998 15.998 0 0027.004 8.176l32.342-32.342a15.896 15.896 0 004.685-11.313V120l8.971-8.97c28.588-28.589 27.758-57.924 26.073-69.21zM74.745 79.432H120l-39.884 39.883-37.713-7.542zm101.823 101.823l-32.341 32.342-7.543-37.712L176.568 136z"/></svg>