<svg xmlns="http://www.w3.org/2000/svg" viewBox="0 0 256 256" width="20" height="20"><path fill="none" d="M0 0h256v256H0z"/><path d="M144 216h-32a8 8 0 000 16h32a8 8 0 000-16z"/><path d="M219.6 143.9l-30.2-36.3a125.4 125.4 0 00-8-34.9c-11.6-30.2-32.1-50-43.4-59.1a15.9 15.9 0 00-20-.1c-11.4 9.1-32.2 28.9-43.9 59.1a121.5 121.5 0 00-8.1 35.7l-29.6 35.6a16.1 16.1 0 00-3.4 13.7l12.4 55.6a15.9 15.9 0 0010.3 11.6 17 17 0 005.4.9 16 16 0 009.9-3.5L98.8 200h58.4l27.8 22.2a16 16 0 009.9 3.5 17 17 0 005.4-.9 15.9 15.9 0 0010.3-11.6l12.4-55.6a16.1 16.1 0 00-3.4-13.7zM61 209.7l-12.3-55.6 17.9-21.5q3.5 28.1 19.1 57.4zM128 108a12 12 0 1112-12 12 12 0 01-12 12zm67 101.7l-24.8-19.8c10.4-19.7 16.6-39 18.8-57.8l18.3 22z"/></svg>