<svg xmlns="http://www.w3.org/2000/svg" viewBox="0 0 256 256" width="20" height="20"><path fill="none" d="M0 0h256v256H0z"/><path d="M96.6 177a7.9 7.9 0 00-10.1 5c-6.6 19.7-27.9 25.8-40.2 27.7 1.9-12.3 8-33.6 27.7-40.2a8 8 0 10-5.1-15.1c-16.4 5.4-28.4 18.4-34.8 37.5a91.8 91.8 0 00-4.6 26.6 8 8 0 008 8 91.8 91.8 0 0026.6-4.6c19.1-6.4 32.1-18.4 37.5-34.8a7.9 7.9 0 00-5-10.1z"/><path d="M227.6 41.8a15.7 15.7 0 00-13.4-13.4c-11.3-1.7-40.6-2.5-69.2 26.1l-9 8.9H74.7a16.2 16.2 0 00-11.3 4.7l-32.3 32.4a15.9 15.9 0 00-4 15.9 16 16 0 0012.2 11.1l39.5 7.9 41.8 41.8 7.9 39.5a16 16 0 0011.1 12.2 14.7 14.7 0 004.6.7 15.6 15.6 0 0011.3-4.7l32.4-32.3a16.2 16.2 0 004.7-11.3V120l8.9-9c28.6-28.6 27.8-57.9 26.1-69.2zM74.7 79.4H120l-39.9 39.9-37.7-7.5zm101.9 101.9l-32.4 32.3-7.5-37.7 39.9-39.9z"/></svg>