<svg xmlns="http://www.w3.org/2000/svg" viewBox="0 0 256 256" width="20" height="20"><path fill="none" d="M0 0h256v256H0z"/><path d="M98.9 157.1A71.6 71.6 0 01120 208a8 8 0 01-16 0 56 56 0 00-56-56 8 8 0 010-16 71.6 71.6 0 0150.9 21.1zM48 88a8 8 0 000 16 102.9 102.9 0 0173.5 30.5A102.9 102.9 0 01152 208a8 8 0 0016 0 119.2 119.2 0 00-35.2-84.9A119.3 119.3 0 0048 88zm118.8 1.2A166.9 166.9 0 0048 40a8 8 0 000 16 151.1 151.1 0 01107.5 44.5A151.1 151.1 0 01200 208a8 8 0 0016 0 166.9 166.9 0 00-49.2-118.8zM52 192a12 12 0 1012 12 12 12 0 00-12-12z"/></svg>