<svg xmlns="http://www.w3.org/2000/svg" viewBox="0 0 256 256" width="20" height="20"><path fill="none" d="M0 0h256v256H0z"/><path d="M98.906 157.088A71.531 71.531 0 01119.994 208a8 8 0 01-16 0 56 56 0 00-56-56 8 8 0 110-16 71.531 71.531 0 0150.912 21.088zM47.994 88a8 8 0 100 16 104.002 104.002 0 01104 104 8 8 0 0016 0 120 120 0 00-120-120zm118.794 1.206A166.906 166.906 0 0047.994 40a8 8 0 000 16 151.005 151.005 0 01107.48 44.52A151.003 151.003 0 01199.995 208a8 8 0 0016 0 166.902 166.902 0 00-49.206-118.794zM51.994 192a12 12 0 1012 12 12.013 12.013 0 00-12-12z"/></svg>