<svg xmlns="http://www.w3.org/2000/svg" viewBox="0 0 256 256" width="20" height="20"><path fill="none" d="M0 0h256v256H0z"/><path d="M157.732 113.13a8 8 0 012.085-11.12l67.665-46.297a8 8 0 019.036 13.205l-67.666 46.298a7.998 7.998 0 01-11.12-2.085zm80.87 85.072a7.998 7.998 0 01-11.12 2.085L136 137.694l-42.506 29.083a36.034 36.034 0 11-9.05-13.195L121.832 128l-37.389-25.582a35.846 35.846 0 119.05-13.194l143.025 97.858a8 8 0 012.085 11.12zM80 180a20 20 0 10-5.858 14.142A19.867 19.867 0 0080 180zm-5.858-89.858a20 20 0 10-28.284 0 19.867 19.867 0 0028.284 0z"/></svg>