<svg xmlns="http://www.w3.org/2000/svg" viewBox="0 0 256 256" width="20" height="20"><path fill="none" d="M0 0h256v256H0z"/><path d="M32 184a8 8 0 000 16 8 8 0 018 8 8 8 0 0016 0 24.1 24.1 0 00-24-24z"/><path d="M32 152a8 8 0 000 16 40 40 0 0140 40 8 8 0 0016 0 56 56 0 00-56-56z"/><path d="M32 120a8 8 0 000 16 72.1 72.1 0 0172 72 8 8 0 0016 0 88.1 88.1 0 00-88-88z"/><path d="M216 40H40a16 16 0 00-16 16v40a8 8 0 008 8 104.2 104.2 0 01104 104 8 8 0 008 8h72a16 16 0 0016-16V56a16 16 0 00-16-16z"/></svg>