<svg xmlns="http://www.w3.org/2000/svg" viewBox="0 0 256 256" width="20" height="20"><path fill="none" d="M0 0h256v256H0z"/><path d="M246.146 154.878c-1.243-1.49-22.928-27.037-59.822-41.35-2.11-17.82-8.891-34.061-19.615-46.617C151.671 49.306 129.986 40 104 40c-51.524 0-85.105 46.184-86.51 48.15a8 8 0 0013.013 9.31C30.8 97.045 60.813 56 104 56c21.161 0 38.639 7.366 50.542 21.303a69.156 69.156 0 0114.696 30.792A136.929 136.929 0 00136 104c-26.06 0-47.938 6.81-63.268 19.692-13.56 11.395-21.336 27.271-21.336 43.557a47.588 47.588 0 0013.872 34.054C74.928 210.918 88.322 216 104 216c25.223 0 46.688-9.976 62.075-28.85 12.215-14.983 19.652-35.096 20.799-55.901 29.382 13.267 46.731 33.576 46.98 33.873a8 8 0 1012.291-10.244zM104 200c-25.286 0-36.604-16.45-36.604-32.751C67.396 144.492 88.864 120 136 120a120.001 120.001 0 0135.03 5.273v.33c0 36.97-23.024 74.397-67.03 74.397z"/></svg>