<svg xmlns="http://www.w3.org/2000/svg" viewBox="0 0 256 256" width="20" height="20"><path fill="none" d="M0 0h256v256H0z"/><path d="M148 48a8 8 0 01-8 8h-24a8 8 0 010-16h24a8 8 0 018 8zm-8 152h-24a8 8 0 000 16h24a8 8 0 000-16zm40-144h20v20a8 8 0 0016 0V56a16 16 0 00-16-16h-20a8 8 0 000 16zm28 52a8 8 0 00-8 8v24a8 8 0 0016 0v-24a8 8 0 00-8-8zM48 148a8 8 0 008-8v-24a8 8 0 00-16 0v24a8 8 0 008 8zm28 52H56v-20a8 8 0 00-16 0v20a16 16 0 0016 16h20a8 8 0 000-16zm0-160H56a16 16 0 00-16 16v20a8 8 0 0016 0V56h20a8 8 0 000-16zm160 160h-20v-20a8 8 0 00-16 0v20h-20a8 8 0 000 16h20v20a8 8 0 0016 0v-20h20a8 8 0 000-16z"/></svg>