<svg xmlns="http://www.w3.org/2000/svg" viewBox="0 0 256 256" width="20" height="20"><path fill="none" d="M0 0h256v256H0z"/><path d="M104 40a8 8 0 018-8h32a8 8 0 010 16h-32a8 8 0 01-8-8zm40 168h-32a8 8 0 000 16h32a8 8 0 000-16zm64-176h-24a8 8 0 000 16h24v24a8 8 0 0016 0V48a16 16 0 00-16-16zm8 72a8 8 0 00-8 8v32a8 8 0 0016 0v-32a8 8 0 00-8-8zM40 152a8 8 0 008-8v-32a8 8 0 00-16 0v32a8 8 0 008 8zm32 56H48v-24a8 8 0 00-16 0v24a16 16 0 0016 16h24a8 8 0 000-16zM53.9 34.6a8 8 0 00-11.8 10.8l160 176a8 8 0 005.9 2.6 8.2 8.2 0 005.4-2.1 7.9 7.9 0 00.5-11.3z"/></svg>