<svg xmlns="http://www.w3.org/2000/svg" viewBox="0 0 256 256" width="20" height="20"><path fill="none" d="M0 0h256v256H0z"/><path d="M228.465 226.618l-38.645-42.51-.008-.01-81.207-89.326-69.23-76.154a8 8 0 00-11.84 10.764l7.922 8.715A15.91 15.91 0 0032 48v58.667c0 89.451 75.826 119.124 91.026 124.164a15.49 15.49 0 009.948 0 148.267 148.267 0 0050.558-29.852l33.093 36.403a8 8 0 1011.84-10.764zm-31.377-58.3a8.001 8.001 0 0013.025-1.703C219.328 148.817 224 128.648 224 106.667V48a16.018 16.018 0 00-16-16H91.247a8 8 0 00-5.92 13.382z"/></svg>