<svg xmlns="http://www.w3.org/2000/svg" viewBox="0 0 256 256" width="20" height="20"><path fill="none" d="M0 0h256v256H0z"/><path d="M239.914 182.89c-.02-.152-.04-.305-.07-.456-.024-.125-.059-.246-.09-.37-.032-.13-.061-.26-.1-.39-.037-.12-.082-.237-.124-.355-.046-.129-.089-.258-.14-.384-.046-.108-.098-.211-.148-.317-.061-.132-.12-.264-.19-.394-.052-.097-.111-.188-.167-.283-.076-.13-.15-.261-.236-.388-.066-.099-.14-.19-.21-.287-.085-.114-.165-.23-.256-.341-.116-.141-.242-.274-.367-.407-.054-.057-.102-.119-.159-.175l-24-24a8 8 0 00-11.314 11.314L212.687 176l-40.57.001-75.215-105.3A16.03 16.03 0 0083.882 64H32a8 8 0 000 16l51.883-.001 75.215 105.3a16.03 16.03 0 0013.02 6.701h40.568l-10.343 10.343a8 8 0 0011.314 11.314l24-24c.057-.056.105-.118.159-.175.125-.133.25-.266.367-.407.091-.11.171-.227.255-.341.07-.096.145-.188.211-.287.085-.127.16-.258.236-.388.056-.095.115-.186.167-.283.07-.13.129-.262.19-.394.05-.106.102-.209.147-.317.052-.126.095-.255.14-.384.043-.118.088-.235.125-.355.039-.13.068-.26.1-.39.031-.123.066-.245.09-.37.03-.151.049-.304.07-.457.015-.106.035-.21.046-.317a8.023 8.023 0 000-1.584c-.01-.107-.031-.211-.046-.317z"/><path d="M143.012 106.982a7.998 7.998 0 0011.16-1.859L172.117 80h40.569l-10.343 10.343a8 8 0 0011.314 11.314l24-24c.057-.056.105-.118.159-.175.125-.133.25-.266.367-.407.091-.11.171-.227.255-.341.07-.096.145-.188.211-.287.085-.127.16-.258.236-.388.056-.095.115-.186.167-.283.07-.13.129-.262.19-.394.05-.106.102-.209.147-.317.052-.126.095-.255.14-.384.043-.118.088-.235.125-.355.039-.13.068-.26.1-.39.031-.124.066-.245.09-.37.03-.151.05-.304.07-.457.015-.106.035-.21.046-.317a8.023 8.023 0 000-1.584c-.01-.107-.031-.211-.046-.317-.02-.153-.04-.306-.07-.457-.024-.125-.059-.246-.09-.37-.032-.13-.061-.26-.1-.39-.037-.12-.082-.237-.124-.355-.046-.129-.089-.258-.14-.384-.046-.108-.098-.211-.148-.317-.061-.132-.12-.264-.19-.394-.052-.097-.111-.188-.167-.283-.076-.13-.15-.261-.236-.388-.066-.099-.14-.19-.21-.287-.085-.114-.165-.23-.256-.341-.116-.141-.242-.274-.367-.407-.054-.057-.102-.119-.159-.175l-24-24a8 8 0 00-11.314 11.314L212.686 64h-40.569a16.032 16.032 0 00-13.02 6.7l-17.945 25.122a8 8 0 001.86 11.16zM112.988 149.018a8 8 0 00-11.16 1.859L83.883 176H32a8 8 0 000 16h51.883a16.032 16.032 0 0013.02-6.7l17.945-25.122a8 8 0 00-1.86-11.16z"/></svg>