<svg xmlns="http://www.w3.org/2000/svg" viewBox="0 0 256 256" width="20" height="20"><path fill="none" d="M0 0h256v256H0z"/><path d="M216 48v40a8 8 0 01-4.9 7.4 8.5 8.5 0 01-3.1.6 8.3 8.3 0 01-5.7-2.3L188 79.3 156.3 111a8 8 0 01-5.7 2.4 7.7 7.7 0 01-5.6-2.4 7.9 7.9 0 010-11.3L176.7 68l-14.4-14.3a8.4 8.4 0 01-1.7-8.8A8 8 0 01168 40h40a8 8 0 018 8zm-4.9 112.6a8.4 8.4 0 00-8.8 1.7L188 176.7 53.7 42.3a8.1 8.1 0 00-11.4 11.4L176.7 188l-14.4 14.3a8.4 8.4 0 00-1.7 8.8 8 8 0 007.4 4.9h40a8 8 0 008-8v-40a8 8 0 00-4.9-7.4zM99.7 145l-57.4 57.3a8.1 8.1 0 000 11.4 8.2 8.2 0 0011.4 0l57.3-57.4A8 8 0 0099.7 145z"/></svg>