<svg xmlns="http://www.w3.org/2000/svg" viewBox="0 0 256 256" width="20" height="20"><path fill="none" d="M0 0h256v256H0z"/><path d="M214.424 212.754c.076-.103.155-.203.226-.309.083-.123.154-.25.23-.376.057-.098.119-.194.173-.295.068-.127.126-.257.186-.386.05-.108.105-.213.15-.324.052-.125.094-.252.14-.38.042-.12.088-.237.125-.359.039-.128.068-.258.1-.387.03-.124.066-.246.09-.372.03-.151.049-.304.07-.456.015-.106.035-.21.046-.318a7.97 7.97 0 00.04-.797V168a8 8 0 00-16 0v20.686L53.657 42.343a8 8 0 10-11.314 11.314L188.686 200H168a8 8 0 000 16h40c.264 0 .527-.014.79-.04.116-.011.23-.033.345-.05.143-.02.287-.037.429-.065.13-.026.258-.062.386-.094.125-.032.25-.06.374-.097.126-.038.246-.085.369-.129.124-.044.248-.085.37-.135.114-.047.224-.103.335-.156.125-.059.252-.114.374-.18.105-.056.206-.12.308-.181.122-.073.245-.142.364-.222.11-.073.213-.156.32-.234.102-.077.208-.15.309-.231.173-.143.338-.296.499-.452.028-.027.058-.05.085-.077.03-.03.056-.064.086-.095a7.96 7.96 0 00.442-.489c.085-.103.16-.213.239-.32z"/><path d="M150.627 113.373a7.978 7.978 0 005.657-2.343L200 67.314V88a8 8 0 0016 0V48.005c0-.266-.014-.532-.04-.797-.01-.107-.031-.212-.046-.318-.021-.152-.04-.305-.07-.456-.024-.126-.06-.248-.09-.372-.032-.13-.061-.26-.1-.387-.037-.122-.083-.24-.125-.36-.046-.127-.088-.254-.14-.38-.045-.11-.1-.215-.15-.323-.06-.13-.118-.26-.186-.386-.054-.101-.116-.198-.175-.297-.074-.125-.145-.252-.227-.374-.072-.107-.152-.207-.229-.31-.078-.106-.152-.215-.237-.318a7.96 7.96 0 00-.442-.488c-.03-.032-.055-.065-.086-.096-.029-.029-.061-.053-.091-.082a7.946 7.946 0 00-.492-.446c-.106-.086-.218-.163-.327-.244-.1-.074-.197-.152-.3-.22-.125-.084-.255-.157-.383-.233-.096-.057-.19-.117-.289-.17-.127-.07-.259-.127-.39-.188-.106-.05-.21-.104-.32-.15-.125-.051-.254-.093-.382-.139-.118-.042-.236-.088-.357-.125-.126-.038-.254-.066-.382-.098-.126-.032-.25-.067-.379-.093-.143-.028-.288-.045-.433-.066-.114-.016-.226-.038-.342-.049a8.039 8.039 0 00-.788-.04H168a8 8 0 000 16h20.686L144.97 99.716a8 8 0 005.657 13.657zM99.716 144.97l-57.373 57.373a8 8 0 0011.314 11.314l57.373-57.373a8 8 0 00-11.314-11.314z"/></svg>