<svg xmlns="http://www.w3.org/2000/svg" viewBox="0 0 256 256" width="20" height="20"><path fill="none" d="M0 0h256v256H0z"/><path d="M237.7 178.3a8.1 8.1 0 010 11.4l-24 24a8.3 8.3 0 01-5.7 2.3 8.5 8.5 0 01-3.1-.6 8 8 0 01-4.9-7.4v-16h-27.9a16.1 16.1 0 01-13-6.7L83.9 80H32a8 8 0 010-16h51.9a16.1 16.1 0 0113 6.7L172.1 176H200v-16a8 8 0 014.9-7.4 8.4 8.4 0 018.8 1.7zM143 107a8 8 0 0011.2-1.9L172.1 80H200v16a8 8 0 004.9 7.4 8.5 8.5 0 003.1.6 8.3 8.3 0 005.7-2.3l24-24a8.1 8.1 0 000-11.4l-24-24a8.4 8.4 0 00-8.8-1.7A8 8 0 00200 48v16h-27.9a16.1 16.1 0 00-13 6.7l-17.9 25.1A8 8 0 00143 107zm-30 42a8 8 0 00-11.2 1.9L83.9 176H32a8 8 0 000 16h51.9a16.1 16.1 0 0013-6.7l17.9-25.1A8 8 0 00113 149z"/></svg>