<svg xmlns="http://www.w3.org/2000/svg" viewBox="0 0 256 256" width="20" height="20"><path fill="none" d="M0 0h256v256H0z"/><path d="M239.914 182.89c-.02-.152-.04-.305-.07-.456-.024-.125-.059-.246-.09-.37-.032-.13-.061-.26-.1-.39-.037-.12-.082-.237-.124-.355-.046-.129-.089-.258-.14-.384-.046-.108-.098-.211-.148-.317-.061-.132-.12-.264-.19-.394-.052-.097-.111-.188-.167-.283-.076-.13-.15-.261-.236-.388-.066-.099-.14-.19-.21-.287-.085-.114-.165-.23-.256-.341-.116-.141-.242-.274-.367-.407-.054-.057-.102-.119-.159-.175l-24-24a8 8 0 00-11.314 11.314L212.686 176h-11.75a56.11 56.11 0 01-45.57-23.45l-41.713-58.4A72.141 72.141 0 0055.064 64H32a8 8 0 000 16h23.064a56.11 56.11 0 0145.57 23.45l41.713 58.399A72.141 72.141 0 00200.936 192h11.75l-10.343 10.343a8 8 0 0011.314 11.314l24-24c.057-.056.105-.118.159-.175.125-.133.25-.266.367-.407.091-.11.171-.227.255-.341.07-.096.145-.188.211-.287.085-.127.16-.258.236-.388.056-.095.115-.186.167-.283.07-.13.129-.262.19-.394.05-.106.102-.209.147-.317.052-.126.095-.255.14-.384.043-.118.088-.235.125-.355.039-.13.068-.26.1-.39.031-.124.066-.245.09-.37.03-.151.049-.304.07-.457.015-.106.035-.21.046-.317a8.023 8.023 0 000-1.584c-.01-.107-.031-.211-.046-.317z"/><path d="M143.014 106.981a7.996 7.996 0 0011.159-1.86l1.193-1.67A56.11 56.11 0 01200.936 80h11.75l-10.343 10.343a8 8 0 0011.314 11.314l24-24c.057-.056.105-.118.159-.175.125-.133.25-.266.367-.407.091-.11.171-.227.255-.341.07-.096.145-.188.211-.287.085-.127.16-.258.236-.388.056-.095.115-.186.167-.283.07-.13.129-.262.19-.394.05-.106.102-.209.147-.317.052-.126.095-.255.14-.384.043-.118.088-.235.125-.355.039-.13.068-.26.1-.39.031-.124.066-.245.09-.37.03-.151.05-.304.07-.457.015-.106.035-.21.046-.317a8.023 8.023 0 000-1.584c-.01-.107-.031-.211-.046-.317a6.996 6.996 0 00-.07-.457c-.024-.125-.059-.246-.09-.37-.032-.13-.061-.26-.1-.39-.037-.12-.082-.237-.124-.355-.046-.129-.089-.258-.14-.384-.046-.108-.098-.211-.148-.317-.061-.132-.12-.264-.19-.394-.052-.097-.111-.188-.167-.283-.076-.13-.15-.261-.236-.388-.066-.099-.14-.191-.21-.287-.085-.114-.165-.23-.256-.341-.116-.141-.242-.274-.367-.407-.054-.057-.102-.119-.159-.175l-24-24a8 8 0 00-11.314 11.314L212.686 64h-11.75a72.141 72.141 0 00-58.59 30.151l-1.193 1.671a7.999 7.999 0 001.86 11.16zm-30.028 42.038a7.996 7.996 0 00-11.159 1.86l-1.193 1.67A56.11 56.11 0 0155.064 176H32a8 8 0 000 16h23.064a72.141 72.141 0 0058.59-30.151l1.193-1.671a7.999 7.999 0 00-1.86-11.16z"/></svg>