<svg xmlns="http://www.w3.org/2000/svg" viewBox="0 0 256 256" width="20" height="20"><path fill="none" d="M0 0h256v256H0z"/><path d="M213.657 82.343l-56-56A8.002 8.002 0 00152 24H55.992a16.018 16.018 0 00-16 16v176a16.018 16.018 0 0016 16H200a16.018 16.018 0 0016-16V88a8.002 8.002 0 00-2.343-5.657zM200 216H55.992V40h92.695L200 91.314 200.01 216z"/><path d="M176 112H80a8 8 0 00-8 8v72a8 8 0 008 8h96a8 8 0 008-8v-72a8 8 0 00-8-8zm-56 64a8 8 0 01-16 0v-40a8 8 0 0116 0zm32 0a8 8 0 01-16 0v-40a8 8 0 0116 0z"/></svg>