<svg xmlns="http://www.w3.org/2000/svg" viewBox="0 0 256 256" width="20" height="20"><path fill="none" d="M0 0h256v256H0z"/><path d="M246.488 108.668c.072-.1.143-.199.21-.301.074-.112.14-.226.207-.34.06-.104.121-.207.177-.313.062-.118.117-.237.172-.357.052-.11.104-.22.15-.332.05-.121.091-.244.135-.367.04-.116.084-.23.119-.347.04-.136.071-.273.105-.41.027-.108.058-.214.08-.324q.074-.368.113-.74c.006-.062.006-.125.011-.188.016-.196.029-.392.03-.59 0-.02.003-.039.003-.059 0-.073-.009-.144-.01-.217a8.314 8.314 0 00-.026-.493c-.01-.11-.025-.22-.04-.329a7.63 7.63 0 00-.236-1.154q-.05-.18-.11-.355a8.15 8.15 0 00-.441-1.053 8.577 8.577 0 00-.172-.326c-.063-.112-.132-.221-.2-.33-.067-.107-.134-.212-.205-.315-.072-.103-.15-.202-.227-.303-.079-.102-.157-.204-.24-.303-.026-.03-.047-.06-.073-.09l-56-64A8.001 8.001 0 00184 32H72a8.001 8.001 0 00-6.02 2.732l-56 64c-.026.03-.047.06-.072.09-.084.099-.162.201-.242.303-.077.1-.154.2-.226.303-.071.103-.138.208-.205.314-.069.11-.137.219-.2.33-.06.108-.116.217-.172.327a8.138 8.138 0 00-.168.349c-.05.113-.096.227-.141.343-.047.12-.092.24-.133.361q-.058.176-.109.355a8.012 8.012 0 00-.237 1.154c-.015.11-.03.218-.039.329-.015.164-.02.328-.025.493-.002.073-.011.144-.011.217l.003.06c.001.197.014.393.03.59.005.062.005.125.011.187q.04.372.113.74c.022.11.053.216.08.324.034.137.064.274.105.41.035.117.079.231.12.347.043.123.084.246.134.367.046.113.098.222.15.332.055.12.11.24.172.357.056.106.117.209.177.312.067.115.134.229.207.34.067.103.138.202.21.302.076.105.152.21.234.312.08.1.163.196.247.291.054.062.102.127.158.188l112 120c.114.121.238.23.358.344.056.054.108.11.166.161a8.01 8.01 0 00.81.634c.064.044.13.082.196.124a7.978 7.978 0 00.73.416c.08.04.16.083.243.121a8.007 8.007 0 00.96.375c.048.015.098.024.146.038a7.989 7.989 0 00.89.204c.095.016.189.031.284.044a7.124 7.124 0 002.132 0c.095-.013.19-.028.284-.044a7.989 7.989 0 00.89-.204c.048-.014.098-.023.145-.038a8.007 8.007 0 00.96-.375c.084-.038.164-.08.245-.121a7.978 7.978 0 00.73-.416c.064-.042.131-.08.195-.124a8.01 8.01 0 00.81-.634c.058-.051.11-.107.166-.16.12-.114.244-.224.358-.345l112-120c.056-.06.104-.126.158-.187.084-.096.168-.192.247-.292a8.33 8.33 0 00.234-.312zM73.538 112l30.535 74.639L34.41 112zm108.923 0h39.13l-69.664 74.639zm39.909-16h-41.333L144.22 48h36.151zM75.63 48h36.151L74.963 96H33.63z"/></svg>