<svg xmlns="http://www.w3.org/2000/svg" viewBox="0 0 256 256" width="20" height="20"><path fill="none" d="M0 0h256v256H0z"/><path d="M221.132 128A31.978 31.978 0 00184 76.305V56a31.98 31.98 0 00-56-21.132A31.978 31.978 0 0076.305 72H56a31.98 31.98 0 00-21.132 56A31.978 31.978 0 0072 179.695V200a31.98 31.98 0 0056 21.132A31.978 31.978 0 00179.695 184H200a31.98 31.98 0 0021.132-56zM88 56a16 16 0 0132 0v16h-16a16.018 16.018 0 01-16-16zm-48 48a16.018 16.018 0 0116-16h48a16.018 16.018 0 0116 16v16H56a16.018 16.018 0 01-16-16zm128 96a16 16 0 01-32 0v-16h16a16.018 16.018 0 0116 16zm32-32h-48a16.018 16.018 0 01-16-16v-16h64a16 16 0 010 32z"/></svg>