<svg xmlns="http://www.w3.org/2000/svg" viewBox="0 0 256.001 256.001" width="20" height="20"><path fill="none" d="M0 0h256v256H0z"/><path d="M135.997 65.376V40a8 8 0 00-16 0v25.376a23.995 23.995 0 000 45.248V216a8 8 0 0016 0V110.624a23.995 23.995 0 000-45.248zM223.997 168a24.037 24.037 0 00-16-22.624L207.998 40a8 8 0 10-16 0v105.376a23.995 23.995 0 000 45.248V216a8 8 0 0016 0v-25.376a24.037 24.037 0 0016-22.624zM63.997 113.376V40a8 8 0 00-16 0v73.376a23.995 23.995 0 000 45.248V216a8 8 0 1016 0v-57.376a23.995 23.995 0 000-45.248z"/></svg>