<svg xmlns="http://www.w3.org/2000/svg" viewBox="0 0 256 256" width="20" height="20"><path fill="none" d="M0 0h256v256H0z"/><path d="M128 24a104 104 0 10104 104A104.2 104.2 0 00128 24zm36 72a12 12 0 11-12 12 12 12 0 0112-12zm-72 0a12 12 0 11-12 12 12 12 0 0112-12zm89 82.2a7.9 7.9 0 01-5 1.8 7.8 7.8 0 01-6.2-3l-9.8-12.2-9.8 12.2a7.9 7.9 0 01-12.4 0l-9.8-12.2-9.8 12.2a7.9 7.9 0 01-12.4 0L96 164.8 86.2 177a8 8 0 01-12.4-10l16-20a7.9 7.9 0 0112.4 0l9.8 12.2 9.8-12.2a7.9 7.9 0 0112.4 0l9.8 12.2 9.8-12.2a7.9 7.9 0 0112.4 0l16 20a7.9 7.9 0 01-1.2 11.2z"/></svg>