<svg xmlns="http://www.w3.org/2000/svg" viewBox="0 0 256 256" width="20" height="20"><path fill="none" d="M0 0h256v256H0z"/><path d="M128 24a104 104 0 1030.565 203.434 7.997 7.997 0 003.309-1.991l63.57-63.573a7.995 7.995 0 001.991-3.309A104.076 104.076 0 00128 24zm36 72a12 12 0 11-12 12 12 12 0 0112-12zm-72 0a12 12 0 11-12 12 12 12 0 0112-12zm84.503 60.002a56.196 56.196 0 01-26.703 23.59 56.057 56.057 0 01-70.303-23.589 8 8 0 0113.85-8.012 40.194 40.194 0 0019.086 16.865 39.96 39.96 0 0043.851-8.576 40.187 40.187 0 006.37-8.29 8 8 0 1113.849 8.012z"/></svg>