<svg xmlns="http://www.w3.org/2000/svg" viewBox="0 0 256 256" width="20" height="20"><path fill="none" d="M0 0h256v256H0z"/><path d="M128 24a104 104 0 10104 104A104.12 104.12 0 00128 24zm-18.344 98.344a8 8 0 11-11.312 11.312L88 123.312l-10.344 10.344a8 8 0 01-11.312-11.312L76.688 112l-10.344-10.344a8 8 0 0111.312-11.312L88 100.688l10.344-10.344a8 8 0 0111.312 11.312L99.312 112zM128 192a12 12 0 1112-12 12 12 0 01-12 12zm61.656-69.656a8 8 0 11-11.312 11.312L168 123.312l-10.344 10.344a8 8 0 01-11.312-11.312L156.688 112l-10.344-10.344a8 8 0 0111.312-11.312L168 100.688l10.344-10.344a8 8 0 0111.312 11.312L179.312 112z"/></svg>