<svg xmlns="http://www.w3.org/2000/svg" viewBox="0 0 256 256" width="20" height="20"><path fill="none" d="M0 0h256v256H0z"/><path d="M128 24a104 104 0 10104 104A104.12 104.12 0 00128 24zm36 72a12 12 0 11-12 12 12 12 0 0112-12zm-72 0a12 12 0 11-12 12 12 12 0 0112-12zm81.586 86.922a7.914 7.914 0 01-4 1.078 7.998 7.998 0 01-6.93-3.992 40.428 40.428 0 00-6.375-8.297 39.843 39.843 0 00-12.71-8.57 40.306 40.306 0 00-31.141 0 40.113 40.113 0 00-19.078 16.867 8.002 8.002 0 01-13.852-8.016 56.022 56.022 0 0197 0 7.99 7.99 0 01-2.914 10.93z"/></svg>