<svg xmlns="http://www.w3.org/2000/svg" viewBox="0 0 256 256" width="20" height="20"><path fill="none" d="M0 0h256v256H0z"/><path d="M128 24a104 104 0 10104 104A104.12 104.12 0 00128 24zm36 72a12 12 0 11-12 12 12 12 0 0112-12zm-72 0a12 12 0 11-12 12 12 12 0 0112-12zm84.5 60.008a56.205 56.205 0 01-26.688 23.586A56.08 56.08 0 0179.5 156.008a7.998 7.998 0 1113.844-8.016 40.274 40.274 0 0019.094 16.867 40.445 40.445 0 0031.14 0 40.006 40.006 0 0012.703-8.578 40.823 40.823 0 006.375-8.289 7.998 7.998 0 1113.844 8.016z"/></svg>