<svg xmlns="http://www.w3.org/2000/svg" viewBox="0 0 256 256" width="20" height="20"><path fill="none" d="M0 0h256v256H0z"/><path d="M128 24a104 104 0 10104 104A104.118 104.118 0 00128 24zm36 72a12 12 0 11-12 12 12 12 0 0112-12zm-72 0a12 12 0 11-12 12 12 12 0 0112-12zm88.998 82.247a8 8 0 01-11.245-1.25L160 164.808l-9.753 12.19a8 8 0 01-12.494 0L128 164.808l-9.753 12.19a8 8 0 01-12.494 0L96 164.808l-9.753 12.19a8 8 0 01-12.494-9.995l16-20a8 8 0 0112.494 0L112 159.194l9.753-12.192a8 8 0 0112.494 0L144 159.194l9.753-12.192a8 8 0 0112.494 0l16 20a8 8 0 01-1.25 11.245z"/></svg>