<svg xmlns="http://www.w3.org/2000/svg" viewBox="0 0 256 256" width="20" height="20"><path fill="none" d="M0 0h256v256H0z"/><path d="M223.938 149.146a8 8 0 01-5.657 9.797l-25.057 6.714 6.714 25.057a8 8 0 11-15.455 4.14l-7.927-29.583L136 141.856v46.83l21.657 21.657a8 8 0 01-11.314 11.314L128 203.313l-18.343 18.344a8 8 0 01-11.314-11.314L120 188.686v-46.83l-40.556 23.415-7.927 29.583a8 8 0 11-15.455-4.14l6.714-25.057-25.057-6.714a8 8 0 114.14-15.455l29.586 7.927L112 128l-40.556-23.415-29.585 7.927a8 8 0 11-4.14-15.455l25.056-6.714-6.714-25.057a8 8 0 1115.455-4.14l7.927 29.583L120 114.144v-46.83L98.343 45.657a8 8 0 0111.314-11.314L128 52.687l18.343-18.344a8 8 0 1111.314 11.314L136 67.314v46.83l40.556-23.415 7.927-29.584a8 8 0 1115.455 4.141l-6.714 25.057 25.057 6.714a8 8 0 11-4.14 15.455l-29.586-7.927L144 128l40.556 23.415 29.585-7.927a8 8 0 019.798 5.658z"/></svg>