<svg xmlns="http://www.w3.org/2000/svg" viewBox="0 0 256 256" width="20" height="20"><path fill="none" d="M0 0h256v256H0z"/><path d="M223.9 149.1a7.9 7.9 0 01-5.6 9.8l-25.1 6.8 6.7 25a7.9 7.9 0 01-5.6 9.8l-2.1.3a8 8 0 01-7.7-5.9l-7.9-29.6-40.6-23.4v46.8l21.7 21.6a8.1 8.1 0 010 11.4 8.2 8.2 0 01-11.4 0L128 203.3l-18.3 18.4a8.1 8.1 0 01-11.4-11.4l21.7-21.6v-46.8l-40.6 23.4-7.9 29.6a8 8 0 01-7.7 5.9l-2.1-.3a7.9 7.9 0 01-5.6-9.8l6.7-25-25.1-6.8a8 8 0 114.2-15.4l29.5 7.9L112 128l-40.6-23.4-29.5 7.9a7.6 7.6 0 01-2.1.3 8 8 0 01-2.1-15.7l25.1-6.8-6.7-25a8 8 0 0115.4-4.2l7.9 29.6 40.6 23.4V67.3L98.3 45.7a8.1 8.1 0 0111.4-11.4L128 52.7l18.3-18.4a8.1 8.1 0 0111.4 11.4L136 67.3v46.8l40.6-23.4 7.9-29.6a8 8 0 1115.4 4.2l-6.7 25 25.1 6.8a8 8 0 01-2.1 15.7l-2.1-.3-29.5-7.9L144 128l40.6 23.4 29.5-7.9a7.9 7.9 0 019.8 5.6z"/></svg>