<svg xmlns="http://www.w3.org/2000/svg" viewBox="0 0 256 256" width="20" height="20"><path fill="none" d="M0 0h256v256H0z"/><path d="M229.655 82.33l-39.999-39.994c-.009-.009-.019-.016-.028-.026a8.073 8.073 0 00-.558-.503c-.09-.074-.184-.138-.276-.207-.117-.088-.231-.178-.354-.26-.108-.073-.221-.136-.333-.202-.113-.068-.223-.139-.34-.2-.11-.06-.225-.11-.34-.165-.122-.058-.244-.12-.37-.172-.108-.044-.218-.08-.327-.12-.137-.05-.273-.101-.413-.144-.106-.032-.214-.055-.32-.082-.146-.038-.29-.078-.44-.107-.118-.024-.238-.037-.358-.055-.138-.02-.275-.046-.415-.06-.2-.02-.401-.026-.602-.03-.06-.002-.12-.01-.182-.01-.058 0-.114.008-.172.01-.204.003-.409.01-.613.03-.136.014-.27.038-.404.058-.123.019-.247.033-.37.057-.145.029-.285.068-.427.104-.11.028-.223.053-.333.086-.135.04-.266.091-.399.14-.114.04-.229.078-.341.124-.122.05-.237.11-.355.165-.12.056-.24.11-.356.172-.11.058-.214.125-.32.189-.119.07-.238.137-.353.214-.114.076-.22.161-.33.243-.1.074-.202.143-.299.223a7.928 7.928 0 00-.505.457c-.026.024-.054.046-.08.071l-40 40a8 8 0 0011.314 11.315L176 67.308v76.686a8 8 0 0016 0V67.305l26.343 26.339a8 8 0 1011.312-11.315zM48 135.994h71.999a8 8 0 100-16H48a8 8 0 000 16zM48 71.994h55.999a8 8 0 000-16H48a8 8 0 100 16zM183.999 183.994H48a8 8 0 000 16h135.999a8 8 0 000-16z"/></svg>