<svg xmlns="http://www.w3.org/2000/svg" viewBox="0 0 256 256" width="20" height="20"><path fill="none" d="M0 0h256v256H0z"/><path d="M229.656 162.344a8 8 0 00-11.313 0L192 188.681v-76.688a8 8 0 00-16 0v76.686l-26.343-26.344a8 8 0 00-11.314 11.315l40 40c.026.026.055.048.081.073.162.158.329.312.504.455.098.08.201.151.302.227.109.08.214.164.327.24.117.078.239.146.359.218.103.061.205.127.312.184.121.065.246.12.369.177.113.054.225.11.341.16.12.048.24.088.36.131.127.045.25.093.38.132.12.037.241.063.363.094.132.033.262.07.396.096.14.028.281.045.422.065.118.017.233.039.351.05a8.05 8.05 0 001.579 0c.12-.011.237-.034.356-.05.14-.02.279-.037.417-.064.136-.027.268-.065.402-.098.119-.03.24-.057.358-.092.13-.04.257-.09.384-.135.119-.042.238-.082.355-.13.119-.05.233-.107.35-.162.12-.057.241-.11.36-.173.11-.06.216-.128.324-.192.116-.07.233-.135.346-.21.119-.08.23-.168.344-.253.095-.071.193-.138.286-.214q.29-.238.556-.502l.03-.027 39.998-39.993a8 8 0 00.001-11.314zM119.999 119.994H48a8 8 0 000 16h71.999a8 8 0 100-16zM48 71.994h135.999a8 8 0 000-16H48a8 8 0 100 16zM104 183.994H48a8 8 0 000 16h56a8 8 0 000-16z"/></svg>