<svg xmlns="http://www.w3.org/2000/svg" viewBox="0 0 256 256" width="20" height="20"><path fill="none" d="M0 0h256v256H0z"/><path d="M155.515 24.813a7.994 7.994 0 00-8.426.873L77.255 80H32a16.018 16.018 0 00-16 16v64a16.018 16.018 0 0016 16h45.255l69.834 54.314A8 8 0 00160 224V32a8 8 0 00-4.485-7.187zM32 96h39.97v64H32zm195.314 32l18.343-18.343a8 8 0 00-11.314-11.314L216 116.686l-18.343-18.343a8 8 0 00-11.314 11.314L204.686 128l-18.343 18.343a8 8 0 0011.314 11.314L216 139.314l18.343 18.343a8 8 0 0011.314-11.314z"/></svg>