<svg xmlns="http://www.w3.org/2000/svg" viewBox="0 0 256 256" width="20" height="20"><path fill="none" d="M0 0h256v256H0z"/><path d="M53.9 34.6a8 8 0 00-11.8 10.8L73.6 80H32a16 16 0 00-16 16v64a16 16 0 0016 16h45.3l69.8 54.3a7.9 7.9 0 004.9 1.7 8.5 8.5 0 003.5-.8 8 8 0 004.5-7.2v-48.9l42.1 46.3a8 8 0 005.9 2.6 8.2 8.2 0 005.4-2.1 7.9 7.9 0 00.5-11.3zM72 160H32V96h40zM146.1 112.2a7.9 7.9 0 005.9 2.6 7.4 7.4 0 002.9-.5 8 8 0 005.1-7.5V32a8 8 0 00-12.9-6.3l-39.9 31a8.2 8.2 0 00-3 5.6 8.1 8.1 0 002 6.1zM224.5 71.4a8 8 0 00-11.3 0 8.1 8.1 0 000 11.4 63.9 63.9 0 010 90.5 8 8 0 000 11.3 8.3 8.3 0 005.7 2.3 8 8 0 005.6-2.3 79.9 79.9 0 000-113.2z"/><path d="M192 128a23.8 23.8 0 01-7.1 17 8 8 0 005.7 13.6 7.8 7.8 0 005.7-2.3 40.1 40.1 0 000-56.6 8.1 8.1 0 00-11.4 0 8 8 0 000 11.3 23.8 23.8 0 017.1 17z"/></svg>