<svg xmlns="http://www.w3.org/2000/svg" viewBox="0 0 256 256" width="20" height="20"><path fill="none" d="M0 0h256v256H0z"/><path d="M224.6 71.4a8 8 0 10-11.3 11.4 64.1 64.1 0 010 90.5 7.9 7.9 0 000 11.3 8 8 0 005.6 2.3 8.3 8.3 0 005.7-2.3 80.2 80.2 0 000-113.2zm-69.1-46.6a8 8 0 00-8.4.9L77.3 80H32a16 16 0 00-16 16v64a16 16 0 0016 16h45.3l69.8 54.3a8.1 8.1 0 004.9 1.7 8.5 8.5 0 003.5-.8 7.8 7.8 0 004.5-7.2V32a8.1 8.1 0 00-4.5-7.2zM32 96h40v64H32z"/><path d="M185 99.7a7.9 7.9 0 000 11.3 24.1 24.1 0 010 34 7.9 7.9 0 000 11.3 7.6 7.6 0 005.6 2.3 7.8 7.8 0 005.7-2.3 40.1 40.1 0 000-56.6 8 8 0 00-11.3 0z"/></svg>