<svg xmlns="http://www.w3.org/2000/svg" viewBox="0 0 256 256" width="20" height="20"><path fill="none" d="M0 0h256v256H0z"/><path d="M224.568 71.44a8 8 0 00-11.314 11.314 63.998 63.998 0 010 90.51 8 8 0 0011.314 11.314 80.001 80.001 0 000-113.139zm-69.053-46.618a7.994 7.994 0 00-8.426.872L77.255 80.01H32a16.018 16.018 0 00-16 16v64a16.018 16.018 0 0016 16h45.255l69.834 54.314A8 8 0 00160 224.01v-192a8 8 0 00-4.485-7.187zM32 96.01h39.97v64H32z"/><path d="M184.97 99.725a8 8 0 000 11.314 23.998 23.998 0 010 33.94 8 8 0 1011.313 11.314 39.997 39.997 0 000-56.568 7.998 7.998 0 00-11.313 0z"/></svg>