<svg xmlns="http://www.w3.org/2000/svg" viewBox="0 0 256 256" width="20" height="20"><path fill="none" d="M0 0h256v256H0z"/><path d="M155.5 24.8a8 8 0 00-8.4.9L77.3 80H32a16 16 0 00-16 16v64a16 16 0 0016 16h45.3l69.8 54.3a8.1 8.1 0 004.9 1.7 8.5 8.5 0 003.5-.8 8 8 0 004.5-7.2V32a8 8 0 00-4.5-7.2zM32 96h40v64H32zM227.3 128l18.4-18.3a8.1 8.1 0 00-11.4-11.4L216 116.7l-18.3-18.4a8.1 8.1 0 00-11.4 11.4l18.4 18.3-18.4 18.3a8.1 8.1 0 000 11.4 8.2 8.2 0 0011.4 0l18.3-18.4 18.3 18.4a8.2 8.2 0 0011.4 0 8.1 8.1 0 000-11.4z"/></svg>