<svg xmlns="http://www.w3.org/2000/svg" viewBox="0 0 256 256" width="20" height="20"><path fill="none" d="M0 0h256v256H0z"/><path d="M155.51 24.81a7.993 7.993 0 00-8.422.875L77.244 79.997h-45.25a16.016 16.016 0 00-16 16v64a16.016 16.016 0 0016 16h45.25l69.844 54.313a7.995 7.995 0 0012.906-6.313v-192a7.994 7.994 0 00-4.484-7.187zM227.307 127.997l18.343-18.344a8 8 0 00-11.312-11.312l-18.344 18.344L197.65 98.34a8 8 0 00-11.312 11.312l18.344 18.344-18.344 18.344a8 8 0 1011.312 11.312l18.344-18.343 18.344 18.343a8 8 0 0011.312-11.312z"/></svg>