<svg xmlns="http://www.w3.org/2000/svg" viewBox="0 0 256 256" width="20" height="20"><path fill="none" d="M0 0h256v256H0z"/><path d="M53.92 34.618a8 8 0 10-11.84 10.764l31.474 34.62H32a16.018 16.018 0 00-16 16v64a16.018 16.018 0 0016 16h45.255l69.834 54.315-.005-.01.004.003a7.995 7.995 0 0012.906-6.313v-48.91l42.086 46.295a8 8 0 1011.84-10.764zm18.05 125.385H32v-64h39.97zm74.11-47.793a8 8 0 0013.92-5.38V32.011a8 8 0 00-12.911-6.315l-39.844 30.99a8 8 0 00-1.009 11.696zm78.464-40.768a8 8 0 10-11.313 11.315 64 64 0 010 90.509 8 8 0 1011.313 11.314 79.998 79.998 0 000-113.138z"/><path d="M191.977 128.012a23.838 23.838 0 01-7.03 16.97 8 8 0 1011.313 11.314 40 40 0 000-56.57 8 8 0 00-11.314 11.315 23.843 23.843 0 017.03 16.97z"/></svg>