<svg xmlns="http://www.w3.org/2000/svg" viewBox="0 0 256 256" width="20" height="20"><path fill="none" d="M0 0h256v256H0z"/><path d="M191.977 160a8 8 0 008-8v-48a8 8 0 00-16 0v48a8 8 0 008 8zm32-80a8 8 0 00-8 8v80a8 8 0 1016 0V88a8 8 0 00-8-8zM53.92 34.618a8 8 0 10-11.84 10.764L73.551 80H32a16.018 16.018 0 00-16 16v64a16.018 16.018 0 0016 16h45.255l69.834 54.314A8 8 0 00160 224v-48.906l42.08 46.288a8 8 0 1011.84-10.764zm92.16 77.592a8 8 0 0013.92-5.38V32a8 8 0 00-12.911-6.314l-39.85 30.994a8 8 0 00-1.009 11.696z"/></svg>