<svg xmlns="http://www.w3.org/2000/svg" viewBox="0 0 256 256" width="20" height="20"><path fill="none" d="M0 0h256v256H0z"/><path d="M192 160a8 8 0 008-8v-48a8 8 0 00-16 0v48a8 8 0 008 8zm32-80a8 8 0 00-8 8v80a8 8 0 0016 0V88a8 8 0 00-8-8zM53.9 34.6a8 8 0 00-11.8 10.8L73.6 80H32a16 16 0 00-16 16v64a16 16 0 0016 16h45.3l69.8 54.3a8.1 8.1 0 004.9 1.7 8.5 8.5 0 003.5-.8 8 8 0 004.5-7.2v-48.9l42.1 46.3a8 8 0 005.9 2.6 8.2 8.2 0 005.4-2.1 7.9 7.9 0 00.5-11.3zm92.2 77.6a7.9 7.9 0 005.9 2.6 7.4 7.4 0 002.9-.5 8 8 0 005.1-7.5V32a8 8 0 00-12.9-6.3l-39.9 31a8.1 8.1 0 00-1 11.7z"/></svg>