<svg xmlns="http://www.w3.org/2000/svg" viewBox="0 0 256 256" width="20" height="20"><path fill="none" d="M0 0h256v256H0z"/><path d="M136 32v32a8 8 0 01-16 0V32a8 8 0 0116 0zm37.255 58.745a7.978 7.978 0 005.657-2.343l22.627-22.627a8 8 0 10-11.314-11.314l-22.627 22.627a8 8 0 005.657 13.657zM224 120h-32a8 8 0 000 16h32a8 8 0 000-16zm-45.088 47.598a8 8 0 00-11.314 11.314l22.627 22.627a8 8 0 1011.314-11.314zM128 184a8 8 0 00-8 8v32a8 8 0 0016 0v-32a8 8 0 00-8-8zm-50.912-16.402L54.46 190.225a8 8 0 0011.314 11.314l22.627-22.627a8 8 0 00-11.314-11.314zM72 128a8 8 0 00-8-8H32a8 8 0 000 16h32a8 8 0 008-8zm-6.225-73.54a8 8 0 00-11.314 11.315l22.627 22.627a8 8 0 0011.314-11.314z"/></svg>