<svg xmlns="http://www.w3.org/2000/svg" viewBox="0 0 256 256" width="20" height="20"><path fill="none" d="M0 0h256v256H0z"/><path d="M128 24a104 104 0 10104 104A104.118 104.118 0 00128 24zm28.624 144.657a8 8 0 01-10.736 3.567 39.983 39.983 0 00-35.852.04 8 8 0 11-7.201-14.287 55.975 55.975 0 0150.222-.056 8 8 0 013.567 10.736zm14.797-28.306a8.002 8.002 0 01-10.762 3.49 71.941 71.941 0 00-65.402.042 8 8 0 11-7.29-14.242 87.94 87.94 0 0179.965-.052 8 8 0 013.49 10.762zm14.827-28.365a8 8 0 01-10.772 3.458 104.19 104.19 0 00-95.037.045 8 8 0 11-7.329-14.222 120.193 120.193 0 01109.681-.053 8 8 0 013.457 10.772z"/></svg>