<svg xmlns="http://www.w3.org/2000/svg" viewBox="0 0 256 256" width="20" height="20"><path fill="none" d="M0 0h256v256H0z"/><path d="M128 24a104 104 0 10104 104A104.2 104.2 0 00128 24zm28.6 144.7a8 8 0 01-10.7 3.5A39.6 39.6 0 00128 168a39.1 39.1 0 00-18 4.3 8.6 8.6 0 01-3.6.8 8 8 0 01-3.6-15.1 55.3 55.3 0 0125.2-6 56.1 56.1 0 0125.1 5.9 8.1 8.1 0 013.5 10.8zm14.8-28.3a7.9 7.9 0 01-10.7 3.4 72 72 0 00-65.4.1 8.4 8.4 0 01-3.7.9 7.9 7.9 0 01-7.1-4.4 8 8 0 013.5-10.8 87.9 87.9 0 0179.9 0 8 8 0 013.5 10.8zm14.8-28.4a7.9 7.9 0 01-10.7 3.4A104.3 104.3 0 00128 104a103.2 103.2 0 00-47.6 11.5 7.7 7.7 0 01-3.6.9 8 8 0 01-3.7-15.1 120.2 120.2 0 01109.7-.1 8 8 0 013.4 10.8z"/></svg>