<svg xmlns="http://www.w3.org/2000/svg" viewBox="0 0 256 256" width="20" height="20"><path fill="none" d="M0 0h256v256H0z"/><path d="M216 152v64a8 8 0 01-8 8H48a8 8 0 01-8-8v-64a8 8 0 0116 0v56h144v-56a8 8 0 0116 0zM88 184h80a8 8 0 000-16H88a8 8 0 000 16zm4.9-53.1l77.3 20.7a6.4 6.4 0 002 .3 8 8 0 002.1-15.7L97 115.5a8 8 0 10-4.1 15.4zm18.4-50l69.3 40a7.3 7.3 0 004 1.1 7.7 7.7 0 006.9-4 7.9 7.9 0 00-2.9-10.9l-69.3-40a8 8 0 00-8 13.8zM198.7 94a8 8 0 005.6 2.3A8.3 8.3 0 00210 94a8 8 0 000-11.3l-56.6-56.6a8 8 0 00-11.3 11.3z"/></svg>