<svg xmlns="http://www.w3.org/2000/svg" viewBox="0 0 256 256" width="20" height="20"><path fill="none" d="M0 0h256v256H0z"/><path d="M239.166 97.411a16.37 16.37 0 00-14.531-11.367l-59.39-4.156-22.032-55.477a16.331 16.331 0 00-15.219-10.414h-.015a16.324 16.324 0 00-15.188 10.414l-22.36 55.797-59.062 3.836a16.37 16.37 0 00-14.531 11.367 16.682 16.682 0 005.156 18.063l45.438 38.406-13.516 53.164a18.375 18.375 0 007.016 19.516 17.83 17.83 0 0020.062.625l46.875-29.696c.063-.047.125-.078.266 0l50.437 31.953a16.14 16.14 0 0018.203-.562 16.647 16.647 0 006.36-17.68l-14.36-58.078 45.235-37.648a16.682 16.682 0 005.156-18.063z"/></svg>