<svg xmlns="http://www.w3.org/2000/svg" viewBox="0 0 256 256" width="20" height="20"><path fill="none" d="M0 0h256v256H0z"/><path d="M231.99 95.8a7.995 7.995 0 00-.261-1.835c-.015-.054-.021-.11-.037-.163l-14.341-50.198A16.07 16.07 0 00201.966 32H54.034A16.07 16.07 0 0038.65 43.604L24.308 93.802c-.016.054-.022.109-.037.162a7.893 7.893 0 00-.14.625 8.333 8.333 0 00-.103.853c-.008.12-.015.238-.018.357-.001.068-.01.133-.01.201v16a39.962 39.962 0 0016 31.978V208a16.018 16.018 0 0016 16h144a16.018 16.018 0 0016-16v-64.022A39.962 39.962 0 00232 112V96c0-.068-.009-.133-.01-.2zM40 104h48v8a23.984 23.984 0 01-35.124 21.256 7.984 7.984 0 00-1.813-1.058A23.996 23.996 0 0140 112zm112 8a24 24 0 01-48 0v-8h48zm52.932 20.202a7.975 7.975 0 00-1.802 1.05A23.984 23.984 0 01168 112v-8h48v8a23.997 23.997 0 01-11.068 20.202z"/></svg>