<svg xmlns="http://www.w3.org/2000/svg" viewBox="0 0 256 256" width="20" height="20"><path fill="none" d="M0 0h256v256H0z"/><path d="M226.5 56.4l-96-32a8.5 8.5 0 00-5 0l-95.9 32h-.2l-1 .5h-.1l-1 .6c0 .1-.1.1-.2.2l-.8.7-.7.8c0 .1-.1.1-.1.2l-.6.9c0 .1 0 .1-.1.2l-.4.9-.3 1.1v.3A3.7 3.7 0 0024 64v80a8 8 0 0016 0V75.1l33.6 11.2A63.2 63.2 0 0064 120a64 64 0 0030 54.2 96.1 96.1 0 00-46.5 37.4 8.1 8.1 0 002.4 11.1 7.9 7.9 0 0011-2.3 80 80 0 01134.2 0 8 8 0 006.7 3.6 7.5 7.5 0 004.3-1.3 8.1 8.1 0 002.4-11.1 96.1 96.1 0 00-46.5-37.4 64 64 0 0030-54.2 63.2 63.2 0 00-9.6-33.7l44.1-14.7a8 8 0 000-15.2zM128 168a48 48 0 01-48-48 48.6 48.6 0 019.3-28.5l36.2 12.1a8 8 0 005 0l36.2-12.1A48.6 48.6 0 01176 120a48 48 0 01-48 48z"/></svg>