<svg xmlns="http://www.w3.org/2000/svg" viewBox="0 0 256 256" width="20" height="20"><path fill="none" d="M0 0h256v256H0z"/><path d="M77.749 43.587a8 8 0 0114.782-6.123l7.653 18.477a8 8 0 11-14.782 6.123zM21.464 108.53l18.477 7.654a8 8 0 106.123-14.782L27.587 93.75a8 8 0 10-6.123 14.781zM213 116.795a7.97 7.97 0 003.059-.611l18.477-7.654a8 8 0 10-6.123-14.781l-18.477 7.653A8.001 8.001 0 00213 116.795zm-52.854-50.401a7.993 7.993 0 0010.452-4.33l7.653-18.477a8 8 0 00-14.782-6.123l-7.653 18.477a8 8 0 004.33 10.453zM240 152h-44.477a68 68 0 10-135.046 0H16a8 8 0 000 16h169.818l.03.002.023-.002H240a8 8 0 000-16zm-32 40H48a8 8 0 000 16h160a8 8 0 000-16z"/></svg>