<svg xmlns="http://www.w3.org/2000/svg" viewBox="0 0 256 256" width="20" height="20"><path fill="none" d="M0 0h256v256H0z"/><circle cx="128" cy="128" r="68"/><path d="M128 44a8 8 0 008-8v-8a8 8 0 00-16 0v8a8 8 0 008 8zM57.3 68.6a8.1 8.1 0 0011.3 0 8 8 0 000-11.3l-5.7-5.7a8 8 0 00-11.3 11.3zM36 120h-8a8 8 0 000 16h8a8 8 0 000-16zM57.3 187.4l-5.7 5.7a8 8 0 000 11.3 8.3 8.3 0 005.7 2.3 8 8 0 005.6-2.3l5.7-5.7a8 8 0 00-11.3-11.3zM128 212a8 8 0 00-8 8v8a8 8 0 0016 0v-8a8 8 0 00-8-8zM198.7 187.4a8 8 0 00-11.3 11.3l5.7 5.7a8 8 0 005.6 2.3 8.3 8.3 0 005.7-2.3 8 8 0 000-11.3zM228 120h-8a8 8 0 000 16h8a8 8 0 000-16zM193.1 70.9a7.8 7.8 0 005.6-2.3l5.7-5.7a8 8 0 10-11.3-11.3l-5.7 5.7a8 8 0 000 11.3 7.8 7.8 0 005.7 2.3z"/></svg>