<svg xmlns="http://www.w3.org/2000/svg" viewBox="0 0 256 256" width="20" height="20"><path fill="none" d="M0 0h256v256H0z"/><circle cx="128" cy="128" r="68"/><path d="M128 44a8 8 0 008-8v-8a8 8 0 00-16 0v8a8 8 0 008 8zM57.29 68.603A8 8 0 1068.602 57.29l-5.657-5.657a8 8 0 10-11.313 11.313zM36 120h-8a8 8 0 000 16h8a8 8 0 000-16zm21.29 67.397l-5.657 5.657a8 8 0 1011.313 11.313l5.657-5.657a8 8 0 00-11.313-11.313zM128 212a8 8 0 00-8 8v8a8 8 0 0016 0v-8a8 8 0 00-8-8zm70.71-24.603a8 8 0 00-11.313 11.313l5.657 5.657a8 8 0 0011.313-11.313zM228 120h-8a8 8 0 000 16h8a8 8 0 000-16zm-34.946-49.054a7.977 7.977 0 005.657-2.343l5.656-5.657a8 8 0 10-11.313-11.313l-5.657 5.657a8 8 0 005.657 13.656z"/></svg>