<svg xmlns="http://www.w3.org/2000/svg" viewBox="0 0 256 256" width="20" height="20"><path fill="none" d="M0 0h256v256H0z"/><circle cx="128" cy="128" r="68"/><path d="M128 44a8 8 0 008-8V16a8 8 0 00-16 0v20a8 8 0 008 8zM57.29 68.603A8 8 0 1068.603 57.29L54.461 43.147a8 8 0 10-11.314 11.314zM44 128a8 8 0 00-8-8H16a8 8 0 000 16h20a8 8 0 008-8zM57.29 187.397l-14.143 14.142a8 8 0 1011.314 11.314l14.142-14.143a8 8 0 10-11.313-11.313zM128 212a8 8 0 00-8 8v20a8 8 0 0016 0v-20a8 8 0 00-8-8zM198.71 187.397a8 8 0 10-11.313 11.313l14.142 14.143a8 8 0 1011.314-11.314zM240 120h-20a8 8 0 000 16h20a8 8 0 000-16zM193.054 70.946a7.975 7.975 0 005.656-2.343l14.143-14.142a8 8 0 10-11.314-11.314L187.397 57.29a8 8 0 005.657 13.656z"/></svg>