<svg xmlns="http://www.w3.org/2000/svg" viewBox="0 0 256 256" width="20" height="20"><path fill="none" d="M0 0h256v256H0z"/><path d="M200 40a8 8 0 000 16 16 16 0 0116 16v60H40V72a16 16 0 0116-16 8 8 0 000-16 32.1 32.1 0 00-32 32v92a44 44 0 0088 0v-16h32v16a44 44 0 0088 0V72a32.1 32.1 0 00-32-32zM85 177a7.7 7.7 0 01-5.6 2.4 8 8 0 01-5.7-2.4l-15.4-15.3a8.1 8.1 0 0111.4-11.4L85 165.7a7.9 7.9 0 010 11.3zm120 0a7.7 7.7 0 01-5.6 2.4 8 8 0 01-5.7-2.4l-15.4-15.3a8.1 8.1 0 0111.4-11.4l15.3 15.4a7.9 7.9 0 010 11.3z"/></svg>