<svg xmlns="http://www.w3.org/2000/svg" viewBox="0 0 256 256" width="20" height="20"><path fill="none" d="M0 0h256v256H0z"/><path d="M224 48v104a16 16 0 01-16 16h-96v16a8 8 0 01-4.9 7.4 8.5 8.5 0 01-3.1.6 8.3 8.3 0 01-5.7-2.3l-24-24a8.1 8.1 0 010-11.4l24-24a8.4 8.4 0 018.8-1.7 8 8 0 014.9 7.4v16h96V48H96v8a8 8 0 01-16 0v-8a16 16 0 0116-16h112a16 16 0 0116 16zm-56 144a8 8 0 00-8 8v8H48V104h96v16a8.1 8.1 0 004.9 7.4 8.5 8.5 0 003.1.6 8.3 8.3 0 005.7-2.3l24-24a8.1 8.1 0 000-11.4l-24-24a8.2 8.2 0 00-8.8-1.7A8 8 0 00144 72v16H48a16 16 0 00-16 16v104a16 16 0 0016 16h112a16 16 0 0016-16v-8a8 8 0 00-8-8z"/></svg>