<svg xmlns="http://www.w3.org/2000/svg" viewBox="0 0 256 256" width="20" height="20"><path fill="none" d="M0 0h256v256H0z"/><path d="M228.168 152.956l-19.153-52.622a16.017 16.017 0 00-20.507-9.563l-59.943 21.817 11.077-62.82a16 16 0 00-12.978-18.537L71.515 21.51A15.999 15.999 0 0052.98 34.486L28.792 171.66a45.288 45.288 0 007.744 33.984 43.299 43.299 0 0035.401 18.354h.003L72 224h140a16.018 16.018 0 0016-16v-43.722a15.915 15.915 0 00.168-11.322zM72 192a12 12 0 1112-12 12.013 12.013 0 01-12 12zm140 16h-88.281L212 175.868zm-98.547-13.29a43.467 43.467 0 001.879-7.07l10.025-56.857 68.623-24.977 19.153 52.623z"/></svg>