<svg xmlns="http://www.w3.org/2000/svg" viewBox="0 0 256 256" width="20" height="20"><path fill="none" d="M0 0h256v256H0z"/><path d="M221.657 34.343A8.002 8.002 0 00216 32h-.025l-63.8.201a8 8 0 00-6.142 2.905l-70.396 85.217-8.324-8.324a16.022 16.022 0 00-22.627.001L32 124.686a15.999 15.999 0 000 22.627l20.887 20.888-29.942 29.942a16.018 16.018 0 00.001 22.627l12.284 12.284a16 16 0 0022.628 0l29.94-29.942 20.889 20.889a16.023 16.023 0 0022.627-.001L144 211.314a15.999 15.999 0 00.001-22.627l-8.323-8.324 85.217-70.396a8.001 8.001 0 002.905-6.143l.2-63.799a8.001 8.001 0 00-2.343-5.682zm-13.846 65.678L124.312 169l-12.998-13 54.343-54.343a8 8 0 00-11.314-11.314L100 144.686l-12.998-12.999 68.977-83.498 51.996-.164z"/></svg>