<svg xmlns="http://www.w3.org/2000/svg" viewBox="0 0 256 256" width="20" height="20"><path fill="none" d="M0 0h256v256H0z"/><path d="M237.7 77.7a8.2 8.2 0 01-11.4 0L208 59.3 179.3 88l34.4 34.3a8.1 8.1 0 010 11.4 8.2 8.2 0 01-11.4 0l-6.3-6.4-84 84a16.1 16.1 0 01-11.3 4.7H51.3l-21.6 21.7a8.2 8.2 0 01-11.4 0 8.1 8.1 0 010-11.4L40 204.7v-49.4a16.1 16.1 0 014.7-11.3l11.2-11.2a4 4 0 015.6 0l28.8 28.9a8.2 8.2 0 0011.4 0 8.1 8.1 0 000-11.4l-28.9-28.8a4 4 0 010-5.6l19.1-19.1a4 4 0 015.6 0l28.8 28.9a8.2 8.2 0 0011.4 0 8.1 8.1 0 000-11.4l-28.9-28.8a4 4 0 010-5.6L128.7 60l-6.1-6.1a8.3 8.3 0 01-.4-11.4 8.1 8.1 0 0111.5-.2L168 76.7 196.7 48l-18.1-18.1a8.3 8.3 0 01-.4-11.4 8.1 8.1 0 0111.5-.2l48 48a8.1 8.1 0 010 11.4z"/></svg>