<svg xmlns="http://www.w3.org/2000/svg" viewBox="0 0 256 256" width="20" height="20"><path fill="none" d="M0 0h256v256H0z"/><path d="M245.398 61.3L195.97 33.053l-.06-.03a7.947 7.947 0 00-.486-.247c-.078-.037-.154-.077-.232-.111-.15-.065-.304-.12-.457-.176-.1-.037-.197-.077-.297-.11-.12-.037-.243-.066-.365-.1-.138-.037-.276-.077-.416-.106-.086-.018-.175-.03-.262-.045a8.024 8.024 0 00-.534-.081c-.07-.008-.142-.01-.213-.015a7.941 7.941 0 00-.59-.03c-.019 0-.037-.003-.057-.003h-32a8 8 0 00-8 8 24 24 0 01-48 0 8 8 0 00-8-8H64c-.026 0-.05.004-.076.004a7.922 7.922 0 00-.505.025c-.098.007-.197.01-.294.021-.151.017-.302.044-.453.07-.114.018-.228.033-.34.057-.118.025-.233.06-.35.09-.143.037-.287.072-.427.117-.086.027-.17.062-.254.093-.168.06-.334.12-.496.19-.073.032-.144.07-.216.105-.169.08-.337.161-.499.252l-.06.03L10.602 61.3A16.008 16.008 0 004.23 82.347l18.404 36.808A15.912 15.912 0 0036.944 128H56v80a16.018 16.018 0 0016 16h112a16.018 16.018 0 0016-16v-80h19.056a15.911 15.911 0 0014.31-8.845l18.405-36.809a16.008 16.008 0 00-6.373-21.047zM36.944 112L18.54 75.19 56 53.786V112zm182.112 0H200V53.785l37.46 21.406z"/></svg>