<svg xmlns="http://www.w3.org/2000/svg" viewBox="0 0 256 256" width="20" height="20"><path fill="none" d="M0 0h256v256H0z"/><path d="M211.2 79.392a8 8 0 00-3.77 10.667 88.088 88.088 0 11-23.13-29.672l-22.77 22.768a55.997 55.997 0 00-73.133 84.438l.004.005.006.005a56 56 0 0095.502-42.797 8 8 0 10-15.974.908 40.014 40.014 0 01-61.998 35.663l23.949-23.949 37.713-37.712.005-.006 62.053-62.053a8 8 0 00-11.314-11.314l-22.676 22.676a104.002 104.002 0 00-141.206 152.52A104.016 104.016 0 00221.867 83.162a8 8 0 00-10.667-3.77z"/></svg>