<svg xmlns="http://www.w3.org/2000/svg" viewBox="0 0 256 256" width="20" height="20"><path fill="none" d="M0 0h256v256H0z"/><path d="M224 136h3.3a4 4 0 013.9 4.5 104.2 104.2 0 01-94.8 91.1A88 88 0 01224 136zm-73.5 14.5A102.9 102.9 0 01224 120h3.1a4 4 0 004.1-4.4 104.1 104.1 0 00-90.9-90.9 4 4 0 00-4.4 4.1 103.7 103.7 0 01-30.4 76.7A102.9 102.9 0 0132 136h-3.1a4 4 0 00-4.1 4.4 104.1 104.1 0 0090.9 90.9 4 4 0 004.4-4.1 103.7 103.7 0 0130.4-76.7zM94.2 94.2a87.6 87.6 0 0025.7-65.7 4 4 0 00-4.5-3.7 104 104 0 00-90.6 90.6 4 4 0 003.8 4.5 87.8 87.8 0 0065.6-25.7z"/></svg>