<svg xmlns="http://www.w3.org/2000/svg" viewBox="0 0 256 256" width="20" height="20"><path fill="none" d="M0 0h256v256H0z"/><path d="M224 128a8 8 0 01-8 8h-40.1c9.2 7.1 16.1 17.2 16.1 32s-7 25.7-19.8 34.8S144.6 216 128 216s-32.3-4.7-44.2-13.2S64 181.3 64 168a8 8 0 0116 0c0 17.3 22 32 48 32s48-14.7 48-32c0-14.9-10.5-23.6-38.8-32H40a8 8 0 010-16h176a8 8 0 018 8zM76.3 104a6.9 6.9 0 002.5-.4 8 8 0 005.1-10.1 19.2 19.2 0 01-.8-5.5c0-18.2 19.3-32 44.9-32 19.5 0 36.1 8.3 42.3 21a8.1 8.1 0 0010.7 3.7 7.9 7.9 0 003.7-10.7c-9-18.5-30.7-30-56.7-30-34.7 0-60.9 20.6-60.9 48a36 36 0 001.6 10.5 8 8 0 007.6 5.5z"/></svg>