<svg xmlns="http://www.w3.org/2000/svg" viewBox="0 0 256 256" width="20" height="20"><path fill="none" d="M0 0h256v256H0z"/><path d="M224 128a8 8 0 01-8 8h-40.07c9.188 7.111 16.07 17.202 16.07 32 0 13.34-7.015 25.696-19.752 34.794C160.326 211.31 144.61 216 128 216s-32.326-4.69-44.248-13.206C71.015 193.696 64 181.339 64 168a8 8 0 0116 0c0 17.346 21.981 32 48 32s48-14.654 48-32c0-14.854-10.54-23.582-38.766-32H40a8 8 0 010-16h176a8 8 0 018 8zM76.333 104.005a8.006 8.006 0 007.602-10.496A17.43 17.43 0 0183.111 88c0-18.243 19.298-32 44.889-32 19.5 0 36.118 8.252 42.336 21.022a8 8 0 1014.385-7.004C175.706 51.502 153.971 40 128 40c-34.712 0-60.889 20.636-60.889 48a33.606 33.606 0 001.622 10.497 8.003 8.003 0 007.6 5.508z"/></svg>