<svg xmlns="http://www.w3.org/2000/svg" viewBox="0 0 256 256" width="20" height="20"><path fill="none" d="M0 0h256v256H0z"/><path d="M160 143.274V48a40 40 0 00-80 0v95.274a60 60 0 1080 0zM120 24a24.027 24.027 0 0124 24v8H96v-8a24.027 24.027 0 0124-24zm58.06 61.657a8 8 0 010-11.314 28 28 0 0139.597 0 12.012 12.012 0 0016.97 0 8 8 0 0111.314 11.314 28 28 0 01-39.598 0 12.012 12.012 0 00-16.97 0 8.002 8.002 0 01-11.314 0zm67.88 28.686a8 8 0 010 11.314 28 28 0 01-39.597 0 12.012 12.012 0 00-16.97 0 8 8 0 01-11.314-11.314 28 28 0 0139.598 0 12.012 12.012 0 0016.97 0 8.002 8.002 0 0111.314 0z"/></svg>