<svg xmlns="http://www.w3.org/2000/svg" viewBox="0 0 256 256" width="20" height="20"><path fill="none" d="M0 0h256v256H0z"/><path d="M244.9 77.7l-20 6.5 12.4 17a8 8 0 01-1.8 11.2 8.1 8.1 0 01-11.2-1.8l-12.3-17-12.3 17a8.1 8.1 0 01-11.2 1.8 8 8 0 01-1.8-11.2l12.4-17-20-6.5a7.9 7.9 0 01-5.1-10.1 7.8 7.8 0 0110-5.1l20 6.5V48a8 8 0 0116 0v21l20-6.5a7.8 7.8 0 0110 5.1 7.9 7.9 0 01-5.1 10.1zM180 188a60 60 0 01-120 0 59.4 59.4 0 0120-44.7V48a40 40 0 0180 0v95.3a59.4 59.4 0 0120 44.7zM96 48v56h48V48a24 24 0 00-48 0z"/></svg>