<svg xmlns="http://www.w3.org/2000/svg" viewBox="0 0 256 256" width="20" height="20"><path fill="none" d="M0 0h256v256H0z"/><path d="M244 116.686L139.314 12a15.999 15.999 0 00-22.627 0L11.999 116.687A16.022 16.022 0 0012 139.314L116.686 244a15.999 15.999 0 0022.627.001l104.688-104.687a16.022 16.022 0 00-.001-22.627zm-68.001 3.336q-.001.384-.04.767c-.01.12-.033.237-.05.357-.02.14-.036.279-.064.417-.027.135-.064.266-.097.399-.03.12-.057.24-.093.36-.04.13-.088.256-.134.383-.043.12-.082.239-.13.356-.05.118-.106.23-.16.345-.058.122-.112.246-.177.366-.057.107-.123.21-.186.314-.07.12-.139.24-.216.357-.076.113-.16.22-.242.329-.075.1-.144.203-.224.3a8.103 8.103 0 01-.472.522c-.02.02-.037.043-.057.063l-24 24a8 8 0 01-11.314-11.314L148.686 128H112a16.018 16.018 0 00-16 16v8a8 8 0 01-16 0v-8a32.037 32.037 0 0132-32h36.686l-10.343-10.343a8 8 0 0111.314-11.314l24 24c.02.02.037.042.057.063.164.167.323.34.472.522.08.097.149.2.224.3.081.109.166.216.242.33.077.115.145.236.216.356.063.105.129.207.186.315.065.12.119.243.176.365.055.115.112.227.16.345.05.117.088.237.13.356.047.127.095.253.135.383.036.12.062.24.092.36.034.133.071.264.098.4.027.137.044.277.064.417.017.119.04.236.05.357q.039.382.04.766L176 120z"/></svg>