<svg xmlns="http://www.w3.org/2000/svg" viewBox="0 0 256 256" width="20" height="20"><path fill="none" d="M0 0h256v256H0z"/><path d="M188 24H68a32.1 32.1 0 00-32 32v128a32.1 32.1 0 0032 32h12l-14.4 19.2a8 8 0 001.6 11.2A7.7 7.7 0 0072 248a8 8 0 006.4-3.2L100 216h56l21.6 28.8a8 8 0 006.4 3.2 7.7 7.7 0 004.8-1.6 8 8 0 001.6-11.2L176 216h12a32.1 32.1 0 0032-32V56a32.1 32.1 0 00-32-32zM84 184a12 12 0 1112-12 12 12 0 01-12 12zm36-64H52V80h68zm52 64a12 12 0 1112-12 12 12 0 01-12 12zm32-64h-68V80h68z"/></svg>