<svg xmlns="http://www.w3.org/2000/svg" viewBox="0 0 256 256" width="20" height="20"><path fill="none" d="M0 0h256v256H0z"/><path d="M160 80H96a8 8 0 000 16h64a8 8 0 000-16z"/><path d="M223.99 119.857q-.007-.379-.05-.762a7.836 7.836 0 00-.038-.29c-.012-.08-.017-.157-.03-.236-.034-.18-.081-.355-.125-.53-.012-.047-.016-.096-.03-.144l-.032-.12-.001-.005-22.359-81.98A16.034 16.034 0 00185.89 24H70.11a16.034 16.034 0 00-15.435 11.79l-22.358 81.979-.002.007-.033.119c-.013.047-.017.095-.029.143-.044.175-.091.35-.124.53-.014.08-.019.158-.03.236a7.797 7.797 0 00-.038.291q-.045.383-.051.762c-.002.067-.006.134-.006.2a7.949 7.949 0 00.066.99c.002.02.007.04.01.06a7.95 7.95 0 00.181.895c.01.034.012.069.021.103l22.393 82.104A16.034 16.034 0 0070.11 216H80l-14.4 19.2a8 8 0 0012.8 9.6L100 216h56l21.6 28.8a8 8 0 0012.8-9.6L176 216h9.89a16.034 16.034 0 0015.435-11.791l22.393-82.104c.01-.034.012-.069.02-.103a7.95 7.95 0 00.182-.895l.01-.06a7.949 7.949 0 00.066-.99c0-.066-.005-.133-.006-.2zM136 192a8 8 0 01-16 0v-40a8 8 0 0116 0zm-8-64.131l-77.987-14.18L70.106 40H185.89l20.097 73.69z"/></svg>