<svg xmlns="http://www.w3.org/2000/svg" viewBox="0 0 256 256" width="20" height="20"><path fill="none" d="M0 0h256v256H0z"/><path d="M239.132 212.422l-56-112a8 8 0 00-14.31 0l-21.698 43.395a88.012 88.012 0 01-47.153-16.9A103.64 103.64 0 00127.671 64h24.306a8 8 0 000-16h-56V32a8 8 0 00-16 0v16h-56a8 8 0 000 16h87.632a87.713 87.713 0 01-23.64 52.341 87.629 87.629 0 01-18.982-31.009 8 8 0 10-15.083 5.338 103.56 103.56 0 0022.082 36.27A87.527 87.527 0 0123.976 144a8 8 0 000 16 103.485 103.485 0 0064.014-22.09 104.142 104.142 0 0051.441 21.292l-26.61 53.22a8 8 0 0014.31 7.156L140.922 192h70.111l13.79 27.578a8 8 0 0014.31-7.156zM148.92 176l27.056-54.111L203.032 176z"/></svg>