<svg xmlns="http://www.w3.org/2000/svg" viewBox="0 0 256 256" width="20" height="20"><path fill="none" d="M0 0h256v256H0z"/><path d="M239.1 212.4l-56-112A7.9 7.9 0 00176 96a8 8 0 00-7.2 4.4l-21.7 43.4a87.4 87.4 0 01-47.1-16.9A104.1 104.1 0 00127.7 64H152a8 8 0 000-16H96V32a8 8 0 00-16 0v16H24a8 8 0 000 16h87.6A87.5 87.5 0 0188 116.3a87.1 87.1 0 01-19-31 8 8 0 00-10.2-4.8 7.9 7.9 0 00-4.9 10.2A103.8 103.8 0 0076 126.9 87.1 87.1 0 0124 144a8 8 0 000 16 103.8 103.8 0 0064-22.1 103.6 103.6 0 0051.4 21.3l-26.6 53.2a8 8 0 1014.3 7.2l13.8-27.6H211l13.8 27.6a8 8 0 007.2 4.4 9.4 9.4 0 003.6-.8 8.1 8.1 0 003.5-10.8zM148.9 176l27.1-54.1 27 54.1z"/></svg>