<svg xmlns="http://www.w3.org/2000/svg" viewBox="0 0 256 256" width="20" height="20"><path fill="none" d="M0 0h256v256H0z"/><path d="M128 187.9a91.6 91.6 0 01-8 4.6V232a8 8 0 0016 0v-39.5a91.6 91.6 0 01-8-4.6z"/><path d="M198.1 62.6a76 76 0 00-140.2 0A72.3 72.3 0 0016 127.8c-.1 38.8 31.4 71.2 70.1 72.2a71.9 71.9 0 0033.9-7.5v-35.6l-43.6-21.7a8 8 0 117.2-14.4l36.4 18.3V88a8 8 0 0116 0v27.1l36.4-18.3a8 8 0 017.2 14.4L136 132.9v59.6a72 72 0 0032 7.5h1.9c38.7-1 70.2-33.4 70.1-72.2a72.3 72.3 0 00-41.9-65.2z"/></svg>