<svg xmlns="http://www.w3.org/2000/svg" viewBox="0 0 256 256" width="20" height="20"><path fill="none" d="M0 0h256v256H0z"/><path d="M24.002 192a7.976 7.976 0 005.658-2.343l66.342-66.343 34.343 34.343a8.001 8.001 0 0011.315 0l82.342-82.343V120a8 8 0 0016 0V56.005q0-.4-.04-.797c-.01-.108-.03-.212-.045-.319-.022-.152-.04-.304-.07-.455-.025-.126-.06-.248-.091-.372-.032-.13-.06-.26-.1-.387-.036-.123-.083-.24-.125-.36-.046-.127-.088-.254-.139-.38-.046-.11-.1-.216-.151-.325-.06-.129-.117-.258-.185-.384-.055-.103-.118-.2-.178-.3-.073-.124-.144-.25-.224-.37-.074-.11-.156-.213-.235-.318-.076-.104-.148-.21-.231-.31a7.977 7.977 0 00-.47-.52l-.058-.065c-.016-.016-.034-.029-.05-.045a7.945 7.945 0 00-.536-.484c-.094-.077-.193-.145-.29-.217-.113-.084-.222-.171-.34-.25-.112-.075-.23-.14-.346-.21-.108-.065-.214-.133-.326-.192-.116-.063-.236-.115-.356-.172-.117-.055-.233-.114-.354-.164-.114-.047-.23-.085-.345-.127-.131-.047-.26-.097-.395-.138-.113-.034-.23-.059-.344-.088-.138-.035-.274-.073-.415-.101-.13-.026-.262-.041-.393-.06-.127-.019-.252-.043-.38-.055a8.03 8.03 0 00-.7-.036c-.029 0-.058-.004-.088-.004h-64a8 8 0 000 16h44.686l-76.686 76.686-34.342-34.343a8.001 8.001 0 00-11.315 0l-72 72A8 8 0 0024.002 192z"/></svg>