<svg xmlns="http://www.w3.org/2000/svg" viewBox="0 0 256 256" width="20" height="20"><path fill="none" d="M0 0h256v256H0z"/><path d="M238.42 204.762c.078-.105.16-.208.234-.318.08-.12.15-.246.224-.37.06-.1.122-.197.178-.3.068-.126.125-.255.185-.384.05-.108.105-.215.151-.326.051-.124.093-.252.139-.378.042-.12.089-.238.126-.36.038-.128.067-.258.099-.387.031-.124.066-.247.091-.373.03-.15.048-.303.07-.455.014-.107.035-.211.045-.319q.04-.398.04-.797V136a8 8 0 00-16 0v44.686L141.66 98.343a8.001 8.001 0 00-11.315 0l-34.343 34.343L29.66 66.343a8 8 0 10-11.315 11.314l72 72a8.001 8.001 0 0011.315 0l34.342-34.343L212.688 192h-44.686a8 8 0 100 16h64c.264 0 .528-.014.79-.04.118-.012.232-.034.35-.05.14-.02.283-.037.424-.065.134-.027.265-.064.396-.097.121-.03.243-.057.363-.093.129-.04.254-.088.38-.133.12-.043.24-.083.359-.132.117-.048.23-.105.344-.159.122-.058.246-.112.366-.176.109-.059.213-.126.32-.189.117-.07.236-.137.35-.214.117-.078.227-.164.339-.248.097-.073.197-.14.29-.218.187-.153.365-.315.536-.484.017-.016.035-.03.05-.045.021-.02.038-.043.058-.064a7.98 7.98 0 00.47-.52c.084-.101.156-.207.232-.31z"/></svg>