<svg xmlns="http://www.w3.org/2000/svg" viewBox="0 0 256 256" width="20" height="20"><path fill="none" d="M0 0h256v256H0z"/><path d="M247.997 119.94c0-.083-.01-.167-.013-.251a8.063 8.063 0 00-.049-.66c-.011-.094-.028-.188-.043-.282a7.814 7.814 0 00-.192-.893q-.1-.361-.234-.708c-.015-.039-.023-.079-.039-.117l-.05-.124-.01-.027-13.928-34.82A15.924 15.924 0 00218.584 72H184v-8a8 8 0 00-8-8H24A16.018 16.018 0 008 72v112a16.018 16.018 0 0016 16h13.012a32.004 32.004 0 0061.975 0h58.025a32.004 32.004 0 0061.975 0H232a16.018 16.018 0 0016-16v-64l-.003-.06zM184 88h34.584l9.6 24H184zM24 72h144v64H24zm44 136a16 16 0 1116-16 16.018 16.018 0 01-16 16zm120 0a16 16 0 1116-16 16.018 16.018 0 01-16 16z"/></svg>