<svg xmlns="http://www.w3.org/2000/svg" viewBox="0 0 256 256" width="20" height="20"><path fill="none" d="M0 0h256v256H0z"/><path d="M245.657 77.657l-29.703 29.702c-.798 29.357-12.003 57.988-31.021 79.008C162.657 210.987 131.905 224 96 224c-34.912 0-52.908-17.594-53.657-18.343a8 8 0 014.079-13.5c8.538-1.73 29.731-8.465 38.75-20.605a92.962 92.962 0 01-25.348-21.467c-25.092-30.469-24.56-68.76-19.695-95.516a8 8 0 0114.118-3.567c.275.342 26.568 32.555 65.753 43.08v-6.08a48.319 48.319 0 0148.608-47.999A48.113 48.113 0 01209.578 64H240a8 8 0 015.657 13.657z"/></svg>