<svg xmlns="http://www.w3.org/2000/svg" viewBox="0 0 256 256" width="20" height="20"><path fill="none" d="M0 0h256v256H0z"/><path d="M239.613 126.63A112.01 112.01 0 00128.007 24h-.014A112.01 112.01 0 0016.387 126.63 16.021 16.021 0 0032.334 144H120v56a32 32 0 0064 0 8 8 0 00-16 0 16 16 0 01-32 0v-56h87.666a16.021 16.021 0 0015.947-17.37zm-207.281 1.322a95.98 95.98 0 0175.856-85.874C96.473 58.058 81.845 86.13 80.166 128H32.334zm143.502.048c-1.68-41.87-16.307-69.943-28.023-85.922A95.965 95.965 0 01223.666 128z"/></svg>