<svg xmlns="http://www.w3.org/2000/svg" viewBox="0 0 256 256" width="20" height="20"><path fill="none" d="M0 0h256v256H0z"/><path d="M85.657 77.657L120 43.313V128a8 8 0 0016 0V43.313l34.343 34.344a8 8 0 0011.314-11.314l-48-48c-.023-.023-.048-.042-.071-.064a8.137 8.137 0 00-.514-.465c-.096-.079-.198-.148-.297-.221-.11-.083-.218-.168-.333-.245-.113-.077-.232-.142-.349-.212-.107-.065-.212-.132-.323-.191-.116-.062-.235-.114-.353-.17-.12-.057-.236-.116-.358-.167-.112-.046-.225-.083-.339-.123-.133-.049-.265-.1-.402-.14-.109-.034-.22-.057-.33-.086-.142-.036-.283-.076-.43-.105-.12-.024-.243-.037-.365-.055-.136-.021-.27-.046-.409-.06a8.144 8.144 0 00-.607-.03c-.06-.001-.117-.009-.177-.009s-.118.008-.177.009a8.144 8.144 0 00-.607.03c-.138.014-.273.04-.41.06-.12.018-.244.031-.365.055-.146.03-.287.069-.43.105-.11.029-.22.052-.33.085-.136.041-.268.093-.401.14-.113.041-.227.079-.34.124-.12.051-.238.11-.356.166-.119.057-.238.109-.354.17-.11.06-.216.127-.323.192-.117.07-.236.136-.35.212-.114.077-.222.162-.332.245-.099.074-.2.142-.297.221a8.016 8.016 0 00-.505.457c-.026.025-.054.046-.08.072l-48 48a8 8 0 0011.314 11.314z"/><path d="M224 120h-72v8a24 24 0 01-48 0v-8H32a16.018 16.018 0 00-16 16v64a16.018 16.018 0 0016 16h192a16.018 16.018 0 0016-16v-64a16.018 16.018 0 00-16-16zm-36 60a12 12 0 1112-12 12 12 0 01-12 12z"/></svg>