<svg xmlns="http://www.w3.org/2000/svg" viewBox="0 0 256 256" width="20" height="20"><path fill="none" d="M0 0h256v256H0z"/><path d="M74.3 77.7a8.1 8.1 0 010-11.4l48-48a8.1 8.1 0 0111.4 0l48 48a8.1 8.1 0 010 11.4 8.2 8.2 0 01-11.4 0L136 43.3V128a8 8 0 01-16 0V43.3L85.7 77.7a8.1 8.1 0 01-11.4 0zM240 136v64a16 16 0 01-16 16H32a16 16 0 01-16-16v-64a16 16 0 0116-16h68a4 4 0 014 4v3.5c0 13.4 11 24.8 24.5 24.5a24 24 0 0023.5-24v-4a4 4 0 014-4h68a16 16 0 0116 16zm-40 32a12 12 0 10-12 12 12 12 0 0012-12z"/></svg>