<svg xmlns="http://www.w3.org/2000/svg" viewBox="0 0 256 256" width="20" height="20"><path fill="none" d="M0 0h256v256H0z"/><path d="M199.9 194.9a7.8 7.8 0 011.1 8.5 7.9 7.9 0 01-7.2 4.6H22.2a7.9 7.9 0 01-7.2-4.6 7.8 7.8 0 011.1-8.5 118.4 118.4 0 0155.8-37.3 68 68 0 1172.2 0 118.4 118.4 0 0155.8 37.3zm51.3-40.9a8 8 0 01-7 4 7.6 7.6 0 01-4-1.1l-4.6-2.7a24 24 0 01-7.6 4.4v5.4a8 8 0 01-16 0v-5.4a24 24 0 01-7.6-4.4l-4.6 2.7a7.6 7.6 0 01-4 1.1 8 8 0 01-4-14.9l4.6-2.7a24.4 24.4 0 010-8.8l-4.6-2.7a7.9 7.9 0 01-3-10.9 8.1 8.1 0 0111-2.9l4.6 2.7a24 24 0 017.6-4.4V108a8 8 0 0116 0v5.4a24 24 0 017.6 4.4l4.6-2.7a8.1 8.1 0 0111 2.9 7.9 7.9 0 01-3 10.9l-4.6 2.7a24.4 24.4 0 010 8.8l4.6 2.7a7.9 7.9 0 013 10.9zM220 144a8 8 0 10-8-8 8 8 0 008 8z"/></svg>