<svg xmlns="http://www.w3.org/2000/svg" viewBox="0 0 256 256" width="20" height="20"><path fill="none" d="M0 0h256v256H0z"/><path d="M253.7 133.7l-24 24a8.2 8.2 0 01-11.4 0l-24-24a8.4 8.4 0 01-1.7-8.8 8 8 0 017.4-4.9h15.6A87.9 87.9 0 0054.1 80.3 8 8 0 0143 82.6a7.9 7.9 0 01-2.4-11A104 104 0 01231.7 120H248a8 8 0 017.4 4.9 8.4 8.4 0 01-1.7 8.8zM213 173.4a8 8 0 00-11.1 2.3 86.9 86.9 0 01-8.1 10.8 81.3 81.3 0 00-24.5-23 59.7 59.7 0 01-82.6 0 81.3 81.3 0 00-24.5 23A87.6 87.6 0 0140.4 136H56a8 8 0 007.4-4.9 8.4 8.4 0 00-1.7-8.8l-24-24a8.1 8.1 0 00-11.4 0l-24 24a8.4 8.4 0 00-1.7 8.8A8 8 0 008 136h16.3a103.7 103.7 0 0034.5 69.6l.4.3a103.9 103.9 0 00156.2-21.5 7.9 7.9 0 00-2.4-11zm-85-9.4a44 44 0 10-44-44 44 44 0 0044 44z"/></svg>