<svg xmlns="http://www.w3.org/2000/svg" viewBox="0 0 256 256" width="20" height="20"><path fill="none" d="M0 0h256v256H0z"/><path d="M128 76a44 44 0 11-44 44 44 44 0 0144-44zm48-12h16v16a8 8 0 0016 0V64h16a8 8 0 000-16h-16V32a8 8 0 00-16 0v16h-16a8 8 0 000 16zm45.56 40.956a8 8 0 00-6.649 9.154A89 89 0 01216 128a87.637 87.637 0 01-22.242 58.41 79.704 79.704 0 00-24.43-22.974 59.836 59.836 0 01-82.655 0 79.703 79.703 0 00-24.431 22.974A87.95 87.95 0 01128 40a89.03 89.03 0 0113.89 1.089 8 8 0 102.505-15.803A104.083 104.083 0 0024 128a103.747 103.747 0 0033.82 76.68 7.945 7.945 0 001.326 1.19 103.784 103.784 0 00137.712-.003 7.946 7.946 0 001.317-1.181A103.748 103.748 0 00232 128a105.047 105.047 0 00-1.286-16.395 7.998 7.998 0 00-9.154-6.649z"/></svg>