<svg xmlns="http://www.w3.org/2000/svg" viewBox="0 0 256 256" width="20" height="20"><path fill="none" d="M0 0h256v256H0z"/><path d="M121.2 157.9a60 60 0 10-66.4 0 95.5 95.5 0 00-45.3 34.9 7.8 7.8 0 00-.6 8.3 8.1 8.1 0 007.1 4.3h144a8.1 8.1 0 007.1-4.3 7.8 7.8 0 00-.6-8.3 95.5 95.5 0 00-45.3-34.9z"/><path d="M248.1 192.8a96.3 96.3 0 00-45.4-34.9A59.9 59.9 0 00169.5 48a64 64 0 00-16.3 2.2 8.2 8.2 0 00-5.4 5.2 8 8 0 001.2 7.3 75.8 75.8 0 013.8 84.9 8.1 8.1 0 002.1 10.6q4.5 3.5 8.7 7.2l.5.5a112.6 112.6 0 0125.5 34.9 7.9 7.9 0 007.2 4.6h44.7a8.1 8.1 0 007.1-4.3 8 8 0 00-.5-8.3z"/></svg>