<svg xmlns="http://www.w3.org/2000/svg" viewBox="0 0 256 256" width="20" height="20"><path fill="none" d="M0 0h256v256H0z"/><path d="M121.199 157.948a60 60 0 10-66.397 0A96.214 96.214 0 009.455 192.79a8 8 0 006.542 12.605L160 205.391a8 8 0 006.54-12.606 96.215 96.215 0 00-45.342-34.837z"/><path d="M248.063 192.785a96.214 96.214 0 00-45.343-34.837 60 60 0 00-49.473-107.713 8 8 0 00-4.25 12.479 75.832 75.832 0 013.84 84.886 8 8 0 002.045 10.601 113.206 113.206 0 018.743 7.215c.145.157.29.313.45.46a112.034 112.034 0 0125.478 34.905 8 8 0 007.25 4.615l44.72-.005a8 8 0 006.54-12.606z"/></svg>