<svg xmlns="http://www.w3.org/2000/svg" viewBox="0 0 256 256" width="20" height="20"><path fill="none" d="M0 0h256v256H0z"/><path d="M128 76a44 44 0 11-44 44 44 44 0 0144-44zm48-12h48a8 8 0 000-16h-48a8 8 0 000 16zm39.872 24.457a8 8 0 00-4.877 10.209 88.016 88.016 0 01-17.237 87.744 79.704 79.704 0 00-24.43-22.974 59.836 59.836 0 01-82.655 0 79.703 79.703 0 00-24.431 22.974A87.95 87.95 0 01128 40a89.043 89.043 0 0113.888 1.088 8 8 0 002.504-15.802A104.083 104.083 0 0024 128a103.747 103.747 0 0033.82 76.68 7.945 7.945 0 001.326 1.19 103.784 103.784 0 00137.712-.003 7.946 7.946 0 001.317-1.181A104.014 104.014 0 00226.08 93.334a8 8 0 00-10.208-4.877z"/></svg>