<svg xmlns="http://www.w3.org/2000/svg" viewBox="0 0 256 256" width="20" height="20"><path fill="none" d="M0 0h256v256H0z"/><path d="M128 76a44 44 0 11-44 44 44 44 0 0144-44zm103.177-2a7.997 7.997 0 01-10.928 2.928l-4.669-2.695a24.004 24.004 0 01-7.58 4.391V84a8 8 0 01-16 0v-5.376a24.004 24.004 0 01-7.58-4.391l-4.669 2.695a8 8 0 01-8-13.856l4.657-2.689a23.728 23.728 0 010-8.766l-4.657-2.689a8 8 0 018-13.856l4.669 2.695a24.004 24.004 0 017.58-4.391V28a8 8 0 0116 0v5.376a24.004 24.004 0 017.58 4.391l4.669-2.695a8 8 0 118 13.856l-4.657 2.689a23.728 23.728 0 010 8.766l4.657 2.689A8 8 0 01231.177 74zM200 64a8 8 0 10-8-8 8.01 8.01 0 008 8zm22.37 44.556a8 8 0 00-6.995 8.892A89.405 89.405 0 01216 128a87.639 87.639 0 01-22.242 58.41 79.707 79.707 0 00-24.43-22.974 59.837 59.837 0 01-82.655 0 79.705 79.705 0 00-24.431 22.974A87.95 87.95 0 01128 40c2.727 0 5.477.126 8.175.374a8 8 0 001.467-15.933A105.64 105.64 0 00128 24a103.951 103.951 0 00-70.18 180.68 7.934 7.934 0 001.325 1.19 103.784 103.784 0 00137.712-.002 7.935 7.935 0 001.32-1.184A103.747 103.747 0 00232 128a105.4 105.4 0 00-.738-12.448 8 8 0 00-8.892-6.996z"/></svg>