<svg xmlns="http://www.w3.org/2000/svg" viewBox="0 0 256 256" width="20" height="20"><path fill="none" d="M0 0h256v256H0z"/><path d="M128 76a44 44 0 11-44 44 44 44 0 0144-44zm48-12h48a8 8 0 000-16h-48a8 8 0 000 16zm39.9 24.5a7.9 7.9 0 00-4.9 10.2 88 88 0 01-17.2 87.7 81.3 81.3 0 00-24.5-23 59.7 59.7 0 01-82.6 0 81.3 81.3 0 00-24.5 23A88 88 0 01128 40a92 92 0 0113.9 1.1 8 8 0 002.5-15.8A99.8 99.8 0 00128 24a104 104 0 00-70.2 180.7l1.3 1.2a104 104 0 00137.8 0l1.3-1.2a104.2 104.2 0 0027.9-111.4 8 8 0 00-10.2-4.8z"/></svg>