<svg xmlns="http://www.w3.org/2000/svg" viewBox="0 0 256 256" width="20" height="20"><path fill="none" d="M0 0h256v256H0z"/><path d="M176 64h16v16a8 8 0 0016 0V64h16a8 8 0 000-16h-16V32a8 8 0 00-16 0v16h-16a8 8 0 000 16z"/><path d="M231.937 211.986a120.487 120.487 0 00-67.12-54.142 72.111 72.111 0 0034.734-53.855A24.023 24.023 0 01176 80a23.995 23.995 0 01-10.62-45.515 71.977 71.977 0 10-74.196 123.359 120.488 120.488 0 00-67.12 54.14 8 8 0 006.925 12.007l194.023.002a8 8 0 006.925-12.007z"/></svg>