<svg xmlns="http://www.w3.org/2000/svg" viewBox="0 0 256 256" width="20" height="20"><path fill="none" d="M0 0h256v256H0z"/><path d="M168.823 74a7.996 7.996 0 0010.928 2.928l4.669-2.695a23.999 23.999 0 007.58 4.39V84a8 8 0 0016 0v-5.376a23.999 23.999 0 007.58-4.391l4.669 2.695a8 8 0 008-13.856l-4.657-2.689a23.736 23.736 0 000-8.766l4.657-2.689a8 8 0 10-8-13.856l-4.669 2.695a23.999 23.999 0 00-7.58-4.39V28a8 8 0 00-16 0v5.376a23.999 23.999 0 00-7.58 4.391l-4.669-2.695a8 8 0 00-8 13.856l4.657 2.689a23.736 23.736 0 000 8.766l-4.657 2.689A8 8 0 00168.823 74zM200 48a8 8 0 11-8 8 8.01 8.01 0 018-8z"/><path d="M231.937 211.986a120.487 120.487 0 00-67.12-54.142 72.18 72.18 0 0034.187-49.881 24.03 24.03 0 01-20.874-14.08q-1.18.118-2.371.118A24.026 24.026 0 01156.242 56a24.062 24.062 0 01-1.274-26.001c.116-.203.247-.395.37-.593a71.978 71.978 0 00-64.154 128.438 120.488 120.488 0 00-67.12 54.14 8 8 0 006.925 12.007l194.023.002a8 8 0 006.925-12.007z"/></svg>