<svg xmlns="http://www.w3.org/2000/svg" viewBox="0 0 256 256" width="20" height="20"><path fill="none" d="M0 0h256v256H0z"/><path d="M229.92 226.618a8 8 0 01-11.84 10.764l-42.342-46.576A16.015 16.015 0 01160 204H48a40.046 40.046 0 01-40-40V68a16.018 16.018 0 0116-16h25.551L28.99 29.382a8 8 0 0111.84-10.764zm14.096-153.537a8.003 8.003 0 00-7.985-.027l-40 22.857a8 8 0 00-4.031 6.946v50.286a8 8 0 004.031 6.946l40 22.857A8 8 0 00248 176V80a7.998 7.998 0 00-3.984-6.919zm-81.936 55.13a8 8 0 0013.92-5.382V92a40.046 40.046 0 00-40-40h-25.117a8 8 0 00-5.92 13.382z"/></svg>