<svg xmlns="http://www.w3.org/2000/svg" viewBox="0 0 256 256" width="20" height="20"><path fill="none" d="M0 0h256v256H0z"/><path d="M227.313 80.234l-51.547-51.546A16.115 16.115 0 00164.453 24H91.547a16.115 16.115 0 00-11.313 4.688L28.688 80.233A16.115 16.115 0 0024 91.547v72.906a16.115 16.115 0 004.688 11.313l51.546 51.547A16.115 16.115 0 0091.547 232h72.906a16.115 16.115 0 0011.313-4.688l51.547-51.546A16.115 16.115 0 00232 164.453V91.547a16.115 16.115 0 00-4.688-11.313zM120 80a8 8 0 0116 0v56a8 8 0 01-16 0zm8 104a12 12 0 1112-12 12 12 0 01-12 12z"/></svg>