<svg xmlns="http://www.w3.org/2000/svg" viewBox="0 0 256 256" width="20" height="20"><path fill="none" d="M0 0h256v256H0z"/><path d="M175.297 63.531l-6.234-34.385A15.99 15.99 0 00153.32 16h-50.64a15.99 15.99 0 00-15.743 13.146L80.703 63.53a79.897 79.897 0 000 128.938l6.234 34.385A15.99 15.99 0 00102.68 240h50.64a15.99 15.99 0 0015.743-13.146l6.234-34.385a79.897 79.897 0 000-128.938zM102.68 32h50.64l3.908 21.553a79.692 79.692 0 00-58.456 0zm50.64 192h-50.64l-3.908-21.553a79.692 79.692 0 0058.456 0zM168 136h-40a8 8 0 01-8-8V88a8 8 0 0116 0v32h32a8 8 0 010 16z"/></svg>