<svg xmlns="http://www.w3.org/2000/svg" viewBox="0 0 256 256" width="20" height="20"><path fill="none" d="M0 0h256v256H0z"/><path d="M33.7 77A8 8 0 0135 65.8a81.8 81.8 0 0129.1-13.6c16.1-4 41.1-5 68.3 13.1 42.4 28.3 77.2 1.6 78.6.4a8.2 8.2 0 0111.3 1.3 8 8 0 01-1.3 11.2 81.8 81.8 0 01-29.1 13.6 81 81 0 01-19.7 2.4c-14 0-30.8-3.7-48.6-15.5-42.4-28.3-77.2-1.6-78.6-.4A8.2 8.2 0 0133.7 77zM211 121.7c-1.4 1.2-36.2 27.9-78.6-.4-27.2-18.1-52.2-17.1-68.3-13.1A81.8 81.8 0 0035 121.8a8 8 0 00-1.3 11.2 8.2 8.2 0 0011.3 1.3c1.4-1.2 36.2-27.9 78.6.4 17.8 11.8 34.6 15.5 48.6 15.5a81 81 0 0019.7-2.4 81.8 81.8 0 0029.1-13.6 8 8 0 001.3-11.2 8.2 8.2 0 00-11.3-1.3zm0 56c-1.4 1.2-36.2 27.9-78.6-.4-27.2-18.1-52.2-17.1-68.3-13.1A81.8 81.8 0 0035 177.8a8 8 0 00-1.3 11.2 8.2 8.2 0 0011.3 1.3c1.4-1.2 36.2-27.9 78.6.4 17.8 11.8 34.6 15.5 48.6 15.5a82.6 82.6 0 0048.8-16 8 8 0 001.3-11.2 8.2 8.2 0 00-11.3-1.3z"/></svg>