<svg xmlns="http://www.w3.org/2000/svg" viewBox="0 0 256 256" width="20" height="20"><path fill="none" d="M0 0h256v256H0z"/><path d="M128 24a104.028 104.028 0 00-91.189 154.041l-8.546 29.915a16 16 0 0019.779 19.78l29.916-8.547A104.007 104.007 0 10128 24zm24.125 168c-.03.023-.084 0-.126 0A88 88 0 0164 103.876 36.014 36.014 0 01100 68a14.926 14.926 0 0112.93 7.503l11.692 20.46a16.017 16.017 0 01-.172 16.17l-7.111 11.852a40.036 40.036 0 0014.676 14.677l11.851-7.111a16.019 16.019 0 0116.17-.173l20.46 11.691A14.924 14.924 0 01188 156a36.014 36.014 0 01-35.875 36z"/><path d="M136.45 154.66a7.996 7.996 0 01-7.397.436 56.032 56.032 0 01-28.149-28.149 8 8 0 01.437-7.397l9.388-15.649L99.363 84.01A19.99 19.99 0 0080 103.897 72 72 0 00152 176h.103a19.99 19.99 0 0019.887-19.363L152.1 145.27z"/></svg>