<svg xmlns="http://www.w3.org/2000/svg" viewBox="0 0 256 256" width="20" height="20"><path fill="none" d="M0 0h256v256H0z"/><path d="M246.84 80.498a15.765 15.765 0 00-6.23-10.953c-66.303-50.035-158.917-50.035-225.22 0a15.738 15.738 0 00-6.211 10.937 16.28 16.28 0 003.76 12.273L115.8 213.986a16.156 16.156 0 003.976 3.386 15.975 15.975 0 008.257 2.298 15.846 15.846 0 0010.91-4.348 16.03 16.03 0 001.199-1.265l102.951-121.34a16.21 16.21 0 003.749-12.22zm-15.948 1.868l-47.103 55.516a95.969 95.969 0 00-111.578 0L25.14 82.404a.232.232 0 01-.06-.127c60.625-45.712 145.281-45.7 205.856-.02a.138.138 0 01-.045.109z"/></svg>