<svg xmlns="http://www.w3.org/2000/svg" viewBox="0 0 256 256" width="20" height="20"><path fill="none" d="M0 0h256v256H0z"/><path d="M229.4 98.1a8.2 8.2 0 01.6 11.1 7.8 7.8 0 01-6 2.8 8.3 8.3 0 01-5.7-2.3L200 91.3l-18.3 18.4a8.5 8.5 0 01-5.7 2.3 8 8 0 01-6.1-2.8 8.3 8.3 0 01.6-11.1L188.7 80l-18.1-18.1a8.3 8.3 0 01-.4-11.4 8.1 8.1 0 0111.5-.2L200 68.7l18.3-18.4a8.1 8.1 0 0111.5.2 8.3 8.3 0 01-.4 11.4L211.3 80zm-26.6 18.7a3.9 3.9 0 00-5.6 0l-3.9 3.8a24 24 0 01-34.3.4 24.2 24.2 0 010-34l7.1-7-6.7-6.6c-9-9-9.9-23.6-1.5-33.2a11.4 11.4 0 011.1-1.1 2.9 2.9 0 00-1.5-4.8A187.4 187.4 0 0015.4 69.6a15.6 15.6 0 00-6.2 10.9 16.6 16.6 0 003.7 12.3l103 121.3a15.9 15.9 0 0024.2 0l71.5-84.2a4 4 0 00-.9-5.9 26.9 26.9 0 01-3.7-3z"/></svg>