<svg xmlns="http://www.w3.org/2000/svg" viewBox="0 0 256 256" width="20" height="20"><path fill="none" d="M0 0h256v256H0z"/><path d="M211.302 79.994l18.343-18.343a8 8 0 10-11.313-11.314L199.988 68.68l-18.343-18.343a8 8 0 10-11.313 11.314l18.342 18.343-18.342 18.343a8 8 0 0011.313 11.314l18.343-18.343 18.344 18.343a8 8 0 0011.313-11.314z"/><path d="M199.988 113.936l-7.03 7.03a24 24 0 01-33.94-33.943l7.029-7.029-7.03-7.03a24.03 24.03 0 014.61-37.551A187.515 187.515 0 0015.39 69.545a15.735 15.735 0 00-6.212 10.936 16.277 16.277 0 003.76 12.274l102.92 121.303a15.951 15.951 0 0012.175 5.655 15.776 15.776 0 0012.047-5.586l74.647-87.98a23.976 23.976 0 01-7.71-5.182z"/></svg>