<svg xmlns="http://www.w3.org/2000/svg" viewBox="0 0 256 256" width="20" height="20"><path fill="none" d="M0 0h256v256H0z"/><path d="M240.6 69.6c-66.3-50.1-158.9-50.1-225.2-.1a16.1 16.1 0 00-6.2 11 16.6 16.6 0 003.7 12.3L115.8 214a16.1 16.1 0 0012.2 5.7 16 16 0 0012.1-5.6l103-121.4a16 16 0 003.7-12.2 15.6 15.6 0 00-6.2-10.9zM25 82.3zm179.5 31.2a131 131 0 00-17-10.7l-.8-.4a122.1 122.1 0 00-17.8-7.6l-1.5-.4a115.2 115.2 0 00-18.4-4.6l-1.6-.2a118.4 118.4 0 00-38.8 0l-1.6.2a126.7 126.7 0 00-18.4 4.5l-1.5.5a127 127 0 00-17.8 7.6l-.8.4a123.5 123.5 0 00-16.9 10.7L25.1 82.3c60.6-45.7 145.3-45.7 205.8.1z"/></svg>