<svg xmlns="http://www.w3.org/2000/svg" viewBox="0 0 256 256" width="20" height="20"><path fill="none" d="M0 0h256v256H0z"/><path d="M240.604 69.552C174.338 19.52 81.713 19.505 15.416 69.536a15.68 15.68 0 00-6.234 10.938 16.204 16.204 0 003.765 12.28l102.844 121.227a16.042 16.042 0 0012.219 5.688h.015a15.846 15.846 0 0012.11-5.61v-.007L243.104 92.708a16.264 16.264 0 003.734-12.227 15.766 15.766 0 00-6.234-10.93zM25.01 82.333l.015-.016c0 .008 0 .008-.015.016zm179.472 31.164a127.387 127.387 0 00-16.98-10.685 56.51 56.51 0 00-.766-.403 127.886 127.886 0 00-17.787-7.571c-.502-.171-1.008-.316-1.513-.482a127.931 127.931 0 00-18.422-4.562c-.532-.09-1.067-.13-1.602-.214a119.828 119.828 0 00-38.808-.003c-.538.083-1.079.126-1.616.216a127.948 127.948 0 00-18.4 4.556c-.508.165-1.016.312-1.52.484a128.124 128.124 0 00-17.765 7.558c-.264.136-.524.274-.785.413a127.243 127.243 0 00-16.961 10.666h-.002l-26.451-31.2c60.625-45.718 145.265-45.687 205.796.094z"/></svg>