<svg xmlns="http://www.w3.org/2000/svg" viewBox="0 0 256 256" width="20" height="20"><path fill="none" d="M0 0h256v256H0z"/><path d="M53.865 34.618a8.003 8.003 0 00-11.846 10.764l4.633 5.093a185.51 185.51 0 00-31.34 19.077 15.736 15.736 0 00-6.215 10.936 16.27 16.27 0 003.764 12.273l102.922 121.231a16.042 16.042 0 0012.241 5.684 15.867 15.867 0 0012.114-5.614l26.706-31.456 35.272 38.776a8.003 8.003 0 0011.846-10.764zM246.903 80.502a15.766 15.766 0 00-6.234-10.95A187.84 187.84 0 0092.632 35.34a7.998 7.998 0 00-4.425 13.239l93.397 102.68a8.006 8.006 0 005.922 2.619l.138-.001a8.007 8.007 0 005.967-2.823l49.522-58.333a16.203 16.203 0 003.75-12.22z"/></svg>