<svg xmlns="http://www.w3.org/2000/svg" viewBox="0 0 256 256" width="20" height="20"><path fill="none" d="M0 0h256v256H0z"/><path d="M234.3 69.8a23.5 23.5 0 00-14.5-16.3C185.6 40.3 131 40.4 128 40.4s-57.6-.1-91.8 13.1a23.5 23.5 0 00-14.5 16.3C19.1 79.7 16 97.9 16 128s3.1 48.3 5.7 58.2a23.5 23.5 0 0014.5 16.3c32.8 12.7 84.2 13.1 91.1 13.1h1.4c6.9 0 58.3-.4 91.1-13.1a23.5 23.5 0 0014.5-16.3c2.6-9.9 5.7-28.1 5.7-58.2s-3.1-48.3-5.7-58.2zm-72.1 61.5l-48 32a3.6 3.6 0 01-2.2.7 4.5 4.5 0 01-1.9-.5 3.9 3.9 0 01-2.1-3.5V96a3.9 3.9 0 012.1-3.5 4 4 0 014.1.2l48 32a3.9 3.9 0 010 6.6z"/></svg>