<svg xmlns="http://www.w3.org/2000/svg" viewBox="0 0 256 256" width="20" height="20"><path fill="none" d="M0 0h256v256H0z"/><path d="M234.33 69.797a23.964 23.964 0 00-14.504-16.346C185.556 40.282 130.979 40.392 128 40.408c-2.978-.024-57.555-.126-91.825 13.043A23.964 23.964 0 0021.67 69.796C19.083 79.727 16 97.886 16 128s3.083 48.272 5.67 58.203a23.964 23.964 0 0014.504 16.346c32.806 12.607 84.222 13.045 91.167 13.045h1.318c6.95 0 58.362-.44 91.166-13.045a23.964 23.964 0 0014.505-16.345c2.587-9.931 5.67-28.09 5.67-58.204s-3.083-48.272-5.67-58.203zm-72.111 61.531l-48 32A4 4 0 01108 160V96a4 4 0 016.219-3.328l48 32a4 4 0 010 6.656z"/></svg>