<svg viewBox="0 0 24 24" xmlns="http://www.w3.org/2000/svg" width="20" height="20"><path d="M16.33 13.497a6.987 6.987 0 002.67-5.5h2a8.987 8.987 0 01-3.662 7.246l2.528 4.378a2 2 0 01-.732 2.732l-3.527-6.109a8.97 8.97 0 01-3.607.753 8.969 8.969 0 01-3.608-.753l-3.526 6.109a2 2 0 01-.732-2.732l5.063-8.77a4.002 4.002 0 011.802-6.728V1.997h2v2.126a4.002 4.002 0 011.803 6.728l1.528 2.646zm-1.731 1.001l-1.529-2.646a4.003 4.003 0 01-2.141 0L9.4 14.498c.803.322 1.68.499 2.598.499.919 0 1.796-.177 2.6-.499zm-2.6-5.501a1 1 0 100-2 1 1 0 000 2z"/></svg>