<svg viewBox="0 0 24 24" xmlns="http://www.w3.org/2000/svg" width="20" height="20"><path d="M15.199 9.944a2.6 2.6 0 01-.79-1.55l-.403-3.083-2.731 1.486a2.6 2.6 0 01-1.719.272L6.5 6.5l.57 3.056a2.6 2.6 0 01-.273 1.719l-1.486 2.73 3.083.403a2.6 2.6 0 011.55.79l2.138 2.258 1.336-2.807a2.6 2.6 0 011.23-1.231l2.808-1.336-2.257-2.138zm.025 5.564l-2.213 4.65a.6.6 0 01-.977.155l-3.542-3.739a.6.6 0 00-.358-.182l-5.106-.668a.6.6 0 01-.45-.882L5.04 10.32a.6.6 0 00.063-.397L4.16 4.86a.6.6 0 01.7-.7l5.062.943a.6.6 0 00.397-.063l4.523-2.461a.6.6 0 01.882.45l.668 5.105a.6.6 0 00.182.358l3.739 3.542a.6.6 0 01-.155.977l-4.65 2.213a.6.6 0 00-.284.284zm.797 1.927l1.414-1.414 4.242 4.242-1.414 1.414-4.242-4.242z"/></svg>