<svg xmlns="http://www.w3.org/2000/svg" viewBox="0 0 512 512" width="20" height="20"><path fill="var(--ci-primary-color, currentColor)" d="M56 40a16 16 0 00-16 16v400a16 16 0 0016 16h400a16 16 0 0016-16V56a16 16 0 00-16-16zm384 400H72V72h368z"/><path fill="var(--ci-primary-color, currentColor)" d="M239.272 239.272h33.455v33.455h-33.455zm0 66.91h33.455v33.454h-33.455zm0-133.819h33.455v33.454h-33.455zm0-66.909h33.455v33.454h-33.455zm0 267.637h33.455v33.454h-33.455zm66.91-133.819h33.455v33.455h-33.455zm66.909 0h33.455v33.455h-33.455zm-200.727 0h33.455v33.455h-33.455zm-66.909 0h33.455v33.455h-33.455z"/></svg>