<?xml version="1.0" encoding="UTF-8" standalone="no"?><!DOCTYPE svg PUBLIC "-//W3C//DTD SVG 1.1//EN" "http://www.w3.org/Graphics/SVG/1.1/DTD/svg11.dtd"><svg width="100%" height="100%" viewBox="0 0 125 125" version="1.1" xmlns="http://www.w3.org/2000/svg" xmlns:xlink="http://www.w3.org/1999/xlink" xml:space="preserve" xmlns:serif="http://www.serif.com/" style="fill-rule:evenodd;clip-rule:evenodd;stroke-linejoin:round;stroke-miterlimit:2;"><g id="coreui"><path id="Shape" d="M111.813,26.437l-42.738,-24.675c-4.069,-2.349 -9.081,-2.349 -13.15,-0l-42.738,24.675c-4.063,2.354 -6.568,6.692 -6.575,11.388l-0,49.35c0.007,4.696 2.512,9.034 6.575,11.388l42.738,24.675c4.069,2.349 9.081,2.349 13.15,0l42.738,-24.675c4.063,-2.354 6.568,-6.692 6.575,-11.388l0,-49.35c-0.007,-4.696 -2.512,-9.034 -6.575,-11.388Zm-2.191,60.738c-0,1.566 -0.836,3.013 -2.192,3.796l-42.738,24.675c-1.357,0.783 -3.027,0.783 -4.384,-0l-42.738,-24.675c-1.356,-0.783 -2.192,-2.23 -2.192,-3.796l0,-49.35c0,-1.566 0.836,-3.013 2.192,-3.796l42.738,-24.675c1.357,-0.783 3.027,-0.783 4.384,0l42.738,24.675c1.356,0.783 2.192,2.23 2.192,3.796l-0,49.35Z" style="fill:#444;fill-rule:nonzero;"/><path id="Path" d="M87.728,76.788l-3.14,-0c-0.738,-0 -1.463,0.186 -2.11,0.54l-18.937,10.395l-21.862,-12.623l-0,-25.18l21.862,-12.622l18.947,10.361c0.645,0.353 1.368,0.537 2.103,0.537l3.137,0c1.211,0 2.192,-0.981 2.192,-2.191l0,-2.972c0,-0.801 -0.437,-1.538 -1.14,-1.923l-21.028,-11.501c-2.687,-1.462 -5.941,-1.425 -8.594,0.098l-21.863,12.622c-2.708,1.57 -4.378,4.462 -4.383,7.592l0,25.179c0,3.132 1.671,6.026 4.383,7.592l21.863,12.623c2.654,1.521 5.907,1.558 8.595,0.096l21.029,-11.541c0.701,-0.385 1.137,-1.121 1.137,-1.921l0,-2.97c0,-1.21 -0.981,-2.191 -2.191,-2.191Z" style="fill:#444;fill-rule:nonzero;"/></g></svg>