<?xml version="1.0" encoding="UTF-8" standalone="no"?><!DOCTYPE svg PUBLIC "-//W3C//DTD SVG 1.1//EN" "http://www.w3.org/Graphics/SVG/1.1/DTD/svg11.dtd"><svg width="100%" height="100%" viewBox="0 0 125 125" version="1.1" xmlns="http://www.w3.org/2000/svg" xmlns:xlink="http://www.w3.org/1999/xlink" xml:space="preserve" xmlns:serif="http://www.serif.com/" style="fill-rule:evenodd;clip-rule:evenodd;stroke-linejoin:round;stroke-miterlimit:2;"><path id="pixelarticons" d="M125,0l-125,0l0,125l125,0l0,-125Zm-85.938,85.938l0.001,-15.625l31.25,-0l-0,15.625l-15.625,-0l-0,15.625l15.625,-0l-0,-15.625l15.625,-0l-0,15.625l15.625,-0l-0,-15.625l-15.625,-0l-0,-15.625l15.625,-0l-0,-15.625l-15.625,-0l-0,15.625l-15.625,-0l-0,-46.876l-46.875,0l-0,62.501l15.625,-0.001Zm-0,-31.25l15.625,0l-0,-15.625l-15.625,0l-0,15.625Z" style="fill:#444;"/></svg>