<?xml version="1.0" encoding="UTF-8" standalone="no"?><!DOCTYPE svg PUBLIC "-//W3C//DTD SVG 1.1//EN" "http://www.w3.org/Graphics/SVG/1.1/DTD/svg11.dtd"><svg width="100%" height="100%" viewBox="0 0 125 125" version="1.1" xmlns="http://www.w3.org/2000/svg" xmlns:xlink="http://www.w3.org/1999/xlink" xml:space="preserve" xmlns:serif="http://www.serif.com/" style="fill-rule:evenodd;clip-rule:evenodd;stroke-linejoin:round;stroke-miterlimit:2;"><path id="bootstrap" d="M25.963,12.712c-7.132,-0 -12.41,6.242 -12.174,13.013c0.227,6.504 -0.068,14.928 -2.188,21.797c-2.127,6.89 -5.725,11.254 -11.601,11.815l0,6.326c5.876,0.561 9.474,4.925 11.601,11.815c2.12,6.869 2.415,15.293 2.188,21.797c-0.236,6.769 5.042,13.013 12.175,13.013l73.083,0c7.132,0 12.409,-6.242 12.172,-13.013c-0.226,-6.504 0.068,-14.928 2.189,-21.797c2.128,-6.89 5.716,-11.254 11.592,-11.815l0,-6.326c-5.876,-0.561 -9.464,-4.925 -11.592,-11.815c-2.121,-6.868 -2.415,-15.293 -2.189,-21.797c0.237,-6.769 -5.04,-13.013 -12.172,-13.013l-73.085,-0l0.001,-0Zm58.783,61.295c-0,9.322 -6.954,14.976 -18.493,14.976l-19.643,0c-1.162,0 -2.118,-0.956 -2.118,-2.119l-0,-48.728c-0,-1.163 0.956,-2.119 2.118,-2.119l19.531,-0c9.622,-0 15.936,5.212 15.936,13.214c0,5.616 -4.248,10.645 -9.66,11.525l0,0.294c7.368,0.808 12.329,5.91 12.329,12.957Zm-20.635,-31.274l-11.2,0l0,15.82l9.433,-0c7.293,-0 11.314,-2.936 11.314,-8.185c-0,-4.919 -3.458,-7.635 -9.547,-7.635Zm-11.2,22.096l0,17.436l11.612,-0c7.592,-0 11.615,-3.047 11.615,-8.772c-0,-5.727 -4.135,-8.664 -12.103,-8.664l-11.124,0Z" style="fill:#444;"/></svg>