<svg xmlns="http://www.w3.org/2000/svg" fill="currentColor" viewBox="0 0 16 16" width="20" height="20"><path d="M13.879 10.414a2.501 2.501 0 00-3.465 3.465l3.465-3.465zm.707.707l-3.465 3.465a2.501 2.501 0 003.465-3.465zm-4.56-1.096a3.5 3.5 0 114.949 4.95 3.5 3.5 0 01-4.95-4.95z"/><path d="M2 1a1 1 0 011-1h10a1 1 0 011 1v7.256A4.493 4.493 0 0012.5 8a4.493 4.493 0 00-3.59 1.787A.498.498 0 009 9.5v-1a.5.5 0 00-.5-.5h-1a.5.5 0 00-.5.5v1a.5.5 0 00.5.5h1a.5.5 0 00.39-.187A4.476 4.476 0 008.027 12H6.5a.5.5 0 00-.5.5V16H3a1 1 0 01-1-1V1zm2 1.5v1a.5.5 0 00.5.5h1a.5.5 0 00.5-.5v-1a.5.5 0 00-.5-.5h-1a.5.5 0 00-.5.5zm3 0v1a.5.5 0 00.5.5h1a.5.5 0 00.5-.5v-1a.5.5 0 00-.5-.5h-1a.5.5 0 00-.5.5zm3.5-.5a.5.5 0 00-.5.5v1a.5.5 0 00.5.5h1a.5.5 0 00.5-.5v-1a.5.5 0 00-.5-.5h-1zM4 5.5v1a.5.5 0 00.5.5h1a.5.5 0 00.5-.5v-1a.5.5 0 00-.5-.5h-1a.5.5 0 00-.5.5zM7.5 5a.5.5 0 00-.5.5v1a.5.5 0 00.5.5h1a.5.5 0 00.5-.5v-1a.5.5 0 00-.5-.5h-1zm2.5.5v1a.5.5 0 00.5.5h1a.5.5 0 00.5-.5v-1a.5.5 0 00-.5-.5h-1a.5.5 0 00-.5.5zM4.5 8a.5.5 0 00-.5.5v1a.5.5 0 00.5.5h1a.5.5 0 00.5-.5v-1a.5.5 0 00-.5-.5h-1z"/></svg>