<svg xmlns="http://www.w3.org/2000/svg" fill="currentColor" viewBox="0 0 16 16" width="20" height="20"><path d="M13.879 10.414a2.501 2.501 0 00-3.465 3.465l3.465-3.465zm.707.707l-3.465 3.465a2.501 2.501 0 003.465-3.465zm-4.56-1.096a3.5 3.5 0 114.949 4.95 3.5 3.5 0 01-4.95-4.95zM11 5a3 3 0 11-6 0 3 3 0 016 0zM8 7a2 2 0 100-4 2 2 0 000 4zm.256 7a4.474 4.474 0 01-.229-1.004H3c.001-.246.154-.986.832-1.664C4.484 10.68 5.711 10 8 10c.26 0 .507.009.74.025.226-.341.496-.65.804-.918C9.077 9.038 8.564 9 8 9c-5 0-6 3-6 4s1 1 1 1h5.256z"/></svg>