<svg xmlns="http://www.w3.org/2000/svg" fill="currentColor" viewBox="0 0 16 16" width="20" height="20"><path d="M11 5a3 3 0 11-6 0 3 3 0 016 0zM8 7a2 2 0 100-4 2 2 0 000 4zm.256 7a4.474 4.474 0 01-.229-1.004H3c.001-.246.154-.986.832-1.664C4.484 10.68 5.711 10 8 10c.26 0 .507.009.74.025.226-.341.496-.65.804-.918C9.077 9.038 8.564 9 8 9c-5 0-6 3-6 4s1 1 1 1h5.256z"/><path d="M16 12.5a3.5 3.5 0 11-7 0 3.5 3.5 0 017 0zm-3.5-2a.5.5 0 00-.5.5v1.5a.5.5 0 001 0V11a.5.5 0 00-.5-.5zm0 4a.5.5 0 100-1 .5.5 0 000 1z"/></svg>