<svg xmlns="http://www.w3.org/2000/svg" fill="currentColor" viewBox="0 0 16 16" width="20" height="20"><path d="M7.25 6v1c-.14.301-.338.617-.588.95-.537.716-1.259 1.44-2.016 2.196l.708.708.015-.016c.652-.652 1.33-1.33 1.881-2.015V12h1.5V6h1.216a.25.25 0 00.192-.41L8.192 3.23a.25.25 0 00-.384 0L5.842 5.59a.25.25 0 00.192.41H7.25z"/><path d="M9.05.435c-.58-.58-1.52-.58-2.1 0L.436 6.95c-.58.58-.58 1.519 0 2.098l6.516 6.516c.58.58 1.519.58 2.098 0l6.516-6.516c.58-.58.58-1.519 0-2.098L9.05.435zm-1.4.7a.495.495 0 01.7 0l6.516 6.515a.495.495 0 010 .7L8.35 14.866a.495.495 0 01-.7 0L1.134 8.35a.495.495 0 010-.7L7.65 1.134z"/></svg>