<svg xmlns="http://www.w3.org/2000/svg" viewBox="0 0 256 256" width="20" height="20"><path fill="none" d="M0 0h256v256H0z"/><path fill="none" stroke="#000" stroke-linecap="round" stroke-linejoin="round" stroke-width="8" d="M48 40l160 176M96 192v8a32 32 0 0064 0v-8"/><path d="M186.2 192H49a8 8 0 01-6.9-12c6.6-11.4 14.1-32.2 14.1-68v-8a72.4 72.4 0 0112.7-41m23.6-21.6a70.8 70.8 0 0136-9.4c39.6.3 71.3 33.2 71.3 72.9v7.1c0 26.7 4.2 45 9 57.3" fill="none" stroke="#000" stroke-linecap="round" stroke-linejoin="round" stroke-width="8"/></svg>