<svg xmlns="http://www.w3.org/2000/svg" viewBox="0 0 256 256" width="20" height="20"><path fill="none" d="M0 0h256v256H0z"/><path d="M224 127.4a95.6 95.6 0 01-28.2 68.5c-36.9 36.9-97.3 37.3-134.7.9A96 96 0 01128.6 32a8.1 8.1 0 017.8 9.8 32 32 0 0030.8 39 8 8 0 018 8 32 32 0 0039 30.8 8.1 8.1 0 019.8 7.8z" fill="none" stroke="#000" stroke-linecap="round" stroke-linejoin="round" stroke-width="8"/><circle cx="156" cy="172" r="8"/><circle cx="92" cy="164" r="8"/><circle cx="84" cy="108" r="8"/><circle cx="136" cy="124" r="8"/></svg>