<svg xmlns="http://www.w3.org/2000/svg" viewBox="0 0 256 256" width="20" height="20"><path fill="none" d="M0 0h256v256H0z"/><path d="M80 210.5a21 21 0 01-14 5.5c-12.2 0-22-10.7-22-24s9.8-24 22-24a21 21 0 0114 5.5m32 38.5a25.2 25.2 0 0015 5c9 0 17-3 17-13 0-16-32-9-32-24 0-8 6-13 15-13a25.2 25.2 0 0115 5m34 40a25.2 25.2 0 0015 5c9 0 17-3 17-13 0-16-32-9-32-24 0-8 6-13 15-13a25.2 25.2 0 0115 5M48 128V40a8 8 0 018-8h96l56 56v40" fill="none" stroke="#000" stroke-linecap="round" stroke-linejoin="round" stroke-width="8"/><path fill="none" stroke="#000" stroke-linecap="round" stroke-linejoin="round" stroke-width="8" d="M152 32v56h56"/></svg>