<svg xmlns="http://www.w3.org/2000/svg" viewBox="0 0 256 256" width="20" height="20"><path fill="none" d="M0 0h256v256H0z"/><path d="M48.8 96a8 8 0 01-7.8-9.7C47.4 55.5 83.9 32 128 32s80.6 23.5 87 54.3a8 8 0 01-7.8 9.7zM208 168v16a32 32 0 01-32 32H80a32 32 0 01-32-32v-16" fill="none" stroke="#000" stroke-linecap="round" stroke-linejoin="round" stroke-width="8"/><path fill="none" stroke="#000" stroke-linecap="round" stroke-linejoin="round" stroke-width="8" d="M28 176l40-16 40 16 40-16 40 16 40-16M24 128h208"/></svg>