<svg xmlns="http://www.w3.org/2000/svg" viewBox="0 0 256 256" width="20" height="20"><path fill="none" d="M0 0h256v256H0z"/><path d="M70.1 32h115.8a7.9 7.9 0 017.7 5.9L216 120l-22.4 82.1a7.9 7.9 0 01-7.7 5.9H70.1a7.9 7.9 0 01-7.7-5.9L40 120l22.4-82.1a7.9 7.9 0 017.7-5.9zM128 208v-72" fill="none" stroke="#000" stroke-linecap="round" stroke-linejoin="round" stroke-width="8"/><path fill="none" stroke="#000" stroke-linecap="round" stroke-linejoin="round" stroke-width="8" d="M40 120l88 16 88-16M96 88h64M96 208l-24 32m88-32l24 32"/></svg>