<svg xmlns="http://www.w3.org/2000/svg" viewBox="0 0 24 24" width="20" height="20"><path d="M19.5 3h-15A2.502 2.502 0 002 5.5v10A2.502 2.502 0 004.5 18h1a.5.5 0 000-1h-1A1.5 1.5 0 013 15.5v-10A1.5 1.5 0 014.5 4h15A1.5 1.5 0 0121 5.5v10a1.5 1.5 0 01-1.5 1.5h-1a.5.5 0 000 1h1a2.502 2.502 0 002.5-2.5v-10A2.502 2.502 0 0019.5 3zm-6.259 11.44a1.557 1.557 0 00-2.482-.002l-2.863 4.22A1.5 1.5 0 009.136 21h5.727a1.5 1.5 0 001.241-2.342l-2.863-4.219zM14.863 20H9.137a.5.5 0 01-.413-.781L11.587 15a.494.494 0 01.413-.219.492.492 0 01.413.22l2.863 4.218a.5.5 0 01-.413.781z"/></svg>