<svg xmlns="http://www.w3.org/2000/svg" viewBox="0 0 24 24" width="20" height="20"><path d="M3.5 9a.5.5 0 00-.5.5v5a.5.5 0 001 0v-5a.5.5 0 00-.5-.5zm12.344-4.602l1.073-1.622a.5.5 0 00-.834-.552l-1.06 1.602a5.946 5.946 0 00-6.046 0l-1.06-1.602a.5.5 0 00-.834.552l1.073 1.622A5.988 5.988 0 006 9v8.5a.5.5 0 00.5.5h3v3.5a.5.5 0 001 0V18h3v3.5a.5.5 0 001 0V18h3a.5.5 0 00.5-.5V9c0-1.778-.79-3.464-2.156-4.602zM17 17H7v-7h10v7zM7 9a5 5 0 0110 0H7zm13.5 0a.5.5 0 00-.5.5v5a.5.5 0 001 0v-5a.5.5 0 00-.5-.5z"/></svg>