<svg xmlns="http://www.w3.org/2000/svg" viewBox="0 0 24 24" width="20" height="20"><path d="M20.326 16.207a3.892 3.892 0 01-2.368-3.587 4.005 4.005 0 011.925-3.375.5.5 0 00.15-.707 5.125 5.125 0 00-4.02-2.2 3.673 3.673 0 00-.518-.016 6.071 6.071 0 001.402-4.376.485.485 0 00-.516-.446 6.165 6.165 0 00-5.55 5.335 5.234 5.234 0 00-2.006-.451A5.42 5.42 0 004.261 9.14c-1.785 3.1-.668 7.78 1.29 10.611.76 1.099 1.901 2.748 3.5 2.748l.088-.001a4.258 4.258 0 001.616-.426 3.772 3.772 0 011.641-.393c.54.005 1.073.135 1.555.379a4.144 4.144 0 001.755.415c1.655-.03 2.66-1.497 3.466-2.675a11.476 11.476 0 001.447-2.978.503.503 0 00-.293-.614zM13.051 4.244a5.363 5.363 0 012.874-1.685 5.206 5.206 0 01-1.228 3.16 4.924 4.924 0 01-1.413 1.16l-.018.01-.12.048a3.96 3.96 0 01-1.013.316 1.273 1.273 0 01-.327-.057 5.112 5.112 0 011.245-2.952zm5.295 14.99c-.889 1.3-1.6 2.221-2.658 2.24a3.122 3.122 0 01-1.34-.333 4.48 4.48 0 00-1.952-.461 4.728 4.728 0 00-2.033.473 3.353 3.353 0 01-1.262.346l-.051.001c-.99 0-1.832-1.095-2.677-2.316-1.527-2.21-2.924-6.63-1.245-9.544a4.417 4.417 0 013.714-2.256h.042a5.206 5.206 0 011.827.478c.132.052.262.104.39.152.024.011.049.02.075.027.304.125.628.196.957.212a4.12 4.12 0 001.38-.386 5.246 5.246 0 012.428-.531 4.196 4.196 0 012.963 1.376 4.913 4.913 0 00-1.946 3.918 4.853 4.853 0 002.57 4.299 10.585 10.585 0 01-1.182 2.305z"/></svg>