<svg xmlns="http://www.w3.org/2000/svg" viewBox="0 0 24 24" width="20" height="20"><path d="M19.5 6H16V5a2.003 2.003 0 00-2-2h-4a2.003 2.003 0 00-2 2v1H4.5A2.502 2.502 0 002 8.5v10A2.502 2.502 0 004.5 21h15a2.502 2.502 0 002.5-2.5v-10A2.502 2.502 0 0019.5 6zM9 5a1 1 0 011-1h4a1 1 0 011 1v1H9V5zm12 13.5c0 .828-.672 1.5-1.5 1.5h-15c-.828 0-1.5-.672-1.5-1.5v-6.473l5.842 1.948A.51.51 0 009 14h6a.51.51 0 00.158-.025L21 12.027V18.5zm0-7.494a.49.49 0 00-.158.02L14.919 13H9.081l-5.923-1.975a.49.49 0 00-.158-.02V8.5C3 7.672 3.672 7 4.5 7h15c.828 0 1.5.672 1.5 1.5v2.506z"/></svg>