<svg xmlns="http://www.w3.org/2000/svg" viewBox="0 0 24 24" width="20" height="20"><path d="M7.5 16h-4a.501.501 0 01-.5-.5v-7a.5.5 0 01.5-.5h3a.5.5 0 000-1h-3A1.5 1.5 0 002 8.5v7A1.5 1.5 0 003.5 17h4a.5.5 0 000-1zm5.966-4.167c-.01-.029-.025-.053-.04-.079a.482.482 0 00-.056-.083c-.022-.025-.048-.043-.074-.063-.019-.014-.032-.034-.053-.046-.008-.004-.018-.004-.027-.008-.027-.014-.058-.02-.088-.028-.035-.01-.069-.02-.104-.021-.008 0-.016-.005-.024-.005H8.85l2.088-3.757a.5.5 0 10-.876-.486l-2.5 4.5c-.004.008-.004.018-.008.027-.014.028-.02.058-.028.09-.01.034-.02.067-.021.101 0 .009-.005.016-.005.025 0 .022.01.04.012.061.005.036.01.07.022.105.01.03.025.055.04.081a.477.477 0 00.056.082c.022.025.048.043.074.063.019.015.032.034.053.046.007.003.016.002.023.005A.49.49 0 008 12.5h4.15l-2.088 3.757a.501.501 0 00.876.486l2.5-4.5c.004-.008.004-.018.008-.027.014-.027.02-.058.028-.088.01-.035.02-.069.021-.104 0-.008.005-.016.005-.024 0-.021-.01-.039-.012-.06a.492.492 0 00-.022-.107zM17.5 7h-4a.5.5 0 000 1h4a.5.5 0 01.5.5v7a.5.5 0 01-.5.5h-3a.5.5 0 000 1h3a1.5 1.5 0 001.5-1.5v-7A1.5 1.5 0 0017.5 7zm4 3a.5.5 0 00-.5.5v3a.5.5 0 101 0v-3a.5.5 0 00-.5-.5z"/></svg>