<svg xmlns="http://www.w3.org/2000/svg" viewBox="0 0 24 24" width="20" height="20"><path d="M15.5 6h5a.5.5 0 000-1h-5a.5.5 0 000 1zm7.026 9.003a.494.494 0 00-.553.441A3.999 3.999 0 0114 15v-2h8.47a.5.5 0 00.497-.553A5.004 5.004 0 0018 8a5.006 5.006 0 00-5 5v2a4.999 4.999 0 009.967.556.5.5 0 00-.44-.553zM18 9a4.015 4.015 0 013.874 3h-7.747A4.006 4.006 0 0118 9zm-8.604 2.434A3.495 3.495 0 007.5 5h-6a.5.5 0 00-.5.5v14a.5.5 0 00.5.5h6a4.491 4.491 0 001.896-8.566zM2 6h5.5a2.5 2.5 0 110 5H2V6zm5.5 13H2v-7h5.5a3.5 3.5 0 010 7z"/></svg>