<svg xmlns="http://www.w3.org/2000/svg" viewBox="0 0 24 24" width="20" height="20"><path d="M14 13.5h-4a.5.5 0 000 1h4a.5.5 0 000-1zm-4-3h1a.5.5 0 000-1h-1a.5.5 0 000 1zm6 0a.501.501 0 01-.5-.5V9A3.504 3.504 0 0012 5.5h-2A4.505 4.505 0 005.5 10v4a4.505 4.505 0 004.5 4.5h4a4.505 4.505 0 004.5-4.5v-1a2.502 2.502 0 00-2.5-2.5zm1.5 3.5a3.504 3.504 0 01-3.5 3.5h-4A3.504 3.504 0 016.5 14v-4A3.504 3.504 0 0110 6.5h2A2.502 2.502 0 0114.5 9v1c0 .828.672 1.5 1.5 1.5s1.5.672 1.5 1.5v1zM20 1H4a3.003 3.003 0 00-3 3v16a3.003 3.003 0 003 3h16a3.003 3.003 0 003-3V4a3.003 3.003 0 00-3-3zm2 19a2.003 2.003 0 01-2 2H4a2.003 2.003 0 01-2-2V4a2.003 2.003 0 012-2h16a2.003 2.003 0 012 2v16z"/></svg>