<svg xmlns="http://www.w3.org/2000/svg" viewBox="0 0 24 24" width="20" height="20"><path d="M12 5.5a1.5 1.5 0 100-3 1.5 1.5 0 000 3zm0-2a.501.501 0 11-.002 1.002A.501.501 0 0112 3.5zm-8 2a1.5 1.5 0 100-3 1.5 1.5 0 000 3zm0-2a.501.501 0 11-.002 1.002A.501.501 0 014 3.5zm12 2a1.5 1.5 0 100-3 1.5 1.5 0 000 3zm0-2a.501.501 0 11-.002 1.002A.501.501 0 0116 3.5zm4 2a1.5 1.5 0 100-3 1.5 1.5 0 000 3zm0-2a.501.501 0 11-.002 1.002A.501.501 0 0120 3.5zm-12 2a1.5 1.5 0 100-3 1.5 1.5 0 000 3zm0-2a.501.501 0 11-.002 1.002A.501.501 0 018 3.5zm4 6a1.5 1.5 0 100-3 1.5 1.5 0 000 3zm0-2a.501.501 0 11-.002 1.002A.501.501 0 0112 7.5zm8 7a1.5 1.5 0 100 3 1.5 1.5 0 000-3zm0 2a.5.5 0 110-1 .5.5 0 010 1zm-16-7a1.5 1.5 0 100-3 1.5 1.5 0 000 3zm0-2a.501.501 0 11-.002 1.002A.501.501 0 014 7.5zm12 11a1.5 1.5 0 100 3 1.5 1.5 0 000-3zm0 2a.5.5 0 110-1 .5.5 0 010 1zm5-9H3a.5.5 0 000 1h18a.5.5 0 000-1zm-1-5a1.5 1.5 0 100 3 1.5 1.5 0 000-3zm0 2a.5.5 0 110-1 .5.5 0 010 1zm0 10a1.5 1.5 0 100 3 1.5 1.5 0 000-3zm0 2a.5.5 0 110-1 .5.5 0 010 1zm-16-6a1.5 1.5 0 100 3 1.5 1.5 0 000-3zm0 2a.5.5 0 110-1 .5.5 0 010 1zm0 2a1.5 1.5 0 100 3 1.5 1.5 0 000-3zm0 2a.5.5 0 110-1 .5.5 0 010 1zm8-2a1.5 1.5 0 100 3 1.5 1.5 0 000-3zm0 2a.5.5 0 110-1 .5.5 0 010 1zm-4-2a1.5 1.5 0 100 3 1.5 1.5 0 000-3zm0 2a.5.5 0 110-1 .5.5 0 010 1zm4-6a1.5 1.5 0 100 3 1.5 1.5 0 000-3zm0 2a.5.5 0 110-1 .5.5 0 010 1z"/></svg>