<svg xmlns="http://www.w3.org/2000/svg" viewBox="0 0 24 24" width="20" height="20"><path d="M12 10a1.5 1.5 0 100-3 1.5 1.5 0 000 3zm0-2a.501.501 0 11-.002 1.002A.501.501 0 0112 8zm4 6a1.5 1.5 0 100-3 1.5 1.5 0 000 3zm0-2a.501.501 0 11-.002 1.002A.501.501 0 0116 12zm4-6a1.5 1.5 0 100-3 1.5 1.5 0 000 3zm0-2a.501.501 0 11-.002 1.002A.501.501 0 0120 4zm-4 2a1.5 1.5 0 100-3 1.5 1.5 0 000 3zm0-2a.501.501 0 11-.002 1.002A.501.501 0 0116 4zm-4 2a1.5 1.5 0 100-3 1.5 1.5 0 000 3zm0-2a.501.501 0 11-.002 1.002A.501.501 0 0112 4zM4 6a1.5 1.5 0 100-3 1.5 1.5 0 000 3zm0-2a.501.501 0 11-.002 1.002A.501.501 0 014 4zm8 10a1.5 1.5 0 100-3 1.5 1.5 0 000 3zm0-2a.501.501 0 11-.002 1.002A.501.501 0 0112 12zm9 8H3a.5.5 0 000 1h18a.5.5 0 000-1zm-1-5a1.5 1.5 0 100 3 1.5 1.5 0 000-3zm0 2a.5.5 0 110-1 .5.5 0 010 1zm0-6a1.5 1.5 0 100 3 1.5 1.5 0 000-3zm0 2a.5.5 0 110-1 .5.5 0 010 1zm0-6a1.5 1.5 0 100 3 1.5 1.5 0 000-3zm0 2a.5.5 0 110-1 .5.5 0 010 1zM4 18a1.5 1.5 0 100-3 1.5 1.5 0 000 3zm0-2a.501.501 0 11-.002 1.002A.501.501 0 014 16zM8 6a1.5 1.5 0 100-3 1.5 1.5 0 000 3zm0-2a.501.501 0 11-.002 1.002A.501.501 0 018 4zm4 14a1.5 1.5 0 100-3 1.5 1.5 0 000 3zm0-2a.501.501 0 11-.002 1.002A.501.501 0 0112 16zm-8-2a1.5 1.5 0 100-3 1.5 1.5 0 000 3zm0-2a.501.501 0 11-.002 1.002A.501.501 0 014 12zm0-2a1.5 1.5 0 100-3 1.5 1.5 0 000 3zm0-2a.501.501 0 11-.002 1.002A.501.501 0 014 8zm4 6a1.5 1.5 0 100-3 1.5 1.5 0 000 3zm0-2a.501.501 0 11-.002 1.002A.501.501 0 018 12z"/></svg>