<svg xmlns="http://www.w3.org/2000/svg" viewBox="0 0 24 24" width="20" height="20"><path d="M7.5 10a1.5 1.5 0 100 3 1.5 1.5 0 000-3zm0 2a.5.5 0 110-1 .5.5 0 010 1zm4 6a1.5 1.5 0 100 3 1.5 1.5 0 000-3zm0 2a.5.5 0 110-1 .5.5 0 010 1zm-4-2a1.5 1.5 0 100 3 1.5 1.5 0 000-3zm0 2a.5.5 0 110-1 .5.5 0 010 1zM21 3.5a.5.5 0 00-.5-.5h-17a.5.5 0 00-.5.5v17a.5.5 0 101 0V4h16.5a.5.5 0 00.5-.5zM11.5 6a1.5 1.5 0 100 3 1.5 1.5 0 000-3zm0 2a.5.5 0 110-1 .5.5 0 010 1zm8 2a1.5 1.5 0 100 3 1.5 1.5 0 000-3zm0 2a.5.5 0 110-1 .5.5 0 010 1zm-8 2a1.5 1.5 0 100 3 1.5 1.5 0 000-3zm0 2a.5.5 0 110-1 .5.5 0 010 1zm8-10a1.5 1.5 0 100 3 1.5 1.5 0 000-3zm0 2a.5.5 0 110-1 .5.5 0 010 1zm0 10a1.5 1.5 0 100 3 1.5 1.5 0 000-3zm0 2a.5.5 0 110-1 .5.5 0 010 1zm0-6a1.5 1.5 0 100 3 1.5 1.5 0 000-3zm0 2a.5.5 0 110-1 .5.5 0 010 1zm-8-6a1.5 1.5 0 100 3 1.5 1.5 0 000-3zm0 2a.5.5 0 110-1 .5.5 0 010 1zm4 6a1.5 1.5 0 100 3 1.5 1.5 0 000-3zm0 2a.5.5 0 110-1 .5.5 0 010 1zm0-10a1.5 1.5 0 100 3 1.5 1.5 0 000-3zm0 2a.5.5 0 110-1 .5.5 0 010 1z"/></svg>