<svg xmlns="http://www.w3.org/2000/svg" viewBox="0 0 24 24" width="20" height="20"><path d="M4 6a1.5 1.5 0 100 3 1.5 1.5 0 000-3zm0 2a.5.5 0 110-1 .5.5 0 010 1zM3 4h18a.5.5 0 000-1H3a.5.5 0 000 1zm5 14a1.5 1.5 0 100 3 1.5 1.5 0 000-3zm0 2a.5.5 0 110-1 .5.5 0 010 1zM4 10a1.5 1.5 0 100 3 1.5 1.5 0 000-3zm0 2a.5.5 0 110-1 .5.5 0 010 1zm0 2a1.5 1.5 0 100 3 1.5 1.5 0 000-3zm0 2a.5.5 0 110-1 .5.5 0 010 1zm0 2a1.5 1.5 0 100 3 1.5 1.5 0 000-3zm0 2a.5.5 0 110-1 .5.5 0 010 1zm16-10a1.5 1.5 0 100 3 1.5 1.5 0 000-3zm0 2a.5.5 0 110-1 .5.5 0 010 1zm-4 6a1.5 1.5 0 100 3 1.5 1.5 0 000-3zm0 2a.5.5 0 110-1 .5.5 0 010 1zm0-10a1.5 1.5 0 100 3 1.5 1.5 0 000-3zm0 2a.5.5 0 110-1 .5.5 0 010 1zm4 6a1.5 1.5 0 100 3 1.5 1.5 0 000-3zm0 2a.5.5 0 110-1 .5.5 0 010 1zm0-6a1.5 1.5 0 100 3 1.5 1.5 0 000-3zm0 2a.5.5 0 110-1 .5.5 0 010 1zm0-10a1.5 1.5 0 100 3 1.5 1.5 0 000-3zm0 2a.5.5 0 110-1 .5.5 0 010 1zm-8 6a1.5 1.5 0 100 3 1.5 1.5 0 000-3zm0 2a.5.5 0 110-1 .5.5 0 010 1zm0 2a1.5 1.5 0 100 3 1.5 1.5 0 000-3zm0 2a.5.5 0 110-1 .5.5 0 010 1zM8 10a1.5 1.5 0 100 3 1.5 1.5 0 000-3zm0 2a.5.5 0 110-1 .5.5 0 010 1zm4-2a1.5 1.5 0 100 3 1.5 1.5 0 000-3zm0 2a.5.5 0 110-1 .5.5 0 010 1zm0-6a1.5 1.5 0 100 3 1.5 1.5 0 000-3zm0 2a.5.5 0 110-1 .5.5 0 010 1z"/></svg>