<svg xmlns="http://www.w3.org/2000/svg" viewBox="0 0 24 24" width="20" height="20"><path d="M10 12.5a1.5 1.5 0 100 3 1.5 1.5 0 000-3zm0 2a.5.5 0 110-1 .5.5 0 010 1zm0-6a1.5 1.5 0 100 3 1.5 1.5 0 000-3zm0 2a.5.5 0 110-1 .5.5 0 010 1zm11.5 2a.5.5 0 000-1H19v-3h2.5a.5.5 0 000-1H19A2.502 2.502 0 0016.5 5V2.5a.5.5 0 00-1 0V5h-3V2.5a.5.5 0 00-1 0V5h-3V2.5a.5.5 0 00-1 0V5A2.502 2.502 0 005 7.5H2.5a.5.5 0 000 1H5v3H2.5a.5.5 0 000 1H5v3H2.5a.5.5 0 000 1H5A2.502 2.502 0 007.5 19v2.5a.5.5 0 101 0V19h3v2.5a.5.5 0 101 0V19h3v2.5a.5.5 0 101 0V19a2.502 2.502 0 002.5-2.5h2.5a.5.5 0 000-1H19v-3h2.5zm-3.5 4c0 .828-.672 1.5-1.5 1.5h-9c-.828 0-1.5-.672-1.5-1.5v-9C6 6.672 6.672 6 7.5 6h9c.828 0 1.5.672 1.5 1.5v9zm-4-8a1.5 1.5 0 100 3 1.5 1.5 0 000-3zm0 2a.5.5 0 110-1 .5.5 0 010 1zm0 2a1.5 1.5 0 100 3 1.5 1.5 0 000-3zm0 2a.5.5 0 110-1 .5.5 0 010 1z"/></svg>