<svg xmlns="http://www.w3.org/2000/svg" viewBox="0 0 24 24" width="20" height="20"><path d="M10.5 13h-7c-.3 0-.5.2-.5.5v7c0 .3.2.5.5.5h7c.3 0 .5-.2.5-.5v-7c0-.3-.2-.5-.5-.5zm-.5 7H4v-6h6v6zm.5-17h-7c-.3 0-.5.2-.5.5v7c0 .3.2.5.5.5h7c.3 0 .5-.2.5-.5v-7c0-.3-.2-.5-.5-.5zm-.5 7H4V4h6v6zm10.5-7h-7c-.3 0-.5.2-.5.5v7c0 .3.2.5.5.5h7c.3 0 .5-.2.5-.5v-7c0-.3-.2-.5-.5-.5zm-.5 7h-6V4h6v6zm.5 6.5h-3v-3c0-.3-.2-.5-.5-.5s-.5.2-.5.5v3h-3c-.3 0-.5.2-.5.5s.2.5.5.5h3v3c0 .3.2.5.5.5s.5-.2.5-.5v-3h3c.3 0 .5-.2.5-.5s-.2-.5-.5-.5z"/></svg>