<svg xmlns="http://www.w3.org/2000/svg" viewBox="0 0 24 24" width="20" height="20"><path d="M7 10H3a.5.5 0 00-.5.5v4a.5.5 0 00.5.5h4a.5.5 0 00.5-.5v-4A.5.5 0 007 10zm-.5 4h-3v-3h3v3zM7 3H3a.5.5 0 00-.5.5v4A.5.5 0 003 8h4a.5.5 0 00.5-.5v-4A.5.5 0 007 3zm-.5 4h-3V4h3v3zM14 3h-4a.5.5 0 00-.5.5v4a.5.5 0 00.5.5h4a.5.5 0 00.5-.5v-4A.5.5 0 0014 3zm-.5 4h-3V4h3v3zM21 3h-4a.5.5 0 00-.5.5v4a.5.5 0 00.5.5h4a.5.5 0 00.5-.5v-4A.5.5 0 0021 3zm-.5 4h-3V4h3v3zM14 17h-4a.5.5 0 00-.5.5v4a.5.5 0 00.5.5h4a.5.5 0 00.5-.5v-4a.5.5 0 00-.5-.5zm-.5 4h-3v-3h3v3zM21 10h-4a.5.5 0 00-.5.5v4a.5.5 0 00.5.5h4a.5.5 0 00.5-.5v-4a.5.5 0 00-.5-.5zm-.5 4h-3v-3h3v3zM14 10h-4a.5.5 0 00-.5.5v4a.5.5 0 00.5.5h4a.5.5 0 00.5-.5v-4a.5.5 0 00-.5-.5zm-.5 4h-3v-3h3v3z"/></svg>