<svg xmlns="http://www.w3.org/2000/svg" viewBox="0 0 24 24" width="20" height="20"><path d="M16.117 8.906l-2.589 3.086-3.715-2.281a.499.499 0 00-.644.104l-3.052 3.636a.5.5 0 00.766.643l2.774-3.306 3.715 2.281c.211.13.485.085.645-.104l2.866-3.416a.5.5 0 00-.766-.643zM12 1C5.715 1 .975 5.594.975 11.686a10.433 10.433 0 003.471 7.905c.071.06.114.149.118.242l.058 1.867a1.343 1.343 0 001.883 1.187l2.088-.92a.33.33 0 01.226-.018c1.037.283 2.107.425 3.181.422 6.285 0 11.025-4.594 11.025-10.685S18.285 1 12 1zm0 20.371a10.959 10.959 0 01-2.916-.387 1.36 1.36 0 00-.894.068l-2.086.919a.346.346 0 01-.324-.026.336.336 0 01-.158-.276l-.058-1.871a1.342 1.342 0 00-.45-.952 9.446 9.446 0 01-3.14-7.16C1.975 6.164 6.285 2 12 2s10.025 4.164 10.025 9.686S17.715 21.37 12 21.37z"/></svg>