<svg xmlns="http://www.w3.org/2000/svg" viewBox="0 0 24 24" width="20" height="20"><path d="M3.5 8.321a.5.5 0 00.5-.5v-.366l.354-.095a.5.5 0 00-.26-.966l-.724.194A.5.5 0 003 7.07v.75a.5.5 0 00.5.5zM9.934 10h-1.55a.5.5 0 000 1h1.55a.5.5 0 000-1zM8.372 6.262a.5.5 0 00.13-.018l1.555-.418h.003a.5.5 0 10-.263-.965l-1.555.418a.5.5 0 00.13.983zM14.067 11h1.55a.5.5 0 000-1h-1.55a.5.5 0 000 1zm.007-6.272a.502.502 0 00.13-.018l1.555-.418h.002a.5.5 0 00-.262-.965l-1.555.418a.5.5 0 00.13.983zM20.5 13h-17a.5.5 0 00-.5.5v3.75a.5.5 0 00.379.485l17 4.25c.04.01.08.015.121.015h.001a.5.5 0 00.499-.5v-8a.5.5 0 00-.5-.5zm-.5 7.86l-16-4V14h16v6.86zm.983-18.489a.5.5 0 00-.613-.354l-.724.194h-.002a.5.5 0 10.261.967L20 3.15v.099a.5.5 0 001 0V2.5a.5.5 0 00-.017-.129zM20.5 5.487a.5.5 0 00-.5.5v1.027a.5.5 0 101 0V5.987a.5.5 0 00-.5-.5zm0 3.763a.5.5 0 00-.5.5V10h-.25a.5.5 0 000 1h.75a.5.5 0 00.5-.5v-.75a.5.5 0 00-.5-.5zM3.5 11h.75a.5.5 0 000-1H4v-.25a.5.5 0 00-1 0v.75a.5.5 0 00.5.5z"/></svg>