<svg xmlns="http://www.w3.org/2000/svg" viewBox="0 0 24 24" width="20" height="20"><path d="M5.826 10.057l.418-1.555v-.003a.5.5 0 10-.965-.257l-.418 1.555a.5.5 0 00.965.26zM3.25 20h-.099l.027-.095a.502.502 0 00-.354-.613.508.508 0 00-.613.354l-.194.724A.5.5 0 002.5 21h.75a.5.5 0 000-1zM7.821 3h-.75a.5.5 0 00-.483.37l-.194.725a.502.502 0 00.966.26L7.455 4h.366a.5.5 0 000-1zM4.357 13.592a.5.5 0 00-.612.352L3.327 15.5a.5.5 0 00.965.26l.418-1.555a.5.5 0 00-.353-.612zM7.013 20H5.986a.5.5 0 000 1h1.027a.5.5 0 000-1zm14.97.37l-4.572-17A.499.499 0 0016.93 3H13.5a.5.5 0 00-.5.5v17a.5.5 0 00.5.5h8a.5.5 0 00.482-.63zM14 20V4h2.545l4.303 16H14zM10.5 3h-.75a.5.5 0 000 1H10v.25a.5.5 0 001 0V3.5a.5.5 0 00-.5-.5zm0 16.25a.5.5 0 00-.5.5V20h-.25a.5.5 0 000 1h.75a.5.5 0 00.5-.5v-.75a.5.5 0 00-.5-.5zm0-5.683a.5.5 0 00-.5.5v1.55a.5.5 0 101 0v-1.55a.5.5 0 00-.5-.5zm0-5.683a.5.5 0 00-.5.5v1.55a.5.5 0 101 0v-1.55a.5.5 0 00-.5-.5z"/></svg>