<svg xmlns="http://www.w3.org/2000/svg" viewBox="0 0 24 24" width="20" height="20"><path d="M9.653 20.865a.501.501 0 00-.59-.492c-1.59.295-3.608.299-4.194-1.347a5.622 5.622 0 00-1.679-2.249 1.46 1.46 0 01-.408-.31.5.5 0 00-.491-.42h-.002a.5.5 0 00-.5.499c-.003.57.71.997.922 1.11.53.475.947 1.064 1.222 1.721.348.98 1.41 2.495 4.722 2.072.003.365.008.553.012.697l.005.294a.5.5 0 001 0l-.005-.322a38.783 38.783 0 01-.014-1.253zM20.921 5.224a7.357 7.357 0 00-.096-.119c.067-.21.12-.427.158-.645a6.033 6.033 0 00-.397-3.17.5.5 0 00-.309-.29c-.141-.047-1.433-.395-4.13 1.382a13.973 13.973 0 00-6.884 0C6.567.626 5.283.955 5.14.997a.503.503 0 00-.316.292 6.038 6.038 0 00-.394 3.219c.038.2.087.397.145.592a3.584 3.584 0 00-.1.128A5.946 5.946 0 003.2 9.002c-.002.31.012.62.043.929.34 4.664 3.349 5.962 5.947 6.405a3.807 3.807 0 00-.376.967.5.5 0 00.971.238c.093-.46.325-.88.665-1.202a.5.5 0 00-.272-.874C7.422 15.152 4.56 14.24 4.24 9.84a7.683 7.683 0 01-.039-.838 4.982 4.982 0 011.07-3.168c.076-.102.16-.194.243-.286a.501.501 0 00.096-.516 4.05 4.05 0 01-.194-.695 4.955 4.955 0 01.232-2.39 6.71 6.71 0 013.248 1.39.497.497 0 00.414.067 12.973 12.973 0 016.793 0 .5.5 0 00.415-.067 6.555 6.555 0 013.242-1.398 4.94 4.94 0 01.237 2.356 3.877 3.877 0 01-.206.737.501.501 0 00.097.516c.088.097.175.205.253.302a4.913 4.913 0 011.07 3.152c.002.286-.012.572-.042.856-.317 4.381-3.19 5.292-5.957 5.607a.5.5 0 00-.273.874c.345.325.576.752.659 1.219.085.329.125.668.118 1.008v2.46c-.01.675-.01 1.182-.01 1.414a.5.5 0 001 0c0-.23 0-.731.01-1.407v-2.467a4.633 4.633 0 00-.15-1.255 3.653 3.653 0 00-.367-.975c2.609-.442 5.63-1.74 5.966-6.385.033-.315.049-.632.046-.949a5.892 5.892 0 00-1.29-3.778z"/></svg>