<svg xmlns="http://www.w3.org/2000/svg" viewBox="0 0 24 24" width="20" height="20"><path d="M21.732 15.138c-.002-.034-.011-.065-.02-.098-.009-.033-.017-.064-.031-.094-.005-.01-.005-.02-.01-.029L15.513 4.25A.5.5 0 0015.08 4H8.92a.5.5 0 00-.249.067.488.488 0 00-.165.166c-.005.007-.013.01-.018.017L2.33 14.917a.497.497 0 000 .5l3.08 5.333c.007.013.022.018.03.03.034.048.074.09.123.123.019.013.034.026.054.036.069.036.143.06.226.061h12.317a.5.5 0 00.433-.25l3.079-5.333c.007-.012.005-.028.01-.04a.487.487 0 00.046-.17c.001-.013.01-.025.01-.04 0-.01-.004-.019-.005-.03zM14.79 5l5.581 9.667H15.37L9.787 5h5.004zm-.577 9.667H9.786L12 10.832l2.214 3.835zm-10.875.5L8.92 5.5l2.502 4.333L5.842 19.5l-2.503-4.333zM17.87 20H6.708l2.502-4.333h11.162L17.87 20z"/></svg>