<svg xmlns="http://www.w3.org/2000/svg" viewBox="0 0 24 24" width="20" height="20"><path d="M22.132 10.033a.5.5 0 00-.492-.41h-9.418a.5.5 0 00-.5.498v3.869a.5.5 0 00.5.5h4.735a4.136 4.136 0 01-1.627 2.103 5.55 5.55 0 01-3.108.87A5.434 5.434 0 017.1 13.682v-.002a5.416 5.416 0 010-3.48v-.002a5.434 5.434 0 015.12-3.781 4.93 4.93 0 013.48 1.357.5.5 0 00.7-.007l2.868-2.869a.5.5 0 00-.013-.72 10.135 10.135 0 00-7.032-2.738A10.451 10.451 0 002.84 7.225a10.51 10.51 0 000 9.43 10.453 10.453 0 009.383 5.785 10.034 10.034 0 006.952-2.552l.005-.002a10.296 10.296 0 003.143-7.719c0-.716-.064-1.43-.19-2.134zm-9.91-7.593a9.153 9.153 0 015.962 2.127l-2.16 2.16a5.937 5.937 0 00-3.802-1.31 6.407 6.407 0 00-5.817 3.818l-2.48-1.924a9.453 9.453 0 018.297-4.87zm-9.5 9.5a9.427 9.427 0 01.753-3.71l2.573 1.994a6.387 6.387 0 000 3.431L3.476 15.65a9.552 9.552 0 01-.754-3.71zm9.5 9.5a9.454 9.454 0 01-8.298-4.871l2.481-1.924a6.406 6.406 0 005.817 3.818 6.67 6.67 0 003.355-.847l.11.085 2.363 1.836a9.19 9.19 0 01-5.828 1.903zm6.582-2.584l-2.378-1.846a5.092 5.092 0 001.669-2.929.5.5 0 00-.491-.59h-4.882v-2.869h8.492c.072.512.108 1.028.108 1.545a9.42 9.42 0 01-2.518 6.69z"/></svg>