<svg xmlns="http://www.w3.org/2000/svg" viewBox="0 0 24 24" width="20" height="20"><path d="M14.992 8a2 2 0 000 4c.358-.002.71-.101 1.016-.287V12a1 1 0 01-1 1 .5.5 0 000 1 2.003 2.003 0 002-2v-2a.49.49 0 00-.032-.156A1.997 1.997 0 0014.992 8zm0 3a1 1 0 110-2 1 1 0 010 2zM13.34 1.082A9.664 9.664 0 0012 1C6.628.985 2.262 5.328 2.248 10.7a9.726 9.726 0 009.252 9.74v2.06a.5.5 0 00.5.5c.04 0 .08-.005.12-.015a12.625 12.625 0 009.55-11.056c.695-5.296-3.035-10.152-8.33-10.847zm7.337 10.74A11.628 11.628 0 0112.5 21.843v-1.89a.5.5 0 00-.5-.5 8.788 8.788 0 118.676-7.633zM8.992 8a2 2 0 000 4c.358-.002.71-.101 1.016-.287V12a1 1 0 01-1 1 .5.5 0 000 1 2.003 2.003 0 002-2v-2a.49.49 0 00-.032-.156A1.997 1.997 0 008.992 8zm0 3a1 1 0 110-2 1 1 0 010 2z"/></svg>