<svg xmlns="http://www.w3.org/2000/svg" viewBox="0 0 24 24" width="20" height="20"><path d="M10 14.5a.5.5 0 00.5-.5V6a.5.5 0 00-1 0v8a.5.5 0 00.5.5zm4 0a.5.5 0 00.5-.5V6a.5.5 0 00-1 0v8a.5.5 0 00.5.5zM20 1H4a3.003 3.003 0 00-3 3v16a3.003 3.003 0 003 3h16a3.003 3.003 0 003-3V4a3.003 3.003 0 00-3-3zm2 19a2.003 2.003 0 01-2 2H4a2.003 2.003 0 01-2-2V4a2.003 2.003 0 012-2h16a2.003 2.003 0 012 2v16zM6 12.5a.5.5 0 00.5-.5V8a.5.5 0 00-1 0v4a.5.5 0 00.5.5zm12-5a.5.5 0 00-.5.5v4a.5.5 0 001 0V8a.5.5 0 00-.5-.5zm-.32 8.291A9.459 9.459 0 0112 17.5a9.447 9.447 0 01-5.68-1.71.5.5 0 00-.641.767A10.255 10.255 0 0012 18.5a10.258 10.258 0 006.321-1.942.5.5 0 00-.641-.767z"/></svg>