<svg xmlns="http://www.w3.org/2000/svg" viewBox="0 0 24 24" width="20" height="20"><path d="M5.884 9.18a.5.5 0 00-.704-.064l-3 2.5a.5.5 0 000 .768l3 2.5a.498.498 0 00.704-.064.5.5 0 00-.064-.704L3.281 12l2.54-2.116a.5.5 0 00.063-.704zM12.5 7h9a.5.5 0 000-1h-9a.5.5 0 000 1zM9.045 5h-.003a.5.5 0 00-.5.497l-.084 13a.5.5 0 00.497.503h.003a.5.5 0 00.5-.497l.084-13A.5.5 0 009.045 5zM21.5 18h-9a.5.5 0 000 1h9a.5.5 0 000-1zm0-8h-9a.5.5 0 000 1h9a.5.5 0 000-1zm0 4h-9a.5.5 0 000 1h9a.5.5 0 000-1z"/></svg>