<svg xmlns="http://www.w3.org/2000/svg" viewBox="0 0 24 24" width="20" height="20"><path d="M5.242 10.218a.5.5 0 00.13-.984l-2.726-.73a.509.509 0 00-.613.353.501.501 0 00.354.614l2.725.73c.043.01.086.016.13.017zm8.565 5.169a.5.5 0 00-.707-.007l-3.89 3.888a3.241 3.241 0 01-4.478 0v-.001a3.166 3.166 0 010-4.478L8.62 10.9a.5.5 0 00-.707-.707l-3.888 3.889a4.167 4.167 0 105.893 5.893l3.889-3.888a.5.5 0 000-.7zM5.883 6.59a.498.498 0 00.707 0 .5.5 0 000-.707L4.595 3.888a.5.5 0 00-.707.707L5.883 6.59zm3.351-1.218a.502.502 0 00.614.354.501.501 0 00.353-.614l-.73-2.725a.506.506 0 00-.614-.354.501.501 0 00-.353.613l.73 2.726zm10.74-1.347a4.167 4.167 0 00-5.892 0l-3.889 3.888a.5.5 0 00.707.707l3.89-3.888a3.241 3.241 0 014.478 0v.001a3.166 3.166 0 010 4.478L15.38 13.1a.5.5 0 00.707.707l3.888-3.889a4.167 4.167 0 000-5.893zm1.64 10.504l-2.726-.73a.508.508 0 00-.614.353.501.501 0 00.354.614l2.726.73a.5.5 0 10.26-.967zm-3.497 2.881l-.007-.007a.5.5 0 00-.7.714l1.995 1.995a.498.498 0 00.707 0 .5.5 0 000-.707l-1.995-1.995zm-3.351 1.218a.5.5 0 00-.967.26l.73 2.725a.502.502 0 00.614.354.501.501 0 00.353-.613l-.73-2.726z"/></svg>