<svg xmlns="http://www.w3.org/2000/svg" viewBox="0 0 24 24" width="20" height="20"><path d="M17 18.5a1.5 1.5 0 100-3 1.5 1.5 0 000 3zm0-2a.501.501 0 11-.002 1.002A.501.501 0 0117 16.5zm4.987-3.064a.488.488 0 00-.02-.095.478.478 0 00-.043-.09.481.481 0 00-.05-.073.488.488 0 00-.08-.072c-.016-.012-.027-.029-.044-.039l-15.58-9a.5.5 0 10-.5.866L19.637 13H3.5a.5.5 0 00-.5.5v5A2.502 2.502 0 005.5 21h14a2.502 2.502 0 002.5-2.5v-5c0-.023-.01-.043-.013-.064zM21 18.5c0 .828-.672 1.5-1.5 1.5h-14c-.828 0-1.5-.672-1.5-1.5V14h17v4.5z"/></svg>