<svg xmlns="http://www.w3.org/2000/svg" viewBox="0 0 24 24" width="20" height="20"><path d="M21 19.092v-8.184c.58-.207 1-.757 1-1.408 0-.827-.673-1.5-1.5-1.5a1.5 1.5 0 00-1.408 1H15V4.908c.58-.207 1-.757 1-1.408 0-.827-.673-1.5-1.5-1.5a1.5 1.5 0 00-1.408 1H4.908A1.5 1.5 0 003.5 2C2.673 2 2 2.673 2 3.5c0 .651.42 1.2 1 1.408v8.184c-.58.207-1 .757-1 1.408 0 .827.673 1.5 1.5 1.5a1.5 1.5 0 001.408-1H9v4.092c-.58.207-1 .757-1 1.408 0 .827.673 1.5 1.5 1.5a1.5 1.5 0 001.408-1h8.184c.207.58.757 1 1.408 1 .827 0 1.5-.673 1.5-1.5a1.5 1.5 0 00-1-1.408zM20.5 9a.501.501 0 010 1 .501.501 0 010-1zm-6-6a.501.501 0 010 1 .501.501 0 010-1zm-11 0a.501.501 0 010 1 .501.501 0 010-1zm0 12a.501.501 0 010-1 .501.501 0 010 1zm1.414-1l-.005.002a1.498 1.498 0 00-.912-.91L4 13.085V4.914l-.003-.005c.426-.15.76-.485.911-.91L4.914 4h8.172l.005-.003c.151.426.485.76.91.911L14 4.914V9h-3.092A1.5 1.5 0 009.5 8C8.673 8 8 8.673 8 9.5c0 .651.42 1.2 1 1.408V14H4.914zm9.586 0a.501.501 0 010 1 .501.501 0 010-1zm-.498-.908a1.49 1.49 0 00-.91.91L13.085 14H10v-3.086l-.003-.005c.426-.151.76-.485.911-.91.001-.002.006.002.006.001H14v3.086l.002.006zM9.5 10a.501.501 0 010-1 .501.501 0 010 1zm3.592 5c.207.58.757 1 1.408 1 .827 0 1.5-.673 1.5-1.5a1.5 1.5 0 00-1-1.408V10h4.086l.005-.004c.15.427.486.762.912.913l-.003.005v8.172l.003.005a1.498 1.498 0 00-.914.918L19.086 20h-8.172l-.004.008a1.497 1.497 0 00-.918-.918l.008-.004V15h3.092zM9.5 21a.501.501 0 010-1 .501.501 0 010 1zm11 0a.501.501 0 010-1 .501.501 0 010 1z"/></svg>