<svg xmlns="http://www.w3.org/2000/svg" viewBox="0 0 24 24" width="20" height="20"><path d="M19.654 7.587a3.31 3.31 0 00-.683-.57 4.123 4.123 0 00-.953-3.478c-.938-1.06-2.576-1.599-4.869-1.599H7.265c-.66.002-1.22.481-1.324 1.132l-2.453 15.59a1.007 1.007 0 00.994 1.172H7.53l-.16 1.014a.945.945 0 00.93 1.092h3.064a1.23 1.23 0 001.219-1.032l.606-3.827.041-.217a.236.236 0 01.234-.202h.458c3.629 0 5.803-1.72 6.462-5.112a4.48 4.48 0 00-.729-3.963zm-11.763 9.94l-.206 1.306-3.21-.01 2.455-15.6a.338.338 0 01.335-.283h5.884c1.995 0 3.38.424 4.117 1.26.702.825.955 1.942.677 2.99h.002a9.544 9.544 0 01-.056.326l-.001.003c-.65 3.347-2.721 4.975-6.333 4.975H9.827a1.335 1.335 0 00-1.323 1.136l-.613 3.896zm11.51-6.168c-.563 2.896-2.355 4.303-5.48 4.303h-.458a1.228 1.228 0 00-1.219 1.032l-.615 3.873-.032.171a.237.237 0 01-.235.202l-3.005.065.605-3.849.534-3.37h-.004v-.002a.34.34 0 01.335-.29h1.728c3.96 0 6.39-1.807 7.227-5.375.042.041.082.083.12.126.65.901.834 2.056.498 3.114z"/></svg>