<svg xmlns="http://www.w3.org/2000/svg" viewBox="0 0 24 24" width="20" height="20"><path d="M7 9.5a1.5 1.5 0 100 3 1.5 1.5 0 000-3zm0 2a.5.5 0 110-1 .5.5 0 010 1zM19.5 6H18V2.5a.5.5 0 00-.5-.5h-11a.5.5 0 00-.5.5V6H4.5A2.502 2.502 0 002 8.5V15a3.003 3.003 0 003 3h1v3.5a.5.5 0 00.5.5h11a.5.5 0 00.5-.5V18h1a3.003 3.003 0 003-3V8.5A2.502 2.502 0 0019.5 6zM7 3h10v3H7V3zm10 18H7v-6h10v6zm4-6a2.003 2.003 0 01-2 2h-1v-2.5a.5.5 0 00-.5-.5h-11a.5.5 0 00-.5.5V17H5a2.003 2.003 0 01-2-2V8.5A1.5 1.5 0 014.5 7h15A1.5 1.5 0 0121 8.5V15z"/></svg>