<svg xmlns="http://www.w3.org/2000/svg" viewBox="0 0 24 24" width="20" height="20"><path d="M9 7H5.145a8.504 8.504 0 018.274-3.387.5.5 0 00.162-.986A9.849 9.849 0 0012 2.5a9.52 9.52 0 00-7.5 3.677V2.5a.5.5 0 00-1 0v5A.5.5 0 004 8h5a.5.5 0 000-1zm-1.5 7.5a.5.5 0 00-.5.5v3.855a8.504 8.504 0 01-3.387-8.274.5.5 0 00-.986-.162 9.52 9.52 0 003.55 9.081H2.5a.5.5 0 000 1h5A.5.5 0 008 20v-5a.5.5 0 00-.5-.5zM20 16h-5a.5.5 0 000 1h3.855a8.504 8.504 0 01-8.274 3.387.5.5 0 00-.162.986A9.849 9.849 0 0012 21.5a9.52 9.52 0 007.5-3.677V21.5a.5.5 0 001 0v-5a.5.5 0 00-.5-.5zm1.5-12.5h-5a.5.5 0 00-.5.5v5a.5.5 0 001 0V5.14a8.3 8.3 0 012.358 2.612A8.441 8.441 0 0120.5 12c0 .475-.037.95-.113 1.419a.499.499 0 10.986.162A9.855 9.855 0 0021.5 12a9.443 9.443 0 00-1.275-4.747A9.294 9.294 0 0017.828 4.5H21.5a.5.5 0 000-1z"/></svg>