<svg xmlns="http://www.w3.org/2000/svg" viewBox="0 0 24 24" width="20" height="20"><path d="M22.5 11.72a3.278 3.278 0 00-6.098-1.673 15.824 15.824 0 00-3.824-.588l1.027-6.853 3.022 1.027a2.49 2.49 0 00-.034.285 2.5 2.5 0 105 0v-.01a2.526 2.526 0 00-2.5-2.468 2.495 2.495 0 00-2.139 1.248l-3.593-1.221a.5.5 0 00-.655.4l-1.138 7.587a15.872 15.872 0 00-3.97.593 3.27 3.27 0 10-5.426 3.627A4.361 4.361 0 001.5 15.94c0 3.584 4.71 6.5 10.5 6.5s10.5-2.916 10.5-6.5a4.36 4.36 0 00-.671-2.265 3.28 3.28 0 00.671-1.955zm-4.907-7.791a1.5 1.5 0 110 .012v-.012zm2.964 5.929c.94.675 1.22 1.952.646 2.958a9.524 9.524 0 00-3.804-2.44 2.263 2.263 0 013.158-.518zm-16.92-.12a2.272 2.272 0 012.964.638 9.523 9.523 0 00-3.804 2.44 2.256 2.256 0 01.84-3.078zM12 21.44c-5.238 0-9.5-2.467-9.5-5.5 0-2.095 2.036-3.92 5.022-4.848.006-.002.012 0 .017-.003l.003-.002A15.185 15.185 0 0112 10.44c1.51-.007 3.012.21 4.458.647l.003.002.017.003c2.986.929 5.022 2.753 5.022 4.848 0 3.033-4.262 5.5-9.5 5.5zm3.2-8.999a1.5 1.5 0 100 3 1.5 1.5 0 000-3zm.5 1.501zm-6.5 1.5a1.5 1.5 0 10.002-3 1.5 1.5 0 00-.003 3H9.2zm-.5-1.5a.5.5 0 11.501.5.501.501 0 01-.5-.5zm6.064 3.22a3.764 3.764 0 01-2.722.778 3.76 3.76 0 01-2.72-.778.5.5 0 00-.708.707 4.653 4.653 0 003.428 1.071 4.66 4.66 0 003.429-1.07.5.5 0 00-.707-.708z"/></svg>