<svg xmlns="http://www.w3.org/2000/svg" viewBox="0 0 24 24" width="20" height="20"><path d="M20.5 16h-4a.5.5 0 000 1h2.976a8.996 8.996 0 01-7.459 4 9.009 9.009 0 01-8.904-10.419.5.5 0 00-.986-.162A9.847 9.847 0 002 12c.006 5.52 4.48 9.994 10 10a10.009 10.009 0 008-3.999v2.5a.5.5 0 101 0v-4.002a.5.5 0 00-.5-.499zM16.737 3.196C12.32.818 6.921 2.107 4 6.003V3.5a.5.5 0 00-1 0v4a.5.5 0 00.5.5h4a.5.5 0 000-1H4.524a8.996 8.996 0 017.459-4 9.009 9.009 0 018.903 10.421.499.499 0 10.987.16A9.847 9.847 0 0022 12a10.008 10.008 0 00-5.263-8.804zM15 12a3 3 0 10-6 0 3 3 0 006 0zm-5 0a2 2 0 114 0 2 2 0 01-4 0z"/></svg>