<svg xmlns="http://www.w3.org/2000/svg" viewBox="0 0 24 24" width="20" height="20"><path d="M19 2H5a3.003 3.003 0 00-3 3v14a3.003 3.003 0 003 3h14c.182 0 .362-.022.54-.055.066-.012.129-.03.193-.047a2.971 2.971 0 00.531-.187c.084-.04.165-.086.245-.133.075-.044.151-.086.222-.136l.018-.011.021-.018c.014-.011.03-.017.043-.03.007-.006.01-.015.015-.022A2.987 2.987 0 0022 19V5a3.003 3.003 0 00-3-3zm.575 18.905A1.95 1.95 0 0119 21H5a2.003 2.003 0 01-2-2v-4.725l3.763-3.762a1.753 1.753 0 012.474 0l3.405 3.404.004.007 6.97 6.969-.041.012zM21 19c0 .516-.202.982-.523 1.337l-6.769-6.768 1.056-1.055a1.787 1.787 0 012.472 0L21 16.277V19zm0-4.137l-3.057-3.056a2.75 2.75 0 00-3.886 0L13 12.862 9.944 9.806a2.753 2.753 0 00-3.888 0L3 12.86V5a2.003 2.003 0 012-2h14a2.003 2.003 0 012 2v9.863zM13.5 6a1.5 1.5 0 100 3 1.5 1.5 0 000-3zm0 2a.5.5 0 110-1 .5.5 0 010 1z"/></svg>