<svg xmlns="http://www.w3.org/2000/svg" viewBox="0 0 24 24" width="20" height="20"><path d="M8.285 4.394A9.767 9.767 0 0012 2.924a10.188 10.188 0 007 1.53v7.416a7.896 7.896 0 01-.47 2.7.486.486 0 00-.03.17v.014a.496.496 0 00.5.491.501.501 0 00.476-.35c.348-.97.526-1.994.524-3.025V3.86a.502.502 0 00-.6-.49 9.244 9.244 0 01-7.112-1.458.496.496 0 00-.576 0 8.802 8.802 0 01-3.597 1.495l-.004.001a.5.5 0 10.174.986zm13.568 16.753l-19-19a.5.5 0 00-.707.707L4 4.707v7.163a9.123 9.123 0 003.798 7.406l3.91 2.81a.5.5 0 00.584 0l3.911-2.81a8.75 8.75 0 001.255-1.111l3.688 3.689a.498.498 0 00.707 0 .5.5 0 000-.707zm-6.235-2.683L12 21.064l-3.62-2.6A8.122 8.122 0 015 11.87V5.707l11.752 11.752a7.85 7.85 0 01-1.134 1.005z"/></svg>