<svg xmlns="http://www.w3.org/2000/svg" viewBox="0 0 24 24" width="20" height="20"><path d="M12.596 8.083A2.498 2.498 0 009.55 9.875a.5.5 0 10.969.25 1.5 1.5 0 111.926 1.796 1.507 1.507 0 00-.981 1.451v.629a.5.5 0 101 0v-.629a.524.524 0 01.304-.504 2.498 2.498 0 00-.173-4.785zm-.631 7.292a.625.625 0 100 1.25.625.625 0 000-1.25zm8.024-11.622a.5.5 0 00-.592-.387 9.105 9.105 0 01-7.11-1.454.5.5 0 00-.574 0 9.105 9.105 0 01-7.11 1.454.498.498 0 00-.603.49v8.018a9.131 9.131 0 003.799 7.407l3.91 2.804a.497.497 0 00.582 0l3.91-2.804A9.131 9.131 0 0020 11.874V3.855a.498.498 0 00-.01-.102zM19 11.874a8.129 8.129 0 01-3.38 6.595L12 21.063 8.38 18.47A8.13 8.13 0 015 11.874v-7.42a10.082 10.082 0 007-1.53 10.085 10.085 0 007 1.53v7.42z"/></svg>