<svg xmlns="http://www.w3.org/2000/svg" viewBox="0 0 24 24" width="20" height="20"><path d="M12 13a.5.5 0 00.5-.5v-3a.5.5 0 00-1 0v3a.5.5 0 00.5.5zm7.99-9.247a.5.5 0 00-.593-.387 9.106 9.106 0 01-7.11-1.454.5.5 0 00-.574 0 9.107 9.107 0 01-7.11 1.454.498.498 0 00-.603.49v8.018a9.131 9.131 0 003.799 7.407l3.91 2.804a.497.497 0 00.582 0l3.91-2.804A9.131 9.131 0 0020 11.874V3.855a.498.498 0 00-.01-.102zM19 11.874a8.129 8.129 0 01-3.38 6.595L12 21.063 8.38 18.47A8.13 8.13 0 015 11.874v-7.42a10.082 10.082 0 007-1.53 10.084 10.084 0 007 1.53v7.42zm-7 2.001a.625.625 0 100 1.25.625.625 0 000-1.25z"/></svg>