<svg xmlns="http://www.w3.org/2000/svg" viewBox="0 0 24 24" width="20" height="20"><path d="M14.867 12.232a4.529 4.529 0 00-1.164-.534 17.92 17.92 0 00-.861-.234 18.5 18.5 0 00-1.036-.252 9.876 9.876 0 01-1.518-.45 1.986 1.986 0 01-.819-.602 1.346 1.346 0 01-.264-.872c0-.324.106-.64.304-.896.241-.297.56-.52.922-.643a4.477 4.477 0 011.601-.249c.425-.006.849.052 1.257.17.297.084.577.222.824.407.183.134.337.303.453.497a.5.5 0 00.881-.474 2.673 2.673 0 00-.71-.804 3.52 3.52 0 00-1.151-.581 5.286 5.286 0 00-1.554-.215 5.451 5.451 0 00-1.961.316 3.06 3.06 0 00-1.362.975c-.327.43-.504.956-.504 1.497a2.36 2.36 0 00.475 1.486c.324.406.747.721 1.23.914.411.158.833.29 1.262.393.008.003.015.01.024.013.183.054.478.128.9.22.173.037.335.078.498.119.03.008.07.017.098.026.012.004.024.003.036.005.24.062.471.127.684.191.318.094.622.232.901.41.21.136.387.32.515.536.13.25.192.53.183.813.018.373-.091.742-.31 1.044a2.225 2.225 0 01-1.008.749c-.536.21-1.109.31-1.685.293a4.174 4.174 0 01-1.934-.4 2.288 2.288 0 01-.801-.713 1.456 1.456 0 01-.286-.78.5.5 0 10-1 0c.017.485.178.954.463 1.347.3.433.699.788 1.164 1.033a5.134 5.134 0 002.394.513 5.228 5.228 0 002.07-.37 3.185 3.185 0 001.438-1.093 2.625 2.625 0 00.495-1.641 2.453 2.453 0 00-1.144-2.164zm6.974 1.536A9.993 9.993 0 0010.233 2.16a6 6 0 00-8.074 8.072A9.992 9.992 0 0013.768 21.84a5.999 5.999 0 008.073-8.072zm-2.928 7.112a4.999 4.999 0 01-4.823 0 .505.505 0 00-.339-.053A8.994 8.994 0 013.173 10.25a.499.499 0 00-.053-.338 5 5 0 016.791-6.79.482.482 0 00.339.052A8.995 8.995 0 0120.827 13.75a.5.5 0 00.053.339 4.999 4.999 0 01-1.967 6.79z"/></svg>