<svg xmlns="http://www.w3.org/2000/svg" viewBox="0 0 24 24" width="20" height="20"><path d="M21.853 2.159a.5.5 0 00-.707-.013L18.694 4.6a9.999 9.999 0 00-1.942-1.4C12.332.817 6.925 2.105 4 6.004V3.5a.5.5 0 00-1 0v4a.5.5 0 00.5.5h4a.5.5 0 000-1H4.53c.322-.48.673-.94 1.083-1.351 3.398-3.407 8.837-3.518 12.381-.35L5.297 17.996A8.93 8.93 0 013 12c0-.475.037-.95.113-1.419a.5.5 0 00-.986-.162 9.981 9.981 0 002.467 8.28l-2.448 2.447a.5.5 0 10.707.707l19-19a.5.5 0 000-.694zM20.5 16h-4a.5.5 0 000 1h2.987c-2.587 3.867-7.75 5.164-11.882 2.854a.5.5 0 00-.49.872A9.99 9.99 0 0012 22a10.008 10.008 0 008-3.999V20.5a.5.5 0 101 0v-4a.5.5 0 00-.5-.5zm.226-8.885a.5.5 0 00-.872.49 8.995 8.995 0 011.032 5.816.499.499 0 10.987.16 9.99 9.99 0 00-1.147-6.466z"/></svg>