<svg xmlns="http://www.w3.org/2000/svg" viewBox="0 0 24 24" width="20" height="20"><path d="M12 5a2 2 0 100 4 2 2 0 000-4zm0 3a1 1 0 110-2 1 1 0 010 2zm0 7a2 2 0 100 4 2 2 0 000-4zm0 3a1 1 0 110-2 1 1 0 010 2zM23 4.5a.5.5 0 00-.5-.5h-4.591a2.65 2.65 0 00-2.561-2H8.652a2.65 2.65 0 00-2.561 2H1.5a.5.5 0 00-.5.5c0 1.862.929 3.505 2.345 4.5H1.5a.5.5 0 00-.5.5c0 1.862.929 3.505 2.345 4.5H1.5a.5.5 0 00-.5.5 5.498 5.498 0 005.084 5.479A2.65 2.65 0 008.652 22h6.696a2.65 2.65 0 002.568-2.021A5.498 5.498 0 0023 14.5a.5.5 0 00-.5-.5h-1.845A5.492 5.492 0 0023 9.5a.5.5 0 00-.5-.5h-1.845A5.492 5.492 0 0023 4.5zM6 18.972A4.5 4.5 0 012.028 15H6v3.972zm0-5A4.5 4.5 0 012.028 10H6v3.972zm0-5A4.5 4.5 0 012.028 5H6v3.972zM17 9.5V19.349A1.654 1.654 0 0115.348 21H8.652A1.654 1.654 0 017 19.348V4.652A1.654 1.654 0 018.652 3h6.696c.912.001 1.651.74 1.652 1.652V9.5zm4.972 5.5A4.5 4.5 0 0118 18.972V15h3.972zm0-5A4.5 4.5 0 0118 13.972V10h3.972zM18 8.972V5h3.972A4.5 4.5 0 0118 8.972zM12 10a2 2 0 100 4 2 2 0 000-4zm0 3a1 1 0 110-2 1 1 0 010 2z"/></svg>