<svg xmlns="http://www.w3.org/2000/svg" viewBox="0 0 24 24" width="20" height="20"><path d="M16.969 20.667l-.962-2.853a.5.5 0 00-.689-.29c-.45.177-.928.278-1.413.296a1.348 1.348 0 01-1.017-.303 1.685 1.685 0 01-.395-1.17V11.5h3.517a.5.5 0 00.5-.5V7.096a.5.5 0 00-.5-.5H12.51V2a.5.5 0 00-.5-.5H9.08a.65.65 0 00-.64.595A5.569 5.569 0 014.83 7.068a.5.5 0 00-.33.471v3.583a.5.5 0 00.5.5h1.524v5.035a5.9 5.9 0 001.739 4.123 6.415 6.415 0 004.624 1.72l.154-.001c1.572-.027 3.38-.677 3.867-1.39a.5.5 0 00.06-.442zm-3.946.832a5.403 5.403 0 01-4.06-1.432 4.882 4.882 0 01-1.439-3.41v-5.535a.5.5 0 00-.499-.5H5.5V7.881A6.57 6.57 0 009.395 2.5h2.114v4.595a.5.5 0 00.5.5h3.5V10.5h-3.516a.5.5 0 00-.5.5v5.356a2.594 2.594 0 00.703 1.883 2.332 2.332 0 001.737.581 5.622 5.622 0 001.289-.205l.7 2.08c-.88.513-1.879.79-2.899.804z"/></svg>