<svg xmlns="http://www.w3.org/2000/svg" viewBox="0 0 24 24" width="20" height="20"><path d="M18 9h-1.5a.5.5 0 000 1H18a2.003 2.003 0 012 2v7a2.003 2.003 0 01-2 2H6a2.003 2.003 0 01-2-2v-7a2.003 2.003 0 012-2h2.5a.5.5 0 000-1H6a3.003 3.003 0 00-3 3v7a3.003 3.003 0 003 3h12a3.003 3.003 0 003-3v-7a3.003 3.003 0 00-3-3zM8.862 6.345L11.5 3.707v13.794a.5.5 0 101 0V3.706l2.638 2.638a.498.498 0 00.707 0 .5.5 0 000-.707l-3.491-3.491a.5.5 0 00-.344-.145L12 2l-.007.001a.498.498 0 00-.347.146l-3.49 3.49a.5.5 0 10.707.707z"/></svg>