<svg xmlns="http://www.w3.org/2000/svg" viewBox="0 0 24 24" width="20" height="20"><path d="M15.375 13.867a5.034 5.034 0 00-1.552-1.13 7.363 7.363 0 003.315-4.627.5.5 0 10-.975-.22 6.362 6.362 0 01-3.68 4.428c-.109-.018-.22-.023-.329-.034V8.002a.487.487 0 00-.026-.129.526.526 0 00-.013-.064.5.5 0 00-.095-.143c-.005-.005-.007-.012-.011-.016a.501.501 0 00-.12-.082c-.014-.008-.025-.02-.039-.026a.513.513 0 00-.103-.021.48.48 0 00-.09-.019l-.655-.002H11a.5.5 0 00-.002 1h.152v5.46c0 .007.004.013.004.02v.998a11.792 11.792 0 01-4.007-7.059.51.51 0 00-.576-.41.5.5 0 00-.41.576 12.838 12.838 0 005.2 8.322c.01.007.022.004.031.01a.486.486 0 00.262.085.492.492 0 00.212-.051l.016-.004c.01-.005.016-.018.026-.024a.49.49 0 00.18-.186.487.487 0 00.066-.235v-2.74a4.06 4.06 0 012.485 1.281l1.647 1.797a.499.499 0 10.736-.676l-1.647-1.797zM15.073 1.5H8.937C3.03 1.5 1.5 3.027 1.5 8.927v6.136c0 5.908 1.527 7.437 7.427 7.437h6.136c5.908 0 7.437-1.527 7.437-7.427V8.937c0-5.908-1.527-7.437-7.427-7.437zM21.5 15.073c0 5.346-1.083 6.427-6.438 6.427H8.928C3.58 21.5 2.5 20.417 2.5 15.062V8.928C2.5 3.58 3.583 2.5 8.938 2.5h6.135c5.346 0 6.427 1.083 6.427 6.438v6.135z"/></svg>