<svg xmlns="http://www.w3.org/2000/svg" viewBox="0 0 24 24" width="20" height="20"><path d="M22.934 3.256a.499.499 0 00-.434-.251l-4.99-.003L17.503 3l-4-.026H13.5a.498.498 0 00-.43.245l-1.072 1.805-1.07-1.78A.498.498 0 0010.505 3l-4-.027H6.5A.48.48 0 006.399 3H1.5a.5.5 0 00-.432.752l10.5 18a.5.5 0 00.864 0l10.5-17.995a.5.5 0 00.002-.501zm-12.718.742l1.355 2.259A.5.5 0 0012 6.5h.001a.5.5 0 00.429-.245l1.353-2.28 2.83.02-3.006 4.917L12 11.54 7.394 3.979l2.822.019zM12 20.508L2.37 4h3.85l5.353 8.76a.493.493 0 00.147.142c.014.01.021.026.035.034a.5.5 0 00.672-.175l5.353-8.759 3.85.002L12 20.508z"/></svg>