<svg xmlns="http://www.w3.org/2000/svg" viewBox="0 0 24 24" width="20" height="20"><path d="M2.5 7h19a.5.5 0 000-1h-19a.5.5 0 000 1zM19 11H2.5a.5.5 0 000 1H19a2 2 0 010 4h-5.074l1.386-1.11a.5.5 0 10-.624-.78l-2.5 2c-.011.008-.02.019-.03.028a.538.538 0 00-.02.02c-.009.01-.02.018-.028.029-.014.018-.019.039-.03.058a.48.48 0 00-.047.09.45.45 0 00-.02.102c-.003.021-.013.04-.013.063 0 .01.005.017.005.026.002.036.012.068.02.102.009.03.015.06.028.087.013.027.033.05.051.076a.49.49 0 00.065.078c.008.006.01.016.019.022l2.5 2a.502.502 0 00.703-.079.5.5 0 00-.078-.703L13.925 17H19a3 3 0 100-6zm-9.5 5h-7a.5.5 0 000 1h7a.5.5 0 000-1z"/></svg>