<?xml version="1.0" encoding="UTF-8" standalone="no"?><!DOCTYPE svg PUBLIC "-//W3C//DTD SVG 1.1//EN" "http://www.w3.org/Graphics/SVG/1.1/DTD/svg11.dtd"><svg width="100%" height="100%" viewBox="0 0 125 125" version="1.1" xmlns="http://www.w3.org/2000/svg" xmlns:xlink="http://www.w3.org/1999/xlink" xml:space="preserve" xmlns:serif="http://www.serif.com/" style="fill-rule:evenodd;clip-rule:evenodd;"><g id="fontawesome"><path d="M107.665,4.774l-90.546,-0c-6.771,0.003 -12.342,5.574 -12.345,12.345l-0,90.546c0.003,6.771 5.574,12.342 12.345,12.345l90.546,0c6.771,-0.003 12.342,-5.574 12.345,-12.345l0,-90.546c-0.003,-6.771 -5.574,-12.342 -12.345,-12.345Z" style="fill:none;fill-rule:nonzero;stroke:#444;stroke-width:9.6px;"/><path d="M101.842,78.376c0,1.281 -1.099,1.824 -2.375,2.376c-5.117,2.193 -10.599,4.204 -16.445,4.204c-8.222,0 -12.057,-5.116 -21.926,-5.116c-7.128,-0 -14.616,2.558 -20.644,5.299c-0.365,0.182 -0.735,0.182 -1.099,0.365l-0,13.886c-0,3.816 -2.876,6.211 -6.029,6.211c-0.016,-0 -0.032,-0 -0.048,-0c-3.381,-0 -6.163,-2.782 -6.163,-6.163c-0,-0.016 -0,-0.032 -0,-0.048l-0,-66.873c-2.512,-1.913 -3.999,-4.887 -4.023,-8.044c0,-5.664 4.57,-10.234 10.234,-10.234c5.664,0 10.233,4.57 10.233,10.234c0,3.288 -1.464,6.211 -4.022,8.04l-0,5.664c0.739,-0.245 10.488,-5.117 20.467,-5.117c11.644,-0 17.423,4.934 22.655,4.934c6.941,0 14.616,-4.934 16.445,-4.934c1.459,-0 2.736,1.094 2.736,2.376l-0,42.935l0.004,0.005Z" style="fill:#444;fill-rule:nonzero;"/></g></svg>