<svg xmlns="http://www.w3.org/2000/svg" viewBox="0 0 256 256" width="20" height="20"><path fill="none" d="M0 0h256v256H0z"/><path fill="none" stroke="#000" stroke-linecap="round" stroke-linejoin="round" stroke-width="8" d="M128 48V24M224 160c-14.6 51-82.2 68.8-94.2 71.6a7.3 7.3 0 01-3.6 0c-12-2.8-79.6-20.6-94.2-71.6v-34.2a8 8 0 015.5-7.6l88-29.4a8.5 8.5 0 015 0l88 29.4a8 8 0 015.5 7.6zM128 168V88.4"/><path d="M56 112V56a8 8 0 018-8h128a8 8 0 018 8v56" fill="none" stroke="#000" stroke-linecap="round" stroke-linejoin="round" stroke-width="8"/></svg>