<svg xmlns="http://www.w3.org/2000/svg" viewBox="0 0 256 256" width="20" height="20"><path fill="none" d="M0 0h256v256H0z"/><path fill="none" stroke="#000" stroke-linecap="round" stroke-linejoin="round" stroke-width="8" d="M128 176V80M88 144a40 40 0 11-40 40v-6.7"/><path d="M168 144a40 40 0 1040 40v-6.7" fill="none" stroke="#000" stroke-linecap="round" stroke-linejoin="round" stroke-width="8"/><path d="M72 180h-8a48 48 0 01-16-93.3V72a40 40 0 0180 0v112M184 180h8a48 48 0 0016-93.3V72a40 40 0 00-80 0" fill="none" stroke="#000" stroke-linecap="round" stroke-linejoin="round" stroke-width="8"/><path d="M88 84v8a28 28 0 01-28 28M168 84v8a28 28 0 0028 28" fill="none" stroke="#000" stroke-linecap="round" stroke-linejoin="round" stroke-width="8"/></svg>