<svg xmlns="http://www.w3.org/2000/svg" viewBox="0 0 256 256" width="20" height="20"><path fill="none" d="M0 0h256v256H0z"/><path fill="none" stroke="#000" stroke-linecap="round" stroke-linejoin="round" stroke-width="8" d="M16 120h224m-16 64v24a8 8 0 01-8 8h-24a8 8 0 01-8-8v-24m-112 0v24a8 8 0 01-8 8H40a8 8 0 01-8-8v-24m32-32h16m96 0h16"/><path d="M224 120l-29.9-67.2a8 8 0 00-7.3-4.8H69.2a8 8 0 00-7.3 4.8L32 120v64h192z" fill="none" stroke="#000" stroke-linecap="round" stroke-linejoin="round" stroke-width="8"/></svg>