<svg xmlns="http://www.w3.org/2000/svg" viewBox="0 0 256 256" width="20" height="20"><path fill="none" d="M0 0h256v256H0z"/><path d="M216 136c0 51.505-74.44 69.174-86.39 71.678a7.808 7.808 0 01-3.22 0C114.44 205.174 40 187.505 40 136V77.603a8 8 0 015.266-7.518l80-29.09a8 8 0 015.468 0l80 29.09A8 8 0 01216 77.603zM88 112h80M88 144h80" fill="none" stroke="#000" stroke-linecap="round" stroke-linejoin="round" stroke-width="8"/><path d="M213.41 152H224a24 24 0 0024-24v-24a24 24 0 00-24-24h-8M42.591 152H32a24 24 0 01-24-24v-24a24 24 0 0124-24h8" fill="none" stroke="#000" stroke-linecap="round" stroke-linejoin="round" stroke-width="8"/></svg>