<svg xmlns="http://www.w3.org/2000/svg" viewBox="0 0 256 256" width="20" height="20"><path fill="none" d="M0 0h256v256H0z"/><path d="M176 128.009a239.296 239.296 0 01-17.934 91.197m5.709-123.2A48 48 0 0080 128.009a143.35 143.35 0 01-17.98 69.732" fill="none" stroke="#000" stroke-linecap="round" stroke-linejoin="round" stroke-width="8"/><path d="M96 37.472a96.067 96.067 0 01128 90.537 288.945 288.945 0 01-7.136 64M23.295 168.01A95.646 95.646 0 0032 128.008a95.76 95.76 0 0132-71.555m46.579 151.556q-3.043 6.628-6.566 12.978m23.975-92.979a192.347 192.347 0 01-6.049 48" fill="none" stroke="#000" stroke-linecap="round" stroke-linejoin="round" stroke-width="8"/></svg>