<svg xmlns="http://www.w3.org/2000/svg" viewBox="0 0 256 256" width="20" height="20"><path fill="none" d="M0 0h256v256H0z"/><path d="M50.7 184.9A127.4 127.4 0 0064 128a64.2 64.2 0 0124-50M128 128a191.2 191.2 0 01-24 93" fill="none" stroke="#000" stroke-linecap="round" stroke-linejoin="round" stroke-width="8"/><path d="M96 128a32 32 0 0164 0 222.3 222.3 0 01-21.3 95.4" fill="none" stroke="#000" stroke-linecap="round" stroke-linejoin="round" stroke-width="8"/><path d="M218.6 184a294.6 294.6 0 005.4-56 96 96 0 00-192 0 94.4 94.4 0 01-5.5 32M92.8 160a161.9 161.9 0 01-18.1 47.9" fill="none" stroke="#000" stroke-linecap="round" stroke-linejoin="round" stroke-width="8"/><path d="M120 64.5a70.1 70.1 0 018-.5 64 64 0 0164 64 260.6 260.6 0 01-2 32M183.9 192c-1.5 5.9-3.2 11.8-5.1 17.5" fill="none" stroke="#000" stroke-linecap="round" stroke-linejoin="round" stroke-width="8"/></svg>