<svg xmlns="http://www.w3.org/2000/svg" viewBox="0 0 256 256" width="20" height="20"><path fill="none" d="M0 0h256v256H0z"/><circle cx="128" cy="128" r="28" fill="none" stroke="#000" stroke-linecap="round" stroke-linejoin="round" stroke-width="8"/><path d="M115 103.2c-7.3-15.4-15-34.6-15-47.2a28 28 0 0156 0c0 12.6-7.7 31.8-15 47.2M100 126.8c-17-1.3-37.5-4.3-48.4-10.6a28 28 0 0128-48.4c10.9 6.2 23.7 22.5 33.4 36.6M113 151.6c-9.7 14.1-22.5 30.4-33.4 36.6a28 28 0 11-28-48.4c10.9-6.3 31.4-9.3 48.4-10.6M141 152.8c7.3 15.4 15 34.6 15 47.2a28 28 0 01-56 0c0-12.6 7.7-31.8 15-47.2M156 129.2c17 1.3 37.5 4.3 48.4 10.6a28 28 0 01-28 48.4c-10.9-6.2-23.7-22.5-33.4-36.6M143 104.4c9.7-14.1 22.5-30.4 33.4-36.6a28 28 0 0128 48.4c-10.9 6.3-31.4 9.3-48.4 10.6" fill="none" stroke="#000" stroke-linecap="round" stroke-linejoin="round" stroke-width="8"/></svg>