<svg xmlns="http://www.w3.org/2000/svg" viewBox="0 0 256 256" width="20" height="20"><path fill="none" d="M0 0h256v256H0z"/><path d="M32 208V64a8 8 0 018-8h53.333a8 8 0 014.8 1.6l27.734 20.8a8 8 0 004.8 1.6H200a8 8 0 018 8v24" fill="none" stroke="#000" stroke-linecap="round" stroke-linejoin="round" stroke-width="8"/><path d="M32 208l29.988-74.971A8 8 0 0169.416 128h48.162a8 8 0 004.437-1.344l19.97-13.312a8 8 0 014.437-1.344h82.479a8 8 0 017.59 10.53L208 208z" fill="none" stroke="#000" stroke-linecap="round" stroke-linejoin="round" stroke-width="8"/></svg>