<svg xmlns="http://www.w3.org/2000/svg" viewBox="0 0 256 256" width="20" height="20"><path fill="none" d="M0 0h256v256H0z"/><path fill="none" stroke="#000" stroke-linecap="round" stroke-linejoin="round" stroke-width="8" d="M152 108h32m-112 0h32M88 92v32m84.018-68.26L84.004 56a52.015 52.015 0 00-51.218 42.969l.008.001-16.364 84.163a28.002 28.002 0 0047.375 24.663l-.001-.002L107.039 160l64.98-.26a52 52 0 000-104z"/><path d="M223.228 98.71l16.351 84.423a28.002 28.002 0 01-47.375 24.663l.002-.002L149 159.832" fill="none" stroke="#000" stroke-linecap="round" stroke-linejoin="round" stroke-width="8"/></svg>