<svg xmlns="http://www.w3.org/2000/svg" viewBox="0 0 256 256" width="20" height="20"><path fill="none" d="M0 0h256v256H0z"/><rect x="32" y="80" width="192" height="48" rx="8" fill="none" stroke="#000" stroke-linecap="round" stroke-linejoin="round" stroke-width="8"/><path d="M208 128v72a8 8 0 01-8 8H56a8 8 0 01-8-8v-72M128 80v128M173.3 68.7C161.9 80 128 80 128 80s0-33.9 11.3-45.3a24 24 0 0134 34zM82.7 68.7C94.1 80 128 80 128 80s0-33.9-11.3-45.3a24 24 0 00-34 34z" fill="none" stroke="#000" stroke-linecap="round" stroke-linejoin="round" stroke-width="8"/></svg>