<svg xmlns="http://www.w3.org/2000/svg" viewBox="0 0 256 256" width="20" height="20"><path fill="none" d="M0 0h256v256H0z"/><circle cx="128" cy="128" r="96" fill="none" stroke="#000" stroke-linecap="round" stroke-linejoin="round" stroke-width="8"/><path d="M49.6 183.4l11.7-7.1a8 8 0 003.8-6.8l.2-36.1a7.7 7.7 0 011.3-4.2l19.8-31.1a8.1 8.1 0 0111.5-2.2l19.6 14.2a8.6 8.6 0 005.8 1.5l31.5-4.3a7.8 7.8 0 004.9-2.7L181.9 79a8.1 8.1 0 001.9-5.6l-1.1-24.3M187.1 203.7l-10.8-10.8a8.2 8.2 0 00-3.6-2.1l-21.5-5.6a8 8 0 01-5.8-8.9l2.3-16.2a8.2 8.2 0 014.9-6.2l30.4-12.7a8 8 0 018.5 1.5l24.9 22.8" fill="none" stroke="#000" stroke-linecap="round" stroke-linejoin="round" stroke-width="8"/></svg>