<svg xmlns="http://www.w3.org/2000/svg" viewBox="0 0 256 256" width="20" height="20"><path fill="none" d="M0 0h256v256H0z"/><circle cx="127.999" cy="128" r="96" fill="none" stroke="#000" stroke-linecap="round" stroke-linejoin="round" stroke-width="8"/><path d="M49.585 183.394l11.678-7.05a8 8 0 003.866-6.803l.202-36.13a8 8 0 011.256-4.258L86.43 98.056a8 8 0 0111.438-2.176l19.655 14.241a8 8 0 005.768 1.45l31.48-4.264a8 8 0 004.975-2.692l22.158-25.601a8 8 0 001.941-5.62l-1.168-24.303m4.389 154.592l-10.732-10.753a8 8 0 00-3.632-2.087l-21.458-5.631a8 8 0 01-5.884-8.903l2.385-16.197a8 8 0 014.844-6.221l30.45-12.657a8 8 0 018.47 1.484l24.894 22.768" fill="none" stroke="#000" stroke-linecap="round" stroke-linejoin="round" stroke-width="8"/></svg>