<svg xmlns="http://www.w3.org/2000/svg" viewBox="0 0 256 256" width="20" height="20"><path fill="none" d="M0 0h256v256H0z"/><path d="M240.718 121.785L216 134.144l-32-61.282 24.97-12.485a8 8 0 0110.668 3.452l24.593 47.097a8 8 0 01-3.513 10.859zM40 133.072l-24.718-12.359a8 8 0 01-3.513-10.858l24.593-47.097a8 8 0 0110.669-3.453L72 71.79zM216 134.144l-16 18.718-36.797 36.797a8 8 0 01-7.597 2.104l-57.957-14.49a8 8 0 01-2.988-1.458L40 133.072" fill="none" stroke="#000" stroke-linecap="round" stroke-linejoin="round" stroke-width="8"/><path d="M200 152.862l-44-32-12.8 9.6a32 32 0 01-38.4 0l-5.42-4.066a8 8 0 01-.858-12.057l39.135-39.134a8 8 0 015.657-2.343H184" fill="none" stroke="#000" stroke-linecap="round" stroke-linejoin="round" stroke-width="8"/><path d="M72.574 71.79l51.32-14.962a8 8 0 015.537.392L164 72.862M112 212.862l-30.14-7.535a8 8 0 01-3.307-1.724L56 184" fill="none" stroke="#000" stroke-linecap="round" stroke-linejoin="round" stroke-width="8"/></svg>