<svg xmlns="http://www.w3.org/2000/svg" viewBox="0 0 256 256" width="20" height="20"><path fill="none" d="M0 0h256v256H0z"/><path d="M51.8 121.9a18 18 0 10-31.2 18l37 64.1a72 72 0 00124.7-72l-17-29.5a18 18 0 00-31.1 18" fill="none" stroke="#000" stroke-linecap="round" stroke-linejoin="round" stroke-width="8"/><path d="M107 145.5L69 79.7a18 18 0 10-31.2 18l38 65.8M150.2 148.3l-42-72.8a18 18 0 10-31.2 18" fill="none" stroke="#000" stroke-linecap="round" stroke-linejoin="round" stroke-width="8"/><path d="M99 67.7L88.7 49.8a18 18 0 10-31.2 18l2.4 4.1M188 191.5a72.1 72.1 0 0014.1-89.4l-17-29.4a18 18 0 10-31.2 18" fill="none" stroke="#000" stroke-linecap="round" stroke-linejoin="round" stroke-width="8"/><path d="M156.2 94.7l-28.3-49a18 18 0 10-31.2 18M176.8 11.3l-4.1 15.4M207.1 25.4l-9.2 13.1M230.6 48.9l-13.1 9.2" fill="none" stroke="#000" stroke-linecap="round" stroke-linejoin="round" stroke-width="8"/></svg>