<svg xmlns="http://www.w3.org/2000/svg" viewBox="0 0 256 256" width="20" height="20"><path fill="none" d="M0 0h256v256H0z"/><rect x="32" y="72" width="120" height="112" rx="8" fill="none" stroke="#000" stroke-linecap="round" stroke-linejoin="round" stroke-width="8"/><path d="M152 88h32a8 8 0 018 8v72a56 56 0 01-56 56h0a56.1 56.1 0 01-53.7-40m27.7-80H74m18 48v-48m16.3-32A32 32 0 11152 83.7m14.1-38.5a26 26 0 11-3.4 28.4" fill="none" stroke="#000" stroke-linecap="round" stroke-linejoin="round" stroke-width="8"/><path d="M192 88h27.3a4.7 4.7 0 014.7 4.7V152a32 32 0 01-32 32h-2.3" fill="none" stroke="#000" stroke-linecap="round" stroke-linejoin="round" stroke-width="8"/></svg>