<svg xmlns="http://www.w3.org/2000/svg" viewBox="0 0 256 256" width="20" height="20"><path fill="none" d="M0 0h256v256H0z"/><path fill="none" stroke="#000" stroke-linecap="round" stroke-linejoin="round" stroke-width="8" d="M88 168l-40 40M48 40l160 176M93.714 90.286L92 92s-27.744-13.872-57.399 10.05a8.014 8.014 0 00-.648 11.903l107.896 107.896a7.993 7.993 0 0012.04-.831c7.603-10.106 19.136-29.873 12.719-50.55M184.939 143.061l41.404-41.404a8 8 0 000-11.314l-60.686-60.686a8 8 0 00-11.314 0l-37.976 37.976"/></svg>