<svg xmlns="http://www.w3.org/2000/svg" viewBox="0 0 256 256" width="20" height="20"><path fill="none" d="M0 0h256v256H0z"/><circle cx="128" cy="120" r="40" fill="none" stroke="#000" stroke-linecap="round" stroke-linejoin="round" stroke-width="8"/><path d="M63.8 199.4a72 72 0 01128.4 0" fill="none" stroke="#000" stroke-linecap="round" stroke-linejoin="round" stroke-width="8"/><circle cx="200" cy="56" r="16" fill="none" stroke="#000" stroke-linecap="round" stroke-linejoin="round" stroke-width="8"/><path fill="none" stroke="#000" stroke-linecap="round" stroke-linejoin="round" stroke-width="8" d="M200 40V28M186.1 48l-10.3-6M186.1 64l-10.3 6M200 72v12M213.9 64l10.3 6M213.9 48l10.3-6M223.3 116.5a87.7 87.7 0 01.7 11.5 96 96 0 11-96-96 87 87 0 018.9.4"/></svg>