<svg xmlns="http://www.w3.org/2000/svg" viewBox="0 0 256 256" width="20" height="20"><path fill="none" d="M0 0h256v256H0z"/><path fill="none" stroke="#000" stroke-linecap="round" stroke-linejoin="round" stroke-width="8" d="M128 80v56M164.45 32h-72.9a8 8 0 00-5.658 2.343l-51.549 51.55A8 8 0 0032 91.548v72.902a8 8 0 002.343 5.657l51.55 51.549A8 8 0 0091.548 224h72.902a8 8 0 005.657-2.343l51.549-51.55a8 8 0 002.343-5.656V91.549a8 8 0 00-2.343-5.657l-51.55-51.549A8 8 0 00164.452 32z"/><circle cx="128" cy="172" r="8"/></svg>