<svg xmlns="http://www.w3.org/2000/svg" viewBox="0 0 256 256" width="20" height="20"><path fill="none" d="M0 0h256v256H0z"/><path d="M45.429 176.998a95.96 95.96 0 1133.574 33.574v-.001l-33.157 9.473a8 8 0 01-9.89-9.89l9.474-33.157z" fill="none" stroke="#000" stroke-linecap="round" stroke-linejoin="round" stroke-width="8"/><path d="M152.114 184A80 80 0 0172 103.886 27.976 27.976 0 01100 76h0a6.893 6.893 0 015.985 3.473l11.69 20.46a8 8 0 01-.085 8.084l-9.39 15.649h0a48.182 48.182 0 0024.134 24.134h0l15.649-9.39a8 8 0 018.085-.085l20.459 11.69A6.893 6.893 0 01180 156v0a28.081 28.081 0 01-27.886 28z" fill="none" stroke="#000" stroke-linecap="round" stroke-linejoin="round" stroke-width="8"/></svg>