<svg xmlns="http://www.w3.org/2000/svg" viewBox="0 0 256 256" width="20" height="20"><path fill="none" d="M0 0h256v256H0z"/><path fill="none" stroke="#000" stroke-linecap="round" stroke-linejoin="round" stroke-width="8" d="M160 128l-48-32v64l48-32z"/><path d="M24 128c0 29.755 3.074 47.214 5.411 56.187a15.917 15.917 0 009.633 10.894C72.52 207.946 128 207.593 128 207.593s55.479.353 88.956-12.512a15.917 15.917 0 009.633-10.894C228.926 175.214 232 157.756 232 128s-3.074-47.214-5.411-56.187a15.917 15.917 0 00-9.633-10.894C183.48 48.054 128 48.408 128 48.408s-55.479-.354-88.956 12.51a15.917 15.917 0 00-9.633 10.895C27.074 80.786 24 98.244 24 128z" fill="none" stroke="#000" stroke-linecap="round" stroke-linejoin="round" stroke-width="8"/></svg>