<svg xmlns="http://www.w3.org/2000/svg" viewBox="0 0 512 512" width="20" height="20"><path fill="var(--ci-primary-color, currentColor)" d="M262.254 128h103.463l67.933 64H496v-32h-49.65l-67.934-64H120.829a25.235 25.235 0 00-18.177 7.786l-61.285 64.361L16.093 168l-.186 32 39.1.227L123.782 128H217l-74.341 74.333a58.153 58.153 0 0082.237 82.245l24.065-24.062 95.413 95.414-19.244 20.194a11.337 11.337 0 01-16.224.195l-54.16-54.16-22.627 22.628 39.988 39.987-18.649 19.057a11.335 11.335 0 01-16.118.086L182.916 349.5l-22.627 22.628 24.67 24.669-14.786 15.656a11.338 11.338 0 01-16.219.271L70.71 328H16v32h41.29l73.9 75.208.1.1A42.978 42.978 0 00161.911 448h.639a42.994 42.994 0 0030.887-13.576l14.163-14.996 7.117 7.117a43.021 43.021 0 0030.636 12.693h.24a43.029 43.029 0 0030.739-13.025l19.572-20a43.009 43.009 0 0021.006 5.427h.539A43 43 0 00348.3 398.2l20.382-21.39h62.044l40-40.809H496V304h-38.722l-40 40.809H378.5L271.586 237.89l30.695-30.69-22.627-22.63-77.388 77.379a26.153 26.153 0 01-36.983-36.988z"/></svg>