<svg xmlns="http://www.w3.org/2000/svg" viewBox="0 0 256 256" width="20" height="20"><path fill="none" d="M0 0h256v256H0z"/><path d="M240.2 136v32a7.8 7.8 0 01-2.9 6.2 7.9 7.9 0 01-6.6 1.6l-70.5-14v26.9l13.5 13.7a7.9 7.9 0 012.3 5.6v24a7.9 7.9 0 01-3.5 6.6 8.2 8.2 0 01-4.5 1.4 8 8 0 01-3-.6l-37-14.8-37 14.8a8 8 0 01-7.5-.8A7.9 7.9 0 0180 232v-24a8.1 8.1 0 012.3-5.7L96 188.7v-26.9l-70.4 14A7.9 7.9 0 0116 168v-32a8.2 8.2 0 014.4-7.2L96 91V48a32 32 0 0164 0v43l75.6 37.8a8.2 8.2 0 014.6 7.2z"/></svg>