<svg xmlns="http://www.w3.org/2000/svg" viewBox="0 0 256 256" width="20" height="20"><path fill="none" d="M0 0h256v256H0z"/><path d="M248 216a8 8 0 01-8 8H96a8 8 0 010-16h144a8 8 0 018 8zm-24-28a4.1 4.1 0 002.4-.8 4 4 0 001.6-3.2v-35.7a36.1 36.1 0 00-26.4-34.7l-46.9-13L123.5 46a4.3 4.3 0 00-2.2-1.8l-13.5-4.5A11.9 11.9 0 0097 41.4a11.6 11.6 0 00-5 9.7v31.5l-25.2-7.9-15.3-28.6a4.1 4.1 0 00-2.2-1.9l-13.5-4.5A11.9 11.9 0 0025 41.4a11.6 11.6 0 00-5 9.7v52.6a36.1 36.1 0 0026.3 34.7l176.6 49.5z"/></svg>