<svg xmlns="http://www.w3.org/2000/svg" viewBox="0 0 256 256" width="20" height="20"><path fill="none" d="M0 0h256v256H0z"/><path d="M232 128A104.1 104.1 0 00128 24 104.1 104.1 0 0024 128a104.1 104.1 0 00104 104h.1A104.1 104.1 0 00232 128zM49.2 88.9l51.2 9.4-53.7 63.2a88 88 0 012.5-72.6zm160.1 5.6a88 88 0 01-2.5 72.6l-51.2-9.4zm-8-15.2L167.6 119l-28-78.2a86.8 86.8 0 0150.6 25 88.5 88.5 0 0111.1 13.5zm-78.9-39.1l17.5 49-81.6-14.9a99.2 99.2 0 017.5-8.5 87.1 87.1 0 0156.6-25.6zM54.7 176.7L88.4 137l28 78.2a86.8 86.8 0 01-50.6-25 88.5 88.5 0 01-11.1-13.5zm78.9 39.1l-17.5-49 23 4.2h.1l58.5 10.7a99.2 99.2 0 01-7.5 8.5 87.1 87.1 0 01-56.6 25.6z"/></svg>