<svg xmlns="http://www.w3.org/2000/svg" viewBox="0 0 256 256" width="20" height="20"><path fill="none" d="M0 0h256v256H0z"/><path d="M216 48v40a8 8 0 01-4.9 7.4 8.5 8.5 0 01-3.1.6 8.3 8.3 0 01-5.7-2.3L188 79.3l-30.3 30.4a8.2 8.2 0 01-11.4 0 8.1 8.1 0 010-11.4L176.7 68l-14.4-14.3a8.4 8.4 0 01-1.7-8.8A8 8 0 01168 40h40a8 8 0 018 8zM98.3 146.3L68 176.7l-14.3-14.4a8.4 8.4 0 00-8.8-1.7A8 8 0 0040 168v40a8 8 0 008 8h40a8 8 0 007.4-4.9 8.4 8.4 0 00-1.7-8.8L79.3 188l30.4-30.3a8.1 8.1 0 00-11.4-11.4zm112.8 14.3a8.4 8.4 0 00-8.8 1.7L188 176.7l-30.3-30.4a8.1 8.1 0 00-11.4 11.4l30.4 30.3-14.4 14.3a8.4 8.4 0 00-1.7 8.8 8 8 0 007.4 4.9h40a8 8 0 008-8v-40a8 8 0 00-4.9-7.4zM79.3 68l14.4-14.3a8.4 8.4 0 001.7-8.8A8 8 0 0088 40H48a8 8 0 00-8 8v40a8 8 0 004.9 7.4 8.5 8.5 0 003.1.6 8.3 8.3 0 005.7-2.3L68 79.3l30.3 30.4a8.2 8.2 0 0011.4 0 8.1 8.1 0 000-11.4z"/></svg>