<svg xmlns="http://www.w3.org/2000/svg" viewBox="0 0 256 256" width="20" height="20"><path fill="none" d="M0 0h256v256H0z"/><path d="M144 104V64a8 8 0 014.9-7.4 8.4 8.4 0 018.8 1.7L172 72.7l30.3-30.4a8.1 8.1 0 0111.4 11.4L183.3 84l14.4 14.3a8.4 8.4 0 011.7 8.8 8 8 0 01-7.4 4.9h-40a8 8 0 01-8-8zm-40 40H64a8 8 0 00-7.4 4.9 8.4 8.4 0 001.7 8.8L72.7 172l-30.4 30.3a8.1 8.1 0 000 11.4 8.2 8.2 0 0011.4 0L84 183.3l14.3 14.4a8.3 8.3 0 005.7 2.3 8.5 8.5 0 003.1-.6 8 8 0 004.9-7.4v-40a8 8 0 00-8-8zm79.3 28l14.4-14.3a8.4 8.4 0 001.7-8.8 8 8 0 00-7.4-4.9h-40a8 8 0 00-8 8v40a8 8 0 004.9 7.4 8.5 8.5 0 003.1.6 8.3 8.3 0 005.7-2.3l14.3-14.4 30.3 30.4a8.2 8.2 0 0011.4 0 8.1 8.1 0 000-11.4zM107.1 56.6a8.4 8.4 0 00-8.8 1.7L84 72.7 53.7 42.3a8.1 8.1 0 00-11.4 11.4L72.7 84 58.3 98.3a8.4 8.4 0 00-1.7 8.8A8 8 0 0064 112h40a8 8 0 008-8V64a8 8 0 00-4.9-7.4z"/></svg>