<svg xmlns="http://www.w3.org/2000/svg" viewBox="0 0 256 256" width="20" height="20"><path fill="none" d="M0 0h256v256H0z"/><path d="M136 40v176a8 8 0 01-16 0V40a8 8 0 0116 0zm-40 80H56V96a8 8 0 00-4.9-7.4 8.4 8.4 0 00-8.8 1.7l-32 32a8.1 8.1 0 000 11.4l32 32A8.3 8.3 0 0048 168a8.5 8.5 0 003.1-.6A8 8 0 0056 160v-24h40a8 8 0 000-16zm149.7 2.3l-32-32a8.4 8.4 0 00-8.8-1.7A8 8 0 00200 96v24h-40a8 8 0 000 16h40v24a8 8 0 004.9 7.4 8.5 8.5 0 003.1.6 8.3 8.3 0 005.7-2.3l32-32a8.1 8.1 0 000-11.4z"/></svg>