<svg xmlns="http://www.w3.org/2000/svg" viewBox="0 0 256 256" width="20" height="20"><path fill="none" d="M0 0h256v256H0z"/><path d="M163.7 200.7a8.1 8.1 0 01-1.8 8.7l-28.2 28.3a8.2 8.2 0 01-11.4 0l-28.2-28.3a8 8 0 015.6-13.7H120V160a8 8 0 0116 0v35.7h20.3a8.2 8.2 0 017.4 5zm-64-140.4H120V96a8 8 0 0016 0V60.3h20.3a8 8 0 005.6-13.7l-28.2-28.3a8.2 8.2 0 00-11.4 0L94.1 46.6a8 8 0 005.6 13.7zM96 136a8 8 0 000-16H60.3V99.7a8 8 0 00-13.7-5.6l-28.3 28.2a8.1 8.1 0 000 11.4l28.3 28.2a8 8 0 005.7 2.4 7.7 7.7 0 003-.6 8.2 8.2 0 005-7.4V136zm141.7-13.7l-28.3-28.2a8 8 0 00-13.7 5.6V120H160a8 8 0 000 16h35.7v20.3a8.2 8.2 0 005 7.4 7.7 7.7 0 003 .6 8 8 0 005.7-2.4l28.3-28.2a8.1 8.1 0 000-11.4z"/></svg>