<svg xmlns="http://www.w3.org/2000/svg" viewBox="0 0 256 256" width="20" height="20"><path fill="none" d="M0 0h256v256H0z"/><path d="M79.8 107.7h-48a8 8 0 01-8-8v-48a8.2 8.2 0 015-7.4 8 8 0 018.7 1.8l18.3 18.3 4.3-4.3a96.2 96.2 0 01135.8 0 8 8 0 010 11.3 7.9 7.9 0 01-11.3 0 80.2 80.2 0 00-113.2 0l-4.3 4.3 18.4 18.4a8 8 0 01-5.7 13.6zm144.4 40.6h-48a8 8 0 00-5.7 13.6l18.4 18.4-4.3 4.3a80.2 80.2 0 01-113.2 0 7.9 7.9 0 00-11.3 0 8 8 0 000 11.3 96.1 96.1 0 00135.8 0l4.3-4.3 18.3 18.3a7.8 7.8 0 005.7 2.4 8 8 0 003-.6 8.2 8.2 0 005-7.4v-48a8 8 0 00-8-8z"/></svg>