<svg xmlns="http://www.w3.org/2000/svg" viewBox="0 0 256 256" width="20" height="20"><path fill="none" d="M0 0h256v256H0z"/><path d="M152 104a8 8 0 018-8h80a8 8 0 010 16h-80a8 8 0 01-8-8zm88 24h-80a8 8 0 000 16h80a8 8 0 000-16zm0 32h-80a8 8 0 000 16h80a8 8 0 000-16zm0 32H72a8 8 0 000 16h168a8 8 0 000-16zM79.9 176a55.9 55.9 0 01-49.5-82.1A28 28 0 0147.9 44a8.2 8.2 0 014.3 1.2L114 83.8a12 12 0 00-2.1-23.8 8 8 0 010-16 28 28 0 010 56 7.9 7.9 0 01-4.2-1.2l-30-18.7a40 40 0 00-5.8 79.1v-44.7a8 8 0 018-8 8 8 0 018 8v44.7a40 40 0 0030.9-29.5 7.9 7.9 0 019.6-5.8 8 8 0 015.9 9.6A56 56 0 0179.9 176zm-40-95.1a56.3 56.3 0 0118.8-12.7l-12.8-8a12 12 0 00-10 11.8 11.8 11.8 0 004 8.9z"/></svg>