<svg xmlns="http://www.w3.org/2000/svg" viewBox="0 0 256 256" width="20" height="20"><path fill="none" d="M0 0h256v256H0z"/><path d="M134.2 24.2a3.9 3.9 0 00-3.6 1.8C120.3 41.6 120 55.9 120 56a7.9 7.9 0 009.7 7.8c3.7-.7 6.2-4.2 6.3-8a8.1 8.1 0 018.8-7.8 8.2 8.2 0 017.2 8.3 24 24 0 01-48-.3c0-.6.1-10.8 5.4-24a4 4 0 00-4.6-5.4 104.1 104.1 0 00-80.7 105.1C26 186.8 71.2 231.1 126.3 232a104 104 0 007.9-207.8zM80 128a12 12 0 1112 12 12 12 0 01-12-12zm79 46.7a56.3 56.3 0 01-62 0 8.1 8.1 0 01-2.2-11.1 8 8 0 0111.1-2.3 39.8 39.8 0 0044.2 0 8 8 0 0111.1 2.3 8.1 8.1 0 01-2.2 11.1zm5-34.7a12 12 0 1112-12 12 12 0 01-12 12z"/></svg>