<svg xmlns="http://www.w3.org/2000/svg" viewBox="0 0 256 256" width="20" height="20"><path fill="none" d="M0 0h256v256H0z"/><path d="M224 40h-40a8 8 0 000 16h32v32a8 8 0 0016 0V48a8 8 0 00-8-8zM72 200H40v-32a8 8 0 00-16 0v40a8 8 0 008 8h40a8 8 0 000-16zm152-40a8 8 0 00-8 8v32h-32a8 8 0 000 16h40a8 8 0 008-8v-40a8 8 0 00-8-8zM32 96a8 8 0 008-8V56h32a8 8 0 000-16H32a8 8 0 00-8 8v40a8 8 0 008 8zm48-16a8 8 0 00-8 8v80a8 8 0 0016 0V88a8 8 0 00-8-8zm104 88V88a8 8 0 00-16 0v80a8 8 0 0016 0zm-40-88a8 8 0 00-8 8v80a8 8 0 0016 0V88a8 8 0 00-8-8zm-32 0a8 8 0 00-8 8v80a8 8 0 0016 0V88a8 8 0 00-8-8z"/></svg>