<svg xmlns="http://www.w3.org/2000/svg" viewBox="0 0 256 256" width="20" height="20"><path fill="none" d="M0 0h256v256H0z"/><path d="M51.9 63.9a4 4 0 00-6 .3 103.9 103.9 0 000 127.6 4 4 0 006 .3l7.3-7.3a8 8 0 016.2-2.8 7.9 7.9 0 015.2 2 8.2 8.2 0 01.6 11.4 99.9 99.9 0 01-7.8 8.2 3.9 3.9 0 00.2 6 103.8 103.8 0 00128.8 0 3.9 3.9 0 00.2-6 103.3 103.3 0 01-7.9-8.3 8 8 0 1112.1-10.5l7.3 7.3a4 4 0 006-.3 103.9 103.9 0 000-127.6 4 4 0 00-6-.3l-7.3 7.3a8.1 8.1 0 01-6.1 2.8 7.6 7.6 0 01-5.3-2 8.2 8.2 0 01-.6-11.4 99.9 99.9 0 017.8-8.2 3.9 3.9 0 00-.2-6 103.8 103.8 0 00-128.8 0 3.9 3.9 0 00-.2 6 99.9 99.9 0 017.8 8.2A8 8 0 0165.3 74a8.1 8.1 0 01-6.1-2.8zm27.3 24.3a9.6 9.6 0 012.8-.7 8.1 8.1 0 017.9 5.3 105.7 105.7 0 014.4 16.5 8 8 0 01-5.9 9.4 6.3 6.3 0 01-1.9.3 8 8 0 01-7.9-6.6 83.8 83.8 0 00-3.7-13.9c-1.4-4 .3-8.7 4.3-10.3zm15.1 58.5a105.7 105.7 0 01-4.4 16.5 8.1 8.1 0 01-7.6 5.3 7 7 0 01-3.1-.7 8.2 8.2 0 01-4.3-10.3 83.8 83.8 0 003.7-13.9 8.1 8.1 0 017.7-6.6l2 .2a8.2 8.2 0 016 9.5zm82.5 21.1a7 7 0 01-3.1.7 8.1 8.1 0 01-7.6-5.3 105.7 105.7 0 01-4.4-16.5 8.2 8.2 0 015.4-9.3 8.1 8.1 0 0110.3 6.2 83.8 83.8 0 003.7 13.9 8.2 8.2 0 01-4.3 10.3zm3.6-68a23.6 23.6 0 00-2.9 11.4 8 8 0 01-8 7.8l-1.4-.2c-4.3-.7-7.2-5.3-6.4-9.6a109 109 0 014.3-16.1 8.3 8.3 0 019.8-5.3 8 8 0 014.6 12z"/></svg>