<svg xmlns="http://www.w3.org/2000/svg" viewBox="0 0 256 256" width="20" height="20"><path fill="none" d="M0 0h256v256H0z"/><path d="M63.6 46.4a104.3 104.3 0 0152-21.7 4 4 0 014.4 4V120H95.7a104.1 104.1 0 00-32.3-67.6 3.9 3.9 0 01.2-6zM46 64.1a104.8 104.8 0 00-21.3 51.4 4.1 4.1 0 004 4.5h50.9a88 88 0 00-27.7-56.4 4 4 0 00-5.9.5zm146.4-17.7a104.3 104.3 0 00-52-21.7 4 4 0 00-4.4 4V120h24.3a104.1 104.1 0 0132.3-67.6 3.9 3.9 0 00-.2-6zm38.9 69.1A104.8 104.8 0 00210 64.1a4 4 0 00-5.9-.5 88 88 0 00-27.7 56.4h50.9a4.1 4.1 0 004-4.5zm-206.6 25A104.8 104.8 0 0046 191.9a4 4 0 005.9.5A88 88 0 0079.6 136H28.7a4.1 4.1 0 00-4 4.5zM210 191.9a104.8 104.8 0 0021.3-51.4 4.1 4.1 0 00-4-4.5h-50.9a88 88 0 0027.7 56.4 4 4 0 005.9-.5zM63.6 209.6a104.3 104.3 0 0052 21.7 4 4 0 004.4-4V136H95.7a104.1 104.1 0 01-32.3 67.6 3.9 3.9 0 00.2 6zm96.7-73.6H136v91.3a4 4 0 004.4 4 104.3 104.3 0 0052-21.7 3.9 3.9 0 00.2-6 104.1 104.1 0 01-32.3-67.6z"/></svg>