<svg xmlns="http://www.w3.org/2000/svg" viewBox="0 0 256 256" width="20" height="20"><path fill="none" d="M0 0h256v256H0z"/><path d="M245.7 42.3l-32-32a8.1 8.1 0 00-11.4 11.4l1.5 1.4-55.1 41.4-38.3 7.7a8.5 8.5 0 00-4.1 2.1l-16 16-56 56L21.7 159a23.9 23.9 0 000 34L63 234.3a23.9 23.9 0 0034 0l12.7-12.6 56-56 16-16a8.5 8.5 0 002.1-4.1l7.7-38.3 41.4-55.1 1.4 1.5a8.2 8.2 0 0011.4 0 8.1 8.1 0 000-11.4zM74.3 223L33 181.7a8 8 0 010-11.4l7-7L92.7 216l-7 7a8.1 8.1 0 01-11.4 0zM177.6 99.2a8.3 8.3 0 00-1.4 3.2l-7.6 37.7-8.6 8.6L107.3 96l8.6-8.6 37.7-7.6a8.3 8.3 0 003.2-1.4l58.4-43.8 6.2 6.2z"/></svg>