<svg xmlns="http://www.w3.org/2000/svg" viewBox="0 0 256 256" width="20" height="20"><path fill="none" d="M0 0h256v256H0z"/><path d="M207.8 112a79.7 79.7 0 00-79.2-80h-.6a79.9 79.9 0 00-79.8 80c0 34.3-7.1 53.7-13 63.9a16.2 16.2 0 00-.1 16.1 15.9 15.9 0 0013.9 8h39a40 40 0 0080 0h39a15.9 15.9 0 0013.9-8 16.2 16.2 0 00-.1-16.1c-5.9-10.2-13-29.6-13-63.9zM128 224a24.1 24.1 0 01-24-24h48a24.1 24.1 0 01-24 24zm96.9-150.7a9.3 9.3 0 01-3.5.8 7.9 7.9 0 01-7.2-4.5 97 97 0 00-35-38.8 8 8 0 018.5-13.6 111.7 111.7 0 0140.8 45.4 8 8 0 01-3.6 10.7zm-190.3.8a9.3 9.3 0 01-3.5-.8 8 8 0 01-3.6-10.7 111.7 111.7 0 0140.8-45.4 8 8 0 018.5 13.6 97 97 0 00-35 38.8 7.9 7.9 0 01-7.2 4.5z"/></svg>