<svg xmlns="http://www.w3.org/2000/svg" viewBox="0 0 256 256" width="20" height="20"><path fill="none" d="M0 0h256v256H0z"/><path d="M168 224a8 8 0 01-8 8H96a8 8 0 010-16h64a8 8 0 018 8zm52.9-32a15.9 15.9 0 01-13.9 8H49a15.9 15.9 0 01-13.9-8 16.2 16.2 0 01.1-16.1c5.9-10.2 13-29.6 13-63.9v-8A79.9 79.9 0 01128 24h.6c43.7.3 79.2 36.6 79.2 80.9v7.1c0 34.3 7.1 53.7 13 63.9a16.2 16.2 0 01.1 16.1zM156 144a8 8 0 00-8-8h-22.9l29-34.9a7.8 7.8 0 001.1-8.5A7.9 7.9 0 00148 88h-40a8 8 0 000 16h22.9l-29 34.9a7.8 7.8 0 00-1.1 8.5 7.9 7.9 0 007.2 4.6h40a8 8 0 008-8z"/></svg>