<svg xmlns="http://www.w3.org/2000/svg" viewBox="0 0 256 256" width="20" height="20"><path fill="none" d="M0 0h256v256H0z"/><path d="M213.9 210.6a7.9 7.9 0 01-.5 11.3 8.2 8.2 0 01-5.4 2.1 8 8 0 01-5.9-2.6L182.6 200H49a16 16 0 01-13.8-24.1c5.9-10.2 13-29.6 13-63.9v-8a80.2 80.2 0 0110.7-40.1L42.1 45.4a8 8 0 0111.8-10.8zM160 216H96a8 8 0 000 16h64a8 8 0 000-16zm42.9-41.3a8 8 0 005.9 2.6 7.9 7.9 0 004.2-1.2 8 8 0 003.3-9.7c-5.6-14.2-8.5-32.6-8.5-54.4v-7.1c0-44.3-35.5-80.6-79.2-80.9a80.2 80.2 0 00-40.1 10.4 8 8 0 00-3.9 5.7 8.2 8.2 0 002 6.7z"/></svg>