<svg xmlns="http://www.w3.org/2000/svg" viewBox="0 0 256 256" width="20" height="20"><path fill="none" d="M0 0h256v256H0z"/><path d="M256 160a48 48 0 11-78.7-36.8l23.8 40.8a8 8 0 1013.8-8l-23.8-40.9A47 47 0 01208 112a48 48 0 0148 48zm-208 8a8.2 8.2 0 01-4.7-1.5 8 8 0 01-1.8-11.2l27.9-38.2A46.6 46.6 0 0048 112a48.1 48.1 0 1034.3 14.5l-27.8 38.2A7.9 7.9 0 0148 168zm117.9-96H192a8 8 0 018 8 8 8 0 0016 0 24.1 24.1 0 00-24-24h-40a7.8 7.8 0 00-6.9 4 7.7 7.7 0 000 8l11.6 20H99.3L82.9 60a7.9 7.9 0 00-6.9-4H48a8 8 0 000 16h23.4l13.7 23.5-15.7 21.6a48.1 48.1 0 0112.9 9.4l11.6-15.9 31.2 53.4a8 8 0 1013.8-8l-30.3-52h57.5l11.2 19.2a46.5 46.5 0 0113.8-8.1z"/></svg>