<svg xmlns="http://www.w3.org/2000/svg" viewBox="0 0 256 256" width="20" height="20"><path fill="none" d="M0 0h256v256H0z"/><path d="M237.2 151.9c0-.1-.1-.1-.1-.2a42.3 42.3 0 00-2.3-5.3l-41.5-94.6a8.1 8.1 0 00-1.7-2.4 32 32 0 00-45.3 0A7.9 7.9 0 00144 55v29h-32V55a7.9 7.9 0 00-2.3-5.6 32 32 0 00-45.3 0 8.1 8.1 0 00-1.7 2.4l-41.5 94.5a42.3 42.3 0 00-2.3 5.3c0 .1-.1.1-.1.2a48 48 0 1093.2 16V100h32v67.8a48 48 0 1093.2-15.9zm-143.1 27a32 32 0 01-60.2-21.7l1.8-4.1A32 32 0 0196 167.9a32.1 32.1 0 01-1.9 11zm108.8 19.2A32 32 0 01160 168a32 32 0 0160.3-14.8l1.8 4.1a32 32 0 01-19.2 40.8z"/></svg>