<svg xmlns="http://www.w3.org/2000/svg" viewBox="0 0 256 256" width="20" height="20"><path fill="none" d="M0 0h256v256H0z"/><path d="M188.8 169.6L133.3 128l55.5-41.6a8 8 0 000-12.8l-64-48A8 8 0 00112 32v80L60.8 73.6a8 8 0 00-9.6 12.8l55.5 41.6-55.5 41.6A8 8 0 0056 184a7.7 7.7 0 004.8-1.6L112 144v80a8.2 8.2 0 004.4 7.2 9.4 9.4 0 003.6.8 7.7 7.7 0 004.8-1.6l64-48a8 8 0 000-12.8zM128 48l42.7 32-42.7 32zm0 160v-64l42.7 32zm80-80a12 12 0 11-12-12 12 12 0 0112 12zM52 140a12 12 0 1112-12 12 12 0 01-12 12z"/></svg>