<svg xmlns="http://www.w3.org/2000/svg" viewBox="0 0 256 256" width="20" height="20"><path fill="none" d="M0 0h256v256H0z"/><path d="M233.6 195.6L192.2 41a16 16 0 00-19.6-11.3L141.7 38l-1 .3A16 16 0 00128 32H96a15.8 15.8 0 00-8 2.2 15.8 15.8 0 00-8-2.2H48a16 16 0 00-16 16v160a16 16 0 0016 16h32a15.8 15.8 0 008-2.2 15.8 15.8 0 008 2.2h32a16 16 0 0016-16v-99.6l27.8 103.7a16 16 0 0015.5 11.9 19.9 19.9 0 004.1-.5l30.9-8.3a16 16 0 0011.3-19.6zM176.7 45.2l6.3 23.1-30.9 8.3-6.3-23.1zM128 48v120H96V48zm-48 0v24H48V48zm48 160H96v-24h32v24zm90.2-8.3l-30.9 8.3-6.3-23.2 31-8.3 6.2 23.2z"/></svg>