<svg xmlns="http://www.w3.org/2000/svg" viewBox="0 0 256 256" width="20" height="20"><path fill="none" d="M0 0h256v256H0z"/><path d="M43.2 128a30.4 30.4 0 018 10.3c4.8 9.9 4.8 22 4.8 33.7 0 24.3 1 36 24 36a8 8 0 010 16c-17.5 0-29.3-6.1-35.2-18.3-4.8-9.9-4.8-22-4.8-33.7 0-24.3-1-36-24-36a8 8 0 010-16c23 0 24-11.7 24-36 0-11.7 0-23.8 4.8-33.7C50.7 38.1 62.5 32 80 32a8 8 0 010 16c-23 0-24 11.7-24 36 0 11.7 0 23.8-4.8 33.7a30.4 30.4 0 01-8 10.3zm196.8-8c-23 0-24-11.7-24-36 0-11.7 0-23.8-4.8-33.7C205.3 38.1 193.5 32 176 32a8 8 0 000 16c23 0 24 11.7 24 36 0 11.7 0 23.8 4.8 33.7a30.4 30.4 0 008 10.3 30.4 30.4 0 00-8 10.3c-4.8 9.9-4.8 22-4.8 33.7 0 24.3-1 36-24 36a8 8 0 000 16c17.5 0 29.3-6.1 35.2-18.3 4.8-9.9 4.8-22 4.8-33.7 0-24.3 1-36 24-36a8 8 0 000-16z"/></svg>