<svg xmlns="http://www.w3.org/2000/svg" viewBox="0 0 256 256" width="20" height="20"><path fill="none" d="M0 0h256v256H0z"/><path d="M136 87.5V56a8 8 0 00-16 0v31.5a98.7 98.7 0 018 12.7 98.7 98.7 0 018-12.7z"/><path d="M231.4 50.4C227.7 45.6 220.7 40 208 40c-16.7 0-38.1 11.3-57.2 30.3A144.2 144.2 0 00136 87.5V172a8 8 0 01-16 0V87.5a144.2 144.2 0 00-14.8-17.2C86.1 51.3 64.7 40 48 40c-12.7 0-19.7 5.6-23.4 10.4-6.8 8.7-12.2 24.1-.4 71.5 6.6 26.3 22 34.9 33.5 37.5a40 40 0 1070.3 38 40 40 0 1070.3-38c11.5-2.6 26.9-11.2 33.5-37.5s11.8-55.9-.4-71.5z"/></svg>