<svg xmlns="http://www.w3.org/2000/svg" viewBox="0 0 256 256" width="20" height="20"><path fill="none" d="M0 0h256v256H0z"/><path d="M208 56h-27.7l-13.6-20.4A7.9 7.9 0 00160 32H96a7.9 7.9 0 00-6.7 3.6L75.7 56H48a24.1 24.1 0 00-24 24v112a24.1 24.1 0 0024 24h160a24.1 24.1 0 0024-24V80a24.1 24.1 0 00-24-24zm-46.1 109.9a47.8 47.8 0 01-67.8 0H94l-4.7-4.9-1.4 8.3A8.1 8.1 0 0180 176h-1.3a8 8 0 01-6.6-9.2l4-24a8.1 8.1 0 016.6-6.6l24-4a8 8 0 112.6 15.8l-9 1.5 5.1 5.3A32 32 0 00128 164a31.5 31.5 0 0022.6-9.4 8 8 0 0111.3 0 7.9 7.9 0 010 11.3zm22-68.6l-4 24a8.1 8.1 0 01-6.6 6.6l-24 4H148a8.1 8.1 0 01-7.9-6.7 8 8 0 016.6-9.2l9-1.5-5.1-5.3A32 32 0 00128 100a31.5 31.5 0 00-22.6 9.4 8 8 0 01-11.3 0 7.9 7.9 0 010-11.3 47.8 47.8 0 0167.8 0c.1 0 .1 0 .1.1l4.7 4.8 1.4-8.3a8 8 0 0115.8 2.6z"/></svg>