<svg xmlns="http://www.w3.org/2000/svg" viewBox="0 0 256 256" width="20" height="20"><path fill="none" d="M0 0h256v256H0z"/><path d="M65.8 54.5a8 8 0 010 11.3A87.7 87.7 0 0043 105.2a8.1 8.1 0 01-7.7 6l-2.1-.3a8 8 0 01-5.7-9.8 103.2 103.2 0 0127-46.6 7.9 7.9 0 0111.3 0zM43 150.8a8 8 0 00-15.5 4.1 104.8 104.8 0 0027 46.7 8 8 0 005.6 2.3 8.1 8.1 0 005.7-13.7A87.6 87.6 0 0143 150.8zM150.8 213a88.1 88.1 0 01-45.6 0 8 8 0 00-4.1 15.5 107 107 0 0027 3.5 105.4 105.4 0 0026.8-3.5 8 8 0 00-4.1-15.5zm72-67.9a8 8 0 00-9.8 5.7 87.7 87.7 0 01-22.8 39.4 8.1 8.1 0 005.7 13.7 7.7 7.7 0 005.6-2.4 103.2 103.2 0 0027-46.6 8 8 0 00-5.7-9.8zm-9.8-39.9a8.1 8.1 0 007.7 6l2.1-.3a8 8 0 005.7-9.8 104.8 104.8 0 00-27-46.7 7.9 7.9 0 00-11.3.1 8 8 0 000 11.3 87.6 87.6 0 0122.8 39.4zM105.2 43a88.1 88.1 0 0145.6 0 7.6 7.6 0 002.1.3 8 8 0 002-15.8 104.4 104.4 0 00-53.8 0 8 8 0 004.1 15.5z"/></svg>