<svg xmlns="http://www.w3.org/2000/svg" viewBox="0 0 256 256" width="20" height="20"><path fill="none" d="M0 0h256v256H0z"/><path d="M216 40H40a16 16 0 00-16 16v144a16 16 0 0016 16h176a16 16 0 0016-16V56a16 16 0 00-16-16zM96 148a19.8 19.8 0 0014.3-6 8 8 0 0111.4 11.2A35.4 35.4 0 0196 164a36 36 0 010-72 35.4 35.4 0 0125.7 10.8 8 8 0 01-11.4 11.2 19.8 19.8 0 00-14.3-6 20 20 0 000 40zm72 0a19.8 19.8 0 0014.3-6 8 8 0 0111.4 11.2A35.4 35.4 0 01168 164a36 36 0 010-72 35.4 35.4 0 0125.7 10.8 8 8 0 01-11.4 11.2 19.8 19.8 0 00-14.3-6 20 20 0 000 40z"/></svg>