<svg xmlns="http://www.w3.org/2000/svg" viewBox="0 0 256 256" width="20" height="20"><path fill="none" d="M0 0h256v256H0z"/><path d="M70.1 82.9a7.8 7.8 0 00-11.2-1l-48 40a7.9 7.9 0 000 12.2l48 40a7.8 7.8 0 0011.2-1 7.8 7.8 0 00-1-11.2L28.5 128l40.6-33.9a7.8 7.8 0 001-11.2zm175 39l-48-40a8 8 0 00-10.2 12.2l40.6 33.9-40.6 33.9A8 8 0 00192 176a7.7 7.7 0 005.1-1.9l48-40a7.9 7.9 0 000-12.2zm-82.4-89.4a7.9 7.9 0 00-10.2 4.8l-64 176a7.9 7.9 0 004.8 10.2 8.6 8.6 0 002.7.5 7.9 7.9 0 007.5-5.3l64-176a7.9 7.9 0 00-4.8-10.2z"/></svg>