<svg xmlns="http://www.w3.org/2000/svg" viewBox="0 0 256 256" width="20" height="20"><path fill="none" d="M0 0h256v256H0z"/><path d="M184 89.6V84c0-25.1-37.8-44-88-44S8 58.9 8 84v40c0 20.9 26.2 37.5 64 42.5v5.5c0 25.1 37.8 44 88 44s88-18.9 88-44v-40c0-20.7-25.4-37.3-64-42.4zM72 150.2v-23.7a184 184 0 0024 1.5 184 184 0 0024-1.5v23.7a151.1 151.1 0 01-24 1.8 151.1 151.1 0 01-24-1.8zm96-40.3V124c0 8.4-12.4 17.4-32 22.9v-23.4c12.9-3.1 23.8-7.8 32-13.6zM24 124v-14.1c8.2 5.8 19.1 10.5 32 13.6v23.4c-19.6-5.5-32-14.5-32-22.9zm64 48v-4.2l8 .2q5.9 0 11.4-.3c4 1.4 8.2 2.6 12.6 3.7v23.5c-19.6-5.5-32-14.5-32-22.9zm48 26.2v-23.8a188.4 188.4 0 0024 1.6 184 184 0 0024-1.5v23.7a160.9 160.9 0 01-48 0zm64-3.3v-23.4c12.9-3.1 23.8-7.8 32-13.6V172c0 8.4-12.4 17.4-32 22.9z"/></svg>