<svg xmlns="http://www.w3.org/2000/svg" viewBox="0 0 256 256" width="20" height="20"><path fill="none" d="M0 0h256v256H0z"/><path d="M120 80v104a8 8 0 01-8 8H96v16h16a8 8 0 010 16H64a8 8 0 010-16h16v-16H32a24.1 24.1 0 01-24-24V96a24.1 24.1 0 0124-24h80a8 8 0 018 8zm128-32v160a16 16 0 01-16 16h-80a16 16 0 01-16-16V48a16 16 0 0116-16h80a16 16 0 0116 16zm-44 132a12 12 0 10-12 12 12 12 0 0012-12zm20-76a8 8 0 00-8-8h-48a8 8 0 000 16h48a8 8 0 008-8zm0-32a8 8 0 00-8-8h-48a8 8 0 000 16h48a8 8 0 008-8z"/></svg>