<svg xmlns="http://www.w3.org/2000/svg" viewBox="0 0 256 256" width="20" height="20"><path fill="none" d="M0 0h256v256H0z"/><path d="M247.3 169.8l-34-113.2a15.6 15.6 0 00-9.2-10.2h-.6l.6-.2A192.4 192.4 0 00169.6 36a8 8 0 00-9.4 6.3 7.9 7.9 0 006.2 9.4c4.5.9 8.9 2 13.2 3.2A8 8 0 01176 70h-.8a185.4 185.4 0 00-47.2-6 181.8 181.8 0 00-46.1 5.8 8 8 0 01-5.6-14.9h.1c4.3-1.2 8.7-2.3 13.2-3.2a8 8 0 006.3-9.4 8.1 8.1 0 00-9.4-6.3 191.2 191.2 0 00-34.6 10.4 15.6 15.6 0 00-9.2 10.2l-34 113.2a16 16 0 004.9 16.7 34.7 34.7 0 002.9 2.5h.1c16.2 13.2 37.5 23.3 61.5 29.1a6.3 6.3 0 001.9.3 8 8 0 001.9-15.8 160.3 160.3 0 01-31.3-11.1 8 8 0 018.6-13.2c19 8.4 42.9 13.7 68.8 13.7s49.8-5.3 68.8-13.7a8 8 0 018.6 13.2 160.3 160.3 0 01-31.3 11.1 8 8 0 001.9 15.8 6.3 6.3 0 001.9-.3c24-5.8 45.3-15.9 61.5-29.1h.1a34.7 34.7 0 002.9-2.5 16 16 0 004.9-16.7zM96 156a12 12 0 1112-12 12 12 0 01-12 12zm64 0a12 12 0 1112-12 12 12 0 01-12 12z"/></svg>