<svg xmlns="http://www.w3.org/2000/svg" viewBox="0 0 256 256" width="20" height="20"><path fill="none" d="M0 0h256v256H0z"/><path d="M104 140a12 12 0 11-12-12 12 12 0 0112 12zm60-12a12 12 0 1012 12 12 12 0 00-12-12zm68.7 16a16.1 16.1 0 01-6.7 1.4 15.6 15.6 0 01-10-3.6V184a40 40 0 01-40 40H80a40 40 0 01-40-40v-42.2a15.6 15.6 0 01-10 3.6 16.1 16.1 0 01-6.7-1.4 15.8 15.8 0 01-9.1-17.6l16.4-87.5a16.1 16.1 0 0119.6-12.6L105 40h46l54.8-13.7a16.1 16.1 0 0119.6 12.6l16.4 87.5a15.8 15.8 0 01-9.1 17.6zM200 184v-62l-51.9-66h-40.2L56 122v62a24.1 24.1 0 0024 24h40v-12.7l-13.7-13.6a8.1 8.1 0 0111.4-11.4l10.3 10.4 10.3-10.4a8.1 8.1 0 0111.4 11.4L136 195.3V208h40a24.1 24.1 0 0024-24z"/></svg>