<svg xmlns="http://www.w3.org/2000/svg" viewBox="0 0 256 256" width="20" height="20"><path fill="none" d="M0 0h256v256H0z"/><path d="M93.3 36.9a4 4 0 01.8-7.2 103.7 103.7 0 0188.6 9.9 4 4 0 011.1 5.9 156.1 156.1 0 01-41.9 37 169 169 0 00-48.6-45.6zM127.6 90a154.2 154.2 0 00-56-46.9 4.3 4.3 0 00-4.1.3 105.1 105.1 0 00-38.3 52.1 4 4 0 003 5.1A151.1 151.1 0 0064 104a150.6 150.6 0 0063.6-14zm103.8 26.7a104 104 0 00-29.2-61.5 4.1 4.1 0 00-6 .3 168.3 168.3 0 01-45.7 40.4 171.5 171.5 0 0113.6 29.9A167.3 167.3 0 01208 120a171.5 171.5 0 0119 1.1 4 4 0 004.4-4.4zm-62.9 24.5a169 169 0 014.4 38.5 168.1 168.1 0 01-4.1 36.8 4 4 0 005.7 4.5 104.1 104.1 0 0056.6-79.2 4 4 0 00-3.5-4.5A141.3 141.3 0 00208 136a151.2 151.2 0 00-39.5 5.2zm-19.7-10.4a142.6 142.6 0 00-12.4-27.2A167.2 167.2 0 0164 120a167.3 167.3 0 01-34.9-3.7 4 4 0 00-4.8 3.6q-.3 4-.3 8.1a103.7 103.7 0 0033 75.9 3.9 3.9 0 006.1-.9 168.8 168.8 0 0185.7-72.2zm-73.1 82.4a4 4 0 001.5 5.5A102.9 102.9 0 00128 232a98.3 98.3 0 0018.1-1.6 3.8 3.8 0 003-2.6 151 151 0 007.8-48.1 154.2 154.2 0 00-3.7-33.5 153.2 153.2 0 00-77.5 67z"/></svg>