<svg xmlns="http://www.w3.org/2000/svg" viewBox="0 0 256 256" width="20" height="20"><path fill="none" d="M0 0h256v256H0z"/><path d="M186.7 59.6l-.7-1.1a4.1 4.1 0 00-6.3-.4l-36.2 40.3 18 7a8.1 8.1 0 015 9l-7.2 37.1a8.1 8.1 0 01-7.9 6.5h-1.5a8.4 8.4 0 01-6.3-9.7l5.9-30.3-22.6-8.7a8.3 8.3 0 01-4.9-5.6 8.1 8.1 0 011.8-7.2l46.6-51.9a4 4 0 00-.1-5.5c-14.1-14.7-29-23-42.3-23-18.5 0-40.5 16.3-58.7 43.6s-28 57.6-29.2 86.8C38 197 77.6 240.1 128.2 240a88.1 88.1 0 0087.8-88c0-30.8-10.7-64.5-29.3-92.4z"/></svg>