<svg xmlns="http://www.w3.org/2000/svg" viewBox="0 0 256 256" width="20" height="20"><path fill="none" d="M0 0h256v256H0z"/><path d="M100 113.9l11.1 22.1H88.9zM232 56v160a7.9 7.9 0 01-3.8 6.8 8 8 0 01-7.8.4L192 208.9l-28.4 14.3a8.5 8.5 0 01-7.2 0L128 208.9l-28.4 14.3a8.3 8.3 0 01-7.2 0L64 208.9l-28.4 14.3a8 8 0 01-7.8-.4A7.9 7.9 0 0124 216V56a16 16 0 0116-16h176a16 16 0 0116 16zm-92.8 100.4l-32-64a8.1 8.1 0 00-14.4 0l-32 64a8 8 0 0014.4 7.2l5.7-11.6h38.2l5.7 11.6a8.1 8.1 0 007.2 4.4 9.4 9.4 0 003.6-.8 8.2 8.2 0 003.6-10.8zM204 128a8 8 0 00-8-8h-12v-12a8 8 0 00-16 0v12h-12a8 8 0 000 16h12v12a8 8 0 0016 0v-12h12a8 8 0 008-8z"/></svg>