<svg xmlns="http://www.w3.org/2000/svg" viewBox="0 0 256 256" width="20" height="20"><path fill="none" d="M0 0h256v256H0z"/><path d="M213.6 82.3l-55.9-56-.3-.2-.3-.3-.3-.2-.3-.2c-.1-.1-.2-.1-.2-.2l-.5-.3h-.2l-.5-.3h-.1l-.7-.3H56A16 16 0 0040 40v176a16 16 0 0016 16h144a16 16 0 0016-16V88a7.8 7.8 0 00-2.4-5.7zm-51.9 71.4a8.1 8.1 0 01-11.4 0L136 139.3V184a8 8 0 01-16 0v-44.7l-14.3 14.4a8.1 8.1 0 01-11.4-11.4l28-28h.1l.5-.5.3-.2.4-.3.3-.2.3-.2h.4l.3-.2h.4l.4-.2h4.6l.4.2h.4l.3.2h.4l.3.2.3.2.4.3.3.2.5.5h.1l28 28a8.1 8.1 0 010 11.4zM152 88V43.3L196.7 88z"/></svg>