<svg xmlns="http://www.w3.org/2000/svg" viewBox="0 0 256 256" width="20" height="20"><path fill="none" d="M0 0h256v256H0z"/><path d="M58 160H44a8 8 0 00-8 8v48a8 8 0 008 8h14a32 32 0 000-64zm0 48h-6v-32h6a16 16 0 010 32zm72-48c-16.5 0-30 14.4-30 32s13.5 32 30 32 30-14.4 30-32-13.5-32-30-32zm0 48c-7.7 0-14-7.2-14-16s6.3-16 14-16 14 7.2 14 16-6.3 16-14 16zm87.9-2.8a8 8 0 01-.5 11.3A29.3 29.3 0 01198 224c-16.5 0-30-14.4-30-32s13.5-32 30-32a29.3 29.3 0 0119.4 7.5 8 8 0 01.5 11.3 7.9 7.9 0 01-11.3.6 12.9 12.9 0 00-8.6-3.4c-7.7 0-14 7.2-14 16s6.3 16 14 16a12.9 12.9 0 008.6-3.4 7.9 7.9 0 0111.3.6zM48 136h160a8 8 0 008-8V88a8.1 8.1 0 00-2.3-5.7l-56-56A8.1 8.1 0 00152 24H56a16 16 0 00-16 16v88a8 8 0 008 8zm104-92l44 44h-44z"/></svg>