<svg xmlns="http://www.w3.org/2000/svg" viewBox="0 0 256 256" width="20" height="20"><path fill="none" d="M0 0h256v256H0z"/><path d="M120 168H88a8 8 0 000 16h8v32a8 8 0 0016 0v-32h8a8 8 0 000-16zm-56 0a8 8 0 00-8 8v12H44v-12a8 8 0 00-16 0v40a8 8 0 0016 0v-12h12v12a8 8 0 0016 0v-40a8 8 0 00-8-8zm172 40h-16v-32a8 8 0 00-16 0v40a8 8 0 008 8h24a8 8 0 000-16zm-49.6-39.6a7.8 7.8 0 00-8.9 3L164 190.2l-13.5-18.8A8 8 0 00136 176v40a8 8 0 0016 0v-15l5.5 7.6a7.9 7.9 0 0013 0l5.5-7.6v15a8 8 0 0016 0v-40a7.8 7.8 0 00-5.6-7.6zM48 136h160a8 8 0 008-8V88a8.1 8.1 0 00-2.3-5.7l-56-56A8.1 8.1 0 00152 24H56a16 16 0 00-16 16v88a8 8 0 008 8zm104-92l44 44h-44z"/></svg>