<svg xmlns="http://www.w3.org/2000/svg" viewBox="0 0 256 256" width="20" height="20"><path fill="none" d="M0 0h256v256H0z"/><path d="M213.7 82.3l-56-56A8.1 8.1 0 00152 24H56a16 16 0 00-16 16v88a8 8 0 008 8h160a8 8 0 008-8V88a8.1 8.1 0 00-2.3-5.7zM152 88V44l44 44zm-88 72H48a8 8 0 00-8 8v48a8 8 0 0016 0v-8h8a24 24 0 000-48zm0 32h-8v-16h8a8 8 0 010 16zm64-32h-16a8 8 0 00-8 8v48a8 8 0 0016 0v-8h8a24 24 0 000-48zm0 32h-8v-16h8a8 8 0 010 16zm88-24a8 8 0 01-8 8h-10v40a8 8 0 01-16 0v-40h-10a8 8 0 010-16h36a8 8 0 018 8z"/></svg>