<svg xmlns="http://www.w3.org/2000/svg" viewBox="0 0 256 256" width="20" height="20"><path fill="none" d="M0 0h256v256H0z"/><path d="M213.7 82.3l-56-56A8.1 8.1 0 00152 24H56a16 16 0 00-16 16v88a8 8 0 0016 0V40h88v48a8 8 0 008 8h48v120h-32a8 8 0 000 16h32a16 16 0 0016-16V88a8.1 8.1 0 00-2.3-5.7zM160 80V51.3L188.7 80zm-56 72v72a7.9 7.9 0 01-4.6 7.2 6.8 6.8 0 01-3.4.8 7.5 7.5 0 01-5.1-1.9L69.1 212H48a8 8 0 01-8-8v-32a8 8 0 018-8h21.1l21.8-18.1a7.8 7.8 0 018.5-1.1 7.9 7.9 0 014.6 7.2zm44 36a39.8 39.8 0 01-15 31.2 7.9 7.9 0 01-5 1.8 7.8 7.8 0 01-6.2-3 8.1 8.1 0 011.2-11.3 23.9 23.9 0 000-37.4 8 8 0 0110-12.5 39.8 39.8 0 0115 31.2z"/></svg>