<svg xmlns="http://www.w3.org/2000/svg" viewBox="0 0 256 256" width="20" height="20"><path fill="none" d="M0 0h256v256H0z"/><path d="M188 176v8h16a8 8 0 010 16h-16v8h20a8 8 0 010 16h-28a8 8 0 01-8-8v-48a8 8 0 018-8h28a8 8 0 010 16zM87.1 160.6a8 8 0 00-10.5 4.3L64 195.2l-12.6-30.3a8 8 0 00-14.8 6.2l20 48a8 8 0 0014.8 0l20-48a8 8 0 00-4.3-10.5zm60.9-.6a8 8 0 00-8 8v30a10 10 0 01-20 0v-30a8 8 0 00-16 0v30a26 26 0 0052 0v-30a8 8 0 00-8-8zm68-72v40a8 8 0 01-8 8H48a8 8 0 01-8-8V40a16 16 0 0116-16h96a8.1 8.1 0 015.7 2.3l56 56A8.1 8.1 0 01216 88zm-20 0l-44-44v44z"/></svg>