<svg xmlns="http://www.w3.org/2000/svg" viewBox="0 0 256 256" width="20" height="20"><path fill="none" d="M0 0h256v256H0z"/><path d="M80 224a8 8 0 01-8 8H56a16 16 0 01-16-16v-32a8 8 0 0116 0v32h16a8 8 0 018 8zm0-200H56a16 16 0 00-16 16v24a8 8 0 0016 0V40h24a8 8 0 000-16zm136 64a7.8 7.8 0 00-2.4-5.7l-55.9-56h-.2l-.4-.4h-.2l-.4-.3c-.1-.1-.2-.1-.2-.2l-.5-.3h-.2l-.5-.3h-.1l-.7-.3H120a8 8 0 000 16h24V88a8 8 0 008 8h48v40a8 8 0 0016 0V88zm-8 80a8 8 0 00-8 8v40h-8a8 8 0 000 16h8a16 16 0 0016-16v-40a8 8 0 00-8-8zM48 152a8 8 0 008-8v-40a8 8 0 00-16 0v40a8 8 0 008 8zm104 64h-40a8 8 0 000 16h40a8 8 0 000-16z"/></svg>