<svg xmlns="http://www.w3.org/2000/svg" viewBox="0 0 256 256" width="20" height="20"><path fill="none" d="M0 0h256v256H0z"/><path d="M144 204c0 13.1-9.3 21-25 21a33.4 33.4 0 01-20.1-6.8A7.6 7.6 0 0196 212a8 8 0 018-8 8.3 8.3 0 015.1 1.8h-.1a18.4 18.4 0 0010 3.2c9 0 9-3 9-5s0-.9-1.2-1.6-5.8-2.2-9.2-3.1C109 197 96 193.5 96 180s9.5-21 23-21a33.4 33.4 0 0120.1 6.8 7.6 7.6 0 012.9 6.2 8 8 0 01-8 8 8.3 8.3 0 01-5.1-1.8h.1a18.4 18.4 0 00-10-3.2c-4.6 0-7 1.7-7 5v.2c1.1 1.3 6.6 2.8 9.7 3.6C130 186 144 189.7 144 204zm-72-44a8 8 0 00-8 8v32a8 8 0 01-16 0 8 8 0 00-16 0 24 24 0 0048 0v-32a8 8 0 00-8-8zm144-72v128a16 16 0 01-16 16h-24a8 8 0 01-8-8v-80a8 8 0 00-8-8H48a8 8 0 01-8-8V40a16 16 0 0116-16h96a8.1 8.1 0 015.7 2.3l56 56A8.1 8.1 0 01216 88zm-20 0l-44-44v44z"/></svg>