<svg xmlns="http://www.w3.org/2000/svg" viewBox="0 0 256 256" width="20" height="20"><path fill="none" d="M0 0h256v256H0z"/><path d="M80 168v32a24 24 0 01-48 0 8 8 0 0116 0 8 8 0 0016 0v-32a8 8 0 0116 0zm41.7 15.8c-3.1-.8-8.6-2.3-9.7-3.6v-.2c0-3.3 2.4-5 7-5a18.4 18.4 0 0110 3.2h-.1a8.3 8.3 0 005.1 1.8 8 8 0 008-8 7.6 7.6 0 00-2.9-6.1A33.4 33.4 0 00119 159c-13.5 0-23 8.6-23 21s13 17 21.6 19.3c3.4.9 7 1.8 9.2 3.1s1.2 1 1.2 1.6 0 5-9 5a18.4 18.4 0 01-10-3.2h.1a8.3 8.3 0 00-5.1-1.8 8 8 0 00-8 8 7.6 7.6 0 002.9 6.1A33.4 33.4 0 00119 225c15.7 0 25-7.9 25-21s-14-18-22.3-20.2zm83.1-22.2a8 8 0 00-11.2 1.6L182 178.7l-11.6-15.5a8 8 0 00-12.8 9.6L172 192l-14.4 19.2a8 8 0 001.6 11.2 7.7 7.7 0 004.8 1.6 8 8 0 006.4-3.2l11.6-15.5 11.6 15.5a8 8 0 006.4 3.2 7.7 7.7 0 004.8-1.6 8 8 0 001.6-11.2L192 192l14.4-19.2a8 8 0 00-1.6-11.2zM216 88v40a8 8 0 01-8 8H48a8 8 0 01-8-8V40a16 16 0 0116-16h96a8.1 8.1 0 015.7 2.3l56 56A8.1 8.1 0 01216 88zm-20 0l-44-44v44z"/></svg>