<svg xmlns="http://www.w3.org/2000/svg" viewBox="0 0 256 256" width="20" height="20"><path fill="none" d="M0 0h256v256H0z"/><path d="M213.6 82.3l-55.9-56-.3-.2-.3-.3-.3-.2-.3-.2c-.1-.1-.2-.1-.2-.2l-.5-.3h-.2l-.5-.3h-.1l-.7-.3H56A16 16 0 0040 40v176a16 16 0 0016 16h144a16 16 0 0016-16V88a7.8 7.8 0 00-2.4-5.7zm-48.2 107.2a8 8 0 01-5.6 2.3 8.3 8.3 0 01-5.7-2.3l-10.9-11A36.8 36.8 0 01124 184a36 36 0 1136-36 35.8 35.8 0 01-5.5 19.2l10.9 10.9a8 8 0 010 11.4zM152 88V43.3L196.7 88z"/><path d="M124 128a19.9 19.9 0 00-14.1 5.9 19.8 19.8 0 000 28.2 19.9 19.9 0 0028.2 0 19.8 19.8 0 000-28.2A19.9 19.9 0 00124 128z"/></svg>