<svg xmlns="http://www.w3.org/2000/svg" viewBox="0 0 256 256" width="20" height="20"><path fill="none" d="M0 0h256v256H0z"/><path d="M64 160H48a8 8 0 00-8 8v48a8 8 0 0016 0v-8h8a24 24 0 000-48zm0 32h-8v-16h8a8 8 0 010 16zm132-16v12h16a8 8 0 010 16h-16v12a8 8 0 01-16 0v-48a8 8 0 018-8h28a8 8 0 010 16zm-68-16h-14a8 8 0 00-8 8v48a8 8 0 008 8h14a32 32 0 000-64zm0 48h-6v-32h6a16 16 0 010 32zm-80-72h160a8 8 0 008-8V88a8.1 8.1 0 00-2.3-5.7l-56-56A8.1 8.1 0 00152 24H56a16 16 0 00-16 16v88a8 8 0 008 8zm104-92l44 44h-44z"/></svg>