<svg xmlns="http://www.w3.org/2000/svg" viewBox="0 0 256 256" width="20" height="20"><path fill="none" d="M0 0h256v256H0z"/><path d="M129.7 183.8c-3.1-.8-8.6-2.3-9.7-3.6v-.2c0-3.3 2.4-5 7-5a18.4 18.4 0 0110 3.2h-.1a8.3 8.3 0 005.1 1.8 8 8 0 008-8 7.6 7.6 0 00-2.9-6.1A33.4 33.4 0 00127 159c-13.5 0-23 8.6-23 21s13 17 21.6 19.3c3.4.9 7 1.8 9.2 3.1s1.2 1 1.2 1.6 0 5-9 5a18.4 18.4 0 01-10-3.2h.1a8.3 8.3 0 00-5.1-1.8 8 8 0 00-8 8 7.6 7.6 0 002.9 6.1A33.4 33.4 0 00127 225c15.7 0 25-7.9 25-21s-14-18-22.3-20.2zm7.2-5.7zm-19.8 27.8zM52 192c0 8.8 6.3 16 14 16a12.9 12.9 0 008.6-3.4 7.9 7.9 0 0111.3.6 8 8 0 01-.5 11.3A29.3 29.3 0 0166 224c-16.5 0-30-14.4-30-32s13.5-32 30-32a29.3 29.3 0 0119.4 7.5 8 8 0 01.5 11.3 7.9 7.9 0 01-11.3.6A12.9 12.9 0 0066 176c-7.7 0-14 7.2-14 16zm141.7-8.2c-3.1-.8-8.6-2.3-9.7-3.6v-.2c0-3.3 2.4-5 7-5a18.4 18.4 0 0110 3.2h-.1a8.3 8.3 0 005.1 1.8 8 8 0 008-8 7.6 7.6 0 00-2.9-6.1A33.4 33.4 0 00191 159c-13.5 0-23 8.6-23 21s13 17 21.6 19.3c3.4.9 7 1.8 9.2 3.1s1.2 1 1.2 1.6 0 5-9 5a18.4 18.4 0 01-10-3.2h.1a8.3 8.3 0 00-5.1-1.8 8 8 0 00-8 8 7.6 7.6 0 002.9 6.1A33.4 33.4 0 00191 225c15.7 0 25-7.9 25-21s-14-18-22.3-20.2zm7.2-5.7zm-19.8 27.8zm20.5-27.2zm-64 0zm76.1-96.4l-56-56A8.1 8.1 0 00152 24H56a16 16 0 00-16 16v88a8 8 0 008 8h160a8 8 0 008-8V88a8.1 8.1 0 00-2.3-5.7zM152 88V44l44 44z"/></svg>