<svg xmlns="http://www.w3.org/2000/svg" viewBox="0 0 256 256" width="20" height="20"><path fill="none" d="M0 0h256v256H0z"/><path d="M213.7 82.3l-56-56A8.1 8.1 0 00152 24H56a16 16 0 00-16 16v176a16 16 0 0016 16h144a16 16 0 0016-16V88a8.1 8.1 0 00-2.3-5.7zm-104 88a8.1 8.1 0 010 11.4 8.2 8.2 0 01-11.4 0l-24-24a8.1 8.1 0 010-11.4l24-24a8.1 8.1 0 0111.4 11.4L91.3 152zm72-12.6l-24 24a8.2 8.2 0 01-11.4 0 8.1 8.1 0 010-11.4l18.4-18.3-18.4-18.3a8.1 8.1 0 0111.4-11.4l24 24a8.1 8.1 0 010 11.4zM152 88V44l44 44z"/></svg>