<svg xmlns="http://www.w3.org/2000/svg" viewBox="0 0 256 256" width="20" height="20"><path fill="none" d="M0 0h256v256H0z"/><path d="M128 24A104.2 104.2 0 0024 128a88 88 0 01-5 29.3 8.1 8.1 0 004.9 10.3 8.2 8.2 0 002.6.4 8.1 8.1 0 007.6-5.3A104.5 104.5 0 0040 128a88 88 0 01176 0 283.6 283.6 0 01-5.3 54.5 8.1 8.1 0 006.3 9.4h1.6a7.9 7.9 0 007.8-6.4A299.9 299.9 0 00232 128 104.1 104.1 0 00128 24z"/><path d="M93 84.3a8 8 0 00-10-12.5A71.6 71.6 0 0056 128a118.7 118.7 0 01-12.5 53.4 8.1 8.1 0 003.6 10.7 7.8 7.8 0 003.6.8 8.1 8.1 0 007.2-4.4A136.1 136.1 0 0072 128a55.9 55.9 0 0121-43.7zm35 35.7a8 8 0 00-8 8 183.3 183.3 0 01-23 89.1 8.1 8.1 0 003.2 10.9 7.5 7.5 0 003.8 1 8 8 0 007-4.1 199.8 199.8 0 0025-96.9 8 8 0 00-8-8z"/><path d="M128 88a40.1 40.1 0 00-40 40 8 8 0 0016 0 24 24 0 0148 0 214.3 214.3 0 01-20.5 92 8 8 0 003.8 10.7 8.3 8.3 0 003.4.7 8.1 8.1 0 007.3-4.6 230 230 0 0022-98.8 40.1 40.1 0 00-40-40z"/><path d="M94.4 152.2a7.9 7.9 0 00-9.4 6.2 154.8 154.8 0 01-17.2 45.5 8 8 0 002.9 10.9 8.3 8.3 0 004 1.1 8.2 8.2 0 006.9-4 163.2 163.2 0 0019-50.3 7.9 7.9 0 00-6.2-9.4zM128 56a68 68 0 00-9 .6 8 8 0 102 15.8c2.3-.2 4.7-.4 7-.4a56 56 0 0156 56 245.7 245.7 0 01-1.9 31 7.9 7.9 0 006.9 8.9h1a8.1 8.1 0 008-7 279.7 279.7 0 002-33A72.1 72.1 0 00128 56zm57.9 128.3a7.9 7.9 0 00-9.7 5.7c-1.5 5.7-3.2 11.4-5 17a7.9 7.9 0 005 10.1 7.8 7.8 0 002.6.4 7.9 7.9 0 007.5-5.4c2-6 3.8-12 5.4-18.1a8 8 0 00-5.8-9.7z"/></svg>