<svg xmlns="http://www.w3.org/2000/svg" viewBox="0 0 256 256" width="20" height="20"><path fill="none" d="M0 0h256v256H0z"/><path d="M208.4 132.8a56.9 56.9 0 00-11.5-4.8 56.9 56.9 0 0011.5-4.8 36 36 0 00-36-62.4 58.7 58.7 0 00-9.9 7.5A58.6 58.6 0 00164 56a36 36 0 00-72 0 58.6 58.6 0 001.5 12.3 58.7 58.7 0 00-9.9-7.5 36 36 0 00-36 62.4 56.9 56.9 0 0011.5 4.8 56.9 56.9 0 00-11.5 4.8 36 36 0 0036 62.4 58.7 58.7 0 009.9-7.5A58.6 58.6 0 0092 200a36 36 0 0072 0 58.6 58.6 0 00-1.5-12.3 58.7 58.7 0 009.9 7.5 36 36 0 0036-62.4zM128 152a24 24 0 1124-24 24.1 24.1 0 01-24 24z"/></svg>