<svg xmlns="http://www.w3.org/2000/svg" viewBox="0 0 256 256" width="20" height="20"><path fill="none" d="M0 0h256v256H0z"/><path d="M250.5 121.3a15.9 15.9 0 00-9.9-7.5 77.1 77.1 0 00-27.9-1.8 86.7 86.7 0 00-2.6-40.9 15.9 15.9 0 00-18.5-10.7 82.3 82.3 0 00-26.2 10.8 94.4 94.4 0 00-27.8-34.4 15.9 15.9 0 00-19.2 0 94.4 94.4 0 00-27.8 34.4 82.3 82.3 0 00-26.2-10.8 15.9 15.9 0 00-18.5 10.7 86.7 86.7 0 00-2.6 40.9 77.1 77.1 0 00-27.9 1.8A15.9 15.9 0 004 133.6c3.5 12.6 14.3 36.7 47.1 55.6s61.4 18.8 76.8 18.8h.2c15.4 0 44.2 0 76.8-18.8s43.6-43 47.1-55.6a16 16 0 00-1.5-12.3zM128 49.6c9.6 7.2 32 28.4 32 70.4s-22.4 63.2-32 70.4c-9.6-7.2-32-28.4-32-70.4s22.4-63.2 32-70.4zM19.3 129.3c6.2-1.6 15.9-2.8 28.4-.6a117.1 117.1 0 009.7 20.9 137.9 137.9 0 0033.2 38.6 123.4 123.4 0 01-31.5-12.9c-27.8-16.1-36.8-35.8-39.8-46zm177.6 46a123.4 123.4 0 01-31.5 12.9 137.9 137.9 0 0033.2-38.6 117.1 117.1 0 009.7-20.9 68.8 68.8 0 0128.3.5c-2.9 10.3-11.9 30-39.7 46.1z"/></svg>