<svg xmlns="http://www.w3.org/2000/svg" viewBox="0 0 256 256" width="20" height="20"><path fill="none" d="M0 0h256v256H0z"/><path d="M180.6 211a8.1 8.1 0 01-6.6 9.2h-1.3a8.1 8.1 0 01-7.9-6.7l-3.9-23.5a8 8 0 0115.8-2.7zM128 184a8 8 0 00-8 8v32a8 8 0 0016 0v-32a8 8 0 00-8-8zm-39.5-3.1a7.9 7.9 0 00-9.2 6.5L75.4 211a8.1 8.1 0 006.6 9.2h1.3a8.1 8.1 0 007.9-6.7l3.9-23.5a8 8 0 00-6.6-9.1zM248 112c0 16.2-13.4 30.9-37.7 41.3C188.2 162.8 159 168 128 168s-60.2-5.2-82.3-14.7C21.4 142.9 8 128.2 8 112c0-8.4 3.7-20.8 21.2-32.5 11.3-7.6 26.9-13.8 45.2-17.9A63.6 63.6 0 01173 50.5a64.7 64.7 0 019.1 11.2c41.3 9.4 65.9 28 65.9 50.3zM80 96.8v3.1a7.8 7.8 0 006.1 7.7A189.1 189.1 0 00128 112a189.1 189.1 0 0041.9-4.4 7.8 7.8 0 006.1-7.7V96a47.5 47.5 0 00-6.1-23.4 51.7 51.7 0 00-8.2-10.7A47.4 47.4 0 00127.4 48C101.2 48.3 80 70.2 80 96.8z"/></svg>