<svg xmlns="http://www.w3.org/2000/svg" viewBox="0 0 256 256" width="20" height="20"><path fill="none" d="M0 0h256v256H0z"/><path d="M40 64v136h80a8 8 0 010 16H40a16 16 0 01-16-16V64a16 16 0 0116-16h53.3a15.6 15.6 0 019.6 3.2L130.7 72H216a16 16 0 0116 16v32a8 8 0 01-16 0V88h-85.3a15.6 15.6 0 01-9.6-3.2L93.3 64zm203.6 95.2a8.1 8.1 0 00-7-5.6l-29.8-2.3-11.5-26.5a8 8 0 00-14.6 0l-11.5 26.5-29.8 2.3a8.1 8.1 0 00-4.5 14.2l22.5 18.6-6.8 27.7a7.9 7.9 0 003 8.3 8 8 0 008.8.5l25.6-15.1 25.6 15.1a8.7 8.7 0 004.1 1.1 7.4 7.4 0 004.7-1.6 7.9 7.9 0 003-8.3l-6.8-27.7 22.5-18.6a8 8 0 002.5-8.6z"/></svg>