<svg xmlns="http://www.w3.org/2000/svg" viewBox="0 0 256 256" width="20" height="20"><path fill="none" d="M0 0h256v256H0z"/><path d="M120.6 200H40V88h176v32a8 8 0 0016 0V88a16 16 0 00-16-16h-84.7L104 44.7A15.9 15.9 0 0092.7 40H40a16 16 0 00-16 16v144.6A15.4 15.4 0 0039.4 216h81.2a8 8 0 100-16zM92.7 56l16 16H40V56zm148.4 111.8l-22.5 18.6 6.8 27.7a7.9 7.9 0 01-3 8.3 7.4 7.4 0 01-4.7 1.6 8.7 8.7 0 01-4.1-1.1L188 207.8l-25.6 15.1a8 8 0 01-8.8-.5 7.9 7.9 0 01-3-8.3l6.8-27.7-22.5-18.6a8.1 8.1 0 014.5-14.2l29.8-2.3 11.5-26.5a8 8 0 0114.6 0l11.5 26.5 29.8 2.3a8.1 8.1 0 014.5 14.2z"/></svg>