<svg xmlns="http://www.w3.org/2000/svg" viewBox="0 0 256 256" width="20" height="20"><path fill="none" d="M0 0h256v256H0z"/><path d="M247.5 181.7h-.1l-16.3-84.5c0-.1 0-.1-.1-.2a60 60 0 00-59-49.3L84 48a59.9 59.9 0 00-59.1 49.6v.2L8.6 181.6a35.9 35.9 0 0029.2 41.7 31.8 31.8 0 006.2.6 36.4 36.4 0 0025.5-10.5l.4-.5 40.7-45 34.9-.2 40.6 45.3.5.5A36 36 0 00212 224a33.6 33.6 0 006.3-.6 36.1 36.1 0 0029.2-41.7zM104 116h-8v8a8 8 0 01-16 0v-8h-8a8 8 0 010-16h8v-8a8 8 0 0116 0v8h8a8 8 0 010 16zm40-8a8 8 0 018-8h32a8 8 0 010 16h-32a8 8 0 01-8-8zm71.5 99.7a20.1 20.1 0 01-17.5-5.4l-31.1-34.5h5.1a60 60 0 0051-28.3l8.7 45.2a20 20 0 01-16.2 23z"/></svg>