<svg xmlns="http://www.w3.org/2000/svg" viewBox="0 0 256 256" width="20" height="20"><path fill="none" d="M0 0h256v256H0z"/><path d="M240 160v24a16 16 0 01-16 16H115.5a4 4 0 01-3.2-6.4L178 108a8.2 8.2 0 00-1.1-11.3 7.9 7.9 0 00-11.4 1.3L88.4 198.4a3.8 3.8 0 01-3.1 1.6H32a16 16 0 01-16-16v-22.9a116.1 116.1 0 012.2-22.2l22.7 6.1 2.1.2a8 8 0 007.8-6.2 8.1 8.1 0 00-6-9.6l-22.4-6C37 82 74.9 51.5 120 48.3v23.4a8.2 8.2 0 007.5 8.3 8 8 0 008.5-8V48.3a111.5 111.5 0 0171.1 32.4 112.7 112.7 0 0126.8 42.6l-22.7 6.1a8.1 8.1 0 00-6 9.6 8 8 0 007.8 6.2l2.1-.2 22.9-6.2a114.5 114.5 0 012 21.2z"/></svg>