<svg xmlns="http://www.w3.org/2000/svg" viewBox="0 0 256 256" width="20" height="20"><path fill="none" d="M0 0h256v256H0z"/><path d="M234.8 150.4l-14.9-19.8c.1-1.8 0-3.7 0-5.1l14.9-19.9a7.8 7.8 0 001.3-6.9 114.8 114.8 0 00-10.9-26.4 8.2 8.2 0 00-5.8-4l-24.5-3.5-3.7-3.7-3.5-24.5a8.4 8.4 0 00-3.9-5.8 117.5 117.5 0 00-26.5-10.9 7.8 7.8 0 00-6.9 1.3L130.6 36h-5.2l-19.8-14.8a7.8 7.8 0 00-6.9-1.3 114.8 114.8 0 00-26.4 10.9 8.2 8.2 0 00-4 5.8l-3.5 24.5-3.7 3.7-24.5 3.5a8.2 8.2 0 00-5.8 4 114.8 114.8 0 00-10.9 26.4 7.8 7.8 0 001.3 6.9l14.9 19.8v5.1l-14.9 19.9a7.8 7.8 0 00-1.3 6.9 114.8 114.8 0 0010.9 26.4 8.2 8.2 0 005.8 4l24.5 3.5 3.7 3.7 3.5 24.5a8.2 8.2 0 004 5.8 114.8 114.8 0 0026.4 10.9 7.6 7.6 0 002.1.3 7.7 7.7 0 004.8-1.6l19.8-14.8h5.2l19.8 14.8a7.8 7.8 0 006.9 1.3 113 113 0 0026.4-10.9 8.2 8.2 0 004-5.8l3.5-24.6c1.2-1.2 2.6-2.5 3.6-3.6l24.6-3.5a8.2 8.2 0 005.8-4 114.8 114.8 0 0010.9-26.4 7.8 7.8 0 00-1.3-6.9zM128 172a44 44 0 1144-44 44 44 0 01-44 44z"/></svg>