<svg xmlns="http://www.w3.org/2000/svg" viewBox="0 0 256 256" width="20" height="20"><path fill="none" d="M0 0h256v256H0z"/><path d="M216 72h-35a32 32 0 00-47.3-42.9 29.2 29.2 0 00-5.7 8.2 29.2 29.2 0 00-5.7-8.2A32 32 0 0075 72H40a16 16 0 00-16 16v32a16 16 0 0016 16v64a16 16 0 0016 16h144a16 16 0 0016-16v-64a16 16 0 0016-16V88a16 16 0 00-16-16zm-71-31.6A16 16 0 11167.6 63c-4.9 5-19.2 7.7-31.3 8.7 1-12.1 3.7-26.4 8.7-31.3zm-56.6 0a16.1 16.1 0 0122.6 0c5 4.9 7.7 19.2 8.7 31.3-12.1-1-26.4-3.7-31.3-8.7a16.1 16.1 0 010-22.6zM216 120h-80v72a8 8 0 01-16 0v-72H40V88h80v32h16V88h80v32z"/></svg>