<svg xmlns="http://www.w3.org/2000/svg" viewBox="0 0 256 256" width="20" height="20"><path fill="none" d="M0 0h256v256H0z"/><path d="M224 224a8 8 0 01-8 8 32.1 32.1 0 01-32-32v-8a16 16 0 00-16-16h-12v40a16 16 0 0016 16 8 8 0 010 16 32.1 32.1 0 01-32-32v-40h-24v40a32.1 32.1 0 01-32 32 8 8 0 010-16 16 16 0 0016-16v-40H88a16 16 0 00-16 16v8a32.1 32.1 0 01-32 32 8 8 0 010-16 16 16 0 0016-16v-8a32.1 32.1 0 0114.8-27A55.8 55.8 0 0148 120v-8a58 58 0 017.7-28.3A59.9 59.9 0 0161.1 36a7.8 7.8 0 016.9-4 59.7 59.7 0 0148 24h24a59.7 59.7 0 0148-24 7.8 7.8 0 016.9 4 59.9 59.9 0 015.4 47.7A58 58 0 01208 112v8a55.8 55.8 0 01-22.8 45 32.1 32.1 0 0114.8 27v8a16 16 0 0016 16 8 8 0 018 8z"/></svg>