<svg xmlns="http://www.w3.org/2000/svg" viewBox="0 0 256 256" width="20" height="20"><path fill="none" d="M0 0h256v256H0z"/><path d="M221.6 173.3A102.9 102.9 0 00232 128a104.2 104.2 0 00-77.2-100.5h-.5A103.8 103.8 0 0060.4 49l-1.3 1.2A103.9 103.9 0 00128 232h2.4a104.3 104.3 0 0090.6-57.4zM216 128a89.3 89.3 0 01-5.5 30.7l-46.4-28.5a16 16 0 00-6.3-2.3l-22.8-3a16.1 16.1 0 00-15.3 6.8h-8.6l-3.8-7.9a16.2 16.2 0 00-11-8.7l-6.6-1.4 2.5-5.9a8.1 8.1 0 017.4-4.9h16.1a16.1 16.1 0 007.7-2l12.2-6.8a16.1 16.1 0 003-2.1l26.9-24.4a15.7 15.7 0 004.5-16.9 88 88 0 0146 77.3zm-176 0a87.1 87.1 0 019.5-39.7l10.4 27.9a16.1 16.1 0 0011.6 10l5.5 1.2h.1l12 2.6a7.8 7.8 0 015.5 4.3l2.1 4.4a16.1 16.1 0 0014.4 9h1.2l-7.7 17.2a15.9 15.9 0 002.8 17.4l16.1 17.4a8.3 8.3 0 012 6.9l-1.8 9.3A88.1 88.1 0 0140 128z"/></svg>