<svg xmlns="http://www.w3.org/2000/svg" viewBox="0 0 256 256" width="20" height="20"><path fill="none" d="M0 0h256v256H0z"/><path d="M36.4 98.1a16.3 16.3 0 01-3.2-13.5C40.5 49.5 80.4 24 128 24s87.5 25.5 94.8 60.6a16 16 0 01-15.6 19.4H48.8a16.2 16.2 0 01-12.4-5.9zM225 152.6l-20.1 8-16.9 6.8-37-14.8a7.8 7.8 0 00-6 0l-37 14.8-37-14.8a7.8 7.8 0 00-6 0l-20.1 8-19.9 8a8 8 0 003 15.4 8 8 0 003-.6l9-3.6v4.2a40 40 0 0040 40h96a40 40 0 0040-40v-10.6l15-6a8 8 0 00-6-14.8zm7-32.6H24a8 8 0 000 16h208a8 8 0 000-16z"/></svg>