<svg xmlns="http://www.w3.org/2000/svg" viewBox="0 0 256 256" width="20" height="20"><path fill="none" d="M0 0h256v256H0z"/><path d="M200 80h-16V64a32 32 0 00-56-21.1A31.8 31.8 0 00104 32a32.1 32.1 0 00-31.8 28.4A32 32 0 0024 88v40a104 104 0 00208 0v-16a32.1 32.1 0 00-32-32zm-48-32a16 16 0 0116 16v16h-32V64a16 16 0 0116-16zM88 64a16 16 0 0132 0v40a16 16 0 01-32 0zM40 88a16 16 0 0132 0v16a16 16 0 01-32 0zm88 128a88 88 0 01-87.9-84.2 32 32 0 0039.9-6.7 31.9 31.9 0 0044.6 3.4 32.3 32.3 0 0011.8 11.4A47.7 47.7 0 00120 176a8 8 0 0016 0 32.1 32.1 0 0132-32 8 8 0 000-16h-16a16 16 0 01-16-16V96h64a16 16 0 0116 16v16a88.1 88.1 0 01-88 88z"/></svg>