<svg xmlns="http://www.w3.org/2000/svg" viewBox="0 0 256 256" width="20" height="20"><path fill="none" d="M0 0h256v256H0z"/><path d="M205.5 100.1l-17-29.4a21.9 21.9 0 00-30-8.1 21.5 21.5 0 00-9.6 11.4l-17.6-30.3a21.9 21.9 0 00-30-8.1A21.5 21.5 0 0091.7 47a22.1 22.1 0 00-29.6-7.3 21.9 21.9 0 00-10.2 13.4 20.9 20.9 0 00-.4 9.6 26.5 26.5 0 00-11.1 3.4 26.1 26.1 0 00-9.5 35.6l2 3.4a24.3 24.3 0 00-9.7 3.3 26 26 0 00-9.5 35.5l37 64.1a80 80 0 00146.6-19.3l.3-1.3a76.5 76.5 0 007.9-87.3zm-23.7 84.5a63.3 63.3 0 01-29.8 38.8A64 64 0 0164.6 200l-37-64.1a10 10 0 0111.2-14.7 10.3 10.3 0 016.1 4.7l24 41.6a8.2 8.2 0 006.9 4 8 8 0 006.9-12l-38-65.8a10 10 0 0117.4-10l38 65.8a8 8 0 1013.8-8l-30-52a10.1 10.1 0 013.7-13.7 10 10 0 0113.6 3.7l42 72.8a8.2 8.2 0 007 4 8.6 8.6 0 004-1.1 8 8 0 002.9-10.9l-16-27.8a9.9 9.9 0 01-1-7.5 9.6 9.6 0 014.7-6.1 9.4 9.4 0 017.5-1 9.8 9.8 0 016.1 4.6l17 29.5a63.5 63.5 0 016.4 48.6zM165 24.7l4.1-15.5a8 8 0 1115.5 4.1l-4.2 15.5a7.9 7.9 0 01-7.7 5.9l-2.1-.2a8 8 0 01-5.6-9.8zm26.3 9.2l9.2-13.1a8.1 8.1 0 0111.2-2 8 8 0 011.9 11.2l-9.2 13.1a7.9 7.9 0 01-11.1 1.9 8 8 0 01-2-11.1zm43.9 21.6l-13.1 9.2a8.6 8.6 0 01-4.6 1.4 8 8 0 01-4.6-14.5l13.1-9.2a8 8 0 0111.2 1.9 8.1 8.1 0 01-2 11.2z"/></svg>