<svg xmlns="http://www.w3.org/2000/svg" viewBox="0 0 256 256" width="20" height="20"><path fill="none" d="M0 0h256v256H0z"/><path d="M220.2 104l-20-34.7a28.1 28.1 0 00-47.3-1.9l-17.3-30a28.1 28.1 0 00-38.3-10.3 29.4 29.4 0 00-9.9 9.6 27.9 27.9 0 00-11.5-6.2 27.1 27.1 0 00-21.2 2.8 27.9 27.9 0 00-10.3 38.2l3.4 5.8A28.5 28.5 0 0036 81a28.1 28.1 0 00-10.2 38.2l42 72.8a88 88 0 10152.4-88zm-6.7 62.6a71.2 71.2 0 01-33.5 43.7A72.1 72.1 0 0181.6 184l-42-72.8a12 12 0 0120.8-12l22 38.1a8 8 0 1013.9-8l-22-38.1-16-27.7a12 12 0 01-1.2-9.1 11.8 11.8 0 015.6-7.3 12 12 0 019.1-1.2 12.5 12.5 0 017.3 5.6L87 65.4h.1l26 45a7.7 7.7 0 006.9 4 7.3 7.3 0 004-1.1 8 8 0 002.9-10.9l-26-45a12 12 0 1120.8-12l30 51.9 6.3 11a48.1 48.1 0 00-10.9 61 8 8 0 0013.8-8 32 32 0 0111.7-43.7 8.1 8.1 0 003.8-4.9 8.4 8.4 0 00-.8-6l-10-17.4a12 12 0 0113.5-17.5 11.8 11.8 0 017.2 5.5l20 34.7a70.9 70.9 0 017.2 54.6zm-125.8 78a8.2 8.2 0 01-6.6 3.4 8.6 8.6 0 01-4.6-1.4A117.9 117.9 0 0141.1 208a8 8 0 1113.8-8 102.6 102.6 0 0030.8 33.4 8.1 8.1 0 012 11.2zM168 31a8 8 0 018-8 60.2 60.2 0 0152 30 7.9 7.9 0 01-3 10.9 7.1 7.1 0 01-4 1.1 8 8 0 01-6.9-4A44 44 0 00176 39a8 8 0 01-8-8z"/></svg>