<svg xmlns="http://www.w3.org/2000/svg" viewBox="0 0 256 256" width="20" height="20"><path fill="none" d="M0 0h256v256H0z"/><path d="M188 84a27.6 27.6 0 00-14.6 4.1A28.1 28.1 0 00136 74.7V36a28 28 0 00-56 0v91.4l-7-12.1A28 28 0 0024.3 143c32.5 68.4 54.1 97 103.7 97a88.1 88.1 0 0088-88v-40a28.1 28.1 0 00-28-28zm12 68a72.1 72.1 0 01-72 72c-20.2 0-34.2-5.5-47-18.2S56.3 173 38.7 135.9l-.3-.6a11.6 11.6 0 01-1.2-9.1 11.8 11.8 0 015.6-7.3 12 12 0 019.1-1.2 11.6 11.6 0 017.2 5.6l22 38a8.1 8.1 0 009 3.7 7.9 7.9 0 005.9-7.7V36a12 12 0 0124 0v68a8 8 0 0016 0v-4a12 12 0 0124 0v12a8 8 0 0016 0 12 12 0 0124 0z"/></svg>