<svg xmlns="http://www.w3.org/2000/svg" viewBox="0 0 256 256" width="20" height="20"><path fill="none" d="M0 0h256v256H0z"/><path d="M236 92c0 30.6-17.7 62-52.6 93.4a314.3 314.3 0 01-51.5 37.6 8.1 8.1 0 01-7.8 0c-3.2-1.8-60.4-34.3-88.6-80.9a4 4 0 013.4-6.1H72a7.9 7.9 0 006.7-3.6l9.3-14 25.3 38a8.1 8.1 0 009.2 3.2 8.8 8.8 0 004.3-3.3l13.5-20.3h19.4a8.2 8.2 0 008.3-7.5 8 8 0 00-8-8.5h-24a7.9 7.9 0 00-6.7 3.6l-9.3 14-25.3-38a8.1 8.1 0 00-9.2-3.2 8.8 8.8 0 00-4.3 3.3L67.7 120H27.8a4 4 0 01-3.8-2.8A86.2 86.2 0 0120 92a60 60 0 01108-36 60 60 0 01108 36z"/></svg>