<svg xmlns="http://www.w3.org/2000/svg" viewBox="0 0 256 256" width="20" height="20"><path fill="none" d="M0 0h256v256H0z"/><path d="M239.7 88h-12.8l-6-42.3A16 16 0 00205.1 32H50.9a16 16 0 00-15.8 13.7l-6 42.3H16.3A8.2 8.2 0 008 95.5a8 8 0 008 8.5h12v104a16 16 0 0016 16h24a16 16 0 0016-16v-24h16a4 4 0 004-4v-51.7a8.2 8.2 0 017.5-8.3 8 8 0 018.5 8v52a4 4 0 004 4h8a4 4 0 004-4v-51.7a8.2 8.2 0 017.5-8.3 8 8 0 018.5 8v52a4 4 0 004 4h16v24a16 16 0 0016 16h24a16 16 0 0016-16V104h12a8 8 0 008-8.5 8.2 8.2 0 00-8.3-7.5zM72 144a12 12 0 1112-12 12 12 0 01-12 12zm112 0a12 12 0 1112-12 12 12 0 01-12 12z"/></svg>