<svg xmlns="http://www.w3.org/2000/svg" viewBox="0 0 256 256" width="20" height="20"><path fill="none" d="M0 0h256v256H0z"/><path d="M202.2 200.8a103.8 103.8 0 000-145.6 2.3 2.3 0 00-.7-.7 2.3 2.3 0 00-.7-.7 103.8 103.8 0 00-145.6 0 2.3 2.3 0 00-.7.7 2.3 2.3 0 00-.7.7 103.8 103.8 0 000 145.6l.7.7a2.3 2.3 0 00.7.7 103.8 103.8 0 00145.6 0 2.3 2.3 0 00.7-.7 2.3 2.3 0 00.7-.7zM96 128a32 32 0 1132 32 32.1 32.1 0 01-32-32zm88.3-67.6l-28.5 28.5a47.9 47.9 0 00-55.6 0L71.7 60.4a87.9 87.9 0 01112.6 0zM71.7 195.6l28.5-28.5a47.9 47.9 0 0055.6 0l28.5 28.5a87.9 87.9 0 01-112.6 0z"/></svg>