<svg xmlns="http://www.w3.org/2000/svg" viewBox="0 0 256 256" width="20" height="20"><path fill="none" d="M0 0h256v256H0z"/><path d="M176 232a8 8 0 01-8 8H88a8 8 0 010-16h80a8 8 0 018 8zm40-128a87.7 87.7 0 01-33.6 69.2A16.1 16.1 0 00176 186v6a16 16 0 01-16 16H96a16 16 0 01-16-16v-6a16.2 16.2 0 00-6.2-12.7A87.8 87.8 0 0140 104.5c-.3-47.7 38.3-87.4 85.9-88.5a87.9 87.9 0 0190.1 88zm-50.3 2.3a8.1 8.1 0 00-11.4 0L128 132.7l-26.3-26.4a8.1 8.1 0 00-11.4 11.4l29.7 29.6V184a8 8 0 0016 0v-36.7l29.7-29.6a8.1 8.1 0 000-11.4z"/></svg>