<svg xmlns="http://www.w3.org/2000/svg" viewBox="0 0 256 256" width="20" height="20"><path fill="none" d="M0 0h256v256H0z"/><path d="M88 72V48a8 8 0 0116 0v24a8 8 0 01-16 0zm72 104a8 8 0 00-8 8v24a8 8 0 0016 0v-24a8 8 0 00-8-8zM48 104h24a8 8 0 000-16H48a8 8 0 000 16zm160 48h-24a8 8 0 000 16h24a8 8 0 000-16zm-86.1 27.3l-11.3 11.3a32 32 0 01-45.2-45.2l11.3-11.3a8.1 8.1 0 000-11.4 8 8 0 00-11.3 0l-11.3 11.4a47.9 47.9 0 1067.8 67.8l11.4-11.3a8 8 0 000-11.3 8.1 8.1 0 00-11.4 0zm68.7-113.9a31.9 31.9 0 010 45.2l-11.3 11.3a8.1 8.1 0 000 11.4 8.3 8.3 0 005.7 2.3 8 8 0 005.6-2.3l11.3-11.4a47.9 47.9 0 00-67.8-67.8l-11.4 11.3a8 8 0 000 11.3 8.1 8.1 0 0011.4 0l11.3-11.3a31.9 31.9 0 0145.2 0z"/></svg>