<svg xmlns="http://www.w3.org/2000/svg" viewBox="0 0 256 256" width="20" height="20"><path fill="none" d="M0 0h256v256H0z"/><path d="M161.2 217.7a4 4 0 01-3.3 6.3H98.1a4 4 0 01-3.3-6.3 40 40 0 0166.4 0zm68.6 3.8a8.2 8.2 0 01-6 2.5h-39.2a4.1 4.1 0 01-3.8-2.7 56 56 0 00-105.6 0 4.1 4.1 0 01-3.8 2.7H32.2a8 8 0 01-6-2.5 7.9 7.9 0 01-1.1-9.5c.3-.5 30.9-55 30.9-116a72.1 72.1 0 0172.5-72c39.6.3 71.4 32.9 71.5 72.5.2 60.8 30.6 115 30.9 115.5a7.9 7.9 0 01-1.1 9.5zM88 108a12 12 0 1012-12 12 12 0 00-12 12zm79.2 32.4a8.2 8.2 0 00-10.8-3.6L128 151.1l-28.4-14.3a8 8 0 10-7.2 14.4l32 16a8.5 8.5 0 007.2 0l32-16a8.2 8.2 0 003.6-10.8zm.8-32.4a12 12 0 10-12 12 12 12 0 0012-12z"/></svg>