<svg xmlns="http://www.w3.org/2000/svg" viewBox="0 0 256 256" width="20" height="20"><path fill="none" d="M0 0h256v256H0z"/><path d="M224 128a8 8 0 01-8 8h-88a8 8 0 010-16h88a8 8 0 018 8zm-96-56h88a8 8 0 000-16h-88a8 8 0 000 16zm88 112h-88a8 8 0 000 16h88a8 8 0 000-16zM86.6 42.1l-29.3 27-11.9-11a8 8 0 00-10.8 11.8l17.3 16a8 8 0 005.4 2.1 8.2 8.2 0 005.5-2.1l34.6-32a8 8 0 10-10.8-11.8zm0 64l-29.3 27-11.9-11a8 8 0 10-10.8 11.8l17.3 16a8 8 0 005.4 2.1 8.2 8.2 0 005.5-2.1l34.6-32a8 8 0 10-10.8-11.8zm0 64l-29.3 27-11.9-11a8 8 0 10-10.8 11.8l17.3 16a8 8 0 005.4 2.1 8.2 8.2 0 005.5-2.1l34.6-32a8 8 0 00-10.8-11.8z"/></svg>