<svg xmlns="http://www.w3.org/2000/svg" viewBox="0 0 256 256" width="20" height="20"><path fill="none" d="M0 0h256v256H0z"/><path d="M207 50.2A87.7 87.7 0 00144.6 24h-.3A87.3 87.3 0 0082 49.8L48.3 83.9l-32.4 32.8a16.1 16.1 0 00.1 22.6l28.6 28.6a15.6 15.6 0 0011.3 4.7h.1a15.8 15.8 0 0011.4-4.8l32-32.8 33.6-34.3a16.1 16.1 0 0122.4-.2 15.7 15.7 0 014.7 11.2 17 17 0 01-4.9 12l-34.1 33-32.8 31.9a15.9 15.9 0 00-.2 22.8l28.6 28.7a16.3 16.3 0 0022.6.1l32.9-32.4 33.6-32.9c34.4-34.4 35-90.3 1.2-124.7zM55.9 156.6L27.3 128 54 100.9l28.5 28.5zm72.2 72.1l-28.7-28.6 27.3-26.5 28.5 28.5z"/></svg>