<svg xmlns="http://www.w3.org/2000/svg" viewBox="0 0 256 256" width="20" height="20"><path fill="none" d="M0 0h256v256H0z"/><path d="M217 35.1a15.9 15.9 0 00-14.8-1.7C188.2 38.9 159.8 48 128 48s-60.2-9.1-74.2-14.6A16 16 0 0032 48.3V104c0 35.8 9.7 69.5 27.2 95s42.6 41 68.8 41 50.7-14.5 68.8-41 27.2-59.2 27.2-95V48.3a15.9 15.9 0 00-7-13.2zM68.2 125.3a8 8 0 01.6-11.3 8 8 0 0111.3.7 16 16 0 0023.8 0 8 8 0 0111.3-.7 8 8 0 01.6 11.3 31.8 31.8 0 01-47.6 0zm93 63.1a8.1 8.1 0 01-11.1 2.3 39.8 39.8 0 00-44.2 0 8 8 0 01-11.1-2.3 8.1 8.1 0 012.2-11.1 56.3 56.3 0 0162 0 8.1 8.1 0 012.2 11.1zm26.6-63.1a31.8 31.8 0 01-47.6 0 8 8 0 01.6-11.3 8 8 0 0111.3.7 16 16 0 0023.8 0 8 8 0 0111.3-.7 8 8 0 01.6 11.3z"/></svg>