<svg xmlns="http://www.w3.org/2000/svg" viewBox="0 0 256 256" width="20" height="20"><path fill="none" d="M0 0h256v256H0z"/><path d="M240 120a48 48 0 00-48-48h-40c-.5 0-52.4-.7-101.7-42.1a15.9 15.9 0 00-17.1-2.2A15.7 15.7 0 0024 42.2v155.6a15.7 15.7 0 009.2 14.5 16.4 16.4 0 006.8 1.5 15.9 15.9 0 0010.3-3.7c37.9-31.8 77.2-39.6 93.7-41.5v35.1a15.9 15.9 0 007.1 13.3l11 7.4a16.8 16.8 0 0014.7 1.6 15.9 15.9 0 009.7-11.1l11.9-47.3A48.2 48.2 0 00240 120zm-69 91l-11-7.3V168h21.8zm21-59h-32V88h32a32 32 0 010 64z"/></svg>