<svg xmlns="http://www.w3.org/2000/svg" viewBox="0 0 256 256" width="20" height="20"><path fill="none" d="M0 0h256v256H0z"/><path d="M102 120a8 8 0 00-8-8h-8v16h8a8 8 0 008-8z"/><path d="M136 24a104.5 104.5 0 00-82 40H40a16 16 0 00-16 16v96a16 16 0 0016 16h14a104 104 0 1082-168zM70 152v-48a8 8 0 018-8h16a24 24 0 010 48h-8v8a8 8 0 01-16 0zm58 63.6A88.7 88.7 0 0175.6 192H128zM128 64H75.6A88.7 88.7 0 01128 40.4zm16-23.6a88 88 0 0179.6 79.6H160V80a16 16 0 00-16-16zm0 175.2V192a16 16 0 0016-16v-40h63.6a88 88 0 01-79.6 79.6z"/></svg>