<svg xmlns="http://www.w3.org/2000/svg" viewBox="0 0 256 256" width="20" height="20"><path fill="none" d="M0 0h256v256H0z"/><path d="M232 56a8 8 0 01-8 8h-16v16a8 8 0 01-16 0V64h-16a8 8 0 010-16h16V32a8 8 0 0116 0v16h16a8 8 0 018 8zm-24 55.2a8 8 0 00-8 8v22.9a35.3 35.3 0 00-20-6.1 36 36 0 1036 36v-52.8a8 8 0 00-8-8zm-45.6-11.7a7.9 7.9 0 004.4-5.2 8.3 8.3 0 00-2-7.7 9 9 0 00-2.6-1.7A32.3 32.3 0 01144 56a37.1 37.1 0 01.3-4.7 7.9 7.9 0 00-2-6.9 8.1 8.1 0 00-7.8-2.3L78.1 56.2A8 8 0 0072 64v110.1a35.3 35.3 0 00-20-6.1 36 36 0 1036 36v-85.8l72.8-18.2z"/></svg>