<svg xmlns="http://www.w3.org/2000/svg" viewBox="0 0 256 256" width="20" height="20"><path fill="none" d="M0 0h256v256H0z"/><path d="M137.9 111.9a14 14 0 10-19.8 0 14.3 14.3 0 0019.8 0zM128 132a18 18 0 00-12.7 30.7 18.4 18.4 0 0025.4 0A18 18 0 00128 132z"/><path d="M208 32H48a16 16 0 00-16 16v160a16 16 0 0016 16h160a16 16 0 0016-16V48a16 16 0 00-16-16zm-56 142a33.9 33.9 0 11-48-48 26.6 26.6 0 013.1-2.6l-.3-.2a29.9 29.9 0 010-42.4c11.3-11.3 31.1-11.3 42.4 0a29.9 29.9 0 010 42.4l-.3.2a26.6 26.6 0 013.1 2.6 33.8 33.8 0 010 48z"/></svg>