<svg xmlns="http://www.w3.org/2000/svg" viewBox="0 0 256 256" width="20" height="20"><path fill="none" d="M0 0h256v256H0z"/><path d="M183.9 148a12 12 0 11-12-12 12 12 0 0112 12zm29.4 17.3a87.7 87.7 0 01-85.4 66.7 86.7 86.7 0 01-34.6-7.1l-1.2-.5a88.4 88.4 0 01-51.5-69.3 99.9 99.9 0 01-.7-11A87.3 87.3 0 0154 96.3 36 36 0 0170 28a8.5 8.5 0 013.5.8l114.2 55.1A20 20 0 00186 44a8 8 0 010-16 36 36 0 010 72 8.5 8.5 0 01-3.5-.8L126.3 72A72.1 72.1 0 0056 141.3L92.1 122l32.1-17.1a8 8 0 0111.7 7.1v103.5a71.7 71.7 0 0061.9-54.1 8 8 0 0115.5 3.9zm-93.4-40l-16 8.6v78a71.5 71.5 0 0016 3.6zM64.4 83.2a87.4 87.4 0 0137.1-23.1l-33.2-16a20 20 0 00-3.9 39.1zm23.5 120.6v-61.4l-30.5 16.3a72.1 72.1 0 0030.5 45.1z"/></svg>