<svg xmlns="http://www.w3.org/2000/svg" viewBox="0 0 256 256" width="20" height="20"><path fill="none" d="M0 0h256v256H0z"/><path d="M229.9 70.8a.1.1 0 01-.1-.1 16.2 16.2 0 00-6-5.9l-88-49.5a16 16 0 00-15.6 0l-88 49.5a16.2 16.2 0 00-6 5.9.1.1 0 01-.1.1v.2a15 15 0 00-2.1 7.7v98.6a16.1 16.1 0 008.2 14l88 49.5a16.5 16.5 0 007.2 2h1.4a15.7 15.7 0 007-2l88-49.5a16.1 16.1 0 008.2-14V78.7a15.6 15.6 0 00-2.1-7.9zM128 29.2L207.7 74l-30.6 17.4-80.7-44.5zm.9 89.6L48.4 74 80 56.2l80.8 44.5zm7.2 103.5l.8-89.6 32.1-18.3v38.1a8 8 0 0016 0v-47.2l31-17.6v89.6z"/></svg>