<svg xmlns="http://www.w3.org/2000/svg" viewBox="0 0 256 256" width="20" height="20"><path fill="none" d="M0 0h256v256H0z"/><path d="M200.8 53.9A103.4 103.4 0 00128 24h-1.1a104 104 0 00-33.5 202.1 32 32 0 0042.6-30.2V192a16 16 0 0116-16h46.2a31.7 31.7 0 0031.2-24.9 101.5 101.5 0 002.6-24 102.9 102.9 0 00-31.2-73.2zM89 164.4a12 12 0 114.4-16.4 12 12 0 01-4.4 16.4zm4.4-56.4A12 12 0 1189 91.6a12.1 12.1 0 014.4 16.4zM128 88a12 12 0 1112-12 12 12 0 01-12 12zm51 24.4a12 12 0 114.4-16.4 12.1 12.1 0 01-4.4 16.4z"/></svg>