<svg xmlns="http://www.w3.org/2000/svg" viewBox="0 0 256 256" width="20" height="20"><path fill="none" d="M0 0h256v256H0z"/><path d="M48 56v144a8 8 0 01-16 0V56a8 8 0 0116 0zm84 54.5l-20 6.5V96a8 8 0 00-16 0v21l-20-6.5a7.8 7.8 0 00-10 5.1 7.9 7.9 0 005.1 10.1l20 6.5-12.4 17a8 8 0 001.8 11.2 8.1 8.1 0 0011.2-1.8l12.3-17 12.3 17a8.1 8.1 0 0011.2 1.8 8 8 0 001.8-11.2l-12.4-17 20-6.5a7.9 7.9 0 005.1-10.1 7.8 7.8 0 00-10-5.1zm106 5.1a7.8 7.8 0 00-10-5.1l-20 6.5V96a8 8 0 00-16 0v21l-20-6.5a7.8 7.8 0 00-10 5.1 7.9 7.9 0 005.1 10.1l20 6.5-12.4 17a8 8 0 001.8 11.2 8.1 8.1 0 0011.2-1.8l12.3-17 12.3 17a8.1 8.1 0 0011.2 1.8 8 8 0 001.8-11.2l-12.4-17 20-6.5a7.9 7.9 0 005.1-10.1z"/></svg>