<svg xmlns="http://www.w3.org/2000/svg" viewBox="0 0 256 256" width="20" height="20"><path fill="none" d="M0 0h256v256H0z"/><path d="M240 108a28 28 0 11-28-28 28.1 28.1 0 0128 28zm-168 0a28 28 0 10-28 28 28.1 28.1 0 0028-28zm20-20a28 28 0 10-28-28 28.1 28.1 0 0028 28zm72 0a28 28 0 10-28-28 28.1 28.1 0 0028 28zm23.1 60.8a35.3 35.3 0 01-16.9-21.1 43.9 43.9 0 00-84.4 0A35.5 35.5 0 0169 148.8 40 40 0 0088 224a40.5 40.5 0 0015.5-3.1 64.2 64.2 0 0148.9-.1A39.6 39.6 0 00168 224a40 40 0 0019.1-75.2z"/></svg>