<svg xmlns="http://www.w3.org/2000/svg" viewBox="0 0 256 256" width="20" height="20"><path fill="none" d="M0 0h256v256H0z"/><path d="M205.7 61.7l-144 144a8.2 8.2 0 01-11.4 0 8.1 8.1 0 010-11.4l144-144a8.1 8.1 0 0111.4 11.4zM50.5 101.5a36.2 36.2 0 010-51 36.2 36.2 0 0151 0 36.1 36.1 0 01-51 51zM56 76a19.7 19.7 0 005.9 14.1 19.9 19.9 0 0028.2 0 19.8 19.8 0 000-28.2 19.8 19.8 0 00-28.2 0A19.7 19.7 0 0056 76zm160 104a36 36 0 11-61.5-25.5 36.2 36.2 0 0151 0A35.9 35.9 0 01216 180zm-16 0a19.7 19.7 0 00-5.9-14.1 19.8 19.8 0 00-28.2 0A19.9 19.9 0 10200 180z"/></svg>