<svg xmlns="http://www.w3.org/2000/svg" viewBox="0 0 256 256" width="20" height="20"><path fill="none" d="M0 0h256v256H0z"/><circle cx="127.9" cy="44" r="36"/><path d="M211.7 139.5l-39.4-50.6-.6-.7a27.8 27.8 0 00-19.8-8.2h-48a27.8 27.8 0 00-19.8 8.2l-.7.7-39.3 50.6a20 20 0 0028.3 28.3l14.1-11-19.9 62.7a20.2 20.2 0 00-.4 14.7 19.9 19.9 0 0010.4 11.3 19.6 19.6 0 0015.2.7 20.2 20.2 0 0011.1-9.8l25-39.4 25 39.4a20.4 20.4 0 0011 9.8 20.9 20.9 0 006.9 1.2 19.1 19.1 0 008.4-1.9 20.2 20.2 0 0010.4-11.3 19.7 19.7 0 00-.5-14.7l-19.8-62.7 14.1 11a20 20 0 0027.9-.4 19.7 19.7 0 005.8-14.1 19.9 19.9 0 00-5.4-13.8z"/></svg>