<svg xmlns="http://www.w3.org/2000/svg" viewBox="0 0 256 256" width="20" height="20"><path fill="none" d="M0 0h256v256H0z"/><path d="M222 158.4l-46.9-20a15.6 15.6 0 00-15.1 1.3l-25.1 16.7a76.5 76.5 0 01-35.2-35L116.3 96a15.9 15.9 0 001.4-15.1L97.6 34a16.3 16.3 0 00-16.7-9.6A56.2 56.2 0 0032 80c0 79.4 64.6 144 144 144a56.2 56.2 0 0055.6-48.9 16.3 16.3 0 00-9.6-16.7z"/><path d="M152.1 97.1a.9.9 0 00.1.5v.3a.8.8 0 01.1.4l.2.4c0 .1.1.2.1.4l.2.3c0 .1.1.2.1.4l.2.3.3.3.2.3a.8.8 0 00.2.4c.1.1.3.2.4.4a.3.3 0 01.1.2h.2l.4.4.4.2.3.3.3.2.3.2h.4l.3.2h.4l.4.2H200a8 8 0 000-16h-20.7l34.4-34.3a8.1 8.1 0 00-11.4-11.4l-34.3 35V56a8 8 0 00-16 0v40.8a.4.4 0 01.1.3z"/></svg>