<svg xmlns="http://www.w3.org/2000/svg" viewBox="0 0 256 256" width="20" height="20"><path fill="none" d="M0 0h256v256H0z"/><path d="M231.6 175.1A56.2 56.2 0 01176 224C96.6 224 32 159.4 32 80a56.2 56.2 0 0148.9-55.6A16.3 16.3 0 0197.6 34l20.1 46.9a15.9 15.9 0 01-1.4 15.1l-16.6 25.4a76.5 76.5 0 0035.2 35l25.1-16.7a15.6 15.6 0 0115.1-1.3l46.9 20a16.3 16.3 0 019.6 16.7zM160 104a8.5 8.5 0 005.7-2.3L200 67.3V88a8 8 0 0016 0V48a8 8 0 00-8-8h-40a8 8 0 000 16h20.7l-34.4 34.3a8.1 8.1 0 000 11.4 8.5 8.5 0 005.7 2.3z"/></svg>