<svg xmlns="http://www.w3.org/2000/svg" viewBox="0 0 256 256" width="20" height="20"><path fill="none" d="M0 0h256v256H0z"/><path d="M202.2 200.8a103.8 103.8 0 000-145.6 2.3 2.3 0 00-.7-.7 2.3 2.3 0 00-.7-.7 103.8 103.8 0 00-145.6 0 2.3 2.3 0 00-.7.7 2.3 2.3 0 00-.7.7 103.8 103.8 0 000 145.6l.7.7a2.3 2.3 0 00.7.7 103.8 103.8 0 00145.6 0 2.3 2.3 0 00.7-.7 2.3 2.3 0 00.7-.7zM40.4 136h24.1a63.6 63.6 0 0013 31.2l-17.1 17.1a87.5 87.5 0 01-20-48.3zm20-64.3l17.1 17.1a63.6 63.6 0 00-13 31.2H40.4a87.5 87.5 0 0120-48.3zM215.6 120h-24.1a63.6 63.6 0 00-13-31.2l17.1-17.1a87.5 87.5 0 0120 48.3zm-48.4-42.5a63.6 63.6 0 00-31.2-13V40.4a87.5 87.5 0 0148.3 20zm-47.2-13a63.6 63.6 0 00-31.2 13L71.7 60.4a87.5 87.5 0 0148.3-20zm-31.2 114a63.6 63.6 0 0031.2 13v24.1a87.5 87.5 0 01-48.3-20zm47.2 13a63.6 63.6 0 0031.2-13l17.1 17.1a87.5 87.5 0 01-48.3 20zm42.5-24.3a63.6 63.6 0 0013-31.2h24.1a87.5 87.5 0 01-20 48.3z"/></svg>