<svg xmlns="http://www.w3.org/2000/svg" viewBox="0 0 256 256" width="20" height="20"><path fill="none" d="M0 0h256v256H0z"/><path d="M96 32a8 8 0 018-8h48a8 8 0 010 16h-48a8 8 0 01-8-8zm152 88a8 8 0 01-8 8h-8v80a16 16 0 01-16 16h-24a16 16 0 01-16-16v-16H80v16a16 16 0 01-16 16H40a16 16 0 01-16-16v-80h-8a8 8 0 010-16h11.4l27.4-47.9A15.9 15.9 0 0168.6 56h118.8a15.9 15.9 0 0113.8 8.1l27.4 47.9H240a8 8 0 018 8zM88 152a8 8 0 00-8-8H64a8 8 0 000 16h16a8 8 0 008-8zm112 0a8 8 0 00-8-8h-16a8 8 0 000 16h16a8 8 0 008-8z"/></svg>