<svg xmlns="http://www.w3.org/2000/svg" viewBox="0 0 256 256" width="20" height="20"><path fill="none" d="M0 0h256v256H0z"/><path d="M213.4 221.9a8.2 8.2 0 01-5.4 2.1 8 8 0 01-5.9-2.6l-34-37.4H136v56a8 8 0 01-16 0v-56H40a8 8 0 010-16h9.3l16.9-96-24.1-26.6a8 8 0 0111.8-10.8l75.2 82.8 48.5 53.2 36.3 40a7.9 7.9 0 01-.5 11.3zm-22.9-60.8a7.9 7.9 0 005.9 2.6 8.5 8.5 0 003.5-.8 8.1 8.1 0 004.4-8.6L185.5 48h6.5a8 8 0 000-16H91.2a8 8 0 00-5.2 2 9.4 9.4 0 00-1 1 8.3 8.3 0 00-1.7 4.5 1.1 1.1 0 000 .8 7.9 7.9 0 002 5.1z"/></svg>