<svg xmlns="http://www.w3.org/2000/svg" viewBox="0 0 256 256" width="20" height="20"><path fill="none" d="M0 0h256v256H0z"/><path d="M216 72H86.5l107.8-32.3a8 8 0 10-4.6-15.4l-160 48-.7.3h-.1l-.5.3H28a6.8 6.8 0 00-2.1 1.7.1.1 0 01-.1.1c-.1.1-.1.2-.2.4l-.2.2a.3.3 0 00-.1.2 6.7 6.7 0 00-1 2.3c-.1.1-.1.2-.1.4h-.1a2 2 0 01-.1.7V200a16 16 0 0016 16h176a16 16 0 0016-16V88a16 16 0 00-16-16zM96 184H56a8 8 0 010-16h40a8 8 0 010 16zm0-32H56a8 8 0 010-16h40a8 8 0 010 16zm0-32H56a8 8 0 010-16h40a8 8 0 010 16zm72 52a28 28 0 1128-28 28.1 28.1 0 01-28 28z"/></svg>