<svg xmlns="http://www.w3.org/2000/svg" viewBox="0 0 256 256" width="20" height="20"><path fill="none" d="M0 0h256v256H0z"/><path d="M248 160a48 48 0 01-48 48h-48c-17.6 0-32-14.8-32-32.9s14.4-32.9 32-32.9l3.3.2A48 48 0 01248 160zM112 72a87.3 87.3 0 0161.3 24.9 8 8 0 1011.2-11.5A104 104 0 008 160v16a8 8 0 0016 0v-16a88.1 88.1 0 0188-88zm0 32a56 56 0 0133.1 10.8 8 8 0 109.5-12.8A70.9 70.9 0 00112 88a72.1 72.1 0 00-72 72v16a8 8 0 0016 0v-16a56 56 0 0156-56zm15.2 26.7a7.9 7.9 0 00-5.9-9.6 42.2 42.2 0 00-9.3-1.1 40 40 0 00-40 40v16a8 8 0 0016 0v-16a24.1 24.1 0 0124-24 26 26 0 015.6.6 7.9 7.9 0 009.6-5.9z"/></svg>