<svg xmlns="http://www.w3.org/2000/svg" viewBox="0 0 256 256" width="20" height="20"><path fill="none" d="M0 0h256v256H0z"/><path d="M236.8 204a23.9 23.9 0 01-20.8 12h-56v16a8 8 0 01-4.9 7.4 8.5 8.5 0 01-3.1.6 8.3 8.3 0 01-5.7-2.3l-24-24.1a7.9 7.9 0 01-2.3-5.6 8.1 8.1 0 012.3-5.7l24-24a8.4 8.4 0 018.8-1.7 8 8 0 014.9 7.4v16h56a7.9 7.9 0 006.9-4 7.8 7.8 0 000-8l-24-41.4a8 8 0 0113.9-8l23.9 41.4a23.7 23.7 0 01.1 24zM88 200H40a7.9 7.9 0 01-6.9-4 7.8 7.8 0 010-8l28-48.3 13.9 8a8 8 0 004 1.1 7.8 7.8 0 004.8-1.7 8 8 0 002.9-8.4l-8.8-32.8a8.1 8.1 0 00-3.7-4.8 7.7 7.7 0 00-6.1-.8L35.3 109a8 8 0 00-5.8 6.7 7.9 7.9 0 003.9 8l13.8 8L19.3 180A23.9 23.9 0 0040 216h48a8 8 0 000-16zm40-168a7.8 7.8 0 016.9 4l28 48.3-13.8 8a7.9 7.9 0 001.9 14.6l32.8 8.8 2 .3a8.1 8.1 0 007.8-5.9l8.8-32.8a8.1 8.1 0 00-2.9-8.5 8 8 0 00-8.9-.5l-13.9 8L148.8 28a24 24 0 00-41.6 0L83.3 69.4a8 8 0 1013.8 8l24-41.4a7.8 7.8 0 016.9-4z"/></svg>