<svg xmlns="http://www.w3.org/2000/svg" viewBox="0 0 256 256" width="20" height="20"><path fill="none" d="M0 0h256v256H0z"/><path d="M24 128a72.1 72.1 0 0172-72h96V40a8 8 0 014.9-7.4 8.4 8.4 0 018.8 1.7l24 24a8.1 8.1 0 010 11.4l-24 24A8.3 8.3 0 01200 96a8.5 8.5 0 01-3.1-.6A8 8 0 01192 88V72H96a56 56 0 00-56 56 8 8 0 01-16 0zm200-8a8 8 0 00-8 8 56 56 0 01-56 56H64v-16a8 8 0 00-4.9-7.4 8.4 8.4 0 00-8.8 1.7l-24 24a8.1 8.1 0 000 11.4l24 24A8.3 8.3 0 0056 224a8.5 8.5 0 003.1-.6A8 8 0 0064 216v-16h96a72.1 72.1 0 0072-72 8 8 0 00-8-8zm-92 40a8 8 0 008-8v-48a7.9 7.9 0 00-3.8-6.8 8 8 0 00-7.8-.4l-16 8a8.2 8.2 0 00-3.6 10.8 8.1 8.1 0 0010.8 3.5l4.4-2.2V152a8 8 0 008 8z"/></svg>