<svg xmlns="http://www.w3.org/2000/svg" viewBox="0 0 256 256" width="20" height="20"><path fill="none" d="M0 0h256v256H0z"/><path d="M236.7 88.4a16.6 16.6 0 01-5 11.3L99.3 232a15.9 15.9 0 01-22.6 0L24 179.3a15.9 15.9 0 010-22.6l21.9-21.9a4 4 0 015.6 0l34.8 34.9A8.5 8.5 0 0092 172a8 8 0 006.1-2.8 8.3 8.3 0 00-.6-11.1l-34.7-34.6a4 4 0 010-5.6l19.1-19.1a4 4 0 015.6 0l34.8 34.9a8.5 8.5 0 005.7 2.3 8 8 0 006.1-2.8 8.3 8.3 0 00-.6-11.1L98.8 87.5a4 4 0 010-5.6l19.1-19.1a4 4 0 015.6 0l34.8 34.9a8.5 8.5 0 005.7 2.3 8 8 0 006.1-2.8 8.3 8.3 0 00-.6-11.1l-34.7-34.6a4 4 0 010-5.6L156.7 24a16.1 16.1 0 0122.6 0L232 76.7a16 16 0 014.7 11.7z"/></svg>