<svg xmlns="http://www.w3.org/2000/svg" viewBox="0 0 256 256" width="20" height="20"><path fill="none" d="M0 0h256v256H0z"/><path d="M239.4 133l-32-80-.5-.9-.6-.8c-.1-.1-.1-.1-.1-.2l-.8-.8a.1.1 0 01-.1-.1l-.7-.5-.2-.2-.9-.5h-.2l-.8-.3h-.2l-1-.2h-3L136 62V40a8 8 0 00-16 0v25.6L54.3 80.2h-.7l-1 .4h-.2l-.8.4a.1.1 0 01-.1.1l-.9.7a.1.1 0 01-.1.1l-.6.7h-.1a2.4 2.4 0 00-.6.9l-.2.2-.4.9h-.1L16.6 165a8 8 0 00-.6 3c0 23.3 24.5 32 40 32s40-8.7 40-32a8 8 0 00-.6-3L66.9 93.8 120 82v126h-16a8 8 0 000 16h48a8 8 0 000-16h-16V78.4l50.9-11.3-26.3 65.9a8 8 0 00-.6 3c0 23.3 24.5 32 40 32s40-8.7 40-32a8 8 0 00-.6-3zM32.6 168L56 109.5 79.4 168zm144-32L200 77.5l23.4 58.5z"/></svg>