<svg xmlns="http://www.w3.org/2000/svg" viewBox="0 0 256 256" width="20" height="20"><path fill="none" d="M0 0h256v256H0z"/><path d="M157.7 113.1a8 8 0 012.1-11.1l67.7-46.3a8 8 0 0111.1 2.1 7.9 7.9 0 01-2.1 11.1l-67.6 46.3a7.8 7.8 0 01-4.6 1.4 8 8 0 01-6.6-3.5zm80.9 85.1a7.9 7.9 0 01-6.6 3.5 8.2 8.2 0 01-4.5-1.4L136 137.7l-42.5 29.1A36.4 36.4 0 0196 180a36.1 36.1 0 11-11.6-26.4l37.4-25.6-37.4-25.6A35.5 35.5 0 0160 112a36 36 0 1133.5-22.8l143 97.9a7.9 7.9 0 012.1 11.1zM80 180a19.7 19.7 0 00-5.9-14.1 19.8 19.8 0 00-28.2 0 19.8 19.8 0 000 28.2 19.9 19.9 0 0028.2 0A19.7 19.7 0 0080 180zm-5.9-89.9a19.8 19.8 0 000-28.2 19.8 19.8 0 00-28.2 0 19.8 19.8 0 000 28.2 19.9 19.9 0 0028.2 0z"/></svg>