<svg xmlns="http://www.w3.org/2000/svg" viewBox="0 0 256 256" width="20" height="20"><path fill="none" d="M0 0h256v256H0z"/><path d="M80 56v-8a16 16 0 0116-16h8a8 8 0 010 16h-8v8a8 8 0 01-16 0zm64-8h16a8 8 0 000-16h-16a8 8 0 000 16zm64-16h-8a8 8 0 000 16h8v8a8 8 0 0016 0v-8a16 16 0 00-16-16zm8 56a8 8 0 00-8 8v16a8 8 0 0016 0V96a8 8 0 00-8-8zm-40 8v112a16 16 0 01-16 16H48a16 16 0 01-16-16V96a16 16 0 0116-16h112a16 16 0 0116 16zm-16 0H48v112h112zm56 48a8 8 0 00-8 8v8h-8a8 8 0 000 16h8a16 16 0 0016-16v-8a8 8 0 00-8-8z"/></svg>