<svg xmlns="http://www.w3.org/2000/svg" viewBox="0 0 256 256" width="20" height="20"><path fill="none" d="M0 0h256v256H0z"/><path d="M227.9 237.9a8.2 8.2 0 01-5.4 2.1 8 8 0 01-5.9-2.6l-29.2-32.1a146.4 146.4 0 01-54.4 33.5 14.3 14.3 0 01-10 0c-15.2-5-91-34.7-91-124.1V56a15.9 15.9 0 017.5-13.5L27.6 29.4a7.9 7.9 0 01.5-11.3 8 8 0 0111.3.5l21.8 24 132.3 145.5 34.9 38.4a8 8 0 01-.5 11.4zm-28.3-66.8a7.9 7.9 0 005.9 2.6h1.3a7.9 7.9 0 006-4.6c7.4-16.3 11.2-34.6 11.2-54.3V56a16 16 0 00-16-16H98.5a8.1 8.1 0 00-7.3 4.8 8 8 0 001.4 8.6z"/></svg>