<svg xmlns="http://www.w3.org/2000/svg" viewBox="0 0 256 256" width="20" height="20"><path fill="none" d="M0 0h256v256H0z"/><path d="M72 228a12 12 0 11-12-12 12 12 0 0112 12zm16-40a12 12 0 1012 12 12 12 0 00-12-12zm-60-4a12 12 0 1012 12 12 12 0 00-12-12zm40-16a12 12 0 10-12 12 12 12 0 0012-12zM248 32h-28.7a15.9 15.9 0 00-11.3 4.7l-27.8 27.8L54 85.6a15.7 15.7 0 00-12.6 10.9 16 16 0 003.9 16.1l98.1 98.1a16 16 0 0011.2 4.7 16.2 16.2 0 004.9-.8 15.7 15.7 0 0010.9-12.6l21.1-126.2L219.3 48H248a8 8 0 000-16z"/></svg>