<svg xmlns="http://www.w3.org/2000/svg" viewBox="0 0 256 256" width="20" height="20"><path fill="none" d="M0 0h256v256H0z"/><path d="M124.1 16.1c-51.6 1.9-93.7 43.6-96 95.3A99.4 99.4 0 0072 198.9V216a16 16 0 0016 16h8a4 4 0 004-4v-23.7a8.2 8.2 0 017.5-8.3 8 8 0 018.5 8v24a4 4 0 004 4h16a4 4 0 004-4v-23.7a8.2 8.2 0 017.5-8.3 8 8 0 018.5 8v24a4 4 0 004 4h8a16 16 0 0016-16v-17.1a100 100 0 00-59.9-182.8zM92 152a20 20 0 1120-20 20.1 20.1 0 01-20 20zm72 0a20 20 0 1120-20 20.1 20.1 0 01-20 20z"/></svg>