<svg xmlns="http://www.w3.org/2000/svg" viewBox="0 0 256 256" width="20" height="20"><path fill="none" d="M0 0h256v256H0z"/><path d="M128 24a104 104 0 10104 104A104.2 104.2 0 00128 24zm-18.3 98.3a8.1 8.1 0 010 11.4 8.2 8.2 0 01-11.4 0L88 123.3l-10.3 10.4a8.2 8.2 0 01-11.4 0 8.1 8.1 0 010-11.4L76.7 112l-10.4-10.3a8.1 8.1 0 0111.4-11.4L88 100.7l10.3-10.4a8.1 8.1 0 0111.4 11.4L99.3 112zM128 192a12 12 0 1112-12 12 12 0 01-12 12zm61.7-69.7a8.1 8.1 0 010 11.4 8.2 8.2 0 01-11.4 0L168 123.3l-10.3 10.4a8.2 8.2 0 01-11.4 0 8.1 8.1 0 010-11.4l10.4-10.3-10.4-10.3a8.1 8.1 0 0111.4-11.4l10.3 10.4 10.3-10.4a8.1 8.1 0 0111.4 11.4L179.3 112z"/></svg>