<svg xmlns="http://www.w3.org/2000/svg" viewBox="0 0 256 256" width="20" height="20"><path fill="none" d="M0 0h256v256H0z"/><path d="M231.8 134.8a4.8 4.8 0 000-1.2c.1-1.9.2-3.7.2-5.6a103.2 103.2 0 00-23-65.1 5.5 5.5 0 00-1.4-1.7 103.9 103.9 0 00-41.1-29.8l-1.1-.4a103.4 103.4 0 00-74.8 0l-1.1.4a103.9 103.9 0 00-41.1 29.8 5.5 5.5 0 00-1.4 1.7A103.2 103.2 0 0024 128c0 1.9.1 3.7.2 5.6a4.8 4.8 0 000 1.2 104.2 104.2 0 0015.7 48.4 9.9 9.9 0 001.1 1.7 104.3 104.3 0 0060.3 43.6h.3a104.2 104.2 0 0052.8 0h.3a104.3 104.3 0 0060.3-43.6 9.9 9.9 0 001.1-1.7 104.2 104.2 0 0015.7-48.4zM68.5 117.1l13.2 4.3 12.7 39.2-8.1 11.2H51.7a86.2 86.2 0 01-11.2-34.3zm119 0l28 20.4a86.2 86.2 0 01-11.2 34.3h-34.6l-8.1-11.2 12.7-39.2zm5.7-48.1l-10.7 32.9-13.2 4.3L136 81.9V68.1l28-20.4A87 87 0 01193.2 69zM92 47.7l28 20.4v13.8l-33.3 24.3-13.2-4.3L62.8 69A87 87 0 0192 47.7zm18 166.4l-10.7-32.9 8.1-11.2h41.2l8.1 11.2-10.7 32.9a86.2 86.2 0 01-36 0z"/></svg>