<svg xmlns="http://www.w3.org/2000/svg" viewBox="0 0 256 256" width="20" height="20"><path fill="none" d="M0 0h256v256H0z"/><path d="M136 32v32a8 8 0 01-16 0V32a8 8 0 0116 0zm88 88h-32a8 8 0 000 16h32a8 8 0 000-16zm-45.1 47.6a8 8 0 00-11.3 11.3l22.6 22.6a8 8 0 005.7 2.4 7.7 7.7 0 005.6-2.4 7.9 7.9 0 000-11.3zM128 184a8 8 0 00-8 8v32a8 8 0 0016 0v-32a8 8 0 00-8-8zm-50.9-16.4l-22.6 22.6a7.9 7.9 0 000 11.3 7.7 7.7 0 005.6 2.4 8 8 0 005.7-2.4l22.6-22.6a8 8 0 00-11.3-11.3zM72 128a8 8 0 00-8-8H32a8 8 0 000 16h32a8 8 0 008-8zm-6.2-73.5a8 8 0 00-11.3 11.3l22.6 22.6a8.1 8.1 0 0011.3 0 8 8 0 000-11.3z"/></svg>