<svg xmlns="http://www.w3.org/2000/svg" viewBox="0 0 256 256" width="20" height="20"><path fill="none" d="M0 0h256v256H0z"/><path d="M232 95.8v-.4a4.3 4.3 0 01-.1-.5v-.3c-.1-.2-.1-.4-.2-.6v-.2l-14.3-50.2A16.2 16.2 0 00202 32H54a16.2 16.2 0 00-15.4 11.6L24.3 93.8v.2c-.1.2-.1.4-.2.6v.3a4.3 4.3 0 01-.1.5V112a40 40 0 0016 32v64a16 16 0 0016 16h144a16 16 0 0016-16v-64a40 40 0 0016-32V95.8zM40 104h48v8a24 24 0 01-35.1 21.3 8.7 8.7 0 00-1.8-1.1A23.9 23.9 0 0140 112zm112 8a24 24 0 01-48 0v-8h48zm52.9 20.2a8.7 8.7 0 00-1.8 1.1A24 24 0 01168 112v-8h48v8a23.9 23.9 0 01-11.1 20.2z"/></svg>