<svg xmlns="http://www.w3.org/2000/svg" viewBox="0 0 256 256" width="20" height="20"><path fill="none" d="M0 0h256v256H0z"/><circle cx="128" cy="128" r="68"/><path d="M128 44a8 8 0 008-8V16a8 8 0 00-16 0v20a8 8 0 008 8zM57.3 68.6a8.1 8.1 0 0011.3 0 8 8 0 000-11.3L54.5 43.1a8.1 8.1 0 10-11.4 11.4zM44 128a8 8 0 00-8-8H16a8 8 0 000 16h20a8 8 0 008-8zm13.3 59.4l-14.2 14.1a8.1 8.1 0 000 11.4 8.5 8.5 0 005.7 2.3 8.3 8.3 0 005.7-2.3l14.1-14.2a8 8 0 00-11.3-11.3zM128 212a8 8 0 00-8 8v20a8 8 0 0016 0v-20a8 8 0 00-8-8zm70.7-24.6a8 8 0 00-11.3 11.3l14.1 14.2a8.3 8.3 0 005.7 2.3 8.5 8.5 0 005.7-2.3 8.1 8.1 0 000-11.4zM240 120h-20a8 8 0 000 16h20a8 8 0 000-16zm-46.9-49.1a7.8 7.8 0 005.6-2.3l14.2-14.1a8.1 8.1 0 00-11.4-11.4l-14.1 14.2a8 8 0 000 11.3 7.8 7.8 0 005.7 2.3z"/></svg>