<svg xmlns="http://www.w3.org/2000/svg" viewBox="0 0 256 256" width="20" height="20"><path fill="none" d="M0 0h256v256H0z"/><path d="M77.7 43.6a8.1 8.1 0 014.4-10.5 7.9 7.9 0 0110.4 4.4l7.7 18.4a8.1 8.1 0 01-4.3 10.5 8.5 8.5 0 01-3.1.6 8.2 8.2 0 01-7.4-4.9zm-56.2 64.9l18.4 7.7a8.5 8.5 0 003.1.6 8 8 0 003.1-15.4l-18.5-7.7a8.1 8.1 0 00-10.5 4.4 7.9 7.9 0 004.4 10.4zm191.5 8.3a8.5 8.5 0 003.1-.6l18.4-7.7a7.9 7.9 0 004.4-10.4 8.1 8.1 0 00-10.5-4.4l-18.5 7.7a8 8 0 003.1 15.4zm-52.9-50.4a8.5 8.5 0 003.1.6 8.2 8.2 0 007.4-4.9l7.7-18.5a8.1 8.1 0 00-4.4-10.5 7.9 7.9 0 00-10.4 4.4l-7.7 18.4a8.1 8.1 0 004.3 10.5zM240 152h-44.5a70.1 70.1 0 00.5-8 68 68 0 00-136 0 70.1 70.1 0 00.5 8H16a8 8 0 000 16h224a8 8 0 000-16zm-32 40H48a8 8 0 000 16h160a8 8 0 000-16z"/></svg>