<svg xmlns="http://www.w3.org/2000/svg" viewBox="0 0 256 256" width="20" height="20"><path fill="none" d="M0 0h256v256H0z"/><path d="M228.2 153L209 100.3a16 16 0 00-20.5-9.5l-59.9 21.8 11-62.8a16 16 0 00-2.6-12 16.2 16.2 0 00-10.3-6.6l-55.2-9.7a16.1 16.1 0 00-18.5 13L28.8 171.7a45 45 0 007.7 33.9 43.4 43.4 0 0028.7 17.9 51.6 51.6 0 006.7.5H212a16 16 0 0016-16v-43.7a15.7 15.7 0 00.2-11.3zM72 192a12 12 0 1112-12 12 12 0 01-12 12zm140 16h-88.3l88.3-32.1zm-98.5-13.3a41 41 0 001.8-7.1l10.1-56.8 68.6-25 19.1 52.6z"/></svg>