<svg xmlns="http://www.w3.org/2000/svg" viewBox="0 0 256 256" width="20" height="20"><path fill="none" d="M0 0h256v256H0z"/><path d="M221.7 34.3A8.1 8.1 0 00216 32l-63.8.2a8.1 8.1 0 00-6.2 2.9l-70.4 85.2-8.3-8.3a16.1 16.1 0 00-22.6 0L32 124.7a15.9 15.9 0 000 22.6l20.9 20.9-30 29.9a16.2 16.2 0 000 22.7l12.3 12.3a16.3 16.3 0 0022.7 0l29.9-30 20.9 20.9a16.1 16.1 0 0022.6 0l12.7-12.7a15.9 15.9 0 000-22.6l-8.3-8.3 85.2-70.4a8.1 8.1 0 002.9-6.2L224 40a8.1 8.1 0 00-2.3-5.7zM207.8 100l-83.5 69-13-13 54.4-54.3a8.1 8.1 0 00-11.4-11.4L100 144.7l-13-13 69-83.5 52-.2z"/></svg>