<svg xmlns="http://www.w3.org/2000/svg" viewBox="0 0 256 256" width="20" height="20"><path fill="none" d="M0 0h256v256H0z"/><path d="M240 112h-11.4l-27.4-47.9a15.9 15.9 0 00-13.8-8.1h-22l-12-29.9A15.7 15.7 0 00138.6 16h-21.2a15.7 15.7 0 00-14.8 10.1L90.6 56h-22a15.9 15.9 0 00-13.8 8.1L27.4 112H16a8 8 0 000 16h8v80a16 16 0 0016 16h24a16 16 0 0016-16v-16h96v16a16 16 0 0016 16h24a16 16 0 0016-16v-80h8a8 8 0 000-16zM117.4 32h21.2l9.6 24h-40.4zM80 160H64a8 8 0 010-16h16a8 8 0 010 16zm112 0h-16a8 8 0 010-16h16a8 8 0 010 16z"/></svg>