<svg xmlns="http://www.w3.org/2000/svg" viewBox="0 0 256 256" width="20" height="20"><path fill="none" d="M0 0h256v256H0z"/><path d="M137.9 148.2L87.1 52.3a8 8 0 00-14.2 0l-50.8 95.9L.9 188.3a8.1 8.1 0 003.4 10.8 8.1 8.1 0 0010.8-3.4L34 160h92l18.9 35.7a7.9 7.9 0 007.1 4.3 8 8 0 007.1-11.7zM42.5 144L80 73.1l37.5 70.9zM208 94.9a42 42 0 00-29.6 11.8 8 8 0 1011.2 11.4 26 26 0 0118.4-7.2c13.2 0 24 9 24 20v7.2a43 43 0 00-24-7.2c-22.1 0-40 16.1-40 36s17.9 36 40 36a42.9 42.9 0 0024.7-7.7 7.9 7.9 0 007.3 4.8 8 8 0 008-8v-61.1c0-19.9-17.9-36-40-36zm0 92c-13.2 0-24-9-24-20s10.8-20 24-20 24 9 24 20-10.8 20-24 20z"/></svg>