<svg xmlns="http://www.w3.org/2000/svg" viewBox="0 0 256 256" width="20" height="20"><path fill="none" d="M0 0h256v256H0z"/><path d="M160 143.3V48a40 40 0 00-80 0v95.3A59.4 59.4 0 0060 188a60 60 0 00120 0 59.4 59.4 0 00-20-44.7zM120 24a24.1 24.1 0 0124 24v8H96v-8a24.1 24.1 0 0124-24zm58.1 61.7a8 8 0 010-11.4 28 28 0 0119.8-8.2 28.4 28.4 0 0119.8 8.2 11.9 11.9 0 0016.9 0 8 8 0 0111.3 11.4 28 28 0 01-19.8 8.2 28.4 28.4 0 01-19.8-8.2 11.9 11.9 0 00-16.9 0 8 8 0 01-11.3 0zm67.8 28.6a8 8 0 010 11.4 28 28 0 01-19.8 8.2 28.4 28.4 0 01-19.8-8.2 11.9 11.9 0 00-16.9 0 8 8 0 01-11.3-11.4 28 28 0 0119.8-8.2 28.4 28.4 0 0119.8 8.2 11.9 11.9 0 0016.9 0 8 8 0 0111.3 0z"/></svg>