<svg xmlns="http://www.w3.org/2000/svg" viewBox="0 0 256 256" width="20" height="20"><path fill="none" d="M0 0h256v256H0z"/><path d="M224 112.1a8 8 0 00-8-8.1H40a8 8 0 00-8 8.1 96 96 0 0052.8 85.6l-3.4 23.7a16.2 16.2 0 001.7 10.1 16 16 0 0014.1 8.5h61.2a16.9 16.9 0 009.8-3 16.2 16.2 0 006.4-15.3l-3.4-24a96 96 0 0052.8-85.6zM97.2 224l2.9-20.1a97 97 0 0055.8 0l2.9 20.1zM60 88h136a4 4 0 004-4V40a16 16 0 00-16-16H72a16 16 0 00-16 16v44a4 4 0 004 4zm28-40h15.7a8.2 8.2 0 018.3 7.5 8 8 0 01-8 8.5H88.3a8.2 8.2 0 01-8.3-7.5 8 8 0 018-8.5z"/></svg>