<svg xmlns="http://www.w3.org/2000/svg" viewBox="0 0 256 256" width="20" height="20"><path fill="none" d="M0 0h256v256H0z"/><path d="M184 120a8 8 0 01-8 8h-16a8 8 0 010-16h16a8 8 0 018 8zm56 0v88a16 16 0 01-16 16H112a16 16 0 01-16-16v-21.7C87.4 200.4 76.2 208 64 208c-13.9 0-26.5-9.9-35.4-27.9C20.5 163.9 16 142.6 16 120s4.5-43.9 12.6-60.1C37.5 41.9 50.1 32 64 32h128c13.9 0 26.5 9.9 35.4 27.9C235.5 76.1 240 97.4 240 120zm-164 0a12 12 0 10-12 12 12 12 0 0012-12zm148 8h-16a8 8 0 010-16h15.8c-2-38.1-17.6-64-31.8-64H92.1a65 65 0 017.3 11.9c7.2 14.2 11.5 32.5 12.4 52.1H128a8 8 0 010 16h-16v80h112z"/></svg>