<svg xmlns="http://www.w3.org/2000/svg" viewBox="0 0 256 256" width="20" height="20"><path fill="none" d="M0 0h256v256H0z"/><path d="M160 80H96a8 8 0 000 16h64a8 8 0 000-16z"/><path d="M224 119.9a2.2 2.2 0 00-.1-.8v-.5c-.1-.2-.1-.4-.2-.6l-22.4-82a15.9 15.9 0 00-15.4-12H70.1a15.9 15.9 0 00-15.4 11.8l-22.4 82c-.1.2-.1.4-.2.6v.5a2.2 2.2 0 00-.1.8v.2a2.8 2.8 0 00.1.9 2.9 2.9 0 00.2.9l22.4 82.1A15.9 15.9 0 0070.1 216H80l-14.4 19.2a8 8 0 001.6 11.2A7.7 7.7 0 0072 248a8 8 0 006.4-3.2L100 216h56l21.6 28.8a8 8 0 006.4 3.2 7.7 7.7 0 004.8-1.6 8 8 0 001.6-11.2L176 216h9.9a15.9 15.9 0 0015.4-11.8l22.4-82.1a2.9 2.9 0 00.2-.9 2.8 2.8 0 00.1-.9zM136 192a8 8 0 01-16 0v-40a8 8 0 0116 0zm-8-64.1l-78-14.2L70.1 40h115.8l20.1 73.7z"/></svg>