<svg xmlns="http://www.w3.org/2000/svg" viewBox="0 0 256 256" width="20" height="20"><path fill="none" d="M0 0h256v256H0z"/><path d="M64 140a7.9 7.9 0 01-8 8H12a8.2 8.2 0 01-7.2-4.4 8.2 8.2 0 01.8-8.4A67.8 67.8 0 0133 113.5a40 40 0 1166.3-37 8.1 8.1 0 01-3.8 8.4 64.3 64.3 0 00-27.8 33.8A61.6 61.6 0 0064 140zm186.4-4.8a67.8 67.8 0 00-27.4-21.7 40 40 0 10-66.3-37 8.1 8.1 0 003.8 8.4 64 64 0 0127.8 33.8A61.6 61.6 0 01192 140a7.9 7.9 0 008 8h44a8 8 0 006.4-12.8zm-93.2 42.9a48 48 0 10-58.4 0 72.1 72.1 0 00-35.6 34.4 7.8 7.8 0 00.5 7.7 7.8 7.8 0 006.7 3.8h115.2a7.8 7.8 0 006.7-3.8 7.8 7.8 0 00.5-7.7 72.1 72.1 0 00-35.6-34.4z"/></svg>