<svg xmlns="http://www.w3.org/2000/svg" viewBox="0 0 256 256" width="20" height="20"><path fill="none" d="M0 0h256v256H0z"/><path d="M128 76a44 44 0 11-44 44 44 44 0 0144-44zm103.2-2a8 8 0 01-7 4 7.6 7.6 0 01-4-1.1l-4.6-2.7a24 24 0 01-7.6 4.4V84a8 8 0 01-16 0v-5.4a24 24 0 01-7.6-4.4l-4.6 2.7a7.6 7.6 0 01-4 1.1 8 8 0 01-4-14.9l4.6-2.7a21.2 21.2 0 01-.4-4.4 21.2 21.2 0 01.4-4.4l-4.6-2.7a7.9 7.9 0 01-3-10.9 8.1 8.1 0 0111-2.9l4.6 2.7a24 24 0 017.6-4.4V28a8 8 0 0116 0v5.4a24 24 0 017.6 4.4l4.6-2.7a8.1 8.1 0 0111 2.9 7.9 7.9 0 01-3 10.9l-4.6 2.7a21.2 21.2 0 01.4 4.4 21.2 21.2 0 01-.4 4.4l4.6 2.7a7.9 7.9 0 013 10.9zM200 64a8 8 0 10-8-8 8 8 0 008 8zm22.4 44.6a8 8 0 00-7 8.8 94.2 94.2 0 01.6 10.6 87.6 87.6 0 01-22.2 58.4 81.3 81.3 0 00-24.5-23 59.7 59.7 0 01-82.6 0 81.3 81.3 0 00-24.5 23A88 88 0 01128 40a75 75 0 018.2.4 8 8 0 101.4-16c-3.1-.3-6.4-.4-9.6-.4a104 104 0 00-70.2 180.7l1.3 1.2a104 104 0 00137.8 0l1.3-1.2A103.7 103.7 0 00232 128a101.9 101.9 0 00-.7-12.4 8 8 0 00-8.9-7z"/></svg>