<svg xmlns="http://www.w3.org/2000/svg" viewBox="0 0 256 256" width="20" height="20"><path fill="none" d="M0 0h256v256H0z"/><path d="M224 48v28a8 8 0 01-16 0V48h-28a8 8 0 010-16h28a16 16 0 0116 16zm-8 124a8 8 0 00-8 8v28h-28a8 8 0 000 16h28a16 16 0 0016-16v-28a8 8 0 00-8-8zM76 208H48v-28a8 8 0 00-16 0v28a16 16 0 0016 16h28a8 8 0 000-16zM40 84a8 8 0 008-8V48h28a8 8 0 000-16H48a16 16 0 00-16 16v28a8 8 0 008 8zm61.1 57.5a69.1 69.1 0 00-33.3 30.8 7.8 7.8 0 00.3 7.8 7.9 7.9 0 006.8 3.9h106.2a7.9 7.9 0 006.8-3.9 7.8 7.8 0 00.3-7.8 69.1 69.1 0 00-33.3-30.8A39.5 39.5 0 00168 112a40 40 0 00-80 0 39.5 39.5 0 0013.1 29.5z"/></svg>