<svg xmlns="http://www.w3.org/2000/svg" viewBox="0 0 256 256" width="20" height="20"><path fill="none" d="M0 0h256v256H0z"/><path d="M229.9 226.6a7.9 7.9 0 01-.5 11.3 8.2 8.2 0 01-5.4 2.1 8 8 0 01-5.9-2.6l-42.4-46.6A15.9 15.9 0 01160 204H24a16 16 0 01-16-16V68a16 16 0 0116-16h25.6L29 29.4a8 8 0 01.5-11.3 7.9 7.9 0 0111.3.5zm15.6-152.4a7.9 7.9 0 00-9.5-1.1l-40 22.8a8 8 0 00-4 7v50.2a8 8 0 004 7l40 22.8a8.3 8.3 0 004 1.1 7.9 7.9 0 005.8-2.5 8 8 0 002.2-5.7V80.2a8 8 0 00-2.5-6zm-83.4 54a8 8 0 009.8 1.6 8.2 8.2 0 004.1-7.3V68a16 16 0 00-16-16h-48.9a8.5 8.5 0 00-6.6 3.1 8 8 0 00.5 10.3z"/></svg>