<svg xmlns="http://www.w3.org/2000/svg" viewBox="0 0 256 256" width="20" height="20"><path fill="none" d="M0 0h256v256H0z"/><path d="M232 127.6A104 104 0 1037.9 180c2 3.4 4.2 6.7 6.5 9.9l.5.7a103.9 103.9 0 00178.2-20.7 7.2 7.2 0 00.9-2 105.7 105.7 0 008-39.3v-1zM44.5 155.9a88.2 88.2 0 0132.8-99.8l17.1 29.7a104.4 104.4 0 00-49.9 70.1zm32.8 44a84.2 84.2 0 01-18.4-17.4 88 88 0 0143.5-82.9l16.4 28.4zm132.4-39.3a88.2 88.2 0 01-93.5 3.8l16.4-28.4h83a89.3 89.3 0 01-5.9 24.6zM181.4 120a105 105 0 00-35.7-78.2 87.9 87.9 0 0169.9 78.2z"/></svg>