<svg xmlns="http://www.w3.org/2000/svg" viewBox="0 0 256 256" width="20" height="20"><path fill="none" d="M0 0h256v256H0z"/><path d="M128 24a104 104 0 00-91.2 154l-8.5 30A15.9 15.9 0 0048 227.7l30-8.5A104 104 0 10128 24zm24.1 168h-.1a88.1 88.1 0 01-88-88.1A36 36 0 01100 68a14.9 14.9 0 0112.9 7.5L124.6 96a15.8 15.8 0 01-.2 16.1l-7.1 11.9a41.4 41.4 0 0014.7 14.7l11.9-7.1a15.8 15.8 0 0116.1-.2l20.5 11.7A14.9 14.9 0 01188 156a36 36 0 01-35.9 36z"/><path d="M136.5 154.7a8.1 8.1 0 01-7.4.4 55.4 55.4 0 01-28.2-28.2 8.1 8.1 0 01.4-7.4l9.4-15.6L99.4 84A19.9 19.9 0 0080 103.9a72 72 0 0072 72.1h.1a19.9 19.9 0 0019.9-19.4l-19.9-11.3z"/></svg>