<svg xmlns="http://www.w3.org/2000/svg" viewBox="0 0 256 256" width="20" height="20"><path fill="none" d="M0 0h256v256H0z"/><path d="M53.9 34.6A8 8 0 0042 45.4l4.7 5.1a182.8 182.8 0 00-31.4 19.1 15.6 15.6 0 00-6.2 10.9 16.3 16.3 0 003.8 12.3L115.8 214a15.9 15.9 0 0024.3.1l26.7-31.5 35.3 38.8a8.2 8.2 0 005.9 2.6 7.8 7.8 0 005.4-2.1 8 8 0 00.6-11.3zm193 45.9a15.6 15.6 0 00-6.2-10.9A188 188 0 0092.6 35.3a8.3 8.3 0 00-6.1 5.4 8.2 8.2 0 001.7 7.9l93.4 102.7a8.3 8.3 0 005.9 2.6h.2a8.3 8.3 0 005.9-2.8l49.6-58.4a16.4 16.4 0 003.7-12.2z"/></svg>