<svg xmlns="http://www.w3.org/2000/svg" viewBox="0 0 256 256" width="20" height="20"><path fill="none" d="M0 0h256v256H0z"/><path d="M112 144v51.6a8.1 8.1 0 01-2.9 6.2 7.8 7.8 0 01-5.1 1.8h-1.4l-64-11.6a8 8 0 01-6.6-8v-40a8 8 0 018-8h64a8 8 0 018 8zm-2.9-89.8a8 8 0 00-6.5-1.7l-64 11.6A8 8 0 0032 72v40a8 8 0 008 8h64a8 8 0 008-8V60.4a8.1 8.1 0 00-2.9-6.2zM216 136h-80a8 8 0 00-8 8v57.5a8 8 0 006.6 7.8l80 14.6h1.4a7.4 7.4 0 005.1-1.9 7.9 7.9 0 002.9-6v-72a8 8 0 00-8-8zm5.1-102.1a7.7 7.7 0 00-6.5-1.8l-80 14.6a8 8 0 00-6.6 7.8V112a8 8 0 008 8h80a8 8 0 008-8V40a7.9 7.9 0 00-2.9-6.1z"/></svg>