<svg xmlns="http://www.w3.org/2000/svg" viewBox="0 0 256 256" width="20" height="20"><path fill="none" d="M0 0h256v256H0z"/><path d="M96 48h64a48 48 0 0148 48v120a8 8 0 01-8 8H56a8 8 0 01-8-8V96a48 48 0 0148-48z" fill="none" stroke="#000" stroke-linecap="round" stroke-linejoin="round" stroke-width="16"/><path d="M80 224v-72a16 16 0 0116-16h64a16 16 0 0116 16v72M96 48V32a16 16 0 0116-16h32a16 16 0 0116 16v16M112 88h32M80 168h96M144 168v16" fill="none" stroke="#000" stroke-linecap="round" stroke-linejoin="round" stroke-width="16"/></svg>