<svg xmlns="http://www.w3.org/2000/svg" viewBox="0 0 256 256" width="20" height="20"><path fill="none" d="M0 0h256v256H0z"/><circle cx="128" cy="128" r="32" fill="none" stroke="#000" stroke-linecap="round" stroke-linejoin="round" stroke-width="16"/><path d="M77.1 178.9A71.6 71.6 0 0161.7 156a71.6 71.6 0 010-56 71.6 71.6 0 0115.4-22.9M178.9 77.1a71.6 71.6 0 0115.4 22.9 71.6 71.6 0 010 56 71.6 71.6 0 01-15.4 22.9M48.8 207.2a112.9 112.9 0 01-24-35.6 112.4 112.4 0 010-87.2 112.9 112.9 0 0124-35.6M207.2 48.8a112.9 112.9 0 0124 35.6 112.4 112.4 0 010 87.2 112.9 112.9 0 01-24 35.6" fill="none" stroke="#000" stroke-linecap="round" stroke-linejoin="round" stroke-width="16"/></svg>