<svg xmlns="http://www.w3.org/2000/svg" viewBox="0 0 256 256" width="20" height="20"><path fill="none" d="M0 0h256v256H0z"/><path d="M208 208H48a16 16 0 01-16-16V80a16 16 0 0116-16h32l16-24h64l16 24h32a16 16 0 0116 16v112a16 16 0 01-16 16z" fill="none" stroke="#000" stroke-linecap="round" stroke-linejoin="round" stroke-width="16"/><path d="M172 120l-15.7-16.3a40.1 40.1 0 00-56.6 0M156.3 160.3a40.1 40.1 0 01-56.6 0L84 144" fill="none" stroke="#000" stroke-linecap="round" stroke-linejoin="round" stroke-width="16"/><path fill="none" stroke="#000" stroke-linecap="round" stroke-linejoin="round" stroke-width="16" d="M176 96l-4 24-24 4M108 140l-24 4-4 24"/></svg>