<svg xmlns="http://www.w3.org/2000/svg" viewBox="0 0 256 256" width="20" height="20"><path fill="none" d="M0 0h256v256H0z"/><path fill="none" stroke="#000" stroke-linecap="round" stroke-linejoin="round" stroke-width="16" d="M48 40.001l160 176M154.907 157.599a40 40 0 01-53.814-59.196"/><path d="M73.994 68.595C33.225 89.24 16 128 16 128s32 71.992 112 71.992a118.024 118.024 0 0053.998-12.594M208.61 169.1C230.41 149.574 240 128.002 240 128.002s-32-72.008-112-72.008a125.32 125.32 0 00-20.682 1.685M135.527 88.709a40.024 40.024 0 0132.298 35.529" fill="none" stroke="#000" stroke-linecap="round" stroke-linejoin="round" stroke-width="16"/></svg>