<svg xmlns="http://www.w3.org/2000/svg" viewBox="0 0 256 256" width="20" height="20"><path fill="none" d="M0 0h256v256H0z"/><path d="M179.799 115.799l4.887 4.887a16 16 0 010 22.628l-7.03 7.03a8 8 0 01-11.313 0l-60.686-60.687a8 8 0 010-11.314l7.03-7.03a16 16 0 0122.627 0l4.887 4.888 27.588-27.588c10.788-10.788 28.366-11.45 39.446-.96a28 28 0 01.564 40.146z" fill="none" stroke="#000" stroke-linecap="round" stroke-linejoin="round" stroke-width="16"/><path d="M158.627 142.627l-56 56a31.987 31.987 0 01-30.911 8.288L48.314 217.13a8 8 0 01-8.858-1.675h0a5.744 5.744 0 01-1.203-6.36l10.832-24.812a31.987 31.987 0 018.288-30.911l56-56" fill="none" stroke="#000" stroke-linecap="round" stroke-linejoin="round" stroke-width="16"/></svg>