<svg xmlns="http://www.w3.org/2000/svg" viewBox="0 0 256 256" width="20" height="20"><path fill="none" d="M0 0h256v256H0z"/><path d="M216 136c0 51.5-74.4 69.2-86.4 71.7a8.6 8.6 0 01-3.2 0c-12-2.5-86.4-20.2-86.4-71.7V77.6a7.9 7.9 0 015.3-7.5l80-29.1a8.3 8.3 0 015.4 0l80 29.1a7.9 7.9 0 015.3 7.5zM88 112h80M88 144h80" fill="none" stroke="#000" stroke-linecap="round" stroke-linejoin="round" stroke-width="16"/><path d="M213.4 152H224a23.9 23.9 0 0024-24v-24a23.9 23.9 0 00-24-24h-8M42.6 152H32a23.9 23.9 0 01-24-24v-24a23.9 23.9 0 0124-24h8" fill="none" stroke="#000" stroke-linecap="round" stroke-linejoin="round" stroke-width="16"/></svg>