<svg xmlns="http://www.w3.org/2000/svg" viewBox="0 0 256 256" width="20" height="20"><path fill="none" d="M0 0h256v256H0z"/><path d="M50.69 184.922a127.473 127.473 0 0013.316-56.913 63.88 63.88 0 0124-49.963m40 49.963a191.134 191.134 0 01-23.976 92.98" fill="none" stroke="#000" stroke-linecap="round" stroke-linejoin="round" stroke-width="16"/><path d="M96.006 128.009a32 32 0 0164 0 223.138 223.138 0 01-21.275 95.406" fill="none" stroke="#000" stroke-linecap="round" stroke-linejoin="round" stroke-width="16"/><path d="M218.565 184.008a289.42 289.42 0 005.44-56 96 96 0 00-192 0 95.845 95.845 0 01-5.462 32m66.263 0a158.951 158.951 0 01-18.115 47.845" fill="none" stroke="#000" stroke-linecap="round" stroke-linejoin="round" stroke-width="16"/><path d="M120.006 64.504a64.051 64.051 0 0172 63.505 258.525 258.525 0 01-1.98 32m-6.085 31.999q-2.285 8.879-5.18 17.5" fill="none" stroke="#000" stroke-linecap="round" stroke-linejoin="round" stroke-width="16"/></svg>