<svg xmlns="http://www.w3.org/2000/svg" viewBox="0 0 256 256" width="20" height="20"><path fill="none" d="M0 0h256v256H0z"/><path d="M176.006 128.009a239.296 239.296 0 01-17.934 91.197m5.708-123.2a48 48 0 00-83.774 32.003 143.35 143.35 0 01-17.98 69.732" fill="none" stroke="#000" stroke-linecap="round" stroke-linejoin="round" stroke-width="16"/><path d="M96.005 37.472a96.067 96.067 0 01128 90.537 288.946 288.946 0 01-7.136 64M23.301 168.01a95.646 95.646 0 008.705-40 95.76 95.76 0 0132-71.556m46.579 151.555q-3.043 6.628-6.566 12.978m23.975-92.979a192.347 192.347 0 01-6.049 48" fill="none" stroke="#000" stroke-linecap="round" stroke-linejoin="round" stroke-width="16"/></svg>