<svg xmlns="http://www.w3.org/2000/svg" viewBox="0 0 256 256" width="20" height="20"><path fill="none" d="M0 0h256v256H0z"/><path fill="none" stroke="#000" stroke-linecap="round" stroke-linejoin="round" stroke-width="16" d="M168.8 188.7l3.9 23.6M128 192v32m-40.8-35.3l-3.9 23.6M177 68.8c37.3 7.8 63 24.2 63 43.2 0 26.5-50.1 48-112 48S16 138.5 16 112c0-19 25.9-35.5 63.4-43.2"/><path d="M72 99.9a15.8 15.8 0 0012.4 15.5A191.4 191.4 0 00128 120a191.4 191.4 0 0043.6-4.6A15.8 15.8 0 00184 99.9V96a56 56 0 00-56.7-56C96.5 40.4 72 66.1 72 96.8z" fill="none" stroke="#000" stroke-linecap="round" stroke-linejoin="round" stroke-width="16"/></svg>