<svg xmlns="http://www.w3.org/2000/svg" viewBox="0 0 256 256" width="20" height="20"><path fill="none" d="M0 0h256v256H0z"/><path d="M32 80V56a8 8 0 018-8h52.7a7.9 7.9 0 015.6 2.3L128 80M120.6 208H39.4a7.4 7.4 0 01-7.4-7.4V80h184a8 8 0 018 8v32" fill="none" stroke="#000" stroke-linecap="round" stroke-linejoin="round" stroke-width="16"/><path fill="none" stroke="#000" stroke-linecap="round" stroke-linejoin="round" stroke-width="16" d="M188 198.5l29.7 17.5-8.1-32.6 26.4-21.8-34.7-2.7L188 128l-13.3 30.9-34.7 2.7 26.4 21.8-8.1 32.6 29.7-17.5z"/></svg>