<svg xmlns="http://www.w3.org/2000/svg" viewBox="0 0 256.001 256.001" width="20" height="20"><path fill="none" d="M0 0h256v256H0z"/><circle cx="128" cy="128" r="48" fill="none" stroke="#000" stroke-linecap="round" stroke-linejoin="round" stroke-width="16"/><path d="M122.872 44.154l-18.87-14.148a7.995 7.995 0 00-7.18-1.246 103.35 103.35 0 00-16.942 7.01 8.002 8.002 0 00-4.206 5.965l-3.336 23.35q-1.907 1.691-3.734 3.517-1.827 1.827-3.518 3.736h0l-23.347 3.339a7.995 7.995 0 00-5.958 4.196 103.352 103.352 0 00-7.023 16.937A8.003 8.003 0 0030 104l14.153 18.87Q44 125.417 44 128q0 2.583.154 5.129h0l-14.148 18.87a7.995 7.995 0 00-1.246 7.18 103.35 103.35 0 007.01 16.942 8.002 8.002 0 005.965 4.206l23.35 3.336q1.691 1.907 3.517 3.734 1.827 1.827 3.736 3.518h0l3.339 23.347a7.995 7.995 0 004.196 5.958 103.352 103.352 0 0016.937 7.023A8.003 8.003 0 00104 226l18.87-14.153q2.545.153 5.128.154 2.583 0 5.129-.154h0l18.87 14.148a7.995 7.995 0 007.18 1.246 103.35 103.35 0 0016.942-7.01 8.002 8.002 0 004.206-5.965l3.336-23.35q1.907-1.691 3.734-3.517 1.827-1.827 3.518-3.736h0l23.347-3.339a7.995 7.995 0 005.958-4.196 103.352 103.352 0 007.023-16.937A8.003 8.003 0 00226 152l-14.153-18.87q.153-2.547.153-5.13 0-2.583-.154-5.129h0l14.148-18.87a7.995 7.995 0 001.246-7.18 103.35 103.35 0 00-7.01-16.942 8.002 8.002 0 00-5.965-4.206l-23.35-3.336q-1.691-1.907-3.517-3.734-1.827-1.827-3.736-3.518h0l-3.339-23.347a7.995 7.995 0 00-4.196-5.958 103.352 103.352 0 00-16.937-7.023A8.003 8.003 0 00152 30l-18.87 14.153Q130.583 44 128 44q-2.583 0-5.129.154z" fill="none" stroke="#000" stroke-linecap="round" stroke-linejoin="round" stroke-width="16"/></svg>