<svg xmlns="http://www.w3.org/2000/svg" viewBox="0 0 256 256" width="20" height="20"><path fill="none" d="M0 0h256v256H0z"/><circle cx="128" cy="128" r="96" fill="none" stroke="#000" stroke-linecap="round" stroke-linejoin="round" stroke-width="16"/><path d="M214.165 170.372l-54.287-33.388a8 8 0 00-3.122-1.114l-22.819-3.076a8 8 0 00-8.376 4.672l-13.698 30.738a8 8 0 001.433 8.687l18.8 20.335a8 8 0 011.98 6.95l-3.83 19.796" fill="none" stroke="#000" stroke-linecap="round" stroke-linejoin="round" stroke-width="16"/><path d="M64.952 55.606l-8.944 21.15a8 8 0 00-.123 5.923l11.49 30.668a8 8 0 005.811 5.015l21.43 4.606a8 8 0 015.52 4.335l3.805 7.862a8 8 0 007.201 4.515h13.433" fill="none" stroke="#000" stroke-linecap="round" stroke-linejoin="round" stroke-width="16"/><path d="M152.458 35.149l9.334 16.718a8 8 0 01-1.62 9.833l-26.91 24.338a8 8 0 01-1.499 1.07l-12.242 6.76a8 8 0 01-3.867.997H94.31a8 8 0 00-7.373 4.894l-8.327 19.768" fill="none" stroke="#000" stroke-linecap="round" stroke-linejoin="round" stroke-width="16"/></svg>