<svg xmlns="http://www.w3.org/2000/svg" viewBox="0 0 256 256" width="20" height="20"><path fill="none" d="M0 0h256v256H0z"/><path d="M240.7 121.8L216 134.1l-32-61.2 25-12.5a7.9 7.9 0 0110.6 3.4l24.6 47.1a8 8 0 01-3.5 10.9zM40 133.1l-24.7-12.4a7.9 7.9 0 01-3.5-10.8l24.6-47.1A8 8 0 0147 59.3l25 12.5zm176 1l-16 18.8-36.8 36.8a8.5 8.5 0 01-7.6 2.1l-58-14.5a8 8 0 01-2.9-1.5L40 133.1" fill="none" stroke="#000" stroke-linecap="round" stroke-linejoin="round" stroke-width="16"/><path d="M200 152.9l-44-32-12.8 9.6a32.1 32.1 0 01-38.4 0l-5.4-4.1a8.1 8.1 0 01-.9-12.1l39.2-39.1a7.9 7.9 0 015.6-2.3H184" fill="none" stroke="#000" stroke-linecap="round" stroke-linejoin="round" stroke-width="16"/><path d="M72.6 71.8l51.3-15a8 8 0 015.5.4L164 72.9m-52 140l-30.1-7.6a7.4 7.4 0 01-3.3-1.7L56 184" fill="none" stroke="#000" stroke-linecap="round" stroke-linejoin="round" stroke-width="16"/></svg>