<svg xmlns="http://www.w3.org/2000/svg" viewBox="0 0 256 256" width="20" height="20"><path fill="none" d="M0 0h256v256H0z"/><path d="M225.456 128h-32a16 16 0 00-16 16v40a16 16 0 0016 16h16a16 16 0 0016-16v-56a96 96 0 00-96.728-95.997A96 96 0 0032 128v56a16 16 0 0016 16h16a16 16 0 0016-16v-40a16 16 0 00-16-16H32" fill="none" stroke="#000" stroke-linecap="round" stroke-linejoin="round" stroke-width="16"/><path d="M225.456 184v24a32 32 0 01-32 32H136" fill="none" stroke="#000" stroke-linecap="round" stroke-linejoin="round" stroke-width="16"/></svg>