<svg xmlns="http://www.w3.org/2000/svg" viewBox="0 0 256 256" width="20" height="20"><path fill="none" d="M0 0h256v256H0z"/><path d="M159.4 40A80.1 80.1 0 01216 96.6M151.1 70.9a47.9 47.9 0 0134 34M92.5 124.8a83.6 83.6 0 0039 38.9 8 8 0 007.9-.6l25-16.7a7.9 7.9 0 017.6-.7l46.8 20.1a7.9 7.9 0 014.8 8.3A48 48 0 01176 216 136 136 0 0140 80a48 48 0 0141.9-47.6 7.9 7.9 0 018.3 4.8l20.1 46.9a8 8 0 01-.6 7.5L93 117a8 8 0 00-.5 7.8z" fill="none" stroke="#000" stroke-linecap="round" stroke-linejoin="round" stroke-width="16"/></svg>