<svg xmlns="http://www.w3.org/2000/svg" viewBox="0 0 256 256" width="20" height="20"><path fill="none" d="M0 0h256v256H0z"/><path d="M155.371 101.25a84.348 84.348 0 00-55.104.126 7.928 7.928 0 00-5.117 5.955l-5.898 29.507a8 8 0 01-4.874 5.86l-47.313 18.925a7.973 7.973 0 01-9.26-2.474 48.009 48.009 0 014.028-63.316 136 136 0 01192.333 0 48.009 48.009 0 014.028 63.316 7.973 7.973 0 01-9.26 2.474l-47.353-18.942a8 8 0 01-4.86-5.792l-6.21-29.738a7.929 7.929 0 00-5.14-5.9zM40 200h176" fill="none" stroke="#000" stroke-linecap="round" stroke-linejoin="round" stroke-width="16"/></svg>