<svg xmlns="http://www.w3.org/2000/svg" viewBox="0 0 256 256" width="20" height="20"><path fill="none" d="M0 0h256v256H0z"/><path d="M132 180l-31 31a24 24 0 01-34 0l-22-22a24 24 0 010-34l31-31M56 200l-32 32M232 24l-32 32M144 144l-24 24" fill="none" stroke="#000" stroke-linecap="round" stroke-linejoin="round" stroke-width="16"/><path fill="#231f20" d="M144 144l-24 24"/><path fill="none" stroke="#000" stroke-linecap="round" stroke-linejoin="round" stroke-width="16" d="M112 112l-24 24"/><path fill="#231f20" d="M112 112l-24 24"/><path d="M180 132l31-31a24 24 0 000-34l-22-22a24 24 0 00-34 0l-31 31M116 68l72 72M68 116l72 72" fill="none" stroke="#000" stroke-linecap="round" stroke-linejoin="round" stroke-width="16"/></svg>