<svg xmlns="http://www.w3.org/2000/svg" viewBox="0 0 256 256" width="20" height="20"><path fill="none" d="M0 0h256v256H0z"/><circle cx="188" cy="32" r="16" fill="none" stroke="#000" stroke-linecap="round" stroke-linejoin="round" stroke-width="16"/><path d="M161.026 176a72.174 72.174 0 01-66.052 0M128 72l8-48 36.185 5.567" fill="none" stroke="#000" stroke-linecap="round" stroke-linejoin="round" stroke-width="16"/><path d="M59.408 89.878C77.717 78.748 101.72 72 128 72s50.283 6.748 68.592 17.878l-.001.003a24.002 24.002 0 1131.615 34.788l.002-.001A51.616 51.616 0 01232 144c0 39.764-46.562 72-104 72S24 183.764 24 144a51.616 51.616 0 013.792-19.332h.002a24.002 24.002 0 1131.615-34.787z" fill="none" stroke="#000" stroke-linecap="round" stroke-linejoin="round" stroke-width="16"/><circle cx="88" cy="132" r="16"/><circle cx="168" cy="132" r="16"/></svg>