<svg xmlns="http://www.w3.org/2000/svg" viewBox="0 0 256 256" width="20" height="20"><path fill="none" d="M0 0h256v256H0z"/><path d="M94.059 184.569c-11.314 33.94-56.569 33.94-56.569 33.94s0-45.254 33.941-56.568M195.882 105.373L128 173.255 82.745 128l67.882-67.882c25.705-25.704 51.409-25.454 62.37-23.818a7.963 7.963 0 016.703 6.702c1.636 10.962 1.886 36.666-23.818 62.37z" fill="none" stroke="#000" stroke-linecap="round" stroke-linejoin="round" stroke-width="16"/><path d="M184.569 116.686v64.569a8 8 0 01-2.344 5.657l-32.341 32.341a8 8 0 01-13.502-4.087L128 173.255M139.314 71.431H74.745a8 8 0 00-5.657 2.344l-32.341 32.341a8 8 0 004.087 13.502L82.745 128" fill="none" stroke="#000" stroke-linecap="round" stroke-linejoin="round" stroke-width="16"/></svg>