<svg xmlns="http://www.w3.org/2000/svg" viewBox="0 0 256 256" width="20" height="20"><path fill="none" d="M0 0h256v256H0z"/><path d="M128 104v24h0-72a24 24 0 01-24-24h0a24 24 0 0124-24h48a24 24 0 0124 24zM128 80h-24a24 24 0 01-24-24v0a24 24 0 0124-24h0a24 24 0 0124 24zM152 128h-24 0V56a24 24 0 0124-24h0a24 24 0 0124 24v48a24 24 0 01-24 24zM176 128v-24a24 24 0 0124-24h0a24 24 0 0124 24v0a24 24 0 01-24 24zM128 152v-24h72a24 24 0 0124 24h0a24 24 0 01-24 24h-48a24 24 0 01-24-24zM128 176h24a24 24 0 0124 24v0a24 24 0 01-24 24h0a24 24 0 01-24-24zM104 128h24v72a24 24 0 01-24 24h0a24 24 0 01-24-24v-48a24 24 0 0124-24zM80 128v24a24 24 0 01-24 24h0a24 24 0 01-24-24v0a24 24 0 0124-24z" fill="none" stroke="#000" stroke-linecap="round" stroke-linejoin="round" stroke-width="16"/></svg>