<svg xmlns="http://www.w3.org/2000/svg" viewBox="0 0 256 256" width="20" height="20"><path fill="none" d="M0 0h256v256H0z"/><circle cx="128" cy="128" r="96" fill="none" stroke="#000" stroke-linecap="round" stroke-linejoin="round" stroke-width="16"/><path fill="none" stroke="#000" stroke-linecap="round" stroke-linejoin="round" stroke-width="16" d="M128 86l-39.9 29 15.2 47h49.4l15.2-47L128 86zm0-22v22m35-47.4L128 64 93 38.6m-25.9 69.6l21 6.8M53.8 67.1l13.3 41.1-35 25.5m58.3 46.1l12.9-17.8m-56.2 17.8h43.3l13.4 41.1m61.8-41.1L152.7 162m-.5 58.9l13.4-41.1h43.3m-20-71.6l-21 6.8m56 18.7l-35-25.5 13.3-41.1"/></svg>