<svg xmlns="http://www.w3.org/2000/svg" viewBox="0 0 256 256" width="20" height="20"><path fill="none" d="M0 0h256v256H0z"/><path d="M48 139.6V208a8 8 0 008 8h144a8 8 0 008-8v-68.4M54 40h148a8.1 8.1 0 017.7 5.8L224 96H32l14.3-50.2A8.1 8.1 0 0154 40z" fill="none" stroke="#000" stroke-linecap="round" stroke-linejoin="round" stroke-width="16"/><path d="M96 96v16a32 32 0 01-64 0V96m128 0v16a32 32 0 01-64 0V96m128 0v16a32 32 0 01-64 0V96" fill="none" stroke="#000" stroke-linecap="round" stroke-linejoin="round" stroke-width="16"/></svg>