<svg xmlns="http://www.w3.org/2000/svg" viewBox="0 0 256 256" width="20" height="20"><path fill="none" d="M0 0h256v256H0z"/><path d="M36.67 173.048L60.858 35.876a8 8 0 019.267-6.49l55.15 9.725a8 8 0 016.489 9.267l-24.311 137.873a36 36 0 01-41.012 29.317c-19.943-3.124-33.276-22.64-29.77-42.52z" fill="none" stroke="#000" stroke-linecap="round" stroke-linejoin="round" stroke-width="16"/><path d="M118.28 124.845l72.964-26.557a8 8 0 0110.254 4.781l19.153 52.623a8 8 0 01-4.782 10.254L84.312 213.829" fill="none" stroke="#000" stroke-linecap="round" stroke-linejoin="round" stroke-width="16"/><path d="M220 162.533V208a8 8 0 01-8 8H72" fill="none" stroke="#000" stroke-linecap="round" stroke-linejoin="round" stroke-width="16"/><circle cx="72" cy="180" r="12"/></svg>