<svg xmlns="http://www.w3.org/2000/svg" viewBox="0 0 256 256" width="20" height="20"><path fill="none" d="M0 0h256v256H0z"/><path d="M36.7 173L60.9 35.9a7.9 7.9 0 019.2-6.5l55.2 9.7a8.1 8.1 0 016.5 9.3l-24.3 137.9a36.1 36.1 0 01-41.1 29.3c-19.9-3.2-33.2-22.7-29.7-42.6z" fill="none" stroke="#000" stroke-linecap="round" stroke-linejoin="round" stroke-width="16"/><path d="M118.3 124.8l72.9-26.5a8 8 0 0110.3 4.8l19.2 52.6a8 8 0 01-4.8 10.2L84.3 213.8" fill="none" stroke="#000" stroke-linecap="round" stroke-linejoin="round" stroke-width="16"/><path d="M220 162.5V208a8 8 0 01-8 8H72" fill="none" stroke="#000" stroke-linecap="round" stroke-linejoin="round" stroke-width="16"/><circle cx="72" cy="180" r="12"/></svg>