<svg xmlns="http://www.w3.org/2000/svg" viewBox="0 0 256 256" width="20" height="20"><path fill="none" d="M0 0h256v256H0z"/><path fill="none" stroke="#000" stroke-linecap="round" stroke-linejoin="round" stroke-width="16" d="M76.2 132.2l76-92L216 40l-.2 63.8-92 76M100 156l60-60"/><path d="M82.1 197.5l-29.9 29.9a8 8 0 01-11.3 0l-12.3-12.3a8 8 0 010-11.3l29.9-29.9a8 8 0 000-11.4l-20.8-20.8a8 8 0 010-11.4l12.6-12.6a8 8 0 0111.4 0l76.6 76.6a8 8 0 010 11.4l-12.6 12.6a8 8 0 01-11.4 0l-20.8-20.8a8 8 0 00-11.4 0z" fill="none" stroke="#000" stroke-linecap="round" stroke-linejoin="round" stroke-width="16"/></svg>