<svg xmlns="http://www.w3.org/2000/svg" viewBox="0 0 24 24" width="20" height="20"><path d="M4 22h16a1 1 0 001-1v-8h-2v7H5V4h5V2H4a1 1 0 00-1 1v18a1 1 0 001 1z"/><circle cx="12" cy="11" r="1"/><path d="M15 11h2a5 5 0 00-5-5v2a3 3 0 013 3z"/><path d="M19 11h2a9 9 0 00-9-9v2a7 7 0 017 7zm-9.35 4.67a1 1 0 00-.14-.51.76.76 0 00-.38-.31 2.3 2.3 0 00-.75-.09H7V18h.65v-1.35h.14a1.31 1.31 0 01.33 0 .58.58 0 01.19.14 4.72 4.72 0 01.35.48l.47.7h.78l-.39-.63a3.56 3.56 0 00-.38-.53 1.25 1.25 0 00-.35-.27 1 1 0 00.64-.3.84.84 0 00.22-.57zm-.74.33a.4.4 0 01-.18.14 2.36 2.36 0 01-.59 0h-.49v-.82h1a.4.4 0 01.25.13.36.36 0 01.09.26.43.43 0 01-.08.29zm2.01.62h1.36v-.54h-1.36v-.77h1.57v-.55h-2.22V18h.65v-1.38zm2.09-1.86h.65V18h-.65zm3.09.06a2.48 2.48 0 00-.62-.06h-1.2V18h1.24a1.76 1.76 0 00.57-.07 1.07 1.07 0 00.46-.26 1.35 1.35 0 00.35-.57 2 2 0 00.1-.69 2.35 2.35 0 00-.11-.76 1.33 1.33 0 00-.31-.53 1.09 1.09 0 00-.48-.3zm.16 2.18a.74.74 0 01-.17.31.57.57 0 01-.27.13 1.79 1.79 0 01-.39 0h-.49v-2.13h.29a3.06 3.06 0 01.54 0 .71.71 0 01.3.15.82.82 0 01.19.32 2.05 2.05 0 01.06.57 2.41 2.41 0 01-.06.65z"/></svg>