<svg xmlns="http://www.w3.org/2000/svg" viewBox="0 0 24 24" width="20" height="20"><path d="M21 18.33A6.78 6.78 0 0019.5 15a6.73 6.73 0 00-1.5 3.33 1.51 1.51 0 103 0zm-10 2A6.78 6.78 0 009.5 17 6.73 6.73 0 008 20.33 1.59 1.59 0 009.5 22a1.59 1.59 0 001.5-1.67zM14.5 22a1.59 1.59 0 001.5-1.67A6.78 6.78 0 0014.5 17a6.73 6.73 0 00-1.5 3.33A1.59 1.59 0 0014.5 22zM3 18.33A1.59 1.59 0 004.5 20 1.59 1.59 0 006 18.33 6.78 6.78 0 004.5 15 6.73 6.73 0 003 18.33zM13 4.07V2h-2v2.07A8 8 0 004 12H2v2h20v-2h-2a8 8 0 00-7-7.93zM6 12a6 6 0 0112 0z"/></svg>