<svg xmlns="http://www.w3.org/2000/svg" viewBox="0 0 448 512" width="20" height="20"><path d="M0 448c0 17.7 14.3 32 32 32s32-14.3 32-32V112c0-8.8 7.2-16 16-16h336c17.7 0 32-14.3 32-32s-14.3-32-32-32H80C35.8 32 0 67.8 0 112v336zm160 0a32 32 0 10-64 0 32 32 0 1064 0zm192 0a32 32 0 10-64 0 32 32 0 1064 0zm-96 0a32 32 0 10-64 0 32 32 0 1064 0zm192 0a32 32 0 10-64 0 32 32 0 1064 0zm-32-160a32 32 0 100-64 32 32 0 100 64zm0 32a32 32 0 100 64 32 32 0 100-64zm0-128a32 32 0 100-64 32 32 0 100 64z"/></svg>