<svg xmlns="http://www.w3.org/2000/svg" viewBox="0 0 384 512" width="20" height="20"><path d="M40.1 467.1l-11.2 9c-3.2 2.5-7.1 3.9-11.1 3.9C8 480 0 472 0 462.2V192C0 86 86 0 192 0s192 86 192 192v270.2c0 9.8-8 17.8-17.8 17.8-4 0-7.9-1.4-11.1-3.9l-11.2-9c-13.4-10.7-32.8-9-44.1 3.9l-30.5 35c-3.3 3.8-8.2 6-13.3 6s-9.9-2.2-13.3-6l-26.6-30.5c-12.7-14.6-35.4-14.6-48.2 0L141.3 506c-3.3 3.8-8.2 6-13.3 6s-9.9-2.2-13.3-6l-30.5-35c-11.3-12.9-30.7-14.6-44.1-3.9zM160 192a32 32 0 10-64 0 32 32 0 1064 0zm96 32a32 32 0 100-64 32 32 0 100 64z"/></svg>