<svg xmlns="http://www.w3.org/2000/svg" viewBox="0 0 24 24" width="20" height="20"><path d="M2 4.75C2 3.784 2.784 3 3.75 3h4.971a1.75 1.75 0 011.447.765l1.404 2.063a.25.25 0 00.207.11h8.471c.966 0 1.75.783 1.75 1.75V19.25A1.75 1.75 0 0120.25 21H4.75a.75.75 0 010-1.5h15.5a.25.25 0 00.25-.25V7.688a.25.25 0 00-.25-.25h-8.471a1.751 1.751 0 01-1.447-.766L8.928 4.609a.252.252 0 00-.207-.109H3.75a.25.25 0 00-.25.25v3.5a.75.75 0 01-1.5 0v-3.5z"/><path d="M9.308 12.5l-2.104-2.236a.75.75 0 111.092-1.028l3.294 3.5a.75.75 0 010 1.028l-3.294 3.5a.75.75 0 11-1.092-1.028L9.308 14H4.09a2.59 2.59 0 00-2.59 2.59v3.16a.75.75 0 01-1.5 0v-3.16a4.09 4.09 0 014.09-4.09h5.218z"/></svg>