<?xml version="1.0" encoding="UTF-8" standalone="no"?><!DOCTYPE svg PUBLIC "-//W3C//DTD SVG 1.1//EN" "http://www.w3.org/Graphics/SVG/1.1/DTD/svg11.dtd"><svg width="100%" height="100%" viewBox="0 0 125 125" version="1.1" xmlns="http://www.w3.org/2000/svg" xmlns:xlink="http://www.w3.org/1999/xlink" xml:space="preserve" xmlns:serif="http://www.serif.com/" style="fill-rule:evenodd;clip-rule:evenodd;stroke-linejoin:round;stroke-miterlimit:2;"><path id="octicons" d="M62.5,1.542c-34.532,-0 -62.5,27.968 -62.5,62.5c-0,27.653 17.887,51.012 42.733,59.297c3.132,0.544 4.299,-1.331 4.299,-2.968c0,-1.486 -0.08,-6.414 -0.08,-11.642c-15.702,2.884 -19.762,-3.83 -21.014,-7.347c-0.704,-1.8 -3.751,-7.342 -6.405,-8.829c-2.19,-1.172 -5.312,-4.065 -0.075,-4.14c4.918,-0.079 8.44,4.534 9.607,6.41c5.626,9.457 14.61,6.794 18.206,5.157c0.539,-4.065 2.185,-6.798 3.981,-8.36c-13.907,-1.561 -28.437,-6.953 -28.437,-30.86c0,-6.794 2.424,-12.425 6.405,-16.8c-0.624,-1.561 -2.813,-7.961 0.623,-16.56c0,-0 5.238,-1.641 17.189,6.404c4.998,-1.401 10.315,-2.109 15.623,-2.109c5.312,-0 10.624,0.708 15.627,2.109c11.947,-8.125 17.184,-6.4 17.184,-6.4c3.442,8.595 1.252,15.004 0.628,16.556c3.981,4.379 6.405,9.926 6.405,16.8c0,23.987 -14.605,29.299 -28.516,30.86c2.269,1.951 4.219,5.702 4.219,11.563c0,8.355 -0.079,15.074 -0.079,17.188c-0,1.641 1.172,3.592 4.294,2.968c25.353,-8.599 42.533,-32.522 42.583,-59.293c0,-34.532 -27.968,-62.5 -62.5,-62.5l0,-0.004Z" style="fill:#444;fill-rule:nonzero;"/></svg>