<svg xmlns="http://www.w3.org/2000/svg" viewBox="0 0 24 24" width="20" height="20"><path d="M2 3.75C2 2.783 2.783 2 3.75 2h16.5c.966 0 1.75.783 1.75 1.75V10a.75.75 0 01-1.5 0V8.75H8.75V20.5H10a.75.75 0 010 1.5H3.75A1.75 1.75 0 012 20.25zm6.75-.25v3.75H20.5v-3.5a.25.25 0 00-.25-.25zm-1.5 17V8.75H3.5v11.5c0 .138.112.25.25.25zM3.5 7.25h3.75V3.5h-3.5a.25.25 0 00-.25.25z"/><path d="M21.25 12.312a.75.75 0 01.75.75v2.626a3.75 3.75 0 01-3.75 3.75h-3.502l2.032 2.032a.749.749 0 11-1.06 1.06l-3.25-3.25a.749.749 0 010-1.06l3.25-3.25a.749.749 0 111.06 1.06l-1.907 1.908h3.377a2.25 2.25 0 002.25-2.25v-2.626a.75.75 0 01.75-.75z"/></svg>