<svg xmlns="http://www.w3.org/2000/svg" viewBox="0 0 24 24" width="20" height="20"><path d="M4.375.375a2.5 2.5 0 00-2.5 2.5v15.25a2.5 2.5 0 002.5 2.5h5.187a.75.75 0 100-1.5H4.375a1 1 0 01-1-1v-1.75a1 1 0 011-1h5.687a.75.75 0 100-1.5H4.375c-.356 0-.694.074-1 .208V2.875a1 1 0 011-1h13.25v5.25a.75.75 0 001.5 0v-6a.75.75 0 00-.75-.75h-14z"/><path d="M12.375 12.087c0-1.396 1.005-2.712 2.456-2.712h8.044a.75.75 0 01.75.75v12.75a.75.75 0 01-.75.75h-7.5a3 3 0 01-3-3zm9.75 5.538v-6.75h-7.294c-.433 0-.956.441-.956 1.212v5.939a2.989 2.989 0 011.5-.401zm-8.25 3a1.5 1.5 0 001.5 1.5h6.75v-3h-6.75a1.5 1.5 0 00-1.5 1.5z"/></svg>