<svg xmlns="http://www.w3.org/2000/svg" viewBox="0 0 24 24" width="20" height="20"><path d="M1.875 2.875a2.5 2.5 0 012.5-2.5h14a.75.75 0 01.75.75v9.125a.75.75 0 01-1.5 0V1.875H4.375a1 1 0 00-1 1v11.208a2.486 2.486 0 011-.208h5.937a.75.75 0 110 1.5H4.375a1 1 0 00-1 1v1.75a1 1 0 001 1h6a.75.75 0 010 1.5h-6a2.5 2.5 0 01-2.5-2.5V2.875z"/><path d="M18.643 20.484a.749.749 0 101.061 1.06l3.757-3.757a.75.75 0 000-1.06l-3.757-3.757a.75.75 0 00-1.061 1.06l2.476 2.477H13a.75.75 0 000 1.5h8.12l-2.477 2.477z"/></svg>