<svg xmlns="http://www.w3.org/2000/svg" viewBox="0 0 24 24" width="20" height="20"><path d="M12 2.5A9.5 9.5 0 002.5 12a9.5 9.5 0 009.5 9.5.75.75 0 010 1.5C5.925 23 1 18.075 1 12S5.925 1 12 1s11 4.925 11 11a.75.75 0 01-1.5 0A9.5 9.5 0 0012 2.5z"/><path d="M13.759 17.48l3.728 3.314a.308.308 0 00.513-.23V18h4.25a.75.75 0 000-1.5H18v-2.564a.308.308 0 00-.513-.23l-3.728 3.314a.307.307 0 000 .46zm3.521-8.2a.749.749 0 10-1.06-1.06l-5.97 5.969-2.47-2.469a.749.749 0 10-1.06 1.06l3 3a.749.749 0 001.06 0l6.5-6.5z"/></svg>