<svg fill="none" xmlns="http://www.w3.org/2000/svg" viewBox="0 0 24 24" width="20" height="20"><path fill-rule="evenodd" clip-rule="evenodd" d="M21.75 17A4.75 4.75 0 0117 21.75H7A4.75 4.75 0 012.25 17V7A4.75 4.75 0 017 2.25h10A4.75 4.75 0 0121.75 7v10zM7 16.75a.75.75 0 01-.75-.75V8A.75.75 0 017 7.25h2a2.75 2.75 0 110 5.5H7.75V16a.75.75 0 01-.75.75zm.75-5.5H9a1.25 1.25 0 100-2.5H7.75v2.5zm8.579.085a.75.75 0 101.342-.67 2.56 2.56 0 00-2.29-1.415H15a2.25 2.25 0 000 4.5h.5a.75.75 0 010 1.5h-.382a1.06 1.06 0 01-.947-.585.75.75 0 00-1.342.67 2.559 2.559 0 002.289 1.415h.382a2.25 2.25 0 100-4.5H15a.75.75 0 010-1.5h.382c.4 0 .768.227.947.585z" fill="currentColor"/></svg>