<svg fill="none" xmlns="http://www.w3.org/2000/svg" viewBox="0 0 24 24" width="20" height="20"><path fill-rule="evenodd" clip-rule="evenodd" d="M12 3.25c-5.385 0-9.75 4.365-9.75 9.75s4.365 9.75 9.75 9.75 9.75-4.365 9.75-9.75S17.385 3.25 12 3.25zm0 10.5a.75.75 0 01-.75-.75V8a.75.75 0 011.5 0v4.25H17a.75.75 0 010 1.5h-5zm-7.6-9.8a.75.75 0 001.05.15l2-1.5a.75.75 0 10-.9-1.2l-2 1.5a.75.75 0 00-.15 1.05zm15.2 0a.75.75 0 01-1.05.15l-2-1.5a.75.75 0 11.9-1.2l2 1.5a.75.75 0 01.15 1.05z" fill="currentColor"/></svg>