<svg stroke-width="1.5" fill="none" xmlns="http://www.w3.org/2000/svg" viewBox="0 0 24 24" width="20" height="20"><path fill-rule="evenodd" clip-rule="evenodd" d="M3 9.25a.75.75 0 00-.75.75v9A2.75 2.75 0 005 21.75h6.5v-3.5a6.75 6.75 0 016.75-6.75c1.281 0 2.48.473 3.5 1.093V10a.75.75 0 00-.75-.75H3z" fill="currentColor"/><path fill-rule="evenodd" clip-rule="evenodd" d="M7 1.25a.75.75 0 01.75.75v4a.75.75 0 01-1.5 0V4.75H5c-.69 0-1.25.56-1.25 1.25v4a.75.75 0 01-1.5 0V6A2.75 2.75 0 015 3.25h1.25V2A.75.75 0 017 1.25zm8 0a.75.75 0 01.75.75v4a.75.75 0 01-1.5 0V4.75H10.5a.75.75 0 010-1.5h3.75V2a.75.75 0 01.75-.75zM17.75 4a.75.75 0 01.75-.75h.5A2.75 2.75 0 0121.75 6v4a.75.75 0 01-1.5 0V6c0-.69-.56-1.25-1.25-1.25h-.5a.75.75 0 01-.75-.75zm.24 10.75c-1.378 0-2.617.989-3.076 2.472a.75.75 0 11-1.433-.444c.622-2.008 2.371-3.528 4.51-3.528 1.998 0 3.66 1.33 4.374 3.142a.75.75 0 01-1.396.55c-.524-1.329-1.688-2.192-2.978-2.192z" fill="currentColor"/><path fill-rule="evenodd" clip-rule="evenodd" d="M22 13.8a.75.75 0 01.75.75v1.622a1.35 1.35 0 01-1.35 1.35h-1.405a.75.75 0 010-1.5h1.255V14.55a.75.75 0 01.75-.75zm-3.99 7.45c1.379 0 2.618-.989 3.077-2.472a.75.75 0 111.433.444c-.622 2.008-2.371 3.528-4.51 3.528-1.998 0-3.66-1.33-4.374-3.142a.75.75 0 111.396-.55c.524 1.329 1.688 2.192 2.978 2.192z" fill="currentColor"/><path fill-rule="evenodd" clip-rule="evenodd" d="M14 22.2a.75.75 0 01-.75-.75v-1.622c0-.746.604-1.35 1.35-1.35h1.405a.75.75 0 010 1.5H14.75v1.472a.75.75 0 01-.75.75z" fill="currentColor"/></svg>