<svg stroke-width="1.5" fill="none" xmlns="http://www.w3.org/2000/svg" viewBox="0 0 24 24" width="20" height="20"><path fill-rule="evenodd" clip-rule="evenodd" d="M3 9.25a.75.75 0 00-.75.75v9A2.75 2.75 0 005 21.75h10.804a2.24 2.24 0 01.605-1.098l.53-.53-.53-.531a2.25 2.25 0 113.182-3.182l.53.53.53-.53a2.24 2.24 0 011.099-.605V10a.75.75 0 00-.75-.75H3z" fill="currentColor"/><path fill-rule="evenodd" clip-rule="evenodd" d="M7 1.25a.75.75 0 01.75.75v4a.75.75 0 01-1.5 0V4.75H5c-.69 0-1.25.56-1.25 1.25v4a.75.75 0 01-1.5 0V6A2.75 2.75 0 015 3.25h1.25V2A.75.75 0 017 1.25zm8 0a.75.75 0 01.75.75v4a.75.75 0 01-1.5 0V4.75H10.5a.75.75 0 010-1.5h3.75V2a.75.75 0 01.75-.75zM17.75 4a.75.75 0 01.75-.75h.5A2.75 2.75 0 0121.75 6v4a.75.75 0 01-1.5 0V6c0-.69-.56-1.25-1.25-1.25h-.5a.75.75 0 01-.75-.75zm-.28 13.47a.75.75 0 011.06 0l1.591 1.59 1.591-1.59a.75.75 0 011.061 1.06l-1.591 1.591 1.591 1.591a.75.75 0 01-1.06 1.061l-1.592-1.591-1.59 1.591a.75.75 0 11-1.061-1.06l1.59-1.592-1.59-1.59a.75.75 0 010-1.061z" fill="currentColor"/></svg>