<svg stroke-width="1.5" fill="none" xmlns="http://www.w3.org/2000/svg" viewBox="0 0 24 24" width="20" height="20"><path fill-rule="evenodd" clip-rule="evenodd" d="M4 4.25A2.75 2.75 0 001.25 7v10A2.75 2.75 0 004 19.75h16A2.75 2.75 0 0022.75 17V7A2.75 2.75 0 0020 4.25H4zm15.067 8.251a.75.75 0 10-1.114-1.004l-.01.011a.75.75 0 101.114 1.004l.01-.011zm-13.055-1.06a.75.75 0 01.055 1.06l-.01.011a.75.75 0 11-1.114-1.004l.01-.011a.75.75 0 011.059-.055zM12 8.25a3.75 3.75 0 100 7.5 3.75 3.75 0 000-7.5z" fill="currentColor"/></svg>