<svg fill="none" xmlns="http://www.w3.org/2000/svg" viewBox="0 0 24 24" width="20" height="20"><path fill-rule="evenodd" clip-rule="evenodd" d="M12 1.25C6.063 1.25 1.25 6.063 1.25 12c0 1.856.471 3.605 1.3 5.13l-.787 4.233a.75.75 0 00.874.874l4.233-.788A10.702 10.702 0 0012 22.75c5.937 0 10.75-4.813 10.75-10.75S17.937 1.25 12 1.25zm-1.969 7.72a.75.75 0 00-1.062 1.06L10.934 12l-1.965 1.97a.75.75 0 101.062 1.06l1.963-1.97 1.976 1.971a.75.75 0 101.06-1.062L13.055 12l1.975-1.969a.75.75 0 10-1.06-1.062l-1.976 1.97-1.963-1.969z" fill="currentColor"/></svg>