<svg fill="none" xmlns="http://www.w3.org/2000/svg" viewBox="0 0 24 24" width="20" height="20"><path fill-rule="evenodd" clip-rule="evenodd" d="M12 1.25C6.063 1.25 1.25 6.063 1.25 12c0 1.856.471 3.605 1.3 5.13l-.787 4.233a.75.75 0 00.874.874l4.233-.788A10.702 10.702 0 0012 22.75c5.937 0 10.75-4.813 10.75-10.75S17.937 1.25 12 1.25zM12.75 7a.75.75 0 00-1.5 0v.767H7a.75.75 0 000 1.5h7.173c-.512 1.326-1.286 2.61-2.187 3.81a24.629 24.629 0 01-.54-.713c-.376-.516-.658-.952-.767-1.183a.75.75 0 00-1.358.638c.177.375.538.914.912 1.428.252.345.527.703.791 1.03a35.386 35.386 0 01-3.1 3.168.75.75 0 101.01 1.11 37.313 37.313 0 003.107-3.16l1.564 1.61a.75.75 0 101.076-1.045l-1.684-1.733c1.15-1.492 2.17-3.17 2.77-4.96H17a.75.75 0 000-1.5h-4.25V7z" fill="currentColor"/></svg>