<svg stroke-width="1.5" fill="none" xmlns="http://www.w3.org/2000/svg" viewBox="0 0 24 24" width="20" height="20"><path fill-rule="evenodd" clip-rule="evenodd" d="M.25 9A6.75 6.75 0 017 2.25h10A6.75 6.75 0 0123.75 9v6A6.75 6.75 0 0117 21.75H7A6.75 6.75 0 01.25 15V9zm4.5 2.828a3.578 3.578 0 016.109-2.53l.171.172a.75.75 0 01-1.06 1.06l-.172-.171a2.078 2.078 0 00-3.548 1.47v.343a2.078 2.078 0 003.548 1.47l.172-.172a.75.75 0 111.06 1.06l-.171.172a3.578 3.578 0 01-6.109-2.53v-.344zM16.328 8.25a3.578 3.578 0 00-3.578 3.578v.344a3.578 3.578 0 006.109 2.53l.171-.172a.75.75 0 10-1.06-1.06l-.172.171a2.079 2.079 0 01-3.548-1.47v-.343a2.078 2.078 0 013.548-1.47l.172.172a.75.75 0 001.06-1.06l-.171-.172a3.578 3.578 0 00-2.53-1.048z" fill="currentColor"/></svg>