<svg fill="none" xmlns="http://www.w3.org/2000/svg" viewBox="0 0 24 24" width="20" height="20"><path d="M5.212 15.111l-2.687-2.687a.6.6 0 010-.848l2.687-2.687a.6.6 0 01.848 0l2.687 2.687a.6.6 0 010 .848L6.06 15.111a.6.6 0 01-.848 0zm6.364 6.365l-2.687-2.688a.6.6 0 010-.848l2.687-2.687a.6.6 0 01.848 0l2.687 2.687a.6.6 0 010 .848l-2.687 2.688a.6.6 0 01-.848 0zm0-12.729L8.889 6.06a.6.6 0 010-.849l2.687-2.687a.6.6 0 01.848 0l2.687 2.687a.6.6 0 010 .849l-2.687 2.687a.6.6 0 01-.848 0zm6.364 6.364l-2.687-2.687a.6.6 0 010-.848l2.687-2.687a.6.6 0 01.848 0l2.687 2.687a.6.6 0 010 .848l-2.687 2.687a.6.6 0 01-.848 0z" fill="currentColor" stroke="currentColor" stroke-width="1.5"/></svg>