<svg stroke-width="1.5" fill="none" xmlns="http://www.w3.org/2000/svg" viewBox="0 0 24 24" width="20" height="20"><path fill-rule="evenodd" clip-rule="evenodd" d="M20.4 21.75a1.35 1.35 0 001.35-1.35V3.6a1.35 1.35 0 00-1.35-1.35H3.6A1.35 1.35 0 002.25 3.6v16.8c0 .746.604 1.35 1.35 1.35h16.8zM12.75 7a.75.75 0 00-1.5 0v3.725l-3.386-1.88a.75.75 0 00-.728 1.31L10.456 12l-3.32 1.844a.75.75 0 10.728 1.312l3.386-1.881V17a.75.75 0 001.5 0v-3.725l3.386 1.88a.75.75 0 10.728-1.31L13.544 12l3.32-1.844a.75.75 0 10-.728-1.312l-3.386 1.881V7z" fill="currentColor"/></svg>