<svg stroke-width="1.5" fill="none" xmlns="http://www.w3.org/2000/svg" viewBox="0 0 24 24" width="20" height="20"><path fill-rule="evenodd" clip-rule="evenodd" d="M12.868 4.632a1.75 1.75 0 00-1.736 0l-6 3.429A1.75 1.75 0 004.25 9.58v5.84c0 .627.337 1.207.882 1.519l6 3.428a1.75 1.75 0 001.736 0l6-3.428a1.75 1.75 0 00.882-1.52V9.58a1.75 1.75 0 00-.882-1.518l-6-3.43zM7.356 9.647a.75.75 0 10-.712 1.321l4.606 2.48V17.5a.75.75 0 101.5 0v-4.052l4.606-2.48a.75.75 0 10-.712-1.32L12 12.147l-4.644-2.5zM3.512 2.442A.75.75 0 013.567 3.5l-.01.01a.75.75 0 11-1.114-1.003l.01-.01a.75.75 0 011.059-.056zm0 18a.75.75 0 01.055 1.059l-.01.01a.75.75 0 11-1.114-1.003l.01-.01a.75.75 0 011.059-.056zm18-18a.75.75 0 01.055 1.059l-.01.01a.75.75 0 01-1.114-1.003l.01-.01a.75.75 0 011.059-.056zm0 18a.75.75 0 01.055 1.059l-.01.01a.75.75 0 11-1.114-1.003l.01-.01a.75.75 0 011.059-.056z" fill="currentColor"/></svg>