<svg stroke-width="1.5" fill="none" xmlns="http://www.w3.org/2000/svg" viewBox="0 0 24 24" width="20" height="20"><path fill-rule="evenodd" clip-rule="evenodd" d="M12 1.25C6.063 1.25 1.25 6.063 1.25 12S6.063 22.75 12 22.75 22.75 17.937 22.75 12 17.937 1.25 12 1.25zm.75 4.25a.75.75 0 00-1.5 0v1.103c-.515.077-1.02.255-1.447.579C9.13 7.692 8.75 8.483 8.75 9.5c0 .495.115.936.342 1.316.225.376.534.653.865.864.612.39 1.393.602 2.039.778l.057.016c.719.196 1.284.357 1.685.612.185.118.305.239.382.367.073.123.13.292.13.547 0 .61-.245.992-.604 1.243-.39.273-.965.422-1.62.399-1-.037-1.955-.464-2.426-1.092a.75.75 0 10-1.2.9c.67.893 1.757 1.425 2.85 1.615V18.5a.75.75 0 001.5 0v-1.391c.628-.075 1.242-.276 1.756-.637.757-.53 1.244-1.37 1.244-2.472 0-.495-.115-.936-.342-1.316a2.624 2.624 0 00-.865-.864c-.612-.39-1.393-.602-2.039-.778l-.057-.016c-.719-.196-1.284-.357-1.685-.612a1.134 1.134 0 01-.382-.367 1.03 1.03 0 01-.13-.547c0-.614.21-.935.458-1.122.28-.212.716-.335 1.272-.32.949.026 1.961.444 2.49.972a.75.75 0 101.06-1.06c-.682-.683-1.731-1.163-2.78-1.34V5.5z" fill="currentColor"/></svg>