<svg stroke-width="1.5" fill="none" xmlns="http://www.w3.org/2000/svg" viewBox="0 0 24 24" width="20" height="20"><path fill-rule="evenodd" clip-rule="evenodd" d="M12 2l-.516-.544L12 2zm.517-.544l.001.002.005.004.018.018.07.067.26.254a52.914 52.914 0 013.71 4.068c1.014 1.24 2.043 2.64 2.823 4.024.768 1.364 1.346 2.805 1.346 4.107a8.75 8.75 0 11-17.5 0c0-1.302.578-2.743 1.346-4.107.78-1.384 1.81-2.783 2.823-4.024a52.918 52.918 0 013.97-4.322l.07-.067.018-.018.007-.006.516-.49.517.49zM12 2l.517-.544L12 2zm.75 8a.75.75 0 00-1.5 0v2.194l-1.872-1.092a.75.75 0 10-.756 1.296l1.89 1.102-1.89 1.102a.75.75 0 10.756 1.296l1.872-1.092V17a.75.75 0 001.5 0v-2.194l1.872 1.092a.75.75 0 00.756-1.296l-1.89-1.102 1.89-1.102a.75.75 0 10-.756-1.296l-1.872 1.092V10z" fill="currentColor"/></svg>