<svg stroke-width="1.5" fill="none" xmlns="http://www.w3.org/2000/svg" viewBox="0 0 24 24" width="20" height="20"><path fill-rule="evenodd" clip-rule="evenodd" d="M7.25 4A.75.75 0 018 3.25h8a.75.75 0 010 1.5H8A.75.75 0 017.25 4z" fill="currentColor"/><path d="M9 3.75a.75.75 0 01.75.75v5.76a2.75 2.75 0 01-.662 1.79l-1.884 2.198h9.592l-1.884-2.198a2.75 2.75 0 01-.662-1.79V4.5a.75.75 0 011.5 0v5.76c0 .299.107.587.3.814l5.038 5.876a2.75 2.75 0 01.662 1.79V19A2.75 2.75 0 0119 21.75H5A2.75 2.75 0 012.25 19v-.26c0-.657.235-1.291.662-1.79l5.037-5.876c.194-.227.301-.515.301-.814V4.5A.75.75 0 019 3.75z" fill="currentColor"/><path fill-rule="evenodd" clip-rule="evenodd" d="M12.512 8.442a.75.75 0 01.056 1.059l-.01.01a.75.75 0 01-1.115-1.003l.01-.01a.75.75 0 011.059-.056zm-1-7a.75.75 0 01.056 1.059l-.01.01a.75.75 0 01-1.115-1.003l.01-.01a.75.75 0 011.059-.056z" fill="currentColor"/></svg>