<svg stroke-width="1.5" fill="none" xmlns="http://www.w3.org/2000/svg" viewBox="0 0 24 24" width="20" height="20"><path fill-rule="evenodd" clip-rule="evenodd" d="M8 2.25A6.75 6.75 0 001.25 9v6A6.75 6.75 0 008 21.75h8A6.75 6.75 0 0022.75 15V9A6.75 6.75 0 0016 2.25H8zm-2 6a.75.75 0 00-.75.75v6a.75.75 0 001.5 0v-2.25h2.821a.75.75 0 000-1.5H6.75v-1.5H11a.75.75 0 000-1.5H6zm7.576.27a.75.75 0 10-1.152.96l2.1 2.52-2.1 2.52a.75.75 0 101.152.96l1.924-2.308 1.924 2.308a.75.75 0 101.152-.96l-2.1-2.52 2.1-2.52a.75.75 0 10-1.152-.96L15.5 10.829l-1.924-2.31z" fill="currentColor"/></svg>