<svg stroke-width="1.5" fill="none" xmlns="http://www.w3.org/2000/svg" viewBox="0 0 24 24" width="20" height="20"><g clip-path="url(#clip0_4265_8372)"><path fill-rule="evenodd" clip-rule="evenodd" d="M12.955.893a1.35 1.35 0 00-1.91 0L8.24 3.7c.219.208.43.41.54.52l2.25 2.25a2.25 2.25 0 013 3l1.25 1.25a2.25 2.25 0 11-1.06 1.06l-1.25-1.248a2.222 2.222 0 01-.22.09v3.757a2.251 2.251 0 11-1.5 0v-3.756A2.25 2.25 0 019.97 7.53L7.72 5.28c-.074-.073-.29-.299-.52-.541L.894 11.045a1.35 1.35 0 000 1.91l10.151 10.15a1.35 1.35 0 001.91 0l10.151-10.15a1.35 1.35 0 000-1.91L12.955.893zM12 15.75a.75.75 0 100 1.5.75.75 0 000-1.5zm.75-7.25a.75.75 0 11-1.5 0 .75.75 0 011.5 0zm2.75 4.25a.75.75 0 111.5 0 .75.75 0 01-1.5 0z" fill="currentColor"/></g><defs><clipPath id="clip0_4265_8372"><path fill="#fff" d="M0 0h24v24H0z"/></clipPath></defs></svg>