<svg stroke-width="1.5" fill="none" xmlns="http://www.w3.org/2000/svg" viewBox="0 0 24 24" width="20" height="20"><path fill-rule="evenodd" clip-rule="evenodd" d="M3.75 12.641v3.271a2.75 2.75 0 001.57 2.484l5 2.374a2.75 2.75 0 002.36 0l5-2.374a2.75 2.75 0 001.57-2.484v-3.27l-6.475 3.237a2.85 2.85 0 01-2.55 0L3.75 12.64z" fill="currentColor"/><path fill-rule="evenodd" clip-rule="evenodd" d="M10.896 3.464c.38-.19.828-.19 1.208 0l8.658 4.329c.995.497.995 1.917 0 2.415l-8.658 4.33c-.38.19-.828.19-1.208 0l-8.658-4.33c-.995-.498-.995-1.918 0-2.415l8.658-4.33z" fill="currentColor"/><path fill-rule="evenodd" clip-rule="evenodd" d="M19.83 8.165a.75.75 0 011.006-.336l2 1a.75.75 0 01.414.671V13a.75.75 0 11-1.5 0V9.964l-1.585-.793a.75.75 0 01-.336-1.006z" fill="currentColor"/></svg>