<svg stroke-width="1.5" fill="none" xmlns="http://www.w3.org/2000/svg" viewBox="0 0 24 24" width="20" height="20"><path fill-rule="evenodd" clip-rule="evenodd" d="M.25 9A6.75 6.75 0 017 2.25h10A6.75 6.75 0 0123.75 9v6A6.75 6.75 0 0117 21.75H7A6.75 6.75 0 01.25 15V9zM6 7.75a.75.75 0 01.75.75v2.75h3V8.5a.75.75 0 011.5 0v7a.75.75 0 01-1.5 0v-2.75h-3v2.75a.75.75 0 01-1.5 0v-7A.75.75 0 016 7.75zm8.75 6.996V9.254c.965.015 1.766.081 2.37.363.344.16.607.387.795.724.194.349.335.869.335 1.659s-.142 1.31-.335 1.66c-.188.336-.45.562-.795.723-.604.282-1.405.348-2.37.363zm5-2.746c0-.96-.171-1.752-.524-2.388a3.172 3.172 0 00-1.471-1.354c-1.09-.509-2.483-.508-3.659-.508H14a.75.75 0 00-.75.75v7c0 .414.336.75.75.75h.096c1.176 0 2.569 0 3.659-.508a3.172 3.172 0 001.47-1.354c.354-.636.525-1.428.525-2.388z" fill="currentColor"/></svg>