<svg fill="none" xmlns="http://www.w3.org/2000/svg" viewBox="0 0 24 24" width="20" height="20"><path d="M4 13.5V13c0-4.97 3.582-9 8-9s8 4.03 8 9v.5" stroke="currentColor" stroke-width="1.5" stroke-linecap="round" stroke-linejoin="round"/><path d="M2 17.438v-1.877a2 2 0 011.515-1.94L4 13.5l1.254-.314a.6.6 0 01.746.582v5.463a.6.6 0 01-.746.582l-1.74-.434A2 2 0 012 17.438zm20 0v-1.877a2 2 0 00-1.515-1.94L20 13.5l-1.255-.314a.6.6 0 00-.745.582v5.463a.6.6 0 00.745.582l1.74-.434A2 2 0 0022 17.438z" fill="currentColor" stroke="currentColor" stroke-width="1.5" stroke-linecap="round" stroke-linejoin="round"/></svg>