<svg stroke-width="1.5" fill="none" xmlns="http://www.w3.org/2000/svg" viewBox="0 0 24 24" width="20" height="20"><path fill-rule="evenodd" clip-rule="evenodd" d="M20.4 21.75a1.35 1.35 0 001.35-1.35V3.6a1.35 1.35 0 00-1.35-1.35H3.6A1.35 1.35 0 002.25 3.6v16.8c0 .746.604 1.35 1.35 1.35h16.8zM7.424 12.48c.829.995 1.015 1.917.924 2.736-.095.853-.5 1.66-.972 2.368a.75.75 0 001.249.832c.528-.793 1.08-1.836 1.214-3.034.137-1.231-.176-2.559-1.262-3.862-.83-.995-1.016-1.917-.924-2.736.095-.853.5-1.66.971-2.368a.75.75 0 10-1.248-.832c-.528.793-1.08 1.836-1.214 3.034-.137 1.231.176 2.559 1.262 3.862zm8.924 2.736c.091-.82-.095-1.741-.924-2.736-1.086-1.303-1.4-2.63-1.262-3.862.133-1.198.686-2.241 1.214-3.034a.75.75 0 011.249.832c-.472.708-.877 1.515-.972 2.368-.092.82.095 1.741.924 2.736 1.086 1.303 1.4 2.631 1.262 3.862-.134 1.198-.686 2.242-1.214 3.034a.75.75 0 11-1.249-.832c.472-.707.877-1.515.972-2.368zm-4.924-2.736c.829.995 1.016 1.917.924 2.736-.095.853-.5 1.66-.972 2.368a.75.75 0 101.249.832c.528-.793 1.08-1.836 1.214-3.034.137-1.231-.176-2.559-1.262-3.862-.829-.995-1.016-1.917-.924-2.736.095-.853.5-1.66.971-2.368a.75.75 0 00-1.248-.832c-.528.793-1.08 1.836-1.214 3.034-.137 1.231.176 2.559 1.262 3.862z" fill="currentColor"/></svg>