<svg fill="none" xmlns="http://www.w3.org/2000/svg" viewBox="0 0 24 24" width="20" height="20"><path d="M5 7v10h5.4a.6.6 0 00.6-.6V7.6a.6.6 0 00-.6-.6H5z" fill="currentColor"/><path d="M5 17V7m0 10h5.4a.6.6 0 00.6-.6V7.6a.6.6 0 00-.6-.6H5m0 10v3M5 7V4" stroke="currentColor" stroke-width="1.5" stroke-linecap="round" stroke-linejoin="round"/><path d="M15 7v10h3.4a.6.6 0 00.6-.6V7.6a.6.6 0 00-.6-.6H15z" fill="currentColor"/><path d="M15 17V7m0 10h3.4a.6.6 0 00.6-.6V7.6a.6.6 0 00-.6-.6H15m0 10v3m0-13V4" stroke="currentColor" stroke-width="1.5" stroke-linecap="round" stroke-linejoin="round"/></svg>