<svg fill="none" xmlns="http://www.w3.org/2000/svg" viewBox="0 0 24 24" width="20" height="20"><path d="M19 7v10h-5.4a.6.6 0 01-.6-.6V7.6a.6.6 0 01.6-.6H19z" fill="currentColor"/><path d="M19 17V7m0 10h-5.4a.6.6 0 01-.6-.6V7.6a.6.6 0 01.6-.6H19m0 10v3m0-13V4" stroke="currentColor" stroke-width="1.5" stroke-linecap="round" stroke-linejoin="round"/><path d="M9 7v10H5.6a.6.6 0 01-.6-.6V7.6a.6.6 0 01.6-.6H9z" fill="currentColor"/><path d="M9 17V7m0 10H5.6a.6.6 0 01-.6-.6V7.6a.6.6 0 01.6-.6H9m0 10v3M9 7V4" stroke="currentColor" stroke-width="1.5" stroke-linecap="round" stroke-linejoin="round"/></svg>