<svg stroke-width="1.5" fill="none" xmlns="http://www.w3.org/2000/svg" viewBox="0 0 24 24" width="20" height="20"><path fill-rule="evenodd" clip-rule="evenodd" d="M14.066 5.18L12.56 6.874l-1.121-.997 1.505-1.693a2.75 2.75 0 014.11 0l5.324 5.99a2.75 2.75 0 010 3.653m0 0l-5.324 5.99a2.75 2.75 0 01-4.11 0l-1.505-1.693 1.12-.997 1.506 1.693a1.25 1.25 0 001.868 0l5.324-5.99a1.25 1.25 0 000-1.66l-5.324-5.99a1.25 1.25 0 00-1.868 0" fill="currentColor"/><path d="M6.945 4.184a2.75 2.75 0 014.11 0l5.325 5.99a2.75 2.75 0 010 3.653l-5.324 5.99a2.75 2.75 0 01-4.111 0l-5.324-5.99a2.75 2.75 0 010-3.654l5.324-5.99z" fill="currentColor"/></svg>