<svg stroke-width="1.5" fill="none" xmlns="http://www.w3.org/2000/svg" viewBox="0 0 24 24" width="20" height="20"><path d="M10.963 6.073a1.35 1.35 0 012.074 0l4.22 5.062a1.35 1.35 0 010 1.729l-4.22 5.063a1.35 1.35 0 01-2.074 0l-4.22-5.063a1.35 1.35 0 01.001-1.729l4.219-5.062z" fill="currentColor"/><path fill-rule="evenodd" clip-rule="evenodd" d="M1.25 12a.75.75 0 01.75-.75h2a.75.75 0 010 1.5H2a.75.75 0 01-.75-.75zm18 0a.75.75 0 01.75-.75h2a.75.75 0 010 1.5h-2a.75.75 0 01-.75-.75z" fill="currentColor"/></svg>