<svg stroke-width="1.5" fill="none" xmlns="http://www.w3.org/2000/svg" viewBox="0 0 24 24" width="20" height="20"><path fill-rule="evenodd" clip-rule="evenodd" d="M19 1.25a.75.75 0 01.75.75v2.25H22a.75.75 0 010 1.5h-2.25V8a.75.75 0 01-1.5 0V5.75H16a.75.75 0 010-1.5h2.25V2a.75.75 0 01.75-.75z" fill="currentColor"/><path d="M7.945 5.184a2.75 2.75 0 014.11 0l5.325 5.99a2.75 2.75 0 010 3.653l-5.324 5.99a2.75 2.75 0 01-4.111 0l-5.324-5.99a2.75 2.75 0 010-3.654l5.324-5.99z" fill="currentColor"/></svg>