<svg stroke-width="1.5" fill="none" xmlns="http://www.w3.org/2000/svg" viewBox="0 0 24 24" width="20" height="20"><path d="M20 7.25a.75.75 0 01.75.75v4.296c0 4.696-3.944 8.454-8.75 8.454s-8.75-3.758-8.75-8.454V8A.75.75 0 014 7.25h5.63a.75.75 0 01.75.75v2.818c0 .734.665 1.432 1.62 1.432.955 0 1.62-.698 1.62-1.432V8a.75.75 0 01.75-.75H20z" fill="currentColor"/><path fill-rule="evenodd" clip-rule="evenodd" d="M3.25 4A.75.75 0 014 3.25h5.63a.75.75 0 01.75.75v6.818c0 .734.665 1.432 1.62 1.432.955 0 1.62-.698 1.62-1.432V4a.75.75 0 01.75-.75H20a.75.75 0 010 1.5h-4.88v6.068c0 1.677-1.456 2.932-3.12 2.932-1.664 0-3.12-1.255-3.12-2.932V4.75H4A.75.75 0 013.25 4z" fill="currentColor"/><path fill-rule="evenodd" clip-rule="evenodd" d="M4 9.75A.75.75 0 013.25 9V4a.75.75 0 011.5 0v5a.75.75 0 01-.75.75zm16 0a.75.75 0 01-.75-.75V4a.75.75 0 011.5 0v5a.75.75 0 01-.75.75z" fill="currentColor"/></svg>