<svg stroke-width="1.5" fill="none" xmlns="http://www.w3.org/2000/svg" viewBox="0 0 24 24" width="20" height="20"><path d="M17 14h6m0 0l-3-3m3 3l-3 3" stroke="currentColor" stroke-linecap="round" stroke-linejoin="round"/><path fill-rule="evenodd" clip-rule="evenodd" d="M.25 7A2.75 2.75 0 013 4.25h13A2.75 2.75 0 0118.75 7v2.129a2.25 2.25 0 00-.872 2.621H17a2.25 2.25 0 000 4.5h.878a2.25 2.25 0 00.435 2.239A2.748 2.748 0 0116 19.75H3A2.75 2.75 0 01.25 17V7zM17 13.25h1.75v1.5H17a.75.75 0 010-1.5zM5.416 8.376a.75.75 0 00-.832 1.248l4.5 3a.75.75 0 00.832 0l4.5-3a.75.75 0 00-.832-1.248L9.5 11.099 5.416 8.376z" fill="currentColor"/></svg>