<svg stroke-width="1.5" fill="none" xmlns="http://www.w3.org/2000/svg" viewBox="0 0 24 24" width="20" height="20"><path fill-rule="evenodd" clip-rule="evenodd" d="M.25 7A2.75 2.75 0 013 4.25h13A2.75 2.75 0 0118.75 7v2.129c-.12.08-.235.174-.341.28l-3 3a2.25 2.25 0 000 3.182l2.901 2.901A2.748 2.748 0 0116 19.75H3A2.75 2.75 0 01.25 17V7zm16.22 6.47l2.28-2.28v5.62l-1-1-1.28-1.28a.75.75 0 010-1.06zM5.416 8.376a.75.75 0 00-.832 1.248l4.5 3a.75.75 0 00.832 0l4.5-3a.75.75 0 00-.832-1.248L9.5 11.099 5.416 8.376z" fill="currentColor"/><path fill-rule="evenodd" clip-rule="evenodd" d="M20.53 10.47a.75.75 0 010 1.06l-1.72 1.72H23a.75.75 0 010 1.5h-4.19l1.72 1.72a.75.75 0 11-1.06 1.06l-3-3a.75.75 0 010-1.06l3-3a.75.75 0 011.06 0z" fill="currentColor"/></svg>