<svg stroke-width="1.5" fill="none" xmlns="http://www.w3.org/2000/svg" viewBox="0 0 24 24" width="20" height="20"><path fill-rule="evenodd" clip-rule="evenodd" d="M19.75 22a.75.75 0 01-.75.75H5a.75.75 0 010-1.5h1.25V19a.75.75 0 011.5 0v2.25H19a.75.75 0 01.75.75zm0-6a.75.75 0 01-.75.75h-9a.75.75 0 010-1.5h9a.75.75 0 01.75.75zm-3-14a.75.75 0 01-.75.75h-4a.75.75 0 010-1.5h4a.75.75 0 01.75.75zm-4 5a.75.75 0 01-.75.75c-1.443 0-2.503.245-3.19.735-.635.454-1.06 1.2-1.06 2.515v2a.75.75 0 01-1.5 0v-2c0-1.685.575-2.94 1.69-3.735C9.002 6.505 10.442 6.25 12 6.25a.75.75 0 01.75.75z" fill="currentColor"/><path fill-rule="evenodd" clip-rule="evenodd" d="M16.75 11.4a1.35 1.35 0 01-1.35 1.35h-2.8a1.35 1.35 0 01-1.35-1.35V4.6c0-.746.604-1.35 1.35-1.35h2.8c.746 0 1.35.604 1.35 1.35v6.8zm-6 4.6a3.75 3.75 0 10-7.5 0 3.75 3.75 0 007.5 0z" fill="currentColor"/></svg>