<svg stroke-width="1.5" fill="none" xmlns="http://www.w3.org/2000/svg" viewBox="0 0 24 24" width="20" height="20"><path fill-rule="evenodd" clip-rule="evenodd" d="M2.47 2.47a.75.75 0 011.06 0l18 18a.75.75 0 11-1.06 1.06l-18-18a.75.75 0 010-1.06z" fill="currentColor"/><path fill-rule="evenodd" clip-rule="evenodd" d="M8.25 4.384a3.134 3.134 0 013.134-3.134H12A3.75 3.75 0 0115.75 5v5.5a.75.75 0 01-1.23.576L9.378 6.791A3.134 3.134 0 018.25 4.384zM14 14.75A5.75 5.75 0 018.25 9h1.5A4.25 4.25 0 0014 13.25v1.5z" fill="currentColor"/><path fill-rule="evenodd" clip-rule="evenodd" d="M5 9.25a.75.75 0 01.75.75v1a6.25 6.25 0 1012.5 0v-1a.75.75 0 011.5 0v1a7.75 7.75 0 01-15.5 0v-1A.75.75 0 015 9.25z" fill="currentColor"/><path fill-rule="evenodd" clip-rule="evenodd" d="M12 17.25a.75.75 0 01.75.75v3.25H15a.75.75 0 010 1.5H9a.75.75 0 010-1.5h2.25V18a.75.75 0 01.75-.75z" fill="currentColor"/></svg>