<svg fill="none" xmlns="http://www.w3.org/2000/svg" viewBox="0 0 24 24" width="20" height="20"><path fill-rule="evenodd" clip-rule="evenodd" d="M1.25 16.5a6.25 6.25 0 113.374 5.55l-2.212.412a.75.75 0 01-.874-.874l.412-2.212a6.226 6.226 0 01-.7-2.876z" fill="currentColor"/><path fill-rule="evenodd" clip-rule="evenodd" d="M22.75 10A8.75 8.75 0 0014 1.25c-4.266 0-8.098 3.25-8.662 7.509l-.002.004v-.008.008l-.006.063a7.854 7.854 0 00-.02.238 7.75 7.75 0 019.628 9.622 10.375 10.375 0 00.38-.037l.047-.006.014-.001.004-.001h.002l.017-.003a8.695 8.695 0 002.726-.922l3.335.621a.75.75 0 00.874-.874l-.62-3.335A8.714 8.714 0 0022.75 10z" fill="currentColor"/></svg>