<svg fill="none" xmlns="http://www.w3.org/2000/svg" viewBox="0 0 24 24" width="20" height="20"><path d="M16 10h3m3 0h-3m0 0V7m0 3v3" stroke="currentColor" stroke-width="1.5" stroke-linecap="round" stroke-linejoin="round"/><path d="M5 21H4a2 2 0 01-2-2v-1a2 2 0 012-2h3V4l5-1v4L7 8v11a2 2 0 01-2 2z" fill="currentColor"/><path d="M7 16v3a2 2 0 01-2 2H4a2 2 0 01-2-2v-1a2 2 0 012-2h3zm0 0V8m0 0V4l5-1v4L7 8z" stroke="currentColor" stroke-width="1.5" stroke-linecap="round" stroke-linejoin="round"/></svg>