<svg stroke-width="1.5" fill="none" xmlns="http://www.w3.org/2000/svg" viewBox="0 0 24 24" width="20" height="20"><path fill-rule="evenodd" clip-rule="evenodd" d="M4.063 1.25h3.751a.75.75 0 01.702.486l1.456 3.87a.75.75 0 01.035.401l-.73 3.912c.897 2.108 2.378 3.525 4.833 4.796l3.865-.75a.75.75 0 01.41.036l3.882 1.48a.75.75 0 01.483.7v3.584c0 1.626-1.432 2.945-3.108 2.58-3.053-.664-8.71-2.353-12.672-6.315-3.796-3.795-5.068-9.037-5.496-11.87-.244-1.618 1.053-2.91 2.589-2.91z" fill="currentColor"/></svg>