<svg stroke-width="1.5" fill="none" xmlns="http://www.w3.org/2000/svg" viewBox="0 0 24 24" width="20" height="20"><g clip-path="url(#clip0_4161_11243)" fill="currentColor"><path fill-rule="evenodd" clip-rule="evenodd" d="M12 3.25a8.75 8.75 0 100 17.5 8.75 8.75 0 000-17.5zM6.534 16.085a.75.75 0 00.384 1.45c1.93-.51 4.214-1.385 6.568-2.559 2.344-1.168 4.41-2.46 5.977-3.69a.75.75 0 00-.926-1.18c-1.473 1.155-3.45 2.396-5.72 3.528-2.28 1.137-4.47 1.971-6.283 2.451z"/><path d="M20.336 6.755c-.644-.04-1.55.062-2.665.323l-.343-1.46c1.183-.277 2.25-.413 3.102-.36.791.05 1.689.285 2.079 1.067.364.731.078 1.529-.303 2.151-.404.662-1.056 1.37-1.869 2.086l-.99-1.126c.759-.669 1.287-1.263 1.58-1.741.315-.518.24-.698.24-.7-.003-.006-.126-.196-.83-.24zM5.837 17.791c-1.06.219-2.019.313-2.79.238-.726-.071-1.535-.322-1.9-1.053-.39-.78-.04-1.637.395-2.298.468-.71 1.216-1.478 2.144-2.254l.962 1.152c-.876.731-1.5 1.39-1.853 1.927-.386.587-.308.798-.306.804.001.002.1.17.704.229.558.055 1.35-.01 2.342-.214l.302 1.47z"/></g><defs><clipPath id="clip0_4161_11243"><path fill="#fff" d="M0 0h24v24H0z"/></clipPath></defs></svg>