<svg fill="none" xmlns="http://www.w3.org/2000/svg" viewBox="0 0 24 24" width="20" height="20"><path d="M6 19a9.985 9.985 0 01-4-8C2 5.477 6.477 1 12 1s10 4.477 10 10a9.985 9.985 0 01-4 8" stroke="currentColor" stroke-width="1.5" stroke-linecap="round" stroke-linejoin="round"/><path d="M6 19a9.985 9.985 0 01-4-8C2 5.477 6.477 1 12 1s10 4.477 10 10a9.985 9.985 0 01-4 8M7.528 15a6 6 0 118.944 0" stroke="currentColor" stroke-width="1.5" stroke-linecap="round" stroke-linejoin="round"/><path fill-rule="evenodd" clip-rule="evenodd" d="M9.25 11a2.75 2.75 0 115.5 0 2.75 2.75 0 01-5.5 0z" fill="currentColor"/><path d="M15.078 21.486a2.75 2.75 0 01-2.713 2.298h-.611a2.75 2.75 0 01-2.713-2.297l-.509-3.054c-.24-1.438.899-2.548 2.002-3.283 1.378-.919 1.852-.81 3.05-.01 1.058.704 2.242 1.855 2.002 3.293l-.508 3.053z" fill="currentColor"/></svg>