<svg fill="none" xmlns="http://www.w3.org/2000/svg" viewBox="0 0 24 24" width="20" height="20"><g clip-path="url(#clip0_3839_8166)"><path fill-rule="evenodd" clip-rule="evenodd" d="M12.955.893a1.35 1.35 0 00-1.91 0L.894 11.045a1.35 1.35 0 000 1.91l10.151 10.15a1.35 1.35 0 001.91 0l10.151-10.15a1.35 1.35 0 000-1.91L12.955.893zM12.53 16.53a.75.75 0 01-1.071-.01l-4-4.167a.75.75 0 111.082-1.04l2.709 2.823V7a.75.75 0 011.5 0v7.19l2.72-2.72a.75.75 0 111.06 1.06l-4 4z" fill="currentColor"/></g><defs><clipPath id="clip0_3839_8166"><path fill="#fff" d="M0 0h24v24H0z"/></clipPath></defs></svg>