<svg fill="none" xmlns="http://www.w3.org/2000/svg" viewBox="0 0 24 24" width="20" height="20"><g clip-path="url(#clip0_3839_8176)"><path fill-rule="evenodd" clip-rule="evenodd" d="M11.045.893a1.35 1.35 0 011.91 0l10.151 10.152a1.35 1.35 0 010 1.91l-10.151 10.15a1.35 1.35 0 01-1.91 0L.894 12.956a1.35 1.35 0 010-1.91L11.045.893zM5.25 12a.75.75 0 01.75-.75h4a.75.75 0 010 1.5H6a.75.75 0 01-.75-.75zm8.75-.75a.75.75 0 000 1.5h4a.75.75 0 000-1.5h-4z" fill="currentColor"/></g><defs><clipPath id="clip0_3839_8176"><path fill="#fff" d="M0 0h24v24H0z"/></clipPath></defs></svg>