<svg fill="none" xmlns="http://www.w3.org/2000/svg" viewBox="0 0 24 24" width="20" height="20"><path fill-rule="evenodd" clip-rule="evenodd" d="M9.213 12.75c-.084.774-.308 1.392-.698 1.94-.523.731-1.4 1.414-2.85 2.14a.75.75 0 10.67 1.34c1.55-.774 2.673-1.591 3.4-2.61.741-1.036 1.015-2.203 1.015-3.56V7.5A1.75 1.75 0 009 5.75H5A1.75 1.75 0 003.25 7.5V11c0 .966.784 1.75 1.75 1.75h4.213zm9.999 0c-.083.774-.307 1.392-.697 1.94-.523.731-1.4 1.414-2.85 2.14a.75.75 0 10.67 1.34c1.55-.774 2.673-1.591 3.4-2.61.741-1.036 1.015-2.203 1.015-3.56V7.5A1.75 1.75 0 0019 5.75h-4a1.75 1.75 0 00-1.75 1.75V11c0 .966.784 1.75 1.75 1.75h4.212z" fill="currentColor"/></svg>