<svg fill="none" xmlns="http://www.w3.org/2000/svg" viewBox="0 0 24 24" width="20" height="20"><path fill-rule="evenodd" clip-rule="evenodd" d="M2.25 5A2.75 2.75 0 015 2.25h14A2.75 2.75 0 0121.75 5v10A2.75 2.75 0 0119 17.75H7.961c-.38 0-.739.173-.976.47l-2.33 2.913c-.798.996-2.405.433-2.405-.843V5zm7.231 5.75a4.03 4.03 0 01-.206.3c-.337.449-.796.91-1.305 1.42a.75.75 0 101.06 1.06l.022-.021c.484-.485 1.016-1.016 1.423-1.559.407-.543.775-1.205.775-1.95V8A1.75 1.75 0 009.5 6.25h-1A1.75 1.75 0 006.75 8v1c0 .966.784 1.75 1.75 1.75h.981zm5.794.3c.08-.106.148-.206.206-.3H14.5A1.75 1.75 0 0112.75 9V8c0-.966.784-1.75 1.75-1.75h1c.966 0 1.75.784 1.75 1.75v2c0 .745-.368 1.407-.775 1.95-.407.543-.939 1.074-1.423 1.559l-.022.021a.75.75 0 11-1.06-1.06c.51-.51.968-.971 1.305-1.42z" fill="currentColor"/></svg>