<svg stroke-width="1.5" fill="none" xmlns="http://www.w3.org/2000/svg" viewBox="0 0 24 24" width="20" height="20"><g clip-path="url(#clip0_4161_11246)" fill-rule="evenodd" clip-rule="evenodd" fill="currentColor"><path d="M13.722 15.303l-.004.002-.025.01-.108.038a6.133 6.133 0 01-.403.122A4.767 4.767 0 0112 15.65c-.41 0-.84-.084-1.182-.175a6.12 6.12 0 01-.51-.16l-.026-.01-.004-.002a.75.75 0 00-.909.29l-3 4.662a.75.75 0 00.255 1.055A10.704 10.704 0 0012 22.75a10.69 10.69 0 005.375-1.439.75.75 0 00.256-1.055l-3-4.661a.75.75 0 00-.91-.29zm.275-6.446l.003.002.02.017.088.074c.076.067.185.165.307.288.25.251.538.582.743.937.204.354.347.768.44 1.11a6.118 6.118 0 01.115.523l.005.027v.003a.75.75 0 00.707.643l5.537.267a.75.75 0 00.786-.748 10.704 10.704 0 00-1.442-5.375 10.704 10.704 0 00-3.934-3.936.75.75 0 00-1.041.306l-2.537 4.93a.75.75 0 00.203.932zm-5.719 2.982v-.004l.005-.027c.004-.024.01-.063.02-.112.02-.1.05-.243.096-.41.092-.343.235-.757.44-1.111.204-.355.491-.685.742-.936a6.118 6.118 0 01.394-.362l.021-.017.003-.003a.75.75 0 00.203-.932l-2.537-4.93a.75.75 0 00-1.041-.306A10.704 10.704 0 002.69 6.625 10.704 10.704 0 001.248 12a.75.75 0 00.787.748l5.537-.267a.75.75 0 00.706-.642zm6.472.16a2.75 2.75 0 10-5.5 0 2.75 2.75 0 005.5 0z"/></g><defs><clipPath id="clip0_4161_11246"><path fill="#fff" d="M0 0h24v24H0z"/></clipPath></defs></svg>