<svg fill="none" xmlns="http://www.w3.org/2000/svg" viewBox="0 0 24 24" width="20" height="20"><g clip-path="url(#clip0_4044_8414)"><path fill-rule="evenodd" clip-rule="evenodd" d="M12.955.893a1.35 1.35 0 00-1.91 0L.894 11.045a1.35 1.35 0 000 1.91l10.151 10.15a1.35 1.35 0 001.91 0l10.151-10.15a1.35 1.35 0 000-1.91L12.955.893zM16.53 11.53a.75.75 0 000-1.06l-2-2a.75.75 0 10-1.06 1.06l.72.72H10c-.744 0-1.425.364-1.905.845-.48.48-.845 1.161-.845 1.905v1a.75.75 0 001.5 0v-1c0-.256.136-.575.405-.845.27-.27.589-.405.845-.405h4.19l-.72.72a.75.75 0 101.06 1.06l2-2z" fill="currentColor"/></g><defs><clipPath id="clip0_4044_8414"><path fill="#fff" d="M0 0h24v24H0z"/></clipPath></defs></svg>