<svg stroke-width="1.5" fill="none" xmlns="http://www.w3.org/2000/svg" viewBox="0 0 24 24" width="20" height="20"><path fill-rule="evenodd" clip-rule="evenodd" d="M7 4.25A2.75 2.75 0 004.25 7v1.25H5A2.25 2.25 0 016.677 12 2.25 2.25 0 015 15.75h-.75V17A2.75 2.75 0 007 19.75h13A2.75 2.75 0 0022.75 17V7A2.75 2.75 0 0020 4.25H7zm2.416 4.126a.75.75 0 00-.832 1.248l4.5 3a.75.75 0 00.832 0l4.5-3a.75.75 0 00-.832-1.248L13.5 11.099 9.416 8.376z" fill="currentColor"/><path fill-rule="evenodd" clip-rule="evenodd" d="M5.75 13.5a.75.75 0 01-.75.75H3a.75.75 0 010-1.5h2a.75.75 0 01.75.75zm0-3a.75.75 0 01-.75.75H1a.75.75 0 010-1.5h4a.75.75 0 01.75.75z" fill="currentColor"/></svg>