<svg stroke-width="1.5" fill="none" xmlns="http://www.w3.org/2000/svg" viewBox="0 0 24 24" width="20" height="20"><path fill-rule="evenodd" clip-rule="evenodd" d="M16.97 6.97a.75.75 0 011.06 0l-.53.53.53-.53h.001l.001.002.003.002.007.007.02.02.062.069c.05.057.12.138.201.241A6.867 6.867 0 0119.75 11.5a6.866 6.866 0 01-1.425 4.189 4.88 4.88 0 01-.264.31l-.02.02-.006.007-.003.002v.001h-.001l-.51-.508.51.51a.75.75 0 11-1.061-1.061l.53.53-.53-.53h-.001v.001l-.002.001.005-.005.033-.036c.031-.035.08-.09.139-.167a5.368 5.368 0 00.448-5.843 5.028 5.028 0 00-.448-.685 3.359 3.359 0 00-.172-.203l-.005-.005a.75.75 0 01.003-1.058z" fill="currentColor"/><path fill-rule="evenodd" clip-rule="evenodd" d="M19.97 3.97a.75.75 0 011.06 0l-.53.53.53-.53h.001l.002.002.003.003.009.01a2.25 2.25 0 01.124.134c.079.089.188.218.316.385.257.333.594.823.929 1.46.67 1.274 1.336 3.143 1.336 5.536s-.666 4.262-1.336 5.537a10.18 10.18 0 01-.929 1.46 7.239 7.239 0 01-.44.518l-.01.01-.002.003-.002.001-.531-.529.53.53a.75.75 0 01-1.061-1.06v.001h-.001l.001-.001.014-.014.063-.07c.058-.065.144-.167.25-.304.212-.276.5-.693.79-1.244.58-1.1 1.164-2.731 1.164-4.838s-.584-3.738-1.164-4.838a8.69 8.69 0 00-.79-1.244 5.732 5.732 0 00-.313-.374l-.014-.014-.001-.002v.002h.001a.75.75 0 010-1.06zm-.002 1.058zm-7.931-1.632c1.163-.767 2.713.068 2.713 1.461v14.286c0 1.394-1.55 2.228-2.713 1.461l-6-3.955a.25.25 0 00-.137-.042H3a2.75 2.75 0 01-2.75-2.75v-3.714A2.75 2.75 0 013 7.393h2.9a.25.25 0 00.138-.041l5.999-3.956z" fill="currentColor"/></svg>