<svg stroke-width="1.5" fill="none" xmlns="http://www.w3.org/2000/svg" viewBox="0 0 24 24" width="20" height="20"><path fill-rule="evenodd" clip-rule="evenodd" d="M18.97 6.97a.75.75 0 011.06 0l-.53.53.53-.53h.001l.001.002.003.002.007.007.02.02.062.069c.05.057.12.138.201.241A6.867 6.867 0 0121.75 11.5a6.866 6.866 0 01-1.425 4.189 4.88 4.88 0 01-.264.31l-.02.02-.006.007-.003.002v.001h-.001l-.51-.508.51.51a.75.75 0 11-1.061-1.061l.53.53-.53-.53h-.001v.001l-.002.001.005-.005.033-.036c.031-.035.08-.09.139-.167a5.368 5.368 0 00.448-5.843 5.028 5.028 0 00-.448-.685 3.359 3.359 0 00-.172-.203l-.005-.005a.75.75 0 01.003-1.058zm-5.933-3.574c1.163-.767 2.713.068 2.713 1.461v14.286c0 1.394-1.55 2.228-2.713 1.461l-6-3.955a.25.25 0 00-.137-.042H4a2.75 2.75 0 01-2.75-2.75v-3.714A2.75 2.75 0 014 7.393h2.9a.25.25 0 00.138-.041l5.999-3.956z" fill="currentColor"/></svg>