<svg stroke-width="1.5" fill="none" xmlns="http://www.w3.org/2000/svg" viewBox="0 0 24 24" width="20" height="20"><g clip-path="url(#clip0_4223_8258)" fill-rule="evenodd" clip-rule="evenodd" fill="currentColor"><path d="M17.47 9.47a.75.75 0 011.06 0L20 10.94l1.47-1.47a.75.75 0 011.06 1.06L21.061 12l1.47 1.47a.75.75 0 01-1.061 1.06L20 13.06l-1.47 1.47a.75.75 0 01-1.06-1.06L18.94 12l-1.47-1.47a.75.75 0 010-1.06zm-4.433-6.074c1.163-.767 2.713.068 2.713 1.461v14.286c0 1.394-1.55 2.228-2.713 1.461l-6-3.955a.25.25 0 00-.137-.042H4a2.75 2.75 0 01-2.75-2.75v-3.714A2.75 2.75 0 014 7.393h2.9a.25.25 0 00.138-.041l5.999-3.956z"/></g><defs><clipPath id="clip0_4223_8258"><path fill="#fff" d="M0 0h24v24H0z"/></clipPath></defs></svg>