<svg stroke-width="1.5" fill="none" xmlns="http://www.w3.org/2000/svg" viewBox="0 0 24 24" width="20" height="20"><path fill-rule="evenodd" clip-rule="evenodd" d="M2.25 5A3.75 3.75 0 016 1.25h12A3.75 3.75 0 0121.75 5v2A3.75 3.75 0 0118 10.75H6A3.75 3.75 0 012.25 7V5zM3 15.25a.75.75 0 01.75.75v2A3.25 3.25 0 007 21.25h10A3.25 3.25 0 0020.25 18v-2a.75.75 0 011.5 0v2A4.75 4.75 0 0117 22.75H7A4.75 4.75 0 012.25 18v-2a.75.75 0 01.75-.75z" fill="currentColor"/><path fill-rule="evenodd" clip-rule="evenodd" d="M12 9.25a.75.75 0 01.75.75v6.19l1.72-1.72a.75.75 0 111.06 1.06l-3 3a.75.75 0 01-1.06 0l-3-3a.75.75 0 111.06-1.06l1.72 1.72V10a.75.75 0 01.75-.75z" fill="currentColor"/></svg>