<svg stroke-width="1.5" fill="none" xmlns="http://www.w3.org/2000/svg" viewBox="0 0 24 24" width="20" height="20"><path fill-rule="evenodd" clip-rule="evenodd" d="M13.25 6A3.75 3.75 0 0117 2.25h2A3.75 3.75 0 0122.75 6v12A3.75 3.75 0 0119 21.75h-2A3.75 3.75 0 0113.25 18V6zm-12 1A4.75 4.75 0 016 2.25h2a.75.75 0 010 1.5H6A3.25 3.25 0 002.75 7v10A3.25 3.25 0 006 20.25h2a.75.75 0 010 1.5H6A4.75 4.75 0 011.25 17V7z" fill="currentColor"/><path fill-rule="evenodd" clip-rule="evenodd" d="M9.53 8.47a.75.75 0 010 1.06l-1.72 1.72H14a.75.75 0 010 1.5H7.81l1.72 1.72a.75.75 0 11-1.06 1.06l-3-3a.75.75 0 010-1.06l3-3a.75.75 0 011.06 0z" fill="currentColor"/></svg>