<svg stroke-width="1.5" fill="none" xmlns="http://www.w3.org/2000/svg" viewBox="0 0 24 24" width="20" height="20"><path fill-rule="evenodd" clip-rule="evenodd" d="M2.25 17A3.75 3.75 0 016 13.25h12A3.75 3.75 0 0121.75 17v2A3.75 3.75 0 0118 22.75H6A3.75 3.75 0 012.25 19v-2zM7 2.75A3.25 3.25 0 003.75 6v2a.75.75 0 01-1.5 0V6A4.75 4.75 0 017 1.25h10A4.75 4.75 0 0121.75 6v2a.75.75 0 01-1.5 0V6A3.25 3.25 0 0017 2.75H7z" fill="currentColor"/><path fill-rule="evenodd" clip-rule="evenodd" d="M11.47 5.47a.75.75 0 011.06 0l3 3a.75.75 0 01-1.06 1.06l-1.72-1.72V14a.75.75 0 01-1.5 0V7.81L9.53 9.53a.75.75 0 01-1.06-1.06l3-3z" fill="currentColor"/></svg>