<svg stroke-width="1.5" fill="none" xmlns="http://www.w3.org/2000/svg" viewBox="0 0 24 24" width="20" height="20"><path fill-rule="evenodd" clip-rule="evenodd" d="M1.25 6A3.75 3.75 0 015 2.25h2A3.75 3.75 0 0110.75 6v12A3.75 3.75 0 017 21.75H5A3.75 3.75 0 011.25 18V6zm14-3a.75.75 0 01.75-.75h2A4.75 4.75 0 0122.75 7v10A4.75 4.75 0 0118 21.75h-2a.75.75 0 010-1.5h2A3.25 3.25 0 0021.25 17V7A3.25 3.25 0 0018 3.75h-2a.75.75 0 01-.75-.75z" fill="currentColor"/><path fill-rule="evenodd" clip-rule="evenodd" d="M14.47 8.47a.75.75 0 011.06 0l3 3a.75.75 0 010 1.06l-3 3a.75.75 0 11-1.06-1.06l1.72-1.72H10a.75.75 0 010-1.5h6.19l-1.72-1.72a.75.75 0 010-1.06z" fill="currentColor"/></svg>