<svg stroke-width="1.5" fill="none" xmlns="http://www.w3.org/2000/svg" viewBox="0 0 24 24" width="20" height="20"><path fill-rule="evenodd" clip-rule="evenodd" d="M1.25 6.286c0-1.657 1.31-3.036 2.972-3.036h15.556c1.661 0 2.972 1.38 2.972 3.036v11.428c0 1.657-1.31 3.036-2.972 3.036H4.222c-1.661 0-2.972-1.38-2.972-3.036V6.286zm3 .714A.75.75 0 015 6.25h1a.75.75 0 010 1.5H5A.75.75 0 014.25 7zm6.28 2.47a.75.75 0 10-1.06 1.06L10.94 12l-1.47 1.47a.75.75 0 101.06 1.06L12 13.06l1.47 1.47a.75.75 0 101.06-1.06L13.06 12l1.47-1.47a.75.75 0 10-1.06-1.06L12 10.94l-1.47-1.47z" fill="currentColor"/></svg>