<svg stroke-width="1.5" fill="none" xmlns="http://www.w3.org/2000/svg" viewBox="0 0 24 24" width="20" height="20"><path fill-rule="evenodd" clip-rule="evenodd" d="M19.946 1.599a.75.75 0 00-.966-.271c-.634.313-1.674 1.052-2.505 1.667-.427.316-.817.614-1.101.833l-.06.046c-.186-.1-.421-.22-.692-.338-.675-.297-1.629-.62-2.622-.62-.993 0-1.947.323-2.622.62a9.06 9.06 0 00-.691.338L8.63 3.83a99.99 99.99 0 00-1.084-.831c-.815-.616-1.812-1.346-2.365-1.654a.75.75 0 00-.991.241C2.613 3.97 2.55 5.874 3 7.236a4.626 4.626 0 00.9 1.581c-.782 1.607-1.65 3.961-1.65 6.516 0 .415.336.75.75.75a6.2 6.2 0 013.734 1.25l.097.077v.003c.041.148.102.358.187.608.168.498.431 1.169.813 1.847.74 1.315 2.06 2.882 4.169 2.882 2.11 0 3.43-1.567 4.17-2.882a10.988 10.988 0 00.999-2.455v-.003c.029-.023.06-.049.097-.077A6.2 6.2 0 0121 16.083a.75.75 0 00.75-.75c0-2.554-.868-4.908-1.65-6.515a4.737 4.737 0 00.911-1.573c.469-1.354.447-3.257-1.065-5.646zM11 17.25a.75.75 0 000 1.5h.25V19a.75.75 0 001.5 0v-.25H13a.75.75 0 000-1.5h-2zm-3.03-5.28a.75.75 0 011.06 0l1.5 1.5a.75.75 0 11-1.06 1.06l-1.5-1.5a.75.75 0 010-1.06zm8.06 1.06a.75.75 0 10-1.06-1.06l-1.5 1.5a.75.75 0 101.06 1.06l1.5-1.5z" fill="currentColor"/></svg>