<svg stroke-width="1.5" fill="none" xmlns="http://www.w3.org/2000/svg" viewBox="0 0 24 24" width="20" height="20"><path fill-rule="evenodd" clip-rule="evenodd" d="M3.6 2.25A1.35 1.35 0 002.25 3.6v16.8c0 .746.604 1.35 1.35 1.35h16.8a1.35 1.35 0 001.35-1.35V3.6a1.35 1.35 0 00-1.35-1.35H3.6zm4.4 10a.75.75 0 000 1.5h3.25v.5H8a.75.75 0 000 1.5h3.25V18a.75.75 0 001.5 0v-2.25H16a.75.75 0 000-1.5h-3.25v-.5H16a.75.75 0 000-1.5h-2.89l3.497-4.809a.75.75 0 00-1.214-.882L12 11.225 8.607 6.559a.75.75 0 10-1.214.882l3.498 4.809H8z" fill="currentColor"/></svg>