<svg xmlns="http://www.w3.org/2000/svg" viewBox="0 0 24 24" width="20" height="20"><path d="M19.375 8.5a3.25 3.25 0 11-3.163 4h-3a3.252 3.252 0 01-4.443 2.509L7.214 17.76a3.25 3.25 0 11-1.342-.674l1.672-2.957A3.238 3.238 0 016.75 12c0-.907.371-1.727.97-2.316L6.117 6.846A3.253 3.253 0 011.875 3.75a3.25 3.25 0 115.526 2.32l1.603 2.836A3.25 3.25 0 0113.093 11h3.119a3.252 3.252 0 013.163-2.5zM10 10.25a1.75 1.75 0 10-.001 3.499A1.75 1.75 0 0010 10.25zM5.125 2a1.75 1.75 0 100 3.5 1.75 1.75 0 000-3.5zm12.5 9.75a1.75 1.75 0 103.5 0 1.75 1.75 0 00-3.5 0zm-14.25 8.5a1.75 1.75 0 103.501-.001 1.75 1.75 0 00-3.501.001z"/></svg>