<svg xmlns="http://www.w3.org/2000/svg" viewBox="0 0 24 24" width="20" height="20"><path d="M5.5 2.75A2.75 2.75 0 002.75 5.5v3a2.75 2.75 0 002.75 2.75h3a2.75 2.75 0 002.75-2.75v-3A2.75 2.75 0 008.5 2.75h-3zM4.25 5.5c0-.69.56-1.25 1.25-1.25h3c.69 0 1.25.56 1.25 1.25v3c0 .69-.56 1.25-1.25 1.25h-3c-.69 0-1.25-.56-1.25-1.25v-3zm1.25 7.25a2.75 2.75 0 00-2.75 2.75v3a2.75 2.75 0 002.75 2.75h3a2.75 2.75 0 002.75-2.75v-3a2.75 2.75 0 00-2.75-2.75h-3zM4.25 15.5c0-.69.56-1.25 1.25-1.25h3c.69 0 1.25.56 1.25 1.25v3c0 .69-.56 1.25-1.25 1.25h-3c-.69 0-1.25-.56-1.25-1.25v-3zm8.5-10a2.75 2.75 0 012.75-2.75h3a2.75 2.75 0 012.75 2.75v3a2.75 2.75 0 01-2.75 2.75h-3a2.75 2.75 0 01-2.75-2.75v-3zm2.75-1.25c-.69 0-1.25.56-1.25 1.25v3c0 .69.56 1.25 1.25 1.25h3c.69 0 1.25-.56 1.25-1.25v-3c0-.69-.56-1.25-1.25-1.25h-3zm0 8.5a2.75 2.75 0 00-2.75 2.75v3a2.75 2.75 0 002.75 2.75h3a2.75 2.75 0 002.75-2.75v-3a2.75 2.75 0 00-2.75-2.75h-3zm-1.25 2.75c0-.69.56-1.25 1.25-1.25h3c.69 0 1.25.56 1.25 1.25v3c0 .69-.56 1.25-1.25 1.25h-3c-.69 0-1.25-.56-1.25-1.25v-3z"/></svg>