<svg xmlns="http://www.w3.org/2000/svg" viewBox="0 0 24 24" width="20" height="20"><path d="M0 2.75C0 1.783.784 1 1.75 1h12.5c.967 0 1.75.783 1.75 1.75v9.5A1.75 1.75 0 0114.25 14H8.061l-2.574 2.573A1.457 1.457 0 013 15.543V14H1.75A1.75 1.75 0 010 12.25zm1.75-.25a.25.25 0 00-.25.25v9.5c0 .138.112.25.25.25h2a.75.75 0 01.75.75v2.189l2.72-2.719a.747.747 0 01.53-.22h6.5a.25.25 0 00.25-.25v-9.5a.25.25 0 00-.25-.25zm20.5 6h-3.5a.75.75 0 010-1.5h3.5c.966 0 1.75.784 1.75 1.75v9.5A1.75 1.75 0 0122.25 20H21v1.543a1.457 1.457 0 01-2.487 1.03L15.939 20H10.75A1.75 1.75 0 019 18.25v-1.465a.75.75 0 011.5 0v1.465c0 .138.112.25.25.25h5.5c.199 0 .39.079.53.22l2.72 2.719V19.25a.75.75 0 01.75-.75h2a.25.25 0 00.25-.25v-9.5a.25.25 0 00-.25-.25zm-9.72-3.22l-5 5a.747.747 0 01-1.06 0l-2.5-2.5a.749.749 0 111.06-1.06L7 8.689l4.47-4.469a.749.749 0 111.06 1.06z"/></svg>