<svg xmlns="http://www.w3.org/2000/svg" viewBox="0 0 24 24" width="20" height="20"><path d="M2 3.75C2 2.784 2.784 2 3.75 2h16.5c.966 0 1.75.784 1.75 1.75v14.5A1.75 1.75 0 0120.25 20H19v.25a1 1 0 11-2 0V20H6.997v.25a1 1 0 11-2 0V20H3.75A1.75 1.75 0 012 18.25V3.75zm1.75-.25a.25.25 0 00-.25.25v14.5c0 .138.112.25.25.25h16.5a.25.25 0 00.25-.25V3.75a.25.25 0 00-.25-.25H3.75zM14.318 12a1 1 0 100-2 1 1 0 000 2zM6 8.5A.75.75 0 106 10h1.5v2H6a.75.75 0 000 1.5h1.5V15A1.5 1.5 0 009 16.5h8a1.5 1.5 0 001.5-1.5V7A1.5 1.5 0 0017 5.5H9A1.5 1.5 0 007.5 7v1.5H6zM9 10a.75.75 0 000-1.5V7h8v8H9v-1.5A.75.75 0 009 12v-2z"/></svg>