<svg xmlns="http://www.w3.org/2000/svg" viewBox="0 0 24 24" width="20" height="20"><path d="M12.75 8a.75.75 0 00-1.5 0v2.701l-2.34-1.35a.75.75 0 00-.75 1.298L10.5 12l-2.34 1.35a.75.75 0 10.75 1.3l2.34-1.35V16a.75.75 0 001.5 0v-2.701l2.34 1.35a.75.75 0 00.75-1.298L13.5 12l2.34-1.35a.75.75 0 00-.75-1.3l-2.34 1.351V8z"/><path d="M2 3.75C2 2.784 2.784 2 3.75 2h16.5c.966 0 1.75.784 1.75 1.75v16.5A1.75 1.75 0 0120.25 22H3.75A1.75 1.75 0 012 20.25V3.75zm1.75-.25a.25.25 0 00-.25.25v16.5c0 .138.112.25.25.25h16.5a.25.25 0 00.25-.25V3.75a.25.25 0 00-.25-.25H3.75z"/></svg>