<svg xmlns="http://www.w3.org/2000/svg" viewBox="0 0 24 24" width="20" height="20"><path d="M9.496 2a5.25 5.25 0 00-2.519 9.857A9.006 9.006 0 00.5 20.228a.751.751 0 00.728.772h5.257c3.338.001 6.677.002 10.015 0a.5.5 0 00.5-.5v-4.669a.95.95 0 00-.171-.551 9.02 9.02 0 00-4.814-3.423A5.25 5.25 0 009.496 2z"/><path d="M23.625 10.313c0 1.31-.672 2.464-1.691 3.134a.398.398 0 00-.184.33v.886a.372.372 0 01-.11.265l-.534.534a.188.188 0 000 .265l.534.534c.071.07.11.166.11.265v.347a.374.374 0 01-.11.265l-.534.534a.188.188 0 000 .265l.534.534a.37.37 0 01.11.265v.431a.379.379 0 01-.097.253l-1.2 1.319a.781.781 0 01-1.156 0l-1.2-1.319a.379.379 0 01-.097-.253v-5.39a.398.398 0 00-.184-.33 3.75 3.75 0 115.809-3.134zM21 9.75a1.125 1.125 0 10-2.25 0 1.125 1.125 0 002.25 0z"/></svg>