<svg xmlns="http://www.w3.org/2000/svg" viewBox="0 0 24 24" width="20" height="20"><path d="M2.345 20.595L8.47 14.47q.219-.22.53-.22.311 0 .53.22.22.219.22.53 0 .311-.22.53l-6.125 6.125q-.219.22-.53.22-.311 0-.53-.22-.22-.219-.22-.53 0-.311.22-.53z"/><path d="M16.72 11.97l.358-.358a6.738 6.738 0 012.326-1.518l1.896-.738a.25.25 0 00.086-.409l-6.333-6.333a.25.25 0 00-.409.086l-.521 1.34a8.663 8.663 0 01-2.243 3.265.75.75 0 01-1.01-1.11 7.132 7.132 0 001.854-2.699l.521-1.34a1.75 1.75 0 012.869-.603l6.333 6.333a1.75 1.75 0 01-.603 2.869l-1.896.737a5.26 5.26 0 00-1.81 1.18l-.358.358a.749.749 0 11-1.06-1.06zm-12.549-.738a1.75 1.75 0 01.757-2.92l3.366-.962.412 1.443-3.366.961a.25.25 0 00-.108.417l8.597 8.597a.25.25 0 00.417-.108l.961-3.366 1.443.412-.962 3.366a1.75 1.75 0 01-2.92.757z"/><path d="M3.405 2.095l18.75 18.75q.22.219.22.53 0 .311-.22.53-.219.22-.53.22-.311 0-.53-.22L2.345 3.155q-.22-.219-.22-.53 0-.311.22-.53.219-.22.53-.22.311 0 .53.22z"/></svg>