<svg xmlns="http://www.w3.org/2000/svg" viewBox="0 0 24 24" width="20" height="20"><path d="M16.114 1.553l6.333 6.333a1.75 1.75 0 01-.603 2.869l-1.63.633a5.67 5.67 0 00-3.395 3.725l-1.131 3.959a1.75 1.75 0 01-2.92.757L9 16.061l-5.595 5.594a.749.749 0 11-1.06-1.06L7.939 15l-3.768-3.768a1.75 1.75 0 01.757-2.92l3.959-1.131a5.666 5.666 0 003.725-3.395l.633-1.63a1.75 1.75 0 012.869-.603zM5.232 10.171l8.597 8.597a.25.25 0 00.417-.108l1.131-3.959A7.17 7.17 0 0119.67 9.99l1.63-.634a.25.25 0 00.086-.409l-6.333-6.333a.25.25 0 00-.409.086l-.634 1.63a7.17 7.17 0 01-4.711 4.293L5.34 9.754a.25.25 0 00-.108.417z"/></svg>