<svg xmlns="http://www.w3.org/2000/svg" viewBox="0 0 24 24" width="20" height="20"><path d="M11 18.25a.75.75 0 01.75-.75h8.5a.75.75 0 010 1.5h-8.5a.75.75 0 01-.75-.75zm-8-12a.75.75 0 01.75-.75h7.5a.75.75 0 010 1.5h-7.5A.75.75 0 013 6.25zm13 6a.75.75 0 01.75-.75h3.5a.75.75 0 010 1.5h-3.5a.75.75 0 01-.75-.75zM8.75 16a.75.75 0 01.75.75v3a.75.75 0 01-1.5 0v-3a.75.75 0 01.75-.75z"/><path d="M3 18.25a.75.75 0 01.75-.75h4.5a.75.75 0 010 1.5h-4.5a.75.75 0 01-.75-.75zm0-6a.75.75 0 01.75-.75h8.5a.75.75 0 010 1.5h-8.5a.75.75 0 01-.75-.75zM16.75 10a.75.75 0 01.75.75v3a.75.75 0 01-1.5 0v-3a.75.75 0 01.75-.75zM14 6.25a.75.75 0 01.75-.75h5.5a.75.75 0 010 1.5h-5.5a.75.75 0 01-.75-.75zM11.25 4a.75.75 0 01.75.75v3a.75.75 0 01-1.5 0v-3a.75.75 0 01.75-.75z"/></svg>