<svg xmlns="http://www.w3.org/2000/svg" viewBox="0 0 24 24" width="20" height="20"><path d="M21.72 11.01l-4.01-7A1.968 1.968 0 0015.98 3H8a1.968 1.968 0 00-1.73 1.01L4.74 6.68l-.8 1.39-1.68 2.94A2.033 2.033 0 002 12a2.004 2.004 0 00.26.99l1.68 2.94.8 1.39 1.53 2.67A1.968 1.968 0 008 21h7.98a1.968 1.968 0 001.73-1.01l4.01-7a2.004 2.004 0 00.26-.99 1.956 1.956 0 00-.26-.99zm-4.384 5.974l.006-.004-.004.007zM20.28 12l-2.935 4.974c-.118.01-.234.026-.355.026A4.994 4.994 0 0112 12.098v-.118A5.004 5.004 0 007 7a2.96 2.96 0 00-.31.03L7.89 5h8.26l4.14 7z"/></svg>