<svg xmlns="http://www.w3.org/2000/svg" viewBox="0 0 24 24" width="20" height="20"><path d="M11 4h2v1h-2z"/><circle cx="9" cy="4" r="1"/><circle cx="15" cy="4" r="1"/><path d="M18 10h-5V8l3-.01A3 3 0 0019 5V3a3.009 3.009 0 00-3-3H8a3.009 3.009 0 00-3 3v2a3.009 3.009 0 003 3h3v2H6a3.009 3.009 0 00-3 3v8a3.009 3.009 0 003 3h12a3.009 3.009 0 003-3v-8a3.009 3.009 0 00-3-3zM8 6a1.003 1.003 0 01-1-1V3a1.003 1.003 0 011-1h7.99A1.012 1.012 0 0117 3v2a1.012 1.012 0 01-1.01 1zm4.435 14.072L12 20.5l-.435-.432C10.02 18.541 9 17.534 9 16.298a1.712 1.712 0 011.65-1.798 1.74 1.74 0 011.35.683 1.74 1.74 0 011.35-.683A1.712 1.712 0 0115 16.298c0 1.236-1.02 2.243-2.565 3.774z"/></svg>