<svg xmlns="http://www.w3.org/2000/svg" viewBox="0 0 24 24" width="20" height="20"><path d="M8.356 5H7.01L5 13h1.028l.464-1.875h2.316L9.26 13h1.062zm-1.729 5.322L7.644 5.95h.045l.984 4.373zM11.238 13V5h1v8zm.187 1H4V4h10v4.78a5.504 5.504 0 014-.786V6h-2V4a2.006 2.006 0 00-2-2h-2V0h-2v2H8V0H6v2H4a2.006 2.006 0 00-2 2v2H0v2h2v2H0v2h2v2a2.006 2.006 0 002 2h2v2h2v-2h2v2h2v-1.992A5.547 5.547 0 0111.425 14zm2.075-.5A3.5 3.5 0 1117 17a3.499 3.499 0 01-3.5-3.5zM17 19c-2.336 0-7 1.173-7 3.5V24h14v-1.5c0-2.328-4.664-3.5-7-3.5z"/></svg>