<svg xmlns="http://www.w3.org/2000/svg" viewBox="0 0 24 24" width="20" height="20"><path d="M1 1v10h22V1zm12 6H4V5h9zm3 0a1 1 0 111-1 1 1 0 01-1 1zm3 0a1 1 0 111-1 1 1 0 01-1 1zm3.69 11.37l1.14-1-1-1.73-1.45.49a3.647 3.647 0 00-1.08-.63L20 14h-2l-.3 1.49a3.646 3.646 0 00-1.08.63l-1.45-.49-1 1.73 1.14 1a3.337 3.337 0 000 1.26l-1.14 1 1 1.73 1.45-.49a3.645 3.645 0 001.08.63L18 24h2l.3-1.49a3.646 3.646 0 001.08-.63l1.45.49 1-1.73-1.14-1a3.39 3.39 0 000-1.27zM19 21a2 2 0 112-2 2.006 2.006 0 01-2 2z"/><path d="M12 19H4v-2h8.294a7.008 7.008 0 013.114-4H1v10h12.26A6.962 6.962 0 0112 19z"/></svg>