<svg xmlns="http://www.w3.org/2000/svg" viewBox="0 0 24 24" width="20" height="20"><path d="M5 10h5v2H5zm3.54 12H4a2.006 2.006 0 01-2-2V6a2.006 2.006 0 012-2h4.18a2.988 2.988 0 015.64 0H18a2.006 2.006 0 012 2v6.09a5.989 5.989 0 00-1-.09h-1V9H4v4h5.69a6.04 6.04 0 00-1.878 2H4v4h3.09a5.973 5.973 0 001.45 3zM10 5a1 1 0 101-1 1.003 1.003 0 00-1 1zm7 6a1 1 0 10-1 1 1 1 0 001-1zM5 18h2a5.96 5.96 0 01.35-2H5zm9-7a1 1 0 10-1 1 1 1 0 001-1zm1 9h-2a2 2 0 010-4h2v-2h-2a4 4 0 000 8h2zm8-2a4 4 0 01-4 4h-2v-2h2a2 2 0 000-4h-2v-2h2a4 4 0 014 4zm-5 1h-4v-2h4z"/></svg>