<svg xmlns="http://www.w3.org/2000/svg" viewBox="0 0 24 24" width="20" height="20"><path d="M10.822 13.34l-1.07-.83a3.882 3.882 0 00.04-.49 2.626 2.626 0 00-.04-.49l1.06-.83a.26.26 0 00.06-.32l-1-1.73a.254.254 0 00-.31-.11l-1.24.5a3.42 3.42 0 00-.85-.49l-.19-1.32a.239.239 0 00-.24-.21h-2a.257.257 0 00-.25.21l-.19 1.32a3.995 3.995 0 00-.85.49l-1.24-.5a.262.262 0 00-.31.11l-1 1.73a.248.248 0 00.06.32l1.06.83a4.013 4.013 0 000 .98l-1.06.83a.26.26 0 00-.06.32l1 1.73a.254.254 0 00.31.11l1.24-.5a3.42 3.42 0 00.85.49l.19 1.32a.249.249 0 00.25.21h2a.257.257 0 00.25-.21l.19-1.32a3.695 3.695 0 00.84-.49l1.25.5a.262.262 0 00.31-.11l1-1.73a.26.26 0 00-.06-.32zm-4.78.18a1.5 1.5 0 111.5-1.5 1.498 1.498 0 01-1.5 1.5zM19.997.015h-4a.999.999 0 00-.995 1L15 3H4.997v3.01l2.012.012v-1.01L14.999 5l-.002 4.015a.999.999 0 00.995 1h6.005a1.003 1.003 0 001-1v-6zm-.5 3.5V.765l2.75 2.75zm.501 10.494h-4a.999.999 0 00-.995 1l-.002 4.01-7.99.004v-1.01H5v3.01l10-.004-.002 1.99a.999.999 0 00.995 1h6.005a1.003 1.003 0 001-1v-6zm-.5 3.5v-2.75l2.75 2.75z"/></svg>