<svg xmlns="http://www.w3.org/2000/svg" viewBox="0 0 24 24" width="20" height="20"><path d="M10 5a1.958 1.958 0 00.796 1.56L5.5 9.986H3.997A1.997 1.997 0 002 11.983v8.023a1.997 1.997 0 001.997 1.997h16A2.004 2.004 0 0022 19.999v-8.016a1.997 1.997 0 00-1.997-1.997h-1.491L13.21 6.555A1.957 1.957 0 0014 5a2.03 2.03 0 00-1-1.721V2h-1v2a1 1 0 11-1 1m.995 1.974l.005.001.017-.002 4.655 3.013h-9.33zM7 18a1 1 0 01-2 0v-4a1 1 0 012 0zm4 0a1 1 0 01-2 0v-4a1 1 0 012 0zm4 0a1 1 0 01-2 0v-4a1 1 0 012 0zm4 0a1 1 0 01-2 0v-4a1 1 0 012 0z"/></svg>