<svg xmlns="http://www.w3.org/2000/svg" viewBox="0 0 24 24" width="20" height="20"><path d="M20.231 9.366q.129-.206.24-.426a4.857 4.857 0 00.2-.455 5.053 5.053 0 00-.104-3.84 4.942 4.942 0 00-2.772-2.637l-.016-.004L17.764 2a5.033 5.033 0 01.446 4.476l-.002.003-.001.004A9.041 9.041 0 0015.4 4.655a8.975 8.975 0 00-6.804 0A9.041 9.041 0 005.79 6.483l-.002-.004-.001-.003a4.872 4.872 0 01-.276-2.331A5.21 5.21 0 016.282 2l-.015.004-.015.004a5.044 5.044 0 00-2.926 6.477 4.854 4.854 0 00.2.455q.11.22.24.426a9 9 0 1016.465 0zm-4.734-.378a1.498 1.498 0 11-1.061.439 1.494 1.494 0 011.06-.44zm-6.997 0a1.498 1.498 0 11-1.06.439 1.494 1.494 0 011.06-.44zm3.498 9.532a5.431 5.431 0 01-3.127-.986 5.548 5.548 0 01-1.98-2.516h10.215a5.548 5.548 0 01-1.98 2.516 5.431 5.431 0 01-3.128.986z"/></svg>