<svg xmlns="http://www.w3.org/2000/svg" viewBox="0 0 24 24" width="20" height="20"><path d="M21 5.662v.676c0 1.734 1.365 1.661 1.5 1.661.146 0 1.5.083 1.5-1.661v-.676c0-1.734-1.365-1.661-1.5-1.661-.146 0-1.5-.083-1.5 1.661zm2.125-.11v.886c0 .703-.219.94-.615.94s-.625-.237-.625-.94v-.885c0-.685.23-.922.615-.922.396-.01.625.237.625.922zM21 12.662v.676c0 1.734 1.365 1.661 1.5 1.661.146 0 1.5.083 1.5-1.661v-.676c0-1.734-1.365-1.661-1.5-1.661-.146 0-1.5-.083-1.5 1.661zm2.125-.11v.886c0 .703-.219.94-.615.94s-.625-.237-.625-.94v-.885c0-.685.23-.922.615-.922.396-.01.625.237.625.922zM21 19.662v.676c0 1.734 1.365 1.661 1.5 1.661.146 0 1.5.083 1.5-1.661v-.676c0-1.734-1.365-1.661-1.5-1.661-.146 0-1.5-.083-1.5 1.661zm2.125-.11v.886c0 .703-.219.94-.615.94s-.625-.237-.625-.94v-.885c0-.685.23-.922.615-.922.396-.01.625.237.625.922zM17 9.662v.676c0 1.734 1.365 1.661 1.5 1.661.146 0 1.5.083 1.5-1.661v-.676c0-1.734-1.365-1.661-1.5-1.661-.146 0-1.5-.083-1.5 1.661zm2.125-.11v.886c0 .703-.219.94-.615.94s-.625-.237-.625-.94v-.885c0-.685.23-.922.615-.922.396-.01.625.237.625.922zM17 1.59v.647l1-.238V5h1V1m-2 14.59v.647l1-.238V19h1.001v-4M16 21v3H0v-3c0-2.66 5.33-4 8-4s8 1.34 8 4z"/><circle cx="8" cy="12" r="4"/><path d="M17.885 23.553c0-.685.23-.922.615-.922.396-.01.625.237.625.922V24H20v-.338c0-1.734-1.365-1.661-1.5-1.661-.146 0-1.5-.083-1.5 1.661V24h.885z"/></svg>