<svg xmlns="http://www.w3.org/2000/svg" viewBox="0 0 24 24" width="20" height="20"><path d="M24.01 20.027v2h-24v-2h4v-1a2.006 2.006 0 01-2-2v-10a2.006 2.006 0 012-2h1.996v2H4.01v10h16v-10h-2.004v-2h2.004a2.006 2.006 0 012 2l-.01 10a1.997 1.997 0 01-1.99 2v1zm-9-6.012l-3-3-3 3h2v2.01h2v-2.01zm.995-7.991a4 4 0 11-4-4 4.001 4.001 0 014 4zm-4.4 2.96v-.56a.802.802 0 01-.8-.8v-.4L9.06 5.479a2.958 2.958 0 002.545 3.505zm2.658-1.007a2.977 2.977 0 00-1.068-4.704.797.797 0 01-.79.75h-.8v.8a.401.401 0 01-.4.4h-.8v.8h2.4a.401.401 0 01.4.4v1.2h.4a.787.787 0 01.658.354z"/></svg>