<svg xmlns="http://www.w3.org/2000/svg" viewBox="0 0 24 24" width="20" height="20"><path d="M23.915 20.318l-1.07-.83a3.882 3.882 0 00.04-.49 2.626 2.626 0 00-.04-.49l1.06-.83a.26.26 0 00.06-.32l-1-1.729a.253.253 0 00-.31-.11l-1.24.5a3.418 3.418 0 00-.849-.49l-.19-1.32a.239.239 0 00-.24-.21h-1.998a.257.257 0 00-.25.21l-.19 1.32a3.993 3.993 0 00-.85.49l-1.24-.5a.262.262 0 00-.309.11l-1 1.73a.248.248 0 00.06.32l1.06.83a4.012 4.012 0 000 .98l-1.06.83a.26.26 0 00-.06.319l1 1.73a.253.253 0 00.31.11l1.24-.5a3.418 3.418 0 00.849.49l.19 1.32a.249.249 0 00.25.21h1.999a.257.257 0 00.25-.21l.19-1.32a3.693 3.693 0 00.839-.49l1.25.5a.262.262 0 00.31-.11l.999-1.73a.26.26 0 00-.06-.32zm-4.778.18a1.5 1.5 0 111.5-1.5 1.497 1.497 0 01-1.5 1.5z"/><path d="M10 3a1.96 1.96 0 00.796 1.561L5.5 7.987H3.997A1.997 1.997 0 002 9.983v8.02A1.997 1.997 0 003.997 20h8.083a7.014 7.014 0 01-.08-1 8.397 8.397 0 011-4v-3a1 1 0 012 0v1.252a6.838 6.838 0 012-.965v-.285A1.002 1.002 0 0118 11a.98.98 0 011 1 7.262 7.262 0 013 .685V9.983a1.997 1.997 0 00-1.997-1.996h-1.491l-5.302-3.43A1.96 1.96 0 0014 3a2.014 2.014 0 00-.986-1.719V0H12v2.006A.992.992 0 1111 3M7 16a1 1 0 01-2 0v-3.998a1 1 0 012 0zm4 0a1 1 0 01-2 0v-4a1 1 0 012 0zm1.017-11.025l4.655 3.012h-9.33l4.653-3.011" fill="#231f20"/></svg>