<svg xmlns="http://www.w3.org/2000/svg" viewBox="0 0 24 24" width="20" height="20"><path d="M5 13v9H3v-9zm18 0v2h-2v7h-2v-7h-2v-2zm-11-2a7.537 7.537 0 013.96 1.149l1.447-1.45A9.522 9.522 0 0012 9a9.363 9.363 0 00-5.333 1.68l1.449 1.453A7.36 7.36 0 0112 11z"/><path d="M12 7a11.494 11.494 0 016.834 2.27l1.427-1.43A13.48 13.48 0 0012 5a13.333 13.333 0 00-8.186 2.822l1.426 1.43A11.343 11.343 0 0112 7z"/><path d="M12 3a15.471 15.471 0 019.687 3.41l1.427-1.429A17.43 17.43 0 00.96 4.964l1.427 1.429A15.328 15.328 0 0112 3zm0 10a4.5 4.5 0 104.5 4.5A4.5 4.5 0 0012 13zm0 7a2.5 2.5 0 112.5-2.5A2.5 2.5 0 0112 20z"/></svg>