<svg xmlns="http://www.w3.org/2000/svg" viewBox="0 0 24 24" width="20" height="20"><path d="M4.26 12A8.243 8.243 0 014 10a8.243 8.243 0 01.26-2h3.38a16.513 16.513 0 00-.14 2 16.514 16.514 0 00.14 2h2.02a14.71 14.71 0 01-.16-2 14.581 14.581 0 01.16-2h4.68a14.59 14.59 0 01.16 2 14.72 14.72 0 01-.16 2h2.02a16.512 16.512 0 00.14-2 16.511 16.511 0 00-.14-2h3.38a8.24 8.24 0 01.26 2 8.24 8.24 0 01-.26 2h2.059A10 10 0 102.2 12zm14.66-6h-2.95a15.65 15.65 0 00-1.38-3.56A8.03 8.03 0 0118.92 6zM12 2.04A14.086 14.086 0 0113.91 6h-3.82A14.086 14.086 0 0112 2.04zm-2.59.4A15.648 15.648 0 008.03 6H5.08a7.987 7.987 0 014.33-3.56zm3.339 15.055h2v1h-2z"/><path d="M20.998 14H3.002A2.002 2.002 0 001 16.002v5.996A2.002 2.002 0 003.002 24h17.996A2.002 2.002 0 0023 21.998v-5.996A2.002 2.002 0 0020.998 14zM9.251 22.005h-1.5v-6h1.5zm6.998-3.51a1.473 1.473 0 01-1.5 1.5h-2v2h-1.5v-6h3.5a1.473 1.473 0 011.5 1.5z"/></svg>