<svg xmlns="http://www.w3.org/2000/svg" viewBox="0 0 24 24" width="20" height="20"><path d="M2.803 15H0l1.25-2.75L2.5 9.5l1.25-2.75L5 4h2.803l-1.25 2.75-1.25 2.75-1.25 2.75zM8 1.992a2.61 2.61 0 01.05-.51A3.101 3.101 0 018.183 1H5.998a.998.998 0 00-.92.606.984.984 0 00-.078.386V3h3V1.992zm-3 15.01H3.5L2.75 17H2v.002A1.998 1.998 0 004 19h1.555a4.286 4.286 0 01-.231-.458 4.03 4.03 0 01-.175-.488 3.848 3.848 0 01-.11-.514A3.775 3.775 0 015 17.003zm11-15.01a.986.986 0 00-.292-.702.998.998 0 00-.706-.29h-4.004a.998.998 0 00-.92.606.984.984 0 00-.078.386V3h6V1.992zM15.302 16H7v1.003A1.998 1.998 0 009 19h3.284l.754-.75.755-.75.755-.75zm.218-1H5l1.25-2.75L7.5 9.5l1.25-2.75L10 4h5.993l.726 1.593.725 1.594.725 1.593.725 1.594q-.254.1-.498.223t-.475.27a5.252 5.252 0 00-.445.319 5.052 5.052 0 00-.412.366A5.254 5.254 0 0015.52 15zm-.51-5.99a1.994 1.994 0 10-.157.778 1.994 1.994 0 00.157-.778zm0 13.846l1.142-1.136 1.142-1.136 1.143-1.135 1.143-1.136a3.198 3.198 0 001.808.15 3.247 3.247 0 00.876-.319 3.36 3.36 0 00.782-.58 3.212 3.212 0 00.603-.83 3.26 3.26 0 00.307-.942 3.334 3.334 0 00.015-.98 3.286 3.286 0 00-.272-.943l-.54.537-.54.537-.54.536-.54.537-.377-.374-.377-.375-.377-.374-.376-.375.54-.549.54-.549.54-.55.54-.548a3.077 3.077 0 00-.948-.292 3.214 3.214 0 00-.986.017 3.31 3.31 0 00-.948.317 3.377 3.377 0 00-1.419 1.384 3.202 3.202 0 00-.32.87 3.143 3.143 0 00.15 1.798L16.58 17.55l-1.143 1.136-1.143 1.136-1.142 1.136a.519.519 0 00-.113.165.469.469 0 000 .368.519.519 0 00.113.166l.288.287.29.287.288.287.289.287a.526.526 0 00.173.141.49.49 0 00.197.053.43.43 0 00.188-.032.351.351 0 00.145-.112z"/></svg>