<svg xmlns="http://www.w3.org/2000/svg" viewBox="0 0 24 24" width="20" height="20"><path d="M11 8h2v1h-2zm0-4h2v1h-2zm0 6h2v1h-2z"/><path d="M21 12V9a13.124 13.124 0 00-8.354 3h-1.292A13.124 13.124 0 003 9v3a1 1 0 00-1 1v2a1 1 0 001 1v4a13.153 13.153 0 019 3.55A13.2 13.2 0 0121 20v-4a1 1 0 001-1v-2a1 1 0 00-1-1z"/><circle cx="9" cy="4" r="1"/><circle cx="15" cy="4" r="1"/><path d="M16 8H8a3.003 3.003 0 01-3-3V3a3.003 3.003 0 013-3h8a3.003 3.003 0 013 3v2a3.003 3.003 0 01-3 3zM8 2a1.001 1.001 0 00-1 1v2a1.001 1.001 0 001 1h8a1.001 1.001 0 001-1V3a1.001 1.001 0 00-1-1z"/></svg>