<svg xmlns="http://www.w3.org/2000/svg" viewBox="0 0 24 24" width="20" height="20"><path d="M4 20h16v2H4v-2zM21 5a1 1 0 00-1 1 .899.899 0 00.064.332 1.104 1.104 0 00.167.283l-2.12 1.692L15.994 10 14.24 6.927l-1.752-3.072a1.045 1.045 0 00.369-.353A.946.946 0 0013 3a1 1 0 10-2 0 .946.946 0 00.143.502 1.046 1.046 0 00.369.353L9.757 6.927 8.002 10 5.886 8.308 3.769 6.615a1.104 1.104 0 00.167-.283A.899.899 0 004 6a1 1 0 10-1 1 .147.147 0 00.041-.007.212.212 0 01.041-.01l.459 5.509L4 18h16l.459-5.508.459-5.509a.212.212 0 01.04.01A.147.147 0 0021 7a1 1 0 100-2z"/></svg>