<svg xmlns="http://www.w3.org/2000/svg" viewBox="0 0 24 24" width="20" height="20"><path d="M23 11v2c-.852 0-1 .35-1 1.314v4.498c0 2.514-1.46 3.156-4 3.188v-2c1.404-.032 2 .154 2-1.36v-4.297a3.088 3.088 0 01.294-1.56 1.713 1.713 0 01.997-.783 1.713 1.713 0 01-.997-.783A3.088 3.088 0 0120 9.657V5.359c0-1.513-.596-1.327-2-1.359V2c2.54.032 4 .674 4 3.188v4.498c0 .963.148 1.314 1 1.314zM1 11v2c.852 0 1 .35 1 1.314v4.498C2 21.326 3.46 21.968 6 22v-2c-1.404-.032-2 .154-2-1.36v-4.297a3.088 3.088 0 00-.294-1.56A1.713 1.713 0 002.708 12a1.713 1.713 0 00.998-.783A3.088 3.088 0 004 9.657V5.359C4 3.846 4.596 4.032 6 4V2c-2.54.032-4 .674-4 3.188v4.498C2 10.649 1.852 11 1 11zm17-2H6v6h12zM8 11h8v2H8z"/></svg>