<svg xmlns="http://www.w3.org/2000/svg" viewBox="0 0 24 24" width="20" height="20"><path d="M12 4a8 8 0 108 8 8.003 8.003 0 00-8-8zm-6 8a5.997 5.997 0 01.105-1.095L9.6 14.4v.8a1.605 1.605 0 001.6 1.6v1.14A6.004 6.004 0 016 12zm9.2 3.2h-.8v-2.4a.802.802 0 00-.8-.8H8.8v-1.6h1.6a.802.802 0 00.8-.8V8h1.6a1.6 1.6 0 001.59-1.5 5.985 5.985 0 012.137 9.426A1.57 1.57 0 0015.2 15.2zM13 1a1 1 0 11-1-1 1 1 0 011 1zm5 1a1 1 0 11-1-1 1 1 0 011 1zm4 4a1 1 0 11-1-1 1 1 0 011 1zm2 6a1 1 0 11-1-1 1 1 0 011 1zm-2 6a1 1 0 11-1-1 1 1 0 011 1zm-4 4a1 1 0 11-1-1 1 1 0 011 1zm-5 1a1 1 0 11-1-1 1 1 0 011 1zm-5-1a1 1 0 11-1-1 1 1 0 011 1zm-4-4a1 1 0 11-1-1 1 1 0 011 1zm-2-6a1 1 0 11-1-1 1 1 0 011 1zm2-6a1 1 0 11-1-1 1 1 0 011 1zm4-4a1 1 0 11-1-1 1 1 0 011 1z"/></svg>