<svg xmlns="http://www.w3.org/2000/svg" viewBox="0 0 24 24" width="20" height="20"><path d="M11 1a1 1 0 111 1 1 1 0 01-1-1zM3 7a1 1 0 10-1-1 1 1 0 001 1zm4-4a1 1 0 10-1-1 1 1 0 001 1zm10 0a1 1 0 10-1-1 1 1 0 001 1zm4 4a1 1 0 10-1-1 1 1 0 001 1zM10.69 19.883a9.57 9.57 0 01-.59-2.201 5.961 5.961 0 01-3.995-6.777L9.6 14.4v.8a1.585 1.585 0 00.4 1.045V12H8.8v-1.6h1.6a.802.802 0 00.8-.8V8h1.6a1.6 1.6 0 001.59-1.5 6.027 6.027 0 012.353 1.857L18 7.833l1.08.45a7.997 7.997 0 10-8.39 11.6zM7 21a1 1 0 101 1 1 1 0 00-1-1zm5 1a1 1 0 101 1 1 1 0 00-1-1zm-9-5a1 1 0 101 1 1 1 0 00-1-1zm-2-6a1 1 0 101 1 1 1 0 00-1-1zm23 1.5v3.863A8.169 8.169 0 0118 24a8.12 8.12 0 01-6-7.596V12.5l6-2.5z"/></svg>