<svg xmlns="http://www.w3.org/2000/svg" viewBox="0 0 24 24" width="20" height="20"><path d="M21.564 12.027a1.436 1.436 0 100-2.87c-.031 0-.06.006-.092.008l-.482-1.9a1.43 1.43 0 10-1.918-2.104l-4.89-2.273a1.415 1.415 0 00.08-.452 1.436 1.436 0 10-2.871 0 1.404 1.404 0 00.015.146l-3.114.955a1.43 1.43 0 00-2.44 1.432l-2.93 2.616a1.42 1.42 0 00-.734-.209 1.431 1.431 0 00-.43 2.798l-.194 1.866a1.432 1.432 0 101.097 2.532l.966.425-.003.03a1.434 1.434 0 002.845.25h1.104a1.43 1.43 0 002.785-.128l3.107.102a1.403 1.403 0 001.664.125 11.69 11.69 0 014.297 4.039 1.423 1.423 0 00-.107.537 1.436 1.436 0 102.292-1.145 6.723 6.723 0 01-1.038-2.422 1.422 1.422 0 00.45-2.472l.54-1.886zm.565-1.435a.564.564 0 11-.565-.565.565.565 0 01.565.565zM20.985 9.28a1.434 1.434 0 00-.844 1.19H19.02a1.427 1.427 0 00-.541-1.003l1.407-1.933a1.257 1.257 0 00.647-.04zm-2.274 5.567l-2.898-.742a1.422 1.422 0 00-.345-.878l1.17-1.575a1.376 1.376 0 001.368.307l1.252 1.934a1.428 1.428 0 00-.547.954zM8.251 5.385l4.081 2.136a1.289 1.289 0 00-.017.785l-2.62 1.347a1.427 1.427 0 00-1.077-.497c-.012 0-.023.003-.035.004L7.64 5.79a1.43 1.43 0 00.611-.405zM19.4 7.354L18.033 9.23a1.373 1.373 0 00-1.361.272l-1.591-1.2a1.102 1.102 0 00.035-.53l3.707-1.06a1.44 1.44 0 00.577.64zm-1.804 3.802a.564.564 0 11.565-.564.565.565 0 01-.565.564zm-3.899-2.65a.564.564 0 11.565-.565.565.565 0 01-.565.564zm-5.08 1.521a.564.564 0 11-.564.565.565.565 0 01.565-.565zm1.436.565a1.42 1.42 0 00-.098-.511l2.568-1.32a1.434 1.434 0 001.175.615l.024-.002-.434 3.66-3.906.494a1.418 1.418 0 00-.24-.054l-.297-1.47a1.435 1.435 0 001.208-1.412zM8.95 14.325a.564.564 0 11-.565.565.565.565 0 01.565-.565zm1.076-.375l3.053-.385a1.402 1.402 0 00-.005 1.173l-2.713-.088a1.423 1.423 0 00-.335-.7zm4.213-4.682a1.441 1.441 0 00.629-.5l1.486 1.12a1.38 1.38 0 00-.03 1.351l-1.243 1.67a1.4 1.4 0 00-1.265-.07zm5.89-3.708a.564.564 0 11-.564.564.565.565 0 01.565-.564zm-1.328.026a1.423 1.423 0 00-.107.538c0 .035.008.068.01.103l-3.732 1.066a1.433 1.433 0 00-1.274-.788c-.043 0-.085.01-.127.013l-.521-2.67a1.428 1.428 0 00.893-.52zM12.826 1.87a.564.564 0 11-.564.565.565.565 0 01.564-.565zm-1.284 1.192a1.438 1.438 0 00.996.779l.548 2.805a1.44 1.44 0 00-.526.429L8.515 4.959a1.356 1.356 0 00.023-.975zm-4.36.808a.564.564 0 11-.564.565.565.565 0 01.564-.565zm-.04 1.996l.95 3.392a1.442 1.442 0 00-.672.545l-3.799-.969.003-.023a1.421 1.421 0 00-.324-.896l2.824-2.519a1.426 1.426 0 001.017.47zm-4.806 7.587a.564.564 0 11-.564-.564.565.565 0 01.564.564zm-.27-1.405l.189-1.808a1.433 1.433 0 001.269-.914l3.698.943a1.304 1.304 0 00-.014.576l-4.343 1.69a1.431 1.431 0 00-.8-.486zm.122-3.802a.564.564 0 11-.564.565.565.565 0 01.564-.565zm.817 5.93a1.371 1.371 0 00.114-1.202l4.266-1.66a1.434 1.434 0 00.891.667l-1.865 2.583a1.429 1.429 0 00-2.683-.07zm2.054 1.415a.564.564 0 11.565-.565.565.565 0 01-.565.565zm3.407-3.306l.179 1.202a1.434 1.434 0 00-1.12 1.29h-.7zm5.916 2.435a.564.564 0 11.565-.565.565.565 0 01-.565.565zm6.373 5.795a.564.564 0 11.564-.564.565.565 0 01-.564.564zm0-2a1.43 1.43 0 00-1.023.431 12.025 12.025 0 00-4.21-3.927 1.425 1.425 0 00.199-.358l3.023.723a1.433 1.433 0 001.344 1.074 5.832 5.832 0 00.775 2.068c-.037-.003-.071-.01-.108-.01zm-.626-2.924a.564.564 0 11.564-.565.565.565 0 01-.564.565zm.444-1.923a1.303 1.303 0 00-.87-.006l-1.249-1.928a1.433 1.433 0 00.52-.763h1.213a1.435 1.435 0 00.883.962z"/></svg>