<svg xmlns="http://www.w3.org/2000/svg" viewBox="0 0 24 24" width="20" height="20"><circle cx="4.02" cy="4.015" r="3"/><path d="M15.03 12.025a2.991 2.991 0 00-2-2.816v-2.38a2.99 2.99 0 001.807-1.814h2.367a2.99 2.99 0 001.816 1.816v2.38a3.001 3.001 0 102-.005V6.83a2.993 2.993 0 10-3.816-3.816h-2.367a2.993 2.993 0 10-3.807 3.82v2.374a2.983 2.983 0 000 5.632v2.375a2.988 2.988 0 00-1.827 1.823H6.838a2.989 2.989 0 00-1.818-1.82v-2.375a2.999 2.999 0 10-2-.006v2.38a2.993 2.993 0 103.815 3.821h2.37a2.993 2.993 0 103.825-3.817v-2.38a2.991 2.991 0 002-2.817z"/><circle cx="20.02" cy="20.035" r="3"/></svg>