<svg xmlns="http://www.w3.org/2000/svg" viewBox="0 0 24 24" width="20" height="20"><path d="M20 1H10a2 2 0 00-2 2v10.368a6 6 0 01.989.455A5.983 5.983 0 0117.65 21H20a2 2 0 002-2V3a2 2 0 00-2-2zM9 3a1 1 0 111 1 1 1 0 01-1-1zm6 10a4.973 4.973 0 01-2-.422V10h-2.578A4.997 4.997 0 1115 13zm5 7a1 1 0 111-1 1 1 0 01-1 1zm0-16a1 1 0 111-1 1 1 0 01-1 1z"/><path d="M12 23a3.973 3.973 0 01-3-1.38 3.967 3.967 0 01-1-2.617V19a2 2 0 10-2 2 1.928 1.928 0 00.79-.175 5.95 5.95 0 00.927 1.765A3.834 3.834 0 016 23a4 4 0 113-6.62 3.967 3.967 0 011 2.617V19a2 2 0 102-2 1.928 1.928 0 00-.79.176 5.95 5.95 0 00-.928-1.766A3.834 3.834 0 0112 15a4 4 0 010 8z"/><circle cx="15" cy="8" r="2"/></svg>