<svg xmlns="http://www.w3.org/2000/svg" viewBox="0 0 24 24" width="20" height="20"><path d="M12.993 4.012H6.988V2.998a.998.998 0 011-.998h4.007a.998.998 0 01.998.998v1.014zM12 15.994H2l2.5-5.496L7 5.003h5.993l1.308 2.871 1.309 2.872-1.805.802L12 12.35v3.644zM12 10a2 2 0 10-.586 1.414A1.994 1.994 0 0012 10zm.085 6.995H3.993V18a2.001 2.001 0 002.002 2h7.239a7.649 7.649 0 01-.737-1.432 7.191 7.191 0 01-.412-1.573zM22 13v3a6.405 6.405 0 01-1.282 3.804A5.776 5.776 0 0117.5 22a5.776 5.776 0 01-3.217-2.196A6.405 6.405 0 0113 16v-3l2.25-1 2.25-1 2.25 1zm-4.5-.905l-1.75.777-1.75.778v2.85h3.5v4.465a4.788 4.788 0 002.348-1.678A5.803 5.803 0 0021 16.495h-3.5v-4.4z"/></svg>