<svg xmlns="http://www.w3.org/2000/svg" viewBox="0 0 24 24" width="20" height="20"><path d="M5 11H3.5V8.5L0 12l3.5 3.5V13H5v-2zm19 1l-3.5-3.5V11H19v2h1.5v2.5L24 12zM6 18.752V18h12v1.003A1.998 1.998 0 0116 21H8a1.996 1.996 0 01-2-1.997zm9-14.76a.986.986 0 00-.292-.702.998.998 0 00-.706-.29H9.998a.998.998 0 00-.92.606.983.983 0 00-.078.386V5h6V3.992zm3.748 10.258l-1.251-2.75-1.252-2.75L14.993 6H9L7.75 8.75 6.5 11.5l-1.25 2.75L4 17h16zm-4.895-2.461a2.007 2.007 0 11.157-.779 2.003 2.003 0 01-.157.779z"/></svg>