<svg xmlns="http://www.w3.org/2000/svg" viewBox="0 0 24 24" width="20" height="20"><path d="M7 2H3a1 1 0 00-1 1v18a1 1 0 001 1h4a1 1 0 001-1V3a1 1 0 00-1-1zM5 21a2 2 0 112-2 2 2 0 01-2 2zm2-9H3V3h4zm-1 7a1 1 0 11-1-1 1 1 0 011 1zm8-17h-4a1 1 0 00-1 1v18a1 1 0 001 1h4a1 1 0 001-1V3a1 1 0 00-1-1zm-2 19a2 2 0 112-2 2 2 0 01-2 2zm2-9h-4V3h4zm-1 7a1 1 0 11-1-1 1 1 0 011 1zm8-17h-4a1 1 0 00-1 1v18a1 1 0 001 1h4a1 1 0 001-1V3a1 1 0 00-1-1zm-2 19a2 2 0 112-2 2 2 0 01-2 2zm2-9h-4V3h4zm-1 7a1 1 0 11-1-1 1 1 0 011 1z"/></svg>