<svg xmlns="http://www.w3.org/2000/svg" viewBox="0 0 24 24" width="20" height="20"><path d="M15 21h-2a2 2 0 010-4h2v-2h-2a4 4 0 000 8h2zm8-2a4 4 0 01-4 4h-2v-2h2a2 2 0 000-4h-2v-2h2a4 4 0 014 4z"/><path d="M14 18h4v2h-4zm-7 1a5.989 5.989 0 01.09-1H3v-1.4c0-2 4-3.1 6-3.1a8.548 8.548 0 011.35.125A5.954 5.954 0 0113 13h5V4a2.006 2.006 0 00-2-2h-4.18a2.988 2.988 0 00-5.64 0H2a2.006 2.006 0 00-2 2v14a2.006 2.006 0 002 2h5.09A5.989 5.989 0 017 19zM9 2a1 1 0 11-1 1 1.003 1.003 0 011-1zm0 4a3 3 0 11-3 3 2.996 2.996 0 013-3z"/></svg>