<svg xmlns="http://www.w3.org/2000/svg" viewBox="0 0 24 24" width="20" height="20"><path d="M6.016 4.502A2.975 2.975 0 003.038 7.48c0 2.233 2.978 5.53 2.978 5.53s2.978-3.297 2.978-5.53a2.975 2.975 0 00-2.978-2.978zm0 4.041A1.063 1.063 0 117.079 7.48a1.064 1.064 0 01-1.063 1.063zm15.008 2.753v-4.3a4.962 4.962 0 00-.204-1.333 4.996 4.996 0 00-9.796 1.216v.248l-.01.87v9.952h-.004v.041a2 2 0 01-4 0c0-.012.003-.024.004-.037H7.01V16.01h-2v2h.002a3.998 3.998 0 007.996-.005h.002v-.982h.005V8.997l.01-1.87V6.88a3.001 3.001 0 016 .123v4.275a1.999 1.999 0 102 .018z"/></svg>