<svg xmlns="http://www.w3.org/2000/svg" viewBox="0 0 24 24" width="20" height="20"><path d="M14.269 15.01a4.282 4.282 0 01.78-2h-4.027v-2h7.994v.001a4.903 4.903 0 011.998.44V3.012a2.001 2.001 0 00-2.001-2.001H3.016a2.002 2.002 0 00-2.002 2.001V17.01a2.001 2.001 0 002.002 2.002h9.997v-.801a3.013 3.013 0 01.268-1.2H7.013v-2zm4.744-6h-7.994v-2h7.994zm-12-6h12v2h-12zm-2.011 14h-2v-2h2zm0-12h-2v-2h2zm2.005 2h2v2h-2zm.003 6v-2h2v2zm14.803 4.001v-1.5a2.818 2.818 0 00-5.6 0v1.5a1.29 1.29 0 00-1.2 1.2v3.5a1.31 1.31 0 001.2 1.3h5.5a1.31 1.31 0 001.3-1.2v-3.5a1.31 1.31 0 00-1.2-1.3zm-1.3 0h-3v-1.5a1.375 1.375 0 011.5-1.3 1.375 1.375 0 011.5 1.3z"/></svg>