<svg xmlns="http://www.w3.org/2000/svg" viewBox="0 0 24 24" width="20" height="20"><path d="M3.048 11.769A8.187 8.187 0 015.73 5.722L8.167 8.17V2H2l2.276 2.262A10.271 10.271 0 0010.214 22v-2.077a8.218 8.218 0 01-7.166-8.154zM23 12.283A10.315 10.315 0 0013.786 2v2.077a8.27 8.27 0 017.166 8.206 8.074 8.074 0 01-2.682 5.995l-2.484-2.448V22h6.19l-2.252-2.262A10.12 10.12 0 0023 12.283z"/><path d="M12.29 16l-.537-.49c-1.91-1.732-3.172-2.875-3.172-4.277a2.02 2.02 0 012.04-2.04 2.221 2.221 0 011.67.775 2.221 2.221 0 011.669-.775 2.02 2.02 0 012.04 2.04c0 1.402-1.261 2.545-3.172 4.281z"/></svg>