<svg xmlns="http://www.w3.org/2000/svg" viewBox="0 0 24 24" width="20" height="20"><path d="M3 21h2v-6H3v6zm9.46 1l-2.93-.64-2.93-.69a.73.73 0 01-.43-.26.71.71 0 01-.17-.47v-4a.77.77 0 01.17-.47.8.8 0 01.43-.26l4.78-.59 4.79-.6.15.56.15.55a.93.93 0 01-.15.52.9.9 0 01-.4.37l-2 .5-2 .5 1.62.66 1.63.65 2.27-.64 2.21-.69a.78.78 0 01.58.08.73.73 0 01.36.46l.19.77.2.76a.77.77 0 01-.08.56.78.78 0 01-.46.35l-3.63 1-3.63 1a1.42 1.42 0 01-.36 0 1.1 1.1 0 01-.36.02zM9 4L7 6 5 8l2 2 2 2 .7-.7.7-.7-1.3-1.3L7.8 8l1.3-1.3 1.3-1.3-.7-.7L9 4zm6 0l-.7.7-.7.7 1.3 1.3L16.2 8l-1.3 1.3-1.3 1.3.7.7.7.7 2-2 2-2-2-2-2-2z"/></svg>