<svg xmlns="http://www.w3.org/2000/svg" viewBox="0 0 24 24" width="20" height="20"><path d="M6 17.998V5H4v12.998A2.001 2.001 0 006 20h13v-2.002H6z"/><path d="M2.01 21.999V9h-2v12.999a2 2 0 002 2.001h13v-2.001h-13zM15.5 8.763h-.001a9.173 9.173 0 01-2.085-.23 6.197 6.197 0 01-1.665-.633v3.345h.001c0 .308.366.685 1.017.985a6.645 6.645 0 002.733.524 6.645 6.645 0 002.733-.524c.651-.3 1.017-.677 1.017-.985h.002V7.9a6.197 6.197 0 01-1.666.634 9.172 9.172 0 01-2.084.229H15.5zm.008-4.517h-.016a6.642 6.642 0 00-2.729.525c-.65.3-1.015.676-1.015.984 0 .307.365.683 1.015.983a6.643 6.643 0 002.73.525h.015a6.643 6.643 0 002.729-.525c.65-.3 1.015-.676 1.015-.983 0-.308-.365-.684-1.015-.984a6.642 6.642 0 00-2.73-.525z"/><path d="M21 1H10a2 2 0 00-2 2v11a2 2 0 002 2h11a2 2 0 002-2V3a2 2 0 00-2-2zm-.248 4.8v5.445h-.002a2.569 2.569 0 01-1.5 2.146 7.658 7.658 0 01-3.742.863h-.016a7.658 7.658 0 01-3.741-.863 2.569 2.569 0 01-1.5-2.146h-.002v-5.49a2.57 2.57 0 011.502-2.148 7.664 7.664 0 013.748-.861h.003a7.664 7.664 0 013.747.861 2.57 2.57 0 011.503 2.148V5.8z"/></svg>