<svg xmlns="http://www.w3.org/2000/svg" viewBox="0 0 24 24" width="20" height="20"><path d="M23 11h-1.05A10.017 10.017 0 0013 2.05V0h-2v2.05A10.017 10.017 0 002.05 11H0v2h2.05A10.017 10.017 0 0011 21.95V24h2v-2.05A10.017 10.017 0 0021.95 13H24v-2zm-9.277 0a1.995 1.995 0 00-.723-.723V7.881A4.248 4.248 0 0116.119 11zm2.396 2A4.248 4.248 0 0113 16.119v-2.396a1.995 1.995 0 00.723-.723zM11 4.07v2.273A5.757 5.757 0 006.343 11H4.069A8.007 8.007 0 0111 4.07zM10.277 11H7.881A4.249 4.249 0 0111 7.881v2.396a1.995 1.995 0 00-.723.723zM11 13.723v2.396A4.248 4.248 0 017.881 13h2.396a1.995 1.995 0 00.723.723zM4.07 13h2.273A5.757 5.757 0 0011 17.657v2.274A8.007 8.007 0 014.07 13zM13 19.93v-2.273A5.757 5.757 0 0017.657 13h2.274A8.007 8.007 0 0113 19.93zM17.657 11A5.757 5.757 0 0013 6.343V4.069A8.007 8.007 0 0119.93 11z"/></svg>