<svg xmlns="http://www.w3.org/2000/svg" viewBox="0 0 24 24" width="20" height="20"><path d="M20.312 18.034L17.297 7.559a1.994 1.994 0 10-3.005-2.466L5.984 3.614A1.998 1.998 0 103 5.7v12.578a1.992 1.992 0 00.694 3.692A1.989 1.989 0 004 22a1.992 1.992 0 001.717-.99h12.546a1.99 1.99 0 003.699-.834c.005-.059.018-.116.018-.176a1.996 1.996 0 00-1.668-1.966zm-14.538 1.06a1.988 1.988 0 00-.172-.28l3.845-4.917a3.512 3.512 0 00.688.07 3.463 3.463 0 00.949-.147l1.242 1.478A2.472 2.472 0 0012 16.51c0 .038.01.073.011.11a2.494 2.494 0 002.489 2.39 2.467 2.467 0 001.664-.647l1.903 1.099c-.006.018-.017.035-.022.054H5.935a2.104 2.104 0 00-.161-.422zm9.225-11.422a1.826 1.826 0 001.35.288l2.93 10.173a2.028 2.028 0 00-.279.141l-2.078-1.2a2.507 2.507 0 00.065-.435c.002-.043.013-.084.013-.129a2.49 2.49 0 00-3.995-1.992l-.95-1.13a3.485 3.485 0 001.285-4.322zM5.904 4.638l8.178 1.455a1.977 1.977 0 00.228.824L12.782 8.2a3.446 3.446 0 00-4.477-.705l-2.4-2.857zm-1.882 1.35a1.982 1.982 0 001.282-.476l2.221 2.643a3.46 3.46 0 00.923 5.36l-3.642 4.657a1.99 1.99 0 00-.784-.17z"/></svg>