<svg fill="none" xmlns="http://www.w3.org/2000/svg" viewBox="0 0 24 24" width="20" height="20"><path d="M4.26 10.147a60.438 60.438 0 00-.491 6.347A48.62 48.62 0 0112 20.904a48.62 48.62 0 018.232-4.41 60.46 60.46 0 00-.491-6.347m-15.482 0a50.636 50.636 0 00-2.658-.813A59.906 59.906 0 0112 3.493a59.903 59.903 0 0110.399 5.84 51.39 51.39 0 00-2.658.814m-15.482 0A50.717 50.717 0 0112 13.489a50.702 50.702 0 017.74-3.342M6.75 15a.75.75 0 100-1.5.75.75 0 000 1.5zm0 0v-3.675A55.378 55.378 0 0112 8.443m-7.007 11.55A5.981 5.981 0 006.75 15.75v-1.5" stroke="#0F172A" stroke-width="1.5" stroke-linecap="round" stroke-linejoin="round"/></svg>