<svg fill="none" xmlns="http://www.w3.org/2000/svg" viewBox="0 0 24 24" width="20" height="20"><path d="M19.5 14.25v-2.625a3.375 3.375 0 00-3.375-3.375h-1.5A1.125 1.125 0 0113.5 7.125v-1.5a3.375 3.375 0 00-3.375-3.375H8.25m6.621 9.879a3 3 0 00-5.02 2.897l.164.609a4.5 4.5 0 01-.108 2.676l-.157.439.44-.22a2.863 2.863 0 012.185-.155c.72.24 1.507.184 2.186-.155L15 18m-6.75-2.25H12m-1.5-13.5H5.625c-.621 0-1.125.504-1.125 1.125v17.25c0 .621.504 1.125 1.125 1.125h12.75c.621 0 1.125-.504 1.125-1.125V11.25a9 9 0 00-9-9z" stroke="#000" stroke-width="1.5" stroke-linecap="round" stroke-linejoin="round"/></svg>