<svg fill="none" xmlns="http://www.w3.org/2000/svg" viewBox="0 0 24 24" width="20" height="20"><path d="M6.633 10.25c.806 0 1.533-.446 2.031-1.08a9.041 9.041 0 012.861-2.4c.723-.384 1.35-.956 1.653-1.715a4.498 4.498 0 00.322-1.672V2.75a.75.75 0 01.75-.75 2.25 2.25 0 012.25 2.25c0 1.152-.26 2.243-.723 3.218-.266.558.107 1.282.725 1.282m0 0h3.126c1.026 0 1.945.694 2.054 1.715.045.422.068.85.068 1.285a11.95 11.95 0 01-2.649 7.521c-.388.482-.987.729-1.605.729H13.48a4.53 4.53 0 01-1.423-.23l-3.114-1.04a4.501 4.501 0 00-1.423-.23H5.904m10.598-9.75H14.25M5.904 18.5c.083.205.173.405.27.602.197.4-.078.898-.523.898h-.908c-.889 0-1.713-.518-1.972-1.368a12 12 0 01-.521-3.507c0-1.553.295-3.036.831-4.398C3.387 9.953 4.167 9.5 5 9.5h1.053c.472 0 .745.556.5.96a8.958 8.958 0 00-1.302 4.665 8.97 8.97 0 00.654 3.375z" stroke="#0F172A" stroke-width="1.5" stroke-linecap="round" stroke-linejoin="round"/></svg>