<svg fill="none" xmlns="http://www.w3.org/2000/svg" viewBox="0 0 24 24" width="20" height="20"><path d="M13.181 8.68a4.503 4.503 0 011.903 6.405m-9.768-2.782L3.56 14.06a4.5 4.5 0 006.364 6.365l3.129-3.129m5.614-5.615l1.757-1.757a4.5 4.5 0 00-6.364-6.365l-4.5 4.5c-.258.26-.479.541-.661.84m1.903 6.405a4.495 4.495 0 01-1.242-.88 4.483 4.483 0 01-1.062-1.683m6.587 2.345l5.907 5.907m-5.907-5.907L8.898 8.898M2.991 2.99L8.898 8.9" stroke="#000" stroke-width="1.5" stroke-linecap="round" stroke-linejoin="round"/></svg>