<svg fill="none" xmlns="http://www.w3.org/2000/svg" viewBox="0 0 15 17" width="20" height="20"><path d="M7.5 1.5l.248-.434L7.5.924l-.248.142.248.434zm-7 4l-.248-.434L0 5.21v.29h.5zm14 0h.5v-.29l-.252-.144-.248.434zm-7 10l-.137.48.137.04.137-.04-.137-.48zM7.252 1.066l-7 4 .496.868 7-4-.496-.868zM0 5.5v.72h1V5.5H0zm15 .72V5.5h-1v.72h1zm-.252-1.154l-7-4-.496.868 7 4 .496-.868zM7.638 15.98A10.152 10.152 0 0015 6.22h-1a9.151 9.151 0 01-6.637 8.8l.274.96zM0 6.22c0 4.532 3.005 8.516 7.363 9.76l.274-.96A9.151 9.151 0 011 6.22H0zm4.146-.366l6 6 .708-.708-6-6-.708.708zm.708 6l6-6-.708-.708-6 6 .708.708z" fill="#000"/></svg>