<svg xmlns="http://www.w3.org/2000/svg" viewBox="0 0 256 256" width="20" height="20"><path fill="none" d="M0 0h256v256H0z"/><circle cx="128" cy="108" r="28" fill="none" stroke="#000" stroke-linecap="round" stroke-linejoin="round" stroke-width="24"/><path d="M134.6 224h-13.2a16 16 0 01-15.8-13.1l-10.2-56a16 16 0 0115.8-18.9h33.6a16 16 0 0115.8 18.9l-10.2 56a16 16 0 01-15.8 13.1z" fill="none" stroke="#000" stroke-linecap="round" stroke-linejoin="round" stroke-width="24"/><path d="M134.6 224h-13.2a16 16 0 01-15.8-13.1l-10.2-56a16 16 0 0115.8-18.9h33.6a16 16 0 0115.8 18.9l-10.2 56a16 16 0 01-15.8 13.1zM62.7 198.4a96 96 0 11130.6 0" fill="none" stroke="#000" stroke-linecap="round" stroke-linejoin="round" stroke-width="24"/></svg>