<svg xmlns="http://www.w3.org/2000/svg" viewBox="0 0 256 256" width="20" height="20"><path fill="none" d="M0 0h256v256H0z"/><path d="M218.513 162.933C205.936 193.652 183.106 216 164 216H92c-28 0-64-48-64-100a60 60 0 01100.002-44.72l-.002-.002a60.005 60.005 0 0187.169 7.636h0a48.017 48.017 0 003.339 84.017z" fill="none" stroke="#000" stroke-linecap="round" stroke-linejoin="round" stroke-width="24"/><path d="M218.513 162.933C205.936 193.652 183.106 216 164 216H92c-28 0-64-48-64-100a60 60 0 01100.002-44.72l-.002-.002a60.005 60.005 0 0187.169 7.636h0a48.017 48.017 0 003.339 84.017zM143.539 23.367A31.931 31.931 0 01168 12" fill="none" stroke="#000" stroke-linecap="round" stroke-linejoin="round" stroke-width="24"/></svg>