<svg xmlns="http://www.w3.org/2000/svg" viewBox="0 0 256 256" width="20" height="20"><path fill="none" d="M0 0h256v256H0z"/><circle cx="128" cy="128" r="96" fill="none" stroke="#000" stroke-linecap="round" stroke-linejoin="round" stroke-width="24"/><path d="M181.2 79.4A98.3 98.3 0 01196 60.2M196 195.8a98.3 98.3 0 01-14.8-19.2M168.7 140a117.3 117.3 0 01-.7-12 117.3 117.3 0 01.7-12M74.8 79.4A98.3 98.3 0 0060 60.2M60 195.8a98.3 98.3 0 0014.8-19.2M87.3 140a117.3 117.3 0 00.7-12 117.3 117.3 0 00-.7-12" fill="none" stroke="#000" stroke-linecap="round" stroke-linejoin="round" stroke-width="24"/></svg>