<svg xmlns="http://www.w3.org/2000/svg" viewBox="0 0 256 256" width="20" height="20"><path fill="none" d="M0 0h256v256H0z"/><path fill="none" stroke="#000" stroke-linecap="round" stroke-linejoin="round" stroke-width="24" d="M48 40l160 176M96 192v8a32 32 0 0064 0v-8"/><path d="M186.182 192H48.984a8 8 0 01-6.881-12.044c6.603-11.36 14.1-32.142 14.1-67.956v-8a71.806 71.806 0 0112.743-40.96M99.965 37.697a71.425 71.425 0 0128.583-5.695c39.59.294 71.257 33.201 71.257 72.902V112a189.046 189.046 0 003.776 39.675" fill="none" stroke="#000" stroke-linecap="round" stroke-linejoin="round" stroke-width="24"/></svg>