<svg xmlns="http://www.w3.org/2000/svg" viewBox="0 0 256 256" width="20" height="20"><path fill="none" d="M0 0h256v256H0z"/><path fill="none" stroke="#000" stroke-linecap="round" stroke-linejoin="round" stroke-width="24" d="M16 120h224M224 176v32a8 8 0 01-8 8h-24a8 8 0 01-8-8v-32M72 176v32a8 8 0 01-8 8H40a8 8 0 01-8-8v-32"/><path d="M224 120l-29.888-67.25A8 8 0 00186.8 48H69.199a8 8 0 00-7.31 4.75L32 120v56h192z" fill="none" stroke="#000" stroke-linecap="round" stroke-linejoin="round" stroke-width="24"/></svg>