<svg xmlns="http://www.w3.org/2000/svg" viewBox="0 0 256 256" width="20" height="20"><path fill="none" d="M0 0h256v256H0z"/><path fill="none" stroke="#000" stroke-linecap="round" stroke-linejoin="round" stroke-width="24" d="M128 192v32"/><circle cx="84" cy="140" r="16"/><circle cx="172" cy="140" r="16"/><path fill="none" stroke="#000" stroke-linecap="round" stroke-linejoin="round" stroke-width="24" d="M144 176l-16 16-16-16"/><path d="M32 136V51.3a8 8 0 0113.7-5.6l21.9 21.9h0A100.8 100.8 0 01128 48a100.8 100.8 0 0160.4 19.6h0l21.9-21.9a8 8 0 0113.7 5.6V136c0 48.6-43 88-96 88s-96-39.4-96-88zM108 49.9V88M148 49.9V88" fill="none" stroke="#000" stroke-linecap="round" stroke-linejoin="round" stroke-width="24"/></svg>