<svg xmlns="http://www.w3.org/2000/svg" viewBox="0 0 256 256" width="20" height="20"><path fill="none" d="M0 0h256v256H0z"/><path d="M45.129 196.017a8.013 8.013 0 009.973 5.862 273.9 273.9 0 01145.746-.014 8.013 8.013 0 009.971-5.86L236.31 87.69a8 8 0 00-11.037-9.143l-50.584 22.482a8 8 0 01-10.242-3.426l-29.453-53.014a8 8 0 00-13.986 0L91.554 97.602a8 8 0 01-10.242 3.426L30.721 78.542a8 8 0 00-11.038 9.14zM96 153.635a313.89 313.89 0 0164 0" fill="none" stroke="#000" stroke-linecap="round" stroke-linejoin="round" stroke-width="24"/></svg>