<svg xmlns="http://www.w3.org/2000/svg" viewBox="0 0 256 256" width="20" height="20"><path fill="none" d="M0 0h256v256H0z"/><path d="M224 177.321V78.68a8 8 0 00-4.078-6.973l-88-49.5a8 8 0 00-7.844 0l-88 49.5A8 8 0 0032 78.68v98.642a8 8 0 004.078 6.973l88 49.5a8 8 0 007.844 0l88-49.5A8 8 0 00224 177.32z" fill="none" stroke="#000" stroke-linecap="round" stroke-linejoin="round" stroke-width="24"/><path fill="none" stroke="#000" stroke-linecap="round" stroke-linejoin="round" stroke-width="24" d="M222.897 74.626L128.949 128 33.108 74.617M128.949 128l-.939 106.821"/></svg>