<svg xmlns="http://www.w3.org/2000/svg" viewBox="0 0 256 256" width="20" height="20"><path fill="none" d="M0 0h256v256H0z"/><circle cx="96" cy="132" r="16"/><circle cx="160" cy="132" r="16"/><path d="M151.289 174.578l15.78 31.56a7.968 7.968 0 008.991 4.21c24.539-6 45.693-16.46 61.1-29.851a8.052 8.052 0 002.472-8.39L205.66 58.861a8.021 8.021 0 00-4.627-5.11 175.853 175.853 0 00-29.665-9.182 8.018 8.018 0 00-9.319 5.286l-10.532 31.596M104.711 174.578l-15.78 31.56a7.968 7.968 0 01-8.991 4.21c-24.539-6-45.693-16.46-61.1-29.851a8.052 8.052 0 01-2.472-8.39L50.342 58.861a8.021 8.021 0 014.626-5.11 175.853 175.853 0 0129.665-9.182 8.018 8.018 0 019.319 5.286l10.532 31.596" fill="none" stroke="#000" stroke-linecap="round" stroke-linejoin="round" stroke-width="24"/><path d="M181.084 168c-15.205 5.055-33.457 8-53.084 8s-37.88-2.945-53.084-8M176 86.422A174.463 174.463 0 00128 80a174.462 174.462 0 00-48 6.422" fill="none" stroke="#000" stroke-linecap="round" stroke-linejoin="round" stroke-width="24"/></svg>