<svg xmlns="http://www.w3.org/2000/svg" viewBox="0 0 256 256" width="20" height="20"><path fill="none" d="M0 0h256v256H0z"/><path fill="none" stroke="#000" stroke-linecap="round" stroke-linejoin="round" stroke-width="24" d="M128 192v24"/><circle cx="92" cy="136" r="16"/><circle cx="164" cy="136" r="16"/><path fill="none" stroke="#000" stroke-linecap="round" stroke-linejoin="round" stroke-width="24" d="M144 176l-16 16-16-16M152 48l55.8-13.9a8 8 0 019.8 6.2l16.4 87.6c1.5 8.2-9 13-14.2 6.4zM104 48L48.2 34.1a8 8 0 00-9.8 6.2L22 127.9c-1.5 8.2 9 13 14.2 6.4zM104 48h48"/><path d="M208 119.3V184a32 32 0 01-32 32H80a32 32 0 01-32-32v-64.7" fill="none" stroke="#000" stroke-linecap="round" stroke-linejoin="round" stroke-width="24"/></svg>