<svg xmlns="http://www.w3.org/2000/svg" viewBox="0 0 256 256" width="20" height="20"><path fill="none" d="M0 0h256v256H0z"/><path fill="none" stroke="#000" stroke-linecap="round" stroke-linejoin="round" stroke-width="24" d="M48 40l160 176M91.4 87.8A39.5 39.5 0 0088 104"/><path d="M161.9 216A44 44 0 0184 188c0-41.5-36-28-36-84a79.9 79.9 0 0115.3-47.1m103.6 113.9A20.1 20.1 0 01140 152a25.5 25.5 0 011.6-9.1M94.3 31.4A80.1 80.1 0 01208 104m-41 7.4a27.6 27.6 0 001-7.4 40 40 0 00-40-40l-3.9.2" fill="none" stroke="#000" stroke-linecap="round" stroke-linejoin="round" stroke-width="24"/></svg>