<svg xmlns="http://www.w3.org/2000/svg" viewBox="0 0 256 256" width="20" height="20"><path fill="none" d="M0 0h256v256H0z"/><path d="M208 136c0 51-66.2 68.8-78.2 71.6a7.3 7.3 0 01-3.6 0C114.2 204.8 48 187 48 136V77.4a7.9 7.9 0 015-7.4l72-28.8a7.8 7.8 0 016 0L203 70a7.9 7.9 0 015 7.4zM88 108h80M88 144h80" fill="none" stroke="#000" stroke-linecap="round" stroke-linejoin="round" stroke-width="24"/><path d="M205.4 152H220a23.9 23.9 0 0024-24v-24a23.9 23.9 0 00-24-24h-12M50.6 152H36a23.9 23.9 0 01-24-24v-24a23.9 23.9 0 0124-24h12" fill="none" stroke="#000" stroke-linecap="round" stroke-linejoin="round" stroke-width="24"/></svg>