<svg xmlns="http://www.w3.org/2000/svg" viewBox="0 0 256 256" width="20" height="20"><path fill="none" d="M0 0h256v256H0z"/><path d="M208 136c0 50.95-66.222 68.789-78.166 71.592a8.005 8.005 0 01-3.668 0C114.222 204.79 48 186.95 48 136V77.416a8 8 0 015.029-7.428l72-28.8a8 8 0 015.942 0l72 28.8A8 8 0 01208 77.416zM88 108h80M88 144h80" fill="none" stroke="#000" stroke-linecap="round" stroke-linejoin="round" stroke-width="24"/><path d="M205.41 152H220a24 24 0 0024-24v-24a24 24 0 00-24-24h-12M50.591 152H36a24 24 0 01-24-24v-24a24 24 0 0124-24h12" fill="none" stroke="#000" stroke-linecap="round" stroke-linejoin="round" stroke-width="24"/></svg>