<svg xmlns="http://www.w3.org/2000/svg" viewBox="0 0 256 256" width="20" height="20"><path fill="none" d="M0 0h256v256H0z"/><path fill="none" stroke="#000" stroke-linecap="round" stroke-linejoin="round" stroke-width="24" d="M148 36v64h64"/><path d="M44 124V44a8 8 0 018-8h104l56 56v32M100 204h16a20 20 0 000-40h-16v56M60 164v36a20 20 0 01-40 0M212 198.9h8v8c-4.6 7.9-12.7 13.1-22 13.1-14.4 0-26-12.5-26-28s11.6-28 26-28a24.2 24.2 0 0114 4.4" fill="none" stroke="#000" stroke-linecap="round" stroke-linejoin="round" stroke-width="24"/></svg>