<svg xmlns="http://www.w3.org/2000/svg" viewBox="0 0 256 256" width="20" height="20"><path fill="none" d="M0 0h256v256H0z"/><path fill="none" stroke="#000" stroke-linecap="round" stroke-linejoin="round" stroke-width="24" d="M172 164l40 56M212 164l-40 56M148 36v64h64"/><path d="M44 124V44a8 8 0 018-8h104l56 56v32M56 220v-56M76 164H36M108 214.4a23.7 23.7 0 0015 5.6c9 0 17-3.4 17-14.6 0-17.9-32-10-32-26.8 0-9 6-14.6 15-14.6a23.7 23.7 0 0115 5.6" fill="none" stroke="#000" stroke-linecap="round" stroke-linejoin="round" stroke-width="24"/></svg>