<svg xmlns="http://www.w3.org/2000/svg" viewBox="0 0 256 256" width="20" height="20"><path fill="none" d="M0 0h256v256H0z"/><path d="M107.994 128.008a20 20 0 1140 0 211.066 211.066 0 01-24.955 99.879m4.955-159.879a60 60 0 0160 60q0 12.143-1.128 24M51.35 192.223a131.403 131.403 0 0016.644-64.215 59.85 59.85 0 0119.998-44.72m15.327 84.721a170.974 170.974 0 01-20.308 49.323m96.784-25.323a250.03 250.03 0 01-8.393 26.119" fill="none" stroke="#000" stroke-linecap="round" stroke-linejoin="round" stroke-width="24"/><path d="M22.276 160.009a91.81 91.81 0 005.718-32h.012a100 100 0 01200 0h-.012a293.01 293.01 0 01-7.035 64" fill="none" stroke="#000" stroke-linecap="round" stroke-linejoin="round" stroke-width="24"/></svg>