<svg xmlns="http://www.w3.org/2000/svg" viewBox="0 0 256 256" width="20" height="20"><path fill="none" d="M0 0h256v256H0z"/><path d="M176 128a240.3 240.3 0 01-17.9 91.2M163.8 96A48 48 0 0080 128a142.6 142.6 0 01-18 69.7" fill="none" stroke="#000" stroke-linecap="round" stroke-linejoin="round" stroke-width="24"/><path d="M96 37.5a94.4 94.4 0 0132-5.5 96 96 0 0196 96 293.3 293.3 0 01-7.1 64M23.3 168a95.5 95.5 0 008.7-40 95.4 95.4 0 0132-71.5M110.6 208c-2.1 4.4-4.3 8.8-6.6 13M128 128a189.6 189.6 0 01-6.1 48" fill="none" stroke="#000" stroke-linecap="round" stroke-linejoin="round" stroke-width="24"/></svg>