<svg xmlns="http://www.w3.org/2000/svg" viewBox="0 0 256 256" width="20" height="20"><path fill="none" d="M0 0h256v256H0z"/><path d="M175.988 128.009a239.296 239.296 0 01-17.934 91.197M163.763 96.006a48 48 0 00-83.775 32.003 143.35 143.35 0 01-17.98 69.732" fill="none" stroke="#000" stroke-linecap="round" stroke-linejoin="round" stroke-width="24"/><path d="M95.988 37.472a96.067 96.067 0 01128 90.537 288.945 288.945 0 01-7.136 64M23.284 168.01a95.646 95.646 0 008.704-40 95.76 95.76 0 0132-71.556M110.567 208.009q-3.042 6.628-6.565 12.978M127.977 128.008a192.347 192.347 0 01-6.05 48" fill="none" stroke="#000" stroke-linecap="round" stroke-linejoin="round" stroke-width="24"/></svg>