<svg xmlns="http://www.w3.org/2000/svg" viewBox="0 0 256 256" width="20" height="20"><path fill="none" d="M0 0h256v256H0z"/><path d="M108 128a20 20 0 0140 0 210.5 210.5 0 01-25 99.9M128 68a60 60 0 0160 60c0 8.1-.4 16.1-1.1 24M51.3 192.2A130.4 130.4 0 0068 128a59.7 59.7 0 0120-44.7m15.3 84.7A168.7 168.7 0 0183 217.3m96.8-25.3a233.4 233.4 0 01-8.4 26.1" fill="none" stroke="#000" stroke-linecap="round" stroke-linejoin="round" stroke-width="24"/><path d="M22.3 160a91.7 91.7 0 005.7-32h0a100 100 0 01200 0h0a293.3 293.3 0 01-7 64" fill="none" stroke="#000" stroke-linecap="round" stroke-linejoin="round" stroke-width="24"/></svg>