<svg xmlns="http://www.w3.org/2000/svg" viewBox="0 0 256 256" width="20" height="20"><path fill="none" d="M0 0h256v256H0z"/><path d="M128 200s40-21.8 40-80c0-45.6-24.6-68.8-35.2-76.8a8.1 8.1 0 00-9.6 0C112.6 51.2 88 74.4 88 120c0 58.2 40 80 40 80z" fill="none" stroke="#000" stroke-linecap="round" stroke-linejoin="round" stroke-width="24"/><path d="M128 200c12-2.6 44.3-20.8 63.7-54.4s14.6-60.3 10.8-72a7.8 7.8 0 00-9.2-5.3 77.1 77.1 0 00-31.4 15.1m-67.8 0a77.1 77.1 0 00-31.4-15.1 7.8 7.8 0 00-9.2 5.3c-3.8 11.7-8.6 38.5 10.8 72S116 197.4 128 200" fill="none" stroke="#000" stroke-linecap="round" stroke-linejoin="round" stroke-width="24"/><path d="M128 200c16 0 41.8-.2 72.3-17.8s40.3-39.5 43.4-50.8a7.9 7.9 0 00-5.7-9.8c-7.3-1.9-19.8-3.6-35.8.1m-148.4 0c-16-3.7-28.5-2-35.8-.1a7.9 7.9 0 00-5.7 9.8c3.1 11.3 13 33.3 43.4 50.8S112 200 128 200" fill="none" stroke="#000" stroke-linecap="round" stroke-linejoin="round" stroke-width="24"/></svg>