<svg xmlns="http://www.w3.org/2000/svg" viewBox="0 0 256 256" width="20" height="20"><path fill="none" d="M0 0h256v256H0z"/><circle cx="188" cy="172" r="24" fill="none" stroke="#000" stroke-linecap="round" stroke-linejoin="round" stroke-width="24"/><path d="M157 220a32 32 0 0162 0" fill="none" stroke="#000" stroke-linecap="round" stroke-linejoin="round" stroke-width="24"/><path d="M32 80V56a8 8 0 018-8h52.7a7.9 7.9 0 015.6 2.3L128 80" fill="none" stroke="#000" stroke-linecap="round" stroke-linejoin="round" stroke-width="16"/><path d="M112.6 208H39.4a7.4 7.4 0 01-7.4-7.4V80h184a8 8 0 018 8v20M98.4 46.7L128 80H32V52a8 8 0 018-8h52.4a8 8 0 016 2.7z" fill="none" stroke="#000" stroke-linecap="round" stroke-linejoin="round" stroke-width="24"/></svg>