<svg xmlns="http://www.w3.org/2000/svg" viewBox="0 0 256 256" width="20" height="20"><path fill="none" d="M0 0h256v256H0z"/><path d="M196 116v88.889a7.111 7.111 0 01-7.111 7.111H36a8 8 0 01-8-8V92a8 8 0 018-8h45.333a8 8 0 014.8 1.6l27.734 20.8a8 8 0 004.8 1.6H188a8 8 0 018 8z" fill="none" stroke="#000" stroke-linecap="round" stroke-linejoin="round" stroke-width="24"/><path d="M68 84V52a8 8 0 018-8h45.333a8 8 0 014.8 1.6l27.734 20.8a8 8 0 004.8 1.6H228a8 8 0 018 8v88.889a7.111 7.111 0 01-7.111 7.111H196" fill="none" stroke="#000" stroke-linecap="round" stroke-linejoin="round" stroke-width="24"/></svg>