<svg xmlns="http://www.w3.org/2000/svg" viewBox="0 0 256.001 256.001" width="20" height="20"><path fill="none" d="M0 0h256v256H0z"/><circle cx="128" cy="128" r="44" fill="none" stroke="#000" stroke-linecap="round" stroke-linejoin="round" stroke-width="24"/><path d="M52.293 91.569a83.91 83.91 0 016.304-10.9h0l-.436-25.952a8.027 8.027 0 012.852-6.27 103.89 103.89 0 0131.58-18.263 8.001 8.001 0 016.835.671l22.293 13.376-.023-.013a83.91 83.91 0 0112.592.01v0l22.257-13.355a8.027 8.027 0 016.856-.665 103.89 103.89 0 0131.606 18.218 8.001 8.001 0 012.836 6.255l-.437 25.994v-.026a83.912 83.912 0 016.288 10.91h0l22.693 12.597a8.027 8.027 0 014.005 5.606 103.89 103.89 0 01.031 36.445 8.035 8.035 0 01-4.007 5.62l-22.728 12.617.023-.013a83.91 83.91 0 01-6.305 10.9h0l.437 25.952a8.027 8.027 0 01-2.852 6.27 103.89 103.89 0 01-31.58 18.263 8.001 8.001 0 01-6.835-.671l-22.293-13.376.023.013a83.91 83.91 0 01-12.592-.01v0l-22.257 13.355a8.027 8.027 0 01-6.856.665 103.89 103.89 0 01-31.606-18.218 8.001 8.001 0 01-2.836-6.255l.437-25.994v.026a83.912 83.912 0 01-6.288-10.91h0l-22.693-12.597a8.027 8.027 0 01-4.005-5.606 103.89 103.89 0 01-.032-36.445 8.035 8.035 0 014.008-5.62l22.728-12.617z" fill="none" stroke="#000" stroke-linecap="round" stroke-linejoin="round" stroke-width="24"/></svg>