<svg xmlns="http://www.w3.org/2000/svg" viewBox="0 0 256 256" width="20" height="20"><path fill="none" d="M0 0h256v256H0z"/><circle cx="128" cy="128" r="96" fill="none" stroke="#000" stroke-linecap="round" stroke-linejoin="round" stroke-width="24"/><path d="M49.6 183.4l12.1-7.3a8.4 8.4 0 003.8-6.1l3.7-37a7.3 7.3 0 011.2-3.5l19.7-30.9a8 8 0 0111.9-1.8l15.4 12.9a7.8 7.8 0 006.2 1.8l31.2-4.2a7.8 7.8 0 004.9-2.7L181.9 79a8.1 8.1 0 001.9-5.6l-1.1-24.3M187.1 203.7l-10.8-10.8a8.2 8.2 0 00-3.6-2.1l-21.5-5.6a8 8 0 01-5.8-8.9l2.3-16.2a8.2 8.2 0 014.9-6.2l30.4-12.7a8 8 0 018.5 1.5l24.9 22.8" fill="none" stroke="#000" stroke-linecap="round" stroke-linejoin="round" stroke-width="24"/></svg>