<svg xmlns="http://www.w3.org/2000/svg" viewBox="0 0 256 256" width="20" height="20"><path fill="none" d="M0 0h256v256H0z"/><circle cx="127.997" cy="128" r="96" fill="none" stroke="#000" stroke-linecap="round" stroke-linejoin="round" stroke-width="24"/><path d="M49.583 183.394l12.086-7.296a8 8 0 003.827-6.062l3.658-37.031a8 8 0 011.218-3.517L90.087 98.59a8 8 0 0111.89-1.823l15.427 12.957a8 8 0 006.219 1.802l31.146-4.218a8 8 0 004.975-2.692l22.158-25.601a8 8 0 001.941-5.62l-1.168-24.303M187.064 203.683l-10.732-10.753a8 8 0 00-3.631-2.087l-21.459-5.631a8 8 0 01-5.884-8.903l2.385-16.197a8 8 0 014.844-6.221l30.45-12.657a8 8 0 018.47 1.484l24.895 22.768" fill="none" stroke="#000" stroke-linecap="round" stroke-linejoin="round" stroke-width="24"/></svg>