<svg xmlns="http://www.w3.org/2000/svg" viewBox="0 0 256 256" width="20" height="20"><path fill="none" d="M0 0h256v256H0z"/><path d="M112 114.4l-26-45a20 20 0 0134.6-20l40 69.3" fill="none" stroke="#000" stroke-linecap="round" stroke-linejoin="round" stroke-width="24"/><path d="M85.4 148.3l-42-72.8a20 20 0 0134.6-20l42 72.8" fill="none" stroke="#000" stroke-linecap="round" stroke-linejoin="round" stroke-width="24"/><path d="M168.6 132.5l-18-31.2a20 20 0 0134.7-20l20 34.7a80 80 0 01-138.6 80l-42-72.8a20 20 0 0134.7-20l22 38.1M156 12v16m48-3.1l-8 13.8M239.1 60l-13.8 8" fill="none" stroke="#000" stroke-linecap="round" stroke-linejoin="round" stroke-width="24"/></svg>