<svg xmlns="http://www.w3.org/2000/svg" viewBox="0 0 256 256" width="20" height="20"><path fill="none" d="M0 0h256v256H0z"/><g fill="none" stroke="#000" stroke-linecap="round" stroke-linejoin="round" stroke-width="24"><path d="M119.993 106.42l-26-45.034a20 20 0 0134.641-20l40 69.282"/><path d="M89.352 133.347l-38-65.818a20 20 0 1134.641-20l34 58.89"/><path d="M153.993 165.309a40 40 0 0114.641-54.641l-10-17.32a20 20 0 1134.641-20l20 34.64a80 80 0 11-138.564 80l-38-65.817a20 20 0 0134.641-20l18 31.176"/></g><path d="M176 22.99A59.976 59.976 0 01227.962 53M66.935 240a119.75 119.75 0 01-26.84-32.01" fill="none" stroke="#000" stroke-linecap="round" stroke-linejoin="round" stroke-width="24"/></svg>