<svg xmlns="http://www.w3.org/2000/svg" viewBox="0 0 256 256" width="20" height="20"><path fill="none" d="M0 0h256v256H0z"/><path d="M220 176v32a8 8 0 01-8 8h-24a8 8 0 01-8-8v-32M76 176v32a8 8 0 01-8 8H44a8 8 0 01-8-8v-32M16 96h224M128 136v40M168 136v40M88 136v40" fill="none" stroke="#000" stroke-linecap="round" stroke-linejoin="round" stroke-width="24"/><path d="M220 176H36V96l7-49.1a8 8 0 017.9-6.9h154.2a8 8 0 017.9 6.9l7 49.1z" fill="none" stroke="#000" stroke-linecap="round" stroke-linejoin="round" stroke-width="24"/></svg>