<svg xmlns="http://www.w3.org/2000/svg" viewBox="0 0 256 256" width="20" height="20"><path fill="none" d="M0 0h256v256H0z"/><path d="M220 176v32a8 8 0 01-8 8h-24a8 8 0 01-8-8v-32m-104 0v32a8 8 0 01-8 8H44a8 8 0 01-8-8v-32M16 96h224m-112 40v40m40-40v40m-80-40v40" fill="none" stroke="#000" stroke-linecap="round" stroke-linejoin="round" stroke-width="24"/><path d="M220 176H36V96l7.019-49.131A8 8 0 0150.939 40h154.123a8 8 0 017.92 6.869L220 96z" fill="none" stroke="#000" stroke-linecap="round" stroke-linejoin="round" stroke-width="24"/></svg>