<svg xmlns="http://www.w3.org/2000/svg" viewBox="0 0 256 256" width="20" height="20"><path fill="none" d="M0 0h256v256H0z"/><path fill="none" stroke="#000" stroke-linecap="round" stroke-linejoin="round" stroke-width="24" d="M128 192v-48m-32-32l32 32 32-32M88 232h80"/><path d="M79.967 167.98A79.878 79.878 0 0148 104.452c-.24-43.362 34.719-79.408 78.07-80.428a80.004 80.004 0 0149.774 144.099A19.791 19.791 0 00168 184v0a8 8 0 01-8 8H96a8 8 0 01-8-8v-.226a19.804 19.804 0 00-8.033-15.793z" fill="none" stroke="#000" stroke-linecap="round" stroke-linejoin="round" stroke-width="24"/></svg>