<svg xmlns="http://www.w3.org/2000/svg" viewBox="0 0 256 256" width="20" height="20"><path fill="none" d="M0 0h256v256H0z"/><path fill="none" stroke="#000" stroke-linecap="round" stroke-linejoin="round" stroke-width="24" d="M88.002 232h80M79.97 167.98a79.878 79.878 0 01-31.966-63.529c-.24-43.362 34.718-79.408 78.07-80.428a80.004 80.004 0 0149.773 144.099A19.791 19.791 0 00168.003 184v0a8 8 0 01-8 8h-64a8 8 0 01-8-8v-.226a19.804 19.804 0 00-8.034-15.793zM163.11 96a36.051 36.051 0 00-27.107-27.108"/></svg>