<svg xmlns="http://www.w3.org/2000/svg" viewBox="0 0 256 256" width="20" height="20"><path fill="none" d="M0 0h256v256H0z"/><path d="M127.3 95a24.1 24.1 0 0133.6-.3c9.7 9.3 9.5 25.1-.1 34.7l-67 64.9a8.1 8.1 0 00-.1 11.4l28.7 28.7a8.1 8.1 0 0011.3.1l66.4-65.2c31.2-31.2 32.1-82 1.2-113.4a80 80 0 00-113.6-.5l-66.1 66.9a8 8 0 000 11.3l28.7 28.7a8.1 8.1 0 0011.4-.1zM126.8 162.4l39.8 39.8M54 89.6l39.7 39.8" fill="none" stroke="#000" stroke-linecap="round" stroke-linejoin="round" stroke-width="24"/></svg>