<svg xmlns="http://www.w3.org/2000/svg" viewBox="0 0 256 256" width="20" height="20"><path fill="none" d="M0 0h256v256H0z"/><path d="M127.29 95.03a24 24 0 0133.61-.326c9.692 9.333 9.463 25.134-.052 34.649l-67.016 64.991a8 8 0 00-.088 11.4l28.654 28.654a8 8 0 0011.258.055l66.462-65.174c31.192-31.192 32.097-81.995 1.138-113.417a80 80 0 00-113.565-.43l-66.103 66.911a8 8 0 00.035 11.28l28.654 28.654a8 8 0 0011.38-.066zm-.515 67.367l39.787 39.788M53.957 89.579l39.787 39.787" fill="none" stroke="#000" stroke-linecap="round" stroke-linejoin="round" stroke-width="24"/></svg>