<svg xmlns="http://www.w3.org/2000/svg" viewBox="0 0 256 256" width="20" height="20"><path fill="none" d="M0 0h256v256H0z"/><path d="M146.1 128a24 24 0 0135.8 0M74.1 128a24 24 0 0135.8 0M154.5 176a47.9 47.9 0 01-53 0" fill="none" stroke="#000" stroke-linecap="round" stroke-linejoin="round" stroke-width="24"/><path d="M216 48.3a7.9 7.9 0 00-10.9-7.4C190 46.7 160.9 56 128 56s-62-9.3-77.1-15.1A7.9 7.9 0 0040 48.3V104c0 70.7 39.4 128 88 128s88-57.3 88-128z" fill="none" stroke="#000" stroke-linecap="round" stroke-linejoin="round" stroke-width="24"/></svg>