<svg xmlns="http://www.w3.org/2000/svg" viewBox="0 0 256 256" width="20" height="20"><path fill="none" d="M0 0h256v256H0z"/><path d="M178.8 71.7a46.3 46.3 0 01-14.9 33.7 53.3 53.3 0 01-71.8 0 45.6 45.6 0 010-67.4 53 53 0 0171.8 0 46 46 0 0114.9 33.7z" fill="none" stroke="#000" stroke-linecap="round" stroke-linejoin="round" stroke-width="24"/><path d="M188 175.7a54.4 54.4 0 01-17.6 39.8 62.7 62.7 0 01-84.8 0 53.9 53.9 0 010-79.7 62.7 62.7 0 0184.8 0 54.4 54.4 0 0117.6 39.9z" fill="none" stroke="#000" stroke-linecap="round" stroke-linejoin="round" stroke-width="24"/></svg>