<svg xmlns="http://www.w3.org/2000/svg" viewBox="0 0 256 256" width="20" height="20"><path fill="none" d="M0 0h256v256H0z"/><path d="M224 177.3V78.7a8.1 8.1 0 00-4.1-7l-88-49.5a7.8 7.8 0 00-7.8 0l-88 49.5a8.1 8.1 0 00-4.1 7v98.6a8.1 8.1 0 004.1 7l88 49.5a7.8 7.8 0 007.8 0l88-49.5a8.1 8.1 0 004.1-7z" fill="none" stroke="#000" stroke-linecap="round" stroke-linejoin="round" stroke-width="24"/><path fill="none" stroke="#000" stroke-linecap="round" stroke-linejoin="round" stroke-width="24" d="M177 152.5v-52L80 47"/><path fill="none" stroke="#000" stroke-linecap="round" stroke-linejoin="round" stroke-width="24" d="M222.9 74.6l-94 53.4-95.8-53.4M128.9 128l-.9 106.8"/></svg>