<svg xmlns="http://www.w3.org/2000/svg" viewBox="0 0 256 256" width="20" height="20"><path fill="none" d="M0 0h256v256H0z"/><circle cx="127.9" cy="44" r="28" fill="none" stroke="#000" stroke-linecap="round" stroke-linejoin="round" stroke-width="24"/><path d="M153.9 134.7l34.8 27a12 12 0 0016.9-16.9L166 93.9a19.9 19.9 0 00-14.1-5.9h-48a20.3 20.3 0 00-14.2 5.9l-39.6 50.9a12 12 0 0017 16.9l34.8-27-27.8 87.6a12 12 0 0021.8 10.2l32-50.4h0l32 50.4a12 12 0 1021.7-10.2z" fill="none" stroke="#000" stroke-linecap="round" stroke-linejoin="round" stroke-width="24"/></svg>