<svg xmlns="http://www.w3.org/2000/svg" viewBox="0 0 256 256" width="20" height="20"><path fill="none" d="M0 0h256v256H0z"/><path d="M92.476 124.815a84.348 84.348 0 0039.054 38.876 7.928 7.928 0 007.828-.592l25.036-16.694a8 8 0 017.59-.698l46.837 20.073a7.973 7.973 0 014.798 8.297A48.009 48.009 0 01176 216 136 136 0 0140 80a48.009 48.009 0 0141.923-47.619 7.973 7.973 0 018.297 4.798l20.09 46.878a8 8 0 01-.66 7.532l-16.636 25.42a7.929 7.929 0 00-.538 7.806z" fill="none" stroke="#000" stroke-linecap="round" stroke-linejoin="round" stroke-width="24"/></svg>