<svg xmlns="http://www.w3.org/2000/svg" viewBox="0 0 256 256" width="20" height="20"><path fill="none" d="M0 0h256v256H0z"/><path fill="none" stroke="#000" stroke-linecap="round" stroke-linejoin="round" stroke-width="24" d="M144 228h-32m11-208.2C104 35 40.5 95.8 96 192h64c54.4-96.2-8.2-156.9-27-172.2a7.8 7.8 0 00-10 0z"/><path d="M73.9 111.4L42.5 149a7.6 7.6 0 00-1.6 6.8l12.3 55.7A8 8 0 0066 216l30-24m85.5-81.4l32 38.4a7.6 7.6 0 011.6 6.8l-12.3 55.7A8 8 0 01190 216l-30-24" fill="none" stroke="#000" stroke-linecap="round" stroke-linejoin="round" stroke-width="24"/><circle cx="128" cy="96" r="16"/></svg>