<svg xmlns="http://www.w3.org/2000/svg" viewBox="0 0 256 256" width="20" height="20"><path fill="none" d="M0 0h256v256H0z"/><path d="M56 216h-8a8 8 0 01-8-8v-8m72-112H92m20 128H96m72-52v-20M40 160v-16m112 72h8a8 8 0 008-8v-8M152 88h8a8 8 0 018 8v8M56 88h-8a8 8 0 00-8 8v8" fill="none" stroke="#000" stroke-linecap="round" stroke-linejoin="round" stroke-width="24"/><path d="M169.5 164h38.7a7.8 7.8 0 007.8-7.8V47.8a7.8 7.8 0 00-7.8-7.8H99.8a7.8 7.8 0 00-7.8 7.8v38.7" fill="none" stroke="#000" stroke-linecap="round" stroke-linejoin="round" stroke-width="24"/></svg>