<svg xmlns="http://www.w3.org/2000/svg" viewBox="0 0 256 256" width="20" height="20"><path fill="none" d="M0 0h256v256H0z"/><path fill="none" stroke="#000" stroke-linecap="round" stroke-linejoin="round" stroke-width="24" d="M72.2 128.2l80-88L216 40l-.2 63.8-88 80M100 156l60-60"/><path d="M82.1 205.5l-21.9 21.9a8 8 0 01-11.3 0l-20.3-20.3a8 8 0 010-11.3l21.9-21.9a8 8 0 000-11.4l-16.8-16.8a8 8 0 010-11.4l16.6-16.6a8 8 0 0111.4 0l76.6 76.6a8 8 0 010 11.4l-16.6 16.6a8 8 0 01-11.4 0l-16.8-16.8a8 8 0 00-11.4 0z" fill="none" stroke="#000" stroke-linecap="round" stroke-linejoin="round" stroke-width="24"/></svg>