<svg xmlns="http://www.w3.org/2000/svg" viewBox="0 0 256 256" width="20" height="20"><path fill="none" d="M0 0h256v256H0z"/><path fill="none" stroke="#000" stroke-linecap="round" stroke-linejoin="round" stroke-width="24" d="M72.201 128.201l80-88L216 40l-.201 63.799-88 80M100 156l60-60"/><path d="M82.142 205.456l-21.941 21.941a8 8 0 01-11.314 0l-20.284-20.284a8 8 0 010-11.314l21.941-21.941a8 8 0 000-11.314l-16.887-16.887a8 8 0 010-11.314l16.686-16.686a8 8 0 0111.314 0l76.686 76.686a8 8 0 010 11.314l-16.686 16.686a8 8 0 01-11.314 0l-16.887-16.887a8 8 0 00-11.314 0z" fill="none" stroke="#000" stroke-linecap="round" stroke-linejoin="round" stroke-width="24"/></svg>