<svg xmlns="http://www.w3.org/2000/svg" viewBox="0 0 256 256" width="20" height="20"><path fill="none" d="M0 0h256v256H0z"/><path d="M160 68l-14-35a7.9 7.9 0 00-7.4-5h-21.2a7.9 7.9 0 00-7.4 5L96 68M12 124h232M228 172v32a8 8 0 01-8 8h-24a8 8 0 01-8-8v-32M68 172v32a8 8 0 01-8 8H36a8 8 0 01-8-8v-32" fill="none" stroke="#000" stroke-linecap="round" stroke-linejoin="round" stroke-width="24"/><path d="M228 124l-33.6-52.3a8.1 8.1 0 00-6.8-3.7H68.4a8.1 8.1 0 00-6.8 3.7L28 124v48h200z" fill="none" stroke="#000" stroke-linecap="round" stroke-linejoin="round" stroke-width="24"/></svg>