<svg xmlns="http://www.w3.org/2000/svg" viewBox="0 0 256 256" width="20" height="20"><path fill="none" d="M0 0h256v256H0z"/><path d="M70.11 32h115.78a8 8 0 017.718 5.895L216 120l-22.392 82.105A8 8 0 01185.89 208H70.11a8 8 0 01-7.718-5.895L40 120l22.392-82.105A8 8 0 0170.11 32zM128 208v-72" fill="none" stroke="#000" stroke-linecap="round" stroke-linejoin="round" stroke-width="24"/><path fill="none" stroke="#000" stroke-linecap="round" stroke-linejoin="round" stroke-width="24" d="M40 120l88 16 88-16M96 88h64M96 208l-24 32m88-32l24 32"/></svg>