<svg xmlns="http://www.w3.org/2000/svg" viewBox="0 0 256 256" width="20" height="20"><path fill="none" d="M0 0h256v256H0z"/><path d="M45.429 176.998a95.96 95.96 0 1133.574 33.574v-.001l-33.157 9.473a8 8 0 01-9.89-9.89l9.474-33.157z" fill="none" stroke="#000" stroke-linecap="round" stroke-linejoin="round" stroke-width="24"/><path d="M80.001 103.535A23.89 23.89 0 01104 80h3.47a8 8 0 016.86 3.884l7.41 12.35a8 8 0 01.296 7.694l-4.774 9.549h-.002a36.069 36.069 0 0025.263 25.263v-.001l9.55-4.775a8 8 0 017.693.295l12.35 7.41a8 8 0 013.884 6.86V152a23.89 23.89 0 01-23.535 23.999 72 72 0 01-72.464-72.464z" fill="none" stroke="#000" stroke-linecap="round" stroke-linejoin="round" stroke-width="24"/></svg>