<svg xmlns="http://www.w3.org/2000/svg" viewBox="0 0 256 256" width="20" height="20"><path fill="none" d="M0 0h256v256H0z"/><path d="M45.4 177A95.9 95.9 0 1179 210.6h0L45.8 220a7.9 7.9 0 01-9.8-9.8l9.4-33.2z" fill="none" stroke="#000" stroke-linecap="round" stroke-linejoin="round" stroke-width="24"/><path d="M80 103.5A23.9 23.9 0 01104 80h3.5a7.9 7.9 0 016.8 3.9l7.4 12.3a7.8 7.8 0 01.3 7.7l-4.7 9.6h0a36 36 0 0025.2 25.2h0l9.6-4.7a7.8 7.8 0 017.7.3l12.3 7.4a7.9 7.9 0 013.9 6.8v3.5a23.9 23.9 0 01-23.5 24A71.9 71.9 0 0180 103.5z" fill="none" stroke="#000" stroke-linecap="round" stroke-linejoin="round" stroke-width="24"/></svg>