<svg viewBox="0 0 24 24" xmlns="http://www.w3.org/2000/svg" width="20" height="20"><path d="M4.929 2.929l1.414 1.414A7.975 7.975 0 004 10c0 2.209.895 4.209 2.343 5.657L4.93 17.07A9.969 9.969 0 012 10a9.969 9.969 0 012.929-7.071zm14.142 0A9.969 9.969 0 0122 9.999a9.969 9.969 0 01-2.929 7.072l-1.414-1.414A7.975 7.975 0 0020 10c0-2.21-.895-4.21-2.343-5.657l1.414-1.414zM7.757 5.757l1.415 1.414A3.987 3.987 0 008 10c0 1.104.448 2.104 1.172 2.828l-1.415 1.414A5.981 5.981 0 016 10c0-1.657.672-3.157 1.757-4.243zm8.486 0A5.981 5.981 0 0118 10a5.981 5.981 0 01-1.757 4.242l-1.415-1.414A3.987 3.987 0 0016 10a3.987 3.987 0 00-1.172-2.829l1.415-1.414zM12 12a2 2 0 110-4 2 2 0 010 4zm0 2c.58 0 1.077.413 1.184.983L14.5 22h-5l1.316-7.017c.107-.57.604-.983 1.184-.983z"/></svg>