<svg fill="none" xmlns="http://www.w3.org/2000/svg" viewBox="0 0 24 24" width="20" height="20"><path d="M7.502 0h2.578v1.078h-1.5v1.078h1.5v1.078H7.502V0zm3.093 0h2.579v.938h-1.5v.187h1.5v2.156h-2.579v-.984h1.5v-.188h-1.5V0zm3.095 0h2.577v.938h-1.5v.187h1.5v2.156H13.69v-.984h1.5v-.188h-1.5V0z" fill="#000"/><path fill-rule="evenodd" clip-rule="evenodd" d="M11.991 24l-6.944-1.928L3 4.717h18L18.954 22.07 11.991 24zM7.047 12.573l.191 2.128h7.377l-.247 2.76-2.374.642h-.002l-2.37-.64-.152-1.697H7.333l.298 3.342 4.36 1.21 4.367-1.21.532-5.964.052-.571.384-4.309H6.664l.194 2.129h8.136l-.194 2.18H7.047z" fill="#000"/></svg>