<svg fill="none" xmlns="http://www.w3.org/2000/svg" viewBox="0 0 24 24" width="20" height="20"><g clip-path="url(#clip0_950_624)"><path d="M12 0C5.323 0 0 5.317 0 12s5.317 12 12 12 12-5.323 12-12S18.683 0 12 0zM2.608 12.101l9.29 9.286c-5.114.005-9.29-4.171-9.29-9.286zm11.477 9.083L2.821 9.909C3.76 5.733 7.515 2.603 12 2.603a9.493 9.493 0 017.616 3.861l-1.355 1.147A7.666 7.666 0 0011.9 4.267 7.57 7.57 0 004.693 9.38l9.814 9.819c2.4-.837 4.277-2.923 4.8-5.43h-4.07V12h6.155c0 4.485-3.13 8.245-7.307 9.184z" fill="#000"/></g><defs><clipPath id="clip0_950_624"><path fill="#fff" d="M0 0h24v24H0z"/></clipPath></defs></svg>