<svg fill="none" xmlns="http://www.w3.org/2000/svg" viewBox="0 0 24 24" width="20" height="20"><g clip-path="url(#clip0_950_628)"><path fill-rule="evenodd" clip-rule="evenodd" d="M11.384 4.187a2.132 2.132 0 001.171.018l6.326 11.182a2.126 2.126 0 00-.593 1.038H5.71a2.148 2.148 0 00-.64-1.079l6.313-11.159zm-.921-.565c.018.02.038.039.057.058L4.193 14.865a2.11 2.11 0 00-.09-.022V9.156A2.122 2.122 0 005.481 8.14a2.142 2.142 0 00.19-1.694l4.792-2.823zm3.57-.835a2.134 2.134 0 10-4.079-.04L5.159 5.573A2.131 2.131 0 001.785 6a2.146 2.146 0 001.322 3.143v5.715A2.147 2.147 0 001.79 18a2.13 2.13 0 003.368.43l4.795 2.826a2.151 2.151 0 00-.086.605A2.134 2.134 0 0012 24a2.138 2.138 0 002.012-2.848l4.751-2.8a2.128 2.128 0 003.44-.352 2.138 2.138 0 00-1.384-3.159v-5.68A2.147 2.147 0 0022.215 6a2.133 2.133 0 00-3.401-.398l-4.78-2.816zm-.599.937l.075-.072 4.808 2.833a2.142 2.142 0 00.203 1.654 2.12 2.12 0 001.303 1v5.72a2.074 2.074 0 00-.078.023L13.434 3.724zm4.895 13.858l-4.774 2.814a2.124 2.124 0 00-1.554-.674c-.606 0-1.152.252-1.54.658l-4.785-2.82c.012-.039.023-.078.032-.118H18.29c.012.047.025.094.04.14z" fill="#000"/></g><defs><clipPath id="clip0_950_628"><path fill="#fff" d="M0 0h24v24H0z"/></clipPath></defs></svg>