<svg fill="none" xmlns="http://www.w3.org/2000/svg" viewBox="0 0 24 24" width="20" height="20"><path fill-rule="evenodd" clip-rule="evenodd" d="M9.066 1a2.2 2.2 0 10.001 4.4h2.2V3.2a2.202 2.202 0 00-2.2-2.2zm0 5.867H3.2a2.2 2.2 0 000 4.4h5.866a2.2 2.2 0 100-4.4zM23 9.066a2.2 2.2 0 00-4.4 0v2.2h2.2a2.2 2.2 0 002.2-2.2zm-5.867 0V3.2a2.2 2.2 0 00-4.4 0v5.866a2.2 2.2 0 104.4 0zM14.933 23a2.2 2.2 0 100-4.4h-2.2v2.2a2.201 2.201 0 002.2 2.2zm0-5.868H20.8a2.2 2.2 0 000-4.4h-5.866a2.2 2.2 0 00-.001 4.4zM1 14.933a2.2 2.2 0 004.4 0v-2.2H3.2a2.2 2.2 0 00-2.2 2.2zm5.867 0v5.866a2.2 2.2 0 004.4.001v-5.866a2.2 2.2 0 00-4.4-.001z" fill="#000"/></svg>