<svg fill="none" xmlns="http://www.w3.org/2000/svg" viewBox="0 0 24 24" width="20" height="20"><g clip-path="url(#clip0)"><path d="M18.895 22.517c-.798.867-2.646 1.456-4.301 1.483h-.182c-5.557 0-6.766-4.164-6.766-6.594v-6.748H5.458a.454.454 0 01-.324-.137.472.472 0 01-.134-.33V7.003a.81.81 0 01.142-.458.782.782 0 01.376-.29c2.855-1.026 3.748-3.562 3.87-5.49.035-.516.297-.765.738-.765H13.4a.451.451 0 01.33.134.468.468 0 01.137.333V5.87h3.823c.121 0 .238.05.324.137a.472.472 0 01.134.33v3.83a.472.472 0 01-.134.33.454.454 0 01-.324.138h-3.84v6.245c0 1.568 1.015 2.001 1.64 2.001a4.537 4.537 0 001.488-.321.973.973 0 01.595-.106.483.483 0 01.34.37l1.012 3.014c.068.237.14.498-.03.68z" fill="#000"/></g><defs><clipPath id="clip0"><path fill="#fff" d="M0 0h24v24H0z"/></clipPath></defs></svg>