<svg fill="none" xmlns="http://www.w3.org/2000/svg" viewBox="0 0 24 24" width="20" height="20"><path fill-rule="evenodd" clip-rule="evenodd" d="M4.98 11.264l4.701 2.278a1.075 1.075 0 01.6 1.074 1.066 1.066 0 01-.81.927L4.393 16.8a1.088 1.088 0 01-1.187-.492 1.069 1.069 0 01-.146-.429 9.159 9.159 0 01.424-3.996 1.07 1.07 0 01.606-.645 1.085 1.085 0 01.888.026zm1.882 9.615l3.5-3.861a1.08 1.08 0 011.205-.277 1.076 1.076 0 01.673 1.03l-.183 5.195a1.066 1.066 0 01-.396.793 1.083 1.083 0 01-.861.226 9.401 9.401 0 01-3.748-1.506 1.074 1.074 0 01-.46-.758 1.065 1.065 0 01.27-.842zm8.298-5.139l4.975 1.606a1.08 1.08 0 01.657.596 1.064 1.064 0 01-.017.884 9.312 9.312 0 01-2.487 3.166 1.082 1.082 0 01-1.602-.258l-2.773-4.408a1.065 1.065 0 01.065-1.226 1.078 1.078 0 011.182-.36zm5.059-3.152l-5.029 1.433a1.085 1.085 0 01-1.169-.4A1.065 1.065 0 0114 12.393l2.926-4.308a1.075 1.075 0 01.755-.464 1.085 1.085 0 01.85.257 9.222 9.222 0 012.379 3.25 1.069 1.069 0 01-.691 1.46zM8.469.468a15.12 15.12 0 00-2.585.946 1.077 1.077 0 00-.564.65 1.063 1.063 0 00.097.851l4.915 8.456a1.076 1.076 0 001.212.499 1.066 1.066 0 00.799-1.034V1.072A1.065 1.065 0 0011.622.06a1.084 1.084 0 00-.437-.057c-.918.072-1.826.228-2.715.465z" fill="#000"/></svg>