<svg xmlns="http://www.w3.org/2000/svg" viewBox="0 0 256 256" width="20" height="20"><path fill="none" d="M0 0h256v256H0z"/><path d="M208 32H64a8 8 0 00-8 8v176a8 8 0 008 8h144a8 8 0 008-8V40a8 8 0 00-8-8zm-72 112a32 32 0 1132-32 32 32 0 01-32 32z" opacity=".2"/><circle cx="136" cy="112" r="32" fill="none" stroke="currentColor" stroke-linecap="round" stroke-linejoin="round" stroke-width="16"/><path fill="none" stroke="currentColor" stroke-linecap="round" stroke-linejoin="round" stroke-width="16" d="M32 72h24M32 128h24M32 184h24M88 168a60 60 0 0196 0"/><rect x="40" y="48" width="192" height="160" rx="8" transform="rotate(90 136 128)" fill="none" stroke="currentColor" stroke-linecap="round" stroke-linejoin="round" stroke-width="16"/></svg>