<svg xmlns="http://www.w3.org/2000/svg" viewBox="0 0 256 256" width="20" height="20"><path fill="none" d="M0 0h256v256H0z"/><path d="M208 48H48a16 16 0 00-16 16v112a16 16 0 0016 16h52.57L128 160l27.43 32H208a16 16 0 0016-16V64a16 16 0 00-16-16z" opacity=".2"/><path fill="none" stroke="currentColor" stroke-linecap="round" stroke-linejoin="round" stroke-width="16" d="M128 160l48 56H80l48-56z"/><path d="M56 192h-8a16 16 0 01-16-16V64a16 16 0 0116-16h160a16 16 0 0116 16v112a16 16 0 01-16 16h-8" fill="none" stroke="currentColor" stroke-linecap="round" stroke-linejoin="round" stroke-width="16"/></svg>