<svg xmlns="http://www.w3.org/2000/svg" viewBox="0 0 256 256" width="20" height="20"><path fill="none" d="M0 0h256v256H0z"/><path d="M128 24a88 88 0 00-88 88c0 48.6 56 120 88 120s88-71.4 88-120a88 88 0 00-88-88zm-24 120a32 32 0 01-32-32 8 8 0 018-8 32 32 0 0132 32 8 8 0 01-8 8zm48 0a8 8 0 01-8-8 32 32 0 0132-32 8 8 0 018 8 32 32 0 01-32 32z" opacity=".2"/><path d="M216 112c0 48.6-56 120-88 120s-88-71.4-88-120a88 88 0 01176 0z" fill="none" stroke="currentColor" stroke-linecap="round" stroke-linejoin="round" stroke-width="16"/><path d="M104 144h0a32 32 0 01-32-32h0a8 8 0 018-8h0a32 32 0 0132 32h0a8 8 0 01-8 8zM176 104h0a8 8 0 018 8v0a32 32 0 01-32 32h0a8 8 0 01-8-8v0a32 32 0 0132-32zM112 184h32" fill="none" stroke="currentColor" stroke-linecap="round" stroke-linejoin="round" stroke-width="16"/></svg>