<svg xmlns="http://www.w3.org/2000/svg" viewBox="0 0 256 256" width="20" height="20"><path fill="none" d="M0 0h256v256H0z"/><path d="M195.88 60.12a96 96 0 100 135.76 96 96 0 000-135.76zm-31.2 74.58l-24.14 28.41-36.68-6.69-12.54-35.12 24.14-28.41 36.68 6.69 12.54 35.12z" opacity=".2"/><circle cx="128" cy="128" r="96" fill="none" stroke="currentColor" stroke-linecap="round" stroke-linejoin="round" stroke-width="16"/><path fill="none" stroke="currentColor" stroke-linecap="round" stroke-linejoin="round" stroke-width="16" d="M128 32l36.68 102.7M44.86 80l107.28 19.58M44.86 176l70.6-83.11M128 224L91.32 121.3M211.14 176l-107.28-19.58M211.14 80l-70.6 83.11"/></svg>