<svg xmlns="http://www.w3.org/2000/svg" viewBox="0 0 256 256" width="20" height="20"><path fill="none" d="M0 0h256v256H0z"/><path d="M206.63 94.63a32 32 0 00-45.26-45.26L128 82.75 173.25 128zM49.37 161.37a32 32 0 0045.26 45.26L128 173.25 82.75 128zM94.63 49.37a32 32 0 00-45.26 45.26L82.75 128 128 82.75zM173.25 128L128 173.25l33.37 33.38a32 32 0 0045.26-45.26z" opacity=".2"/><path d="M49.37 94.63a32 32 0 0145.26-45.26l112 112a32 32 0 01-45.26 45.26z" fill="none" stroke="currentColor" stroke-linecap="round" stroke-linejoin="round" stroke-width="16"/><path d="M161.37 49.37a32 32 0 0145.26 45.26l-112 112a32 32 0 01-45.26-45.26z" fill="none" stroke="currentColor" stroke-linecap="round" stroke-linejoin="round" stroke-width="16"/><circle cx="128" cy="128" r="4" fill="none" stroke="currentColor" stroke-linecap="round" stroke-linejoin="round" stroke-width="16" opacity=".5"/><circle cx="128" cy="128" r="12"/></svg>