<svg xmlns="http://www.w3.org/2000/svg" viewBox="0 0 256 256" width="20" height="20"><path fill="none" d="M0 0h256v256H0z"/><path d="M60.06 195.91a96 96 0 01-.12-135.65 95.7 95.7 0 0128 67.76 95.74 95.74 0 01-28 67.77zM196.06 195.91a96 96 0 01-.12-135.65 96 96 0 010 135.53z" opacity=".2"/><circle cx="128" cy="128" r="96" fill="none" stroke="currentColor" stroke-linecap="round" stroke-linejoin="round" stroke-width="16"/><path d="M60 60.24A95.7 95.7 0 0188 128a95.7 95.7 0 01-28 67.76M196 60.24a96 96 0 000 135.52M32 128h192M128 32v192" fill="none" stroke="currentColor" stroke-linecap="round" stroke-linejoin="round" stroke-width="16"/></svg>