<svg xmlns="http://www.w3.org/2000/svg" viewBox="0 0 256 256" width="20" height="20"><path fill="none" d="M0 0h256v256H0z"/><path d="M79.26 45.27a96.4 96.4 0 0168.68-11.2 191.91 191.91 0 0113.29 59.29 191.07 191.07 0 00-81.97-48.09zM210.73 176.73a191 191 0 00-48.09-82 192.2 192.2 0 0159.29 13.29 96.37 96.37 0 01-11.2 68.67zM161.31 94.69a191.56 191.56 0 01-40.5 129 96 96 0 01-88.54-88.54 191.56 191.56 0 01129.04-40.46z" opacity=".2"/><circle cx="128" cy="128" r="96" fill="none" stroke="currentColor" stroke-linecap="round" stroke-linejoin="round" stroke-width="16"/><path d="M147.93 34.08a192.17 192.17 0 01-27.12 189.65M32.27 135.19a192.17 192.17 0 01189.65-27.12" fill="none" stroke="currentColor" stroke-linecap="round" stroke-linejoin="round" stroke-width="16"/><path d="M79.25 45.27a191.14 191.14 0 0182.69 48.79 191.14 191.14 0 0148.79 82.69" fill="none" stroke="currentColor" stroke-linecap="round" stroke-linejoin="round" stroke-width="16"/></svg>