<svg xmlns="http://www.w3.org/2000/svg" viewBox="0 0 256 256" width="20" height="20"><path fill="none" d="M0 0h256v256H0z"/><path d="M56 104a72 72 0 01144 0c0 35.82 8.3 64.6 14.9 76a8 8 0 01-6.9 12H48a8 8 0 01-6.88-12C47.71 168.6 56 139.81 56 104z" opacity=".2"/><path fill="none" stroke="currentColor" stroke-linecap="round" stroke-linejoin="round" stroke-width="16" d="M112 96h32l-32 48h32M96 192a32 32 0 0064 0"/><path d="M56 104a72 72 0 01144 0c0 35.82 8.3 64.6 14.9 76a8 8 0 01-6.9 12H48a8 8 0 01-6.88-12C47.71 168.6 56 139.81 56 104z" fill="none" stroke="currentColor" stroke-linecap="round" stroke-linejoin="round" stroke-width="16"/></svg>