<svg xmlns="http://www.w3.org/2000/svg" viewBox="0 0 256 256" width="20" height="20"><path fill="none" d="M0 0h256v256H0z"/><path d="M88 64h48a8 8 0 018 8v14.66a80 80 0 11-64 0V72a8 8 0 018-8z" opacity=".2"/><path d="M88 64h48a8 8 0 018 8v14.66a80 80 0 11-64 0V72a8 8 0 018-8z" fill="none" stroke="currentColor" stroke-linecap="round" stroke-linejoin="round" stroke-width="16"/><path d="M112 64s0-40 32-40 40 56 72 56 32-40 32-40M104 208a49.52 49.52 0 01-40-40" fill="none" stroke="currentColor" stroke-linecap="round" stroke-linejoin="round" stroke-width="16"/></svg>