<svg xmlns="http://www.w3.org/2000/svg" viewBox="0 0 256 256" width="20" height="20"><path fill="none" d="M0 0h256v256H0z"/><path d="M88 207.3A96 96 0 0132 120h192a96 96 0 01-56 87.3v8.7a8 8 0 01-8 8H96a8 8 0 01-8-8z" opacity=".2"/><path d="M88 207.3A96 96 0 0132 120h192a96 96 0 01-56 87.3v8.7a8 8 0 01-8 8H96a8 8 0 01-8-8zM168 88s-18-5.6 0-28 0-28 0-28M128 88s-18-5.6 0-28 0-28 0-28M88 88s-18-5.6 0-28 0-28 0-28" fill="none" stroke="currentColor" stroke-linecap="round" stroke-linejoin="round" stroke-width="16"/></svg>