<svg xmlns="http://www.w3.org/2000/svg" viewBox="0 0 256 256" width="20" height="20"><path fill="none" d="M0 0h256v256H0z"/><path d="M88 199.3A96 96 0 0132 112h192a96 96 0 01-56 87.3v8.7a8 8 0 01-8 8H96a8 8 0 01-8-8z" opacity=".2"/><path d="M48 112a80 80 0 01160 0M89.6 112A80 80 0 01168 48a81.61 81.61 0 018.61.46M134.66 112A80.13 80.13 0 01193 65.4M88 199.3A96 96 0 0132 112h192a96 96 0 01-56 87.3v8.7a8 8 0 01-8 8H96a8 8 0 01-8-8z" fill="none" stroke="currentColor" stroke-linecap="round" stroke-linejoin="round" stroke-width="16"/></svg>