<svg xmlns="http://www.w3.org/2000/svg" viewBox="0 0 256 256" width="20" height="20"><path fill="none" d="M0 0h256v256H0z"/><path d="M208 111a32 32 0 00-8-63h-56a32 32 0 018 63v89a8 8 0 01-8 8h56a8 8 0 008-8z" opacity=".2"/><path d="M48 112a32 32 0 010-64h96a32 32 0 010 64" fill="none" stroke="currentColor" stroke-linecap="round" stroke-linejoin="round" stroke-width="16"/><path d="M128 48h72a32 32 0 010 64M152 111v89a8 8 0 01-8 8H48a8 8 0 01-8-8v-89" fill="none" stroke="currentColor" stroke-linecap="round" stroke-linejoin="round" stroke-width="16"/><path d="M208 111v89a8 8 0 01-8 8h-56" fill="none" stroke="currentColor" stroke-linecap="round" stroke-linejoin="round" stroke-width="16"/></svg>