<svg xmlns="http://www.w3.org/2000/svg" viewBox="0 0 256 256" width="20" height="20"><path fill="none" d="M0 0h256v256H0z"/><path d="M32 104h192V72a8 8 0 00-8-8H40a8 8 0 00-8 8zM32 168h192v32a8 8 0 01-8 8H40a8 8 0 01-8-8z" opacity=".2"/><rect x="32" y="64" width="192" height="144" rx="8" fill="none" stroke="currentColor" stroke-linecap="round" stroke-linejoin="round" stroke-width="16"/><path d="M168 64V48a16 16 0 00-16-16h-48a16 16 0 00-16 16v16M32 168h192M32 104h192" fill="none" stroke="currentColor" stroke-linecap="round" stroke-linejoin="round" stroke-width="16"/></svg>