<svg xmlns="http://www.w3.org/2000/svg" viewBox="0 0 256 256" width="20" height="20"><path fill="none" d="M0 0h256v256H0z"/><path d="M48 96h160a16 16 0 0116 16v23.33c0 17.44-13.67 32.18-31.1 32.66A32 32 0 01160 136a32 32 0 01-64 0 32 32 0 01-32.9 32c-17.43-.49-31.1-15.23-31.1-32.67V112a16 16 0 0116-16zM152 48a24 24 0 01-48 0c0-24 24-40 24-40s24 16 24 40z" opacity=".2"/><path fill="none" stroke="currentColor" stroke-linecap="round" stroke-linejoin="round" stroke-width="16" d="M128 72v24M48 96h160a16 16 0 0116 16v23.33c0 17.44-13.67 32.18-31.1 32.66A32 32 0 01160 136a32 32 0 01-64 0 32 32 0 01-32.9 32c-17.43-.49-31.1-15.23-31.1-32.67V112a16 16 0 0116-16z"/><path d="M216 156.9V200a16 16 0 01-16 16H56a16 16 0 01-16-16v-43.1M152 48a24 24 0 01-48 0c0-24 24-40 24-40s24 16 24 40z" fill="none" stroke="currentColor" stroke-linecap="round" stroke-linejoin="round" stroke-width="16"/></svg>