<svg xmlns="http://www.w3.org/2000/svg" viewBox="0 0 256 256" width="20" height="20"><path fill="none" d="M0 0h256v256H0z"/><path d="M208 64h-32l-16-24H96L80 64H48a16 16 0 00-16 16v112a16 16 0 0016 16h160a16 16 0 0016-16V80a16 16 0 00-16-16zm-80 104a36 36 0 1136-36 36 36 0 01-36 36z" opacity=".2"/><path d="M208 208H48a16 16 0 01-16-16V80a16 16 0 0116-16h32l16-24h64l16 24h32a16 16 0 0116 16v112a16 16 0 01-16 16z" fill="none" stroke="currentColor" stroke-linecap="round" stroke-linejoin="round" stroke-width="16"/><circle cx="128" cy="132" r="36" fill="none" stroke="currentColor" stroke-linecap="round" stroke-linejoin="round" stroke-width="16"/></svg>