<svg xmlns="http://www.w3.org/2000/svg" viewBox="0 0 256 256" width="20" height="20"><path fill="none" d="M0 0h256v256H0z"/><path d="M128 32s-52 32-52 76a52 52 0 0052 52 24 24 0 01-24-24c0-24 24-40 24-40s24 16 24 40a24 24 0 01-24 24 52 52 0 0052-52c0-44-52-76-52-76z" opacity=".2"/><path d="M180 108a52 52 0 01-104 0c0-44 52-76 52-76s52 32 52 76zM40 168l176 56M216 168L40 224" fill="none" stroke="currentColor" stroke-linecap="round" stroke-linejoin="round" stroke-width="16"/><path d="M152 136a24 24 0 01-48 0c0-24 24-40 24-40s24 16 24 40z" fill="none" stroke="currentColor" stroke-linecap="round" stroke-linejoin="round" stroke-width="16"/></svg>