<svg xmlns="http://www.w3.org/2000/svg" viewBox="0 0 256 256" width="20" height="20"><path fill="none" d="M0 0h256v256H0z"/><path d="M168 157.94a44 44 0 1156-67.88V56a8 8 0 00-8-8H40a8 8 0 00-8 8v128a8 8 0 008 8h128z" opacity=".2"/><path fill="none" stroke="currentColor" stroke-linecap="round" stroke-linejoin="round" stroke-width="16" d="M72 136h48M72 104h48"/><circle cx="196" cy="124" r="44" fill="none" stroke="currentColor" stroke-linecap="round" stroke-linejoin="round" stroke-width="16"/><path d="M168 192H40a8 8 0 01-8-8V56a8 8 0 018-8h176a8 8 0 018 8v34.06" fill="none" stroke="currentColor" stroke-linecap="round" stroke-linejoin="round" stroke-width="16"/><path fill="none" stroke="currentColor" stroke-linecap="round" stroke-linejoin="round" stroke-width="16" d="M168 157.94V224l28-16 28 16v-66.06"/></svg>