<svg xmlns="http://www.w3.org/2000/svg" viewBox="0 0 256 256" width="20" height="20"><path fill="none" d="M0 0h256v256H0z"/><path d="M132 216H48a8 8 0 01-8-8v-84a92 92 0 0192-92 92 92 0 0192 92 92 92 0 01-92 92z" opacity=".2"/><path fill="none" stroke="currentColor" stroke-linecap="round" stroke-linejoin="round" stroke-width="16" d="M48 40l160 176M189.59 195.75A91.6 91.6 0 01132 216H48a8 8 0 01-8-8v-84a91.72 91.72 0 0126.05-64.15M92.19 41A91.53 91.53 0 01132 32h0a92 92 0 0192 92h0a91.58 91.58 0 01-13.2 47.51"/></svg>