<svg xmlns="http://www.w3.org/2000/svg" viewBox="0 0 256 256" width="20" height="20"><path fill="none" d="M0 0h256v256H0z"/><path d="M184 40L24 88v24h8a24 24 0 0124 23.54C56.25 149 44.91 160 31.46 160H24v32h56v-8a32 32 0 0164 0v8h80a8 8 0 008-8V88a48 48 0 00-48-48zm-16 96a32 32 0 01-27.72-48h55.44A32 32 0 01168 136z" opacity=".2"/><path d="M24 160h7.46c13.45 0 24.79-11 24.54-24.46A24 24 0 0032 112h-8V88h208v96a8 8 0 01-8 8H24zM24 88l160-48a48 48 0 0148 48" fill="none" stroke="currentColor" stroke-linecap="round" stroke-linejoin="round" stroke-width="16"/><path d="M80 192v-8a32 32 0 0164 0v8M195.72 88a32 32 0 11-55.44 0" fill="none" stroke="currentColor" stroke-linecap="round" stroke-linejoin="round" stroke-width="16"/></svg>