<svg xmlns="http://www.w3.org/2000/svg" viewBox="0 0 256 256" width="20" height="20"><path fill="none" d="M0 0h256v256H0z"/><path d="M176 80a63.92 63.92 0 00-52.19 27 64 64 0 1016.39 90v.07A64 64 0 10176 80z" opacity=".2"/><circle cx="88" cy="160" r="64" fill="none" stroke="currentColor" stroke-linecap="round" stroke-linejoin="round" stroke-width="16"/><path d="M112 136s-8 8-24 8-24-8-24-8M200 120s-8 8-24 8-24-8-24-8" fill="none" stroke="currentColor" stroke-linecap="round" stroke-linejoin="round" stroke-width="16"/><path d="M176 128C168 16 56 32 56 32c48 32 32 112 32 112M123.81 107a64 64 0 1116.41 90.12" fill="none" stroke="currentColor" stroke-linecap="round" stroke-linejoin="round" stroke-width="16"/></svg>