<svg xmlns="http://www.w3.org/2000/svg" viewBox="0 0 256 256" width="20" height="20"><path fill="none" d="M0 0h256v256H0z"/><path d="M208 40H48a8 8 0 00-8 8v160a8 8 0 008 8h160a8 8 0 008-8V48a8 8 0 00-8-8zM88 184a16 16 0 1116-16 16 16 0 01-16 16zm80-64a16 16 0 1116-16 16 16 0 01-16 16z" opacity=".2"/><circle cx="168" cy="104" r="16" fill="none" stroke="currentColor" stroke-linecap="round" stroke-linejoin="round" stroke-width="16"/><circle cx="88" cy="168" r="16" fill="none" stroke="currentColor" stroke-linecap="round" stroke-linejoin="round" stroke-width="16"/><path fill="none" stroke="currentColor" stroke-linecap="round" stroke-linejoin="round" stroke-width="16" d="M152 216v-56L88 96V40M88 152V96"/><rect x="40" y="40" width="176" height="176" rx="8" fill="none" stroke="currentColor" stroke-linecap="round" stroke-linejoin="round" stroke-width="16"/><path fill="none" stroke="currentColor" stroke-linecap="round" stroke-linejoin="round" stroke-width="16" d="M136 40v32l20.69 20.69"/></svg>