<svg xmlns="http://www.w3.org/2000/svg" viewBox="0 0 256 256" width="20" height="20"><path fill="none" d="M0 0h256v256H0z"/><path d="M106.31 130.38a68.13 68.13 0 0145.47-47.32h.15c0-1 .07-2 .07-3a64 64 0 00-49.62-62.38 64.06 64.06 0 01-76.76 76.7A64.12 64.12 0 0063 138.93a44.08 44.08 0 0143.33-8.54z" opacity=".2"/><path d="M63 138.93a64.12 64.12 0 01-37.38-44.55h0a64.06 64.06 0 0076.76-76.76h0A64 64 0 01152 80c0 1 0 2-.07 3" fill="none" stroke="currentColor" stroke-linecap="round" stroke-linejoin="round" stroke-width="16"/><path d="M104 144a68.06 68.06 0 1168 72H92a44 44 0 1114.2-85.66" fill="none" stroke="currentColor" stroke-linecap="round" stroke-linejoin="round" stroke-width="16"/></svg>