<svg xmlns="http://www.w3.org/2000/svg" viewBox="0 0 256 256" width="20" height="20"><path fill="none" d="M0 0h256v256H0z"/><path d="M59.66 135.35a44.08 44.08 0 0138.54-5v.11a68.22 68.22 0 0141.65-46 48 48 0 10-80.19 50.94z" opacity=".2"/><path fill="none" stroke="currentColor" stroke-linecap="round" stroke-linejoin="round" stroke-width="16" d="M87.66 56.73L83.5 33.09M56.69 76.46L37.03 62.69M48.73 112.31l-23.64 4.17M123.52 64.69l13.76-19.66M96 144a68.06 68.06 0 1168 72H84a44 44 0 1114.2-85.66M59.65 135.35a48 48 0 1180.19-50.94"/></svg>