<svg xmlns="http://www.w3.org/2000/svg" viewBox="0 0 256 256" width="20" height="20"><path fill="none" d="M0 0h256v256H0z"/><path d="M176 96.72V124c0 18-29.24 32.85-67.47 35.56C122.44 164.83 140.4 168 160 168c44.18 0 80-16.12 80-36 0-17.42-27.48-31.94-64-35.28z" opacity=".2"/><ellipse cx="96" cy="84" rx="80" ry="36" opacity=".2"/><ellipse cx="96" cy="84" rx="80" ry="36" fill="none" stroke="currentColor" stroke-linecap="round" stroke-linejoin="round" stroke-width="16"/><path d="M16 84v40c0 19.88 35.82 36 80 36s80-16.12 80-36V84M64 117v40" fill="none" stroke="currentColor" stroke-linecap="round" stroke-linejoin="round" stroke-width="16"/><path d="M176 96.72c36.52 3.34 64 17.86 64 35.28 0 19.88-35.82 36-80 36-19.6 0-37.56-3.17-51.47-8.44" fill="none" stroke="currentColor" stroke-linecap="round" stroke-linejoin="round" stroke-width="16"/><path d="M80 159.28V172c0 19.88 35.82 36 80 36s80-16.12 80-36v-40M192 165v40M128 117v88" fill="none" stroke="currentColor" stroke-linecap="round" stroke-linejoin="round" stroke-width="16"/></svg>