<svg xmlns="http://www.w3.org/2000/svg" viewBox="0 0 256 256" width="20" height="20"><path fill="none" d="M0 0h256v256H0z"/><path opacity=".2" d="M152 104L128 8l-24 96-96 24 96 24 24 96 24-96 96-24-96-24z"/><path fill="none" stroke="currentColor" stroke-linecap="round" stroke-linejoin="round" stroke-width="16" d="M128 8l-24 96 24 24 24-24-24-96zM128 248l-24-96 24-24 24 24-24 96zM152 104l96 24-96 24M104 152L8 128l96-24M40.37 119.91a88 88 0 0179.54-79.54M119.91 215.63a88 88 0 01-79.54-79.54M215.63 136.09a88 88 0 01-79.54 79.54M136.09 40.37a88 88 0 0179.54 79.54"/></svg>