<svg xmlns="http://www.w3.org/2000/svg" viewBox="0 0 256 256" width="20" height="20"><path fill="none" d="M0 0h256v256H0z"/><rect x="48" y="160" width="160" height="64" rx="32" opacity=".2"/><path d="M64 104a32 32 0 0132-32H63.22a48 48 0 00-47.07 38.53A8 8 0 0024 120h40zM239.85 110.53A48 48 0 00192.78 72H160a32 32 0 0132 32v16h40a8 8 0 007.85-9.47z" opacity=".2"/><path d="M56 24h0a48 48 0 0048 48h48a48 48 0 0048-48h0" fill="none" stroke="currentColor" stroke-linecap="round" stroke-linejoin="round" stroke-width="16"/><rect x="48" y="160" width="160" height="64" rx="32" fill="none" stroke="currentColor" stroke-linecap="round" stroke-linejoin="round" stroke-width="16"/><path fill="none" stroke="currentColor" stroke-linecap="round" stroke-linejoin="round" stroke-width="16" d="M80 192h16M160 192h16"/><circle cx="100" cy="124" r="12"/><circle cx="156" cy="124" r="12"/><path d="M160 72h32.78a48 48 0 0147.07 38.53A8 8 0 01232 120h-40M96 72H63.22a48 48 0 00-47.07 38.53A8 8 0 0024 120h40" fill="none" stroke="currentColor" stroke-linecap="round" stroke-linejoin="round" stroke-width="16"/><path d="M64 164.28V104a32 32 0 0132-32h64a32 32 0 0132 32v60.28" fill="none" stroke="currentColor" stroke-linecap="round" stroke-linejoin="round" stroke-width="16"/></svg>