<svg xmlns="http://www.w3.org/2000/svg" viewBox="0 0 256 256" width="20" height="20"><path fill="none" d="M0 0h256v256H0z"/><path d="M207.41 95.53L168 144l-32-73.65a20 20 0 01-15.92 0L88 144 48.61 95.52a19.82 19.82 0 01-9.22 4.16h-.08l15.6 93.59a8 8 0 007.87 6.73h130.44a8 8 0 007.89-6.68l15.6-93.59h-.08a19.82 19.82 0 01-9.22-4.2z" opacity=".2"/><circle cx="128" cy="52" r="20" fill="none" stroke="currentColor" stroke-linecap="round" stroke-linejoin="round" stroke-width="16"/><circle cx="220" cy="80" r="20" fill="none" stroke="currentColor" stroke-linecap="round" stroke-linejoin="round" stroke-width="16"/><circle cx="36" cy="80" r="20" fill="none" stroke="currentColor" stroke-linecap="round" stroke-linejoin="round" stroke-width="16"/><path fill="none" stroke="currentColor" stroke-linecap="round" stroke-linejoin="round" stroke-width="16" d="M120.02 70.35L88 144 48.61 95.52M207.39 95.52L168 144l-32.02-73.65"/><path d="M39.29 99.73l15.6 93.59a8 8 0 007.89 6.68h130.44a8 8 0 007.89-6.68l15.6-93.59" fill="none" stroke="currentColor" stroke-linecap="round" stroke-linejoin="round" stroke-width="16"/></svg>