<svg xmlns="http://www.w3.org/2000/svg" viewBox="0 0 256 256" width="20" height="20"><path fill="none" d="M0 0h256v256H0z"/><path d="M128 129.09V232a8 8 0 01-3.84-1l-88-48.16a8 8 0 01-4.16-7V80.2a8 8 0 01.7-3.27z" opacity=".2"/><path fill="none" stroke="currentColor" stroke-linecap="round" stroke-linejoin="round" stroke-width="16" d="M32.7 76.92l95.3 52.16 95.3-52.16"/><path d="M131.84 25l88 48.18a8 8 0 014.16 7v95.64a8 8 0 01-4.16 7l-88 48.18a8 8 0 01-7.68 0l-88-48.18a8 8 0 01-4.16-7V80.18a8 8 0 014.16-7l88-48.18a8 8 0 017.68 0zM128 129.09V232" fill="none" stroke="currentColor" stroke-linecap="round" stroke-linejoin="round" stroke-width="16"/></svg>