<svg xmlns="http://www.w3.org/2000/svg" viewBox="0 0 256 256" width="20" height="20"><path fill="none" d="M0 0h256v256H0z"/><path opacity=".2" d="M88.01 63.995l40.002-40 40 40-40 40.001zM88.01 192.005l40.001-40.001 40.001 40-40 40.002zM152.01 127.995l40.001-40 40.001 40-40 40.001zM24.01 128.005l40.002-40.001 40 40-40 40.002z"/><path fill="none" stroke="currentColor" stroke-linecap="round" stroke-linejoin="round" stroke-width="16" d="M88.01 63.995l40.002-40 40 40-40 40.001zM88.01 192.005l40.001-40.001 40.001 40-40 40.002zM152.01 127.995l40.001-40 40.001 40-40 40.001zM24.01 128.005l40.002-40.001 40 40-40 40.002z"/></svg>