<svg xmlns="http://www.w3.org/2000/svg" viewBox="0 0 256 256" width="20" height="20"><path fill="none" d="M0 0h256v256H0z"/><rect x="108" y="92" width="40" height="176" rx="8" transform="rotate(-90 128 180)" opacity=".2"/><path d="M42.19 114.63l73.74-77.5a16.76 16.76 0 0124.14 0l73.74 77.5c4.85 5.1 1.12 13.37-6 13.37H48.23c-7.16 0-10.89-8.27-6.04-13.37z" opacity=".2"/><rect x="108" y="92" width="40" height="176" rx="8" transform="rotate(-90 128 180)" fill="none" stroke="currentColor" stroke-linecap="round" stroke-linejoin="round" stroke-width="16"/><path d="M42.19 114.63l73.74-77.5a16.76 16.76 0 0124.14 0l73.74 77.5c4.85 5.1 1.12 13.37-6 13.37H48.23c-7.16 0-10.89-8.27-6.04-13.37z" fill="none" stroke="currentColor" stroke-linecap="round" stroke-linejoin="round" stroke-width="16"/></svg>