<svg xmlns="http://www.w3.org/2000/svg" viewBox="0 0 256 256" width="20" height="20"><path fill="none" d="M0 0h256v256H0z"/><path d="M136.5 150.44A23.75 23.75 0 01128 152a24 24 0 01-23.07-17.4L33 155.13a52 52 0 10103.49-4.68zM104.31 124.14a24 24 0 0129.52-19.42L152 32.17a52 52 0 10-47.69 92zM201 105.5a52 52 0 00-57.84 3.91 24 24 0 012.06 35.26l53.74 52a52 52 0 002-91.2z" opacity=".2"/><circle cx="128" cy="128" r="24" fill="none" stroke="currentColor" stroke-linecap="round" stroke-linejoin="round" stroke-width="16"/><path d="M104.31 124.14a52 52 0 1147.69-92l-18.17 72.54M136.5 150.45A52 52 0 1133 155.13l71.91-20.54M143.19 109.41A52 52 0 11199 196.7l-53.74-52" fill="none" stroke="currentColor" stroke-linecap="round" stroke-linejoin="round" stroke-width="16"/></svg>