<svg xmlns="http://www.w3.org/2000/svg" viewBox="0 0 256 256" width="20" height="20"><path fill="none" d="M0 0h256v256H0z"/><circle cx="168" cy="128" r="32" fill="none" stroke="currentColor" stroke-linecap="round" stroke-linejoin="round" stroke-width="16"/><path d="M136 96h32a32 32 0 000-64h-32M136 32H96a32 32 0 000 64h40zM136 96H96a32 32 0 000 64h40zM136 160h-36a36 36 0 1036 36z" fill="none" stroke="currentColor" stroke-linecap="round" stroke-linejoin="round" stroke-width="16"/><circle cx="168" cy="128" r="32" opacity=".2"/><path d="M136 32H96a32 32 0 000 64h40zM136 160h-36a36 36 0 1036 36z" opacity=".2"/></svg>