<svg xmlns="http://www.w3.org/2000/svg" viewBox="0 0 256 256" width="20" height="20"><path fill="none" d="M0 0h256v256H0z"/><path opacity=".2" d="M152 32v56h56l-56-56zM120 172v-12a8 8 0 00-8-8H48a8 8 0 00-8 8v48a8 8 0 008 8h64a8 8 0 008-8v-12l32 20v-64z"/><path fill="none" stroke="currentColor" stroke-linecap="round" stroke-linejoin="round" stroke-width="16" d="M152 32v56h56"/><path d="M192 224h8a8 8 0 008-8V88l-56-56H56a8 8 0 00-8 8v72" fill="none" stroke="currentColor" stroke-linecap="round" stroke-linejoin="round" stroke-width="16"/><rect x="40" y="152" width="80" height="64" rx="8" fill="none" stroke="currentColor" stroke-linecap="round" stroke-linejoin="round" stroke-width="16"/><path fill="none" stroke="currentColor" stroke-linecap="round" stroke-linejoin="round" stroke-width="16" d="M120 172l32-20v64l-32-20"/></svg>