<svg xmlns="http://www.w3.org/2000/svg" viewBox="0 0 256 256" width="20" height="20"><path fill="none" d="M0 0h256v256H0z"/><path opacity=".2" d="M152 32v56h56l-56-56zM108 136a44 44 0 00-42.34 32H60a28 28 0 000 56h48a44 44 0 000-88z"/><path fill="none" stroke="currentColor" stroke-linecap="round" stroke-linejoin="round" stroke-width="16" d="M152 32v56h56"/><path d="M176 224h24a8 8 0 008-8V88l-56-56H56a8 8 0 00-8 8v88" fill="none" stroke="currentColor" stroke-linecap="round" stroke-linejoin="round" stroke-width="16"/><path d="M65.66 168H60a28 28 0 000 56h48a44 44 0 10-43.82-48" fill="none" stroke="currentColor" stroke-linecap="round" stroke-linejoin="round" stroke-width="16"/></svg>