<svg xmlns="http://www.w3.org/2000/svg" viewBox="0 0 256 256" width="20" height="20"><path fill="none" d="M0 0h256v256H0z"/><path opacity=".2" d="M152 32v56h56l-56-56z"/><path d="M48 112V40a8 8 0 018-8h96l56 56v24" fill="none" stroke="currentColor" stroke-linecap="round" stroke-linejoin="round" stroke-width="16"/><path fill="none" stroke="currentColor" stroke-linecap="round" stroke-linejoin="round" stroke-width="16" d="M152 32v56h56M135.9 153.6s-29.43-7.78-31.8 11 38.43 10.12 35.78 30.72c-2.47 19.16-31.78 11-31.78 11M36 190a18 18 0 0036 0v-38M168 152l40 56M208 152l-40 56"/></svg>