<svg xmlns="http://www.w3.org/2000/svg" viewBox="0 0 256 256" width="20" height="20"><path fill="none" d="M0 0h256v256H0z"/><path d="M115.5 92.19l-47.79-27.6-29.86 7.88A7.76 7.76 0 0032.27 82l8.16 30zM126.61 49.05l47.79 27.59 33.6-8.87-8.16-30a7.9 7.9 0 00-9.66-5.49z" opacity=".2"/><path d="M40 112h176v88a8 8 0 01-8 8H48a8 8 0 01-8-8v-88h0zM40.43 112L208 67.77l-8.16-30a7.9 7.9 0 00-9.66-5.49L37.85 72.47A7.76 7.76 0 0032.27 82zM67.71 64.59l47.79 27.6M126.61 49.05l47.79 27.59" fill="none" stroke="currentColor" stroke-linecap="round" stroke-linejoin="round" stroke-width="16"/></svg>