<svg xmlns="http://www.w3.org/2000/svg" viewBox="0 0 256 256" width="20" height="20"><path fill="none" d="M0 0h256v256H0z"/><path d="M32 176h192v24a8 8 0 01-8 8H40a8 8 0 01-8-8zM224 80H32V56a8 8 0 018-8h176a8 8 0 018 8z" opacity=".2"/><rect x="32" y="48" width="192" height="160" rx="8" fill="none" stroke="currentColor" stroke-linecap="round" stroke-linejoin="round" stroke-width="16"/><path fill="none" stroke="currentColor" stroke-linecap="round" stroke-linejoin="round" stroke-width="16" d="M128 48v160M32 80h192M32 176h192M80 48v32M176 48v32M80 176v32M176 176v32"/></svg>