<svg xmlns="http://www.w3.org/2000/svg" viewBox="0 0 256 256" width="20" height="20"><path fill="none" d="M0 0h256v256H0z"/><path d="M148.89 155.11a43.91 43.91 0 01-12.69-35.31 44 44 0 01-47.82-49.58c-13.9 18-23.41 44.16-24.31 81.65L8 175.87l56.07 16.06 16 56.07 24-56.07c37.51-.9 63.64-10.41 81.68-24.31a43.92 43.92 0 01-36.86-12.51z" opacity=".2"/><circle cx="156" cy="76" r="12"/><path d="M8 175.87l56.07 16.06 16 56.07 24-56.07C258.51 188.26 220 38.68 219 37 217.27 36 67.75-2.46 64 151.9z" fill="none" stroke="currentColor" stroke-linecap="round" stroke-linejoin="round" stroke-width="16"/><path d="M185.82 167.62a44 44 0 01-49.62-47.82 44 44 0 01-47.82-49.59" fill="none" stroke="currentColor" stroke-linecap="round" stroke-linejoin="round" stroke-width="16"/></svg>