<svg xmlns="http://www.w3.org/2000/svg" viewBox="0 0 256 256" width="20" height="20"><path fill="none" d="M0 0h256v256H0z"/><path d="M168 129.48c17.76 4.91 36.1 3.75 56-13.48V56c-19.89 17.23-38.24 18.39-56 13.48zM104 162.52c21.62 6 42.38 21 64 27v-60c-21.63-6-42.38-21-64-27zM48 116c19.89-17.23 38.24-18.39 56-13.48v-60C86.24 37.61 67.89 38.77 48 56z" opacity=".2"/><path fill="none" stroke="currentColor" stroke-linecap="round" stroke-linejoin="round" stroke-width="16" d="M168 69.48v120M48 116c64-55.43 112 55.43 176 0M104 42.52v120"/><path d="M48 176c64-55.43 112 55.43 176 0V56C160 111.43 112 .57 48 56v168" fill="none" stroke="currentColor" stroke-linecap="round" stroke-linejoin="round" stroke-width="16"/></svg>