<svg xmlns="http://www.w3.org/2000/svg" viewBox="0 0 256 256" width="20" height="20"><path fill="none" d="M0 0h256v256H0z"/><path d="M208 40h-32v40a8 8 0 01-8 8H88a8 8 0 01-8-8V40.73a8 8 0 00-2.34 1.61L42.34 77.66A8 8 0 0040 83.31V208a8 8 0 008 8h160a8 8 0 008-8V48a8 8 0 00-8-8zm-80 144a32 32 0 1132-32 32 32 0 01-32 32z" opacity=".2"/><path d="M40 83.31V208a8 8 0 008 8h160a8 8 0 008-8V48a8 8 0 00-8-8H83.31a8 8 0 00-5.65 2.34L42.34 77.66A8 8 0 0040 83.31z" fill="none" stroke="currentColor" stroke-linecap="round" stroke-linejoin="round" stroke-width="16"/><circle cx="128" cy="152" r="32" fill="none" stroke="currentColor" stroke-linecap="round" stroke-linejoin="round" stroke-width="16"/><path d="M80 40.72V80a8 8 0 008 8h80a8 8 0 008-8V40" fill="none" stroke="currentColor" stroke-linecap="round" stroke-linejoin="round" stroke-width="16"/></svg>