<svg xmlns="http://www.w3.org/2000/svg" viewBox="0 0 256 256" width="20" height="20"><path fill="none" d="M0 0h256v256H0z"/><path d="M88 119.18a108.49 108.49 0 016.61-38.36C81.28 70 68.56 65.79 61 64.18a8.2 8.2 0 00-9.52 5.52c-3 9.27-6.58 27.83 1 51.71a69.59 69.59 0 00-30.82.64 7.94 7.94 0 00-5.46 9.78c3 11.2 12.49 33.07 41.72 50.54S112.63 200 128 200c0 0-40-22-40-80.82zM234.26 122a69.59 69.59 0 00-30.82-.64c7.63-23.88 4-42.44 1-51.71a8.2 8.2 0 00-9.44-5.47c-7.52 1.61-20.24 5.8-33.56 16.62a108.49 108.49 0 016.56 38.38C168 178 128 200 128 200c15.37 0 40.77-.18 70-17.64s38.69-39.34 41.72-50.54a7.94 7.94 0 00-5.46-9.82z" opacity=".2"/><path d="M128 200s40-22 40-80.82c0-46-24.55-69.54-35.19-77.56a8 8 0 00-9.62 0C112.55 49.64 88 73.14 88 119.18 88 178 128 200 128 200z" fill="none" stroke="currentColor" stroke-linecap="round" stroke-linejoin="round" stroke-width="16"/><path d="M94.6 80.8C81.28 70 68.56 65.79 61 64.18a8.2 8.2 0 00-9.52 5.52c-3.88 12-8.78 39.66 11.11 74.27s53.07 53.4 65.37 56M161.4 80.8c13.32-10.82 26-15 33.56-16.62a8.2 8.2 0 019.52 5.52c3.88 12 8.78 39.66-11.11 74.27S140.3 197.37 128 200" fill="none" stroke="currentColor" stroke-linecap="round" stroke-linejoin="round" stroke-width="16"/><path d="M128 200c15.37 0 40.77-.18 70-17.64s38.69-39.34 41.72-50.54a7.94 7.94 0 00-5.46-9.78 69.59 69.59 0 00-30.82-.64M52.56 121.4a69.59 69.59 0 00-30.82.64 7.94 7.94 0 00-5.46 9.78c3 11.2 12.49 33.07 41.72 50.54S112.63 200 128 200" fill="none" stroke="currentColor" stroke-linecap="round" stroke-linejoin="round" stroke-width="16"/></svg>