<svg xmlns="http://www.w3.org/2000/svg" viewBox="0 0 256 256" width="20" height="20"><path fill="none" d="M0 0h256v256H0z"/><path d="M206.35 136.29c-8.87-5.13-24.46-7.38-39.4-8.29 14.94-.91 30.53-3.16 39.4-8.29a32 32 0 10-32-55.42c-8.87 5.12-18.61 17.48-26.87 30C154.17 80.87 160 66.25 160 56a32 32 0 00-64 0c0 10.25 5.83 24.87 12.52 38.26-8.26-12.49-18-24.85-26.87-30a32 32 0 10-32 55.42c8.87 5.13 24.46 7.38 39.4 8.29-14.94.91-30.53 3.16-39.4 8.29a32 32 0 1032 55.42c8.87-5.12 18.61-17.48 26.87-30C101.83 175.13 96 189.75 96 200a32 32 0 0064 0c0-10.25-5.83-24.87-12.52-38.26 8.26 12.49 18 24.85 26.87 30a32 32 0 1032-55.42zM155.71 144a32 32 0 114.29-16 31.74 31.74 0 01-4.29 16z" opacity=".2"/><circle cx="128" cy="128" r="32" fill="none" stroke="currentColor" stroke-linecap="round" stroke-linejoin="round" stroke-width="16"/><path d="M111.71 100.45C103.81 85.56 96 67.85 96 56a32 32 0 0164 0c0 11.85-7.81 29.56-15.71 44.45" fill="none" stroke="currentColor" stroke-linecap="round" stroke-linejoin="round" stroke-width="16"/><path d="M96 128.33c-16.85-.6-36.09-2.69-46.35-8.62a32 32 0 1132-55.42c10.26 5.92 21.7 21.54 30.64 35.83" fill="none" stroke="currentColor" stroke-linecap="round" stroke-linejoin="round" stroke-width="16"/><path d="M112.29 155.88c-8.94 14.29-20.38 29.91-30.64 35.83a32 32 0 11-32-55.42c10.26-5.93 29.5-8 46.35-8.62" fill="none" stroke="currentColor" stroke-linecap="round" stroke-linejoin="round" stroke-width="16"/><path d="M144.29 155.55c7.9 14.89 15.71 32.6 15.71 44.45a32 32 0 01-64 0c0-11.85 7.81-29.56 15.71-44.45" fill="none" stroke="currentColor" stroke-linecap="round" stroke-linejoin="round" stroke-width="16"/><path d="M160 127.67c16.85.6 36.09 2.69 46.35 8.62a32 32 0 11-32 55.42c-10.26-5.92-21.7-21.54-30.64-35.83" fill="none" stroke="currentColor" stroke-linecap="round" stroke-linejoin="round" stroke-width="16"/><path d="M143.71 100.12c8.94-14.29 20.38-29.91 30.64-35.83a32 32 0 1132 55.42c-10.26 5.93-29.5 8-46.35 8.62" fill="none" stroke="currentColor" stroke-linecap="round" stroke-linejoin="round" stroke-width="16"/></svg>