<svg xmlns="http://www.w3.org/2000/svg" viewBox="0 0 256 256" width="20" height="20"><path fill="none" d="M0 0h256v256H0z"/><path d="M224 88v112.89a7.11 7.11 0 01-7.11 7.11H40a8 8 0 01-8-8V64a8 8 0 018-8h53.33a8 8 0 014.8 1.6L128 80h88a8 8 0 018 8z" opacity=".2"/><path d="M224 88v112.89a7.11 7.11 0 01-7.11 7.11H40a8 8 0 01-8-8V64a8 8 0 018-8h53.33a8 8 0 014.8 1.6L128 80h88a8 8 0 018 8zM104 144h48M128 120v48" fill="none" stroke="currentColor" stroke-linecap="round" stroke-linejoin="round" stroke-width="16"/></svg>