<svg xmlns="http://www.w3.org/2000/svg" viewBox="0 0 256 256" width="20" height="20"><path fill="none" d="M0 0h256v256H0z"/><path d="M69.77 112H208V88a8 8 0 00-8-8h-72L98.13 57.6a8 8 0 00-4.8-1.6H40a8 8 0 00-8 8v144l30.18-90.53a8 8 0 017.59-5.47z" opacity=".2"/><path d="M32 208V64a8 8 0 018-8h53.33a8 8 0 014.8 1.6L128 80h72a8 8 0 018 8v24" fill="none" stroke="currentColor" stroke-linecap="round" stroke-linejoin="round" stroke-width="16"/><path d="M32 208l30.18-90.53a8 8 0 017.59-5.47H232a8 8 0 017.59 10.53L211.09 208z" fill="none" stroke="currentColor" stroke-linecap="round" stroke-linejoin="round" stroke-width="16"/></svg>