<svg xmlns="http://www.w3.org/2000/svg" viewBox="0 0 256 256" width="20" height="20"><path fill="none" d="M0 0h256v256H0z"/><path d="M33.45 145.45c3.32-25.24 13-53 36-76s50.75-32.69 76-36l77.1 77.1c-3.32 25.24-13 53-36 76s-50.75 32.69-76 36l-77.1-77.1z" opacity=".2"/><path d="M186.54 186.54c-43 43-102.66 39.55-131.35 34.69a24.92 24.92 0 01-20.42-20.42c-4.86-28.69-8.29-88.37 34.69-131.35s102.66-39.55 131.35-34.69a24.92 24.92 0 0120.42 20.42c4.86 28.69 8.29 88.37-34.69 131.35zM104 128l24 24M128 104l24 24M160 96l-64 64M145.45 33.45l77.1 77.1M33.45 145.45l77.1 77.1" fill="none" stroke="currentColor" stroke-linecap="round" stroke-linejoin="round" stroke-width="16"/></svg>