<svg xmlns="http://www.w3.org/2000/svg" viewBox="0 0 256 256" width="20" height="20"><path fill="none" d="M0 0h256v256H0z"/><path d="M230.1 108.76l-31.85-18.14c-.64-1.16-1.31-2.29-2-3.41l-.12-36A104.61 104.61 0 00162 32l-32 17.89h-4L94 32a104.58 104.58 0 00-34.11 19.25l-.16 36c-.7 1.12-1.37 2.26-2 3.41l-31.84 18.1a99.15 99.15 0 000 38.46l31.85 18.14c.64 1.16 1.31 2.29 2 3.41l.12 36A104.61 104.61 0 0094 224l32-17.87h4L162 224a104.58 104.58 0 0034.08-19.25l.16-36c.7-1.12 1.37-2.26 2-3.41l31.84-18.1a99.15 99.15 0 00.02-38.48zM128 168a40 40 0 1140-40 40 40 0 01-40 40z" opacity=".2"/><circle cx="128" cy="128" r="40" fill="none" stroke="currentColor" stroke-linecap="round" stroke-linejoin="round" stroke-width="16"/><path d="M130.05 206.11h-4L94 224a104.61 104.61 0 01-34.11-19.2l-.12-36c-.71-1.12-1.38-2.25-2-3.41L25.9 147.24a99.15 99.15 0 010-38.46l31.84-18.1c.65-1.15 1.32-2.29 2-3.41l.16-36A104.58 104.58 0 0194 32l32 17.89h4L162 32a104.61 104.61 0 0134.11 19.2l.12 36c.71 1.12 1.38 2.25 2 3.41l31.85 18.14a99.15 99.15 0 010 38.46l-31.84 18.1c-.65 1.15-1.32 2.29-2 3.41l-.16 36A104.58 104.58 0 01162 224z" fill="none" stroke="currentColor" stroke-linecap="round" stroke-linejoin="round" stroke-width="16"/></svg>