<svg xmlns="http://www.w3.org/2000/svg" viewBox="0 0 256 256" width="20" height="20"><path fill="none" d="M0 0h256v256H0z"/><path d="M207.86 123.18l16.78-21a99.14 99.14 0 00-10.07-24.29l-26.7-3a81 81 0 00-6.81-6.81l-3-26.71a99.43 99.43 0 00-24.3-10l-21 16.77a81.59 81.59 0 00-9.64 0l-21-16.78a99.14 99.14 0 00-24.21 10.07l-3 26.7a81 81 0 00-6.81 6.81l-26.71 3a99.43 99.43 0 00-10 24.3l16.77 21a81.59 81.59 0 000 9.64l-16.78 21a99.14 99.14 0 0010.07 24.29l26.7 3a81 81 0 006.81 6.81l3 26.71a99.43 99.43 0 0024.3 10l21-16.77a81.59 81.59 0 009.64 0l21 16.78a99.14 99.14 0 0024.29-10.07l3-26.7a81 81 0 006.81-6.81l26.71-3a99.43 99.43 0 0010-24.3l-16.77-21a81.59 81.59 0 00-.08-9.64zM128 168a40 40 0 1140-40 40 40 0 01-40 40z" opacity=".2"/><circle cx="128" cy="128" r="40" fill="none" stroke="currentColor" stroke-linecap="round" stroke-linejoin="round" stroke-width="16"/><path d="M41.43 178.09a99.14 99.14 0 01-10.07-24.29l16.78-21a81.59 81.59 0 010-9.64l-16.77-21a99.43 99.43 0 0110.05-24.3l26.71-3a81 81 0 016.81-6.81l3-26.7a99.14 99.14 0 0124.26-9.99l21 16.78a81.59 81.59 0 019.64 0l21-16.77a99.43 99.43 0 0124.3 10.05l3 26.71a81 81 0 016.81 6.81l26.7 3a99.14 99.14 0 0110.07 24.29l-16.78 21a81.59 81.59 0 010 9.64l16.77 21a99.43 99.43 0 01-10 24.3l-26.71 3a81 81 0 01-6.81 6.81l-3 26.7a99.14 99.14 0 01-24.29 10.07l-21-16.78a81.59 81.59 0 01-9.64 0l-21 16.77a99.43 99.43 0 01-24.3-10l-3-26.71a81 81 0 01-6.81-6.81z" fill="none" stroke="currentColor" stroke-linecap="round" stroke-linejoin="round" stroke-width="16"/></svg>