<svg xmlns="http://www.w3.org/2000/svg" viewBox="0 0 256 256" width="20" height="20"><path fill="none" d="M0 0h256v256H0z"/><path d="M224 56H32a8 8 0 00-8 8v128a8 8 0 008 8h64l26.34-26.34a8 8 0 0111.32 0L160 200h64a8 8 0 008-8V64a8 8 0 00-8-8zM80 152a24 24 0 1124-24 24 24 0 01-24 24zm96 0a24 24 0 1124-24 24 24 0 01-24 24z" opacity=".2"/><path d="M24 192V64a8 8 0 018-8h192a8 8 0 018 8v128a8 8 0 01-8 8h-64l-26.34-26.34a8 8 0 00-11.32 0L96 200H32a8 8 0 01-8-8z" fill="none" stroke="currentColor" stroke-linecap="round" stroke-linejoin="round" stroke-width="16"/><circle cx="80" cy="128" r="24" fill="none" stroke="currentColor" stroke-linecap="round" stroke-linejoin="round" stroke-width="16"/><circle cx="176" cy="128" r="24" fill="none" stroke="currentColor" stroke-linecap="round" stroke-linejoin="round" stroke-width="16"/></svg>