<svg xmlns="http://www.w3.org/2000/svg" viewBox="0 0 256 256" width="20" height="20"><path fill="none" d="M0 0h256v256H0z"/><path d="M55.12 206.8a7.91 7.91 0 01-2.74-2.8l-27.33-47.85A8 8 0 0124 152h64zM232 152a8 8 0 01-1.05 4.15L203.62 204a7.91 7.91 0 01-2.74 2.83L168 152zM96.59 33a8.06 8.06 0 013.84-1h55.14a8.06 8.06 0 013.84 1L128 85.33z" opacity=".2"/><path d="M93.65 35.76a8 8 0 016.78-3.76h55.14a8 8 0 016.78 3.76l68.43 112.18a8 8 0 01.17 8.21L203.62 204a8 8 0 01-6.94 4H59.32a8 8 0 01-6.94-4l-27.33-47.85a8 8 0 01.17-8.21zM55.12 206.8L159.41 32.98M200.88 206.8L96.59 32.98M24 152h208" fill="none" stroke="currentColor" stroke-linecap="round" stroke-linejoin="round" stroke-width="16"/></svg>