<svg xmlns="http://www.w3.org/2000/svg" viewBox="0 0 256 256" width="20" height="20"><path fill="none" d="M0 0h256v256H0z"/><path d="M99.72 128.71a8 8 0 01-1.38-12.42L144 72h39.6l-.28-1.37L128 56 72.68 70.63 40 136l56 40 64 16 40-40-40-32c-19 19.13-42.77 19.9-60.28 8.71z" opacity=".2"/><path fill="none" stroke="currentColor" stroke-linecap="round" stroke-linejoin="round" stroke-width="16" d="M200 152l-40 40-64-16-56-40M72.68 70.63L128 56l55.32 14.63M34.37 60.42L8.85 111.48a8 8 0 003.57 10.73L40 136l32.68-65.37-27.57-13.78a8 8 0 00-10.74 3.57z"/><path d="M216 136l27.58-13.79a8 8 0 003.57-10.73l-25.52-51.06a8 8 0 00-10.74-3.57l-27.57 13.78zM184 72h-40l-45.66 44.29a8 8 0 001.38 12.42C117.23 139.9 141 139.13 160 120l40 32 16-16M124.06 216l-41.72-10.43L56 186.75" fill="none" stroke="currentColor" stroke-linecap="round" stroke-linejoin="round" stroke-width="16"/></svg>