<svg xmlns="http://www.w3.org/2000/svg" viewBox="0 0 256 256" width="20" height="20"><path fill="none" d="M0 0h256v256H0z"/><path d="M209.72 101.57L188.61 65a18 18 0 00-31.2 18l-24.23-42A18 18 0 10102 59l-5.72-10A18 18 0 1065.1 67l12.71 22 5.73 10a18 18 0 1131.17-18l23.88 41.26A18 18 0 01170.14 105l20.2 35a71.67 71.67 0 018.66 47.75 72 72 0 0010.72-86.18z" opacity=".2"/><path fill="none" stroke="currentColor" stroke-linecap="round" stroke-linejoin="round" stroke-width="16" d="M168 8v16M208 21.02l-8 13.11M235.66 56l-15.04 4.85M83.54 99l-5.73-10a18 18 0 10-31.18 18l19 32.91"/><path d="M109.55 144l-26-45a18 18 0 1131.17-18l36.45 63" fill="none" stroke="currentColor" stroke-linecap="round" stroke-linejoin="round" stroke-width="16"/><path d="M102 59l-5.72-10A18 18 0 1065.1 67l12.71 22" fill="none" stroke="currentColor" stroke-linecap="round" stroke-linejoin="round" stroke-width="16"/><path d="M114.71 81L102 59a18 18 0 1131.17-18l37 64" fill="none" stroke="currentColor" stroke-linecap="round" stroke-linejoin="round" stroke-width="16"/><path d="M199 187.76a72 72 0 0010.7-86.19L188.61 65a18 18 0 00-31.18 18" fill="none" stroke="currentColor" stroke-linecap="round" stroke-linejoin="round" stroke-width="16"/><path d="M81.81 168l-20.22-35a18 18 0 00-31.18 18L40 167.59 65.63 212a72 72 0 00124.71-72l-20.2-35A18 18 0 10139 123" fill="none" stroke="currentColor" stroke-linecap="round" stroke-linejoin="round" stroke-width="16"/></svg>