<svg xmlns="http://www.w3.org/2000/svg" viewBox="0 0 256 256" width="20" height="20"><path fill="none" d="M0 0h256v256H0z"/><path d="M213.27 104L196 74a20 20 0 00-34.64 20l-30-52a20 20 0 00-34.71 20l-6.92-12a20 20 0 00-34.65 20l14.24 24.67a20 20 0 00-34.64 20L74.7 184a80 80 0 00138.57-80z" opacity=".2"/><path d="M96.65 62a20 20 0 0134.64-20l30 52" fill="none" stroke="currentColor" stroke-linecap="round" stroke-linejoin="round" stroke-width="16"/><path d="M69.32 94.67L55.08 70a20 20 0 0134.65-20l31.17 54" fill="none" stroke="currentColor" stroke-linecap="round" stroke-linejoin="round" stroke-width="16"/><path d="M158.87 160a40 40 0 019.13-54.42L161.32 94A20 20 0 01196 74l17.31 30A80 80 0 0174.7 184l-40-69.32a20 20 0 0134.64-20L88.57 128M192 33.78A51.84 51.84 0 01223.67 58l.33.57M74.62 232A111.88 111.88 0 0147 200" fill="none" stroke="currentColor" stroke-linecap="round" stroke-linejoin="round" stroke-width="16"/></svg>