<svg xmlns="http://www.w3.org/2000/svg" viewBox="0 0 256 256" width="20" height="20"><path fill="none" d="M0 0h256v256H0z"/><path d="M188 56a20 20 0 00-20 20V44a20 20 0 00-40 0v16a20 20 0 00-40 0v92l-18.68-30a20 20 0 00-34.64 20c32.57 68.72 49.14 90 93.32 90a80 80 0 0080-80V76a20 20 0 00-20-20z" opacity=".2"/><path d="M168 76a20 20 0 0140 0v76a80 80 0 01-80 80c-44.18 0-60.75-21.28-93.32-90a20 20 0 0134.64-20L88 152V60a20 20 0 0140 0" fill="none" stroke="currentColor" stroke-linecap="round" stroke-linejoin="round" stroke-width="16"/><path d="M128 120V44a20 20 0 0140 0v76" fill="none" stroke="currentColor" stroke-linecap="round" stroke-linejoin="round" stroke-width="16"/></svg>