<svg xmlns="http://www.w3.org/2000/svg" viewBox="0 0 256 256" width="20" height="20"><path fill="none" d="M0 0h256v256H0z"/><path d="M104 160V51.31A88 88 0 0040 136v24zM152 160V51.31A88 88 0 01216 136v24z" opacity=".2"/><rect x="24" y="160" width="208" height="40" rx="8" fill="none" stroke="currentColor" stroke-linecap="round" stroke-linejoin="round" stroke-width="16"/><path d="M104 160V40a8 8 0 018-8h32a8 8 0 018 8v120M216 160v-24a88 88 0 00-64-84.69M40 160v-24a88 88 0 0164-84.69" fill="none" stroke="currentColor" stroke-linecap="round" stroke-linejoin="round" stroke-width="16"/></svg>