<svg xmlns="http://www.w3.org/2000/svg" viewBox="0 0 256 256" width="20" height="20"><path fill="none" d="M0 0h256v256H0z"/><path d="M215.93 100.72A80 80 0 0056 104l-23.35 44.87a8 8 0 003.77 10.31L64 171.81V208a8 8 0 008 8h48a16 16 0 0016 16h56l-8-64a79.86 79.86 0 0031.93-67.28zm-103.8-26.64a16 16 0 1113.79 13.79 16 16 0 01-13.79-13.79zm34 77.79a16 16 0 1113.79-13.79 16 16 0 01-13.84 13.79z" opacity=".2"/><circle cx="128" cy="72" r="16" fill="none" stroke="currentColor" stroke-linecap="round" stroke-linejoin="round" stroke-width="16"/><circle cx="144" cy="136" r="16" fill="none" stroke="currentColor" stroke-linecap="round" stroke-linejoin="round" stroke-width="16"/><path d="M120 216H72a8 8 0 01-8-8v-36.19l-27.58-12.63a8 8 0 01-3.77-10.3L56 104a80 80 0 11128 64l8 64M128 56V24.39" fill="none" stroke="currentColor" stroke-linecap="round" stroke-linejoin="round" stroke-width="16"/><path fill="none" stroke="currentColor" stroke-linecap="round" stroke-linejoin="round" stroke-width="16" d="M214.38 88H184l-29.76 35.71"/></svg>