<svg xmlns="http://www.w3.org/2000/svg" viewBox="0 0 256 256" width="20" height="20"><path fill="none" d="M0 0h256v256H0z"/><path d="M195.88 60.12A96 96 0 1088 215.29V152a8 8 0 018-8h8V96l48-24v72h8a8 8 0 018 8v63.29a96 96 0 0027.88-155.17z" opacity=".2"/><circle cx="128" cy="128" r="96" fill="none" stroke="currentColor" stroke-linecap="round" stroke-linejoin="round" stroke-width="16"/><path fill="none" stroke="currentColor" stroke-linecap="round" stroke-linejoin="round" stroke-width="16" d="M104 144V96l48-24v72M168 215.3V152a8 8 0 00-8-8H96a8 8 0 00-8 8v63.3"/></svg>