<svg xmlns="http://www.w3.org/2000/svg" viewBox="0 0 256 256" width="20" height="20"><path fill="none" d="M0 0h256v256H0z"/><path d="M92.13 217.32a98.08 98.08 0 0037.81 6.68c51.48-1 93.33-43.13 94.05-94.61A96 96 0 00128 32h-8v32L16 128l13.79 22a24 24 0 0023.51 9.62c17.47-3 48.06-7.64 74.7 8.34z" opacity=".2"/><path d="M176 120a48 48 0 01-48 48" fill="none" stroke="currentColor" stroke-linecap="round" stroke-linejoin="round" stroke-width="16"/><circle cx="124" cy="100" r="12"/><path d="M64 200c17.43 15.6 40.59 24.48 65.94 24 51.48-1 93.33-43.13 94.05-94.61A96 96 0 00128 32h-8v32L16 128l13.79 22a24 24 0 0023.51 9.62c17.47-3 48.06-7.64 74.7 8.34h0l-35.87 49.36" fill="none" stroke="currentColor" stroke-linecap="round" stroke-linejoin="round" stroke-width="16"/></svg>