<svg xmlns="http://www.w3.org/2000/svg" viewBox="0 0 256 256" width="20" height="20"><path fill="none" d="M0 0h256v256H0z"/><path d="M152 40H56a8 8 0 00-8 8v168h32v-56h48v56h32V48a8 8 0 00-8-8z" opacity=".2"/><path fill="none" stroke="currentColor" stroke-linecap="round" stroke-linejoin="round" stroke-width="16" d="M32 216h216M48 216V48a8 8 0 018-8h96a8 8 0 018 8v168M160 120h64a8 8 0 018 8v88M104 72v48M80 96h48"/><path fill="none" stroke="currentColor" stroke-linecap="round" stroke-linejoin="round" stroke-width="16" d="M128 216v-56H80v56"/></svg>