<svg xmlns="http://www.w3.org/2000/svg" viewBox="0 0 256 256" width="20" height="20"><path fill="none" d="M0 0h256v256H0z"/><path d="M192 184H64v32a8 8 0 008 8h112a8 8 0 008-8z" opacity=".2"/><path d="M128 128L67.2 82.4A8 8 0 0164 76V40a8 8 0 018-8h112a8 8 0 018 8v35.64a8 8 0 01-3.18 6.36L128 128h0M128 128l-60.8 45.6A8 8 0 0064 180v36a8 8 0 008 8h112a8 8 0 008-8v-35.64a8 8 0 00-3.18-6.38L128 128h0M64 184h128" fill="none" stroke="currentColor" stroke-linecap="round" stroke-linejoin="round" stroke-width="16"/></svg>