<svg xmlns="http://www.w3.org/2000/svg" viewBox="0 0 256 256" width="20" height="20"><path fill="none" d="M0 0h256v256H0z"/><path d="M64 128.69l38.34-38.35a8 8 0 0111.32 0L163.31 140 189 114.34a8 8 0 0111.31 0L224 138.06V56a8 8 0 00-8-8H72a8 8 0 00-8 8z" opacity=".2"/><rect x="64" y="48" width="160" height="128" rx="8" fill="none" stroke="currentColor" stroke-linecap="round" stroke-linejoin="round" stroke-width="16"/><circle cx="172" cy="84" r="12"/><path d="M64 128.69l38.34-38.35a8 8 0 0111.32 0L163.31 140 189 114.34a8 8 0 0111.31 0L224 138.06" fill="none" stroke="currentColor" stroke-linecap="round" stroke-linejoin="round" stroke-width="16"/><path d="M192 176v24a8 8 0 01-8 8H40a8 8 0 01-8-8V88a8 8 0 018-8h24" fill="none" stroke="currentColor" stroke-linecap="round" stroke-linejoin="round" stroke-width="16"/></svg>