<svg xmlns="http://www.w3.org/2000/svg" viewBox="0 0 256 256" width="20" height="20"><path fill="none" d="M0 0h256v256H0z"/><path d="M208 40H48a8 8 0 00-8 8v160a8 8 0 008 8h8.69l109.65-109.66a8 8 0 0111.32 0L216 144.69V48a8 8 0 00-8-8zM96 112a16 16 0 1116-16 16 16 0 01-16 16z" opacity=".2"/><rect x="40" y="40" width="176" height="176" rx="8" fill="none" stroke="currentColor" stroke-linecap="round" stroke-linejoin="round" stroke-width="16"/><circle cx="96" cy="96" r="16" fill="none" stroke="currentColor" stroke-linecap="round" stroke-linejoin="round" stroke-width="16"/><path d="M56.69 216l109.65-109.66a8 8 0 0111.32 0L216 144.69" fill="none" stroke="currentColor" stroke-linecap="round" stroke-linejoin="round" stroke-width="16"/></svg>