<svg xmlns="http://www.w3.org/2000/svg" viewBox="0 0 256 256" width="20" height="20"><path fill="none" d="M0 0h256v256H0z"/><path d="M128 108a60.06 60.06 0 00-59.36-7.28 60 60 0 0036 46.56A59.94 59.94 0 01128 108zM104.64 147.28A60 60 0 00128 204a60 60 0 0023.36-56.72 60.17 60.17 0 01-46.72 0zM187.36 100.72A60.06 60.06 0 00128 108a59.94 59.94 0 0123.36 39.28 60 60 0 0036-46.56z" opacity=".2"/><circle cx="128" cy="92" r="60" fill="none" stroke="currentColor" stroke-linecap="round" stroke-linejoin="round" stroke-width="16"/><circle cx="164" cy="156" r="60" fill="none" stroke="currentColor" stroke-linecap="round" stroke-linejoin="round" stroke-width="16"/><circle cx="92" cy="156" r="60" fill="none" stroke="currentColor" stroke-linecap="round" stroke-linejoin="round" stroke-width="16"/></svg>