<svg xmlns="http://www.w3.org/2000/svg" viewBox="0 0 256 256" width="20" height="20"><path fill="none" d="M0 0h256v256H0z"/><path d="M168 200v-96h56v88a8 8 0 01-8 8z" opacity=".2"/><path d="M64 56H40a16 16 0 00-16 16h0a16 16 0 0016 16h16a16 16 0 0116 16h0a16 16 0 01-16 16H28M48 48v8M48 120v8" fill="none" stroke="currentColor" stroke-linecap="round" stroke-linejoin="round" stroke-width="16"/><path d="M96 56h128v136a8 8 0 01-8 8H40a8 8 0 01-8-8v-40M104 104h120M80 152h144M168 104v96" fill="none" stroke="currentColor" stroke-linecap="round" stroke-linejoin="round" stroke-width="16"/></svg>