<svg xmlns="http://www.w3.org/2000/svg" viewBox="0 0 256 256" width="20" height="20"><path fill="none" d="M0 0h256v256H0z"/><path d="M78.7 167A79.87 79.87 0 0148 104.45C47.76 61.09 82.72 25 126.07 24a80 80 0 0151.34 142.9A24.3 24.3 0 00168 186v6a8 8 0 01-8 8H96a8 8 0 01-8-8v-6a24.11 24.11 0 00-9.3-19z" opacity=".2"/><path fill="none" stroke="currentColor" stroke-linecap="round" stroke-linejoin="round" stroke-width="16" d="M88 232h80M128 200v-56M96 112l32 32 32-32"/><path d="M78.7 167A79.87 79.87 0 0148 104.45C47.76 61.09 82.72 25 126.07 24a80 80 0 0151.34 142.9A24.3 24.3 0 00168 186v6a8 8 0 01-8 8H96a8 8 0 01-8-8v-6a24.11 24.11 0 00-9.3-19z" fill="none" stroke="currentColor" stroke-linecap="round" stroke-linejoin="round" stroke-width="16"/></svg>