<svg xmlns="http://www.w3.org/2000/svg" viewBox="0 0 256 256" width="20" height="20"><path fill="none" d="M0 0h256v256H0z"/><path d="M218.34 53.66a46.62 46.62 0 00-65.94 0L117.66 88.4c-.33.33-.64.66-1 1a46.6 46.6 0 00-44.26 12.26L37.66 136.4a46.63 46.63 0 00-.06 65.89 46.63 46.63 0 0066 .05l34.74-34.74c.33-.33.64-.66.95-1a46.58 46.58 0 0044.31-12.26l34.74-34.74a46.62 46.62 0 000-65.94z" opacity=".2"/><path d="M141.38 64.68l11-11a46.62 46.62 0 0165.94 0h0a46.62 46.62 0 010 65.94L193.94 144l-10.34 10.34a46.63 46.63 0 01-66-.05h0a46.48 46.48 0 01-13.6-34.23" fill="none" stroke="currentColor" stroke-linecap="round" stroke-linejoin="round" stroke-width="16"/><path d="M114.62 191.32l-11 11a46.63 46.63 0 01-66-.05h0a46.63 46.63 0 01.06-65.89l34.72-34.72a46.62 46.62 0 0165.94 0h0A46.45 46.45 0 01152 135.94" fill="none" stroke="currentColor" stroke-linecap="round" stroke-linejoin="round" stroke-width="16"/></svg>