<svg xmlns="http://www.w3.org/2000/svg" viewBox="0 0 256 256" width="20" height="20"><path fill="none" d="M0 0h256v256H0z"/><path d="M208 88H48a8 8 0 00-8 8v112a8 8 0 008 8h160a8 8 0 008-8V96a8 8 0 00-8-8zm-80 72a20 20 0 1120-20 20 20 0 01-20 20z" opacity=".2"/><rect x="40" y="88" width="176" height="128" rx="8" fill="none" stroke="currentColor" stroke-linecap="round" stroke-linejoin="round" stroke-width="16"/><path d="M88 88V56a40 40 0 0140-40c19.35 0 36.29 13.74 40 32" fill="none" stroke="currentColor" stroke-linecap="round" stroke-linejoin="round" stroke-width="16"/><circle cx="128" cy="140" r="20" fill="none" stroke="currentColor" stroke-linecap="round" stroke-linejoin="round" stroke-width="16"/><path fill="none" stroke="currentColor" stroke-linecap="round" stroke-linejoin="round" stroke-width="16" d="M128 160v24"/></svg>