<svg xmlns="http://www.w3.org/2000/svg" viewBox="0 0 256 256" width="20" height="20"><path fill="none" d="M0 0h256v256H0z"/><path d="M40 72a32 32 0 0132-32h112a32 32 0 0132 32v72a32 32 0 01-32 32H40z" opacity=".2"/><path d="M160 224H72a32 32 0 01-32-32V72a32 32 0 0132-32h112a32 32 0 0132 32v72a32 32 0 01-32 32H40" fill="none" stroke="currentColor" stroke-linecap="round" stroke-linejoin="round" stroke-width="16"/><path d="M128 136v-32a24 24 0 00-48 0v32M176 136v-32a24 24 0 00-48 0" fill="none" stroke="currentColor" stroke-linecap="round" stroke-linejoin="round" stroke-width="16"/></svg>