<svg xmlns="http://www.w3.org/2000/svg" viewBox="0 0 256 256" width="20" height="20"><path fill="none" d="M0 0h256v256H0z"/><path d="M232 64H24a8 8 0 00-8 8v104h224V72a8 8 0 00-8-8zm-120 80H48V96h64zm96 0h-64V96h64z" opacity=".2"/><path d="M24 64h208a8 8 0 018 8v104h0H16h0V72a8 8 0 018-8zM16 176v24M48 176v24M80 176v24M112 176v24M144 176v24M176 176v24M208 176v24M240 176v24" fill="none" stroke="currentColor" stroke-linecap="round" stroke-linejoin="round" stroke-width="16"/><path fill="none" stroke="currentColor" stroke-linecap="round" stroke-linejoin="round" stroke-width="16" d="M48 96h64v48H48zM144 96h64v48h-64z"/></svg>