<svg xmlns="http://www.w3.org/2000/svg" viewBox="0 0 256 256" width="20" height="20"><path fill="none" d="M0 0h256v256H0z"/><path d="M182 56c-12.62 0-24.1 10.7-35 26.27l-18.51 32.33c21.76 39.86 42.91 85.4 68.95 85.4C259.16 200 228.3 56 182 56zM74 56C27.7 56-3.16 200 58.56 200c19 0 35.32-24.14 51.22-52.65l18.71-32.75C111.56 83.58 94.25 56 74 56z" opacity=".2"/><path d="M109.78 147.35C93.88 175.86 77.52 200 58.56 200-3.16 200 27.7 56 74 56s77.15 144 123.45 144C259.16 200 228.3 56 182 56c-12.62 0-24.1 10.7-35 26.27" fill="none" stroke="currentColor" stroke-linecap="round" stroke-linejoin="round" stroke-width="16"/></svg>