<svg xmlns="http://www.w3.org/2000/svg" viewBox="0 0 256 256" width="20" height="20"><path fill="none" d="M0 0h256v256H0z"/><circle cx="128" cy="128" r="32" opacity=".2"/><path d="M240 64h-40a48.85 48.85 0 0040 40zM240 192v-40a48.85 48.85 0 00-40 40zM16 192v-40a48.85 48.85 0 0140 40zM16 64v40a48.85 48.85 0 0040-40z" opacity=".2"/><circle cx="128" cy="128" r="32" fill="none" stroke="currentColor" stroke-linecap="round" stroke-linejoin="round" stroke-width="16"/><path fill="none" stroke="currentColor" stroke-linecap="round" stroke-linejoin="round" stroke-width="16" d="M16 64h224v128H16zM240 104a48.85 48.85 0 01-40-40M200 192a48.85 48.85 0 0140-40M16 152a48.85 48.85 0 0140 40M56 64a48.85 48.85 0 01-40 40"/></svg>