<svg xmlns="http://www.w3.org/2000/svg" viewBox="0 0 256 256" width="20" height="20"><path fill="none" d="M0 0h256v256H0z"/><path d="M16 69.21v120c91.64-44.77 132.36 42.35 224-2.42v-120c-91.64 44.77-132.36-42.35-224 2.42zM128 152a24 24 0 1124-24 24 24 0 01-24 24z" opacity=".2"/><path d="M240 186.79c-91.64 44.77-132.36-42.35-224 2.42v-120c91.64-44.77 132.36 42.35 224-2.42z" fill="none" stroke="currentColor" stroke-linecap="round" stroke-linejoin="round" stroke-width="16"/><circle cx="128" cy="128" r="24" fill="none" stroke="currentColor" stroke-linecap="round" stroke-linejoin="round" stroke-width="16"/><path fill="none" stroke="currentColor" stroke-linecap="round" stroke-linejoin="round" stroke-width="16" d="M48 96v48M208 112v48"/></svg>