<svg xmlns="http://www.w3.org/2000/svg" viewBox="0 0 256 256" width="20" height="20"><path fill="none" d="M0 0h256v256H0z"/><path opacity=".2" d="M216 160h-56v56l56-56z"/><path fill="none" stroke="currentColor" stroke-linecap="round" stroke-linejoin="round" stroke-width="16" d="M96 96h64M96 128h64M96 160h32M156.69 216H48a8 8 0 01-8-8V48a8 8 0 018-8h160a8 8 0 018 8v108.69a8 8 0 01-2.34 5.65l-51.32 51.32a8 8 0 01-5.65 2.34z"/><path fill="none" stroke="currentColor" stroke-linecap="round" stroke-linejoin="round" stroke-width="16" d="M215.28 159.99H160v55.29"/></svg>