<svg xmlns="http://www.w3.org/2000/svg" viewBox="0 0 256 256" width="20" height="20"><path fill="none" d="M0 0h256v256H0z"/><path d="M219.84 73.16l-88-48.16a8 8 0 00-7.68 0l-88 48.18a8 8 0 00-4.16 7v95.64a8 8 0 004.16 7l88 48.18a8 8 0 007.68 0l88-48.18a8 8 0 004.16-7V80.18a8 8 0 00-4.16-7.02zM128 168a40 40 0 1140-40 40 40 0 01-40 40z" opacity=".2"/><circle cx="128" cy="128" r="40" fill="none" stroke="currentColor" stroke-linecap="round" stroke-linejoin="round" stroke-width="16"/><path d="M219.84 182.84l-88 48.18a8 8 0 01-7.68 0l-88-48.18a8 8 0 01-4.16-7V80.18a8 8 0 014.16-7l88-48.18a8 8 0 017.68 0l88 48.18a8 8 0 014.16 7v95.64a8 8 0 01-4.16 7.02z" fill="none" stroke="currentColor" stroke-linecap="round" stroke-linejoin="round" stroke-width="16"/></svg>