<svg xmlns="http://www.w3.org/2000/svg" viewBox="0 0 256 256" width="20" height="20"><path fill="none" d="M0 0h256v256H0z"/><path d="M51.5 148.5a48 48 0 01-10.38-8.08 48 48 0 0066.4 64.08L152 178.81v-36.95l-56 32.33z" opacity=".2"/><path d="M204.5 107.5L160 81.81l-32 18.48 56 32.33V184a48 48 0 01-1.81 13 48 48 0 0022.31-89.5z" opacity=".2"/><path d="M104 141.86V77.19l44.5-25.69a47.77 47.77 0 0112.19-5A48 48 0 0072 72v51.38l32 18.48z" opacity=".2"/><path d="M104 141.86V77.19l44.5-25.69a48 48 0 0166.4 64.08" fill="none" stroke="currentColor" stroke-linecap="round" stroke-linejoin="round" stroke-width="16"/><path d="M128 155.71l-56-32.33V72a48 48 0 0188.69-25.47" fill="none" stroke="currentColor" stroke-linecap="round" stroke-linejoin="round" stroke-width="16"/><path d="M152 141.86l-56 32.33-44.5-25.69A48 48 0 0173.79 59" fill="none" stroke="currentColor" stroke-linecap="round" stroke-linejoin="round" stroke-width="16"/><path d="M152 114.14v64.67l-44.5 25.69a48 48 0 01-66.4-64.08" fill="none" stroke="currentColor" stroke-linecap="round" stroke-linejoin="round" stroke-width="16"/><path d="M128 100.29l56 32.33V184a48 48 0 01-88.69 25.47" fill="none" stroke="currentColor" stroke-linecap="round" stroke-linejoin="round" stroke-width="16"/><path d="M104 114.14l56-32.33 44.5 25.69a48 48 0 01-22.29 89.55" fill="none" stroke="currentColor" stroke-linecap="round" stroke-linejoin="round" stroke-width="16"/></svg>