<svg xmlns="http://www.w3.org/2000/svg" viewBox="0 0 256 256" width="20" height="20"><path fill="none" d="M0 0h256v256H0z"/><path d="M248 208a16 16 0 01-32 0c0-16 16-40 16-40s16 24 16 40zM116.52 16l-95.83 95.83a16 16 0 000 22.63l84.85 84.85a16 16 0 0022.63 0L208 139.48l24-8zm21.62 114.14a20 20 0 110-28.28 20 20 0 010 28.28z" opacity=".2"/><path d="M248 208a16 16 0 01-32 0c0-16 16-40 16-40s16 24 16 40zM208 139.48l-79.83 79.83a16 16 0 01-22.63 0l-84.85-84.85a16 16 0 010-22.63L116.52 16 232 131.48z" fill="none" stroke="currentColor" stroke-linecap="round" stroke-linejoin="round" stroke-width="16"/><circle cx="124" cy="116" r="20" fill="none" stroke="currentColor" stroke-linecap="round" stroke-linejoin="round" stroke-width="16"/><path fill="none" stroke="currentColor" stroke-linecap="round" stroke-linejoin="round" stroke-width="16" d="M109.86 101.86L39.99 32"/></svg>