<svg xmlns="http://www.w3.org/2000/svg" viewBox="0 0 256 256" width="20" height="20"><path fill="none" d="M0 0h256v256H0z"/><path d="M165.36 123.05C192.36 99.43 224 64.81 224 32c-32.81 0-67.43 31.64-91 58.64a84.39 84.39 0 0132.36 32.41z" opacity=".2"/><path d="M16 216h76a52 52 0 10-52-52c0 36-24 52-24 52z" fill="none" stroke="currentColor" stroke-linecap="round" stroke-linejoin="round" stroke-width="16"/><path d="M112.41 116.16C131.6 90.29 179.46 32 224 32c0 44.54-58.29 92.4-84.16 111.59M133 90.64a84.39 84.39 0 0132.41 32.41" fill="none" stroke="currentColor" stroke-linecap="round" stroke-linejoin="round" stroke-width="16"/></svg>