<svg xmlns="http://www.w3.org/2000/svg" viewBox="0 0 256 256" width="20" height="20"><path fill="none" d="M0 0h256v256H0z"/><path d="M225 31a24 24 0 00-34 0l-59 69-16.69-16.69a16 16 0 00-22.62 0L72 104l80 80 20.69-20.69a16 16 0 000-22.62L156 124l69-59a24 24 0 000-34z" opacity=".2"/><path fill="none" stroke="currentColor" stroke-linecap="round" stroke-linejoin="round" stroke-width="16" d="M72 104l80 80M44 188l28-28M68 212l28-28M156 124l16.69 16.69a16 16 0 010 22.62L96 240l-80-80 76.69-76.69a16 16 0 0122.62 0L132 100l59-69a24 24 0 0134 34z"/></svg>