<svg xmlns="http://www.w3.org/2000/svg" viewBox="0 0 256 256" width="20" height="20"><path fill="none" d="M0 0h256v256H0z"/><path d="M215.17 127.43L184 72H72l-31.17 55.43a8 8 0 00.73 8.29L128 248l86.43-112.28a8 8 0 00.74-8.29zM128 152a20 20 0 1120-20 20 20 0 01-20 20z" opacity=".2"/><circle cx="128" cy="132" r="20" fill="none" stroke="currentColor" stroke-linecap="round" stroke-linejoin="round" stroke-width="16"/><path fill="none" stroke="currentColor" stroke-linecap="round" stroke-linejoin="round" stroke-width="16" d="M128 152v96M72 72l-31.17 55.43a8 8 0 00.73 8.29L128 248l86.43-112.28a8 8 0 00.73-8.29L184 72zM184 72V32a8 8 0 00-8-8H80a8 8 0 00-8 8v40"/></svg>