<svg xmlns="http://www.w3.org/2000/svg" viewBox="0 0 256 256" width="20" height="20"><path fill="none" d="M0 0h256v256H0z"/><path d="M221.66 90.34a8 8 0 000-11.31L177 34.34a8 8 0 00-11.31 0L136 64l56 56z" opacity=".2"/><path fill="none" stroke="currentColor" stroke-linecap="round" stroke-linejoin="round" stroke-width="16" d="M136 64l56 56M95.49 215.49l-54.98-54.98M48 40l160 176M154.67 157.33l-56.33 56.33a8 8 0 01-5.65 2.34H48a8 8 0 01-8-8v-44.69a8 8 0 012.34-5.65l59-59M124 76l41.67-41.67a8 8 0 0111.31 0L221.66 79a8 8 0 010 11.31l-44.34 44.34M128 128l-60 60M164 92l-13.35 13.35"/></svg>