<svg xmlns="http://www.w3.org/2000/svg" viewBox="0 0 256 256" width="20" height="20"><path fill="none" d="M0 0h256v256H0z"/><path d="M224 88h-66.87l-21.52-66.32a7.94 7.94 0 00-15.22 0L98.87 88H32a8 8 0 00-4.71 14.47l54.21 39-20.77 64a8 8 0 0012.31 8.95L128 174.91l54.94 39.53a8 8 0 0012.31-8.95l-20.77-64 54.21-39A8 8 0 00224 88z" opacity=".2"/><path d="M60.75 205.49a8 8 0 0012.31 8.95l155.63-112A8 8 0 00224 88H32a8 8 0 00-4.71 14.47l155.63 112a8 8 0 0012.31-8.95L135.61 21.68a7.94 7.94 0 00-15.22 0z" fill="none" stroke="currentColor" stroke-linecap="round" stroke-linejoin="round" stroke-width="16"/></svg>