<svg xmlns="http://www.w3.org/2000/svg" viewBox="0 0 256 256" width="20" height="20"><path fill="none" d="M0 0h256v256H0z"/><circle cx="128" cy="40" r="24" opacity=".2"/><path d="M39 102.9C27.31 97.5 31.15 80 44 80h168c12.87 0 16.71 17.5 5 22.9L160 128l22.87 86.93a12 12 0 01-21.75 10.14L128 168l-33.12 57.07a12 12 0 01-21.75-10.14L96 128z" opacity=".2"/><circle cx="128" cy="40" r="24" fill="none" stroke="currentColor" stroke-linecap="round" stroke-linejoin="round" stroke-width="16"/><path d="M39 102.9C27.31 97.5 31.15 80 44 80h168c12.87 0 16.71 17.5 5 22.9L160 128l22.87 86.93a12 12 0 01-21.75 10.14L128 168l-33.12 57.07a12 12 0 01-21.75-10.14L96 128z" fill="none" stroke="currentColor" stroke-linecap="round" stroke-linejoin="round" stroke-width="16"/></svg>