<svg xmlns="http://www.w3.org/2000/svg" viewBox="0 0 256 256" width="20" height="20"><path fill="none" d="M0 0h256v256H0z"/><path d="M128 32a96 96 0 1096 96 96 96 0 00-96-96zm0 152a56 56 0 1156-56 56 56 0 01-56 56z" opacity=".2"/><circle cx="128" cy="128" r="96" fill="none" stroke="currentColor" stroke-linecap="round" stroke-linejoin="round" stroke-width="16"/><circle cx="128" cy="128" r="56" fill="none" stroke="currentColor" stroke-linecap="round" stroke-linejoin="round" stroke-width="16"/><path fill="none" stroke="currentColor" stroke-linecap="round" stroke-linejoin="round" stroke-width="16" d="M128 72V32M88.4 88.4L60.12 60.12M72 128H32M88.4 167.6l-28.28 28.28M128 184v40M167.6 167.6l28.28 28.28M184 128h40M167.6 88.4l28.28-28.28"/></svg>