<svg xmlns="http://www.w3.org/2000/svg" viewBox="0 0 256 256" width="20" height="20"><path fill="none" d="M0 0h256v256H0z"/><path d="M184 152l-14.61 65.74a8 8 0 01-7.81 6.26H94.42a8 8 0 01-7.81-6.26L72 152z" opacity=".2"/><path d="M144.28 111.72c-25.08-41.81 8.36-83.61 79.43-79.43 4.18 71.07-37.62 104.51-79.43 79.43zM98 114c18.24-30.41-6.08-60.81-57.77-57.77C37.17 107.9 67.57 132.22 98 114zM56 152h144M184 152l-14.61 65.74a8 8 0 01-7.81 6.26H94.42a8 8 0 01-7.81-6.26L72 152M144.28 111.72L104 152M97.98 113.98L120 136" fill="none" stroke="currentColor" stroke-linecap="round" stroke-linejoin="round" stroke-width="16"/></svg>