<svg xmlns="http://www.w3.org/2000/svg" viewBox="0 0 256 256" width="20" height="20"><path fill="none" d="M0 0h256v256H0z"/><path d="M216 72H32v120a8 8 0 008 8h176a8 8 0 008-8V80a8 8 0 00-8-8zm-56 96a32 32 0 1132-32 32 32 0 01-32 32z" opacity=".2"/><path d="M32 72h184a8 8 0 018 8v112a8 8 0 01-8 8H40a8 8 0 01-8-8V72h0zM32 72l160-48" fill="none" stroke="currentColor" stroke-linecap="round" stroke-linejoin="round" stroke-width="16"/><circle cx="160" cy="136" r="32" fill="none" stroke="currentColor" stroke-linecap="round" stroke-linejoin="round" stroke-width="16"/><path fill="none" stroke="currentColor" stroke-linecap="round" stroke-linejoin="round" stroke-width="16" d="M64 104h32M64 136h32M64 168h32"/></svg>