<svg xmlns="http://www.w3.org/2000/svg" viewBox="0 0 256 256" width="20" height="20"><path fill="none" d="M0 0h256v256H0z"/><path d="M59.41 89.88C77.72 78.75 101.72 72 128 72s50.28 6.75 68.59 17.88a24 24 0 1131.62 34.79A51.6 51.6 0 01232 144c0 39.76-46.56 72-104 72S24 183.76 24 144a51.6 51.6 0 013.79-19.33 24 24 0 1131.62-34.79z" opacity=".2"/><circle cx="184" cy="32" r="16" fill="none" stroke="currentColor" stroke-linecap="round" stroke-linejoin="round" stroke-width="16"/><path fill="none" stroke="currentColor" stroke-linecap="round" stroke-linejoin="round" stroke-width="16" d="M128 72l8-48 32.29 4.97M59.41 89.88C77.72 78.75 101.72 72 128 72s50.28 6.75 68.59 17.88h0a24 24 0 1131.62 34.79h0A51.6 51.6 0 01232 144c0 39.76-46.56 72-104 72S24 183.76 24 144a51.6 51.6 0 013.79-19.33h0a24 24 0 1131.62-34.79z"/><circle cx="88" cy="128" r="16"/><circle cx="168" cy="128" r="16"/><path d="M160 176a68 68 0 01-64 0" fill="none" stroke="currentColor" stroke-linecap="round" stroke-linejoin="round" stroke-width="16"/></svg>