<svg xmlns="http://www.w3.org/2000/svg" viewBox="0 0 256 256" width="20" height="20"><path fill="none" d="M0 0h256v256H0z"/><g opacity=".2"><path d="M64 168v48a8 8 0 008 8h64a8 8 0 008-8v-56H72a8 8 0 00-8 8zM216 96h-72v64h72a8 8 0 008-8v-48a8 8 0 00-8-8zM136 32H72a8 8 0 00-8 8v48a8 8 0 008 8h72V40a8 8 0 00-8-8z"/></g><path d="M144 40v176a8 8 0 01-8 8H72a8 8 0 01-8-8v-48a8 8 0 018-8h144a8 8 0 008-8v-48a8 8 0 00-8-8H72a8 8 0 01-8-8V40a8 8 0 018-8h64a8 8 0 018 8z" fill="none" stroke="currentColor" stroke-linecap="round" stroke-linejoin="round" stroke-width="16"/></svg>