<svg xmlns="http://www.w3.org/2000/svg" viewBox="0 0 256 256" width="20" height="20"><path fill="none" d="M0 0h256v256H0z"/><path d="M200 56H56a24 24 0 00-24 24v112a24 24 0 0024 24h144a24 24 0 0024-24V80a24 24 0 00-24-24zm-36 128H92a20 20 0 010-40h72a20 20 0 010 40z" opacity=".2"/><rect x="32" y="56" width="192" height="160" rx="24" fill="none" stroke="currentColor" stroke-linecap="round" stroke-linejoin="round" stroke-width="16"/><path fill="none" stroke="currentColor" stroke-linecap="round" stroke-linejoin="round" stroke-width="16" d="M128 56V16"/><circle cx="84" cy="108" r="12"/><circle cx="172" cy="108" r="12"/><rect x="72" y="144" width="112" height="40" rx="20" fill="none" stroke="currentColor" stroke-linecap="round" stroke-linejoin="round" stroke-width="16"/><path fill="none" stroke="currentColor" stroke-linecap="round" stroke-linejoin="round" stroke-width="16" d="M148 144v40M108 144v40"/></svg>