<svg xmlns="http://www.w3.org/2000/svg" viewBox="0 0 256 256" width="20" height="20"><path fill="none" d="M0 0h256v256H0z"/><path d="M74.34 132.94a8 8 0 010-11.32l8-8a8 8 0 014.83-1.62H104a8 8 0 008-8V87.31a8 8 0 012.34-5.65l53.23-53.23a42.42 42.42 0 0160 0 42.42 42.42 0 010 60l-53.23 53.23a8 8 0 01-5.65 2.34H152a8 8 0 00-8 8v16.83a8 8 0 01-1.62 4.83l-8 8a8 8 0 01-11.32 0z" opacity=".2"/><path fill="none" stroke="currentColor" stroke-linecap="round" stroke-linejoin="round" stroke-width="16" d="M200 56l-56 56M74.34 132.94a8 8 0 010-11.32l8-8a8 8 0 014.83-1.62H104a8 8 0 008-8V87.31a8 8 0 012.34-5.65l53.23-53.23a42.42 42.42 0 0160 0h0a42.42 42.42 0 010 60l-53.23 53.23a8 8 0 01-5.65 2.34H152a8 8 0 00-8 8v16.83a8 8 0 01-1.62 4.83l-8 8a8 8 0 01-11.32 0zM98.7 157.3L16 240"/></svg>