<svg xmlns="http://www.w3.org/2000/svg" viewBox="0 0 256 256" width="20" height="20"><path fill="none" d="M0 0h256v256H0z"/><path d="M200 40H56a16 16 0 00-16 16v144a16 16 0 0016 16h144a16 16 0 0016-16V56a16 16 0 00-16-16z" opacity=".2"/><path d="M88 40L46.63 81.37a22.62 22.62 0 000 32h0a22.62 22.62 0 0032 0l66.74-66.74a22.62 22.62 0 0132 0h0a22.62 22.62 0 010 32l-98.74 98.74a22.62 22.62 0 000 32h0a22.62 22.62 0 0032 0l66.74-66.74a22.62 22.62 0 0132 0h0a22.62 22.62 0 010 32L200 184a22.62 22.62 0 000 32h0" fill="none" stroke="currentColor" stroke-linecap="round" stroke-linejoin="round" stroke-width="16"/></svg>