<svg xmlns="http://www.w3.org/2000/svg" viewBox="0 0 256 256" width="20" height="20"><path fill="none" d="M0 0h256v256H0z"/><rect x="40" y="88" width="128" height="128" rx="8" opacity=".2"/><path d="M56 216h-8a8 8 0 01-8-8v-8M112 88H88M112 216H96M168 168v-24M40 160v-16M152 216h8a8 8 0 008-8v-8M152 88h8a8 8 0 018 8v8M56 88h-8a8 8 0 00-8 8v8" fill="none" stroke="currentColor" stroke-linecap="round" stroke-linejoin="round" stroke-width="16"/><path d="M168 168h40a8 8 0 008-8V48a8 8 0 00-8-8H96a8 8 0 00-8 8v40" fill="none" stroke="currentColor" stroke-linecap="round" stroke-linejoin="round" stroke-width="16"/></svg>