<svg xmlns="http://www.w3.org/2000/svg" viewBox="0 0 256 256" width="20" height="20"><path fill="none" d="M0 0h256v256H0z"/><path d="M164 129.66l35.78 21.53a5.46 5.46 0 008.19-5.86l-9.73-40.19 31.84-26.88a5.38 5.38 0 00-3.08-9.48l-41.79-3.31-16.1-38.14a5.51 5.51 0 00-10.12 0l-16.1 38.14-41.79 3.31a5.38 5.38 0 00-3.13 9.48l31.84 26.88-9.81 40.19a5.46 5.46 0 008.19 5.86z" opacity=".2"/><path d="M164 129.66l35.78 21.53a5.46 5.46 0 008.19-5.86l-9.73-40.19 31.84-26.88a5.38 5.38 0 00-3.08-9.48l-41.79-3.31-16.1-38.14a5.51 5.51 0 00-10.12 0l-16.1 38.14-41.79 3.31a5.38 5.38 0 00-3.13 9.48l31.84 26.88-9.81 40.19a5.46 5.46 0 008.19 5.86zM82.45 117.55L24 176M93.26 178.74L40 232M166.28 177.72L112 232" fill="none" stroke="currentColor" stroke-linecap="round" stroke-linejoin="round" stroke-width="16"/></svg>