<svg xmlns="http://www.w3.org/2000/svg" viewBox="0 0 256 256" width="20" height="20"><path fill="none" d="M0 0h256v256H0z"/><path d="M32 184h23.06a64 64 0 0052.08-26.8l41.72-58.4A64 64 0 01200.94 72H232v112h-31.06a64 64 0 01-52.08-26.8l-41.72-58.4A64 64 0 0055.06 72H32z" opacity=".2"/><path d="M32 72h23.06a64 64 0 0152.08 26.8l41.72 58.4a64 64 0 0052.08 26.8H232M208 48l24 24-24 24" fill="none" stroke="currentColor" stroke-linecap="round" stroke-linejoin="round" stroke-width="16"/><path fill="none" stroke="currentColor" stroke-linecap="round" stroke-linejoin="round" stroke-width="16" d="M208 160l24 24-24 24M147.66 100.47l1.2-1.67A64 64 0 01200.94 72H232M32 184h23.06a64 64 0 0052.08-26.8l1.2-1.67"/></svg>