<svg xmlns="http://www.w3.org/2000/svg" viewBox="0 0 256 256" width="20" height="20"><path fill="none" d="M0 0h256v256H0z"/><path d="M128 24c-53 0-96 41.19-96 92 0 34.05 19.31 63.78 48 79.69V216a8 8 0 008 8h80a8 8 0 008-8v-20.31c28.69-15.91 48-45.64 48-79.69 0-50.81-43-92-96-92zM92 152a20 20 0 1120-20 20 20 0 01-20 20zm72 0a20 20 0 1120-20 20 20 0 01-20 20z" opacity=".2"/><circle cx="92" cy="132" r="20" fill="none" stroke="currentColor" stroke-linecap="round" stroke-linejoin="round" stroke-width="16"/><circle cx="164" cy="132" r="20" fill="none" stroke="currentColor" stroke-linecap="round" stroke-linejoin="round" stroke-width="16"/><path fill="none" stroke="currentColor" stroke-linecap="round" stroke-linejoin="round" stroke-width="16" d="M112 224v-32M144 224v-32M176 216a8 8 0 01-8 8H88a8 8 0 01-8-8v-20.31C51.31 179.78 32 150.05 32 116c0-50.81 43-92 96-92s96 41.19 96 92c0 34.05-19.31 63.78-48 79.69z"/></svg>