<svg xmlns="http://www.w3.org/2000/svg" viewBox="0 0 256 256" width="20" height="20"><path fill="none" d="M0 0h256v256H0z"/><path d="M200 145.37V112a48 48 0 00-37.71 77.71l33-33a16 16 0 004.71-11.34zM96 32a8 8 0 018-8h88a8 8 0 018 8v24H96z" opacity=".2"/><path d="M200 32v113.37a16 16 0 01-4.69 11.32l-68.4 68.4a50.92 50.92 0 01-72 0h0a50.92 50.92 0 010-72L96 112V32a8 8 0 018-8h88a8 8 0 018 8zM200 56H96M200 112a48 48 0 00-37.71 77.71" fill="none" stroke="currentColor" stroke-linecap="round" stroke-linejoin="round" stroke-width="16"/></svg>