<svg xmlns="http://www.w3.org/2000/svg" viewBox="0 0 256 256" width="20" height="20"><path fill="none" d="M0 0h256v256H0z"/><path d="M29.89 186.59a104.06 104.06 0 01-5.89-35.4C24.44 94 71.73 47.49 129 48a104.09 104.09 0 0197.1 138.63 8 8 0 01-7.57 5.37H37.46a8.05 8.05 0 01-7.57-5.41z" opacity=".2"/><path fill="none" stroke="currentColor" stroke-linecap="round" stroke-linejoin="round" stroke-width="16" d="M120 160l96-96M56.44 160a73 73 0 01-.44-8 72.06 72.06 0 0195-68.25"/><path d="M220.62 104.64a104.38 104.38 0 015.48 82 8 8 0 01-7.57 5.37H37.46a8.05 8.05 0 01-7.57-5.41A104.06 104.06 0 0124 151.19C24.44 94 71.73 47.49 129 48a103.68 103.68 0 0146.4 11.38" fill="none" stroke="currentColor" stroke-linecap="round" stroke-linejoin="round" stroke-width="16"/></svg>