<svg xmlns="http://www.w3.org/2000/svg" viewBox="0 0 256 256" width="20" height="20"><path fill="none" d="M0 0h256v256H0z"/><g opacity=".2"><path d="M78.6 45.67A96 96 0 0032 128v1.61c39.27-29.85 67.64-15.73 96-1.61-2-31.62-3.91-63.25-49.4-82.33zM81.4 212a96 96 0 0094.6-.81c.47-.27.94-.53 1.4-.81C131.91 191.25 130 159.62 128 128c-26.41 17.5-52.82 35-46.6 84zM224 126.39a96 96 0 00-48-81.53l-1.4-.81C180.82 93 154.41 110.5 128 128c28.36 14.12 56.73 28.24 96-1.61z"/></g><circle cx="128" cy="128" r="96" fill="none" stroke="currentColor" stroke-linecap="round" stroke-linejoin="round" stroke-width="16"/><path d="M32 129.61c78.55-59.69 113.45 56.47 192-3.22M177.4 210.33c-91-38.17-7.82-126.49-98.8-164.66M174.6 44.05C187 141.93 69 114.07 81.4 212" fill="none" stroke="currentColor" stroke-linecap="round" stroke-linejoin="round" stroke-width="16"/></svg>