<svg xmlns="http://www.w3.org/2000/svg" viewBox="0 0 256 256" width="20" height="20"><path fill="none" d="M0 0h256v256H0z"/><path d="M136 40a96 96 0 00-96 96 88 88 0 0088 88 80 80 0 0080-80h32A104 104 0 00136 40z" opacity=".2"/><path d="M136 136a8 8 0 018 8 16 16 0 01-16 16 24 24 0 01-24-24 32 32 0 0132-32 40 40 0 0140 40 48 48 0 01-48 48 56 56 0 01-56-56 64 64 0 0164-64 72 72 0 0172 72 80 80 0 01-80 80 88 88 0 01-88-88 96 96 0 0196-96 104 104 0 01104 104" fill="none" stroke="currentColor" stroke-linecap="round" stroke-linejoin="round" stroke-width="16"/></svg>