<svg xmlns="http://www.w3.org/2000/svg" viewBox="0 0 256 256" width="20" height="20"><path fill="none" d="M0 0h256v256H0z"/><path d="M152 206.4a88 88 0 010-156.8 88 88 0 100 156.8zM177.46 128L160 98.33l32.59 8.07 21.8-26.4 2.67 34.65L248 128l-30.94 13.35-2.67 34.65-21.8-26.4-32.59 8.07L177.46 128z" opacity=".2"/><path d="M152 206.4a88 88 0 010-156.8 88 88 0 100 156.8zM177.46 128L160 98.33l32.59 8.07 21.8-26.4 2.67 34.65L248 128l-30.94 13.35-2.67 34.65-21.8-26.4-32.59 8.07L177.46 128z" fill="none" stroke="currentColor" stroke-linecap="round" stroke-linejoin="round" stroke-width="16"/></svg>