<svg xmlns="http://www.w3.org/2000/svg" viewBox="0 0 256 256" width="20" height="20"><path fill="none" d="M0 0h256v256H0z"/><path d="M222.4 145.55a128 128 0 00-188.8 0A96.6 96.6 0 0037.46 160h53a8 8 0 017.49 5.2l21.86 58.45a96.681 96.681 0 0016.35.01l21.9-58.47a8 8 0 017.5-5.19h53a96.6 96.6 0 003.84-14.45z" opacity=".2"/><circle cx="128" cy="140" r="12"/><circle cx="128" cy="128" r="96" fill="none" stroke="currentColor" stroke-linecap="round" stroke-linejoin="round" stroke-width="16"/><path d="M33.6 145.55a128 128 0 01188.8 0M119.8 223.65L97.94 165.2a8 8 0 00-7.49-5.2h-53M136.15 223.66l21.9-58.47a8 8 0 017.5-5.19h53" fill="none" stroke="currentColor" stroke-linecap="round" stroke-linejoin="round" stroke-width="16"/></svg>