<svg xmlns="http://www.w3.org/2000/svg" viewBox="0 0 256 256" width="20" height="20"><path fill="none" d="M0 0h256v256H0z"/><path d="M54 40h148a8 8 0 017.69 5.8L224 96H32l14.34-50.2A8 8 0 0154 40zM96 96v16a32 32 0 01-64 0V96zM224 96v16a32 32 0 01-64 0V96z" opacity=".2"/><path fill="none" stroke="currentColor" stroke-linecap="round" stroke-linejoin="round" stroke-width="16" d="M48 139.59V216h160v-76.41M54 40h148a8 8 0 017.69 5.8L224 96H32l14.34-50.2A8 8 0 0154 40z"/><path d="M96 96v16a32 32 0 01-64 0V96M160 96v16a32 32 0 01-64 0V96M224 96v16a32 32 0 01-64 0V96" fill="none" stroke="currentColor" stroke-linecap="round" stroke-linejoin="round" stroke-width="16"/></svg>