<svg xmlns="http://www.w3.org/2000/svg" viewBox="0 0 256 256" width="20" height="20"><path fill="none" d="M0 0h256v256H0z"/><path d="M110.84 186.25a35.71 35.71 0 01-41.34 29.2 36 36 0 01-28.95-41.71l25-143.13a8 8 0 019.19-6.49l54.67 9.73a8 8 0 016.44 9.26z" opacity=".2"/><circle cx="76" cy="180" r="12"/><path d="M110.84 186.25a35.71 35.71 0 01-41.34 29.2h0a36 36 0 01-28.95-41.71l25-143.13a8 8 0 019.19-6.49l54.67 9.73a8 8 0 016.44 9.26z" fill="none" stroke="currentColor" stroke-linecap="round" stroke-linejoin="round" stroke-width="16"/><path d="M232 156.19V208a8 8 0 01-8 8H76" fill="none" stroke="currentColor" stroke-linecap="round" stroke-linejoin="round" stroke-width="16"/><path d="M121.42 125.76l80.79-29.28a8 8 0 0110.22 4.75l19.09 52.21a7.93 7.93 0 01-4.77 10.17L88.16 213.84A35.07 35.07 0 0176 216" fill="none" stroke="currentColor" stroke-linecap="round" stroke-linejoin="round" stroke-width="16"/></svg>