<svg xmlns="http://www.w3.org/2000/svg" viewBox="0 0 256 256" width="20" height="20"><path fill="none" d="M0 0h256v256H0z"/><path d="M141.66 189.64l-75.3-75.3a8 8 0 00-11.32 0L42.34 127a8 8 0 000 11.32L68 164l-33.66 33.66a8 8 0 000 11.31L47 221.66a8 8 0 0011.32 0L92 188l25.64 25.65a8 8 0 0011.32 0l12.7-12.7a8 8 0 000-11.31z" opacity=".2"/><path d="M68 164l-33.66 33.66a8 8 0 000 11.31L47 221.66a8 8 0 0011.32 0L92 188" fill="none" stroke="currentColor" stroke-linecap="round" stroke-linejoin="round" stroke-width="16"/><rect x="75.02" y="102.75" width="33.96" height="122.49" rx="8.01" transform="rotate(-45 92.002 164.002)" fill="none" stroke="currentColor" stroke-linecap="round" stroke-linejoin="round" stroke-width="16"/><path fill="none" stroke="currentColor" stroke-linecap="round" stroke-linejoin="round" stroke-width="16" d="M160 96l-56 56M82.44 130.43L152 40h64v64l-90.43 69.56"/></svg>