<svg xmlns="http://www.w3.org/2000/svg" viewBox="0 0 256 256" width="20" height="20"><path fill="none" d="M0 0h256v256H0z"/><path d="M200 64a16 16 0 0116 16v32h-32V80a16 16 0 0116-16zM56 64a16 16 0 0116 16v32H40V80a16 16 0 0116-16zM72 216h40v-40a16 16 0 0116-16 16 16 0 0116 16v40h40v-80l-56-32-56 32z" opacity=".2"/><path d="M200 64h0a16 16 0 0116 16v136h0-32 0V80a16 16 0 0116-16zM184 112h32M56 64h0a16 16 0 0116 16v136h0-32 0V80a16 16 0 0116-16zM40 112h32M56 64V32M200 64V32M184 136l-56-32-56 32M72 216h40v-40a16 16 0 0116-16h0a16 16 0 0116 16v40h40M128 104V72" fill="none" stroke="currentColor" stroke-linecap="round" stroke-linejoin="round" stroke-width="16"/></svg>