<svg xmlns="http://www.w3.org/2000/svg" viewBox="0 0 256 256" width="20" height="20"><path fill="none" d="M0 0h256v256H0z"/><path d="M192 120h28.34a8.44 8.44 0 007.5-4.42l19.27-36.81a7.81 7.81 0 00-3.33-10.52L192 40zM64 120H35.66a8.44 8.44 0 01-7.5-4.42L8.89 78.77a7.81 7.81 0 013.33-10.52L64 40z" opacity=".2"/><path d="M192 120h28.34a8.44 8.44 0 007.5-4.42l19.27-36.81a7.81 7.81 0 00-3.33-10.52L192 40M64 120H35.66a8.44 8.44 0 01-7.5-4.42L8.89 78.77a7.81 7.81 0 013.33-10.52L64 40M160 40a32 32 0 01-64 0H64v168a8 8 0 008 8h112a8 8 0 008-8V40z" fill="none" stroke="currentColor" stroke-linecap="round" stroke-linejoin="round" stroke-width="16"/></svg>