<svg xmlns="http://www.w3.org/2000/svg" viewBox="0 0 256 256" width="20" height="20"><path fill="none" d="M0 0h256v256H0z"/><path d="M163.58 192.51a88.21 88.21 0 01-71.14 0l-4.34 30.36A8 8 0 0096 232h64a8 8 0 007.92-9.13zM64 112V40a8 8 0 018-8h112a8 8 0 018 8v72z" opacity=".2"/><path d="M64 112V40a8 8 0 018-8h112a8 8 0 018 8v72M96 64h16M216 112a88 88 0 01-176 0z" fill="none" stroke="currentColor" stroke-linecap="round" stroke-linejoin="round" stroke-width="16"/><path d="M92.42 192.51l-4.34 30.36A8 8 0 0096 232h64a8 8 0 007.92-9.13l-4.34-30.36" fill="none" stroke="currentColor" stroke-linecap="round" stroke-linejoin="round" stroke-width="16"/></svg>