<svg xmlns="http://www.w3.org/2000/svg" viewBox="0 0 256 256" width="20" height="20"><path fill="none" d="M0 0h256v256H0z"/><path d="M184 32H72a8 8 0 00-8 8v176a8 8 0 008 8h112a8 8 0 008-8V40a8 8 0 00-8-8zm-56 160a24 24 0 1124-24 24 24 0 01-24 24zm0-80a24 24 0 1124-24 24 24 0 01-24 24z" opacity=".2"/><rect x="64" y="32" width="128" height="192" rx="8" fill="none" stroke="currentColor" stroke-linecap="round" stroke-linejoin="round" stroke-width="16"/><circle cx="128" cy="88" r="24" fill="none" stroke="currentColor" stroke-linecap="round" stroke-linejoin="round" stroke-width="16"/><circle cx="128" cy="168" r="24" fill="none" stroke="currentColor" stroke-linecap="round" stroke-linejoin="round" stroke-width="16"/><path fill="none" stroke="currentColor" stroke-linecap="round" stroke-linejoin="round" stroke-width="16" d="M192 72h24M192 152h24M40 72h24M40 152h24"/></svg>