<svg xmlns="http://www.w3.org/2000/svg" viewBox="0 0 256 256" width="20" height="20"><path fill="none" d="M0 0h256v256H0z"/><path d="M144 144h-32v-32H24v80a8 8 0 008 8h192a8 8 0 008-8v-80h-88z" opacity=".2"/><path d="M72 48h112a48 48 0 0148 48v96a8 8 0 01-8 8H32a8 8 0 01-8-8V96a48 48 0 0148-48zM24 112h88M144 112h88" fill="none" stroke="currentColor" stroke-linecap="round" stroke-linejoin="round" stroke-width="16"/><path fill="none" stroke="currentColor" stroke-linecap="round" stroke-linejoin="round" stroke-width="16" d="M112 96h32v48h-32zM72 48v152M184 48v152"/></svg>