<svg xmlns="http://www.w3.org/2000/svg" viewBox="0 0 256 256" width="20" height="20"><path fill="none" d="M0 0h256v256H0z"/><path d="M188.92 40a59.29 59.29 0 00-43.08 18.75A65.47 65.47 0 00128 104l104-45.25A59.28 59.28 0 00188.92 40z" opacity=".2"/><path d="M176.56 98.18a64.2 64.2 0 00-48.56 6.34L221.81 176a63 63 0 00-6.39-48.22 63.73 63.73 0 00-38.86-29.6zM110.16 58.75a58.87 58.87 0 00-86.16 0L128 104a65.47 65.47 0 00-17.84-45.25z" opacity=".2"/><path d="M79.44 98.18a63.73 63.73 0 00-38.86 29.6A63 63 0 0034.19 176L128 104.52a64.2 64.2 0 00-48.56-6.34z" opacity=".2"/><path d="M128 104a65.47 65.47 0 0117.84-45.25 58.87 58.87 0 0186.16 0z" fill="none" stroke="currentColor" stroke-linecap="round" stroke-linejoin="round" stroke-width="16"/><path d="M128 104.52a64.26 64.26 0 0187.42 23.26 63 63 0 016.39 48.22zM128 104a65.47 65.47 0 00-17.84-45.25 58.87 58.87 0 00-86.16 0z" fill="none" stroke="currentColor" stroke-linecap="round" stroke-linejoin="round" stroke-width="16"/><path d="M128 104.52a64.26 64.26 0 00-87.42 23.26A63 63 0 0034.19 176zM128 104.52V224" fill="none" stroke="currentColor" stroke-linecap="round" stroke-linejoin="round" stroke-width="16"/></svg>