<svg xmlns="http://www.w3.org/2000/svg" viewBox="0 0 256 256" width="20" height="20"><path fill="none" d="M0 0h256v256H0z"/><path d="M184 120v24H24v40a8 8 0 008 8h24a24 24 0 0148 0h64a24 24 0 0148 0h24a8 8 0 008-8v-64z" opacity=".2"/><path d="M184 80h42.58a8 8 0 017.42 5l14 35M24 144h160" fill="none" stroke="currentColor" stroke-linecap="round" stroke-linejoin="round" stroke-width="16"/><circle cx="192" cy="192" r="24" fill="none" stroke="currentColor" stroke-linecap="round" stroke-linejoin="round" stroke-width="16"/><circle cx="80" cy="192" r="24" fill="none" stroke="currentColor" stroke-linecap="round" stroke-linejoin="round" stroke-width="16"/><path fill="none" stroke="currentColor" stroke-linecap="round" stroke-linejoin="round" stroke-width="16" d="M168 192h-64M184 120h64v64a8 8 0 01-8 8h-24M56 192H32a8 8 0 01-8-8V72a8 8 0 018-8h152v105.37"/></svg>