<svg xmlns="http://www.w3.org/2000/svg" viewBox="0 0 256 256" width="20" height="20"><path fill="none" d="M0 0h256v256H0z"/><path d="M120 72H16a8 8 0 00-8 8v104a24 24 0 0148 0 24 24 0 0148 0h16zM216 104v-8a48 48 0 00-48-48h-8a8 8 0 00-8 8v128h48a24 24 0 0148 0v-48a32 32 0 00-32-32z" opacity=".2"/><circle cx="224" cy="184" r="24" fill="none" stroke="currentColor" stroke-linecap="round" stroke-linejoin="round" stroke-width="16"/><circle cx="32" cy="184" r="24" fill="none" stroke="currentColor" stroke-linecap="round" stroke-linejoin="round" stroke-width="16"/><circle cx="80" cy="184" r="24" fill="none" stroke="currentColor" stroke-linecap="round" stroke-linejoin="round" stroke-width="16"/><path fill="none" stroke="currentColor" stroke-linecap="round" stroke-linejoin="round" stroke-width="16" d="M200 184h-96M152 184V56a8 8 0 018-8h8a48 48 0 0148 48v8h0a32 32 0 0132 32v48M120 184V72H16a8 8 0 00-8 8v104"/></svg>