<svg xmlns="http://www.w3.org/2000/svg" viewBox="0 0 256 256" width="20" height="20"><path fill="none" d="M0 0h256v256H0z"/><path d="M88 176S32.85 144 40.78 56c0 0 39.66 40 87.22 48V88c0-22 18-40.27 40-40a40.74 40.74 0 0136.67 24H240l-32 32c-4.26 66.84-60.08 120-128 120-32 0-40-12-40-12s32-12 48-36z" opacity=".2"/><path d="M88 176S32.85 144 40.78 56c0 0 39.66 40 87.22 48V88c0-22 18-40.27 40-40a40.74 40.74 0 0136.67 24H240l-32 32c-4.26 66.84-60.08 120-128 120-32 0-40-12-40-12s32-12 48-36z" fill="none" stroke="currentColor" stroke-linecap="round" stroke-linejoin="round" stroke-width="16"/></svg>