<svg xmlns="http://www.w3.org/2000/svg" viewBox="0 0 256 256" width="20" height="20"><path fill="none" d="M0 0h256v256H0z"/><path d="M165.1 200H120l-48 40v-40H48a8 8 0 01-8-8V48a8 8 0 018-8h160a8 8 0 018 8v108.25a8 8 0 01-2.88 6.15l-42.89 35.75a8.05 8.05 0 01-5.13 1.85z" opacity=".2"/><path d="M165.1 200H120l-48 40v-40H48a8 8 0 01-8-8V48a8 8 0 018-8h160a8 8 0 018 8v108.25a8 8 0 01-2.88 6.15l-42.89 35.75a8.05 8.05 0 01-5.13 1.85zM168 88v48M120 88v48" fill="none" stroke="currentColor" stroke-linecap="round" stroke-linejoin="round" stroke-width="16"/></svg>