<svg xmlns="http://www.w3.org/2000/svg" viewBox="0 0 256 256" width="20" height="20"><path fill="none" d="M0 0h256v256H0z"/><path d="M88 136c0-72 40-104 40-104a104.21 104.21 0 00-104 95.29 8 8 0 008 8.71zM128 32s40 32 40 104h56a8 8 0 008-8.71A104.21 104.21 0 00128 32z" opacity=".2"/><path d="M176 200a24 24 0 01-48 0v-64" fill="none" stroke="currentColor" stroke-linecap="round" stroke-linejoin="round" stroke-width="16"/><path d="M32 136a8 8 0 01-8-8.71 104.37 104.37 0 01207.94 0 8 8 0 01-8 8.71z" fill="none" stroke="currentColor" stroke-linecap="round" stroke-linejoin="round" stroke-width="16"/><path d="M88 136c0-72 40-104 40-104s40 32 40 104" fill="none" stroke="currentColor" stroke-linecap="round" stroke-linejoin="round" stroke-width="16"/></svg>