<svg xmlns="http://www.w3.org/2000/svg" viewBox="0 0 256 256" width="20" height="20"><path fill="none" d="M0 0h256v256H0z"/><path d="M216 48H40a8 8 0 00-8 8v144a8 8 0 008 8h20.1a72 72 0 0167.9-48 40 40 0 1140-40 40 40 0 01-40 40 72 72 0 0167.9 48H216a8 8 0 008-8V56a8 8 0 00-8-8z" opacity=".2"/><circle cx="128" cy="120" r="40" fill="none" stroke="currentColor" stroke-linecap="round" stroke-linejoin="round" stroke-width="16"/><rect x="32" y="48" width="192" height="160" rx="8" fill="none" stroke="currentColor" stroke-linecap="round" stroke-linejoin="round" stroke-width="16"/><path d="M60.1 208a72 72 0 01135.8 0" fill="none" stroke="currentColor" stroke-linecap="round" stroke-linejoin="round" stroke-width="16"/></svg>