<svg xmlns="http://www.w3.org/2000/svg" viewBox="0 0 256 256" width="20" height="20"><path fill="none" d="M0 0h256v256H0z"/><path d="M128 32a96 96 0 00-64.2 167.38A72 72 0 01128 160a40 40 0 1140-40 40 40 0 01-40 40 72 72 0 0164.2 39.37A96 96 0 00128 32z" opacity=".2"/><circle cx="128" cy="120" r="40" fill="none" stroke="currentColor" stroke-linecap="round" stroke-linejoin="round" stroke-width="16"/><path d="M104 35a95.51 95.51 0 0148 0M35.49 102.3a95.54 95.54 0 0124-41.56M152 221a95.51 95.51 0 01-48 0M196.51 60.73a95.54 95.54 0 0124 41.58M220.52 153.7a96 96 0 01-28.32 45.67 72 72 0 00-128.4 0 96 96 0 01-28.32-45.67" fill="none" stroke="currentColor" stroke-linecap="round" stroke-linejoin="round" stroke-width="16"/></svg>