<svg xmlns="http://www.w3.org/2000/svg" viewBox="0 0 256 256" width="20" height="20"><path fill="none" d="M0 0h256v256H0z"/><path d="M216 48H40a8 8 0 00-8 8v136a8 8 0 008 8h176a8 8 0 008-8V56a8 8 0 00-8-8zm-64 120a40 40 0 1140-40 40 40 0 01-40 40z" opacity=".2"/><path fill="none" stroke="currentColor" stroke-linecap="round" stroke-linejoin="round" stroke-width="16" d="M192 200v24M64 200v24"/><rect x="32" y="48" width="192" height="152" rx="8" fill="none" stroke="currentColor" stroke-linecap="round" stroke-linejoin="round" stroke-width="16"/><circle cx="152" cy="128" r="16"/><path fill="none" stroke="currentColor" stroke-linecap="round" stroke-linejoin="round" stroke-width="16" d="M152 128h72"/><circle cx="152" cy="128" r="40" fill="none" stroke="currentColor" stroke-linecap="round" stroke-linejoin="round" stroke-width="16"/></svg>