<svg xmlns="http://www.w3.org/2000/svg" viewBox="0 0 256 256" width="20" height="20"><path fill="none" d="M0 0h256v256H0z"/><path d="M216 48H40a8 8 0 00-8 8v144a8 8 0 008 8h176a8 8 0 008-8V56a8 8 0 00-8-8zm-88 128c-35.35 0-64-21.49-64-48s28.65-48 64-48 64 21.49 64 48-28.65 48-64 48z" opacity=".2"/><rect x="32" y="48" width="192" height="160" rx="8" fill="none" stroke="currentColor" stroke-linecap="round" stroke-linejoin="round" stroke-width="16"/><ellipse cx="128" cy="128" rx="64" ry="48" fill="none" stroke="currentColor" stroke-linecap="round" stroke-linejoin="round" stroke-width="16"/></svg>