<svg xmlns="http://www.w3.org/2000/svg" viewBox="0 0 256 256" width="20" height="20"><path fill="none" d="M0 0h256v256H0z"/><path d="M160 184a95.56 95.56 0 01-54.53-17L128 128h45.06a96 96 0 00-56.48-95.34A95.55 95.55 0 0080 44.86L105.47 89a96 96 0 00-54.33 96.58A95.75 95.75 0 0080 211.14a96 96 0 00136.25-45.34A95.56 95.56 0 01160 184zM216.26 165.77z" opacity=".2"/><circle cx="128" cy="128" r="96" fill="none" stroke="currentColor" stroke-linecap="round" stroke-linejoin="round" stroke-width="16"/><path fill="none" stroke="currentColor" stroke-linecap="round" stroke-linejoin="round" stroke-width="16" d="M80 44.86L128 128M80 211.14L128 128M224 128h-96M116.58 32.66A96 96 0 01173.06 128M51.14 185.56A96 96 0 01105.47 89M216.28 165.78A96 96 0 01105.47 167"/></svg>