<svg xmlns="http://www.w3.org/2000/svg" viewBox="0 0 256 256" width="20" height="20"><path fill="none" d="M0 0h256v256H0z"/><path fill="none" stroke="currentColor" stroke-linecap="round" stroke-linejoin="round" stroke-width="16" d="M224 56l-48 48M224 104l-48-48"/><path d="M224 104l-58.77-58.77a7.94 7.94 0 00-4.17-2.23A181.82 181.82 0 00128 40 179.58 179.58 0 0019.11 76.48a7.79 7.79 0 00-1.31 11.21l104.05 125.43a8 8 0 0012.3 0l90.24-108.78z" opacity=".2"/><path d="M136 40.17q-4-.16-8-.17A179.58 179.58 0 0019.11 76.48a7.79 7.79 0 00-1.31 11.21l104.05 125.43a8 8 0 0012.3 0L191.49 144" fill="none" stroke="currentColor" stroke-linecap="round" stroke-linejoin="round" stroke-width="16"/></svg>