<svg xmlns="http://www.w3.org/2000/svg" viewBox="0 0 256 256" width="20" height="20"><path fill="none" d="M0 0h256v256H0z"/><path d="M134.15 213.12l104-125.43a7.79 7.79 0 00-1.31-11.21 180.75 180.75 0 00-217.78 0 7.79 7.79 0 00-1.26 11.21l104.05 125.43a8 8 0 0012.3 0z" opacity=".2"/><path fill="none" stroke="currentColor" stroke-linecap="round" stroke-linejoin="round" stroke-width="16" d="M48 40l160 176M188.77 147.28l49.43-59.59a7.79 7.79 0 00-1.31-11.21A179.58 179.58 0 00128 40a182.63 182.63 0 00-33.88 3.16M60 53.21a178.91 178.91 0 00-40.9 23.27 7.79 7.79 0 00-1.3 11.21l104.05 125.43a8 8 0 0012.3 0l34-41"/></svg>