<svg xmlns="http://www.w3.org/2000/svg" viewBox="0 0 256 256" width="20" height="20"><path fill="none" d="M0 0h256v256H0z"/><path opacity=".2" d="M208 216l-80-14.54V144h80v72zM96 195.64L32 184v-40h64v51.64zM208 40l-80 14.55V112h80V40zM96 60.36L32 72v40h64V60.36z"/><path fill="none" stroke="currentColor" stroke-linecap="round" stroke-linejoin="round" stroke-width="16" d="M208 216l-80-14.54h0V144h80v72zM96 195.64L32 184v-40h64v51.64zM208 40l-80 14.55h0V112h80V40zM96 60.36L32 72v40h64V60.36z"/></svg>