<svg xmlns="http://www.w3.org/2000/svg" viewBox="0 0 256 256" width="20" height="20"><path fill="none" d="M0 0h256v256H0z"/><path d="M59.86 100.62C72.49 95.21 95.2 91.4 128 108c35.86 18.16 59.67 11.89 71.42 5.84a55.69 55.69 0 01-16.94 48.65 79.76 79.76 0 01-109 0 55.86 55.86 0 01-15.18-56.56l1.57-5.31z" opacity=".2"/><path fill="none" stroke="currentColor" stroke-linecap="round" stroke-linejoin="round" stroke-width="16" d="M128 184v56M88 240h80M80.09 32h95.82l21.79 73.93a55.84 55.84 0 01-15.22 56.56 79.76 79.76 0 01-109 0 55.86 55.86 0 01-15.18-56.56z"/><path d="M59.86 100.62C72.49 95.21 95.2 91.4 128 108c35.86 18.16 59.67 11.89 71.42 5.84" fill="none" stroke="currentColor" stroke-linecap="round" stroke-linejoin="round" stroke-width="16"/></svg>