<svg xmlns="http://www.w3.org/2000/svg" viewBox="0 0 256 256" width="20" height="20"><path fill="none" d="M0 0h256v256H0z"/><path d="M90.34 69.66A8 8 0 0196 56h24V24a8 8 0 0116 0v32h24a8 8 0 015.66 13.66l-32 32a8 8 0 01-11.32 0zm43.32 84.68a8 8 0 00-11.32 0l-32 32A8 8 0 0096 200h24v32a8 8 0 0016 0v-32h24a8 8 0 005.66-13.66zM232 120h-32V96a8 8 0 00-13.66-5.66l-32 32a8 8 0 000 11.32l32 32A8 8 0 00200 160v-24h32a8 8 0 000-16zm-130.34 2.34l-32-32A8 8 0 0056 96v24H24a8 8 0 000 16h32v24a8 8 0 0013.66 5.66l32-32a8 8 0 000-11.32z"/></svg>