<svg xmlns="http://www.w3.org/2000/svg" viewBox="0 0 256 256" width="20" height="20"><path fill="none" d="M0 0h256v256H0z"/><path d="M216 48v48a8 8 0 01-13.66 5.66L184 83.31l-26.34 26.35a8 8 0 01-11.32-11.32L172.69 72l-18.35-18.34A8 8 0 01160 40h48a8 8 0 018 8zM98.34 146.34L72 172.69l-18.34-18.35A8 8 0 0040 160v48a8 8 0 008 8h48a8 8 0 005.66-13.66L83.31 184l26.35-26.34a8 8 0 00-11.32-11.32zm112.72 6.27a8 8 0 00-8.72 1.73L184 172.69l-26.34-26.35a8 8 0 00-11.32 11.32L172.69 184l-18.35 18.34A8 8 0 00160 216h48a8 8 0 008-8v-48a8 8 0 00-4.94-7.39zM83.31 72l18.35-18.34A8 8 0 0096 40H48a8 8 0 00-8 8v48a8 8 0 0013.66 5.66L72 83.31l26.34 26.35a8 8 0 0011.32-11.32z"/></svg>