<svg xmlns="http://www.w3.org/2000/svg" viewBox="0 0 256 256" width="20" height="20"><path fill="none" d="M0 0h256v256H0z"/><path d="M88.61 59.06a8 8 0 011.73-8.72l32-32a8 8 0 0111.32 0l32 32A8 8 0 01160 64h-24v32a8 8 0 01-16 0V64H96a8 8 0 01-7.39-4.94zM160 192h-24v-32a8 8 0 00-16 0v32H96a8 8 0 00-5.66 13.66l32 32a8 8 0 0011.32 0l32-32A8 8 0 00160 192zm77.66-69.66l-32-32A8 8 0 00192 96v24h-32a8 8 0 000 16h32v24a8 8 0 0013.66 5.66l32-32a8 8 0 000-11.32zM96 136a8 8 0 000-16H64V96a8 8 0 00-13.66-5.66l-32 32a8 8 0 000 11.32l32 32A8 8 0 0064 160v-24z"/></svg>