<svg xmlns="http://www.w3.org/2000/svg" viewBox="0 0 256 256" width="20" height="20"><path fill="none" d="M0 0h256v256H0z"/><circle cx="128" cy="128" r="12"/><path d="M184.57 128l27.71-27.72a40 40 0 10-56.56-56.56L128 71.43l-27.72-27.71a40 40 0 10-56.56 56.56L71.43 128l-27.71 27.72a40 40 0 1056.56 56.56L128 184.57l27.72 27.71a40 40 0 1056.56-56.56zM128 94.06L161.94 128 128 161.94 94.06 128zm39-39A24 24 0 11201 89l-27.72 27.72-33.97-33.97zM89 201a24 24 0 11-34-34l27.72-27.72 33.94 33.94z"/></svg>