<svg xmlns="http://www.w3.org/2000/svg" viewBox="0 0 256 256" width="20" height="20"><path fill="none" d="M0 0h256v256H0z"/><circle cx="128" cy="71.95" r="8"/><circle cx="152" cy="135.95" r="8"/><path d="M192.5 171.42a88.32 88.32 0 0031.5-69.53q0-1.1-.09-2.19a4 4 0 00-4-3.75h-24.16l-23.13 27.75a24 24 0 11-12.28-10.25l25.51-30.62A8 8 0 01192 80h23.14a4 4 0 003.77-5.35C207.27 42 176.86 18 140.74 16.08h-.59a4 4 0 00-4.15 4v29.25a24 24 0 11-16 0v-27a4 4 0 00-4.89-3.91A88.16 88.16 0 0048 102l-22.45 43.14-.22.45a16 16 0 007.51 20.7l.25.12L56 176.9v31a16 16 0 0016 16h40v8a8 8 0 008 8h71.77a8.31 8.31 0 004.06-1 8 8 0 004.11-8z"/></svg>