<svg xmlns="http://www.w3.org/2000/svg" viewBox="0 0 256 256" width="20" height="20"><path fill="none" d="M0 0h256v256H0z"/><path d="M216 73.52C204.53 62.66 185 56 168 56a63.72 63.72 0 00-40 14h0a63.71 63.71 0 00-39.12-14C52 55.5 23.06 86.3 24 123.19a119.62 119.62 0 0037.65 84.12A31.92 31.92 0 0083.6 216h87.7a31.75 31.75 0 0023.26-10c15.85-17 21.44-33.2 21.44-33.2h0c-16.79-11.53-24-30.87-24-52.78 0-18.3 11.68-34.81 24-46.48zM148 12a32.12 32.12 0 00-9.77 8.37" fill="none" stroke="currentColor" stroke-linecap="round" stroke-linejoin="round" stroke-width="24"/></svg>