<svg xmlns="http://www.w3.org/2000/svg" viewBox="0 0 256 256" width="20" height="20"><path fill="none" d="M0 0h256v256H0z"/><path d="M164.47 185.65a8 8 0 01-13.6-4.68c-7.09-53.14-42.41-83.8-59.45-95.76A8 8 0 0190.33 73L129 34.33a8 8 0 0112.2 1.09c12 17 42.62 52.36 95.76 59.45a8 8 0 014.68 13.6z" fill="none" stroke="currentColor" stroke-linecap="round" stroke-linejoin="round" stroke-width="24"/><path d="M128.93 123.35l-82.79 82.79a20 20 0 01-28.28-28.28l84.31-84.32M149.54 46.17l16.32-16.31a20 20 0 0128.28 28.28l-14.79 14.79" fill="none" stroke="currentColor" stroke-linecap="round" stroke-linejoin="round" stroke-width="24"/></svg>