<svg xmlns="http://www.w3.org/2000/svg" viewBox="0 0 256 256" width="20" height="20"><path fill="none" d="M0 0h256v256H0z"/><path d="M96 188v8a32 32 0 0064 0v-8M184 24a102.71 102.71 0 0136.29 40M35.71 64A102.71 102.71 0 0172 24" fill="none" stroke="currentColor" stroke-linecap="round" stroke-linejoin="round" stroke-width="24"/><path d="M52 188a8 8 0 01-6.38-12.81C53.85 164.49 63.84 144.6 64 112a64 64 0 01128 0c.16 32.6 10.15 52.49 18.35 63.19A8 8 0 01204 188z" fill="none" stroke="currentColor" stroke-linecap="round" stroke-linejoin="round" stroke-width="24"/></svg>