<svg xmlns="http://www.w3.org/2000/svg" viewBox="0 0 256 256" width="20" height="20"><path fill="none" d="M0 0h256v256H0z"/><path d="M240 164v36a8 8 0 01-8 8h-26.11a8.08 8.08 0 01-3.58-.84l-12.62-6.32a8.08 8.08 0 00-3.58-.84h-16.22a8.08 8.08 0 00-3.58.84l-12.62 6.32a8.08 8.08 0 01-3.58.84h-28.22a8.08 8.08 0 01-3.58-.84l-12.62-6.32a8.08 8.08 0 00-3.58-.84H85.89a8.08 8.08 0 00-3.58.84l-12.62 6.32a8.08 8.08 0 01-3.58.84H40a8 8 0 01-8-8v-36c9.22-32.06 12-84.65 0-116h112a8 8 0 018 8v60h40a48 48 0 0148 48zM116 116h36M32 164h208" fill="none" stroke="currentColor" stroke-linecap="round" stroke-linejoin="round" stroke-width="24"/></svg>