<svg xmlns="http://www.w3.org/2000/svg" viewBox="0 0 256 256" width="20" height="20"><path fill="none" d="M0 0h256v256H0z"/><path d="M72 172h-8a48 48 0 01-16-93.27V72a40 40 0 0180 0v104M184 172h8a48 48 0 0016-93.27V72a40 40 0 00-80 0" fill="none" stroke="currentColor" stroke-linecap="round" stroke-linejoin="round" stroke-width="24"/><path d="M196 116a28 28 0 01-28-28v-4M60 116a28 28 0 0028-28v-4M152 139.33A40 40 0 10208 176v-6.73" fill="none" stroke="currentColor" stroke-linecap="round" stroke-linejoin="round" stroke-width="24"/><path d="M104 139.33A40 40 0 1148 176v-6.73" fill="none" stroke="currentColor" stroke-linecap="round" stroke-linejoin="round" stroke-width="24"/></svg>