<svg xmlns="http://www.w3.org/2000/svg" viewBox="0 0 256 256" width="20" height="20"><path fill="none" d="M0 0h256v256H0z"/><path fill="none" stroke="currentColor" stroke-linecap="round" stroke-linejoin="round" stroke-width="24" d="M48 100h160M208 180H48V64a24 24 0 0124-24h112a24 24 0 0124 24zM208 180v28a8 8 0 01-8 8h-28a8 8 0 01-8-8v-28M92 180v28a8 8 0 01-8 8H56a8 8 0 01-8-8v-28"/><circle cx="92" cy="140" r="16"/><circle cx="164" cy="140" r="16"/><path fill="none" stroke="currentColor" stroke-linecap="round" stroke-linejoin="round" stroke-width="24" d="M244 80v24M12 80v24"/></svg>