<svg xmlns="http://www.w3.org/2000/svg" viewBox="0 0 256 256" width="20" height="20"><path fill="none" d="M0 0h256v256H0z"/><path d="M40.49 205.52L93 61.14a7.79 7.79 0 0112.84-2.85l91.88 91.88a7.79 7.79 0 01-2.86 12.83L50.48 215.51a7.79 7.79 0 01-9.99-9.99zM140 16v24M220 116l16 16M216 80l24-8M78.09 102.09l75.82 75.82M101.11 197.11l-42.22-42.22M168.42 68c1.19-6.83 5.8-20 23.58-20 24 0 24-24 24-24" fill="none" stroke="currentColor" stroke-linecap="round" stroke-linejoin="round" stroke-width="24"/></svg>