<svg xmlns="http://www.w3.org/2000/svg" viewBox="0 0 256 256" width="20" height="20"><path fill="none" d="M0 0h256v256H0z"/><path d="M56 24h0a48 48 0 0048 48h48a48 48 0 0048-48h0" fill="none" stroke="currentColor" stroke-linecap="round" stroke-linejoin="round" stroke-width="24"/><rect x="48" y="172" width="160" height="52" rx="26" fill="none" stroke="currentColor" stroke-linecap="round" stroke-linejoin="round" stroke-width="24"/><circle cx="104" cy="128" r="16"/><circle cx="152" cy="128" r="16"/><path d="M160 72h32.78a48 48 0 0147.07 38.53A8 8 0 01232 120h-40M96 72H63.22a48 48 0 00-47.07 38.53A8 8 0 0024 120h40" fill="none" stroke="currentColor" stroke-linecap="round" stroke-linejoin="round" stroke-width="24"/><path d="M64 174v-70a32 32 0 0132-32h64a32 32 0 0132 32v70" fill="none" stroke="currentColor" stroke-linecap="round" stroke-linejoin="round" stroke-width="24"/></svg>