<svg xmlns="http://www.w3.org/2000/svg" viewBox="0 0 256 256" width="20" height="20"><path fill="none" d="M0 0h256v256H0z"/><circle cx="92" cy="136" r="16"/><circle cx="164" cy="136" r="16"/><path d="M151.47 81.43l6.95-27.37a8.1 8.1 0 019.21-6L203.69 54a8.08 8.08 0 016.54 6l29.53 116.37a8 8 0 01-4.55 9.24l-67 29.7a8.15 8.15 0 01-11-4.56l-11.6-31.55M104.53 81.43l-7-27.37a8.1 8.1 0 00-9.21-6L52.31 54a8.08 8.08 0 00-6.54 6L16.24 176.35a8 8 0 004.55 9.24l67 29.7a8.15 8.15 0 0011-4.56l11.64-31.53" fill="none" stroke="currentColor" stroke-linecap="round" stroke-linejoin="round" stroke-width="24"/><path d="M84 85.24A181.44 181.44 0 01128 80a181.44 181.44 0 0144 5.24M172 174.76a181.44 181.44 0 01-44 5.24 181.44 181.44 0 01-44-5.24" fill="none" stroke="currentColor" stroke-linecap="round" stroke-linejoin="round" stroke-width="24"/></svg>