<svg xmlns="http://www.w3.org/2000/svg" viewBox="0 0 256 256" width="20" height="20"><path fill="none" d="M0 0h256v256H0z"/><circle cx="92" cy="136" r="16"/><circle cx="164" cy="136" r="16"/><path fill="none" stroke="currentColor" stroke-linecap="round" stroke-linejoin="round" stroke-width="24" d="M128 192v24M144 176l-16 16-16-16M104 48h48M104 48L50.37 32.24a8 8 0 00-9.8 6.29l-16.42 88c-1.54 8.23 9 13 14.16 6.42zM152 48l53.63-15.76a8 8 0 019.8 6.29l16.42 88c1.54 8.23-9 13-14.16 6.42z"/><path d="M208 120.38V184a32 32 0 01-32 32H80a32 32 0 01-32-32v-63.62" fill="none" stroke="currentColor" stroke-linecap="round" stroke-linejoin="round" stroke-width="24"/></svg>