<svg xmlns="http://www.w3.org/2000/svg" viewBox="0 0 256 256" width="20" height="20"><path fill="none" d="M0 0h256v256H0z"/><path fill="none" stroke="currentColor" stroke-linecap="round" stroke-linejoin="round" stroke-width="24" d="M48 40l160 176M160 216c-8.07 9.77-18.34 16-32 16a44 44 0 01-44-44c0-41.49-36-28-36-84a79.63 79.63 0 0115.34-47.12M91.43 87.77A39.76 39.76 0 0088 104M169.07 173.18A16 16 0 01144 160a33.16 33.16 0 012.2-12M94.27 31.44A80 80 0 01208 104M167.14 111.59A33.15 33.15 0 00168 104a40 40 0 00-40-40c-1.33 0-2.65.07-4 .19"/></svg>