<svg xmlns="http://www.w3.org/2000/svg" viewBox="0 0 256 256" width="20" height="20"><path fill="none" d="M0 0h256v256H0z"/><circle cx="128" cy="128" r="96" fill="none" stroke="currentColor" stroke-linecap="round" stroke-linejoin="round" stroke-width="24"/><path d="M162.58 78.34A12 12 0 00152 72h-48a12 12 0 00-10 18.66l24 36a12 12 0 0020 0l24-36a12 12 0 00.58-12.32z"/><path d="M194.58 126.34A12 12 0 00184 120h-48a12 12 0 00-10 18.66l24 36a12 12 0 0020 0l24-36a12 12 0 00.58-12.32z"/><path d="M130.58 126.34A12 12 0 00120 120H72a12 12 0 00-10 18.66l24 36a12 12 0 0020 0l24-36a12 12 0 00.58-12.32z"/></svg>