<svg xmlns="http://www.w3.org/2000/svg" viewBox="0 0 256 256" width="20" height="20"><path fill="none" d="M0 0h256v256H0z"/><path d="M188 224h12a8 8 0 008-8V88l-56-56H56a8 8 0 00-8 8v68" fill="none" stroke="currentColor" stroke-linecap="round" stroke-linejoin="round" stroke-width="24"/><path fill="none" stroke="currentColor" stroke-linecap="round" stroke-linejoin="round" stroke-width="24" d="M148 32v60h60M48 192h16a20 20 0 000-40H48v56M84 208l-10.68-18.3M147.9 153.6s-29.43-7.78-31.8 11 38.43 10.12 35.78 30.72c-2.47 19.16-31.78 11-31.78 11"/></svg>