<svg xmlns="http://www.w3.org/2000/svg" viewBox="0 0 256 256" width="20" height="20"><path fill="none" d="M0 0h256v256H0z"/><path fill="none" stroke="currentColor" stroke-linecap="round" stroke-linejoin="round" stroke-width="24" d="M148 32v60h60"/><path d="M48 108V40a8 8 0 018-8h96l56 56v20M40 192h16a20 20 0 000-40H40v56M216 188h4v12.87a22.12 22.12 0 01-16 7.13c-13.25 0-24-12.54-24-28s10.75-28 24-28a21.28 21.28 0 0112 3.75M108 208v-56l40 56v-56" fill="none" stroke="currentColor" stroke-linecap="round" stroke-linejoin="round" stroke-width="24"/></svg>