<svg xmlns="http://www.w3.org/2000/svg" viewBox="0 0 256 256" width="20" height="20"><path fill="none" d="M0 0h256v256H0z"/><path d="M159.73 92A48 48 0 0080 128a143.41 143.41 0 01-18 69.73M176 132a239.17 239.17 0 01-17.91 87.21M108.68 212q-2.22 4.56-4.68 9M128 128a192.72 192.72 0 01-5.07 44" fill="none" stroke="currentColor" stroke-linecap="round" stroke-linejoin="round" stroke-width="24"/><path d="M100 36.15A96.07 96.07 0 01224 128a288.93 288.93 0 01-7.14 64M23.28 168A95.66 95.66 0 0032 128a95.71 95.71 0 0128-67.77" fill="none" stroke="currentColor" stroke-linecap="round" stroke-linejoin="round" stroke-width="24"/></svg>