<svg xmlns="http://www.w3.org/2000/svg" viewBox="0 0 256 256" width="20" height="20"><path fill="none" d="M0 0h256v256H0z"/><path d="M108 128a20 20 0 0140 0 211.13 211.13 0 01-25 99.88M128 68a60 60 0 0160 60q0 12.13-1.12 24M51.35 192.22A131.39 131.39 0 0068 128a59.85 59.85 0 0120-44.71M103.32 168A171 171 0 0183 217.33M179.8 192a250.79 250.79 0 01-8.4 26.12" fill="none" stroke="currentColor" stroke-linecap="round" stroke-linejoin="round" stroke-width="24"/><path d="M22.28 160A92 92 0 0028 128h0a100 100 0 01200 0h0a293.41 293.41 0 01-7 64" fill="none" stroke="currentColor" stroke-linecap="round" stroke-linejoin="round" stroke-width="24"/></svg>