<svg xmlns="http://www.w3.org/2000/svg" viewBox="0 0 256 256" width="20" height="20"><path fill="none" d="M0 0h256v256H0z"/><path fill="none" stroke="currentColor" stroke-linecap="round" stroke-linejoin="round" stroke-width="24" d="M172 196l4 20M128 200v24M84 196l-4 20M177 68.82C214.29 76.61 240 93 240 112c0 26.51-50.14 48-112 48S16 138.51 16 112c0-19 25.86-35.49 63.35-43.25"/><path d="M72 99.9a15.94 15.94 0 0012.34 15.52A195.87 195.87 0 00128 120a195.71 195.71 0 0043.64-4.58A16 16 0 00184 99.9V96a56 56 0 00-56.74-56C96.48 40.4 72 66.06 72 96.83z" fill="none" stroke="currentColor" stroke-linecap="round" stroke-linejoin="round" stroke-width="24"/></svg>