<svg xmlns="http://www.w3.org/2000/svg" viewBox="0 0 256 256" width="20" height="20"><path fill="none" d="M0 0h256v256H0z"/><path d="M98.39 46.69L128 80H32V52a8 8 0 018-8h52.41a8 8 0 015.98 2.69zM112.56 208H39.38a7.4 7.4 0 01-7.38-7.38V80h184a8 8 0 018 8v24" fill="none" stroke="currentColor" stroke-linecap="round" stroke-linejoin="round" stroke-width="24"/><path fill="none" stroke="currentColor" stroke-linecap="round" stroke-linejoin="round" stroke-width="24" d="M184 198.54L213.67 216l-8.07-32.59 26.4-21.8-34.65-2.67L184 128l-13.35 30.94-34.65 2.67 26.4 21.8-8.07 32.59L184 198.54z"/></svg>