<svg xmlns="http://www.w3.org/2000/svg" viewBox="0 0 256 256" width="20" height="20"><path fill="none" d="M0 0h256v256H0z"/><circle cx="128" cy="128" r="40" fill="none" stroke="currentColor" stroke-linecap="round" stroke-linejoin="round" stroke-width="24"/><path d="M41.43 178.09a99.14 99.14 0 01-10.07-24.29l16.78-21a81.59 81.59 0 010-9.64l-16.77-21a99.43 99.43 0 0110.05-24.3l26.71-3a81 81 0 016.81-6.81l3-26.7a99.14 99.14 0 0124.26-9.99l21 16.78a81.59 81.59 0 019.64 0l21-16.77a99.43 99.43 0 0124.3 10.05l3 26.71a81 81 0 016.81 6.81l26.7 3a99.14 99.14 0 0110.07 24.29l-16.78 21a81.59 81.59 0 010 9.64l16.77 21a99.43 99.43 0 01-10 24.3l-26.71 3a81 81 0 01-6.81 6.81l-3 26.7a99.14 99.14 0 01-24.29 10.07l-21-16.78a81.59 81.59 0 01-9.64 0l-21 16.77a99.43 99.43 0 01-24.3-10l-3-26.71a81 81 0 01-6.81-6.81z" fill="none" stroke="currentColor" stroke-linecap="round" stroke-linejoin="round" stroke-width="24"/></svg>