<svg xmlns="http://www.w3.org/2000/svg" viewBox="0 0 256 256" width="20" height="20"><path fill="none" d="M0 0h256v256H0z"/><path fill="none" stroke="currentColor" stroke-linecap="round" stroke-linejoin="round" stroke-width="24" d="M104 152h48M232 152c0 17.67-30.33 32-48 32a32 32 0 010-64c17.67 0 48 14.33 48 32zM104 152a32 32 0 01-32 32c-17.67 0-48-14.33-48-32s30.33-32 48-32a32 32 0 0132 32z"/><path d="M232 152h0a12 12 0 0012-12v-4a64 64 0 00-64-64H76a64 64 0 00-64 64v4a12 12 0 0012 12h0" fill="none" stroke="currentColor" stroke-linecap="round" stroke-linejoin="round" stroke-width="24"/></svg>