<svg xmlns="http://www.w3.org/2000/svg" viewBox="0 0 256 256" width="20" height="20"><path fill="none" d="M0 0h256v256H0z"/><path d="M128 224h0a80 80 0 01-80-80v-8h0a80 80 0 0180 80zM48 40l160 176M48 136V64h0a79.92 79.92 0 0125.63 4.19M103.94 42.07A103.5 103.5 0 01128 24s32.39 16.19 44 48.58" fill="none" stroke="currentColor" stroke-linecap="round" stroke-linejoin="round" stroke-width="24"/><path d="M208 136V64h0a79.79 79.79 0 00-59.75 26.81M207.16 155.61A80.84 80.84 0 00208 144v-8h0a80.9 80.9 0 00-17 1.81M154.19 156.8A79.81 79.81 0 00128 216v8h0a79.86 79.86 0 0061.29-28.58" fill="none" stroke="currentColor" stroke-linecap="round" stroke-linejoin="round" stroke-width="24"/></svg>