<svg xmlns="http://www.w3.org/2000/svg" viewBox="0 0 256 256" width="20" height="20"><path fill="none" d="M0 0h256v256H0z"/><path fill="none" stroke="currentColor" stroke-linecap="round" stroke-linejoin="round" stroke-width="24" d="M24 180l44-16 40 16 40-16 40 16 44-16M24 128h208"/><path d="M208 172.73V184a32 32 0 01-32 32H80a32 32 0 01-32-32v-12.73M48.2 92a8 8 0 01-7.83-10.29C49.49 53.24 85.26 32 128 32s78.52 21.25 87.63 49.73A8 8 0 01207.8 92z" fill="none" stroke="currentColor" stroke-linecap="round" stroke-linejoin="round" stroke-width="24"/></svg>