<svg xmlns="http://www.w3.org/2000/svg" viewBox="0 0 256 256" width="20" height="20"><path fill="none" d="M0 0h256v256H0z"/><path d="M83.54 87l-5.73-10a18 18 0 10-31.18 18l19 32.91" fill="none" stroke="currentColor" stroke-linecap="round" stroke-linejoin="round" stroke-width="24"/><path d="M109.55 132l-26-45a18 18 0 1131.17-18l36.45 63" fill="none" stroke="currentColor" stroke-linecap="round" stroke-linejoin="round" stroke-width="24"/><path d="M102 47l-5.72-10A18 18 0 1065.1 55l12.71 22" fill="none" stroke="currentColor" stroke-linecap="round" stroke-linejoin="round" stroke-width="24"/><path d="M114.71 69L102 47a18 18 0 1131.17-18l37 64" fill="none" stroke="currentColor" stroke-linecap="round" stroke-linejoin="round" stroke-width="24"/><path d="M199 175.76a72 72 0 0010.7-86.19L188.61 53a18 18 0 00-31.18 18" fill="none" stroke="currentColor" stroke-linecap="round" stroke-linejoin="round" stroke-width="24"/><path d="M81.81 156l-20.22-35a18 18 0 10-31.18 18L40 155.59 65.63 200a72 72 0 00124.71-72l-20.2-35A18 18 0 10139 111" fill="none" stroke="currentColor" stroke-linecap="round" stroke-linejoin="round" stroke-width="24"/></svg>