<svg xmlns="http://www.w3.org/2000/svg" viewBox="0 0 256 256" width="20" height="20"><path fill="none" d="M0 0h256v256H0z"/><path fill="none" stroke="currentColor" stroke-linecap="round" stroke-linejoin="round" stroke-width="24" d="M76.68 72.63L128 56l51.32 16.63M38.37 62.42l-25.52 51.06a8 8 0 003.57 10.73L44 138l32.68-65.37-27.57-13.78a8 8 0 00-10.74 3.57z"/><path d="M212 138l27.58-13.79a8 8 0 003.57-10.73l-25.52-51.06a8 8 0 00-10.74-3.57l-27.57 13.78zM177.36 72H144l-45.66 44.29a8 8 0 001.38 12.42C117.23 139.9 141 139.13 160 120l36 34 16-16M196 154l-38 38-62-16-52-38M106.93 216l-26.6-6.87L56 191.36" fill="none" stroke="currentColor" stroke-linecap="round" stroke-linejoin="round" stroke-width="24"/></svg>