<svg xmlns="http://www.w3.org/2000/svg" viewBox="0 0 256 256" width="20" height="20"><path fill="none" d="M0 0h256v256H0z"/><path d="M96.65 62a20 20 0 0134.64-20l30 52" fill="none" stroke="currentColor" stroke-linecap="round" stroke-linejoin="round" stroke-width="24"/><path d="M69.32 94.67L55.08 70a20 20 0 0134.65-20l31.17 54" fill="none" stroke="currentColor" stroke-linecap="round" stroke-linejoin="round" stroke-width="24"/><path d="M158.87 160a40 40 0 019.13-54.42L161.32 94A20 20 0 01196 74l17.31 30A80 80 0 0174.7 184l-40-69.32a20 20 0 0134.64-20L88.57 128M220.11 40.63a60.21 60.21 0 00-24-14M58.23 228a121 121 0 01-18.16-24" fill="none" stroke="currentColor" stroke-linecap="round" stroke-linejoin="round" stroke-width="24"/></svg>