<svg xmlns="http://www.w3.org/2000/svg" viewBox="0 0 256 256" width="20" height="20"><path fill="none" d="M0 0h256v256H0z"/><path d="M72 131.6a20 20 0 018-39.19l20.81 4a20 20 0 11-8 39.19z" fill="none" stroke="currentColor" stroke-linecap="round" stroke-linejoin="round" stroke-width="24"/><path d="M56 152.72V160a72 72 0 0072.55 72c39.7-.3 71.45-33.2 71.45-72.9v-3.34a48 48 0 00-38.59-47.07L140 104.41a20 20 0 00-8 39.19l15.37 3.07A28 28 0 00152 179.6" fill="none" stroke="currentColor" stroke-linecap="round" stroke-linejoin="round" stroke-width="24"/><path d="M72 172.32a20 20 0 018-39.19l10 2a20 20 0 01-8 39.2zM101.37 96.53L88.69 49.18a20 20 0 1138.63-10.35l17.85 66.61M150.54 106.51l18.14-67.68a20 20 0 0138.63 10.35l-19.88 74.19" fill="none" stroke="currentColor" stroke-linecap="round" stroke-linejoin="round" stroke-width="24"/></svg>