<svg xmlns="http://www.w3.org/2000/svg" viewBox="0 0 256 256" width="20" height="20"><path fill="none" d="M0 0h256v256H0z"/><path d="M172 184v24a8 8 0 008 8h26.57a8 8 0 007.71-5.9l21.44-78.59a8 8 0 00-1.06-6.54l-54.28-81.41a8 8 0 00-6.65-3.56H82.27a8 8 0 00-6.65 3.56L21.34 125a8 8 0 00-1.06 6.54l21.44 78.56a8 8 0 007.71 5.9H76a8 8 0 008-8v-24" fill="none" stroke="currentColor" stroke-linecap="round" stroke-linejoin="round" stroke-width="24"/><path d="M128 84l56-35v127a8 8 0 01-8 8H80a8 8 0 01-8-8V49zM148 71.49V128M108 71.49V136" fill="none" stroke="currentColor" stroke-linecap="round" stroke-linejoin="round" stroke-width="24"/></svg>