<svg xmlns="http://www.w3.org/2000/svg" viewBox="0 0 256 256" width="20" height="20"><path fill="none" d="M0 0h256v256H0z"/><path d="M137.73 208l7.94-23.8 39-15.58 15.58-39 23.8-7.94V200a8 8 0 01-8 8zM95.57 208l18-54.05 40.27-16.1L170 97.58l54.05-18V56a8 8 0 00-8-8H40a8 8 0 00-8 8v144a8 8 0 008 8z" fill="none" stroke="currentColor" stroke-linecap="round" stroke-linejoin="round" stroke-width="24"/><path d="M32 168.69l54.34-54.35a8 8 0 0111.32 0l32.84 32.84" fill="none" stroke="currentColor" stroke-linecap="round" stroke-linejoin="round" stroke-width="24"/></svg>