<svg xmlns="http://www.w3.org/2000/svg" viewBox="0 0 256 256" width="20" height="20"><path fill="none" d="M0 0h256v256H0z"/><path d="M224 168v32a8 8 0 01-8 8h-28a8 8 0 01-8-8v-32M76 168v32a8 8 0 01-8 8H40a8 8 0 01-8-8v-32M16 96h224M128 132v36M168 132v36M88 132v36" fill="none" stroke="currentColor" stroke-linecap="round" stroke-linejoin="round" stroke-width="24"/><path d="M224 168H32V96l10.64-49.68A8 8 0 0150.47 40h155.06a8 8 0 017.83 6.32L224 96z" fill="none" stroke="currentColor" stroke-linecap="round" stroke-linejoin="round" stroke-width="24"/></svg>