<svg xmlns="http://www.w3.org/2000/svg" viewBox="0 0 256 256" width="20" height="20"><path fill="none" d="M0 0h256v256H0z"/><circle cx="180" cy="76" r="16"/><path d="M93.17 122.83A71.68 71.68 0 0188 95.91c0-38.58 31.08-70.64 69.64-71.87A72 72 0 01232 98.36c-1.27 38.56-33.33 69.64-71.91 69.64a71.68 71.68 0 01-26.92-5.17h0L120 176H96v24H72v24H40a8 8 0 01-8-8v-28.69a8 8 0 012.34-5.65l58.83-58.83z" fill="none" stroke="currentColor" stroke-linecap="round" stroke-linejoin="round" stroke-width="24"/></svg>