<svg xmlns="http://www.w3.org/2000/svg" viewBox="0 0 256 256" width="20" height="20"><path fill="none" d="M0 0h256v256H0z"/><path fill="none" stroke="currentColor" stroke-linecap="round" stroke-linejoin="round" stroke-width="24" d="M128 192v-48M96 112l32 32 32-32M88 232h80"/><path d="M80 168a79.86 79.86 0 01-32-63.53C47.76 61.09 82.72 25 126.07 24a80 80 0 0149.77 144.1A19.81 19.81 0 00168 184h0a8 8 0 01-8 8H96a8 8 0 01-8-8v-.23A19.8 19.8 0 0080 168z" fill="none" stroke="currentColor" stroke-linecap="round" stroke-linejoin="round" stroke-width="24"/></svg>