<svg xmlns="http://www.w3.org/2000/svg" viewBox="0 0 256 256" width="20" height="20"><path fill="none" d="M0 0h256v256H0z"/><path d="M108.71 197.23l-5.11 5.11a46.63 46.63 0 01-66-.05h0a46.63 46.63 0 01.06-65.89l34.74-34.74a46.62 46.62 0 0165.94 0h0A46.34 46.34 0 01150.78 124" fill="none" stroke="currentColor" stroke-linecap="round" stroke-linejoin="round" stroke-width="24"/><path d="M147.29 58.77l5.11-5.11a46.62 46.62 0 0165.94 0h0a46.62 46.62 0 010 65.94l-24.4 24.4-10.34 10.34a46.63 46.63 0 01-66-.05h0A46.46 46.46 0 01105.22 132" fill="none" stroke="currentColor" stroke-linecap="round" stroke-linejoin="round" stroke-width="24"/></svg>