<svg xmlns="http://www.w3.org/2000/svg" viewBox="0 0 256 256" width="20" height="20"><path fill="none" d="M0 0h256v256H0z"/><path d="M26.34 128.88L55 157.54a8 8 0 0011.37-.06L127.29 95a24 24 0 0133.61-.33c9.69 9.34 9.46 25.14-.05 34.65L98.54 189.6a8 8 0 00-.08 11.4l28.66 28.66a8 8 0 0011.26.05l61.74-60.43c31.19-31.19 32.1-82 1.14-113.42a80 80 0 00-113.57-.43L26.31 117.6a8 8 0 00.03 11.28zM128.57 160.57l39.79 39.79M55.77 87.77l39.79 39.79" fill="none" stroke="currentColor" stroke-linecap="round" stroke-linejoin="round" stroke-width="24"/></svg>