<svg xmlns="http://www.w3.org/2000/svg" viewBox="0 0 256 256" width="20" height="20"><path fill="none" d="M0 0h256v256H0z"/><rect x="28" y="68" width="120" height="120" rx="8" fill="none" stroke="currentColor" stroke-linecap="round" stroke-linejoin="round" stroke-width="24"/><path fill="none" stroke="currentColor" stroke-linecap="round" stroke-linejoin="round" stroke-width="24" d="M104 104H72M88 152v-48M106.33 68A32 32 0 11148 85.67M148 88h36a8 8 0 018 8v72a56 56 0 01-56 56h0a56 56 0 01-52.32-36"/><path d="M184 88h39.26a4.74 4.74 0 014.74 4.74V152a32 32 0 01-38.15 31.41M167.65 51.27A24 24 0 11188 88" fill="none" stroke="currentColor" stroke-linecap="round" stroke-linejoin="round" stroke-width="24"/></svg>