<svg xmlns="http://www.w3.org/2000/svg" viewBox="0 0 256 256" width="20" height="20"><path fill="none" d="M0 0h256v256H0z"/><path fill="none" stroke="currentColor" stroke-linecap="round" stroke-linejoin="round" stroke-width="24" d="M156 96h52M156 160h52M64 68V40a8 8 0 018-8h128a8 8 0 018 8v176a8 8 0 01-8 8H72a8 8 0 01-8-8v-28M136 188v36M136 32v36"/><rect x="28" y="68" width="128" height="120" rx="8" fill="none" stroke="currentColor" stroke-linecap="round" stroke-linejoin="round" stroke-width="24"/><path fill="none" stroke="currentColor" stroke-linecap="round" stroke-linejoin="round" stroke-width="24" d="M72 104l40 48M112 104l-40 48"/></svg>