<svg xmlns="http://www.w3.org/2000/svg" viewBox="0 0 256 256" width="20" height="20"><path fill="none" d="M0 0h256v256H0z"/><path d="M152 12a48 48 0 00-47.34 40M148 52h4a40 40 0 0040-40h0M16 216h224M128.15 92h40a8 8 0 018 7.63c2.37 51.77 28 100 37.56 116.37" fill="none" stroke="currentColor" stroke-linecap="round" stroke-linejoin="round" stroke-width="24"/><path d="M39.69 216C53 189.23 70.12 146.16 71.86 99.64a8 8 0 018-7.64h48.3a8 8 0 018 7.64c1.74 46.52 18.9 89.59 32.17 116.36" fill="none" stroke="currentColor" stroke-linecap="round" stroke-linejoin="round" stroke-width="24"/></svg>