<svg xmlns="http://www.w3.org/2000/svg" viewBox="0 0 256 256" width="20" height="20"><path fill="none" d="M0 0h256v256H0z"/><path d="M72 232h0a24 24 0 0124-24h64a24 24 0 0124 24h0M128 168v64M16 128h24a40 40 0 0040 40h96a40 40 0 0040-40h24" fill="none" stroke="currentColor" stroke-linecap="round" stroke-linejoin="round" stroke-width="24"/><path d="M154.41 24h-52.82a8 8 0 00-7.93 6.78l-13.57 88A8 8 0 0088 128h80a8 8 0 007.93-9.22l-13.57-88a8 8 0 00-7.95-6.78z" fill="none" stroke="currentColor" stroke-linecap="round" stroke-linejoin="round" stroke-width="24"/></svg>