<svg xmlns="http://www.w3.org/2000/svg" viewBox="0 0 256 256" width="20" height="20"><path fill="none" d="M0 0h256v256H0z"/><path d="M128 192a24 24 0 0124-24h46.21a24 24 0 0023.4-18.65 96.48 96.48 0 002.39-22.18c-.45-52.82-44.16-95.7-97-95.17a96 96 0 00-95 96c0 41.81 26.73 73.44 64 86.61A24 24 0 00128 192z" fill="none" stroke="currentColor" stroke-linecap="round" stroke-linejoin="round" stroke-width="24"/><circle cx="128" cy="76" r="16"/><circle cx="84" cy="100" r="16"/><circle cx="84" cy="156" r="16"/><circle cx="172" cy="100" r="16"/></svg>