<svg xmlns="http://www.w3.org/2000/svg" viewBox="0 0 256 256" width="20" height="20"><path fill="none" d="M0 0h256v256H0z"/><path d="M92 68H57.94a4 4 0 00-4 3.5l-6 48a4 4 0 004 4.5A44.05 44.05 0 0096 80v-8a4 4 0 00-4-4zM208 119.5l-6-48a4 4 0 00-4-3.5h-34a4 4 0 00-4 4v8a44.06 44.06 0 0044.06 44 4 4 0 004-4.5z"/><path d="M186 32a8 8 0 017.94 7l22 176a8 8 0 01-7.94 9h-40.69a8 8 0 01-7.76-6.06L128 96 96.45 217.94a8 8 0 01-7.76 6.06H48a8 8 0 01-7.94-9l22-176A8 8 0 0170 32zM128 96V72M57.94 72h140.12" fill="none" stroke="currentColor" stroke-linecap="round" stroke-linejoin="round" stroke-width="24"/></svg>