<svg xmlns="http://www.w3.org/2000/svg" viewBox="0 0 256 256" width="20" height="20"><path fill="none" d="M0 0h256v256H0z"/><path fill="none" stroke="currentColor" stroke-linecap="round" stroke-linejoin="round" stroke-width="24" d="M144 72h72M156.39 153.34a8 8 0 017.59-.69l47.16 21.13a8 8 0 014.8 8.3A48.33 48.33 0 01168 224 136 136 0 0132 88a48.33 48.33 0 0141.92-47.94 8 8 0 018.3 4.8l21.13 47.2a8 8 0 01-.66 7.53L81.32 125a7.93 7.93 0 00-.54 7.81c8.27 16.93 25.77 34.22 42.75 42.41a7.92 7.92 0 007.83-.59zM184 40l32 32-32 32"/></svg>