<svg xmlns="http://www.w3.org/2000/svg" viewBox="0 0 256 256" width="20" height="20"><path fill="none" d="M0 0h256v256H0z"/><path d="M74.14 230.14a20 20 0 01-28.28-28.28L113.72 134 73.86 94.14a20 20 0 0128.28-28.28l63.36 60.5a8 8 0 01.16 11.45z" fill="none" stroke="currentColor" stroke-linecap="round" stroke-linejoin="round" stroke-width="24"/><path d="M81.88 102.16l-23.54 23.5a8 8 0 000 11.31l26.2 26.2M143.6 105.44l23.3-23.1a8 8 0 0111.25-.06l17.45 15.38a8 8 0 0011.31 0l3.72-3.72a32 32 0 000-45.25l-33-30.35a8 8 0 00-11.32 0l-55.68 55.44" fill="none" stroke="currentColor" stroke-linecap="round" stroke-linejoin="round" stroke-width="24"/></svg>