<svg xmlns="http://www.w3.org/2000/svg" viewBox="0 0 256 256" width="20" height="20"><path fill="none" d="M0 0h256v256H0z"/><path fill="none" stroke="currentColor" stroke-linecap="round" stroke-linejoin="round" stroke-width="24" d="M16 112h224M224 168v32a8 8 0 01-8 8h-28a8 8 0 01-8-8v-32M76 168v32a8 8 0 01-8 8H40a8 8 0 01-8-8v-32"/><path d="M224 112l-29.7-52a8 8 0 00-6.94-4H68.64a8 8 0 00-6.94 4L32 112v56h192zM104 20h48" fill="none" stroke="currentColor" stroke-linecap="round" stroke-linejoin="round" stroke-width="24"/></svg>