<svg xmlns="http://www.w3.org/2000/svg" viewBox="0 0 256 256" width="20" height="20"><path fill="none" d="M0 0h256v256H0z"/><path d="M147.9 108.1c-23.94-39.91 8-79.81 75.82-75.82 3.99 67.83-35.91 99.72-75.82 75.82zM94.35 110.35c17.11-28.5-5.7-57-54.15-54.15-2.85 48.45 25.65 71.26 54.15 54.15zM56 156h144M183.11 156l-13.72 61.74a8 8 0 01-7.81 6.26H94.42a8 8 0 01-7.81-6.26L72.89 156M147.9 108.1L100 156M94.35 110.35L120 136" fill="none" stroke="currentColor" stroke-linecap="round" stroke-linejoin="round" stroke-width="24"/></svg>