<svg xmlns="http://www.w3.org/2000/svg" viewBox="0 0 256 256" width="20" height="20"><path fill="none" d="M0 0h256v256H0z"/><circle cx="128" cy="128" r="16"/><path d="M105.77 90l-22-38a8 8 0 00-11.55-2.54A95.94 95.94 0 0032 119.14a8.1 8.1 0 008 8.86h44M150.23 90l22-38a8 8 0 0111.55-2.54A95.94 95.94 0 01224 119.14a8.1 8.1 0 01-8 8.86h-44M150 166.11l21.83 37.8a8 8 0 01-3.56 11.26 96.24 96.24 0 01-80.54 0 8 8 0 01-3.56-11.26l21.83-37.8" fill="none" stroke="currentColor" stroke-linecap="round" stroke-linejoin="round" stroke-width="24"/></svg>