<svg xmlns="http://www.w3.org/2000/svg" viewBox="0 0 256 256" width="20" height="20"><path fill="none" d="M0 0h256v256H0z"/><path d="M128 80l-30.34 29.64A8 8 0 0184 104V48l16-16M128 80v136" fill="none" stroke="currentColor" stroke-linecap="round" stroke-linejoin="round" stroke-width="24"/><path d="M172 48h28a8 8 0 018 8v152a8 8 0 01-8 8H56a8 8 0 01-8-8V56a8 8 0 018-8h28M100 32h56" fill="none" stroke="currentColor" stroke-linecap="round" stroke-linejoin="round" stroke-width="24"/><path d="M156 32l16 16v56a8 8 0 01-13.66 5.66L128 80" fill="none" stroke="currentColor" stroke-linecap="round" stroke-linejoin="round" stroke-width="24"/><path d="M159.47 30a4 4 0 00-3.47-2h-56a4 4 0 00-3.46 6l28 48a4 4 0 006.92 0l28-48a4 4 0 00.01-4z"/></svg>