<svg xmlns="http://www.w3.org/2000/svg" viewBox="0 0 256 256" width="20" height="20"><path fill="none" d="M0 0h256v256H0z"/><path fill="none" stroke="currentColor" stroke-linecap="round" stroke-linejoin="round" stroke-width="24" d="M112 144V80M112 192v32M112 24a16 16 0 0016 16h84a20 20 0 010 40"/><path d="M168 184h-56a20 20 0 010-40h40a64 64 0 0064-64H96.9c-39.7 0-72.6 31.75-72.9 71.45A72 72 0 0096 224h56M92.59 159.18l-65.04-29.57M95.46 175.24l-45.25 32.32" fill="none" stroke="currentColor" stroke-linecap="round" stroke-linejoin="round" stroke-width="24"/></svg>