<svg xmlns="http://www.w3.org/2000/svg" viewBox="0 0 256 256" width="20" height="20"><path fill="none" d="M0 0h256v256H0z"/><circle cx="128" cy="128" r="96" fill="none" stroke="currentColor" stroke-linecap="round" stroke-linejoin="round" stroke-width="24"/><path fill="none" stroke="currentColor" stroke-linecap="round" stroke-linejoin="round" stroke-width="24" d="M128 88l-40 27.5 15.28 44.5h49.44L168 115.5 128 88zM128 64v24M65.17 108.09L88 115.5M89.17 179.42L103.28 160M166.83 179.42L152.72 160M190.83 108.09L168 115.5"/><path d="M209 62.77a8 8 0 00-13.9 2.75l-11.94 40.29a8 8 0 002.8 8.62l33 25.33a8 8 0 0012.85-5.9c.11-2 .17-4 .17-5.86A104.27 104.27 0 00209 62.77zM72.84 105.81L60.9 65.52A8 8 0 0047 62.77 104.27 104.27 0 0024 128c0 1.89.06 3.86.17 5.86a8 8 0 0012.83 5.9l33-25.33a8 8 0 002.84-8.62zM172.19 38.23a8 8 0 00-4.93-6.55 104.19 104.19 0 00-78.52 0 8 8 0 00-1.51 14l36.24 24.91a8 8 0 009.06 0l36.24-24.91a8 8 0 003.42-7.45zM216.09 175.56a8 8 0 00-7-4.14h-42.26a8 8 0 00-7.54 5.33l-14.7 41.52a8 8 0 007.54 10.67 7.7 7.7 0 002-.26 103.66 103.66 0 0061.69-45 8 8 0 00.27-8.12zM111.41 218.27l-14.7-41.52a8 8 0 00-7.54-5.33H46.92a8 8 0 00-6.75 12.29 103.66 103.66 0 0061.69 45 7.7 7.7 0 002 .26 8 8 0 007.54-10.67z"/></svg>