<svg xmlns="http://www.w3.org/2000/svg" viewBox="0 0 256 256" width="20" height="20"><path fill="none" d="M0 0h256v256H0z"/><path fill="none" stroke="currentColor" stroke-linecap="round" stroke-linejoin="round" stroke-width="24" d="M128 152l88-88M64 152a64 64 0 0164-64 65.75 65.75 0 017.05.38"/><path d="M224.19 112.38a104.48 104.48 0 011.91 74.25 8 8 0 01-7.57 5.37H37.46a8.05 8.05 0 01-7.57-5.41 104.06 104.06 0 01-5.89-35.4C24.44 94 71.73 47.49 129 48a103.77 103.77 0 0138.66 7.81" fill="none" stroke="currentColor" stroke-linecap="round" stroke-linejoin="round" stroke-width="24"/></svg>