<svg xmlns="http://www.w3.org/2000/svg" viewBox="0 0 256 256" width="20" height="20"><path fill="none" d="M0 0h256v256H0z"/><path d="M72 72h128a48 48 0 00-48-48H80a8 8 0 00-8 8v48a32 32 0 01-32 32" fill="none" stroke="currentColor" stroke-linecap="round" stroke-linejoin="round" stroke-width="24"/><path d="M160 72h0a263.14 263.14 0 0140 139.47V224a8 8 0 01-8 8H88a8 8 0 01-8-8v-56.62a32 32 0 0112-25l16-12.78a32 32 0 0012-25V72" fill="none" stroke="currentColor" stroke-linecap="round" stroke-linejoin="round" stroke-width="24"/></svg>