<svg xmlns="http://www.w3.org/2000/svg" viewBox="0 0 256 256" width="20" height="20"><path fill="none" d="M0 0h256v256H0z"/><path d="M84 160h124a8 8 0 008-8V48a8 8 0 00-8-8H96a8 8 0 00-8 8v4" fill="none" stroke="currentColor" stroke-linecap="round" stroke-linejoin="round" stroke-width="24"/><path fill="none" stroke="currentColor" stroke-linecap="round" stroke-linejoin="round" stroke-width="24" d="M104 140l-20 20 20 20"/><path d="M172 96H48a8 8 0 00-8 8v104a8 8 0 008 8h112a8 8 0 008-8v-4" fill="none" stroke="currentColor" stroke-linecap="round" stroke-linejoin="round" stroke-width="24"/><path fill="none" stroke="currentColor" stroke-linecap="round" stroke-linejoin="round" stroke-width="24" d="M152 116l20-20-20-20"/></svg>