<svg xmlns="http://www.w3.org/2000/svg" viewBox="0 0 256 256" width="20" height="20"><path fill="none" d="M0 0h256v256H0z"/><path d="M152 176a72.08 72.08 0 01-72-72 24 24 0 0119.29-23.54l11.48 23-12.12 18.14 1.65 4a56.47 56.47 0 0030.15 30.15l4 1.65 18.17-12.12 23 11.48A24 24 0 01152 176z" stroke="currentColor" stroke-linecap="round" stroke-linejoin="round" stroke-width="24"/><path d="M79.93 211.11a96 96 0 10-35-35h0l-12.51 37.35a8 8 0 0010.12 10.12l37.39-12.47z" fill="none" stroke="currentColor" stroke-linecap="round" stroke-linejoin="round" stroke-width="24"/></svg>