<svg xmlns="http://www.w3.org/2000/svg" viewBox="0 0 256 256" width="20" height="20"><path fill="none" d="M0 0h256v256H0z"/><path fill="none" stroke="currentColor" stroke-linecap="round" stroke-linejoin="round" stroke-width="24" d="M164 128l-56-36v72l56-36z"/><path d="M24 128c0 29.91 3.07 47.45 5.41 56.47A16 16 0 0039 195.42C72.52 208.35 128 208 128 208s55.48.35 89-12.58a16 16 0 009.63-10.95c2.34-9 5.41-26.56 5.41-56.47s-3.07-47.45-5.41-56.47a16 16 0 00-9.63-11C183.48 47.65 128 48 128 48s-55.48-.35-89 12.58a16 16 0 00-9.63 11C27.07 80.54 24 98.09 24 128z" fill="none" stroke="currentColor" stroke-linecap="round" stroke-linejoin="round" stroke-width="24"/></svg>