<svg fill="none" xmlns="http://www.w3.org/2000/svg" viewBox="0 0 24 24" width="20" height="20"><path d="M9.094 21.006a2.457 2.457 0 01-1.653-.766 9.899 9.899 0 01-1.377-1.648 11.406 11.406 0 01-1.459-2.893 10.653 10.653 0 01-.61-3.445 6.317 6.317 0 01.825-3.292 4.88 4.88 0 011.73-1.751 4.663 4.663 0 012.344-.662 5.51 5.51 0 011.81.421c.459.202.941.344 1.436.422a8.564 8.564 0 001.593-.5 5.79 5.79 0 011.903-.393c.087 0 .173 0 .256.01 1.43.041 2.76.743 3.6 1.9a4.02 4.02 0 00-2.123 3.637 4.022 4.022 0 001.317 3.023 4.38 4.38 0 001.316.863c-.1.3-.215.59-.337.882a10.38 10.38 0 01-1.02 1.837 9.437 9.437 0 01-1.317 1.592 2.57 2.57 0 01-1.692.743 4.249 4.249 0 01-1.562-.373 4.501 4.501 0 00-1.68-.373 4.647 4.647 0 00-1.73.371 4.656 4.656 0 01-1.495.393l-.075.002zm3.15-14.507c-.075 0-.15 0-.225-.009a2.893 2.893 0 01-.025-.359 4.17 4.17 0 011.1-2.688 4.277 4.277 0 011.35-1.009 4.03 4.03 0 011.535-.435c.015.131.015.259.015.381a4.071 4.071 0 01-1.04 2.66 3.643 3.643 0 01-2.71 1.459z" fill="#000"/></svg>