<svg fill="none" xmlns="http://www.w3.org/2000/svg" viewBox="0 0 24 24" width="20" height="20"><path d="M11.172 3.703a.6.6 0 00-.162-.817l-1.18-.792a.551.551 0 00-.775.167l-1.46 2.273L9.88 5.719l1.293-2.016zm2.005 3.729l1.068-1.664a.6.6 0 00-.163-.817l-1.178-.792a.551.551 0 00-.776.167l-1.232 1.921 2.281 1.185zm1.289 3.426l-1.033-.477a.597.597 0 01-.24-.86L15.2 6.39a.551.551 0 01.776-.167l.935.63a.6.6 0 01.163.816l-1.91 2.977a.552.552 0 01-.699.21zm5.276-2.102l-.935-.63a.551.551 0 00-.776.168l-1.713 2.67a.597.597 0 00.24.86l1.033.476a.552.552 0 00.699-.21l1.615-2.517a.6.6 0 00-.163-.817z" fill="#000"/><path d="M17.133 13.371c.218.101.449.152.687.152a1.66 1.66 0 001.236-.558v1.715a3.488 3.488 0 01-1.482 2.877l-.351.243a.593.593 0 00-.25.487v3.127a.575.575 0 01-.564.586H7.878c-.367 0-.636-.358-.547-.728l1.031-4.286a.604.604 0 00-.094-.49l-4.157-5.83a.605.605 0 01-.016-.675L6.69 5.947a.552.552 0 01.722-.199l4.563 2.37a.598.598 0 01.217.85l-.345.537a.559.559 0 01-.47.261H7.816a.577.577 0 00-.564.614.584.584 0 00.58.558h2.413l2.615 5.432c.135.282.461.417.739.289.296-.136.42-.5.277-.798l-2.37-4.923h.357l5.27 2.433z" fill="#000"/></svg>