<svg fill="none" xmlns="http://www.w3.org/2000/svg" viewBox="0 0 24 24" width="20" height="20"><path d="M19.625 22l-2.042-1.8-1.151-1.07L15.215 18l.5 1.759H4.947A1.954 1.954 0 013 17.8V4.957A1.954 1.954 0 014.947 3h12.731a1.954 1.954 0 011.947 1.957V22zM15.1 13.508a3.007 3.007 0 01-1.715 1.128c.282.36.622.767.625.771a3.5 3.5 0 002.907-1.444 12.826 12.826 0 00-1.368-5.538 4.721 4.721 0 00-2.658-1h-.011l-.133.152a6.4 6.4 0 012.366 1.206 7.788 7.788 0 00-2.86-.912 7.977 7.977 0 00-1.918.019.8.8 0 00-.134.014h-.028a7.166 7.166 0 00-2.156.6c-.342.157-.552.271-.561.275-.009.004 0 0 0-.007.738-.58 1.59-1 2.499-1.231l-.1-.114h-.006a4.723 4.723 0 00-2.658 1 12.729 12.729 0 00-1.368 5.538 3.44 3.44 0 002.9 1.444s.358-.436.637-.789a2.966 2.966 0 01-1.667-1.12c.007.005.106.072.266.16.01.013.024.023.039.03a.27.27 0 00.04.023 5.366 5.366 0 00.738.346c.453.18.922.317 1.4.41.419.079.844.12 1.27.12.4 0 .798-.037 1.191-.11a6.3 6.3 0 001.377-.408 5.516 5.516 0 001.086-.563zm-2.038-.427a1.06 1.06 0 11.967-1.055c.022.558-.41 1.03-.968 1.055h.001zm-3.468 0a1.059 1.059 0 010-2.11.93.93 0 01.668.285c.199.206.307.483.3.769a1.015 1.015 0 01-.969 1.056h.001z" fill="#000"/></svg>