<svg fill="none" xmlns="http://www.w3.org/2000/svg" viewBox="0 0 24 24" width="20" height="20"><path d="M16.372 11.621c1.57 0 2.628 1.092 2.628 2.71C19 15.787 17.784 17 16.137 17 14.333 17 13 15.544 13 13.32c0-5.055 3.686-7.077 6-7.32v2.224c-1.569.283-3.333 1.86-3.412 3.6.079-.04.392-.203.784-.203zm-7.999 0c1.568 0 2.627 1.092 2.627 2.71C11 15.787 9.784 17 8.137 17 6.333 17 5 15.544 5 13.32 5 8.265 8.686 6.243 11 6v2.224c-1.569.283-3.333 1.86-3.412 3.6.079-.04.392-.203.785-.203z" fill="#000"/></svg>