<svg fill="none" xmlns="http://www.w3.org/2000/svg" viewBox="0 0 24 24" width="20" height="20"><path d="M8.945 22a3.92 3.92 0 01-2.5-6.962 3.909 3.909 0 010-6.077A3.918 3.918 0 018.945 2h6.11a3.918 3.918 0 012.5 6.961 3.919 3.919 0 01-2.5 6.962 3.945 3.945 0 01-2.165-.644v2.8A3.938 3.938 0 018.945 22zm-.022-6.076a2.153 2.153 0 102.187 2.153v-2.153H8.922h.001zm6.133-6.077A2.153 2.153 0 1017.22 12a2.161 2.161 0 00-2.165-2.153h.001zm-6.11 0a2.153 2.153 0 00-.023 4.306h2.187V9.847H8.946zM12.89 3.77v4.307h2.164a2.155 2.155 0 002.163-2.061v.435-.528a2.162 2.162 0 00-2.162-2.153H12.89zm-3.946 0a2.153 2.153 0 100 4.306h2.166V3.77H8.944z" fill="#000"/></svg>