<svg fill="none" xmlns="http://www.w3.org/2000/svg" viewBox="0 0 24 24" width="20" height="20"><path d="M18 22H6a2 2 0 01-2-2V4a2 2 0 012-2h7a.104.104 0 01.027 0h.006a.15.15 0 00.029.006c.088.006.175.023.259.051h.042a.421.421 0 01.052.043.988.988 0 01.293.2l6 6a.987.987 0 01.2.293.735.735 0 01.023.066l.01.028c.028.083.044.17.049.258a.1.1 0 00.007.029v.006A.112.112 0 0120 9v11a2 2 0 01-2 2zm-2.5-8c-.454-.024-.89.18-1.161.545a2.6 2.6 0 00-.4 1.547v.876a2.426 2.426 0 00.432 1.514c.29.35.728.541 1.181.518.28.003.557-.05.816-.154l.013-.005-.016.007c.245-.101.46-.26.63-.464v-2.011h-1.509v.742h.623v.893l-.078.06a.723.723 0 01-.427.117.641.641 0 01-.592-.3 2.01 2.01 0 01-.178-.969v-.883a2.018 2.018 0 01.166-.926.557.557 0 01.523-.292.531.531 0 01.435.171c.117.19.177.41.175.632H17a1.96 1.96 0 00-.423-1.227A1.4 1.4 0 0015.5 14zM7 17.4c-.006.296.063.59.2.852.126.234.317.426.55.555.237.129.503.195.773.193.366.02.724-.11.994-.357a1.33 1.33 0 00.366-.993c.013-.34-.09-.676-.293-.95a2.186 2.186 0 00-.934-.632 1.652 1.652 0 01-.513-.334.536.536 0 01-.143-.367.608.608 0 01.13-.408.45.45 0 01.363-.154c.148-.008.29.06.377.181A.853.853 0 019 15.5h.886a1.739 1.739 0 00-.172-.782 1.245 1.245 0 00-.487-.531A1.382 1.382 0 008.505 14a1.409 1.409 0 00-1 .374 1.3 1.3 0 00-.393.986 1.4 1.4 0 00.291.882c.258.293.585.516.951.649.186.072.356.18.5.317.101.127.15.287.139.448 0 .361-.157.544-.465.544a.58.58 0 01-.484-.19 1.012 1.012 0 01-.148-.612L7 17.4zm3.182-3.332l1.26 4.866h.925l1.269-4.866h-.991L11.9 17.6l-.737-3.529-.981-.003zM13 4v5h5l-5-5z" fill="#000"/></svg>