<svg fill="none" xmlns="http://www.w3.org/2000/svg" viewBox="0 0 24 24" width="20" height="20"><path d="M18 22H6a2 2 0 01-2-2V4a2 2 0 012-2h7a.104.104 0 01.027 0h.006a.15.15 0 00.029.006c.088.006.175.023.259.051h.042a.421.421 0 01.052.043.988.988 0 01.293.2l6 6a.987.987 0 01.2.293.735.735 0 01.023.066l.01.028c.028.083.044.17.049.258a.1.1 0 00.007.029v.006A.112.112 0 0120 9v11a2 2 0 01-2 2zm-2.539-8a1.4 1.4 0 00-1.188.545 2.552 2.552 0 00-.406 1.547v.876c-.029.54.128 1.074.443 1.514.3.35.746.542 1.207.518.286.003.57-.05.836-.154h.008-.006a.189.189 0 01.029-.014h.005l.016-.008.021-.01c.218-.1.412-.247.568-.43v-2.011H15.45v.742h.637v.893l-.08.06a.753.753 0 01-.436.117.661.661 0 01-.607-.3 1.962 1.962 0 01-.183-.969v-.883a1.985 1.985 0 01.173-.925.574.574 0 01.535-.292.55.55 0 01.446.171c.12.19.182.408.18.632H17a1.933 1.933 0 00-.433-1.227c-.297-.28-.7-.421-1.106-.392zM7 17.5c-.021.396.1.787.344 1.1.244.272.598.419.963.4.362.009.709-.149.941-.427a1.7 1.7 0 00.365-1.137v-3.369H8.7v3.322c0 .528-.133.8-.4.8s-.393-.232-.393-.689H7zm3.327-3.429v4.866h.91v-1.715h.607c.405.022.802-.128 1.09-.414a1.58 1.58 0 00.392-1.13 1.69 1.69 0 00-.4-1.164c-.27-.3-.661-.464-1.065-.447l-1.534.004zM13 4v5h5l-5-5zm-1.138 12.4h-.625v-1.515h.635c.16 0 .307.084.39.221.105.174.156.375.146.578a.866.866 0 01-.142.535.483.483 0 01-.404.181z" fill="#000"/></svg>