<svg fill="none" xmlns="http://www.w3.org/2000/svg" viewBox="0 0 24 24" width="20" height="20"><path d="M10.396 22a1.84 1.84 0 01-.918-.246l-4.52-2.61a1.84 1.84 0 01-.917-1.588v-5.22a1.84 1.84 0 01.917-1.589l1.373-.793v1.71a2.76 2.76 0 001.376 2.383l4.521 2.61a2.75 2.75 0 002.752 0l1.772-1.022v1.921a1.84 1.84 0 01-.917 1.589l-4.521 2.61a1.84 1.84 0 01-.918.245zm3.207-5.891c-.322 0-.638-.085-.917-.246l-4.521-2.61a1.84 1.84 0 01-.918-1.589v-5.22c.001-.655.35-1.26.918-1.59l4.521-2.608a1.834 1.834 0 011.834 0l4.521 2.61c.567.328.916.934.917 1.589v5.22c0 .655-.35 1.26-.917 1.589l-4.521 2.61c-.279.16-.595.245-.917.245z" fill="#000"/></svg>