<svg fill="none" xmlns="http://www.w3.org/2000/svg" viewBox="0 0 24 24" width="20" height="20"><path d="M11.398 21.009H8.874a.392.392 0 01-.33-.15.459.459 0 01-.09-.363c.04-.241.09-.559.152-.963l.114-.727a313.336 313.336 0 01.348-2.188v-.02l.188-1.164.1-.619v-.005c.072-.445.129-.798.17-1.061a.39.39 0 01.433-.371h1.52a10.08 10.08 0 002.171-.212 6.09 6.09 0 002.886-1.449 6.084 6.084 0 001.56-2.473c.152-.436.27-.884.352-1.338.007-.042.015-.066.025-.074a.03.03 0 01.025-.012h.01a.31.31 0 01.062.035c.525.397.876.982.98 1.632.118.68.105 1.376-.04 2.051a5.406 5.406 0 01-1.857 3.35 6.053 6.053 0 01-3.825 1.116h-.439a.662.662 0 00-.444.166.722.722 0 00-.239.427l-.04.194-.554 3.478-.02.151a.706.706 0 01-.249.427.67.67 0 01-.445.162zm-3.578-2H4.855a.473.473 0 01-.369-.165.466.466 0 01-.115-.39l2.331-14.79a.775.775 0 01.277-.483.783.783 0 01.518-.19h6.014c.33.013.658.057.98.131.382.073.758.18 1.122.32a3.425 3.425 0 011.645 1.238 3.41 3.41 0 01.568 1.972 7.11 7.11 0 01-.46 2.374 4.909 4.909 0 01-3.042 3.165 8.046 8.046 0 01-2.535.425c-.01.006-.44.007-.9.007l-.9-.007a1.083 1.083 0 00-1.187.964c-.013.054-.317 1.947-.855 5.329a.107.107 0 01-.128.105l.001-.005z" fill="#000"/></svg>