<svg fill="none" xmlns="http://www.w3.org/2000/svg" viewBox="0 0 24 24" width="20" height="20"><path d="M12 22C6.477 22 2 17.523 2 12S6.477 2 12 2s10 4.477 10 10c-.006 5.52-4.48 9.994-10 10zM6.807 10.543a1.46 1.46 0 00-.608 2.787 2.562 2.562 0 000 .439c0 2.24 2.615 4.062 5.829 4.062 3.214 0 5.83-1.822 5.83-4.062a2.773 2.773 0 000-.439 1.441 1.441 0 00-.648-2.737h-.053A1.456 1.456 0 0016.2 11a7.116 7.116 0 00-3.85-1.23L13 6.65l2.138.45a1 1 0 001.102.886 1 1 0 00-.1-1.995.847.847 0 00-.113.009 1 1 0 00-.759.492L12.82 6a.31.31 0 00-.366.237l-.748 3.473a7.123 7.123 0 00-3.9 1.229 1.45 1.45 0 00-.999-.396zm5.373 5.981h-.338a3.852 3.852 0 01-2.3-.773.269.269 0 01.379-.38c.56.41 1.238.631 1.933.629h.324a3.268 3.268 0 001.912-.614.28.28 0 01.4 0 .284.284 0 01-.005.4v-.04a3.837 3.837 0 01-2.305.777v.001zm2.127-2.444h-.016l.008-.039a.939.939 0 11.736-.281.988.988 0 01-.694.32h-.035.001zM9.67 14a1 1 0 110-2 1 1 0 010 2z" fill="#000"/></svg>