<svg fill="none" xmlns="http://www.w3.org/2000/svg" viewBox="0 0 24 24" width="20" height="20"><path d="M12 22C6.477 22 2 17.523 2 12S6.477 2 12 2s10 4.477 10 10c-.006 5.52-4.48 9.994-10 10zm0-18a8 8 0 108 8 8.009 8.009 0 00-8-8zm-2 14c-.014 0-.14-.005-1-.005H8v-.066c0-.033 0-.078.007-.133a4.7 4.7 0 01.472-1.743 3.6 3.6 0 011.23-1.414l.014-.009.016-.012.015-.008h.025l.011-.007A4.117 4.117 0 0112 14a4.06 4.06 0 012.29.635c.527.355.951.843 1.23 1.414.204.414.346.855.419 1.311.032.188.046.339.052.432 0 .044.006.088.007.133v.062h-2v-.059c0-.055-.013-.14-.031-.246a2.698 2.698 0 00-.236-.747 1.638 1.638 0 00-.551-.645A2.11 2.11 0 0012 16a2.11 2.11 0 00-1.18.3 1.647 1.647 0 00-.551.645 2.716 2.716 0 00-.266.993v.058H10V18zm-1.5-6a1.5 1.5 0 110-3 1.5 1.5 0 010 3zm6.993-.014a1.493 1.493 0 110-2.986 1.493 1.493 0 010 2.986z" fill="#000"/></svg>