<svg fill="none" xmlns="http://www.w3.org/2000/svg" viewBox="0 0 24 24" width="20" height="20"><path d="M13.82 22h-3.64a1 1 0 01-.977-.786l-.407-1.884a8.002 8.002 0 01-1.535-.887l-1.837.585a1 1 0 01-1.17-.453L2.43 15.424a1.006 1.006 0 01.193-1.239l1.425-1.3a8.1 8.1 0 010-1.772L2.623 9.816a1.006 1.006 0 01-.193-1.24l1.82-3.153a1 1 0 011.17-.453l1.837.585c.244-.18.498-.348.76-.5.253-.142.513-.271.779-.386l.408-1.882A1 1 0 0110.18 2h3.64a1 1 0 01.976.787l.412 1.883a8.192 8.192 0 011.535.887l1.838-.585a1 1 0 011.169.453l1.82 3.153c.232.407.152.922-.193 1.239l-1.425 1.3a8.1 8.1 0 010 1.772l1.425 1.3c.345.318.425.832.193 1.239l-1.82 3.153a1 1 0 01-1.17.453l-1.837-.585a7.98 7.98 0 01-1.534.886l-.413 1.879a1 1 0 01-.976.786zM11.996 8a4 4 0 100 8 4 4 0 000-8z" fill="#000"/></svg>