<svg fill="none" xmlns="http://www.w3.org/2000/svg" viewBox="0 0 24 24" width="20" height="20"><path d="M12 19c-1.64.02-3.263-.334-4.746-1.035a10.076 10.076 0 01-3.041-2.282A10.59 10.59 0 012.1 12.316L2 12l.105-.316a10.66 10.66 0 012.109-3.367 10.074 10.074 0 013.04-2.282A10.785 10.785 0 0112 5c1.64-.02 3.263.334 4.746 1.035 1.15.56 2.181 1.335 3.041 2.282.912.978 1.63 2.12 2.113 3.367L22 12l-.105.316A10.423 10.423 0 0112 19zm0-12a8.308 8.308 0 00-7.883 5A8.307 8.307 0 0012 17a8.309 8.309 0 007.883-5A8.3 8.3 0 0012 7zm0 8a3.02 3.02 0 112.115-.884A2.976 2.976 0 0112 15z" fill="#000"/></svg>