<svg fill="none" xmlns="http://www.w3.org/2000/svg" viewBox="0 0 24 24" width="20" height="20"><path d="M12.01 22A9.978 9.978 0 014.954 4.954a9.978 9.978 0 1114.111 14.111A9.919 9.919 0 0112.01 22zm-1.482-6.728a9.794 9.794 0 015.227 1.384.59.59 0 00.33.1.632.632 0 00.521-.3.7.7 0 00.042-.545.519.519 0 00-.293-.3 11.039 11.039 0 00-5.88-1.549c-1.283.01-2.56.16-3.81.449a.628.628 0 00-.45.749.656.656 0 00.591.472.56.56 0 00.157-.023 16.12 16.12 0 013.565-.437zm-.19-2.976a12.648 12.648 0 016.416 1.661c.111.08.245.124.383.124.27-.01.518-.15.668-.373a.71.71 0 00.1-.586.622.622 0 00-.3-.412 14.262 14.262 0 00-7.268-1.911 13.768 13.768 0 00-3.972.56.773.773 0 00-.5.952.738.738 0 00.741.523.85.85 0 00.213-.025 11.66 11.66 0 013.52-.513zm.19-3.088a14.987 14.987 0 017.376 1.7c.153.084.326.127.5.125a1 1 0 00.8-.373.985.985 0 00.088-.724.91.91 0 00-.436-.574 16.838 16.838 0 00-8.337-1.964 17.36 17.36 0 00-4.758.614.915.915 0 00.287 1.789.916.916 0 00.262-.038 14.7 14.7 0 014.217-.556v.001z" fill="#000"/></svg>