<svg fill="none" xmlns="http://www.w3.org/2000/svg" viewBox="0 0 24 24" width="20" height="20"><path d="M18.75 21H5.25A2.253 2.253 0 013 18.75V5.25A2.253 2.253 0 015.25 3h13.5A2.253 2.253 0 0121 5.25v13.5A2.253 2.253 0 0118.75 21zM6.42 5.34a1.08 1.08 0 00-1.08 1.08v10.215c0 .596.484 1.08 1.08 1.08h3.33a1.08 1.08 0 001.08-1.08V6.42a1.08 1.08 0 00-1.08-1.08H6.42zm7.83 0a1.08 1.08 0 00-1.08 1.08v5.715c0 .596.484 1.08 1.08 1.08h3.33a1.08 1.08 0 001.08-1.08V6.42a1.08 1.08 0 00-1.08-1.08h-3.33z" fill="#000"/></svg>