<svg xmlns="http://www.w3.org/2000/svg" viewBox="0 0 448 512" width="20" height="20"><path d="M32 480a32 32 0 110-64 32 32 0 110 64zm96-64a32 32 0 110 64 32 32 0 110-64zm0-384a32 32 0 110 64 32 32 0 110-64zm0 256a32 32 0 110-64 32 32 0 110 64zm192 128a32 32 0 110 64 32 32 0 110-64zm0-320a32 32 0 110-64 32 32 0 110 64zm0 128a32 32 0 110 64 32 32 0 110-64zm-96 256a32 32 0 110-64 32 32 0 110 64zm0-448a32 32 0 110 64 32 32 0 110-64zm0 256a32 32 0 110-64 32 32 0 110 64zm192 128a32 32 0 110 64 32 32 0 110-64zm0-384a32 32 0 110 64 32 32 0 110-64zM32 96a32 32 0 110-64 32 32 0 110 64zm384 128a32 32 0 110 64 32 32 0 110-64zM32 288a32 32 0 110-64 32 32 0 110 64zm192 32a32 32 0 110 64 32 32 0 110-64zm192 64a32 32 0 110-64 32 32 0 110 64zM32 320a32 32 0 110 64 32 32 0 110-64zm384-128a32 32 0 110-64 32 32 0 110 64zM32 128a32 32 0 110 64 32 32 0 110-64zm192 64a32 32 0 110-64 32 32 0 110 64z"/></svg>