<svg xmlns="http://www.w3.org/2000/svg" viewBox="0 0 640 512" width="20" height="20"><path d="M0 96a64 64 0 11128 0A64 64 0 110 96zm224 176a16 16 0 100-32 16 16 0 100 32zm0-80a64 64 0 110 128 64 64 0 110-128zM80 416a16 16 0 10-32 0 16 16 0 1032 0zm-80 0a64 64 0 11128 0 64 64 0 11-128 0zm240 0a16 16 0 10-32 0 16 16 0 1032 0zm-80 0a64 64 0 11128 0 64 64 0 11-128 0zM64 192a64 64 0 110 128 64 64 0 110-128zM224 32a64 64 0 110 128 64 64 0 110-128zm128 64a64 64 0 11128 0 64 64 0 11-128 0zm240 0a16 16 0 10-32 0 16 16 0 1032 0zm-80 0a64 64 0 11128 0 64 64 0 11-128 0zm64 176a16 16 0 100-32 16 16 0 100 32zm0-80a64 64 0 110 128 64 64 0 110-128zm16 224a16 16 0 10-32 0 16 16 0 1032 0zm-80 0a64 64 0 11128 0 64 64 0 11-128 0zm-96-144a16 16 0 100-32 16 16 0 100 32zm0-80a64 64 0 110 128 64 64 0 110-128zm16 224a16 16 0 10-32 0 16 16 0 1032 0zm-80 0a64 64 0 11128 0 64 64 0 11-128 0z"/></svg>