<svg xmlns="http://www.w3.org/2000/svg" viewBox="0 0 512 512" width="20" height="20"><path d="M256 512a256 256 0 100-512 256 256 0 100 512zm132.1-199.2c12.3-3.8 24.3 6.9 19.3 18.7-25 59.1-83.2 100.5-151.1 100.5s-126.2-41.4-151.1-100.5c-5-11.8 7-22.5 19.3-18.7 39.7 12.2 84.5 19 131.8 19s92.1-6.8 131.8-19zm-16.9-79.2c-17.6-23.5-52.8-23.5-70.4 0-5.3 7.1-15.3 8.5-22.4 3.2s-8.5-15.3-3.2-22.4c30.4-40.5 91.2-40.5 121.6 0 5.3 7.1 3.9 17.1-3.2 22.4s-17.1 3.9-22.4-3.2zM176.4 176a32 32 0 110 64 32 32 0 110-64z"/></svg>