<svg xmlns="http://www.w3.org/2000/svg" viewBox="0 0 512 512" width="20" height="20"><path d="M256 512a256 256 0 100-512 256 256 0 100 512zm132.1-199.2c12.3-3.8 24.3 6.9 19.3 18.7-25 59.1-83.2 100.5-151.1 100.5s-126.2-41.4-151.1-100.5c-5-11.8 7-22.5 19.3-18.7 39.7 12.2 84.5 19 131.8 19s92.1-6.8 131.8-19zM133.5 146.7l89.9 47.9c10.7 5.7 10.7 21.1 0 26.8l-89.9 47.9c-7.9 4.2-17.5-1.5-17.5-10.5 0-2.8 1-5.5 2.8-7.6l36-43.2-36-43.2c-1.8-2.1-2.8-4.8-2.8-7.6 0-9 9.6-14.7 17.5-10.5zM396 157.1c0 2.8-1 5.5-2.8 7.6l-36 43.2 36 43.2c1.8 2.1 2.8 4.8 2.8 7.6 0 9-9.6 14.7-17.5 10.5l-89.9-47.9c-10.7-5.7-10.7-21.1 0-26.8l89.9-47.9c7.9-4.2 17.5 1.5 17.5 10.5z"/></svg>