<svg xmlns="http://www.w3.org/2000/svg" viewBox="0 0 512 512" width="20" height="20"><path d="M288 32c0-17.7-14.3-32-32-32s-32 14.3-32 32v208c0 8.8-7.2 16-16 16s-16-7.2-16-16V64c0-17.7-14.3-32-32-32s-32 14.3-32 32v272c0 1.5 0 3.1.1 4.6L67.6 283c-16-15.2-41.3-14.6-56.6 1.4s-14.6 41.3 1.4 56.6l112.4 107c43.1 41.1 100.4 64 160 64H304c97.2 0 176-78.8 176-176V128c0-17.7-14.3-32-32-32s-32 14.3-32 32v112c0 8.8-7.2 16-16 16s-16-7.2-16-16V64c0-17.7-14.3-32-32-32s-32 14.3-32 32v176c0 8.8-7.2 16-16 16s-16-7.2-16-16V32zm-48 304a16 16 0 1132 0 16 16 0 11-32 0zm80 16a16 16 0 110 32 16 16 0 110-32zm48-16a16 16 0 1132 0 16 16 0 11-32 0zm-16 80a16 16 0 110 32 16 16 0 110-32zm-112 16a16 16 0 1132 0 16 16 0 11-32 0zm-48-48a16 16 0 110 32 16 16 0 110-32z"/></svg>