<svg xmlns="http://www.w3.org/2000/svg" viewBox="0 0 512 512" width="20" height="20"><path d="M337.8 14.8C341.5 5.8 350.3 0 360 0h112c13.3 0 24 10.7 24 24v112c0 9.7-5.8 18.5-14.8 22.2s-19.3 1.7-26.2-5.2l-39-39-24.7 24.7C407 163.3 416 192.6 416 224c0 80.2-59.1 146.7-136.1 158.2 0 .6.1 1.2.1 1.8v23.8h24c13.3 0 24 10.7 24 24s-10.7 24-24 24h-24v31.9h-48v-3 .3-1.1.1-10.1.1-4.4.4-14h-24c-13.3 0-24-10.7-24-24s10.7-24 24-24h24v-20.2.2-4c0-.6 0-1.2.1-1.8C155.1 370.7 96 304.2 96 224c0-88.4 71.6-160 160-160 39.6 0 75.9 14.4 103.8 38.2L382.1 80 343 41c-6.9-6.9-8.9-17.2-5.2-26.2zM448 48zM256 488h24c0 13.3-10.7 24-24 24s-24-10.7-24-24h24zm96-264c0-53-43-96-96-96s-96 43-96 96 43 96 96 96 96-43 96-96z"/></svg>