<svg viewBox="0 0 24 24" xmlns="http://www.w3.org/2000/svg" width="20" height="20"><path d="M18.223 3.086a1.25 1.25 0 010 1.768L17.08 5.996h1.17A3.75 3.75 0 0122 9.746v7.5a3.75 3.75 0 01-3.75 3.75H5.75A3.75 3.75 0 012 17.246v-7.5a3.75 3.75 0 013.75-3.75h1.166L5.775 4.855a1.25 1.25 0 011.767-1.768l2.652 2.651c.079.08.145.166.198.258h3.213c.053-.092.12-.18.199-.259l2.651-2.651a1.25 1.25 0 011.768 0zm.027 5.42H5.75a1.25 1.25 0 00-1.247 1.157l-.003.093v7.5c0 .66.51 1.2 1.157 1.247l.093.003h12.5a1.25 1.25 0 001.247-1.156l.003-.094v-7.5c0-.69-.56-1.25-1.25-1.25zm-10 2.5c.69 0 1.25.56 1.25 1.25v1.25a1.25 1.25 0 01-2.5 0v-1.25c0-.69.56-1.25 1.25-1.25zm7.5 0c.69 0 1.25.56 1.25 1.25v1.25a1.25 1.25 0 01-2.5 0v-1.25c0-.69.56-1.25 1.25-1.25z"/></svg>