<svg viewBox="0 0 24 24" xmlns="http://www.w3.org/2000/svg" width="20" height="20"><path d="M7.79 15.714c-.144-.456-.24-1.039-.245-1.339-.006-.299.06-.797.06-.797l-4.509 3.69c-.787.636-1.846.635-2.344-.004-.491-.628-.24-1.62.54-2.217l8.293-6.364-4.628.006c-.785-.003-1.298-.532-1.15-1.17.143-.626.869-1.121 1.624-1.122l9.146-.01-2.995-2.439c-.466-.382-.407-.989.118-1.355.518-.363 1.31-.364 1.782-.002l7.204 5.53-.002.002a7.43 7.43 0 011.775 1.958 6.823 6.823 0 011.021 4.13 6.7 6.7 0 01-.287 1.478 7.124 7.124 0 01-1.526 2.648A7.942 7.942 0 0119 20.263a8.592 8.592 0 01-3.505.74 8.584 8.584 0 01-3.508-.728 7.884 7.884 0 01-2.67-1.918 7.064 7.064 0 01-1.527-2.643zm7.703 1.815c1.408-.003 2.708-.54 3.637-1.486.454-.462.787-.992.993-1.558.201-.555.28-1.143.229-1.736a4.103 4.103 0 00-.5-1.634 4.49 4.49 0 00-1.104-1.31 5.141 5.141 0 00-3.257-1.127 5.151 5.151 0 00-3.255 1.136 4.52 4.52 0 00-1.105 1.314 4.1 4.1 0 00-.27 3.372c.206.565.54 1.094.994 1.555.929.945 2.23 1.477 3.638 1.474zm-2.018-6.626a3.28 3.28 0 012.12-.758c.815 0 1.564.288 2.12.758.566.48.942 1.155.985 1.922.043.788-.274 1.52-.83 2.063a3.249 3.249 0 01-2.275.899 3.25 3.25 0 01-2.277-.9c-.556-.542-.872-1.274-.828-2.062.043-.767.418-1.442.985-1.922zm0 0c-.567.48-.942 1.155-.985 1.922-.044.788.272 1.52.829 2.063a3.25 3.25 0 002.276.899c.903 0 1.709-.347 2.276-.9.555-.542.872-1.274.83-2.062-.044-.767-.42-1.442-.986-1.922a3.282 3.282 0 00-2.12-.758 3.28 3.28 0 00-2.12.758zM7.79 15.714c-.143-.456-.239-1.039-.244-1.339-.006-.299.06-.797.06-.797l-4.509 3.69c-.787.636-1.846.635-2.344-.004-.491-.628-.24-1.62.54-2.217l8.293-6.364-4.628.006c-.785-.003-1.298-.532-1.15-1.17.143-.626.869-1.121 1.624-1.122l9.146-.01-2.995-2.439c-.466-.382-.407-.989.118-1.355.518-.363 1.31-.364 1.782-.002l7.204 5.53-.002.002a7.43 7.43 0 011.775 1.958 6.823 6.823 0 011.021 4.13 6.7 6.7 0 01-.287 1.478 7.124 7.124 0 01-1.526 2.648A7.942 7.942 0 0119 20.263a8.592 8.592 0 01-3.505.74 8.584 8.584 0 01-3.508-.728 7.884 7.884 0 01-2.67-1.918 7.064 7.064 0 01-1.527-2.643zm7.704 1.815c1.408-.003 2.708-.54 3.637-1.486.454-.462.787-.992.993-1.558.201-.555.28-1.143.229-1.736a4.103 4.103 0 00-.5-1.634 4.49 4.49 0 00-1.104-1.31 5.141 5.141 0 00-3.257-1.127 5.151 5.151 0 00-3.255 1.136 4.52 4.52 0 00-1.105 1.314 4.1 4.1 0 00-.27 3.372c.206.565.54 1.094.994 1.555.929.945 2.23 1.477 3.638 1.474z"/></svg>