<svg viewBox="0 0 24 24" xmlns="http://www.w3.org/2000/svg" width="20" height="20"><path d="M13.028 2.001a78.82 78.82 0 012.189.022l.194.007c.224.008.445.018.712.03 1.064.05 1.79.218 2.427.465.66.254 1.216.598 1.772 1.154a4.908 4.908 0 011.153 1.771c.247.637.415 1.364.465 2.428.012.266.022.488.03.712l.006.194a79 79 0 01.023 2.188l.001.746v1.31a78.836 78.836 0 01-.023 2.189l-.006.194c-.008.224-.018.445-.03.712-.05 1.064-.22 1.79-.466 2.427a4.884 4.884 0 01-1.153 1.772 4.915 4.915 0 01-1.772 1.153c-.637.247-1.363.415-2.427.465-.267.012-.488.022-.712.03l-.194.006a79 79 0 01-2.189.023l-.746.001h-1.309a78.836 78.836 0 01-2.189-.023l-.194-.006a60.64 60.64 0 01-.712-.03c-1.064-.05-1.79-.22-2.428-.466a4.89 4.89 0 01-1.771-1.153 4.904 4.904 0 01-1.154-1.772c-.247-.637-.415-1.363-.465-2.427a74.367 74.367 0 01-.03-.712l-.005-.194A79.053 79.053 0 012 13.028v-2.056a78.82 78.82 0 01.022-2.188l.007-.194c.008-.224.018-.446.03-.712.05-1.065.218-1.79.465-2.428A4.88 4.88 0 013.68 3.68a4.897 4.897 0 011.77-1.155c.638-.247 1.363-.415 2.428-.465l.712-.03.194-.005A79.053 79.053 0 0110.972 2h2.056zm-1.028 5A5 5 0 1012 17a5 5 0 000-10zm0 2A3 3 0 1112.001 15a3 3 0 010-6zm5.25-3.5a1.25 1.25 0 000 2.498 1.25 1.25 0 000-2.5z"/></svg>