<svg viewBox="0 0 24 24" xmlns="http://www.w3.org/2000/svg" width="20" height="20"><path d="M22.001 10.69c0 1.787-.687 3.4-2.123 4.974-2.1 2.414-6.788 5.363-7.864 5.812-1.074.451-.911-.286-.874-.537l.137-.85c.034-.262.068-.65-.032-.9-.112-.277-.556-.423-.881-.492C5.559 18.06 2 14.7 2 10.691c0-4.476 4.487-8.119 10-8.119s10 3.643 10 8.119zm-3.6 3.626c1.113-1.22 1.6-2.362 1.6-3.625 0-3.269-3.51-6.119-8-6.119s-8 2.85-8 6.119c0 2.904 2.728 5.506 6.626 6.024l.147.025c1.079.226 1.884.614 2.329 1.708l.037.096c1.805-1.176 4.173-2.979 5.26-4.228zm-.262-4.001a.526.526 0 010 1.05h-1.463v.938h1.463a.525.525 0 110 1.05H16.15a.526.526 0 01-.522-.525V8.852c0-.287.235-.525.525-.525h1.988a.526.526 0 01-.002 1.05h-1.463v.938h1.463zm-3.213 2.513a.525.525 0 01-.526.523.515.515 0 01-.425-.209l-2.036-2.764v2.45a.525.525 0 01-1.047 0V8.852a.522.522 0 01.52-.523.54.54 0 01.412.212l2.052 2.775V8.852c0-.287.235-.525.525-.525.287 0 .525.238.525.525v3.976zm-4.784 0a.527.527 0 01-.526.524.526.526 0 01-.523-.524V8.852c0-.287.235-.525.525-.525.289 0 .524.238.524.525v3.976zm-2.055.524H6.098a.528.528 0 01-.525-.524V8.852c0-.287.238-.525.525-.525.29 0 .525.238.525.525v3.451h1.464a.525.525 0 010 1.05z"/></svg>