<svg viewBox="0 0 24 24" xmlns="http://www.w3.org/2000/svg" width="20" height="20"><path d="M18.663 10.84a.526.526 0 01-.524.526h-1.463v.937h1.463a.525.525 0 110 1.05H16.15a.526.526 0 01-.522-.525V8.852c0-.287.235-.525.525-.525h1.988a.526.526 0 01-.002 1.05h-1.463v.938h1.463c.29 0 .524.237.524.526zm-4.097 2.485a.539.539 0 01-.166.026.515.515 0 01-.425-.209l-2.036-2.764v2.45a.525.525 0 01-1.047 0V8.852a.522.522 0 01.52-.523.54.54 0 01.412.212l2.052 2.775V8.852c0-.287.235-.525.525-.525.287 0 .525.238.525.525v3.976a.525.525 0 01-.36.497zm-4.95.027a.526.526 0 01-.523-.524V8.852c0-.287.235-.525.525-.525.289 0 .524.238.524.525v3.976a.527.527 0 01-.526.524zm-1.53 0H6.099a.528.528 0 01-.525-.524V8.852c0-.287.238-.525.525-.525.29 0 .525.238.525.525v3.451h1.464a.525.525 0 010 1.05zm3.915-10.78c-5.513 0-10 3.643-10 8.119 0 4.009 3.558 7.368 8.363 8.006.325.069.769.215.881.492.1.25.066.638.032.9l-.137.85c-.037.25-.2.988.874.537 1.076-.449 5.764-3.398 7.864-5.812C21.314 14.09 22 12.477 22 10.69c0-4.476-4.488-8.119-10-8.119z"/></svg>