<svg viewBox="0 0 24 24" xmlns="http://www.w3.org/2000/svg" width="20" height="20"><path d="M6.527 14.514a1.973 1.973 0 01-1.967 1.968 1.973 1.973 0 01-1.968-1.968c0-1.083.885-1.968 1.968-1.968h1.967v1.968zm.992 0c0-1.083.885-1.968 1.968-1.968s1.967.885 1.967 1.968v4.927a1.973 1.973 0 01-1.967 1.968 1.973 1.973 0 01-1.968-1.968v-4.927zm1.968-7.987A1.973 1.973 0 017.519 4.56c0-1.083.885-1.968 1.968-1.968s1.967.885 1.967 1.968v1.967H9.487zm0 .992c1.083 0 1.967.885 1.967 1.968a1.973 1.973 0 01-1.967 1.967H4.56a1.973 1.973 0 01-1.968-1.967c0-1.083.885-1.968 1.968-1.968h4.927zm7.986 1.968c0-1.083.885-1.968 1.968-1.968s1.968.885 1.968 1.968a1.973 1.973 0 01-1.968 1.967h-1.968V9.487zm-.991 0a1.973 1.973 0 01-1.968 1.967 1.973 1.973 0 01-1.968-1.967V4.56c0-1.083.885-1.968 1.968-1.968s1.968.885 1.968 1.968v4.927zm-1.968 7.986c1.083 0 1.968.885 1.968 1.968a1.973 1.973 0 01-1.968 1.968 1.973 1.973 0 01-1.968-1.968v-1.968h1.968zm0-.991a1.973 1.973 0 01-1.968-1.968c0-1.083.885-1.968 1.968-1.968h4.927c1.083 0 1.968.885 1.968 1.968a1.973 1.973 0 01-1.968 1.968h-4.927z"/></svg>