<svg viewBox="0 0 24 24" fill="currentColor" xmlns="http://www.w3.org/2000/svg" width="20" height="20"><path d="M8.127 6.22C9.177 5.377 10.499 5 12 5c1.409 0 2.485.33 3.358.834.74.425 1.354 1.007 1.948 1.61.646.657.996.976 1.437 1.086.473.118.873.082 1.239-.074.38-.163.791-.487 1.218-1.056l1.77.843c-.37 1.484-1.047 2.7-2.095 3.538C19.824 12.621 18.503 13 17 13c-1.408 0-2.484-.331-3.357-.834-.834-.48-1.443-1.098-1.92-1.583-.663-.672-1.018-1.001-1.465-1.113-.473-.118-.873-.082-1.239.074-.38.163-.792.487-1.219 1.056l-1.77-.843c.371-1.484 1.048-2.7 2.096-3.538zM12 7c-.828 0-1.495.146-2.033.408 1.32.082 2.181.895 3.057 1.721.504.476 1.013.956 1.617 1.304.56.322 1.29.567 2.36.567.828 0 1.495-.146 2.033-.408-1.32-.083-2.181-.895-3.056-1.721-.505-.476-1.013-.956-1.618-1.304C13.801 7.245 13.07 7 12 7zm-8.874 5.22C4.177 11.377 5.499 11 7 11c1.409 0 2.485.33 3.358.834.74.425 1.354 1.007 1.948 1.61.646.657.996.976 1.437 1.086.473.118.873.083 1.239-.074.38-.163.791-.487 1.218-1.056l1.77.842c-.37 1.485-1.047 2.7-2.095 3.539C14.824 18.621 13.503 19 12 19c-1.408 0-2.484-.331-3.357-.834-.834-.48-1.443-1.098-1.92-1.583-.663-.672-1.018-1.001-1.465-1.113-.473-.118-.873-.083-1.239.074-.38.163-.792.487-1.219 1.056l-1.77-.843c.371-1.484 1.048-2.7 2.096-3.538zM7 13c-.828 0-1.495.146-2.033.408 1.32.083 2.181.895 3.057 1.721.504.476 1.013.956 1.617 1.304.56.322 1.29.567 2.36.567.828 0 1.495-.146 2.033-.408-1.32-.082-2.181-.895-3.056-1.721-.505-.476-1.014-.956-1.618-1.304C8.801 13.245 8.07 13 7 13z"/></svg>