<svg xmlns="http://www.w3.org/2000/svg" fill="currentColor" viewBox="0 0 16 16" width="20" height="20"><path d="M14.5.5a.5.5 0 00-1 0V2H1a1 1 0 00-1 1v2h16V3a1 1 0 00-1-1h-.5V.5zM2.5 4a.5.5 0 110-1 .5.5 0 010 1zm2 0a.5.5 0 110-1 .5.5 0 010 1zm7.5-.5a.5.5 0 11-1 0 .5.5 0 011 0zm1.5.5a.5.5 0 110-1 .5.5 0 010 1zm-7-1h3a.5.5 0 010 1h-3a.5.5 0 010-1zm-2 9a1.5 1.5 0 100-3 1.5 1.5 0 000 3zm.5-1.5a.5.5 0 11-1 0 .5.5 0 011 0zm6.5 1.5a1.5 1.5 0 100-3 1.5 1.5 0 000 3zm0-1a.5.5 0 100-1 .5.5 0 000 1z"/><path d="M16 6H0v8a1 1 0 001 1h14a1 1 0 001-1V6zM4.5 13a2.5 2.5 0 110-5 2.5 2.5 0 010 5zm7 0a2.5 2.5 0 110-5 2.5 2.5 0 010 5z"/></svg>