<svg xmlns="http://www.w3.org/2000/svg" viewBox="0 0 256 256" width="20" height="20"><path fill="none" d="M0 0h256v256H0z"/><path d="M192 224V112l13.66-13.66a8 8 0 002.34-5.65V48a8 8 0 00-8-8h-24v32h-32V40h-32v32H80V40H56a8 8 0 00-8 8v44.69a8 8 0 002.34 5.65L64 112v112" fill="none" stroke="currentColor" stroke-linecap="round" stroke-linejoin="round" stroke-width="12"/><path d="M104 224v-56a24 24 0 0148 0v56M40 224h176" fill="none" stroke="currentColor" stroke-linecap="round" stroke-linejoin="round" stroke-width="12"/></svg>