<svg xmlns="http://www.w3.org/2000/svg" viewBox="0 0 256 256" width="20" height="20"><path fill="none" d="M0 0h256v256H0z"/><path fill="none" stroke="currentColor" stroke-linecap="round" stroke-linejoin="round" stroke-width="12" d="M128 192v32M128 48v40M144 176l-16 16-16-16M96 53.01V88M160 53.01V88"/><path d="M67.6 67.6h0a102.87 102.87 0 01120.8 0h0l21.94-25.24A8 8 0 01224 48v88c0 48.6-43 88-96 88s-96-39.4-96-88V48a8 8 0 0113.66-5.66z" fill="none" stroke="currentColor" stroke-linecap="round" stroke-linejoin="round" stroke-width="12"/><circle cx="84" cy="140" r="10"/><circle cx="172" cy="140" r="10"/></svg>