<svg xmlns="http://www.w3.org/2000/svg" viewBox="0 0 256 256" width="20" height="20"><path fill="none" d="M0 0h256v256H0z"/><path d="M131.84 25l88 48.18a8 8 0 014.16 7v95.64a8 8 0 01-4.16 7l-88 48.18a8 8 0 01-7.68 0l-88-48.18a8 8 0 01-4.16-7V80.18a8 8 0 014.16-7l88-48.18a8 8 0 017.68 0zM128 128v104" fill="none" stroke="currentColor" stroke-linecap="round" stroke-linejoin="round" stroke-width="12"/><path fill="none" stroke="currentColor" stroke-linecap="round" stroke-linejoin="round" stroke-width="12" d="M32.03 125.73L80 152v54.84M224 125.72L176 152v54.84M83.14 47.44L128 72l44.86-24.56M33.14 76.06L128 128l94.86-51.94"/></svg>