<svg xmlns="http://www.w3.org/2000/svg" viewBox="0 0 256 256" width="20" height="20"><path fill="none" d="M0 0h256v256H0z"/><path d="M182.43 113.17l4.88 4.89a16 16 0 010 22.63l-9 9a8 8 0 01-11.31 0L106.34 89a8 8 0 010-11.31l9-9a16 16 0 0122.63 0l4.89 4.88 25-25.1c10.79-10.79 28.37-11.45 39.44-1a28 28 0 01.57 40.15z" fill="none" stroke="currentColor" stroke-linecap="round" stroke-linejoin="round" stroke-width="12"/><path d="M159.31 141.94l-56.68 56.69a32 32 0 01-32.06 8h0l-20 8.74a8 8 0 01-8.86-1.67h0a5.74 5.74 0 01-1.2-6.36l9.19-21.06h0a32 32 0 017.7-32.87l56.69-56.68" fill="none" stroke="currentColor" stroke-linecap="round" stroke-linejoin="round" stroke-width="12"/></svg>