<svg xmlns="http://www.w3.org/2000/svg" viewBox="0 0 256 256" width="20" height="20"><path fill="none" d="M0 0h256v256H0z"/><circle cx="148" cy="44" r="20" fill="none" stroke="currentColor" stroke-linecap="round" stroke-linejoin="round" stroke-width="12"/><circle cx="212" cy="124" r="20" fill="none" stroke="currentColor" stroke-linecap="round" stroke-linejoin="round" stroke-width="12"/><circle cx="156" cy="212" r="20" fill="none" stroke="currentColor" stroke-linecap="round" stroke-linejoin="round" stroke-width="12"/><circle cx="56" cy="184" r="20" fill="none" stroke="currentColor" stroke-linecap="round" stroke-linejoin="round" stroke-width="12"/><circle cx="52" cy="84" r="20" fill="none" stroke="currentColor" stroke-linecap="round" stroke-linejoin="round" stroke-width="12"/><path fill="none" stroke="currentColor" stroke-linecap="round" stroke-linejoin="round" stroke-width="12" d="M201.26 140.88l-34.52 54.24M160.49 59.62l39.02 48.76M70.47 76.31l59.06-24.62M192.02 124.95L128 128M128 128l15.37-64.54M69.31 94.02L128 128M128 128l21.67 65.02M136.74 206.61l-61.48-17.22M71.79 171.72L128 128M55.2 164.02l-2.4-60.04"/></svg>