<svg xmlns="http://www.w3.org/2000/svg" viewBox="0 0 256 256" width="20" height="20"><path fill="none" d="M0 0h256v256H0z"/><path d="M176 128a239.32 239.32 0 01-17.93 91.2M163.77 96A48 48 0 0080 128a143.3 143.3 0 01-18 69.73" fill="none" stroke="currentColor" stroke-linecap="round" stroke-linejoin="round" stroke-width="12"/><path d="M96 37.46A96.07 96.07 0 01224 128a288.93 288.93 0 01-7.14 64M23.29 168A95.65 95.65 0 0032 128a95.78 95.78 0 0132-71.55M110.57 208q-3 6.63-6.56 13M128 128a192.3 192.3 0 01-6 48" fill="none" stroke="currentColor" stroke-linecap="round" stroke-linejoin="round" stroke-width="12"/></svg>