<svg xmlns="http://www.w3.org/2000/svg" viewBox="0 0 256 256" width="20" height="20"><path fill="none" d="M0 0h256v256H0z"/><path fill="none" stroke="currentColor" stroke-linecap="round" stroke-linejoin="round" stroke-width="12" d="M184 120h64M184 80h42.58a8 8 0 017.42 5l14 35v64a8 8 0 01-8 8h-24"/><circle cx="192" cy="192" r="24" fill="none" stroke="currentColor" stroke-linecap="round" stroke-linejoin="round" stroke-width="12"/><circle cx="80" cy="192" r="24" fill="none" stroke="currentColor" stroke-linecap="round" stroke-linejoin="round" stroke-width="12"/><path fill="none" stroke="currentColor" stroke-linecap="round" stroke-linejoin="round" stroke-width="12" d="M168 192h-64M56 192H32a8 8 0 01-8-8v-48M24 104h128M24 64h128M48 64v40M88 64v40M128 64v40M184 64v105.37"/></svg>