<svg xmlns="http://www.w3.org/2000/svg" viewBox="0 0 256 256" width="20" height="20"><path fill="none" d="M0 0h256v256H0z"/><rect x="32" y="80" width="192" height="48" rx="8" fill="none" stroke="currentColor" stroke-linecap="round" stroke-linejoin="round" stroke-width="12"/><path d="M208 128v72a8 8 0 01-8 8H56a8 8 0 01-8-8v-72M128 80v128M176.79 31.21c9.34 9.34 9.89 25.06 0 33.82C159.88 80 128 80 128 80s0-31.88 15-48.79c8.73-9.89 24.45-9.34 33.79 0zM79.21 31.21c-9.34 9.34-9.89 25.06 0 33.82C96.12 80 128 80 128 80s0-31.88-15-48.79c-8.73-9.89-24.45-9.34-33.79 0z" fill="none" stroke="currentColor" stroke-linecap="round" stroke-linejoin="round" stroke-width="12"/></svg>