<svg xmlns="http://www.w3.org/2000/svg" viewBox="0 0 256 256" width="20" height="20"><path fill="none" d="M0 0h256v256H0z"/><path d="M119.83 56A52 52 0 0076 32a51.92 51.92 0 00-3.49 44.7A49.28 49.28 0 0064 104v8a48 48 0 0048 48h48a48 48 0 0048-48v-8a49.28 49.28 0 00-8.51-27.3A51.92 51.92 0 00196 32a52 52 0 00-43.83 24zM104 232v-40a32 32 0 0132-32h0a32 32 0 0132 32v40" fill="none" stroke="currentColor" stroke-linecap="round" stroke-linejoin="round" stroke-width="12"/><path d="M104 208H72a32 32 0 01-32-32 32 32 0 00-32-32" fill="none" stroke="currentColor" stroke-linecap="round" stroke-linejoin="round" stroke-width="12"/></svg>