<svg xmlns="http://www.w3.org/2000/svg" viewBox="0 0 256 256" width="20" height="20"><path fill="none" d="M0 0h256v256H0z"/><circle cx="128" cy="128" r="96" fill="none" stroke="currentColor" stroke-linecap="round" stroke-linejoin="round" stroke-width="12"/><path d="M75.88 123.26L89.2 100a8 8 0 016.94-4h16.71a7.9 7.9 0 003.86-1L129 88.24a7.12 7.12 0 001.49-1.07l26.92-24.33A8 8 0 00159 53l-10.5-18.81" fill="none" stroke="currentColor" stroke-linecap="round" stroke-linejoin="round" stroke-width="12"/><path d="M67.78 53.23L56 81.08a8 8 0 00-.12 5.92l11.5 30.67a8 8 0 005.81 5l21.43 4.61a8 8 0 015.52 4.33l3.8 7.87a8 8 0 007.2 4.51h13.8M213.09 172.48l-52.38-32.22a8.11 8.11 0 00-3.12-1.11l-22.82-3.08a8 8 0 00-8.38 4.67l-13.7 30.74a8 8 0 001.44 8.69l19.74 20.33a8 8 0 012 6.95l-3.17 16.44" fill="none" stroke="currentColor" stroke-linecap="round" stroke-linejoin="round" stroke-width="12"/></svg>