<svg xmlns="http://www.w3.org/2000/svg" viewBox="0 0 256 256" width="20" height="20"><path fill="none" d="M0 0h256v256H0z"/><path fill="none" stroke="currentColor" stroke-linecap="round" stroke-linejoin="round" stroke-width="12" d="M104 152h48M232 152c0 17.67-30.33 32-48 32a32 32 0 010-64c17.67 0 48 14.33 48 32zM104 152a32 32 0 01-32 32c-17.67 0-48-14.33-48-32s30.33-32 48-32a32 32 0 0132 32zM165.73 125.73l48.9 48.9M46.59 126.59l48.04 48.04"/><path d="M232 152h0a16 16 0 0016-16h0a64 64 0 00-64-64H72a64 64 0 00-64 64h0a16 16 0 0016 16h0" fill="none" stroke="currentColor" stroke-linecap="round" stroke-linejoin="round" stroke-width="12"/></svg>