<svg xmlns="http://www.w3.org/2000/svg" viewBox="0 0 256 256" width="20" height="20"><path fill="none" d="M0 0h256v256H0z"/><path d="M128 224h0a80 80 0 01-80-80v-24h0a80 80 0 0180 80zM128 224h0v-24a80 80 0 0180-80h0v24a80 80 0 01-80 80z" fill="none" stroke="currentColor" stroke-linecap="round" stroke-linejoin="round" stroke-width="12"/><path d="M208 120V64h0a80 80 0 00-80 80v56M48 120V64h0a80 80 0 0180 80v56" fill="none" stroke="currentColor" stroke-linecap="round" stroke-linejoin="round" stroke-width="12"/><path d="M84.05 72.57C95.62 40.19 128 24 128 24s32.38 16.19 44 48.58" fill="none" stroke="currentColor" stroke-linecap="round" stroke-linejoin="round" stroke-width="12"/></svg>