<svg xmlns="http://www.w3.org/2000/svg" viewBox="0 0 256 256" width="20" height="20"><path fill="none" d="M0 0h256v256H0z"/><circle cx="168" cy="88" r="24" fill="none" stroke="currentColor" stroke-linecap="round" stroke-linejoin="round" stroke-width="12"/><path d="M24 113.22V62.78a8 8 0 016.68-7.89L168 32a56 56 0 010 112L30.68 121.11a8 8 0 01-6.68-7.89zM152 208v8a32 32 0 0032 32h16" fill="none" stroke="currentColor" stroke-linecap="round" stroke-linejoin="round" stroke-width="12"/><path d="M202.49 132.12l-32.36 71.19a8 8 0 01-7.28 4.69H144a8 8 0 01-8-8v-61.33" fill="none" stroke="currentColor" stroke-linecap="round" stroke-linejoin="round" stroke-width="12"/></svg>