<svg xmlns="http://www.w3.org/2000/svg" viewBox="0 0 256 256" width="20" height="20"><path fill="none" d="M0 0h256v256H0z"/><path d="M141.78 16h0A13.77 13.77 0 01155 25.78L192 148l20.27 20.27-45 43-29.94-29.94a32 32 0 01-9.33-22.58v-129A13.78 13.78 0 01141.78 16z" fill="none" stroke="currentColor" stroke-linecap="round" stroke-linejoin="round" stroke-width="12"/><path d="M167.31 211.31l18.35 18.35a8 8 0 0011.31 0L229.66 197a8 8 0 000-11.31l-18.35-18.35M118.63 181.37l-29.94 29.94-44-44L64 148l37-122.22A13.77 13.77 0 01114.22 16h0A13.78 13.78 0 01128 29.78v129a32 32 0 01-9.37 22.59zM44.69 167.31l-18.35 18.35a8 8 0 000 11.31L59 229.66a8 8 0 0011.31 0l18.35-18.35" fill="none" stroke="currentColor" stroke-linecap="round" stroke-linejoin="round" stroke-width="12"/></svg>