<svg xmlns="http://www.w3.org/2000/svg" viewBox="0 0 256 256" width="20" height="20"><path fill="none" d="M0 0h256v256H0z"/><circle cx="204" cy="84" r="28" fill="none" stroke="currentColor" stroke-linecap="round" stroke-linejoin="round" stroke-width="12"/><path d="M48 208H16a8 8 0 01-8-8v-40a8 8 0 018-8h32M112 160h32l67-15.41a16.61 16.61 0 0121 16h0a16.59 16.59 0 01-9.18 14.85L184 192l-64 16H48v-56l25-25a24 24 0 0117-7h50a20 20 0 0120 20h0a20 20 0 01-20 20zM176 85.29a28 28 0 1116-26.58" fill="none" stroke="currentColor" stroke-linecap="round" stroke-linejoin="round" stroke-width="12"/></svg>