<svg xmlns="http://www.w3.org/2000/svg" viewBox="0 0 256 256" width="20" height="20"><path fill="none" d="M0 0h256v256H0z"/><path d="M141.38 64.68l11-11a46.62 46.62 0 0165.94 0h0a46.62 46.62 0 010 65.94L193.94 144l-10.34 10.34a46.63 46.63 0 01-66-.05h0a46.48 46.48 0 01-13.6-34.23" fill="none" stroke="currentColor" stroke-linecap="round" stroke-linejoin="round" stroke-width="12"/><path d="M114.62 191.32l-11 11a46.63 46.63 0 01-66-.05h0a46.63 46.63 0 01.06-65.89l34.72-34.72a46.62 46.62 0 0165.94 0h0A46.45 46.45 0 01152 135.94" fill="none" stroke="currentColor" stroke-linecap="round" stroke-linejoin="round" stroke-width="12"/></svg>