<svg xmlns="http://www.w3.org/2000/svg" viewBox="0 0 256 256" width="20" height="20"><path fill="none" d="M0 0h256v256H0z"/><path fill="none" stroke="currentColor" stroke-linecap="round" stroke-linejoin="round" stroke-width="12" d="M128 200v40M48 48l160 176M172.32 184.75A72 72 0 0156 128M200 128a71.7 71.7 0 01-7.29 31.61"/><path d="M150.68 161a39.77 39.77 0 01-22.68 7h0a40 40 0 01-40-40V92M91.3 48.06A40 40 0 01128 24h0a40 40 0 0140 40v64a38.66 38.66 0 01-.22 4.19" fill="none" stroke="currentColor" stroke-linecap="round" stroke-linejoin="round" stroke-width="12"/></svg>