<svg xmlns="http://www.w3.org/2000/svg" viewBox="0 0 256 256" width="20" height="20"><path fill="none" d="M0 0h256v256H0z"/><path d="M186 32a8 8 0 017.94 7l22 176a8 8 0 01-7.94 9h-40.69a8 8 0 01-7.76-6.06L128 96 96.45 217.94a8 8 0 01-7.76 6.06H48a8 8 0 01-7.94-9l22-176A8 8 0 0170 32zM128 96V64M58.94 64h138.12" fill="none" stroke="currentColor" stroke-linecap="round" stroke-linejoin="round" stroke-width="12"/><path d="M96 64a40 40 0 01-40 40h-2M202.06 104H200a40 40 0 01-40-40" fill="none" stroke="currentColor" stroke-linecap="round" stroke-linejoin="round" stroke-width="12"/></svg>