<svg xmlns="http://www.w3.org/2000/svg" viewBox="0 0 256 256" width="20" height="20"><path fill="none" d="M0 0h256v256H0z"/><path d="M225.94 95.83c17.29 17.29 18.63 42.29 4 61.12a8 8 0 01-9.26 2.47L171.58 142a8 8 0 01-4.86-5.8l-6.21-29.74a7.94 7.94 0 00-5.14-5.9 84.39 84.39 0 00-55.1.13 7.93 7.93 0 00-5.12 6l-5.9 29.51a8 8 0 01-4.87 5.8l-49.09 17.42A8 8 0 0126 157c-14.6-18.83-13.26-43.83 4-61.12 53.17-53.16 142.83-53.16 195.94-.05zM40 200h176" fill="none" stroke="currentColor" stroke-linecap="round" stroke-linejoin="round" stroke-width="12"/></svg>