<svg xmlns="http://www.w3.org/2000/svg" viewBox="0 0 256 256" width="20" height="20"><path fill="none" d="M0 0h256v256H0z"/><path d="M134.58 206.59a31.78 31.78 0 01-28.58 8.82c-42.6-8.41-74.62-47.49-74-92.72.69-49.55 41.13-90 90.68-90.68 45.23-.63 84.27 31.39 92.72 74a31.78 31.78 0 01-8.82 28.58L183 158.21l45.69 32.64a8 8 0 011 12.16L203 229.66a8 8 0 01-12.16-1L158.21 183zM206.6 81.4L81.4 206.6" fill="none" stroke="currentColor" stroke-linecap="round" stroke-linejoin="round" stroke-width="12"/></svg>