<svg xmlns="http://www.w3.org/2000/svg" viewBox="0 0 256 256" width="20" height="20"><path fill="none" d="M0 0h256v256H0z"/><path d="M191.11 112.89c24-24 25.5-52.55 24.75-65.28a8 8 0 00-7.47-7.47c-12.73-.75-41.26.73-65.28 24.75L80 128l48 48z" fill="none" stroke="currentColor" stroke-linecap="round" stroke-linejoin="round" stroke-width="12"/><path d="M136 72H74.35a8 8 0 00-5.65 2.34l-34.35 34.35a8 8 0 004.53 13.57L80 128M184 120v61.65a8 8 0 01-2.34 5.65l-34.35 34.35a8 8 0 01-13.57-4.53L128 176M94.56 187.82C90.69 196.31 77.65 216 40 216c0-37.65 19.69-50.69 28.18-54.56" fill="none" stroke="currentColor" stroke-linecap="round" stroke-linejoin="round" stroke-width="12"/></svg>