<svg xmlns="http://www.w3.org/2000/svg" viewBox="0 0 256 256" width="20" height="20"><path fill="none" d="M0 0h256v256H0z"/><path d="M128 80l32-48 16 16v56a8 8 0 01-13.12 6.15zM93.12 110.13A8 8 0 0180 104V48l16-16 32 48zM128 80v136" fill="none" stroke="currentColor" stroke-linecap="round" stroke-linejoin="round" stroke-width="12"/><path d="M176 48h24a8 8 0 018 8v152a8 8 0 01-8 8H56a8 8 0 01-8-8V56a8 8 0 018-8h24M96 32h64" fill="none" stroke="currentColor" stroke-linecap="round" stroke-linejoin="round" stroke-width="12"/></svg>