<svg xmlns="http://www.w3.org/2000/svg" viewBox="0 0 256 256" width="20" height="20"><path fill="none" d="M0 0h256v256H0z"/><circle cx="128" cy="128" r="96" fill="none" stroke="currentColor" stroke-linecap="round" stroke-linejoin="round" stroke-width="12"/><path fill="none" stroke="currentColor" stroke-linecap="round" stroke-linejoin="round" stroke-width="12" d="M128 88l-40 27.5 15.28 44.5h49.44L168 115.5 128 88zM128 64v24M65.17 108.09L88 115.5M89.17 179.42L103.28 160M166.83 179.42L152.72 160M190.83 108.09L168 115.5M164.25 39.08L128 64 91.75 39.08M223.85 133.42l-33.03-25.34 11.95-40.3M53.23 67.78l11.94 40.3-33.02 25.34M152.13 220.94l14.7-41.52h42.25M46.92 179.42h42.25l14.7 41.52"/></svg>