<svg xmlns="http://www.w3.org/2000/svg" viewBox="0 0 256 256" width="20" height="20"><path fill="none" d="M0 0h256v256H0z"/><path d="M224 113.15l5.06-4.36A8.46 8.46 0 00224.27 94l-8.27-.71M184.44 168l-4.07-17.22L192 140.75M128 189.09V24M176 218.61l6.72 4.13a8.4 8.4 0 0012.52-9.17l-1.32-5.57M176 90.07l-15.64-1.27-24.62-59.6a8.36 8.36 0 00-15.48 0L95.64 88.8 31.73 94a8.46 8.46 0 00-4.79 14.83l48.7 42-14.88 62.74a8.4 8.4 0 0012.52 9.17L128 189.09l11.24 6.91" fill="none" stroke="currentColor" stroke-linecap="round" stroke-linejoin="round" stroke-width="12"/></svg>