<svg xmlns="http://www.w3.org/2000/svg" viewBox="0 0 256 256" width="20" height="20"><path fill="none" d="M0 0h256v256H0z"/><path d="M148.1 61.86l-76-44.75a8 8 0 00-11 2.83l-12 20.34a8 8 0 002.84 11l152.1 89.52a8 8 0 012.84 11l-12 20.34a8 8 0 01-11 2.83l-76-44.75" fill="none" stroke="currentColor" stroke-linecap="round" stroke-linejoin="round" stroke-width="12"/><path d="M93.86 75.9l-44.75 76a8 8 0 002.83 11l20.34 12a8 8 0 0011-2.84L172.76 20a8 8 0 0111-2.84l20.34 12a8 8 0 012.83 11l-44.75 76M32 232h192M166.36 164.55L176 232M90.27 160.11L80 232" fill="none" stroke="currentColor" stroke-linecap="round" stroke-linejoin="round" stroke-width="12"/></svg>