<svg xmlns="http://www.w3.org/2000/svg" stroke-width="2" stroke="currentColor" fill="none" stroke-linecap="round" stroke-linejoin="round" viewBox="0 0 24 24" width="20" height="20"><path stroke="none" d="M0 0h24v24H0z"/><path d="M4.91 4.949A9.968 9.968 0 002 12c0 5.523 4.477 10 10 10a9.968 9.968 0 007.05-2.909m1.728-2.298A9.955 9.955 0 0022 12c0-5.523-4.477-10-10-10-1.74 0-3.376.444-4.8 1.225"/><path d="M7 15v-4.5a1.5 1.5 0 012.138-1.358m.716.711c.094.196.146.415.146.647V15m-3-2h3m4 1v1h1m2-2v-2a2 2 0 00-2-2h-1v1M3 3l18 18"/></svg>