<svg xmlns="http://www.w3.org/2000/svg" stroke-width="2" stroke="currentColor" fill="none" stroke-linecap="round" stroke-linejoin="round" viewBox="0 0 24 24" width="20" height="20"><path stroke="none" d="M0 0h24v24H0z"/><path d="M19 2a3 3 0 012.995 2.824L22 5v14a3 3 0 01-2.824 2.995L19 22H5a3 3 0 01-2.995-2.824L2 19V5a3 3 0 012.824-2.995L5 2h14zm-6.99 13l-.127.007a1 1 0 000 1.986L12 17l.127-.007a1 1 0 000-1.986L12.01 15zM12 7a1 1 0 00-.993.883L11 8v4l.007.117a1 1 0 001.986 0L13 12V8l-.007-.117A1 1 0 0012 7z" stroke-width="0" fill="currentColor"/></svg>