<svg xmlns="http://www.w3.org/2000/svg" stroke-width="2" stroke="currentColor" fill="none" stroke-linecap="round" stroke-linejoin="round" viewBox="0 0 24 24" width="20" height="20"><path stroke="none" d="M0 0h24v24H0z"/><path d="M11.94 2a2.99 2.99 0 012.45 1.279l.108.164 8.431 14.074a2.989 2.989 0 01-2.366 4.474l-.2.009H3.507a2.99 2.99 0 01-2.648-4.308l.101-.189L9.385 3.438A2.989 2.989 0 0111.94 2zm.07 14l-.127.007a1 1 0 000 1.986L12 18l.127-.007a1 1 0 000-1.986L12.01 16zM12 8a1 1 0 00-.993.883L11 9v4l.007.117a1 1 0 001.986 0L13 13V9l-.007-.117A1 1 0 0012 8z" stroke-width="0" fill="currentColor"/></svg>