<svg xmlns="http://www.w3.org/2000/svg" stroke-width="2" stroke="currentColor" fill="none" stroke-linecap="round" stroke-linejoin="round" viewBox="0 0 24 24" width="20" height="20"><path stroke="none" d="M0 0h24v24H0z"/><path d="M18.333 2c1.96 0 3.56 1.537 3.662 3.472l.005.195v12.666c0 1.96-1.537 3.56-3.472 3.662l-.195.005H5.667a3.667 3.667 0 01-3.662-3.472L2 18.333V5.667c0-1.96 1.537-3.56 3.472-3.662L5.667 2h12.666zM15 5a1 1 0 00-1 1v6l.007.117A1 1 0 0016 12V6l-.007-.117A1 1 0 0015 5zm3 0a1 1 0 00-1 1v4l.007.117A1 1 0 0019 10V6l-.007-.117A1 1 0 0018 5zm-6 0a1 1 0 00-1 1v2l.007.117A1 1 0 0013 8V6l-.007-.117A1 1 0 0012 5z" stroke-width="0" fill="currentColor"/></svg>