<svg xmlns="http://www.w3.org/2000/svg" stroke-width="2" stroke="currentColor" fill="none" stroke-linecap="round" stroke-linejoin="round" viewBox="0 0 24 24" width="20" height="20"><path stroke="none" d="M0 0h24v24H0z"/><path d="M19 2a3 3 0 012.995 2.824L22 5v14a3 3 0 01-2.824 2.995L19 22H5a3 3 0 01-2.993-2.802L2 19V5a3 3 0 012.824-2.995L5 2h14zm-6 12h-2l-.117.007a1 1 0 000 1.986L11 16h2l.117-.007a1 1 0 000-1.986L13 14zm2-3H9l-.117.007a1 1 0 000 1.986L9 13h6l.117-.007a1 1 0 000-1.986L15 11zm-1-3h-4l-.117.007a1 1 0 000 1.986L10 10h4l.117-.007a1 1 0 000-1.986L14 8z" stroke-width="0" fill="currentColor"/></svg>