<svg xmlns="http://www.w3.org/2000/svg" stroke-width="2" stroke="currentColor" fill="none" stroke-linecap="round" stroke-linejoin="round" viewBox="0 0 24 24" width="20" height="20"><path stroke="none" d="M0 0h24v24H0z"/><path d="M9 3H5a2 2 0 00-2 2v4a2 2 0 002 2h4a2 2 0 002-2V5a2 2 0 00-2-2zm0 10H5a2 2 0 00-2 2v4a2 2 0 002 2h4a2 2 0 002-2v-4a2 2 0 00-2-2zm10 0h-4a2 2 0 00-2 2v4a2 2 0 002 2h4a2 2 0 002-2v-4a2 2 0 00-2-2zM17 3a1 1 0 01.993.883L18 4v2h2a1 1 0 01.117 1.993L20 8h-2v2a1 1 0 01-1.993.117L16 10V8h-2a1 1 0 01-.117-1.993L14 6h2V4a1 1 0 011-1z" stroke-width="0" fill="currentColor"/></svg>