<svg xmlns="http://www.w3.org/2000/svg" stroke-width="2" stroke="currentColor" fill="none" stroke-linecap="round" stroke-linejoin="round" viewBox="0 0 24 24" width="20" height="20"><path stroke="none" d="M0 0h24v24H0z"/><path d="M9 5l-.117.007A1 1 0 008 6v4.999L5.414 11A2 2 0 004 14.414L10.586 21a2 2 0 002.828 0L20 14.414a2 2 0 00.434-2.18l-.068-.145A2 2 0 0018.586 11L16 10.999V6a1 1 0 00-1-1H9zm6-3a1 1 0 01.117 1.993L15 4H9a1 1 0 01-.117-1.993L9 2h6z" stroke-width="0" fill="currentColor"/></svg>