<svg xmlns="http://www.w3.org/2000/svg" stroke-width="2" stroke="currentColor" fill="none" stroke-linecap="round" stroke-linejoin="round" viewBox="0 0 24 24" width="20" height="20"><path stroke="none" d="M0 0h24v24H0z"/><path d="M12.089 3.634A2 2 0 0011 5.414l-.001 2.585L9 8a1 1 0 00-1 1v6l.007.117A1 1 0 009 16l1.999-.001.001 2.587A2 2 0 0014.414 20L21 13.414a2 2 0 000-2.828L14.414 4a2 2 0 00-2.18-.434l-.145.068zM3 8a1 1 0 01.993.883L4 9v6a1 1 0 01-1.993.117L2 15V9a1 1 0 011-1zm3 0a1 1 0 01.993.883L7 9v6a1 1 0 01-1.993.117L5 15V9a1 1 0 011-1z" stroke-width="0" fill="currentColor"/></svg>