<svg xmlns="http://www.w3.org/2000/svg" stroke-width="2" stroke="currentColor" fill="none" stroke-linecap="round" stroke-linejoin="round" viewBox="0 0 24 24" width="20" height="20"><path stroke="none" d="M0 0h24v24H0z"/><path d="M19 4H5a3 3 0 00-3 3v10a3 3 0 003 3h14a3 3 0 003-3V7a3 3 0 00-3-3zM9 7a1 1 0 01.117 1.993L9 9H7v2a1 1 0 01-.883.993L6 12a1 1 0 01-.993-.883L5 11V8a1 1 0 01.883-.993L6 7h3zm9 5a1 1 0 01.993.883L19 13v3a1 1 0 01-.883.993L18 17h-3a1 1 0 01-.117-1.993L15 15h2v-2a1 1 0 01.883-.993L18 12z" stroke-width="0" fill="currentColor"/></svg>