<svg xmlns="http://www.w3.org/2000/svg" stroke-width="2" stroke="currentColor" fill="none" stroke-linecap="round" stroke-linejoin="round" viewBox="0 0 24 24" width="20" height="20"><path stroke="none" d="M0 0h24v24H0z"/><path d="M20.207 3.793a5.95 5.95 0 01.179 8.228l-.179.186-8 8a5.95 5.95 0 01-8.593-8.228l.179-.186 8-8a5.95 5.95 0 018.414 0zM12 13a1 1 0 00-1 1l.007.127A1 1 0 0013 14.01l-.007-.127A1 1 0 0012 13zm2-2a1 1 0 00-1 1l.007.127A1 1 0 0015 12.01l-.007-.127A1 1 0 0014 11zm-4 0a1 1 0 00-1 1l.007.127A1 1 0 0011 12.01l-.007-.127A1 1 0 0010 11zm2-2a1 1 0 00-1 1l.007.127A1 1 0 0013 10.01l-.007-.127A1 1 0 0012 9z" stroke-width="0" fill="currentColor"/></svg>