<svg xmlns="http://www.w3.org/2000/svg" stroke-width="2" stroke="currentColor" fill="none" stroke-linecap="round" stroke-linejoin="round" viewBox="0 0 24 24" width="20" height="20"><path stroke="none" d="M0 0h24v24H0z"/><path d="M17 6a3 3 0 012.995 2.824L20 9v.086l.052.019a1.5 1.5 0 01.941 1.25L21 10.5v3a1.5 1.5 0 01-.948 1.395l-.052.018V15a3 3 0 01-2.824 2.995L17 18H6a3 3 0 01-2.995-2.824L3 15V9a3 3 0 012.824-2.995L6 6h11zM7 9a1 1 0 00-1 1v4l.007.117A1 1 0 008 14v-4l-.007-.117A1 1 0 007 9z" stroke-width="0" fill="currentColor"/></svg>