<svg xmlns="http://www.w3.org/2000/svg" stroke-width="2" stroke="currentColor" fill="none" stroke-linecap="round" stroke-linejoin="round" viewBox="0 0 24 24" width="20" height="20"><path stroke="none" d="M0 0h24v24H0z"/><path d="M10.586 10.586a2 2 0 102.836 2.82M11.939 14c0 .173.048.351.056.533v.217a4.75 4.75 0 01-4.533 4.745h-.217m-4.75-4.75a4.75 4.75 0 017.737-3.693"/><path d="M16.745 19.495a4.75 4.75 0 01-4.69-5.503h-.06m2.538-3.454a4.75 4.75 0 016.957 3.987v.217m-11.195-3.813a4.75 4.75 0 01-2.988-3.64m.66-3.324a4.75 4.75 0 01.5-.66l.164-.172m6.718 0a4.75 4.75 0 01-.836 7.385M3 3l18 18"/></svg>