<svg xmlns="http://www.w3.org/2000/svg" stroke-width="2" stroke="currentColor" fill="none" stroke-linecap="round" stroke-linejoin="round" viewBox="0 0 24 24" width="20" height="20"><path stroke="none" d="M0 0h24v24H0z"/><path d="M13 6H7a3 3 0 00-3 3v12l.006.114a1 1 0 001.508.743L10 19.166l4.486 2.691A1 1 0 0016 21V9a3 3 0 00-3-3z" stroke-width="0" fill="currentColor"/><path d="M17 2a3 3 0 012.995 2.824L20 5v12a1 1 0 01-1.413.911l-.101-.054-1-.6a1 1 0 01.489-1.857l.025.001V5a1 1 0 00-.883-.993L17 4h-6.001a1 1 0 00-.803.401l-.13.197A1 1 0 018.4 3.5a3 3 0 012.4-1.494L11 2h6z" stroke-width="0" fill="currentColor"/></svg>