<svg xmlns="http://www.w3.org/2000/svg" stroke-width="2" stroke="currentColor" fill="none" stroke-linecap="round" stroke-linejoin="round" viewBox="0 0 24 24" width="20" height="20"><path stroke="none" d="M0 0h24v24H0z"/><path d="M20 13H4a1 1 0 00-1 1v5a2 2 0 002 2h14a2 2 0 002-2v-5a1 1 0 00-1-1zM4 8a1 1 0 01.993.883L5 9.01a1 1 0 01-1.993.117L3 9a1 1 0 011-1zm0-5a1 1 0 01.993.883L5 4.01a1 1 0 01-1.993.117L3 4a1 1 0 011-1zm5 0a1 1 0 01.993.883L10 4.01a1 1 0 01-1.993.117L8 4a1 1 0 011-1zm6 0a1 1 0 01.993.883L16 4.01a1 1 0 01-1.993.117L14 4a1 1 0 011-1zm5 0a1 1 0 01.993.883L21 4.01a1 1 0 01-1.993.117L19 4a1 1 0 011-1zm0 5a1 1 0 01.993.883L21 9.01a1 1 0 01-1.993.117L19 9a1 1 0 011-1z" stroke-width="0" fill="currentColor"/></svg>