<svg xmlns="http://www.w3.org/2000/svg" stroke-width="2" stroke="currentColor" fill="none" stroke-linecap="round" stroke-linejoin="round" viewBox="0 0 24 24" width="20" height="20"><path stroke="none" d="M0 0h24v24H0z"/><path d="M18 15.5a1.5 1.5 0 103 0 1.5 1.5 0 10-3 0M9.5 7a1.5 1.5 0 011.339 2.177l-4.034 7.074c-.264.447-.75.749-1.305.749a1.5 1.5 0 01-1.271-2.297l3.906-6.827A1.5 1.5 0 019.5 7zm7 0a1.5 1.5 0 011.339 2.177l-4.034 7.074c-.264.447-.75.749-1.305.749a1.5 1.5 0 01-1.271-2.297l3.906-6.827A1.5 1.5 0 0116.5 7z"/></svg>