<svg xmlns="http://www.w3.org/2000/svg" stroke-width="2" stroke="currentColor" fill="none" stroke-linecap="round" stroke-linejoin="round" viewBox="0 0 24 24" width="20" height="20"><path stroke="none" d="M0 0h24v24H0z"/><path d="M8 21h8a5 5 0 005-5v-3a3 3 0 00-3-3h-1V8a5 5 0 00-5-5H8a5 5 0 00-5 5v8a5 5 0 005 5z"/><path d="M7 8.5A1.5 1.5 0 018.5 7h3A1.5 1.5 0 0113 8.5v0a1.5 1.5 0 01-1.5 1.5h-3A1.5 1.5 0 017 8.5zm0 7A1.5 1.5 0 018.5 14h7a1.5 1.5 0 011.5 1.5v0a1.5 1.5 0 01-1.5 1.5h-7A1.5 1.5 0 017 15.5z"/></svg>