<svg xmlns="http://www.w3.org/2000/svg" stroke-width="2" stroke="currentColor" fill="none" stroke-linecap="round" stroke-linejoin="round" viewBox="0 0 24 24" width="20" height="20"><path stroke="none" d="M0 0h24v24H0z"/><path d="M12 8a4 4 0 11-3.995 4.2L8 12l.005-.2A4 4 0 0112 8zm0-6a1 1 0 01.993.883L13 3v2a1 1 0 01-1.993.117L11 5V3a1 1 0 011-1zm5.693 2.893a1 1 0 011.497 1.32l-.083.094-1.4 1.4a1 1 0 01-1.497-1.32l.083-.094 1.4-1.4zM21 11a1 1 0 01.117 1.993L21 13h-2a1 1 0 01-.117-1.993L19 11h2zm-4.707 5.293a1 1 0 011.32-.083l.094.083 1.4 1.4a1 1 0 01-1.32 1.497l-.094-.083-1.4-1.4a1 1 0 010-1.414zM12 18a1 1 0 01.993.883L13 19v2a1 1 0 01-1.993.117L11 21v-2a1 1 0 011-1zm-5.707-1.707a1 1 0 011.497 1.32l-.083.094-1.4 1.4a1 1 0 01-1.497-1.32l.083-.094 1.4-1.4zM6 11a1 1 0 01.117 1.993L6 13H4a1 1 0 01-.117-1.993L4 11h2zM4.893 4.893a1 1 0 011.32-.083l.094.083 1.4 1.4a1 1 0 01-1.32 1.497l-.094-.083-1.4-1.4a1 1 0 010-1.414z" stroke-width="0" fill="currentColor"/></svg>