<svg xmlns="http://www.w3.org/2000/svg" stroke-width="2" stroke="currentColor" fill="none" stroke-linecap="round" stroke-linejoin="round" viewBox="0 0 24 24" width="20" height="20"><path stroke="none" d="M0 0h24v24H0z"/><path d="M20.96 16.953c.026-.147.04-.298.04-.453V8a2 2 0 00-2-2h-9M6 6H5a2 2 0 00-2 2v8.5A2.5 2.5 0 005.5 19h1.06a3 3 0 002.34-1.13l1.54-1.92a2 2 0 013.12 0l1.54 1.92A3 3 0 0017.44 19h1.06c.155 0 .307-.014.454-.041"/><path d="M7 12a1 1 0 102 0 1 1 0 10-2 0m9.714.7a1 1 0 00-1.417-1.411l1.417 1.41zM3 3l18 18"/></svg>