<svg xmlns="http://www.w3.org/2000/svg" stroke-width="2" stroke="currentColor" fill="none" stroke-linecap="round" stroke-linejoin="round" viewBox="0 0 24 24" width="20" height="20"><path stroke="none" d="M0 0h24v24H0z"/><path d="M11.293 7.293a1 1 0 011.32-.083l.094.083 6 6 .083.094.054.077.054.096.017.036.027.067.032.108.01.053.01.06.004.057L19 14l-.002.059-.005.058-.009.06-.01.052-.032.108-.027.067-.07.132-.065.09-.073.081-.094.083-.077.054-.096.054-.036.017-.067.027-.108.032-.053.01-.06.01-.057.004L18 15H6c-.852 0-1.297-.986-.783-1.623l.076-.084 6-6z" stroke-width="0" fill="currentColor"/></svg>