<svg xmlns="http://www.w3.org/2000/svg" stroke-width="2" stroke="currentColor" fill="none" stroke-linecap="round" stroke-linejoin="round" viewBox="0 0 24 24" width="20" height="20"><path stroke="none" d="M0 0h24v24H0z"/><path d="M12 2a2 2 0 011.386 3.442c.646.28 1.226.62 1.74 1.017l-3.833 3.834-.083.094a1 1 0 001.403 1.403l.094-.083 3.814-3.813C17.498 9.244 18 10.964 18 13c0 1.913-1.178 3.722-3.089 3.973l-.2.02L14.5 17h-5C7.374 17 6 15.076 6 13c0-3.68 1.57-6.255 4.613-7.56A2 2 0 0112 2zm0 3v1m6 12H6a1 1 0 00-1 1 2 2 0 002 2h10a2 2 0 001.987-1.768l.011-.174A1 1 0 0018 18z" stroke-width="0" fill="currentColor"/></svg>