<svg xmlns="http://www.w3.org/2000/svg" stroke-width="2" stroke="currentColor" fill="none" stroke-linecap="round" stroke-linejoin="round" viewBox="0 0 24 24" width="20" height="20"><path stroke="none" d="M0 0h24v24H0z"/><path d="M12 2a4 4 0 014 4 5.03 5.03 0 01-.438 2.001L16 8a1 1 0 01.117 1.993L16 10h-1.263l1.24 5.79a1 1 0 01-.747 1.184l-.113.02L15 17H9a1 1 0 01-.996-1.093l.018-.117L9.262 10H8a1 1 0 01-.117-1.993L8 8h.438a5.154 5.154 0 01-.412-1.525l-.02-.259L8 6a4 4 0 014-4zm6 16H6a1 1 0 00-1 1 2 2 0 002 2h10a2 2 0 001.987-1.768l.011-.174A1 1 0 0018 18z" stroke-width="0" fill="currentColor"/></svg>