<svg xmlns="http://www.w3.org/2000/svg" stroke-width="2" stroke="currentColor" fill="none" stroke-linecap="round" stroke-linejoin="round" viewBox="0 0 24 24" width="20" height="20"><path stroke="none" d="M0 0h24v24H0z"/><path d="M12 2c5.523 0 10 4.477 10 10s-4.477 10-10 10S2 17.523 2 12 6.477 2 12 2zm2 5h-4l-.117.007a1 1 0 00-.876.876L9 8l.007.117a1 1 0 00.876.876L10 9h2.718l-1.688 6.757-.022.115a1 1 0 001.927.482l.035-.111 2-8 .021-.112a1 1 0 00-.878-1.125L14 7z" stroke-width="0" fill="currentColor"/></svg>