<svg xmlns="http://www.w3.org/2000/svg" stroke-width="2" stroke="currentColor" fill="none" stroke-linecap="round" stroke-linejoin="round" viewBox="0 0 24 24" width="20" height="20"><path stroke="none" d="M0 0h24v24H0z"/><path d="M12 2c5.523 0 10 4.477 10 10s-4.477 10-10 10S2 17.523 2 12 6.477 2 12 2zm2 5a1 1 0 00-.993.883L13 8v3h-2V8l-.007-.117a1 1 0 00-1.986 0L9 8v3l.005.15a2 2 0 001.838 1.844L11 13h2v3l.007.117a1 1 0 001.986 0L15 16V8l-.007-.117A1 1 0 0014 7z" stroke-width="0" fill="currentColor"/></svg>