<svg xmlns="http://www.w3.org/2000/svg" stroke-width="2" stroke="currentColor" fill="none" stroke-linecap="round" stroke-linejoin="round" viewBox="0 0 24 24" width="20" height="20"><path stroke="none" d="M0 0h24v24H0z"/><path d="M17 3.34a10 10 0 11-14.995 8.984L2 12l.005-.324A10 10 0 0117 3.34zm-6.489 5.8a1 1 0 00-1.218 1.567L10.585 12l-1.292 1.293-.083.094a1 1 0 001.497 1.32L12 13.415l1.293 1.292.094.083a1 1 0 001.32-1.497L13.415 12l1.292-1.293.083-.094a1 1 0 00-1.497-1.32L12 10.585l-1.293-1.292-.094-.083z" stroke-width="0" fill="currentColor"/></svg>