<svg xmlns="http://www.w3.org/2000/svg" stroke-width="2" stroke="currentColor" fill="none" stroke-linecap="round" stroke-linejoin="round" viewBox="0 0 24 24" width="20" height="20"><path stroke="none" d="M0 0h24v24H0z"/><path d="M12 2c5.523 0 10 4.477 10 10s-4.477 10-10 10S2 17.523 2 12 6.477 2 12 2zm1 5h-3l-.117.007a1 1 0 000 1.986L10 9h3v2h-2l-.15.005a2 2 0 00-1.844 1.838L9 13v2l.005.15a2 2 0 001.838 1.844L11 17h3l.117-.007a1 1 0 000-1.986L14 15h-3v-2h2l.15-.005a2 2 0 001.844-1.838L15 11V9l-.005-.15a2 2 0 00-1.838-1.844L13 7z" stroke-width="0" fill="currentColor"/></svg>