<svg xmlns="http://www.w3.org/2000/svg" stroke-width="2" stroke="currentColor" fill="none" stroke-linecap="round" stroke-linejoin="round" viewBox="0 0 24 24" width="20" height="20"><path stroke="none" d="M0 0h24v24H0z"/><path d="M12 2c5.523 0 10 4.477 10 10s-4.477 10-10 10S2 17.523 2 12 6.477 2 12 2zm2 5h-4a1 1 0 00-.993.883L9 8v4a1 1 0 00.883.993L10 13h3v2h-2l-.007-.117A1 1 0 009 15a2 2 0 001.85 1.995L11 17h2a2 2 0 001.995-1.85L15 15v-2a2 2 0 00-1.85-1.995L13 11h-2V9h3a1 1 0 00.993-.883L15 8a1 1 0 00-.883-.993L14 7z" stroke-width="0" fill="currentColor"/></svg>