<svg xmlns="http://www.w3.org/2000/svg" stroke-width="2" stroke="currentColor" fill="none" stroke-linecap="round" stroke-linejoin="round" viewBox="0 0 24 24" width="20" height="20"><path stroke="none" d="M0 0h24v24H0z"/><path d="M17 3.34a10 10 0 11-14.995 8.984L2 12l.005-.324A10 10 0 0117 3.34zM12 6a1 1 0 00-.993.883L11 7v5l.009.131a1 1 0 00.197.477l.087.1 3 3 .094.082a1 1 0 001.226 0l.094-.083.083-.094a1 1 0 000-1.226l-.083-.094L13 11.585V7l-.007-.117A1 1 0 0012 6z" stroke-width="0" fill="currentColor"/></svg>