<svg xmlns="http://www.w3.org/2000/svg" stroke-width="2" stroke="currentColor" fill="none" stroke-linecap="round" stroke-linejoin="round" viewBox="0 0 24 24" width="20" height="20"><path stroke="none" d="M0 0h24v24H0z"/><path d="M12 2a5 5 0 00-4.488 2.797l-.103.225a4.998 4.998 0 00-.334 2.837l.027.14a5 5 0 00-3.091 9.009l.198.14a4.998 4.998 0 004.42.58l.174-.066-.773 3.095A1 1 0 009 22h6l.113-.006a1 1 0 00.857-1.237l-.774-3.095.174.065A5 5 0 1016.897 8l.028-.14A4.997 4.997 0 0012 2z" stroke-width="0" fill="currentColor"/></svg>