<svg xmlns="http://www.w3.org/2000/svg" stroke-width="2" stroke="currentColor" fill="none" stroke-linecap="round" stroke-linejoin="round" viewBox="0 0 24 24" width="20" height="20"><path stroke="none" d="M0 0h24v24H0z"/><path d="M3 14c.83.642 2.077 1.017 3.5 1 1.423.017 2.67-.358 3.5-1 .83-.642 2.077-1.017 3.5-1 1.423-.017 2.67.358 3.5 1M8 3a2.4 2.4 0 00-1 2 2.4 2.4 0 001 2m4-4a2.4 2.4 0 00-1 2 2.4 2.4 0 001 2"/><path d="M3 10h14v5a6 6 0 01-6 6H9a6 6 0 01-6-6v-5zm13.746 6.726a3 3 0 10.252-5.555"/></svg>