<svg xmlns="http://www.w3.org/2000/svg" stroke-width="2" stroke="currentColor" fill="none" stroke-linecap="round" stroke-linejoin="round" viewBox="0 0 24 24" width="20" height="20"><path stroke="none" d="M0 0h24v24H0z"/><path d="M20.83 16.809c.11-.248.17-.52.17-.801V7.99a1.98 1.98 0 00-1-1.717l-7-4.008a2.016 2.016 0 00-2 0L7.988 3.99M5.441 5.448L4 6.273c-.619.355-1 1.01-1 1.718v8.018c0 .709.381 1.363 1 1.717l7 4.008a2.016 2.016 0 002 0l5.544-3.174M12 22V12m2.532-1.462L20.73 6.96m-17.46 0L12 12M3 3l18 18"/></svg>