<svg xmlns="http://www.w3.org/2000/svg" stroke-width="2" stroke="currentColor" fill="none" stroke-linecap="round" stroke-linejoin="round" viewBox="0 0 24 24" width="20" height="20"><path stroke="none" d="M0 0h24v24H0z"/><path d="M10 16H4a1 1 0 01-1-1V5a1 1 0 011-1h16a1 1 0 011 1v6.5M7 20h3.5M9 16v4m8.8.817l-2.172 1.138a.392.392 0 01-.568-.41l.415-2.411-1.757-1.707a.389.389 0 01.217-.665l2.428-.352 1.086-2.193a.392.392 0 01.702 0l1.086 2.193 2.428.352a.39.39 0 01.217.665l-1.757 1.707.414 2.41a.39.39 0 01-.567.411L17.8 20.817z"/></svg>