<svg xmlns="http://www.w3.org/2000/svg" stroke-width="2" stroke="currentColor" fill="none" stroke-linecap="round" stroke-linejoin="round" viewBox="0 0 24 24" width="20" height="20"><path stroke="none" d="M0 0h24v24H0z"/><path d="M13.905 11.39a2 2 0 10-2.855 2.37m-1.058 4.019C7.27 17.158 4.939 15.232 3 12c2.4-4 5.4-6 9-6 3.332 0 6.15 1.714 8.454 5.14M18 22l3.35-3.284a2.143 2.143 0 00.005-3.071 2.242 2.242 0 00-3.129-.006l-.224.22-.223-.22a2.242 2.242 0 00-3.128-.006 2.143 2.143 0 00-.006 3.071L18 22z"/></svg>