<svg xmlns="http://www.w3.org/2000/svg" stroke-width="2" stroke="currentColor" fill="none" stroke-linecap="round" stroke-linejoin="round" viewBox="0 0 24 24" width="20" height="20"><path stroke="none" d="M0 0h24v24H0z"/><path d="M12 2l.117.007a1 1 0 01.876.876L13 3v4l.005.15a2 2 0 001.838 1.844L15 9h4l.117.007a1 1 0 01.876.876L20 10v9a3 3 0 01-2.824 2.995L17 22H7a3 3 0 01-2.995-2.824L4 19V5a3 3 0 012.824-2.995L7 2h5z" stroke-width="0" fill="currentColor"/><path d="M19 7h-4l-.001-4.001z" stroke-width="0" fill="currentColor"/></svg>