<svg xmlns="http://www.w3.org/2000/svg" stroke-width="2" stroke="currentColor" fill="none" stroke-linecap="round" stroke-linejoin="round" viewBox="0 0 24 24" width="20" height="20"><path stroke="none" d="M0 0h24v24H0z"/><path d="M7.72 3.728l3.484-1.558a1.95 1.95 0 011.59 0l4.496 2.01c.554.246.963.736 1.112 1.328l2.538 10.158c.103.412.07.832-.075 1.206m-2.299 1.699l-5.725 2.738a1.945 1.945 0 01-1.682 0l-7.035-3.365a1.99 1.99 0 01-1.064-2.278l2.52-10.08"/><path d="M18 4.82l-5.198 2.324a1.963 1.963 0 01-1.602 0m.8.176V8m0 4v9.5M3 3l18 18"/></svg>