<svg xmlns="http://www.w3.org/2000/svg" stroke-width="2" stroke="currentColor" fill="none" stroke-linecap="round" stroke-linejoin="round" viewBox="0 0 24 24" width="20" height="20"><path stroke="none" d="M0 0h24v24H0z"/><path d="M12 2c-1.613 0-2.882.104-3.825.323l-.23.057C4.926 3.088 3 4.883 3 8c0 3.367 1.939 8.274 4.22 11.125.32.4.664.786 1.03 1.158l.367.36a4.904 4.904 0 006.752.011 15.04 15.04 0 001.41-1.528C19.27 16.013 21 11.832 21 8c0-3.025-1.813-4.806-4.71-5.562l-.266-.066C15.088 2.122 13.743 2 12 2z" stroke-width="0" fill="currentColor"/></svg>