<svg xmlns="http://www.w3.org/2000/svg" stroke-width="2" stroke="currentColor" fill="none" stroke-linecap="round" stroke-linejoin="round" viewBox="0 0 24 24" width="20" height="20"><path stroke="none" d="M0 0h24v24H0z"/><path d="M4 14v-3c0-1.953.7-3.742 1.862-5.13m2.182-1.825A8 8 0 0120 11v3m-2 5c0 1.657-2.686 3-6 3"/><path d="M4 14a2 2 0 012-2h1a2 2 0 012 2v3a2 2 0 01-2 2H6a2 2 0 01-2-2v-3zm12.169-1.82c.253-.115.534-.18.831-.18h1a2 2 0 012 2v2m-1.183 2.826c-.25.112-.526.174-.817.174h-1a2 2 0 01-2-2v-2M3 3l18 18"/></svg>