<svg xmlns="http://www.w3.org/2000/svg" stroke-width="2" stroke="currentColor" fill="none" stroke-linecap="round" stroke-linejoin="round" viewBox="0 0 24 24" width="20" height="20"><path stroke="none" d="M0 0h24v24H0z"/><path d="M11.94 2a2.99 2.99 0 012.45 1.279l.108.164 8.431 14.074a2.989 2.989 0 01-2.366 4.474l-.2.009H3.507a2.99 2.99 0 01-2.648-4.308l.101-.189L9.385 3.438A2.989 2.989 0 0111.94 2zM12 16a1 1 0 00-.993.883L11 17l.007.127a1 1 0 001.986 0L13 17.01l-.007-.127A1 1 0 0012 16zm1.368-6.673a2.98 2.98 0 00-3.631.728 1 1 0 001.44 1.383l.171-.18a.98.98 0 011.11-.15 1 1 0 01-.34 1.886l-.232.012A1 1 0 0011.997 15a3 3 0 001.371-5.673z" stroke-width="0" fill="currentColor"/></svg>