<svg xmlns="http://www.w3.org/2000/svg" stroke-width="2" stroke="currentColor" fill="none" stroke-linecap="round" stroke-linejoin="round" viewBox="0 0 24 24" width="20" height="20"><path stroke="none" d="M0 0h24v24H0z"/><path d="M9.103 2h5.794a3 3 0 012.122.879l4.101 4.1A3 3 0 0122 9.104v5.794a3 3 0 01-.879 2.122l-4.1 4.101a3 3 0 01-2.123.88H9.103a3 3 0 01-2.122-.88l-4.101-4.1A3 3 0 012 14.897V9.103a3 3 0 01.879-2.122l4.1-4.101A3 3 0 019.104 2zM12 16v.01"/><path d="M12 13a2 2 0 00.914-3.782 1.98 1.98 0 00-2.414.483"/></svg>