<svg xmlns="http://www.w3.org/2000/svg" stroke-width="2" stroke="currentColor" fill="none" stroke-linecap="round" stroke-linejoin="round" viewBox="0 0 24 24" width="20" height="20"><path stroke="none" d="M0 0h24v24H0z"/><path d="M10.425 1.414a3.33 3.33 0 013.216 0l6.775 3.995c.067.04.127.084.18.133l.008.007.107.076a3.223 3.223 0 011.284 2.39l.005.203v7.284c0 1.175-.643 2.256-1.623 2.793l-6.804 4.302c-.98.538-2.166.538-3.2-.032l-6.695-4.237A3.226 3.226 0 012 15.502V8.217a3.21 3.21 0 011.65-2.808zm.952 5.803l-.084.076-2 2-.083.094a1 1 0 000 1.226l.083.094.094.083a1 1 0 001.226 0l.094-.083.293-.293V16l.007.117a1 1 0 001.986 0L13 16V8l-.006-.114c-.083-.777-1.008-1.16-1.617-.67z" stroke-width="0" fill="currentColor"/></svg>