<svg xmlns="http://www.w3.org/2000/svg" stroke-width="2" stroke="currentColor" fill="none" stroke-linecap="round" stroke-linejoin="round" viewBox="0 0 24 24" width="20" height="20"><path stroke="none" d="M0 0h24v24H0z"/><path d="M19 14v-2h2l-9-9-9 9h2v7a2 2 0 002 2h2.5"/><path d="M9 21v-6a2 2 0 012-2h2a2 2 0 011.75 1.032m.786 3.554a2.123 2.123 0 00-2.929 0 1.951 1.951 0 000 2.828c.809.781 2.12.781 2.929 0 .809-.781-.805.778 0 0l1.46-1.41 1.46-1.419"/><path d="M15.54 17.582l1.46 1.42 1.46 1.41c.809.78-.805-.779 0 0s2.12.781 2.929 0a1.951 1.951 0 000-2.828 2.123 2.123 0 00-2.929 0"/></svg>