<svg xmlns="http://www.w3.org/2000/svg" stroke-width="2" stroke="currentColor" fill="none" stroke-linecap="round" stroke-linejoin="round" viewBox="0 0 24 24" width="20" height="20"><path stroke="none" d="M0 0h24v24H0z"/><path d="M17 2a2 2 0 011.995 1.85L19 4v2a6.996 6.996 0 01-3.393 6 6.994 6.994 0 013.388 5.728L19 18v2a2 2 0 01-1.85 1.995L17 22H7a2 2 0 01-1.995-1.85L5 20v-2a6.996 6.996 0 013.393-6 6.994 6.994 0 01-3.388-5.728L5 6V4a2 2 0 011.85-1.995L7 2h10z" stroke-width="0" fill="currentColor"/></svg>