<svg xmlns="http://www.w3.org/2000/svg" stroke-width="2" stroke="currentColor" fill="none" stroke-linecap="round" stroke-linejoin="round" viewBox="0 0 24 24" width="20" height="20"><path stroke="none" d="M0 0h24v24H0z"/><path d="M8.433 6H3l-.114.006a1 1 0 00-.743 1.508L4.833 12l-2.69 4.486-.054.1A1 1 0 003 18h5.434l2.709 4.514.074.108a1 1 0 001.64-.108L15.565 18H21l.114-.006a1 1 0 00.743-1.508L19.166 12l2.691-4.486.054-.1A1 1 0 0021 6h-5.434l-2.709-4.514a1 1 0 00-1.714 0L8.433 6z" stroke-width="0" fill="currentColor"/></svg>