<svg xmlns="http://www.w3.org/2000/svg" stroke-width="2" stroke="currentColor" fill="none" stroke-linecap="round" stroke-linejoin="round" viewBox="0 0 24 24" width="20" height="20"><path stroke="none" d="M0 0h24v24H0z"/><path d="M12 6c-.629 0-1.214.301-1.606.807l-2.908 3.748a2.395 2.395 0 00-.011 2.876l2.919 3.762c.39.505.977.807 1.606.807.629 0 1.214-.301 1.606-.807l2.908-3.748a2.395 2.395 0 00.011-2.876l-2.919-3.762A2.032 2.032 0 0012 6zm-7 5a1 1 0 01.117 1.993L5 13H3a1 1 0 01-.117-1.993L3 11h2zm16 0a1 1 0 01.117 1.993L21 13h-2a1 1 0 01-.117-1.993L19 11h2z" stroke-width="0" fill="currentColor"/></svg>