<svg xmlns="http://www.w3.org/2000/svg" stroke-width="2" stroke="currentColor" fill="none" stroke-linecap="round" stroke-linejoin="round" viewBox="0 0 24 24" width="20" height="20"><path stroke="none" d="M0 0h24v24H0z"/><path d="M18 3a3 3 0 012.995 2.824L21 6v12a3 3 0 01-2.824 2.995L18 21H6a3 3 0 01-2.995-2.824L3 18V6a3 3 0 012.824-2.995L6 3h12zm-3 2H6a1 1 0 00-.993.883L5 6v12a1 1 0 00.883.993L6 19h9V5zm-3.293 4.293a1 1 0 01.083 1.32l-.083.094L10.415 12l1.292 1.293a1 1 0 01.083 1.32l-.083.094a1 1 0 01-1.32.083l-.094-.083-2-2a1 1 0 01-.083-1.32l.083-.094 2-2a1 1 0 011.414 0z" stroke-width="0" fill="currentColor"/></svg>