<svg xmlns="http://www.w3.org/2000/svg" stroke-width="2" stroke="currentColor" fill="none" stroke-linecap="round" stroke-linejoin="round" viewBox="0 0 24 24" width="20" height="20"><path stroke="none" d="M0 0h24v24H0z"/><path d="M14.872 14.287l6.522 6.52a2.996 2.996 0 01-2.218 1.188L19 22H5a2.995 2.995 0 01-2.394-1.191l6.521-6.522 2.318 1.545.116.066a1 1 0 00.878 0l.116-.066 2.317-1.545zM2 9.535l5.429 3.62L2 18.585zm20 0v9.05l-5.43-5.43zm-9.56-7.433l.115.066 8.444 5.629-8.999 6-9-6 8.445-5.63a1 1 0 01.994-.065z" stroke-width="0" fill="currentColor"/></svg>