<svg xmlns="http://www.w3.org/2000/svg" stroke-width="2" stroke="currentColor" fill="none" stroke-linecap="round" stroke-linejoin="round" viewBox="0 0 24 24" width="20" height="20"><path stroke="none" d="M0 0h24v24H0z"/><path d="M22 7.535V17a3 3 0 01-2.824 2.995L19 20H5a3 3 0 01-2.995-2.824L2 17V7.535l9.445 6.297.116.066a1 1 0 00.878 0l.116-.066L22 7.535z" stroke-width="0" fill="currentColor"/><path d="M19 4c1.08 0 2.027.57 2.555 1.427L12 11.797l-9.555-6.37a2.999 2.999 0 012.354-1.42L5 4h14z" stroke-width="0" fill="currentColor"/></svg>