<svg xmlns="http://www.w3.org/2000/svg" stroke-width="2" stroke="currentColor" fill="none" stroke-linecap="round" stroke-linejoin="round" viewBox="0 0 24 24" width="20" height="20"><path stroke="none" d="M0 0h24v24H0z"/><path d="M8 9h8m-8 4h4.5M10 19l-1-1H6a3 3 0 01-3-3V7a3 3 0 013-3h12a3 3 0 013 3v4.5m-3.2 9.317l-2.172 1.138a.392.392 0 01-.568-.41l.415-2.411-1.757-1.707a.389.389 0 01.217-.665l2.428-.352 1.086-2.193a.392.392 0 01.702 0l1.086 2.193 2.428.352a.39.39 0 01.217.665l-1.757 1.707.414 2.41a.39.39 0 01-.567.411L17.8 20.817z"/></svg>