<svg xmlns="http://www.w3.org/2000/svg" stroke-width="2" stroke="currentColor" fill="none" stroke-linecap="round" stroke-linejoin="round" viewBox="0 0 24 24" width="20" height="20"><path stroke="none" d="M0 0h24v24H0z"/><path d="M17 3.34a10 10 0 11-14.995 8.984L2 12l.005-.324a10 10 0 017.046-9.232A3 3 0 0012 6a1 1 0 000-2l-.117-.007A1 1 0 0112 2c1.726 0 3.453.447 5 1.34zm-1.8 10.946a1 1 0 00-1.414.014 2.5 2.5 0 01-3.572 0 1 1 0 00-1.428 1.4 4.5 4.5 0 006.428 0 1 1 0 00-.014-1.414zM9.01 9l-.127.007A1 1 0 009 11l.127-.007A1 1 0 009.01 9zm6 0l-.127.007A1 1 0 0015 11l.127-.007A1 1 0 0015.01 9z" stroke-width="0" fill="currentColor"/></svg>