<svg xmlns="http://www.w3.org/2000/svg" stroke-width="2" stroke="currentColor" fill="none" stroke-linecap="round" stroke-linejoin="round" viewBox="0 0 24 24" width="20" height="20"><path stroke="none" d="M0 0h24v24H0z"/><path d="M15 9a3 3 0 012.599 1.5h0c.933 1.333 2.133 1.556 3.126 1.556h.291l.77-.044h.213c-.963 1.926-3.163 2.925-6.6 3h-.565a3 3 0 01.165-6z"/><path d="M9 9a3 3 0 00-2.599 1.5h0c-.933 1.333-2.133 1.556-3.126 1.556h-.291l-.77-.044h-.213c.963 1.926 3.163 2.925 6.6 3h.565a3 3 0 00-.165-6z"/></svg>