<svg xmlns="http://www.w3.org/2000/svg" stroke-width="2" stroke="currentColor" fill="none" stroke-linecap="round" stroke-linejoin="round" viewBox="0 0 24 24" width="20" height="20"><path stroke="none" d="M0 0h24v24H0z"/><path d="M6.537 6.516a6 6 0 007.932 7.954m2.246-1.76A6 6 0 008.3 4.277"/><path d="M12 3c1.333.333 2 2.333 2 6 0 .348 0 .681-.018 1m-.545 3.43c-.332.89-.811 1.414-1.437 1.57m0-12c-.938.234-1.547 1.295-1.825 3.182m-.156 3.837c.117 3.02.777 4.68 1.981 4.981M6 9h3m4 0h5M3 19h7m4 0h5m-9 0a2 2 0 104 0 2 2 0 10-4 0m2-4v2M3 3l18 18"/></svg>