<svg xmlns="http://www.w3.org/2000/svg" stroke-width="2" stroke="currentColor" fill="none" stroke-linecap="round" stroke-linejoin="round" viewBox="0 0 24 24" width="20" height="20"><path stroke="none" d="M0 0h24v24H0z"/><path d="M15 15h-1a2 2 0 00-1 3.75A1.3 1.3 0 0112 21 9 9 0 015.628 5.644M8 4c1.236-.623 2.569-1 4-1 4.97 0 9 3.582 9 8 0 1.06-.474 2.078-1.318 2.828a4.516 4.516 0 01-1.127.73"/><path d="M7.5 10.5a1 1 0 102 0 1 1 0 10-2 0m4-3a1 1 0 102 0 1 1 0 10-2 0m4 3a1 1 0 102 0 1 1 0 10-2 0M3 3l18 18"/></svg>