<svg xmlns="http://www.w3.org/2000/svg" stroke-width="2" stroke="currentColor" fill="none" stroke-linecap="round" stroke-linejoin="round" viewBox="0 0 24 24" width="20" height="20"><path stroke="none" d="M0 0h24v24H0z"/><path d="M19 2a3 3 0 013 3v14a3 3 0 01-3 3H5a3 3 0 01-3-3V5a3 3 0 013-3zM8.613 8.21a1 1 0 00-1.32.083l-.083.094a1 1 0 00.083 1.32L9.585 12l-2.292 2.293-.083.094a1 1 0 001.497 1.32l3-3 .083-.094a1 1 0 00-.083-1.32l-3-3zm5 0a1 1 0 00-1.32.083l-.083.094a1 1 0 00.083 1.32L14.585 12l-2.292 2.293-.083.094a1 1 0 001.497 1.32l3-3 .083-.094a1 1 0 00-.083-1.32l-3-3z" stroke-width="0" fill="currentColor"/></svg>