<svg xmlns="http://www.w3.org/2000/svg" stroke-width="2" stroke="currentColor" fill="none" stroke-linecap="round" stroke-linejoin="round" viewBox="0 0 24 24" width="20" height="20"><path stroke="none" d="M0 0h24v24H0z"/><path d="M19 2H5a3 3 0 00-3 3v14a3 3 0 003 3h14a3 3 0 003-3V5a3 3 0 00-3-3zM9.613 8.21l.094.083L12 10.585l2.293-2.292a1 1 0 011.497 1.32l-.083.094L13.415 12l2.292 2.293a1 1 0 01-1.32 1.497l-.094-.083L12 13.415l-2.293 2.292a1 1 0 01-1.497-1.32l.083-.094L10.585 12 8.293 9.707a1 1 0 011.32-1.497z" stroke-width="0" fill="currentColor"/></svg>