<svg xmlns="http://www.w3.org/2000/svg" stroke-width="2" stroke="currentColor" fill="none" stroke-linecap="round" stroke-linejoin="round" viewBox="0 0 24 24" width="20" height="20"><path stroke="none" d="M0 0h24v24H0z"/><path d="M19 2a3 3 0 013 3v14a3 3 0 01-3 3H5a3 3 0 01-3-3V5a3 3 0 013-3zm-6.293 5.293a1 1 0 00-1.414 0l-4 4-.083.094-.064.092-.052.098-.044.11-.03.112-.017.126L7 12l.004.09.007.058.025.118.035.105.054.113.071.111c.03.04.061.077.097.112l4 4 .094.083a1 1 0 001.32-.083l.083-.094a1 1 0 00-.083-1.32L10.415 13H16l.117-.007A1 1 0 0016 11h-5.585l2.292-2.293.083-.094a1 1 0 00-.083-1.32z" stroke-width="0" fill="currentColor"/></svg>