<?xml version="1.0" encoding="UTF-8" standalone="no"?><!DOCTYPE svg PUBLIC "-//W3C//DTD SVG 1.1//EN" "http://www.w3.org/Graphics/SVG/1.1/DTD/svg11.dtd"><svg width="100%" height="100%" viewBox="0 0 125 125" version="1.1" xmlns="http://www.w3.org/2000/svg" xmlns:xlink="http://www.w3.org/1999/xlink" xml:space="preserve" xmlns:serif="http://www.serif.com/" style="fill-rule:evenodd;clip-rule:evenodd;stroke-linejoin:round;stroke-miterlimit:2;"><path id="tablericons" d="M27.767,2.777c23.03,-3.703 46.453,-3.703 69.478,0c12.265,3.108 21.876,12.721 24.982,24.987c3.707,23.01 3.707,46.467 -0,69.477c-3.108,12.264 -12.718,21.874 -24.982,24.982c-23.03,3.703 -46.453,3.703 -69.478,-0c-12.265,-3.106 -21.878,-12.717 -24.986,-24.982c-3.708,-23.01 -3.708,-46.467 -0,-69.477c3.106,-12.266 12.716,-21.879 24.981,-24.987l0.005,0Zm41.524,41.341l-30.526,3.549l-9.041,34.912c-0.685,2.694 -0.205,5.555 1.323,7.877l20.485,-19.105c-1.702,-3.318 -0.596,-7.3 2.626,-9.426c3.241,-2.115 7.535,-1.774 10.401,0.827c2.789,2.602 3.165,6.699 0.885,9.7c-2.279,3.005 -6.549,4.039 -10.108,2.452l-20.485,19.125c2.534,1.457 5.578,1.919 8.473,1.284l37.436,-8.43l3.804,-28.468l-15.273,-14.297Zm6.43,-18.384l-5.862,9.719l23.356,23.371l9.733,-5.833l-27.227,-27.257Z" style="fill:#444;fill-rule:nonzero;"/></svg>