<svg xmlns="http://www.w3.org/2000/svg" stroke-width="2" stroke="currentColor" fill="none" stroke-linecap="round" stroke-linejoin="round" viewBox="0 0 24 24" width="20" height="20"><path stroke="none" d="M0 0h24v24H0z"/><path d="M4 11h4a1 1 0 011 1v8a1 1 0 01-1 1H6a3 3 0 01-2.995-2.824L3 18v-6a1 1 0 011-1zm17 1v6a3 3 0 01-2.824 2.995L18 21h-6a1 1 0 01-1-1v-8a1 1 0 011-1h8a1 1 0 011 1zm-3-9a3 3 0 012.995 2.824L21 6v2a1 1 0 01-1 1h-8a1 1 0 01-1-1V4a1 1 0 011-1h6zM9 4v4a1 1 0 01-1 1H4a1 1 0 01-1-1V6a3 3 0 012.824-2.995L6 3h2a1 1 0 011 1z" stroke-width="0" fill="currentColor"/></svg>