<svg xmlns="http://www.w3.org/2000/svg" stroke-width="2" stroke="currentColor" fill="none" stroke-linecap="round" stroke-linejoin="round" viewBox="0 0 24 24" width="20" height="20"><path stroke="none" d="M0 0h24v24H0z"/><path d="M20 6a1 1 0 01.117 1.993L20 8h-.081L19 19a3 3 0 01-2.824 2.995L16 22H8c-1.598 0-2.904-1.249-2.992-2.75l-.005-.167L4.08 8H4a1 1 0 01-.117-1.993L4 6h16zm-6-4a2 2 0 012 2 1 1 0 01-1.993.117L14 4h-4l-.007.117A1 1 0 018 4a2 2 0 011.85-1.995L10 2h4z" stroke-width="0" fill="currentColor"/></svg>