<svg xmlns="http://www.w3.org/2000/svg" stroke-width="2" stroke="currentColor" fill="none" stroke-linecap="round" stroke-linejoin="round" viewBox="0 0 24 24" width="20" height="20"><path stroke="none" d="M0 0h24v24H0z"/><path d="M17 3.34a10 10 0 11-14.995 8.984L2 12l.005-.324A10 10 0 0117 3.34zM8 5.072A8 8 0 0012 20l.2-.005a4 4 0 000-7.99L12 12a4 4 0 01-.2-7.995L12 4a7.995 7.995 0 00-4 1.072zM12 6.5a1.5 1.5 0 100 3 1.5 1.5 0 000-3z" stroke-width="0" fill="currentColor"/><path d="M12 14.5a1.5 1.5 0 110 3 1.5 1.5 0 010-3z" stroke-width="0" fill="currentColor"/></svg>