<?xml version="1.0" encoding="UTF-8" standalone="no"?><!DOCTYPE svg PUBLIC "-//W3C//DTD SVG 1.1//EN" "http://www.w3.org/Graphics/SVG/1.1/DTD/svg11.dtd"><svg width="100%" height="100%" viewBox="0 0 125 125" version="1.1" xmlns="http://www.w3.org/2000/svg" xmlns:xlink="http://www.w3.org/1999/xlink" xml:space="preserve" xmlns:serif="http://www.serif.com/" style="fill-rule:evenodd;clip-rule:evenodd;stroke-linejoin:round;stroke-miterlimit:2;"><path id="fa6" d="M125,4.47l-0,93.75c-17.605,6.291 -22.974,8.93 -33.341,8.93c-17.528,-0 -24.165,-8.93 -41.66,-8.93c-5.748,-0 -10.213,1.009 -14.284,2.288l-0,-17.856c4.071,-1.283 8.536,-2.287 14.284,-2.287c17.504,-0 24.137,8.925 41.66,8.925c5.691,-0 9.93,-0.836 15.486,-2.596l-0,-58.03c-5.556,1.759 -9.795,2.596 -15.486,2.596c-17.528,-0 -24.165,-8.926 -41.66,-8.926c-14.173,0 -20.897,5.744 -32.144,8.008l0,85.742c0,4.898 -4.03,8.928 -8.927,8.928c-4.898,0 -8.928,-4.03 -8.928,-8.928l0,-107.399c0,-4.681 3.999,-8.685 8.67,-8.685c4.682,0 9.18,3.999 9.18,8.68l0,3.783c11.247,-2.24 17.976,-7.998 32.144,-7.998c17.504,-0 24.137,8.93 41.66,8.93c10.382,-0 15.736,-2.644 33.341,-8.93l0.005,0.005Z" style="fill:#444;fill-rule:nonzero;"/></svg>