<svg fill="none" xmlns="http://www.w3.org/2000/svg" viewBox="0 0 24 24" width="20" height="20"><path d="M14 7c0 2.21 1.644 4 4 4s4-1.79 4-4-1.644-4-4-4-4 1.79-4 4zm-4 0c0 2.21-1.644 4-4 4S2 9.21 2 7s1.644-4 4-4 4 1.79 4 4z" stroke="#000" stroke-width="2"/><path d="M14 7v12a2 2 0 002 2v0a2 2 0 002-2v-8" stroke="#000" stroke-width="2" stroke-linecap="round"/><path d="M14 17h4M6 17h4" stroke="#000" stroke-width="2"/><path d="M10 7v12a2 2 0 01-2 2v0a2 2 0 01-2-2v-8" stroke="#000" stroke-width="2" stroke-linecap="round"/><path d="M20 4v0a5.408 5.408 0 000 6v0M4 4v0a5.408 5.408 0 010 6v0" stroke="#000" stroke-width="2"/></svg>