<svg fill="none" xmlns="http://www.w3.org/2000/svg" viewBox="0 0 24 24" width="20" height="20"><path d="M10.971 6.617a2 2 0 012.058 0l3.486 2.092a1 1 0 01.485.857v4.302a2 2 0 01-.971 1.715l-3 1.8a2 2 0 01-2.058 0l-3-1.8A2 2 0 017 13.868V9.566a1 1 0 01.486-.857l3.485-2.092z" stroke="#000" stroke-width="2" stroke-linecap="round" stroke-linejoin="round"/><path d="M7 9l5 2.759m0 0L17 9m-5 2.759V17" stroke="#000" stroke-width="2" stroke-linejoin="round"/><path d="M6 2H4a2 2 0 00-2 2v2m16 16h2a2 2 0 002-2v-2m0-12V4a2 2 0 00-2-2h-2M2 18v2a2 2 0 002 2h2" stroke="#000" stroke-width="2" stroke-linecap="round" stroke-linejoin="round"/></svg>