<svg fill="none" xmlns="http://www.w3.org/2000/svg" viewBox="0 0 24 24" width="20" height="20"><path d="M16.926 19.381l-4.302 1.414a2 2 0 01-1.248 0L7.074 19.38a4 4 0 01-2.623-2.794L3 11l9 1 9-1-1.451 5.587a4 4 0 01-2.623 2.794z" stroke="#000" stroke-width="2" stroke-linecap="round" stroke-linejoin="round"/><path d="M6.497 7.257A2 2 0 018.354 6h7.292a2 2 0 011.857 1.257L19 11l-7 1-7-1 1.497-3.743zM12 3v3m-1-3h2m-1 9v4" stroke="#000" stroke-width="2" stroke-linecap="round" stroke-linejoin="round"/></svg>