<svg fill="none" xmlns="http://www.w3.org/2000/svg" viewBox="0 0 24 24" width="20" height="20"><path d="M3 10a2 2 0 012-2h14a2 2 0 012 2v9a2 2 0 01-2 2H5a2 2 0 01-2-2v-9z" stroke="#000" stroke-width="2" stroke-linecap="round" stroke-linejoin="round"/><path d="M3 12l2.914 2.331c1.187.95 2.9.855 3.975-.22v0a2.985 2.985 0 014.222 0v0a2.985 2.985 0 003.975.22L21 12" stroke="#000" stroke-width="2" stroke-linecap="round"/><path d="M12 7a2 2 0 01-2-2c0-.876.677-1.576 1.273-2.217L12 2l.727.783C13.323 3.424 14 4.124 14 5a2 2 0 01-2 2z" stroke="#000" stroke-width="2" stroke-linecap="round" stroke-linejoin="round"/></svg>