<svg fill="none" xmlns="http://www.w3.org/2000/svg" viewBox="0 0 24 24" width="20" height="20"><path d="M2 6a4 4 0 014-4h12a4 4 0 014 4v5H2V6z" stroke="#000" stroke-width="2" stroke-linecap="round" stroke-linejoin="round"/><path d="M18.5 16.5h-3" stroke="#000" stroke-width="2" stroke-linecap="round"/><path d="M12 11h10v7a4 4 0 01-4 4h-6V11zM12 11H2v7a4 4 0 004 4h6V11z" stroke="#000" stroke-width="2" stroke-linecap="round" stroke-linejoin="round"/><path d="M5.5 18L7 16.5m0 0L8.5 15M7 16.5L8.5 18M7 16.5L5.5 15" stroke="#000" stroke-width="2" stroke-linecap="round"/></svg>