<svg fill="none" xmlns="http://www.w3.org/2000/svg" viewBox="0 0 24 24" width="20" height="20"><path d="M6.233 5.834l.445-2.226A2 2 0 018.64 2h6.72a2 2 0 011.962 1.608l.445 2.226a1.879 1.879 0 001.387 1.454A3.758 3.758 0 0122 10.934V18a4 4 0 01-4 4H6a4 4 0 01-4-4v-7.066a3.758 3.758 0 012.846-3.646 1.879 1.879 0 001.387-1.454z" stroke="#000" stroke-width="2" stroke-linecap="round" stroke-linejoin="round"/><circle cx="12" cy="14" r="4" stroke="#000" stroke-width="2" stroke-linecap="round" stroke-linejoin="round"/><path d="M11 6h2" stroke="#000" stroke-width="2" stroke-linecap="round" stroke-linejoin="round"/></svg>