<svg fill="none" xmlns="http://www.w3.org/2000/svg" viewBox="0 0 24 24" width="20" height="20"><path d="M14 19c3.771 0 5.657 0 6.828-1.172C22 16.657 22 14.771 22 11c0-3.771 0-5.657-1.172-6.828C19.657 3 17.771 3 14 3h-4C6.229 3 4.343 3 3.172 4.172 2 5.343 2 7.229 2 11c0 3.771 0 5.657 1.172 6.828.653.654 1.528.943 2.828 1.07" stroke="#000" stroke-width="2" stroke-linecap="round" stroke-linejoin="round"/><path d="M10 8.484C10.5 7.494 11 7 12 7c1.246 0 2 .989 2 1.978s-.5 1.033-2 2.022v1m0 2.5v.5m2 4c-1.236 0-2.598.5-3.841 1.145-1.998 1.037-2.997 1.556-3.489 1.225-.492-.33-.399-1.355-.212-3.404L6.5 17.5" stroke="#000" stroke-width="2" stroke-linecap="round"/></svg>