<svg fill="none" xmlns="http://www.w3.org/2000/svg" viewBox="0 0 24 24" width="20" height="20"><path d="M11 7c4.418 0 8 .895 8 2s-3.582 2-8 2-8-.895-8-2c0-.357.375-.693 1.033-.984" stroke="#000" stroke-width="2" stroke-linecap="round" stroke-linejoin="round"/><path d="M3 9v9.343c0 1.061.44 2.08 1.409 2.513C5.624 21.399 7.711 22 11 22c3.29 0 5.377-.601 6.591-1.144.968-.433 1.409-1.452 1.409-2.513V9M19 10v0a3 3 0 013 3v0a3 3 0 01-3 3v0M7 3v4M11 2v2M15 4v3" stroke="#000" stroke-width="2" stroke-linecap="round" stroke-linejoin="round"/></svg>