<svg fill="none" xmlns="http://www.w3.org/2000/svg" viewBox="0 0 24 24" width="20" height="20"><path d="M20 16V8.5c0-.828-.641-1.5-1.48-1.5C18 7 17 7.3 17 8.5v-3c0-.828-.641-1.5-1.48-1.5-.507 0-1.52.3-1.52 1.5v-2c0-.828-.641-1.5-1.48-1.5-.84 0-1.52.672-1.52 1.5v2C11 4.3 10.007 4 9.5 4 8.66 4 8 4.691 8 5.52V14m3-8.5V11m3-5.5V11m3-5.5V11" stroke="#000" stroke-width="2" stroke-linecap="round" stroke-linejoin="round"/><path d="M20 16c0 4-3.134 6-7 6s-5.196-1-8.196-6l-1.571-2.605c-.536-.868-.107-1.994.881-2.314a1.657 1.657 0 011.818.552L8 14.033" stroke="#000" stroke-width="2" stroke-linecap="round" stroke-linejoin="round"/></svg>