<svg fill="none" xmlns="http://www.w3.org/2000/svg" viewBox="0 0 24 24" width="20" height="20"><path d="M3.304 6.132A4 4 0 017.209 3h9.582a4 4 0 013.905 3.132l.147.662a23.997 23.997 0 010 10.412l-.147.662A4 4 0 0116.791 21H7.21a4 4 0 01-3.905-3.132l-.147-.662a24 24 0 010-10.412l.147-.662z" stroke="#000" stroke-width="2" stroke-linecap="round" stroke-linejoin="round"/><path d="M2.5 13h6.338c0 1 .973 3 3.405 3 2.433 0 3.406-2 3.406-3H21.5" stroke="#000" stroke-width="2" stroke-linejoin="round"/></svg>