<svg fill="none" xmlns="http://www.w3.org/2000/svg" viewBox="0 0 24 24" width="20" height="20"><path d="M7 3s3 .5 5 .5 5-.5 5-.5l.91 8.197a.95.95 0 01-.685 1.032C16.141 12.524 14.07 13 12 13s-4.14-.476-5.225-.771a.95.95 0 01-.686-1.032L7 3z" stroke="#000" stroke-width="2" stroke-linecap="round" stroke-linejoin="round"/><path d="M3.869 8.147l-.862 10.294c-.03.366.04.733.205 1.06l.197.393A2.01 2.01 0 005.206 21h13.588a2.01 2.01 0 001.797-1.106l.197-.392c.165-.328.236-.695.205-1.06l-.862-10.295a3.99 3.99 0 00-.79-2.068L17 3s-3 .5-5 .5S6.978 3 6.978 3l-2.32 3.08a3.99 3.99 0 00-.79 2.067z" stroke="#000" stroke-width="2" stroke-linecap="round" stroke-linejoin="round"/><path d="M6 12l-3 7m15-7l3 7" stroke="#000" stroke-width="2" stroke-linecap="round"/></svg>