<svg fill="none" xmlns="http://www.w3.org/2000/svg" viewBox="0 0 24 24" width="20" height="20"><path d="M14 19c3.771 0 5.657 0 6.828-1.172C22 16.657 22 14.771 22 11c0-3.771 0-5.657-1.172-6.828C19.657 3 17.771 3 14 3h-4C6.229 3 4.343 3 3.172 4.172 2 5.343 2 7.229 2 11c0 3.771 0 5.657 1.172 6.828.653.654 1.528.943 2.828 1.07" stroke="#000" stroke-width="2" stroke-linecap="round" stroke-linejoin="round"/><path d="M14 19c-1.236 0-2.598.5-3.841 1.145-1.998 1.037-2.997 1.556-3.489 1.225-.492-.33-.399-1.355-.212-3.404L6.5 17.5" stroke="#000" stroke-width="2" stroke-linecap="round"/><path d="M5.5 13.5l1-2m0 0l1.106-2.211a1 1 0 011.788 0L10.5 11.5m-4 0h4m0 0l1 2m1-6h1.982V9c0 .5-.496 1.5-1.487 1.5m3.964-3v2m0 0v4m0-4H18.5" stroke="#000" stroke-width="2" stroke-linecap="round" stroke-linejoin="round"/></svg>