<svg fill="none" xmlns="http://www.w3.org/2000/svg" viewBox="0 0 24 24" width="20" height="20"><path d="M8.368 4.79l-2.736-.913A2 2 0 003 5.775v11.783a2 2 0 001.368 1.898l4 1.333a2 2 0 001.264 0l4.736-1.578a2 2 0 011.264 0l2.736.912A2 2 0 0021 18.224V6.442a2 2 0 00-1.367-1.898l-4-1.333a2 2 0 00-1.265 0L9.631 4.789a2 2 0 01-1.264 0z" stroke="#000" stroke-width="2" stroke-linecap="round" stroke-linejoin="round"/><path d="M9 5v16m6-18v16" stroke="#000" stroke-width="2" stroke-linejoin="round"/></svg>