<svg fill="none" xmlns="http://www.w3.org/2000/svg" viewBox="0 0 24 24" width="20" height="20"><path d="M5 21h12a4 4 0 004-4V5a2 2 0 00-2-2H9a2 2 0 00-2 2v13c0 1.657-.343 3-2 3z" stroke="#000" stroke-width="2" stroke-linecap="round" stroke-linejoin="round"/><path d="M3 10a2 2 0 012-2h2v10.5c0 1.38-.62 2.5-2 2.5s-2-1.12-2-2.5V10z" stroke="#000" stroke-width="2" stroke-linecap="round" stroke-linejoin="round"/><circle cx="12" cy="8" r="1" stroke="#000" stroke-width="2" stroke-linecap="round"/><path d="M11 14h6m-6 3h3" stroke="#000" stroke-width="2" stroke-linecap="round"/></svg>