<svg fill="none" xmlns="http://www.w3.org/2000/svg" viewBox="0 0 24 24" width="20" height="20"><path d="M16.719 19.752l-.64-5.124A3 3 0 0013.101 12h-2.204a3 3 0 00-2.976 2.628l-.641 5.124A2 2 0 009.266 22h5.468a2 2 0 001.985-2.248z" stroke="#000" stroke-width="2" stroke-linecap="round" stroke-linejoin="round"/><circle cx="12" cy="5" r="3" stroke="#000" stroke-width="2"/><circle cx="4" cy="9" r="2" stroke="#000" stroke-width="2"/><circle cx="20" cy="9" r="2" stroke="#000" stroke-width="2"/><path d="M4 14h-.306a2 2 0 00-1.973 1.671l-.333 2A2 2 0 003.361 20H7M20 14h.306a2 2 0 011.973 1.671l.333 2A2 2 0 0120.639 20H17" stroke="#000" stroke-width="2" stroke-linecap="round" stroke-linejoin="round"/></svg>