<svg fill="none" xmlns="http://www.w3.org/2000/svg" viewBox="0 0 24 24" width="20" height="20"><path d="M10.554 6.24L7.171 2.335c-.39-.45-1.105-.448-1.558.006L2.831 5.128c-.828.829-1.065 2.06-.586 3.047a29.207 29.207 0 0013.561 13.58c.986.479 2.216.242 3.044-.587l2.808-2.813c.455-.455.456-1.174.002-1.564l-3.92-3.365c-.41-.352-1.047-.306-1.458.106l-1.364 1.366a.462.462 0 01-.553.088 14.557 14.557 0 01-5.36-5.367.463.463 0 01.088-.554l1.36-1.361c.412-.414.457-1.054.101-1.465z" stroke="#000" stroke-width="2" stroke-linecap="round" stroke-linejoin="round"/></svg>