<svg fill="none" xmlns="http://www.w3.org/2000/svg" viewBox="0 0 24 24" width="20" height="20"><path d="M19 21H7a4 4 0 01-4-4V5a2 2 0 012-2h10a2 2 0 012 2v13c0 1.657.343 3 2 3z" stroke="#000" stroke-width="2" stroke-linecap="round" stroke-linejoin="round"/><path d="M21 10a2 2 0 00-2-2h-2v10.5c0 1.38.62 2.5 2 2.5s2-1.12 2-2.5V10z" stroke="#000" stroke-width="2" stroke-linecap="round" stroke-linejoin="round"/><path d="M13 11H7m6-4H7m3 8H7" stroke="#000" stroke-width="2" stroke-linecap="round"/></svg>