<svg fill="none" xmlns="http://www.w3.org/2000/svg" viewBox="0 0 24 24" width="20" height="20"><path d="M11.029 2.54a2 2 0 011.942 0l7.515 4.174a1 1 0 01.514.874v8.235a2 2 0 01-1.029 1.748l-7 3.89a2 2 0 01-1.942 0l-7-3.89A2 2 0 013 15.824V7.588a1 1 0 01.514-.874L11.03 2.54z" stroke="#000" stroke-width="2" stroke-linecap="round" stroke-linejoin="round"/><path d="M7.5 4.5l9 5V13M6 12.328L9 14" stroke="#000" stroke-width="2" stroke-linecap="round" stroke-linejoin="round"/><path d="M3 7l9 5m0 0l9-5m-9 5v9.5" stroke="#000" stroke-width="2" stroke-linejoin="round"/></svg>