<svg fill="none" xmlns="http://www.w3.org/2000/svg" viewBox="0 0 24 24" width="20" height="20"><path d="M5 2l.19.94a4 4 0 002.57 2.974L8 6l-.24.086A4 4 0 005.19 9.06L5 10l-.19-.94a4 4 0 00-2.57-2.974L2 6l.24-.086A4 4 0 004.81 2.94L5 2zm3 14l.23 1.276a2 2 0 001.219 1.501L10 19l-.551.223a2 2 0 00-1.22 1.5L8 22l-.23-1.276a2 2 0 00-1.219-1.501L6 19l.551-.223a2 2 0 001.22-1.5L8 16zm8-13l.556 2.654a8 8 0 005.213 5.92L23 12l-1.231.426a8 8 0 00-5.213 5.92L16 21l-.556-2.654a8 8 0 00-5.213-5.92L9 12l1.231-.426a8 8 0 005.213-5.92L16 3z" stroke="#000" stroke-width="2" stroke-linecap="round" stroke-linejoin="round"/></svg>