<svg fill="none" xmlns="http://www.w3.org/2000/svg" viewBox="0 0 24 24" width="20" height="20"><path d="M3.183 14A.18.18 0 013 13.817C3.09 8.378 7.085 4 12 4c4.916 0 8.91 4.378 8.998 9.817a.18.18 0 01-.18.183.188.188 0 01-.17-.11c-.525-1.123-1.58-1.89-2.798-1.89-1.185 0-1.814.727-2.306 1.802a.336.336 0 01-.304.198.366.366 0 01-.326-.224C14.44 12.729 13.099 12 12 12c-1.099 0-2.44.73-2.914 1.776A.366.366 0 018.76 14a.336.336 0 01-.304-.198C7.964 12.727 7.336 12 6.15 12c-1.217 0-2.273.767-2.798 1.89a.188.188 0 01-.17.11z" stroke="#000" stroke-width="2" stroke-linecap="round" stroke-linejoin="round"/><path d="M12 12v8a2 2 0 01-2 2v0a2 2 0 01-2-2v-1m4-15V2" stroke="#000" stroke-width="2" stroke-linecap="round" stroke-linejoin="round"/></svg>