<svg fill="none" xmlns="http://www.w3.org/2000/svg" viewBox="0 0 24 24" width="20" height="20"><path d="M12 4c-4.915 0-8.91 3.378-8.999 8.817a.18.18 0 00.182.183.188.188 0 00.17-.11C3.876 11.767 4.782 11.5 6 11.5c1.185 0 1.964.227 2.456 1.302.054.12.172.198.304.198a.366.366 0 00.326-.224C9.56 11.729 10.901 11.5 12 11.5M12 4c4.916 0 8.91 3.378 8.998 8.817a.18.18 0 01-.18.183.188.188 0 01-.17-.11c-.525-1.123-1.43-1.39-2.648-1.39-1.185 0-1.964.227-2.456 1.302a.336.336 0 01-.304.198.366.366 0 01-.326-.224C14.44 11.729 13.099 11.5 12 11.5M12 4V2m0 9.5V20a2 2 0 11-4 0" stroke="#000" stroke-width="2" stroke-linecap="round" stroke-linejoin="round"/></svg>