<svg viewBox="0 0 24 24" xmlns="http://www.w3.org/2000/svg" width="20" height="20"><path d="M12 18c.714 0 1.37.25 1.886.667L12 21l-1.886-2.333A2.988 2.988 0 0112 18zM2.808 1.394L20.485 19.07l-1.414 1.414-3.682-3.68-.246.306A4.98 4.98 0 0012 16a4.98 4.98 0 00-3.14 1.11l-1.885-2.334a7.963 7.963 0 014.622-1.766l-1.773-1.772a9.962 9.962 0 00-4.106 1.982L3.83 10.887A12.985 12.985 0 017.416 8.83L5.885 7.3a15 15 0 00-3.31 2.032L.689 6.997a18.018 18.018 0 012.952-1.942L1.393 2.808l1.415-1.414zM16.084 11.87l-3.867-3.867L12 8c3.095 0 5.937 1.082 8.17 2.887l-1.886 2.334a10.005 10.005 0 00-2.2-1.351zM12 3c4.285 0 8.22 1.497 11.31 3.997l-1.885 2.334A14.937 14.937 0 0012 6c-.572 0-1.136.031-1.69.093L7.724 3.511c1.37-.334 2.802-.51 4.275-.51z"/></svg>