<svg fill="none" xmlns="http://www.w3.org/2000/svg" viewBox="0 0 24 24" width="20" height="20"><path fill-rule="evenodd" clip-rule="evenodd" d="M3.75 3.375c0-1.036.84-1.875 1.875-1.875H9a3.75 3.75 0 013.75 3.75v1.875c0 1.036.84 1.875 1.875 1.875H16.5a3.75 3.75 0 013.75 3.75v7.875c0 1.035-.84 1.875-1.875 1.875H5.625a1.875 1.875 0 01-1.875-1.875V3.375zm10.5 1.875a5.23 5.23 0 00-1.279-3.434 9.768 9.768 0 016.963 6.963A5.23 5.23 0 0016.5 7.5h-1.875a.375.375 0 01-.375-.375V5.25zm-3.674 9.583a2.249 2.249 0 013.765-2.174.75.75 0 001.06-1.06A3.75 3.75 0 009.076 15H8.25a.75.75 0 000 1.5h1.156a3.75 3.75 0 01-.206 1.559l-.156.439a.75.75 0 001.042.923l.439-.22a2.113 2.113 0 011.613-.115 3.613 3.613 0 002.758-.196l.44-.22a.75.75 0 10-.671-1.341l-.44.22a2.113 2.113 0 01-1.613.114 3.612 3.612 0 00-1.745-.134 5.21 5.21 0 00.042-1.029H12a.75.75 0 000-1.5h-1.379l-.045-.167z" fill="#000"/></svg>