<svg fill="none" xmlns="http://www.w3.org/2000/svg" viewBox="0 0 24 24" width="20" height="20"><path fill-rule="evenodd" clip-rule="evenodd" d="M3.75 3.375c0-1.036.84-1.875 1.875-1.875H9a3.75 3.75 0 013.75 3.75v1.875c0 1.036.84 1.875 1.875 1.875H16.5a3.75 3.75 0 013.75 3.75v7.875c0 1.035-.84 1.875-1.875 1.875H5.625a1.875 1.875 0 01-1.875-1.875V3.375zm10.5 1.875a5.23 5.23 0 00-1.279-3.434 9.768 9.768 0 016.963 6.963A5.23 5.23 0 0016.5 7.5h-1.875a.375.375 0 01-.375-.375V5.25zm-3.9 5.55a.75.75 0 00-1.2.9l1.912 2.55H9.75a.75.75 0 000 1.5h1.5v.75h-1.5a.75.75 0 000 1.5h1.5v.75a.75.75 0 101.5 0V18h1.5a.75.75 0 100-1.5h-1.5v-.75h1.5a.75.75 0 100-1.5h-1.313l1.913-2.55a.75.75 0 10-1.2-.9L12 13l-1.65-2.2z" fill="#000"/></svg>