<svg fill="none" xmlns="http://www.w3.org/2000/svg" viewBox="0 0 24 24" width="20" height="20"><path fill-rule="evenodd" clip-rule="evenodd" d="M12.749 3.743a.75.75 0 01.75.75v15.002a.75.75 0 11-1.5 0v-6.75H2.997v6.75a.75.75 0 01-1.5 0V4.494a.75.75 0 111.5 0v6.75H12v-6.75a.75.75 0 01.75-.75zM18.75 10.5c-.727 0-1.441.055-2.139.16a.75.75 0 11-.223-1.483 15.87 15.87 0 013.82-.11c.95.088 1.926.705 2.168 1.794a5.265 5.265 0 01-.579 3.765 5.265 5.265 0 01.578 3.765c-.24 1.088-1.216 1.706-2.167 1.793a15.942 15.942 0 01-3.82-.109.75.75 0 01.223-1.483 14.366 14.366 0 003.46.099c.467-.043.773-.322.84-.624a3.768 3.768 0 00-.413-2.691H18a.75.75 0 010-1.5h2.498a3.768 3.768 0 00.413-2.69c-.067-.303-.373-.582-.84-.625a14.43 14.43 0 00-1.321-.06z" fill="#000"/></svg>