<svg xmlns="http://www.w3.org/2000/svg" viewBox="0 0 256 256" width="20" height="20"><path fill="none" d="M0 0h256v256H0z"/><path d="M128 56l32-8s26.48 41.35 38.9 87.71a32 32 0 11-61.82 16.56C124.66 105.91 128 56 128 56zM176.27 174.9l14.36 53.57M216 221.67l-48 12.86" fill="none" stroke="currentColor" stroke-linecap="round" stroke-linejoin="round" stroke-width="16"/><path d="M128 32l-32-8s-26.48 41.35-38.9 87.71a32 32 0 1061.82 16.56C130.29 81.8 128 32 128 32zM79.73 150.9l-14.36 53.57M40 197.67l48 12.86M128.49 97.88L179.94 85M126.92 75.73L75.23 62.81M192 40l16-8M208 72h16M56 32l-16-8M40 64H24" fill="none" stroke="currentColor" stroke-linecap="round" stroke-linejoin="round" stroke-width="16"/></svg>