<svg xmlns="http://www.w3.org/2000/svg" viewBox="0 0 256 256" width="20" height="20"><path fill="none" d="M0 0h256v256H0z"/><path d="M180 48h0a28 28 0 0128 28v0a28 28 0 01-28 28h-28 0V76a28 28 0 0128-28zM104 104H76a28 28 0 01-28-28h0a28 28 0 0128-28h0a28 28 0 0128 28v28h0zM152 152h28a28 28 0 0128 28v0a28 28 0 01-28 28h0a28 28 0 01-28-28v-28h0zM76 208h0a28 28 0 01-28-28h0a28 28 0 0128-28h28v28a28 28 0 01-28 28zM104 104h48v48h-48z" fill="none" stroke="currentColor" stroke-linecap="round" stroke-linejoin="round" stroke-width="16"/></svg>