<svg xmlns="http://www.w3.org/2000/svg" viewBox="0 0 256 256" width="20" height="20"><path fill="none" d="M0 0h256v256H0z"/><circle cx="92" cy="140" r="12"/><circle cx="164" cy="140" r="12"/><path d="M153.44 73.69l5-19.63a8.1 8.1 0 019.21-6L203.69 54a8.08 8.08 0 016.54 6l29.53 116.37a8 8 0 01-4.55 9.24l-67 29.7a8.15 8.15 0 01-11-4.56L147 183.06M102.56 73.69l-5-19.63a8.1 8.1 0 00-9.21-6L52.31 54a8.08 8.08 0 00-6.54 6L16.24 176.35a8 8 0 004.55 9.24l67 29.7a8.15 8.15 0 0011-4.56L109 183.06" fill="none" stroke="currentColor" stroke-linecap="round" stroke-linejoin="round" stroke-width="16"/><path d="M80 78.31A178.94 178.94 0 01128 72a178.94 178.94 0 0148 6.31M176 177.69a178.94 178.94 0 01-48 6.31 178.94 178.94 0 01-48-6.31" fill="none" stroke="currentColor" stroke-linecap="round" stroke-linejoin="round" stroke-width="16"/></svg>