<svg xmlns="http://www.w3.org/2000/svg" viewBox="0 0 256 256" width="20" height="20"><path fill="none" d="M0 0h256v256H0z"/><path d="M40 77.09a8 8 0 015.27-7.52l80-29.09a8 8 0 015.46 0l80 29.09a8 8 0 015.27 7.52V136c0 56-88 72-88 72s-88-16-88-72zM88 104h80M88 136h80" fill="none" stroke="currentColor" stroke-linecap="round" stroke-linejoin="round" stroke-width="16"/><path d="M213.41 152H224a24 24 0 0024-24v-24a24 24 0 00-24-24h-8M42.59 152H32a24 24 0 01-24-24v-24a24 24 0 0124-24h8" fill="none" stroke="currentColor" stroke-linecap="round" stroke-linejoin="round" stroke-width="16"/></svg>