<svg xmlns="http://www.w3.org/2000/svg" viewBox="0 0 256 256" width="20" height="20"><path fill="none" d="M0 0h256v256H0z"/><path d="M50.69 184.92A127.52 127.52 0 0064 128a63.85 63.85 0 0124-50M128 128a191.11 191.11 0 01-24 93" fill="none" stroke="currentColor" stroke-linecap="round" stroke-linejoin="round" stroke-width="16"/><path d="M96 128a32 32 0 0164 0 223.12 223.12 0 01-21.28 95.41" fill="none" stroke="currentColor" stroke-linecap="round" stroke-linejoin="round" stroke-width="16"/><path d="M218.56 184a289.45 289.45 0 005.44-56 96 96 0 00-192 0 95.8 95.8 0 01-5.47 32M92.81 160a158.92 158.92 0 01-18.12 47.84" fill="none" stroke="currentColor" stroke-linecap="round" stroke-linejoin="round" stroke-width="16"/><path d="M120 64.5a66 66 0 018-.49 64 64 0 0164 64 259.86 259.86 0 01-2 32M183.94 192q-2.28 8.88-5.18 17.5" fill="none" stroke="currentColor" stroke-linecap="round" stroke-linejoin="round" stroke-width="16"/></svg>