<svg xmlns="http://www.w3.org/2000/svg" viewBox="0 0 256 256" width="20" height="20"><path fill="none" d="M0 0h256v256H0z"/><path fill="none" stroke="currentColor" stroke-linecap="round" stroke-linejoin="round" stroke-width="16" d="M128 232v-56M48 56h0a80 80 0 0180 80v40h0a80 80 0 01-80-80V56h0zM128 176h0v-40a80 80 0 0180-80h0v40a80 80 0 01-80 80zM80 208l48 24 48-24"/><path d="M86.77 66C100 38 128 24 128 24s28 14 41.23 42" fill="none" stroke="currentColor" stroke-linecap="round" stroke-linejoin="round" stroke-width="16"/></svg>