<svg xmlns="http://www.w3.org/2000/svg" viewBox="0 0 256 256" width="20" height="20"><path fill="none" d="M0 0h256v256H0z"/><path d="M128 224h0a80 80 0 01-80-80v-24h0a80 80 0 0180 80zM48 40l160 176M208 120V64h0a79.89 79.89 0 00-64.83 33.12M205.14 165.28A80.3 80.3 0 00208 144v-24h0a79.63 79.63 0 00-36.18 8.63" fill="none" stroke="currentColor" stroke-linecap="round" stroke-linejoin="round" stroke-width="16"/><path d="M146.71 148.58A79.68 79.68 0 00128 200v24h0a79.86 79.86 0 0061.29-28.58M48 120V64h0a79.92 79.92 0 0125.63 4.19M98.5 48A104.72 104.72 0 01128 24s32.39 16.19 44 48.58" fill="none" stroke="currentColor" stroke-linecap="round" stroke-linejoin="round" stroke-width="16"/></svg>