<svg xmlns="http://www.w3.org/2000/svg" viewBox="0 0 256 256" width="20" height="20"><path fill="none" d="M0 0h256v256H0z"/><path d="M128 104a24 24 0 01-48 0V64a24 24 0 0148 0zM128 64a24 24 0 0148 0v24" fill="none" stroke="currentColor" stroke-linecap="round" stroke-linejoin="round" stroke-width="16"/><path d="M128 176a40 40 0 0140-40h-16a24 24 0 01-24-24V96a8 8 0 018-8h64a24 24 0 0124 24v16a96 96 0 01-192 0V88a24 24 0 0148 0v16a24 24 0 01-48 0" fill="none" stroke="currentColor" stroke-linecap="round" stroke-linejoin="round" stroke-width="16"/></svg>