<svg xmlns="http://www.w3.org/2000/svg" viewBox="0 0 256 256" width="20" height="20"><path fill="none" d="M0 0h256v256H0z"/><path d="M152 184c-7.6-5.05-14.19-8-24-8s-16.4 2.95-24 8" fill="none" stroke="currentColor" stroke-linecap="round" stroke-linejoin="round" stroke-width="16"/><path d="M216 48a8 8 0 00-10.89-7.47C190 46.41 160.89 55.71 128 55.71s-62-9.3-77.11-15.16A8 8 0 0040 48v55.77C40 174.6 79.4 232 128 232s88-57.4 88-128.21z" fill="none" stroke="currentColor" stroke-linecap="round" stroke-linejoin="round" stroke-width="16"/><path d="M144 120c4.39 4.91 12.89 8 20 8s15.61-3.09 20-8M72 120c4.39 4.91 12.89 8 20 8s15.61-3.09 20-8" fill="none" stroke="currentColor" stroke-linecap="round" stroke-linejoin="round" stroke-width="16"/></svg>