<svg xmlns="http://www.w3.org/2000/svg" viewBox="0 0 256 256" width="20" height="20"><path fill="none" d="M0 0h256v256H0z"/><path fill="none" stroke="currentColor" stroke-linecap="round" stroke-linejoin="round" stroke-width="16" d="M152 96h56M152 160h56M64 72V40a8 8 0 018-8h128a8 8 0 018 8v176a8 8 0 01-8 8H72a8 8 0 01-8-8v-32M136 184v40M136 32v40"/><rect x="32" y="72" width="120" height="112" rx="8" fill="none" stroke="currentColor" stroke-linecap="round" stroke-linejoin="round" stroke-width="16"/><path fill="none" stroke="currentColor" stroke-linecap="round" stroke-linejoin="round" stroke-width="16" d="M72 104l40 48M112 104l-40 48"/></svg>