<svg xmlns="http://www.w3.org/2000/svg" viewBox="0 0 256 256" width="20" height="20"><path fill="none" d="M0 0h256v256H0z"/><rect x="32" y="72" width="112" height="112" rx="8" fill="none" stroke="currentColor" stroke-linecap="round" stroke-linejoin="round" stroke-width="16"/><path d="M144 88h40a8 8 0 018 8v72a56 56 0 01-56 56h0a56 56 0 01-53.68-40M104 104H72M88 152v-48" fill="none" stroke="currentColor" stroke-linecap="round" stroke-linejoin="round" stroke-width="16"/><path d="M184 88h35.26a4.74 4.74 0 014.74 4.74V152a32 32 0 01-32 32h0c-.77 0-1.54 0-2.3-.08M108.28 72A32 32 0 11144 87M166.79 47.27A24 24 0 11184 88" fill="none" stroke="currentColor" stroke-linecap="round" stroke-linejoin="round" stroke-width="16"/></svg>