<svg xmlns="http://www.w3.org/2000/svg" viewBox="0 0 256 256" width="20" height="20"><path fill="none" d="M0 0h256v256H0z"/><path d="M72 232h0a24 24 0 0124-24h64a24 24 0 0124 24h0M128 168v64M16 128h24a40 40 0 0040 40h96a40 40 0 0040-40h24" fill="none" stroke="currentColor" stroke-linecap="round" stroke-linejoin="round" stroke-width="16"/><path d="M93.72 24a8 8 0 00-7.92 6.87l-13.72 96A8 8 0 0080 136h96a8 8 0 007.92-9.13l-13.72-96a8 8 0 00-7.92-6.87z" fill="none" stroke="currentColor" stroke-linecap="round" stroke-linejoin="round" stroke-width="16"/></svg>