<svg xmlns="http://www.w3.org/2000/svg" viewBox="0 0 256 256" width="20" height="20"><path fill="none" d="M0 0h256v256H0z"/><path d="M16 64a8 8 0 0110.05-7.74C43.35 60.89 81.44 72 128 72s84.65-11.11 102-15.73A8 8 0 01240 64v128a8 8 0 01-10.06 7.73C212.63 195.08 174.55 184 128 184s-84.63 11.08-101.94 15.72A8 8 0 0116 192z" fill="none" stroke="currentColor" stroke-linecap="round" stroke-linejoin="round" stroke-width="16"/><circle cx="204" cy="108" r="12"/><path d="M16 160.69l54.34-54.35a8 8 0 0111.32 0l79.46 79.46" fill="none" stroke="currentColor" stroke-linecap="round" stroke-linejoin="round" stroke-width="16"/><path d="M131.31 156L157 130.34a8 8 0 0111.31 0l68.25 68.25" fill="none" stroke="currentColor" stroke-linecap="round" stroke-linejoin="round" stroke-width="16"/></svg>