<svg xmlns="http://www.w3.org/2000/svg" viewBox="0 0 256 256" width="20" height="20"><path fill="none" d="M0 0h256v256H0z"/><path d="M144 128a48 48 0 0046.56-36.36h0A48 48 0 00144 32H84a8 8 0 00-7.76 6.06l-36 144A8 8 0 0048 192h31.51a8 8 0 007.76-6.06l13-51.88A8 8 0 01108 128z" fill="none" stroke="currentColor" stroke-linecap="round" stroke-linejoin="round" stroke-width="16"/><path d="M87.27 185.94l-7 28.12A8 8 0 0088 224h31.51a8 8 0 007.76-6.06l9-35.88A8 8 0 01144 176h32a48 48 0 0046.56-36.36h0A48 48 0 00176 80h-56a8 8 0 00-7.76 6.06l-12 48" fill="none" stroke="currentColor" stroke-linecap="round" stroke-linejoin="round" stroke-width="16"/></svg>