<svg xmlns="http://www.w3.org/2000/svg" viewBox="0 0 256 256" width="20" height="20"><path fill="none" d="M0 0h256v256H0z"/><path fill="none" stroke="currentColor" stroke-linecap="round" stroke-linejoin="round" stroke-width="16" d="M48 40l160 176M120.51 72.19c38.15-2 77 11.23 105.43 39.64 17.29 17.29 18.63 42.29 4 61.12a8 8 0 01-9.26 2.47l-9.37-3.32M114.45 113.09a83.51 83.51 0 00-14.18 3.6 7.93 7.93 0 00-5.12 6l-5.9 29.51a8 8 0 01-4.87 5.8l-49.09 17.42A8 8 0 0126 173c-14.6-18.83-13.26-43.83 4-61.12a135.14 135.14 0 0153.53-32.8"/></svg>