<svg xmlns="http://www.w3.org/2000/svg" viewBox="0 0 256 256" width="20" height="20"><path fill="none" d="M0 0h256v256H0z"/><path fill="none" stroke="currentColor" stroke-linecap="round" stroke-linejoin="round" stroke-width="16" d="M144 224h-32"/><circle cx="128" cy="100" r="12"/><path d="M94.81 192c-57.29-96.68 9.06-159.47 28.28-174.32a8 8 0 019.82 0c19.22 14.85 85.57 77.64 28.28 174.32z" fill="none" stroke="currentColor" stroke-linecap="round" stroke-linejoin="round" stroke-width="16"/><path d="M183.84 110.88l30.31 36.36a8 8 0 011.66 6.86l-12.36 55.63a8 8 0 01-12.81 4.51L161.19 192M72.16 110.88l-30.31 36.36a8 8 0 00-1.66 6.86l12.36 55.63a8 8 0 0012.81 4.51L94.81 192" fill="none" stroke="currentColor" stroke-linecap="round" stroke-linejoin="round" stroke-width="16"/></svg>