<svg xmlns="http://www.w3.org/2000/svg" viewBox="0 0 256 256" width="20" height="20"><path fill="none" d="M0 0h256v256H0z"/><path d="M70.11 32h115.78a8 8 0 017.72 5.9L216 120l-22.39 82.1a8 8 0 01-7.72 5.9H70.11a8 8 0 01-7.72-5.9L40 120l22.39-82.1a8 8 0 017.72-5.9zM128 208v-72" fill="none" stroke="currentColor" stroke-linecap="round" stroke-linejoin="round" stroke-width="16"/><path fill="none" stroke="currentColor" stroke-linecap="round" stroke-linejoin="round" stroke-width="16" d="M40 120l88 16 88-16M96 88h64M96 208l-24 32M160 208l24 32"/></svg>