<svg xmlns="http://www.w3.org/2000/svg" viewBox="0 0 256 256" width="20" height="20"><path fill="none" d="M0 0h256v256H0z"/><path fill="none" stroke="currentColor" stroke-linecap="round" stroke-linejoin="round" stroke-width="16" d="M128 136V80"/><path d="M164.45 32h-72.9a8 8 0 00-5.66 2.34L34.34 85.89A8 8 0 0032 91.55v72.9a8 8 0 002.34 5.66l51.55 51.55a8 8 0 005.66 2.34h72.9a8 8 0 005.66-2.34l51.55-51.55a8 8 0 002.34-5.66v-72.9a8 8 0 00-2.34-5.66l-51.55-51.55a8 8 0 00-5.66-2.34z" fill="none" stroke="currentColor" stroke-miterlimit="10" stroke-width="16"/><circle cx="128" cy="172" r="12"/></svg>