<svg xmlns="http://www.w3.org/2000/svg" fill="none" stroke="currentColor" stroke-width="2" stroke-linecap="round" stroke-linejoin="round" viewBox="0 0 24 24" width="20" height="20"><path d="M17.707 3.707l2.586 2.586a1 1 0 010 1.414l-.586.586a1 1 0 000 1.414l.586.586a1 1 0 010 1.414l-8.586 8.586a1 1 0 01-1.414 0l-.586-.586a1 1 0 00-1.414 0l-.586.586a1 1 0 01-1.414 0l-2.586-2.586a1 1 0 010-1.414l.586-.586a1 1 0 000-1.414l-.586-.586a1 1 0 010-1.414l8.586-8.586a1 1 0 011.414 0l.586.586a1 1 0 001.414 0l.586-.586a1 1 0 011.414 0zM8 16l3.2-3.2M12.8 11.2L16 8M14 8l2 2M8 14l2 2"/><path d="M11 12a1 1 0 102 0 1 1 0 10-2 0"/></svg>