<svg xmlns="http://www.w3.org/2000/svg" fill="none" stroke="currentColor" stroke-width="2" stroke-linecap="round" stroke-linejoin="round" viewBox="0 0 24 24" width="20" height="20"><path d="M4 3h2a1 1 0 011 1v2a1 1 0 01-1 1H4a1 1 0 01-1-1V4a1 1 0 011-1zM18 3h2a1 1 0 011 1v2a1 1 0 01-1 1h-2a1 1 0 01-1-1V4a1 1 0 011-1zM11 3h2a1 1 0 011 1v2a1 1 0 01-1 1h-2a1 1 0 01-1-1V4a1 1 0 011-1zM4 10h2a1 1 0 011 1v2a1 1 0 01-1 1H4a1 1 0 01-1-1v-2a1 1 0 011-1zM18 10h2a1 1 0 011 1v2a1 1 0 01-1 1h-2a1 1 0 01-1-1v-2a1 1 0 011-1zM11 10h2a1 1 0 011 1v2a1 1 0 01-1 1h-2a1 1 0 01-1-1v-2a1 1 0 011-1zM11 17h2a1 1 0 011 1v2a1 1 0 01-1 1h-2a1 1 0 01-1-1v-2a1 1 0 011-1z"/></svg>