<?xml version="1.0" encoding="UTF-8" standalone="no"?><!DOCTYPE svg PUBLIC "-//W3C//DTD SVG 1.1//EN" "http://www.w3.org/Graphics/SVG/1.1/DTD/svg11.dtd"><svg width="100%" height="100%" viewBox="0 0 125 125" version="1.1" xmlns="http://www.w3.org/2000/svg" xmlns:xlink="http://www.w3.org/1999/xlink" xml:space="preserve" xmlns:serif="http://www.serif.com/" style="fill-rule:evenodd;clip-rule:evenodd;stroke-linejoin:round;stroke-miterlimit:2;"><g id="antdesign"><path d="M57.316,2.486l-54.832,54.786c-1.415,1.41 -2.211,3.327 -2.211,5.324c0,1.997 0.796,3.914 2.211,5.324l54.832,54.786c1.412,1.414 3.33,2.21 5.328,2.21c1.999,-0 3.917,-0.796 5.329,-2.21l22.989,-22.97c2.641,-2.638 2.641,-6.915 0,-9.553c-2.639,-2.638 -6.919,-2.638 -9.56,-0l-17.428,17.414c-0.734,0.733 -1.848,0.733 -2.581,0l-43.787,-43.751c-0.734,-0.733 -0.734,-1.845 -0,-2.578l43.787,-43.751c0.734,-0.734 1.847,-0.734 2.581,-0l17.428,17.414c2.641,2.637 6.921,2.637 9.56,-0c2.641,-2.638 2.641,-6.915 0,-9.552l-22.987,-22.969c-2.96,-2.882 -7.723,-2.859 -10.659,0.075l-0,0.001Z" style="fill:#444;fill-rule:nonzero;"/><path d="M96.27,85.088c2.64,2.638 6.92,2.638 9.56,0l16.959,-16.945c2.948,-2.946 2.948,-7.703 -0,-10.648l-17.107,-17.031c-2.646,-2.635 -6.927,-2.632 -9.569,0.008c-2.64,2.638 -2.64,6.914 0,9.552l11.554,11.544c0.734,0.734 0.734,1.847 -0,2.579l-11.397,11.388c-2.64,2.638 -2.64,6.915 0,9.553Z" style="fill:#444;fill-rule:nonzero;"/><ellipse cx="62.918" cy="62.87" rx="14.804" ry="14.792" style="fill:#444;"/></g></svg>