<svg xmlns="http://www.w3.org/2000/svg" viewBox="0 0 256 256" width="20" height="20"><path fill="none" d="M0 0h256v256H0z"/><path d="M216 112c0 48.6-56 120-88 120s-88-71.4-88-120a88 88 0 01176 0z" fill="none" stroke="#000" stroke-linecap="round" stroke-linejoin="round" stroke-width="16"/><path d="M104 148h0a32 32 0 01-32-32v-4a8 8 0 018-8h0a32 32 0 0132 32v4a8 8 0 01-8 8zm72-44h0a8 8 0 018 8v4a32 32 0 01-32 32h0a8 8 0 01-8-8v-4a32 32 0 0132-32zm-64 80h32" fill="none" stroke="#000" stroke-linecap="round" stroke-linejoin="round" stroke-width="16"/></svg>