<svg xmlns="http://www.w3.org/2000/svg" viewBox="0 0 256 256" width="20" height="20"><path fill="none" d="M0 0h256v256H0z"/><path fill="none" stroke="#000" stroke-linecap="round" stroke-linejoin="round" stroke-width="16" d="M24.1 56h16m80 0h16m-112 80h24m64 0h24m31.9-32h72m-71.9 32h72M72 168h168M72 200h168M40.1 136V56l40 64 40-64v80M24 56h16m80 0h16M24 136h24m64 0h24m32-32h72m-72 32h72M72 168h168M72 200h168"/><path fill="none" stroke="#000" stroke-linecap="round" stroke-linejoin="round" stroke-width="16" d="M40 136V56l40 64 40-64v80"/></svg>