<svg xmlns="http://www.w3.org/2000/svg" viewBox="0 0 256 256" width="20" height="20"><path fill="none" d="M0 0h256v256H0z"/><path d="M88 148a68 68 0 1168 68H76a44 44 0 010-88 42.5 42.5 0 0114.3 2.4" fill="none" stroke="#000" stroke-linecap="round" stroke-linejoin="round" stroke-width="16"/><path d="M47 138.9A64.1 64.1 0 019.6 94.4h0A68.3 68.3 0 0024 96a64.1 64.1 0 0064-64 68.3 68.3 0 00-1.6-14.4h0A64 64 0 01136 80c0 1 0 2-.1 3" fill="none" stroke="#000" stroke-linecap="round" stroke-linejoin="round" stroke-width="16"/></svg>