<svg xmlns="http://www.w3.org/2000/svg" viewBox="0 0 256 256" width="20" height="20"><path fill="none" d="M0 0h256v256H0z"/><path fill="none" stroke="#000" stroke-linecap="round" stroke-linejoin="round" stroke-width="16" d="M120 168v48h28m-96-48l36 48m0-48l-36 48m124-4a25.2 25.2 0 0015 5c9 0 17-3 17-13 0-16-32-9-32-24 0-8 6-13 15-13a25.2 25.2 0 0115 5M48 128V40a8 8 0 018-8h96l56 56v40"/><path fill="none" stroke="#000" stroke-linecap="round" stroke-linejoin="round" stroke-width="16" d="M152 32v56h56"/></svg>