<svg xmlns="http://www.w3.org/2000/svg" viewBox="0 0 256 256" width="20" height="20"><path fill="none" d="M0 0h256v256H0z"/><path d="M138.7 175.5l-19.2 52.1a8 8 0 01-15 0l-19.2-52.1a8.1 8.1 0 00-4.8-4.8l-52.1-19.2a8 8 0 010-15l52.1-19.2a8.1 8.1 0 004.8-4.8l19.2-52.1a8 8 0 0115 0l19.2 52.1a8.1 8.1 0 004.8 4.8l52.1 19.2a8 8 0 010 15l-52.1 19.2a8.1 8.1 0 00-4.8 4.8zM176 16v48m24-24h-48m72 32v32m16-16h-32" fill="none" stroke="#000" stroke-linecap="round" stroke-linejoin="round" stroke-width="16"/></svg>