<svg xmlns="http://www.w3.org/2000/svg" viewBox="0 0 256 256" width="20" height="20"><path fill="none" d="M0 0h256v256H0z"/><path d="M80 160h128a8 8 0 008-8V48a8 8 0 00-8-8H96a8 8 0 00-8 8v8" fill="none" stroke="#000" stroke-linecap="round" stroke-linejoin="round" stroke-width="16"/><path fill="none" stroke="#000" stroke-linecap="round" stroke-linejoin="round" stroke-width="16" d="M104 136l-24 24 24 24"/><path d="M176 96H48a8 8 0 00-8 8v104a8 8 0 008 8h112a8 8 0 008-8v-8" fill="none" stroke="#000" stroke-linecap="round" stroke-linejoin="round" stroke-width="16"/><path fill="none" stroke="#000" stroke-linecap="round" stroke-linejoin="round" stroke-width="16" d="M152 120l24-24-24-24"/></svg>