<svg xmlns="http://www.w3.org/2000/svg" viewBox="0 0 256 256" width="20" height="20"><path fill="none" d="M0 0h256v256H0z"/><circle cx="128" cy="128" r="96" fill="none" stroke="currentColor" stroke-linecap="round" stroke-linejoin="round" stroke-width="8"/><path d="M88 144a94.87 94.87 0 01-4.14 16M83.86 96A94.87 94.87 0 0188 112M60.66 59.58A94.93 94.93 0 0168.27 68M68.27 188a94.93 94.93 0 01-7.61 8.42M168 144a94.87 94.87 0 004.14 16M172.14 96a94.87 94.87 0 00-4.14 16M195.34 59.58a94.93 94.93 0 00-7.61 8.42M187.73 188a94.93 94.93 0 007.61 8.42" fill="none" stroke="currentColor" stroke-linecap="round" stroke-linejoin="round" stroke-width="8"/></svg>