<svg xmlns="http://www.w3.org/2000/svg" viewBox="0 0 256 256" width="20" height="20"><path fill="none" d="M0 0h256v256H0z"/><path d="M96 192a32 32 0 0064 0M184 24a102.71 102.71 0 0136.29 40M35.71 64A102.71 102.71 0 0172 24" fill="none" stroke="currentColor" stroke-linecap="round" stroke-linejoin="round" stroke-width="8"/><path d="M56 112a72 72 0 01144 0c0 35.82 8.3 56.6 14.9 68a8 8 0 01-6.9 12H48a8 8 0 01-6.88-12C47.71 168.6 56 147.81 56 112z" fill="none" stroke="currentColor" stroke-linecap="round" stroke-linejoin="round" stroke-width="8"/></svg>