<svg xmlns="http://www.w3.org/2000/svg" viewBox="0 0 256 256" width="20" height="20"><path fill="none" d="M0 0h256v256H0z"/><rect x="48" y="40" width="64" height="176" rx="8" fill="none" stroke="currentColor" stroke-linecap="round" stroke-linejoin="round" stroke-width="8"/><path d="M217.67 205.77l-46.81 10a8 8 0 01-9.5-6.21L128.18 51.8a8.07 8.07 0 016.15-9.57l46.81-10a8 8 0 019.5 6.21l33.18 157.76a8.07 8.07 0 01-6.15 9.57zM48 72h64M48 184h64M133.16 75.48l62.45-13.42M139.79 107.04l62.46-13.42M156.39 185.94l62.45-13.42" fill="none" stroke="currentColor" stroke-linecap="round" stroke-linejoin="round" stroke-width="8"/></svg>