<svg xmlns="http://www.w3.org/2000/svg" viewBox="0 0 256 256" width="20" height="20"><path fill="none" d="M0 0h256v256H0z"/><path fill="none" stroke="currentColor" stroke-linecap="round" stroke-linejoin="round" stroke-width="8" d="M152 120h-40M152 88h-40M240 168v32a8 8 0 01-8 8h-26.11a8.08 8.08 0 01-3.58-.84l-12.62-6.32a8.08 8.08 0 00-3.58-.84h-16.22a8.08 8.08 0 00-3.58.84l-12.62 6.32a8.08 8.08 0 01-3.58.84h-28.22a8.08 8.08 0 01-3.58-.84l-12.62-6.32a8.08 8.08 0 00-3.58-.84H85.89a8.08 8.08 0 00-3.58.84l-12.62 6.32a8.08 8.08 0 01-3.58.84H40a8 8 0 01-8-8v-32c9.22-32.06 12-88.65 0-120h112a8 8 0 018 8v64h40a48 48 0 0148 48zM32 168h208"/></svg>