<svg xmlns="http://www.w3.org/2000/svg" viewBox="0 0 256 256" width="20" height="20"><path fill="none" d="M0 0h256v256H0z"/><path fill="none" stroke="currentColor" stroke-linecap="round" stroke-linejoin="round" stroke-width="8" d="M48 72h160M48 112h160M208 184H48V64a24 24 0 0124-24h112a24 24 0 0124 24zM208 184v24a8 8 0 01-8 8h-24a8 8 0 01-8-8v-24M88 184v24a8 8 0 01-8 8H56a8 8 0 01-8-8v-24"/><circle cx="92" cy="148" r="8"/><circle cx="164" cy="148" r="8"/><path fill="none" stroke="currentColor" stroke-linecap="round" stroke-linejoin="round" stroke-width="8" d="M240 80v24M16 80v24"/></svg>