<svg xmlns="http://www.w3.org/2000/svg" viewBox="0 0 256 256" width="20" height="20"><path fill="none" d="M0 0h256v256H0z"/><path fill="none" stroke="currentColor" stroke-linecap="round" stroke-linejoin="round" stroke-width="8" d="M112 168l16-40H96l16-40"/><path d="M56 216V56a16 16 0 0116-16h80a16 16 0 0116 16v160M32 216h160M168 112h24a16 16 0 0116 16v40a16 16 0 0016 16h0a16 16 0 0016-16V86.63a16 16 0 00-4.69-11.32L216 56" fill="none" stroke="currentColor" stroke-linecap="round" stroke-linejoin="round" stroke-width="8"/></svg>