<svg xmlns="http://www.w3.org/2000/svg" viewBox="0 0 256 256" width="20" height="20"><path fill="none" d="M0 0h256v256H0z"/><path d="M128 142a255 255 0 01104-22M164.89 162.23A223.75 223.75 0 01232 152M196.89 187.2A193.47 193.47 0 01232 184M24 184a191.09 191.09 0 01106.17 32M24 152a223.28 223.28 0 01156.77 64M24 120a255.5 255.5 0 01199.85 96" fill="none" stroke="currentColor" stroke-linecap="round" stroke-linejoin="round" stroke-width="8"/><path fill="none" stroke="currentColor" stroke-linecap="round" stroke-linejoin="round" stroke-width="8" d="M80 126.14V80l64-48 64 48v41.11"/><path fill="none" stroke="currentColor" stroke-linecap="round" stroke-linejoin="round" stroke-width="8" d="M120 138.61V96h48v32.06"/></svg>