<svg xmlns="http://www.w3.org/2000/svg" viewBox="0 0 256 256" width="20" height="20"><path fill="none" d="M0 0h256v256H0z"/><path d="M216 83.31V208a8 8 0 01-8 8H48a8 8 0 01-8-8V48a8 8 0 018-8h124.69a8 8 0 015.65 2.34l35.32 35.32a8 8 0 012.34 5.65z" fill="none" stroke="currentColor" stroke-linecap="round" stroke-linejoin="round" stroke-width="8"/><path d="M80 216v-64a8 8 0 018-8h80a8 8 0 018 8v64M152 72H96" fill="none" stroke="currentColor" stroke-linecap="round" stroke-linejoin="round" stroke-width="8"/></svg>