<svg xmlns="http://www.w3.org/2000/svg" viewBox="0 0 256 256" width="20" height="20"><path fill="none" d="M0 0h256v256H0z"/><circle cx="84" cy="164" r="8"/><path d="M120 200a8 8 0 007.81-9.74l-15.62-52.52A8 8 0 01120 128h96v-4a92 92 0 00-93.31-92C72.65 32.71 32 73.92 32 124a91.91 91.91 0 0040.14 76z" fill="none" stroke="currentColor" stroke-linecap="round" stroke-linejoin="round" stroke-width="8"/><path d="M148 128l24.31 82.27A8 8 0 00180 216h36a8 8 0 008-8v-32a8 8 0 00-8-8h-94.81" fill="none" stroke="currentColor" stroke-linecap="round" stroke-linejoin="round" stroke-width="8"/></svg>