<svg xmlns="http://www.w3.org/2000/svg" viewBox="0 0 256 256" width="20" height="20"><path fill="none" d="M0 0h256v256H0z"/><circle cx="128" cy="128" r="96" fill="none" stroke="currentColor" stroke-linecap="round" stroke-linejoin="round" stroke-width="8"/><path d="M184.42 205.68l-9.36-9.37a8 8 0 00-3.63-2.09L150 188.59a8 8 0 01-5.88-8.9l2.38-16.2a8 8 0 014.85-6.22l30.45-12.66a8 8 0 018.47 1.49L215 168.71M50.49 184.65l9.92-6.52a8 8 0 003.59-6.64l.21-36.23a8.06 8.06 0 011.35-4.41l20.94-31.3a8 8 0 0111.34-2l19.81 13a8.06 8.06 0 005.77 1.45l31.46-4.26a8 8 0 005-2.71l22.18-25.83A8 8 0 00184 74V50" fill="none" stroke="currentColor" stroke-linecap="round" stroke-linejoin="round" stroke-width="8"/></svg>