<svg xmlns="http://www.w3.org/2000/svg" viewBox="0 0 256 256" width="20" height="20"><path fill="none" d="M0 0h256v256H0z"/><path fill="none" stroke="currentColor" stroke-linecap="round" stroke-linejoin="round" stroke-width="8" d="M204 12l40 40M176 56l24 24M60.07 112a16.23 16.23 0 0014.72-10 34.21 34.21 0 017.61-11.6c17.23-17.23 49.82-12.57 72.8 10.4s27.63 55.57 10.4 72.8a34.21 34.21 0 01-11.66 7.61 16.23 16.23 0 00-10 14.72c-.38 12.07-4.55 23.07-12.74 31.27-21.2 21.2-61.32 15.47-89.6-12.8s-34-68.4-12.8-89.6C37 116.61 48 112.44 60.07 112zM56 168l32 32"/><circle cx="112" cy="144" r="24" fill="none" stroke="currentColor" stroke-linecap="round" stroke-linejoin="round" stroke-width="8"/><path fill="none" stroke="currentColor" stroke-linecap="round" stroke-linejoin="round" stroke-width="8" d="M112 120L212 20M136 144L236 44"/></svg>