<svg xmlns="http://www.w3.org/2000/svg" viewBox="0 0 256 256" width="20" height="20"><path fill="none" d="M0 0h256v256H0z"/><path d="M48.07 96a8 8 0 01-7.89-9.72C46.68 55.55 83.52 32 128 32s81.32 23.55 87.82 54.28a8 8 0 01-7.89 9.72zM24 176l44-16 40 16 40-16 40 16 44-16M24 128h208" fill="none" stroke="currentColor" stroke-linecap="round" stroke-linejoin="round" stroke-width="8"/><path d="M208 168.73V184a32 32 0 01-32 32H80a32 32 0 01-32-32v-16.73" fill="none" stroke="currentColor" stroke-linecap="round" stroke-linejoin="round" stroke-width="8"/></svg>