<svg xmlns="http://www.w3.org/2000/svg" viewBox="0 0 256 256" width="20" height="20"><path fill="none" d="M0 0h256v256H0z"/><path d="M48 208H16a8 8 0 01-8-8v-40a8 8 0 018-8h32M112 160h32l67-15.41a16.61 16.61 0 0121 16h0a16.59 16.59 0 01-9.18 14.85L184 192l-64 16H48v-56l25-25a24 24 0 0117-7h50a20 20 0 0120 20h0a20 20 0 01-20 20z" fill="none" stroke="currentColor" stroke-linecap="round" stroke-linejoin="round" stroke-width="8"/><path d="M96.73 120C87 107.72 80 94.56 80 80c0-21.69 17.67-40 39.46-40A39.12 39.12 0 01156 64a39.12 39.12 0 0136.54-24C214.33 40 232 58.31 232 80c0 29.23-28.18 55.07-50.22 71.32" fill="none" stroke="currentColor" stroke-linecap="round" stroke-linejoin="round" stroke-width="8"/></svg>