<svg xmlns="http://www.w3.org/2000/svg" viewBox="0 0 256 256" width="20" height="20"><path fill="none" d="M0 0h256v256H0z"/><path fill="none" stroke="currentColor" stroke-linecap="round" stroke-linejoin="round" stroke-width="8" d="M32.7 76.92l95.3 52.16 95.3-52.16M128 129.09v102.88"/><path d="M219.84 182.84l-88 48.18a8 8 0 01-7.68 0l-88-48.18a8 8 0 01-4.16-7V80.18a8 8 0 014.16-7l88-48.18a8 8 0 017.68 0l88 48.18a8 8 0 014.16 7v95.64a8 8 0 01-4.16 7.02z" fill="none" stroke="currentColor" stroke-linecap="round" stroke-linejoin="round" stroke-width="8"/><path fill="none" stroke="currentColor" stroke-linecap="round" stroke-linejoin="round" stroke-width="8" d="M81.56 48.31L176 100v52"/></svg>