<svg xmlns="http://www.w3.org/2000/svg" viewBox="0 0 256 256" width="20" height="20"><path fill="none" d="M0 0h256v256H0z"/><circle cx="128" cy="40" r="24" fill="none" stroke="currentColor" stroke-linecap="round" stroke-linejoin="round" stroke-width="8"/><path d="M149.17 80a24 24 0 0118 8.13l45.32 51.38a12 12 0 01-17 17L160 128l22.87 86.93a12 12 0 01-21.75 10.14L128 168l-33.12 57.07a12 12 0 01-21.75-10.14L96 128l-35.51 28.49a12 12 0 01-17-17l45.34-51.36a24 24 0 0118-8.13z" fill="none" stroke="currentColor" stroke-linecap="round" stroke-linejoin="round" stroke-width="8"/></svg>