<svg xmlns="http://www.w3.org/2000/svg" viewBox="0 0 256 256" width="20" height="20"><path fill="none" d="M0 0h256v256H0z"/><circle cx="180" cy="116" r="8"/><path fill="none" stroke="currentColor" stroke-linecap="round" stroke-linejoin="round" stroke-width="8" d="M112 72h40M216 40h-72M8 144a24 24 0 0124-24"/><path d="M220.34 96H224a16 16 0 0116 16v32a16 16 0 01-16 16h-8l-18.1 50.69a8 8 0 01-7.54 5.31h-12.72a8 8 0 01-7.54-5.31L166.29 200H97.71l-3.81 10.69a8 8 0 01-7.54 5.31H73.64a8 8 0 01-7.54-5.31L53 174a79.7 79.7 0 01-21-54h0a80 80 0 0180-80h32a80 80 0 0173.44 48.22 82.22 82.22 0 012.9 7.78" fill="none" stroke="currentColor" stroke-linecap="round" stroke-linejoin="round" stroke-width="8"/></svg>