<svg xmlns="http://www.w3.org/2000/svg" viewBox="0 0 256 256" width="20" height="20"><path fill="none" d="M0 0h256v256H0z"/><path fill="none" stroke="currentColor" stroke-linecap="round" stroke-linejoin="round" stroke-width="8" d="M144 144l-24 24"/><path fill="#231f20" d="M144 144l-24 24"/><path fill="none" stroke="currentColor" stroke-linecap="round" stroke-linejoin="round" stroke-width="8" d="M112 112l-24 24"/><path fill="#231f20" d="M112 112l-24 24"/><path fill="none" stroke="currentColor" stroke-linecap="round" stroke-linejoin="round" stroke-width="8" d="M64 112l80 80M58.06 197.94L24 232M132 180l-29 29a24 24 0 01-33.94 0L47 186.91A24 24 0 0147 153l29-29M112 64l80 80M197.94 58.06L232 24M180 132l29-29a24 24 0 000-33.94L186.91 47A24 24 0 00153 47l-29 29"/></svg>