<svg xmlns="http://www.w3.org/2000/svg" viewBox="0 0 256 256" width="20" height="20"><path fill="none" d="M0 0h256v256H0z"/><path d="M32 80l30.55 129.83a8 8 0 007.79 6.17h115.32a8 8 0 007.79-6.17L224 80l-56 16-37-14.81a8 8 0 00-5.94 0L88 96zM88 96l16 120M168 96l-16 120" fill="none" stroke="currentColor" stroke-linecap="round" stroke-linejoin="round" stroke-width="8"/><path d="M216 82.3a36 36 0 00-52.82-30.11 36 36 0 00-70.28 0A36 36 0 0040 82.29" fill="none" stroke="currentColor" stroke-linecap="round" stroke-linejoin="round" stroke-width="8"/></svg>