<svg xmlns="http://www.w3.org/2000/svg" viewBox="0 0 256 256" width="20" height="20"><path fill="none" d="M0 0h256v256H0z"/><path d="M160 56l-14-35a8 8 0 00-7.43-5h-21.15a8 8 0 00-7.42 5L96 56M16 112h224M224 176v24a8 8 0 01-8 8h-24a8 8 0 01-8-8v-24M72 176v24a8 8 0 01-8 8H40a8 8 0 01-8-8v-24M64 144h16M176 144h16" fill="none" stroke="currentColor" stroke-linecap="round" stroke-linejoin="round" stroke-width="8"/><path d="M224 112l-29.7-52a8 8 0 00-6.94-4H68.64a8 8 0 00-6.94 4L32 112v64h192z" fill="none" stroke="currentColor" stroke-linecap="round" stroke-linejoin="round" stroke-width="8"/></svg>