<svg xmlns="http://www.w3.org/2000/svg" viewBox="0 0 256 256" width="20" height="20"><path fill="none" d="M0 0h256v256H0z"/><path d="M160 216v-93.78a8 8 0 00-1.14-4.12l-20.53-34.22a8 8 0 00-6.86-3.88H76.53a8 8 0 00-6.86 3.88L49.14 118.1a8 8 0 00-1.14 4.12V216a8 8 0 008 8h96a8 8 0 008-8z" fill="none" stroke="currentColor" stroke-linecap="round" stroke-linejoin="round" stroke-width="8"/><path d="M224 168h0a24 24 0 01-24-24V64a48 48 0 00-48-48h0a48 48 0 00-48 48v72" fill="none" stroke="currentColor" stroke-linecap="round" stroke-linejoin="round" stroke-width="8"/></svg>