<svg viewBox="0 0 24 24" xmlns="http://www.w3.org/2000/svg" width="20" height="20"><path d="M5 13c0-5.088 2.902-9.437 7-11.182C16.097 3.563 19 7.912 19 13c0 .823-.076 1.626-.221 2.403l1.94 1.832a.5.5 0 01.096.603l-2.495 4.575a.5.5 0 01-.793.114l-2.235-2.234a1 1 0 00-.707-.293H9.414a1 1 0 00-.707.293l-2.235 2.234a.5.5 0 01-.792-.114l-2.496-4.575a.5.5 0 01.096-.603l1.94-1.832C5.076 14.626 5 13.823 5 13zm1.475 6.695l.817-.817A3 3 0 019.414 18h5.171a3 3 0 012.122.878l.817.817.982-1.8-1.1-1.038a2 2 0 01-.593-1.82A11.11 11.11 0 0017 13c0-3.87-1.995-7.3-5-8.96C8.995 5.7 7 9.13 7 13c0 .691.063 1.372.186 2.036a2 2 0 01-.593 1.82l-1.1 1.04.982 1.8zM12 13a2 2 0 110-4 2 2 0 010 4z"/></svg>