<svg stroke-width="1.5" fill="none" xmlns="http://www.w3.org/2000/svg" viewBox="0 0 24 24" width="20" height="20"><path d="M3 21V3.6a.6.6 0 01.6-.6H21" stroke="currentColor"/><path d="M17 21h3.4a.6.6 0 00.6-.6V17M21 7v2M21 12v2M7 21h2M12 21h2" stroke="currentColor" stroke-linecap="round" stroke-linejoin="round"/><path d="M3 4a1 1 0 100-2 1 1 0 000 2zM3 22a1 1 0 100-2 1 1 0 000 2zM21 4a1 1 0 100-2 1 1 0 000 2z" fill="currentColor" stroke="currentColor" stroke-linecap="round" stroke-linejoin="round"/></svg>