<svg stroke-width="1.5" fill="none" xmlns="http://www.w3.org/2000/svg" viewBox="0 0 24 24" width="20" height="20"><path d="M3 19V5a2 2 0 012-2h14a2 2 0 012 2v14a2 2 0 01-2 2H5a2 2 0 01-2-2z" stroke="currentColor"/><path d="M12.5 12.16l4-.16-.5 4.5M11.833 12L13.5 9.538 10.833 8 9.5 9.846" stroke="currentColor" stroke-linecap="round" stroke-linejoin="round"/><path d="M15.5 7.5a.5.5 0 110-1 .5.5 0 010 1z" fill="currentColor" stroke="currentColor" stroke-linecap="round" stroke-linejoin="round"/><path d="M10.5 18a3 3 0 110-6 3 3 0 010 6z" stroke="currentColor" stroke-linecap="round" stroke-linejoin="round"/></svg>