<svg stroke-width="1.5" fill="none" xmlns="http://www.w3.org/2000/svg" viewBox="0 0 24 24" width="20" height="20"><path d="M9 12h3m3 0h-3m0 0V9m0 3v3m-8 6.4V2.6a.6.6 0 01.6-.6h11.652a.6.6 0 01.424.176l3.148 3.148A.6.6 0 0120 5.75V21.4a.6.6 0 01-.6.6H4.6a.6.6 0 01-.6-.6z" stroke="currentColor" stroke-linecap="round" stroke-linejoin="round"/><path d="M16 5.4V2.354a.354.354 0 01.604-.25l3.292 3.292a.353.353 0 01-.25.604H16.6a.6.6 0 01-.6-.6z" fill="currentColor" stroke="currentColor" stroke-linecap="round" stroke-linejoin="round"/></svg>