<svg stroke-width="1.5" fill="none" xmlns="http://www.w3.org/2000/svg" viewBox="0 0 24 24" width="20" height="20"><path d="M2 12h3m3 0H5m0 0V9m0 3v3m1.25-9l.245-.28a2 2 0 013.01 0l4.343 4.963a2 2 0 010 2.634L9.505 18.28a2 2 0 01-3.01 0L6.25 18" stroke="currentColor" stroke-linecap="round" stroke-linejoin="round"/><path d="M13 19l4.884-5.698a2 2 0 000-2.604L13 5" stroke="currentColor" stroke-linecap="round" stroke-linejoin="round"/><path d="M17 19l4.884-5.698a2 2 0 000-2.604L17 5" stroke="currentColor" stroke-linecap="round" stroke-linejoin="round"/></svg>