<svg stroke-width="1.5" fill="none" xmlns="http://www.w3.org/2000/svg" viewBox="0 0 24 24" width="20" height="20"><path d="M14.12 14.121A3 3 0 109.879 9.88a3 3 0 004.243 4.242z" stroke="currentColor" stroke-miterlimit="1.5" stroke-linecap="round" stroke-linejoin="round"/><path fill-rule="evenodd" clip-rule="evenodd" d="M9.879 9.879s-2.803.009-4.243-1.415c-1.409-1.41-2.864-2.793-1.414-4.242 1.378-1.377 2.81-.015 4.242 1.414C9.87 7.037 9.88 9.879 9.88 9.879zm4.242 0s-.009-2.803 1.415-4.243c1.41-1.409 2.793-2.864 4.242-1.414 1.377 1.378.015 2.81-1.414 4.242-1.402 1.406-4.243 1.415-4.243 1.415zm-4.242 4.242s.009 2.803-1.415 4.243c-1.41 1.409-2.793 2.864-4.242 1.414-1.377-1.378-.015-2.81 1.414-4.242 1.401-1.406 4.243-1.415 4.243-1.415zm4.242 0s2.803-.009 4.243 1.415c1.409 1.41 2.864 2.793 1.414 4.242-1.378 1.377-2.81.015-4.242-1.414-1.406-1.402-1.415-4.243-1.415-4.243z" stroke="currentColor" stroke-miterlimit="1.5" stroke-linecap="round" stroke-linejoin="round"/></svg>