<svg stroke-width="1.5" fill="none" xmlns="http://www.w3.org/2000/svg" viewBox="0 0 24 24" width="20" height="20"><path d="M2 19.4V4.6a.6.6 0 01.6-.6h14.8a.6.6 0 01.6.6v14.8a.6.6 0 01-.6.6H2.6a.6.6 0 01-.6-.6z" stroke="currentColor"/><path d="M22 6v12" stroke="currentColor" stroke-linecap="round"/><path d="M11 14.5a1.5 1.5 0 11-3 0 1.5 1.5 0 013 0z" fill="currentColor"/><path d="M11 14.5a1.5 1.5 0 11-3 0 1.5 1.5 0 013 0zm0 0V8.6a.6.6 0 01.6-.6H13" stroke="currentColor" stroke-linecap="round"/></svg>