<svg stroke-width="1.5" fill="none" xmlns="http://www.w3.org/2000/svg" viewBox="0 0 24 24" width="20" height="20"><path d="M12 9l1.5 6L15 9m3 6V9" stroke="currentColor" stroke-linecap="round" stroke-linejoin="round"/><path d="M4 6V3.6a.6.6 0 01.6-.6h14.8a.6.6 0 01.6.6V6M4 18v2.4a.6.6 0 00.6.6h14.8a.6.6 0 00.6-.6V18" stroke="currentColor" stroke-linecap="round"/><path d="M6 15v-3m0 0v-1.5A1.5 1.5 0 017.5 9v0A1.5 1.5 0 019 10.5V12m-3 0h3m0 0v3" stroke="currentColor" stroke-linecap="round" stroke-linejoin="round"/></svg>