<svg stroke-width="1.5" fill="none" xmlns="http://www.w3.org/2000/svg" viewBox="0 0 24 24" width="20" height="20"><path d="M21.5 14L20 9s-.5-2-2.5-2c0 0 0-2-2-2s-2 2-2 2h-3s0-2-2-2-2 2-2 2C4.5 7 4 9 4 9l-1.5 5" stroke="currentColor" stroke-linecap="round" stroke-linejoin="round"/><path d="M6 20a4 4 0 100-8 4 4 0 000 8zm12 0a4 4 0 100-8 4 4 0 000 8z" stroke="currentColor" stroke-linecap="round" stroke-linejoin="round"/><path d="M12 16a2 2 0 100-4 2 2 0 000 4z" stroke="currentColor" stroke-linecap="round" stroke-linejoin="round"/></svg>