<svg stroke-width="1.5" fill="none" xmlns="http://www.w3.org/2000/svg" viewBox="0 0 24 24" width="20" height="20"><path d="M20.916 4.674l-1.85 14.8a.6.6 0 01-.596.526H5.53a.6.6 0 01-.596-.526l-1.85-14.8A.6.6 0 013.68 4h16.64a.6.6 0 01.596.674z" stroke="currentColor" stroke-linecap="round" stroke-linejoin="round"/><path d="M16.75 7.75l-.938 7.97a.6.6 0 01-.595.53H8.784a.6.6 0 01-.596-.53l-.859-7.3a.6.6 0 01.596-.67h8.825zm0 0h3.75" stroke="currentColor" stroke-linecap="round" stroke-linejoin="round"/></svg>