<svg stroke-width="1.5" fill="none" xmlns="http://www.w3.org/2000/svg" viewBox="0 0 24 24" width="20" height="20"><path d="M21.168 8A10.003 10.003 0 0012 2c-5.185 0-9.45 3.947-9.95 9" stroke="currentColor" stroke-linecap="round" stroke-linejoin="round"/><path d="M18 8h3.4a.6.6 0 00.6-.6V4M2.881 16c1.544 3.532 5.068 6 9.168 6 5.186 0 9.45-3.947 9.951-9" stroke="currentColor" stroke-linecap="round" stroke-linejoin="round"/><path d="M6.05 16h-3.4a.6.6 0 00-.6.6V20" stroke="currentColor" stroke-linecap="round" stroke-linejoin="round"/><path d="M9 12v4.394c0 .332.269.6.6.602 2.966.018 5.4.076 5.4-2.496 0-2.744-3-2.5-6-2.5zm0 0V7.606c0-.331.269-.6.6-.602C12.566 6.986 15 6.928 15 9.5c0 2.744-3 2.5-6 2.5z" stroke="currentColor"/><path d="M12 7V5.5m0 13V17" stroke="currentColor" stroke-linecap="round" stroke-linejoin="round"/></svg>