<svg stroke-width="1.5" fill="none" xmlns="http://www.w3.org/2000/svg" viewBox="0 0 24 24" width="20" height="20"><path d="M9.952 9.623l1.559-3.305a.535.535 0 01.978 0l1.559 3.305 3.485.533c.447.068.625.644.302.974l-2.522 2.57.595 3.631c.077.467-.391.822-.791.602L12 16.218l-3.117 1.715c-.4.22-.868-.135-.791-.602l.595-3.63-2.522-2.571c-.323-.33-.145-.906.302-.974l3.485-.533zM22 12h1M12 2V1m0 22v-1m8-2l-1-1m1-15l-1 1M4 20l1-1M4 4l1 1m-4 7h1" stroke="currentColor" stroke-linecap="round" stroke-linejoin="round"/></svg>