<svg stroke-width="1.5" fill="none" xmlns="http://www.w3.org/2000/svg" viewBox="0 0 24 24" width="20" height="20"><path d="M20.5 6.5L22 8m-6-3.5a2.5 2.5 0 105 0 2.5 2.5 0 00-5 0z" stroke="currentColor" stroke-linecap="round" stroke-linejoin="round"/><path d="M13 2.05c-.329-.033-.662-.05-1-.05C6.477 2 2 6.477 2 12c0 1.821.487 3.53 1.338 5L2.5 21.5l4.5-.838A9.955 9.955 0 0012 22c5.523 0 10-4.477 10-10 0-.338-.017-.671-.05-1" stroke="currentColor" stroke-linecap="round" stroke-linejoin="round"/></svg>