<svg stroke-width="1.5" fill="none" xmlns="http://www.w3.org/2000/svg" viewBox="0 0 24 24" width="20" height="20"><path d="M16 16.01l.01-.011M6 16.01l.01-.011M20 22V8m0 0h-2V2h4v6h-2z" stroke="currentColor" stroke-linecap="round" stroke-linejoin="round"/><path d="M4 20v2h2v-2H4zm10 0v2h2v-2h-2z" fill="currentColor" stroke="currentColor" stroke-linecap="round" stroke-linejoin="round"/><path d="M16 20H2.6a.6.6 0 01-.6-.6v-6.8a.6.6 0 01.6-.6H16m-2-4H6m8-6H6a4 4 0 00-4 4v2" stroke="currentColor" stroke-linecap="round" stroke-linejoin="round"/></svg>