<svg stroke-width="1.5" fill="none" xmlns="http://www.w3.org/2000/svg" viewBox="0 0 24 24" width="20" height="20"><path d="M7 16.01l.01-.011M21 12H3v7a1 1 0 001 1h9m4 3s.9-3.118 3-5" stroke="currentColor" stroke-linecap="round" stroke-linejoin="round"/><path d="M19.802 21.424l-.134.013a3.094 3.094 0 01-3.366-2.774 3.06 3.06 0 012.761-3.35l2.986-.28a.35.35 0 01.381.314l.255 2.58a3.194 3.194 0 01-2.883 3.497zM21 8V6a4 4 0 00-4-4H7a4 4 0 00-4 4v2m4 0h10" stroke="currentColor" stroke-linecap="round" stroke-linejoin="round"/><path d="M4.5 20v1.9a.6.6 0 00.6.6h2.8a.6.6 0 00.6-.6V20" stroke="currentColor" stroke-linecap="round"/></svg>