<svg stroke-width="1.5" fill="none" xmlns="http://www.w3.org/2000/svg" viewBox="0 0 24 24" width="20" height="20"><path d="M10 21H5a2 2 0 01-2-2v-9h18m-6-6V2m0 2v2m0-2h-4.5M3 10V6a2 2 0 012-2h2m0-2v4m14 4V6a2 2 0 00-2-2h-.5" stroke="currentColor" stroke-linecap="round" stroke-linejoin="round"/><path d="M21.667 16.667C21.048 15.097 19.635 14 17.99 14c-1.759 0-3.253 1.255-3.794 3" stroke="currentColor" stroke-linecap="round" stroke-linejoin="round"/><path d="M19.995 16.772H21.4a.6.6 0 00.6-.6V14.55m-7.666 4.783C14.953 20.903 16.366 22 18.01 22c1.759 0 3.253-1.255 3.794-3" stroke="currentColor" stroke-linecap="round" stroke-linejoin="round"/><path d="M16.005 19.228H14.6a.6.6 0 00-.6.6v1.622" stroke="currentColor" stroke-linecap="round" stroke-linejoin="round"/></svg>