<svg stroke-width="1.5" fill="none" xmlns="http://www.w3.org/2000/svg" viewBox="0 0 24 24" width="20" height="20"><path d="M17 12.5a.5.5 0 100-1 .5.5 0 000 1zM12 12.5a.5.5 0 100-1 .5.5 0 000 1zM7 12.5a.5.5 0 100-1 .5.5 0 000 1z" fill="currentColor" stroke="currentColor" stroke-linecap="round" stroke-linejoin="round"/><path d="M12 22c5.523 0 10-4.477 10-10S17.523 2 12 2 2 6.477 2 12c0 1.821.487 3.53 1.338 5L2.5 21.5l4.5-.838A9.955 9.955 0 0012 22z" stroke="currentColor" stroke-linecap="round" stroke-linejoin="round"/></svg>