<svg stroke-width="1.5" fill="none" xmlns="http://www.w3.org/2000/svg" viewBox="0 0 24 24" width="20" height="20"><path d="M1 15V9a6 6 0 016-6h10a6 6 0 016 6v6a6 6 0 01-6 6H7a6 6 0 01-6-6z" stroke="currentColor"/><path d="M10.5 10l-.172-.172a2.828 2.828 0 00-2-.828v0A2.828 2.828 0 005.5 11.828v.344A2.828 2.828 0 008.328 15v0c.75 0 1.47-.298 2-.828L10.5 14m8-4l-.172-.172a2.828 2.828 0 00-2-.828v0a2.828 2.828 0 00-2.828 2.828v.344A2.828 2.828 0 0016.328 15v0c.75 0 1.47-.298 2-.828L18.5 14" stroke="currentColor" stroke-linecap="round"/></svg>