<svg stroke-width="1.5" fill="none" xmlns="http://www.w3.org/2000/svg" viewBox="0 0 24 24" width="20" height="20"><path d="M10 17h-.667a2 2 0 01-2-2v-1.889C7.333 12.556 6 12 6 12s1.333-.556 1.333-1.111V9a2 2 0 012-2H10m4 10h.667a2 2 0 002-2v-1.889C16.667 12.556 18 12 18 12s-1.333-.556-1.333-1.111V9a2 2 0 00-2-2H14" stroke="currentColor" stroke-linecap="round" stroke-linejoin="round"/><path d="M21 3.6v16.8a.6.6 0 01-.6.6H3.6a.6.6 0 01-.6-.6V3.6a.6.6 0 01.6-.6h16.8a.6.6 0 01.6.6z" stroke="currentColor" stroke-linecap="round" stroke-linejoin="round"/></svg>