<svg stroke-width="1.5" fill="none" xmlns="http://www.w3.org/2000/svg" viewBox="0 0 24 24" width="20" height="20"><path d="M16 13c-2.761 0-5-1.12-5-2.5S13.239 8 16 8s5 1.12 5 2.5-2.239 2.5-5 2.5zm-5 1.5c0 1.38 2.239 2.5 5 2.5s5-1.12 5-2.5m-18-5C3 10.88 5.239 12 8 12c1.126 0 2.165-.186 3-.5M3 13c0 1.38 2.239 2.5 5 2.5 1.126 0 2.164-.186 3-.5" stroke="currentColor" stroke-linecap="round" stroke-linejoin="round"/><path d="M3 5.5v11C3 17.88 5.239 19 8 19c1.126 0 2.164-.186 3-.5m2-10v-3m-2 5v8c0 1.38 2.239 2.5 5 2.5s5-1.12 5-2.5v-8" stroke="currentColor" stroke-linecap="round" stroke-linejoin="round"/><path d="M8 8C5.239 8 3 6.88 3 5.5S5.239 3 8 3s5 1.12 5 2.5S10.761 8 8 8z" stroke="currentColor" stroke-linecap="round" stroke-linejoin="round"/></svg>