<svg stroke-width="1.5" fill="none" xmlns="http://www.w3.org/2000/svg" viewBox="0 0 24 24" width="20" height="20"><path d="M12 22C6.477 22 2 17.523 2 12S6.477 2 12 2s10 4.477 10 10-4.477 10-10 10z" stroke="currentColor" stroke-linecap="round" stroke-linejoin="round"/><path d="M12 16a4 4 0 110-8 4 4 0 010 8zm0-14v6m0 8v6M2 12h6m8 0h6M4.929 4.929L9.172 9.17m5.656 5.659l4.243 4.242m-14.142 0l4.243-4.242m5.656-5.658l4.243-4.242" stroke="currentColor" stroke-linecap="round" stroke-linejoin="round"/></svg>