<svg stroke-width="1.5" fill="none" xmlns="http://www.w3.org/2000/svg" viewBox="0 0 24 24" width="20" height="20"><path d="M3 23a2 2 0 110-4 2 2 0 010 4zm18 0a2 2 0 110-4 2 2 0 010 4zM3 5a2 2 0 110-4 2 2 0 010 4zm18 0a2 2 0 110-4 2 2 0 010 4zm-8 7c0-1.246-1.159-2.5-2.572-2.5h-.857C8.152 9.5 7 10.62 7 12c0 1.19.855 2.185 2 2.438.188.041.38.062.572.062" stroke="currentColor" stroke-linecap="round" stroke-linejoin="round"/><path d="M11 12c0 1.246 1.159 2.5 2.572 2.5h.857C15.848 14.5 17 13.38 17 12c0-1.19-.855-2.186-2-2.438a2.651 2.651 0 00-.572-.062M21 19V5M3 19V5m2-2h14M5 21h14" stroke="currentColor" stroke-linecap="round" stroke-linejoin="round"/></svg>