<svg stroke-width="1.5" fill="none" xmlns="http://www.w3.org/2000/svg" viewBox="0 0 24 24" width="20" height="20"><path d="M12 22c5.523 0 10-4.477 10-10S17.523 2 12 2 2 6.477 2 12s4.477 10 10 10z" stroke="currentColor" stroke-linecap="round" stroke-linejoin="round"/><path d="M7.5 11a.5.5 0 110-1 .5.5 0 010 1zM13 18a1 1 0 110-2 1 1 0 010 2zM11 7.01l.01-.011M8 16.01l.01-.011M16 9.01l.01-.011M17 14.01l.01-.011M13 12.01l.01-.011" stroke="currentColor" stroke-linecap="round" stroke-linejoin="round"/></svg>