<svg stroke-width="1.5" fill="none" xmlns="http://www.w3.org/2000/svg" viewBox="0 0 24 24" width="20" height="20"><path d="M6 3H3v3m15-3h3v3M6 21H3v-3m15 3h3v-3m-8.486-.309l4-2.4a1 1 0 00.486-.857v-3.868a1 1 0 00-.485-.857l-4-2.4a1 1 0 00-1.03 0l-4 2.4a1 1 0 00-.485.857v3.868a1 1 0 00.486.857l4 2.4a1 1 0 001.028 0z" stroke="currentColor" stroke-linecap="round" stroke-linejoin="round"/><path d="M7.5 10.5L12 13m0 0s3.764-2.05 4.5-2.5M12 13v4.5" stroke="currentColor" stroke-linecap="round" stroke-linejoin="round"/></svg>