<svg stroke-width="1.5" fill="none" xmlns="http://www.w3.org/2000/svg" viewBox="0 0 24 24" width="20" height="20"><path d="M3.528 7.293L9 10.333M22 2h-2m-8 10v-2a8.004 8.004 0 015.5-7.602M22 12h-2m-8 10v-2a8.004 8.004 0 015.5-7.602" stroke="currentColor" stroke-linecap="round" stroke-linejoin="round"/><path d="M12 22l-8.691-4.828A.6.6 0 013 16.647V7.353a.6.6 0 01.309-.524l8.4-4.667a.6.6 0 01.582 0L15 3.667M12 12L3.528 7.293M12 21v-9m3 1.5V4" stroke="currentColor" stroke-linecap="round" stroke-linejoin="round"/></svg>