<svg stroke-width="1.5" fill="none" xmlns="http://www.w3.org/2000/svg" viewBox="0 0 24 24" width="20" height="20"><path d="M4 6v6s0 3 7 3 7-3 7-3V6" stroke="currentColor" stroke-linecap="round" stroke-linejoin="round"/><path d="M11 3c7 0 7 3 7 3s0 3-7 3-7-3-7-3 0-3 7-3zm0 18c-7 0-7-3-7-3v-6m15 9a2 2 0 100-4 2 2 0 000 4z" stroke="currentColor" stroke-linecap="round" stroke-linejoin="round"/><path d="M19 22a3 3 0 100-6 3 3 0 000 6z" stroke="currentColor" stroke-linecap="round" stroke-linejoin="round" stroke-dasharray="0.3 2"/></svg>