<svg stroke-width="1.5" fill="none" xmlns="http://www.w3.org/2000/svg" viewBox="0 0 24 24" width="20" height="20"><path d="M5 12a5 5 0 106 0m-6 0V3h6v9m0-9h2m-2 3h2m-2 3h2" stroke="currentColor" stroke-linecap="round" stroke-linejoin="round"/><path d="M8 14a2 2 0 100 4 2 2 0 000-4zm0 0V9" stroke="currentColor" stroke-linecap="round" stroke-linejoin="round"/><path fill-rule="evenodd" clip-rule="evenodd" d="M19 3s3 2.993 3 4.887c0 1.655-1.345 3-3 3-1.656 0-2.988-1.345-3-3C16.01 5.992 19 3 19 3z" stroke="currentColor" stroke-miterlimit="1.5" stroke-linecap="round" stroke-linejoin="round"/></svg>