<svg stroke-width="1.5" fill="none" xmlns="http://www.w3.org/2000/svg" viewBox="0 0 24 24" width="20" height="20"><path d="M3 20.4V3.6a.6.6 0 01.6-.6h16.8a.6.6 0 01.6.6v16.8a.6.6 0 01-.6.6H3.6a.6.6 0 01-.6-.6z" stroke="currentColor"/><path d="M7.5 8a.5.5 0 110-1 .5.5 0 010 1zm9 0a.5.5 0 110-1 .5.5 0 010 1zm-9 4.5a.5.5 0 110-1 .5.5 0 010 1zm9 0a.5.5 0 110-1 .5.5 0 010 1zm-9 4.5a.5.5 0 110-1 .5.5 0 010 1zm9 0a.5.5 0 110-1 .5.5 0 010 1z" fill="currentColor" stroke="currentColor" stroke-linecap="round" stroke-linejoin="round"/></svg>