<svg stroke-width="1.5" fill="none" xmlns="http://www.w3.org/2000/svg" viewBox="0 0 24 24" width="20" height="20"><path d="M21.168 8A10.003 10.003 0 0012 2c-5.185 0-9.45 3.947-9.95 9" stroke="currentColor" stroke-linecap="round" stroke-linejoin="round"/><path d="M18 8h3.4a.6.6 0 00.6-.6V4M2.881 16c1.544 3.532 5.068 6 9.168 6 5.186 0 9.45-3.947 9.951-9" stroke="currentColor" stroke-linecap="round" stroke-linejoin="round"/><path d="M6.05 16h-3.4a.6.6 0 00-.6.6V20" stroke="currentColor" stroke-linecap="round" stroke-linejoin="round"/><path d="M10 16.402V7.598c0-.331.268-.599.6-.604 2.49-.035 5.9-.072 5.9 5.006s-3.41 5.042-5.9 5.006a.606.606 0 01-.6-.604z" stroke="currentColor"/><path d="M8 12h4" stroke="currentColor" stroke-linecap="round" stroke-linejoin="round"/></svg>