<svg stroke-width="1.5" fill="none" xmlns="http://www.w3.org/2000/svg" viewBox="0 0 24 24" width="20" height="20"><path d="M13.463 17h-2.926a.6.6 0 01-.596-.534l-.867-7.8A.6.6 0 019.67 8h4.66a.6.6 0 01.596.666l-.867 7.8a.6.6 0 01-.596.534z" stroke="currentColor" stroke-linecap="round"/><path d="M4.5 7a2.5 2.5 0 100-5 2.5 2.5 0 000 5z" stroke="currentColor" stroke-miterlimit="1.5" stroke-linecap="round" stroke-linejoin="round"/><path d="M4.5 4.5L9 8M4.5 19.5l5-4M19.5 4.5L15 8M14.5 15.5l1.25 1" stroke="currentColor" stroke-linecap="round" stroke-linejoin="round"/><path d="M4.5 22a2.5 2.5 0 100-5 2.5 2.5 0 000 5zM19.5 7a2.5 2.5 0 100-5 2.5 2.5 0 000 5z" stroke="currentColor" stroke-miterlimit="1.5" stroke-linecap="round" stroke-linejoin="round"/><path d="M16 20l2 2 4-4" stroke="currentColor" stroke-linecap="round" stroke-linejoin="round"/></svg>