<svg stroke-width="1.5" fill="none" xmlns="http://www.w3.org/2000/svg" viewBox="0 0 24 24" width="20" height="20"><path d="M13.463 17h-2.926a.6.6 0 01-.596-.534l-.867-7.8A.6.6 0 019.67 8h4.66a.6.6 0 01.596.666l-.867 7.8a.6.6 0 01-.596.534z" stroke="currentColor" stroke-linecap="round"/><path d="M4.5 7a2.5 2.5 0 100-5 2.5 2.5 0 000 5z" stroke="currentColor" stroke-miterlimit="1.5" stroke-linecap="round" stroke-linejoin="round"/><path d="M4.5 4.5L9 8M4.5 19.5l5-4m10-11L15 8m-.5 7.5l1.25 1" stroke="currentColor" stroke-linecap="round" stroke-linejoin="round"/><path d="M4.5 22a2.5 2.5 0 100-5 2.5 2.5 0 000 5zm15-15a2.5 2.5 0 100-5 2.5 2.5 0 000 5z" stroke="currentColor" stroke-miterlimit="1.5" stroke-linecap="round" stroke-linejoin="round"/><path d="M19.5 22v-6m0 0L17 18.5m2.5-2.5l2.5 2.5" stroke="currentColor" stroke-linecap="round" stroke-linejoin="round"/></svg>