<svg stroke-width="1.5" fill="none" xmlns="http://www.w3.org/2000/svg" viewBox="0 0 24 24" width="20" height="20"><path d="M5 3a1 1 0 100-2 1 1 0 000 2z" fill="currentColor" stroke="currentColor" stroke-linecap="round" stroke-linejoin="round"/><path d="M5 22h8m-8 0V2" stroke="currentColor" stroke-linecap="round" stroke-linejoin="round"/><path d="M5 23a1 1 0 100-2 1 1 0 000 2z" fill="currentColor" stroke="currentColor" stroke-linecap="round" stroke-linejoin="round"/><path d="M8 4.193C9.37 2.821 11.108 2 13 2c4.418 0 8 4.477 8 10 0 3.271-1.256 6.175-3.2 8" stroke="currentColor" stroke-linecap="round" stroke-linejoin="round" stroke-dasharray="3 3"/><path d="M8.2 20A9.098 9.098 0 017 18.615" stroke="currentColor" stroke-linecap="round" stroke-linejoin="round"/><path d="M13 23a1 1 0 100-2 1 1 0 000 2z" fill="currentColor" stroke="currentColor" stroke-linecap="round" stroke-linejoin="round"/></svg>