<svg stroke-width="1.5" fill="none" xmlns="http://www.w3.org/2000/svg" viewBox="0 0 24 24" width="20" height="20"><path d="M2 12c0 5.523 4.477 10 10 10s10-4.477 10-10S17.523 2 12 2" stroke="currentColor" stroke-linecap="round" stroke-linejoin="round"/><path d="M11.5 15.5s1.5-2 4.5-2 4.5 2 4.5 2M3 4c0-2.754 4-2.754 4 0 0 1.967-2 1.64-2 4m0 3.01l.01-.011" stroke="currentColor" stroke-linecap="round" stroke-linejoin="round"/><path d="M17.5 9a.5.5 0 110-1 .5.5 0 010 1zm-7 0a.5.5 0 110-1 .5.5 0 010 1z" fill="#000" stroke="currentColor" stroke-linecap="round" stroke-linejoin="round"/></svg>