<svg stroke-width="1.5" fill="none" xmlns="http://www.w3.org/2000/svg" viewBox="0 0 24 24" width="20" height="20"><path d="M21 12.353v4.294a.6.6 0 01-.309.525l-8.4 4.666a.6.6 0 01-.582 0l-8.4-4.666A.6.6 0 013 16.647v-4.294a.6.6 0 01.309-.524l8.4-4.667a.6.6 0 01.582 0l8.4 4.667a.6.6 0 01.309.524z" stroke="currentColor" stroke-linecap="round" stroke-linejoin="round"/><path d="M3.528 12.294l8.18 4.544a.6.6 0 00.583 0l8.209-4.56M12 21.5V17m0-5V2m0 0l2.5 2.5M12 2L9.5 4.5" stroke="currentColor" stroke-linecap="round" stroke-linejoin="round"/></svg>