<svg stroke-width="1.5" fill="none" xmlns="http://www.w3.org/2000/svg" viewBox="0 0 24 24" width="20" height="20"><path d="M20 7.78v7.796a.6.6 0 01-.27.502l-6.616 4.347a.6.6 0 01-.249.093l-10.184 1.39A.6.6 0 012 21.312v-12.3a.6.6 0 01.298-.519l10.789-6.28a.6.6 0 01.688.058l6.01 5.05A.6.6 0 0120 7.78z" stroke="currentColor" stroke-linecap="round" stroke-linejoin="round"/><path d="M2.5 9l10.227 2.922a.6.6 0 00.506-.084L19.5 7.5m-6.5 13V12m3.5 2.01l.01-.011M22 17.01l.01-.011" stroke="currentColor" stroke-linecap="round" stroke-linejoin="round"/></svg>