<svg stroke-width="1.5" fill="none" xmlns="http://www.w3.org/2000/svg" viewBox="0 0 24 24" width="20" height="20"><path d="M7 16v-4.639c0-.51.1-.999.285-1.453M17 14v-1.185m-7.778-5.08A5.506 5.506 0 0112 7c2.28 0 4.203 1.33 4.805 3.15M10 17v-2.177M14 17v-5.147C14 10.83 13.105 10 12 10s-2 .83-2 1.853v.794" stroke="currentColor" stroke-linecap="round" stroke-linejoin="round"/><path d="M12 22C6.477 22 2 17.523 2 12S6.477 2 12 2s10 4.477 10 10a9.98 9.98 0 01-.458 3m-4.421 7.364l2.122-2.121m0 0l2.121-2.122m-2.121 2.122L17.12 18.12m2.122 2.122l2.121 2.121" stroke="currentColor" stroke-linecap="round" stroke-linejoin="round"/></svg>