<svg stroke-width="1.5" fill="none" xmlns="http://www.w3.org/2000/svg" viewBox="0 0 24 24" width="20" height="20"><path d="M2.6 4h6.178a.6.6 0 01.39.144l3.164 2.712a.6.6 0 00.39.144H21.4a.6.6 0 01.6.6v2.8a.6.6 0 01-.6.6H2.6a.6.6 0 01-.6-.6V4.6a.6.6 0 01.6-.6zM22 10v4" stroke="currentColor" stroke-linecap="round" stroke-linejoin="round"/><path d="M2 10v9.4a.6.6 0 00.6.6H13m6 1a2 2 0 100-4 2 2 0 000 4z" stroke="currentColor" stroke-linecap="round" stroke-linejoin="round"/><path d="M19 22a3 3 0 100-6 3 3 0 000 6z" stroke="currentColor" stroke-linecap="round" stroke-linejoin="round" stroke-dasharray="0.3 2"/></svg>