<svg stroke-width="1.5" fill="none" xmlns="http://www.w3.org/2000/svg" viewBox="0 0 24 24" width="20" height="20"><path d="M4.998 2.001H2v2.998h2.998V2.001zm0 8.501H2V13.5h2.998v-2.998z" stroke="currentColor" stroke-width="1.499" stroke-miterlimit="1.5" stroke-linecap="round" stroke-linejoin="round"/><path d="M20.498 5v5.503M3.5 5v5.503m16.998 2.999v5.502M3.5 13.502v5.502" stroke="currentColor" stroke-width="1.473" stroke-miterlimit="1.5" stroke-linecap="round" stroke-linejoin="round"/><path d="M4.999 20.502h5.5m-5.5-16.999h5.5m2.999 16.996h5.5m-5.5-16.998h5.5" stroke="currentColor" stroke-width="1.22" stroke-miterlimit="1.5" stroke-linecap="round" stroke-linejoin="round"/><path d="M4.998 19.001H2v2.998h2.998v-2.998zM21.997 2.002H19V5h2.998V2.002zM13.497 2H10.5v2.998h2.998V2zm8.5 8.503H19V13.5h2.998v-2.998zm0 8.499H19V22h2.998v-2.998zm-8.5-.002H10.5v2.998h2.998V19z" stroke="currentColor" stroke-width="1.499" stroke-miterlimit="1.5" stroke-linecap="round" stroke-linejoin="round"/></svg>