<svg stroke-width="1.5" fill="none" xmlns="http://www.w3.org/2000/svg" viewBox="0 0 24 24" width="20" height="20"><g clip-path="url(#clip0_4265_8324)" stroke="currentColor" stroke-linecap="round" stroke-linejoin="round"><path d="M12 10a1.5 1.5 0 100-3 1.5 1.5 0 000 3zm0 8a1.5 1.5 0 100-3 1.5 1.5 0 000 3zm4.25-3.75a1.5 1.5 0 100-3 1.5 1.5 0 000 3zM12 10v5M8.25 4.75L10.5 7m2.75 2.75l1.5 1.5"/><path d="M11.576 1.424a.6.6 0 01.848 0l10.152 10.152a.6.6 0 010 .848L12.424 22.576a.6.6 0 01-.848 0L1.424 12.424a.6.6 0 010-.848L11.576 1.424z"/></g><defs><clipPath id="clip0_4265_8324"><path fill="#fff" d="M0 0h24v24H0z"/></clipPath></defs></svg>