<svg stroke-width="1.5" fill="none" xmlns="http://www.w3.org/2000/svg" viewBox="0 0 24 24" width="20" height="20"><path d="M14.871 19.121L16.993 17m2.121-2.121L16.993 17m0 0l-2.122-2.121M16.993 17l2.121 2.121" stroke="currentColor" stroke-linecap="round" stroke-linejoin="round"/><path d="M4 9.4V4.6a.6.6 0 01.6-.6h4.8a.6.6 0 01.6.6v4.8a.6.6 0 01-.6.6H4.6a.6.6 0 01-.6-.6zm0 10v-4.8a.6.6 0 01.6-.6h4.8a.6.6 0 01.6.6v4.8a.6.6 0 01-.6.6H4.6a.6.6 0 01-.6-.6zm10-10V4.6a.6.6 0 01.6-.6h4.8a.6.6 0 01.6.6v4.8a.6.6 0 01-.6.6h-4.8a.6.6 0 01-.6-.6z" stroke="currentColor"/></svg>