<svg stroke-width="1.5" fill="none" xmlns="http://www.w3.org/2000/svg" viewBox="0 0 24 24" width="20" height="20"><path d="M13.992 17h3m3 0h-3m0 0v-3m0 3v3" stroke="currentColor" stroke-linecap="round" stroke-linejoin="round"/><path d="M4 9.4V4.6a.6.6 0 01.6-.6h4.8a.6.6 0 01.6.6v4.8a.6.6 0 01-.6.6H4.6a.6.6 0 01-.6-.6zM4 19.4v-4.8a.6.6 0 01.6-.6h4.8a.6.6 0 01.6.6v4.8a.6.6 0 01-.6.6H4.6a.6.6 0 01-.6-.6zM14 9.4V4.6a.6.6 0 01.6-.6h4.8a.6.6 0 01.6.6v4.8a.6.6 0 01-.6.6h-4.8a.6.6 0 01-.6-.6z" stroke="currentColor"/></svg>