<svg stroke-width="1.5" fill="none" xmlns="http://www.w3.org/2000/svg" viewBox="0 0 24 24" width="20" height="20"><path d="M7.4 7H4.6a.6.6 0 00-.6.6v8.8a.6.6 0 00.6.6h2.8a.6.6 0 00.6-.6V7.6a.6.6 0 00-.6-.6zM19.4 7h-2.8a.6.6 0 00-.6.6v8.8a.6.6 0 00.6.6h2.8a.6.6 0 00.6-.6V7.6a.6.6 0 00-.6-.6z" stroke="currentColor" stroke-linecap="round" stroke-linejoin="round"/><path d="M1 14.4V9.6a.6.6 0 01.6-.6h1.8a.6.6 0 01.6.6v4.8a.6.6 0 01-.6.6H1.6a.6.6 0 01-.6-.6zM23 14.4V9.6a.6.6 0 00-.6-.6h-1.8a.6.6 0 00-.6.6v4.8a.6.6 0 00.6.6h1.8a.6.6 0 00.6-.6zM8 12h8" stroke="currentColor" stroke-linecap="round" stroke-linejoin="round"/></svg>