<svg stroke-width="1.5" fill="none" xmlns="http://www.w3.org/2000/svg" viewBox="0 0 24 24" width="20" height="20"><path d="M4 11.5l-.485.121A2 2 0 002 13.561v1.877a2 2 0 001.515 1.94l1.74.435A.6.6 0 006 17.231v-5.463a.6.6 0 00-.746-.582L4 11.5zm0 0V11a8 8 0 1116 0v.5m0 0l.485.121A2 2 0 0122 13.561v1.877a2 2 0 01-1.515 1.94L20 17.5m0-6l-1.255-.314a.6.6 0 00-.745.582v5.463a.6.6 0 00.745.582L20 17.5m-5 3h3a2 2 0 002-2v-1m-5 3a1.5 1.5 0 00-1.5-1.5h-3a1.5 1.5 0 000 3h3a1.5 1.5 0 001.5-1.5z" stroke="currentColor"/></svg>