<svg stroke-width="1.5" fill="none" xmlns="http://www.w3.org/2000/svg" viewBox="0 0 24 24" width="20" height="20"><path d="M18 20l3.824-3.824a.6.6 0 00.176-.424V10.5A1.5 1.5 0 0020.5 9v0a1.5 1.5 0 00-1.5 1.5V15" stroke="currentColor" stroke-linecap="round" stroke-linejoin="round"/><path d="M18 16l.858-.858a.484.484 0 00.142-.343v0a.485.485 0 00-.268-.433l-.443-.221a2 2 0 00-2.308.374l-.895.895a2 2 0 00-.586 1.414V20M6 20l-3.824-3.824A.6.6 0 012 15.752V10.5A1.5 1.5 0 013.5 9v0A1.5 1.5 0 015 10.5V15" stroke="currentColor" stroke-linecap="round" stroke-linejoin="round"/><path d="M6 16l-.858-.858A.485.485 0 015 14.799v0c0-.183.104-.35.268-.433l.443-.221a2 2 0 012.308.374l.895.895a2 2 0 01.586 1.414V20M13.667 12h-3.334V9.667H8V6.333h2.333V4h3.334v2.333H16v3.334h-2.333V12z" stroke="currentColor" stroke-linecap="round" stroke-linejoin="round"/></svg>