<svg stroke-width="1.5" fill="none" xmlns="http://www.w3.org/2000/svg" viewBox="0 0 24 24" width="20" height="20"><path d="M15.01 3l-.01.011M11.01 3l-.01.011M7.01 3L7 3.011M3.01 3L3 3.011M3.01 7L3 7.011M3.01 11l-.01.011M3.01 15l-.01.011M9 21.01l.01-.011M13 21.01l.01-.011M17 21.01l.01-.011M21 21.01l.01-.011M21 17.01l.01-.011M21 13.01l.01-.011M21 9.01l.01-.011M9 17v-7a1 1 0 011-1h7" stroke="currentColor" stroke-linecap="round" stroke-linejoin="round"/><path d="M15 7v7a1 1 0 01-1 1H7" stroke="currentColor" stroke-linecap="round" stroke-linejoin="round"/></svg>