<svg stroke-width="1.5" fill="none" xmlns="http://www.w3.org/2000/svg" viewBox="0 0 24 24" width="20" height="20"><path d="M12 18a6 6 0 100-12 6 6 0 000 12zm6-6h-6M9 6.803L12 12m0 0l-3 5.197" stroke="currentColor" stroke-linecap="round" stroke-linejoin="round"/><path d="M12 19a7 7 0 100-14 7 7 0 000 14z" stroke="currentColor" stroke-linecap="round" stroke-linejoin="round" stroke-dasharray="1 3"/><path d="M12 22c5.523 0 10-4.477 10-10S17.523 2 12 2 2 6.477 2 12s4.477 10 10 10z" stroke="currentColor" stroke-linecap="round" stroke-linejoin="round"/><path d="M12 15a3 3 0 100-6 3 3 0 000 6z" stroke="currentColor" stroke-linecap="round" stroke-linejoin="round"/></svg>