<svg stroke-width="1.5" fill="none" xmlns="http://www.w3.org/2000/svg" viewBox="0 0 24 24" width="20" height="20"><path d="M21.168 8A10.003 10.003 0 0012 2c-5.185 0-9.45 3.947-9.95 9" stroke="currentColor" stroke-linecap="round" stroke-linejoin="round"/><path d="M18 8h3.4a.6.6 0 00.6-.6V4M2.881 16c1.544 3.532 5.068 6 9.168 6 5.186 0 9.45-3.947 9.951-9" stroke="currentColor" stroke-linecap="round" stroke-linejoin="round"/><path d="M6.05 16h-3.4a.6.6 0 00-.6.6V20" stroke="currentColor" stroke-linecap="round" stroke-linejoin="round"/><path d="M10.5 7v9.4a.6.6 0 00.6.6h4.4" stroke="currentColor" stroke-linecap="round"/><path d="M8.5 13l4.5-2" stroke="currentColor" stroke-linecap="round" stroke-linejoin="round"/></svg>