<svg stroke-width="1.5" fill="none" xmlns="http://www.w3.org/2000/svg" viewBox="0 0 24 24" width="20" height="20"><path d="M3 6.5V5a2 2 0 012-2h11.172a2 2 0 011.414.586l2.828 2.828A2 2 0 0121 7.828V19a2 2 0 01-2 2H5a2 2 0 01-2-2v-1.5" stroke="currentColor" stroke-linecap="round" stroke-linejoin="round"/><path d="M8 3h8v5.4a.6.6 0 01-.6.6H8.6a.6.6 0 01-.6-.6V3zm10 18v-7.4a.6.6 0 00-.6-.6H15m-9 8v-3.5m6-5.5H1m0 0l3-3m-3 3l3 3" stroke="currentColor" stroke-linecap="round" stroke-linejoin="round"/></svg>