<svg stroke-width="1.5" fill="none" xmlns="http://www.w3.org/2000/svg" viewBox="0 0 24 24" width="20" height="20"><path d="M16.879 21.121L19 19m2.121-2.121L19 19m0 0l-2.121-2.121M19 19l2.121 2.121M13 21H3.6a.6.6 0 01-.6-.6V3.6a.6.6 0 01.6-.6h16.8a.6.6 0 01.6.6V13" stroke="currentColor" stroke-linecap="round" stroke-linejoin="round"/><path d="M9.898 8.513a.6.6 0 00-.898.52v5.933a.6.6 0 00.898.521l5.19-2.966a.6.6 0 000-1.042l-5.19-2.966z" stroke="currentColor" stroke-linecap="round" stroke-linejoin="round"/></svg>