<svg stroke-width="1.5" fill="none" xmlns="http://www.w3.org/2000/svg" viewBox="0 0 24 24" width="20" height="20"><path d="M7 18h7m-7-4h1m-1-4h3M7 2h9.5L21 6.5V19" stroke="currentColor" stroke-linecap="round" stroke-linejoin="round"/><path d="M3 20.5v-14A1.5 1.5 0 014.5 5h9.752a.6.6 0 01.424.176l3.148 3.148A.6.6 0 0118 8.75V20.5a1.5 1.5 0 01-1.5 1.5h-12A1.5 1.5 0 013 20.5z" stroke="currentColor" stroke-linecap="round" stroke-linejoin="round"/><path d="M14 5v3.4a.6.6 0 00.6.6H18" stroke="currentColor" stroke-linecap="round" stroke-linejoin="round"/></svg>