<svg stroke-width="1.5" fill="none" xmlns="http://www.w3.org/2000/svg" viewBox="0 0 24 24" width="20" height="20"><path d="M2 17V7a4 4 0 014-4h3.9a.6.6 0 01.6.6v16.8a.6.6 0 01-.6.6H6a4 4 0 01-4-4z" stroke="currentColor"/><path d="M6.5 8a1 1 0 100-2 1 1 0 000 2zM17.5 14a1 1 0 100-2 1 1 0 000 2z" fill="currentColor" stroke="currentColor" stroke-linecap="round" stroke-linejoin="round"/><path d="M22 17V7a4 4 0 00-4-4h-3.9a.6.6 0 00-.6.6v16.8a.6.6 0 00.6.6H18a4 4 0 004-4z" stroke="currentColor"/></svg>