<svg stroke-width="1.5" fill="none" xmlns="http://www.w3.org/2000/svg" viewBox="0 0 24 24" width="20" height="20"><path d="M15 12v3m0-6c0-1-.714-2-2.143-2v0A2.857 2.857 0 0110 4.143V3m8 6V4m0 8v3" stroke="currentColor" stroke-linecap="round" stroke-linejoin="round"/><path d="M15 15H6.6a.6.6 0 01-.6-.6v-1.8a.6.6 0 01.6-.6H12" stroke="currentColor"/><path d="M5 5l14 14m-7 3c5.523 0 10-4.477 10-10S17.523 2 12 2 2 6.477 2 12s4.477 10 10 10z" stroke="currentColor" stroke-linecap="round" stroke-linejoin="round"/><path d="M12 22c5.523 0 10-4.477 10-10S17.523 2 12 2 2 6.477 2 12s4.477 10 10 10z" stroke="currentColor" stroke-linecap="round" stroke-linejoin="round"/></svg>