<svg stroke-width="1.5" fill="none" xmlns="http://www.w3.org/2000/svg" viewBox="0 0 24 24" width="20" height="20"><path d="M20 12V5.749a.6.6 0 00-.176-.425l-3.148-3.148A.6.6 0 0016.252 2H4.6a.6.6 0 00-.6.6v18.8a.6.6 0 00.6.6H11M8 10h8M8 6h4m-4 8h3m9.5 6.5L22 22" stroke="currentColor" stroke-linecap="round" stroke-linejoin="round"/><path d="M15 18a3 3 0 106 0 3 3 0 00-6 0z" stroke="currentColor" stroke-linecap="round" stroke-linejoin="round"/><path d="M16 5.4V2.354a.354.354 0 01.604-.25l3.292 3.292a.353.353 0 01-.25.604H16.6a.6.6 0 01-.6-.6z" fill="currentColor" stroke="currentColor" stroke-linecap="round" stroke-linejoin="round"/></svg>