<svg stroke-width="1.5" fill="none" xmlns="http://www.w3.org/2000/svg" viewBox="0 0 24 24" width="20" height="20"><path d="M8.87 3h6.26a6 6 0 015.963 5.337l.21 1.896c.131 1.174.131 2.36 0 3.534l-.21 1.896A6 6 0 0115.13 21H8.87a6 6 0 01-5.963-5.337l-.21-1.896a16 16 0 010-3.534l.21-1.896A6 6 0 018.87 3z" stroke="currentColor" stroke-linecap="round" stroke-linejoin="round"/><path d="M9 17v-4m0 0V7h4a3 3 0 013 3v0a3 3 0 01-3 3H9z" stroke="currentColor" stroke-linecap="round" stroke-linejoin="round"/></svg>