<svg stroke-width="1.5" fill="none" xmlns="http://www.w3.org/2000/svg" viewBox="0 0 24 24" width="20" height="20"><path d="M6 19a9.985 9.985 0 01-4-8C2 5.477 6.477 1 12 1s10 4.477 10 10a9.985 9.985 0 01-4 8" stroke="currentColor" stroke-linecap="round" stroke-linejoin="round"/><path d="M6 19a9.985 9.985 0 01-4-8C2 5.477 6.477 1 12 1s10 4.477 10 10a9.985 9.985 0 01-4 8M7.528 15a6 6 0 118.944 0" stroke="currentColor" stroke-linecap="round" stroke-linejoin="round"/><path d="M12 13a2 2 0 100-4 2 2 0 000 4zm-1.924 3.283l.815-.543a2 2 0 012.218 0l.815.543a2 2 0 01.863 1.993l-.509 3.053A2 2 0 0112.306 23h-.612a2 2 0 01-1.973-1.671l-.508-3.053a2 2 0 01.863-1.993z" stroke="currentColor" stroke-linecap="round" stroke-linejoin="round"/></svg>