<svg stroke-width="1.5" fill="none" xmlns="http://www.w3.org/2000/svg" viewBox="0 0 24 24" width="20" height="20"><path d="M12 22C6.477 22 2 17.523 2 12S6.477 2 12 2s10 4.477 10 10-4.477 10-10 10z" stroke="currentColor" stroke-linecap="round" stroke-linejoin="round"/><path d="M12 22c-2.21 0-4-4.477-4-10S9.79 2 12 2s4 4.477 4 10-1.79 10-4 10z" stroke="currentColor" stroke-linecap="round" stroke-linejoin="round"/><path d="M9 21c-3-1-4-5.389-4-8.5 0-3.111 1.5-7 5-9.5m5 0c3 1 4 5.389 4 8.5 0 3.111-1.5 7-5 9.5" stroke="currentColor" stroke-linecap="round" stroke-linejoin="round"/></svg>