<svg stroke-width="1.5" fill="none" xmlns="http://www.w3.org/2000/svg" viewBox="0 0 24 24" width="20" height="20"><path d="M17.571 18H20.4a.6.6 0 00.6-.6V11a4 4 0 00-4-4H7a4 4 0 00-4 4v6.4a.6.6 0 00.6.6h2.829M8 7V3.6a.6.6 0 01.6-.6h6.8a.6.6 0 01.6.6V7" stroke="currentColor"/><path d="M6.098 20.315L6.428 18l.498-3.485A.6.6 0 017.52 14h8.96a.6.6 0 01.594.515L17.57 18l.331 2.315a.6.6 0 01-.594.685H6.692a.6.6 0 01-.594-.685z" stroke="currentColor"/><path d="M17 10.01l.01-.011" stroke="currentColor" stroke-linecap="round" stroke-linejoin="round"/></svg>