<svg stroke-width="1.5" fill="none" xmlns="http://www.w3.org/2000/svg" viewBox="0 0 24 24" width="20" height="20"><path d="M11 21H4a2 2 0 01-2-2V5a2 2 0 012-2h16a2 2 0 012 2v7" stroke="currentColor" stroke-linecap="round"/><path d="M2 7h20M5 5.01l.01-.011M8 5.01l.01-.011M11 5.01l.01-.011m10.656 11.668C21.049 15.097 19.636 14 17.99 14c-1.758 0-3.252 1.255-3.793 3" stroke="currentColor" stroke-linecap="round" stroke-linejoin="round"/><path d="M19.995 16.772H21.4a.6.6 0 00.6-.6V14.55m-7.666 4.783C14.953 20.903 16.366 22 18.01 22c1.758 0 3.252-1.255 3.793-3" stroke="currentColor" stroke-linecap="round" stroke-linejoin="round"/><path d="M16.005 19.228H14.6a.6.6 0 00-.6.6v1.622" stroke="currentColor" stroke-linecap="round" stroke-linejoin="round"/></svg>