<svg stroke-width="1.5" fill="none" xmlns="http://www.w3.org/2000/svg" viewBox="0 0 24 24" width="20" height="20"><path d="M3 19V5a2 2 0 012-2h8a2 2 0 012 2v14a2 2 0 01-2 2H5a2 2 0 01-2-2z" stroke="currentColor"/><path d="M13 3h6a2 2 0 012 2v14a2 2 0 01-2 2h-6" stroke="currentColor"/><path d="M7.5 15C6.672 15 6 13.657 6 12s.672-3 1.5-3S9 10.343 9 12s-.672 3-1.5 3zm5.5-1v-4m-4.5-.5l1-1m-3 1l-1-1m0 7l1-1m3 1l-1-1M2 8h1M2 6h1m0 10H2m1 2H2" stroke="currentColor" stroke-linecap="round" stroke-linejoin="round"/></svg>