<svg stroke-width="1.5" fill="none" xmlns="http://www.w3.org/2000/svg" viewBox="0 0 24 24" width="20" height="20"><path d="M3 19V5a2 2 0 012-2h7a2 2 0 012 2v14a2 2 0 01-2 2H5a2 2 0 01-2-2z" stroke="currentColor"/><path d="M12 3h7a2 2 0 012 2v.5M12 21h7a2 2 0 002-2v-.5M8.5 15C7.672 15 7 13.657 7 12s.672-3 1.5-3 1.5 1.343 1.5 3-.672 3-1.5 3zm1-5.5l1-1m-3 1l-1-1m0 7l1-1m3 1l-1-1M2 8h1M2 6h1m0 10H2m1 2H2m20-6h-7m0 0l3.5-3.5M15 12l3.5 3.5" stroke="currentColor" stroke-linecap="round" stroke-linejoin="round"/></svg>