<svg stroke-width="1.5" fill="none" xmlns="http://www.w3.org/2000/svg" viewBox="0 0 24 24" width="20" height="20"><path d="M10 21.4v-7.006a.6.6 0 01.6-.6h1.173a.6.6 0 00.504-.275l1.446-2.244a.6.6 0 01.504-.275h3.546a.6.6 0 01.504.275l1.446 2.244a.6.6 0 00.504.275H21.4a.6.6 0 01.6.6V21.4a.6.6 0 01-.6.6H10.6a.6.6 0 01-.6-.6z" stroke="currentColor" stroke-linecap="round" stroke-linejoin="round"/><path d="M16 19a2 2 0 100-4 2 2 0 000 4zM3 18v3h2.5M3 9.5v5M3 6V3h3m3.5 0h5M18 3h3v2.5m0 4.5V8.5" stroke="currentColor" stroke-linecap="round" stroke-linejoin="round"/></svg>