<svg stroke-width="1.5" fill="none" xmlns="http://www.w3.org/2000/svg" viewBox="0 0 24 24" width="20" height="20"><path d="M8 9s1-1 4-1 4 1 4 1" stroke="currentColor" stroke-linecap="round" stroke-linejoin="round"/><path d="M12 14a1 1 0 100-2 1 1 0 000 2z" fill="currentColor" stroke="currentColor" stroke-linecap="round" stroke-linejoin="round"/><path d="M5 18L3.13 4.913a.996.996 0 01.774-1.114l7.662-1.703a2 2 0 01.868 0L20.096 3.8c.51.113.848.596.774 1.114L19 18c-.07.495-.5 3.5-7 3.5S5.07 18.495 5 18z" stroke="currentColor" stroke-linecap="round" stroke-linejoin="round"/></svg>