<svg stroke-width="1.5" fill="none" xmlns="http://www.w3.org/2000/svg" viewBox="0 0 24 24" width="20" height="20"><path d="M3.5 6.004C3.5 7.808 6.357 9 11.5 9c7 0 8-2.996 8-2.996S18.5 3 11.5 3c-5.143 0-8 1.2-8 3.004zm0 6c0 1.804 2.857 2.996 8 2.996 7 0 8-2.996 8-2.996S18.5 9 11.5 9c-5.143 0-8 1.2-8 3.004zm0 6c0 1.804 2.857 2.996 8 2.996 7 0 8-2.996 8-2.996S18.5 15 11.5 15c-5.143 0-8 1.2-8 3.004zM19.5 12s1-.975 1-3-1-3-1-3m1-2c0 1.35-1 2-1 2m0 12s1-.975 1-3-1-3-1-3m1 8c0-1.35-1-2-1-2" stroke="currentColor" stroke-linecap="round" stroke-linejoin="round"/></svg>