<svg stroke-width="1.5" fill="none" xmlns="http://www.w3.org/2000/svg" viewBox="0 0 24 24" width="20" height="20"><path d="M12 22c5.523 0 10-4.477 10-10S17.523 2 12 2 2 6.477 2 12s4.477 10 10 10z" stroke="currentColor" stroke-linecap="round" stroke-linejoin="round"/><path d="M5 6a1 1 0 100-2 1 1 0 000 2z" fill="currentColor" stroke="currentColor" stroke-linecap="round" stroke-linejoin="round"/><path d="M5 10.5V9M5 15v-1.5" stroke="currentColor" stroke-linecap="round" stroke-linejoin="round"/><path d="M5 20a1 1 0 100-2 1 1 0 000 2zM19 20a1 1 0 100-2 1 1 0 000 2z" fill="currentColor" stroke="currentColor" stroke-linecap="round" stroke-linejoin="round"/><path d="M10.5 19H9M15 19h-1.5" stroke="currentColor" stroke-linecap="round" stroke-linejoin="round"/></svg>