<svg stroke-width="1.5" fill="none" xmlns="http://www.w3.org/2000/svg" viewBox="0 0 24 24" width="20" height="20"><path d="M19.857 15.2a4 4 0 00-5.713 5.6m5.713-5.6a4 4 0 01-5.713 5.6m5.713-5.6l-5.714 5.6" stroke="currentColor" stroke-linecap="round" stroke-linejoin="round"/><path d="M9 22H7a2 2 0 01-2-2v-8.818a.6.6 0 00-.1-.333L3.1 8.15a.6.6 0 01-.1-.333V2.6a.6.6 0 01.6-.6h1.8a.6.6 0 01.6.6v1.8a.6.6 0 00.6.6h2.8a.6.6 0 00.6-.6V2.6a.6.6 0 01.6-.6h2.8a.6.6 0 01.6.6v1.8a.6.6 0 00.6.6h2.8a.6.6 0 00.6-.6V2.6a.6.6 0 01.6-.6h1.8a.6.6 0 01.6.6v5.218a.6.6 0 01-.1.333L20 9.5" stroke="currentColor" stroke-linecap="round" stroke-linejoin="round"/></svg>