<svg stroke-width="1.5" fill="none" xmlns="http://www.w3.org/2000/svg" viewBox="0 0 24 24" width="20" height="20"><path d="M15 16.01l.01-.011M9 16.01l.01-.011M13 6h2a5 5 0 015 5v7a2 2 0 01-2 2H6a2 2 0 01-2-2v-7a5 5 0 015-5h4zm0 0l1-4m0 0h3m-3 0H7" stroke="currentColor" stroke-linecap="round" stroke-linejoin="round"/><path d="M10.5 20l-2 2.5M13.5 20l2 2.5M16.5 20l2 2.5M7.5 20l-2 2.5" stroke="currentColor" stroke-linecap="round"/><path d="M9.609 9h4.782A2.609 2.609 0 0117 11.609a.391.391 0 01-.391.391H7.39A.391.391 0 017 11.609 2.609 2.609 0 019.609 9z" stroke="currentColor" stroke-linecap="round" stroke-linejoin="round"/></svg>