<svg stroke-width="1.5" fill="none" xmlns="http://www.w3.org/2000/svg" viewBox="0 0 24 24" width="20" height="20"><path d="M7 19a2 2 0 100-4 2 2 0 000 4zm10 0a2 2 0 100-4 2 2 0 000 4z" stroke="currentColor" stroke-miterlimit="1.5" stroke-linecap="round" stroke-linejoin="round"/><path d="M14 17V6.6a.6.6 0 00-.6-.6H2.6a.6.6 0 00-.6.6v9.8a.6.6 0 00.6.6h2.05M14 17H9.05M14 9h5.61a.6.6 0 01.548.356l1.79 4.028a.6.6 0 01.052.243V16.4a.6.6 0 01-.6.6h-1.9M14 17h1" stroke="currentColor" stroke-linecap="round"/></svg>