<svg stroke-width="1.5" fill="none" xmlns="http://www.w3.org/2000/svg" viewBox="0 0 24 24" width="20" height="20"><path d="M12 22c5.523 0 10-4.477 10-10S17.523 2 12 2 2 6.477 2 12s4.477 10 10 10z" stroke="currentColor" stroke-linecap="round" stroke-linejoin="round"/><path d="M5 6a1 1 0 100-2 1 1 0 000 2zM19 20a1 1 0 100-2 1 1 0 000 2z" fill="currentColor" stroke="currentColor" stroke-linecap="round" stroke-linejoin="round"/><path d="M19 19l-1.5-1.5M15.5 15.5l-1-1M12.5 12.5l-1-1M9.5 9.5l-1-1M6.5 6.5L5 5" stroke="currentColor" stroke-linecap="round" stroke-linejoin="round"/></svg>