<svg stroke-width="1.5" fill="none" xmlns="http://www.w3.org/2000/svg" viewBox="0 0 24 24" width="20" height="20"><path d="M4 19h2m12 0h2" stroke="currentColor" stroke-linecap="round" stroke-linejoin="round"/><path d="M2 16.4V7.6a.6.6 0 01.6-.6h18.8a.6.6 0 01.6.6v8.8a.6.6 0 01-.6.6H2.6a.6.6 0 01-.6-.6z" stroke="currentColor"/><path d="M5 10.01l.01-.011M8 10.01l.01-.011m2.99.011l.01-.011M5 14.01l.01-.011M8 14.01l.01-.011m2.99.011l.01-.011M17 14a2 2 0 100-4 2 2 0 000 4z" stroke="currentColor" stroke-linecap="round" stroke-linejoin="round"/></svg>