<svg stroke-width="1.5" fill="none" xmlns="http://www.w3.org/2000/svg" viewBox="0 0 24 24" width="20" height="20"><path d="M4 6V3.6a.6.6 0 01.6-.6h14.8a.6.6 0 01.6.6V6M4 18v2.4a.6.6 0 00.6.6h14.8a.6.6 0 00.6-.6V18" stroke="currentColor" stroke-linecap="round"/><path d="M13.5 15V9h2.4a.6.6 0 01.6.6v.9A1.5 1.5 0 0115 12v0" stroke="currentColor" stroke-linecap="round" stroke-linejoin="round"/><path d="M13.5 15h2.4a.6.6 0 00.6-.6v-.9A1.5 1.5 0 0015 12v0h-1.5m6 3v-3m0 0V9h3v3h-3zm-18-3v6L3 12l1.5 3V9m6 0h-3v6h3m-3-3h2" stroke="currentColor" stroke-linecap="round" stroke-linejoin="round"/></svg>