<svg stroke-width="1.5" fill="none" xmlns="http://www.w3.org/2000/svg" viewBox="0 0 24 24" width="20" height="20"><path d="M11.5 11l-.458-8.24a.6.6 0 00-.771-.541L6.814 3.256a.6.6 0 00-.311.93L11.5 11zm2.5 1.5l4.57-.83a.6.6 0 00.38-.94l-1.445-2.023a.6.6 0 00-.987.016L14 12.5zm.5 3.5l2.066 4.132a.6.6 0 001.017.091l1.835-2.446a.6.6 0 00-.373-.95L14.5 16zm-3 .5l-3.341 3.341a.6.6 0 00.213.986l2.317.869a.6.6 0 00.811-.562V16.5zm-2-2.5l-4.132-2.066a.6.6 0 00-.868.537v2.643a.6.6 0 00.823.557L9.5 14z" stroke="currentColor" stroke-linecap="round" stroke-linejoin="round"/></svg>