<svg viewBox="0 0 24 24" xmlns="http://www.w3.org/2000/svg" width="20" height="20"><path d="M18.033 16.618l4.28 4.282-1.413 1.414-4.282-4.281A8.963 8.963 0 0111 20a8.998 8.998 0 01-8.065-5H9l-1.304 2.173A6.972 6.972 0 0011 18a6.977 6.977 0 004.875-1.975l.15-.15A6.977 6.977 0 0018 11c0-.695-.101-1.366-.29-2h2.067c.146.643.223 1.313.223 2a8.963 8.963 0 01-1.967 5.618zM19.065 7H13l1.304-2.173A6.972 6.972 0 0011 4a6.999 6.999 0 00-6.71 9H2.223A9.038 9.038 0 012 11c0-4.973 4.027-9 9-9a8.997 8.997 0 018.065 5z"/></svg>