<svg viewBox="0 0 24 24" xmlns="http://www.w3.org/2000/svg" width="20" height="20"><path d="M8.687 4l2.607-2.607a1 1 0 011.414 0L15.315 4H19a1 1 0 011 1v3.686l2.607 2.607a1 1 0 010 1.414L20 15.314V19a1 1 0 01-1 1h-3.686l-2.607 2.607a1 1 0 01-1.414 0L8.687 20H5.001a1 1 0 01-1-1v-3.686l-2.607-2.607a1 1 0 010-1.414l2.607-2.607V5a1 1 0 011-1h3.686zM6.001 6v3.515L3.516 12 6 14.485V18h3.515L12 20.485 14.486 18h3.515v-3.515L20.486 12l-2.485-2.485V6h-3.515l-2.485-2.485L9.516 6H6zm6 10a4 4 0 110-8 4 4 0 010 8zm0-2a2 2 0 100-4 2 2 0 000 4z"/></svg>