<svg fill="none" xmlns="http://www.w3.org/2000/svg" viewBox="0 0 24 24" width="20" height="20"><path d="M6.75 2.994v2.25m10.5-2.25v2.25m-14.252 13.5V7.491a2.25 2.25 0 012.25-2.25h13.5a2.25 2.25 0 012.25 2.25v11.251m-18 0a2.25 2.25 0 002.25 2.25h13.5a2.25 2.25 0 002.25-2.25m-18 0v-7.5a2.25 2.25 0 012.25-2.25h13.5a2.25 2.25 0 012.25 2.25v7.5m-6.75-6h2.25m-9 2.25h4.5m.002-2.25h.005v.006H12v-.006zm-.001 4.5h.006v.006h-.006v-.005zm-2.25.001h.005v.006H9.75v-.006zm-2.25 0h.005v.005h-.006v-.005zm6.75-2.247h.005v.005h-.005v-.005zm0 2.247h.006v.006h-.006v-.006zm2.25-2.248h.006V15H16.5v-.005z" stroke="#000" stroke-width="1.5" stroke-linecap="round" stroke-linejoin="round"/></svg>