<svg xmlns="http://www.w3.org/2000/svg" fill="currentColor" viewBox="0 0 24 24" width="20" height="20"><path d="M10 12H5a2 2 0 00-2 2v5a2 2 0 002 2h5a2 2 0 002-2v-5a2 2 0 00-2-2zM4 8a1 1 0 01.993.883L5 9.01a1 1 0 01-1.993.117L3 9a1 1 0 011-1zM4 3a1 1 0 01.993.883L5 4.01a1 1 0 01-1.993.117L3 4a1 1 0 011-1zM9 3a1 1 0 01.993.883L10 4.01a1 1 0 01-1.993.117L8 4a1 1 0 011-1zM15 3a1 1 0 01.993.883L16 4.01a1 1 0 01-1.993.117L14 4a1 1 0 011-1zM15 19a1 1 0 01.993.883l.007.127a1 1 0 01-1.993.117L14 20a1 1 0 011-1zM20 3a1 1 0 01.993.883L21 4.01a1 1 0 01-1.993.117L19 4a1 1 0 011-1zM20 8a1 1 0 01.993.883L21 9.01a1 1 0 01-1.993.117L19 9a1 1 0 011-1zM20 14a1 1 0 01.993.883l.007.127a1 1 0 01-1.993.117L19 15a1 1 0 011-1zM20 19a1 1 0 01.993.883l.007.127a1 1 0 01-1.993.117L19 20a1 1 0 011-1z"/></svg>