<svg fill="none" xmlns="http://www.w3.org/2000/svg" viewBox="0 0 15 16" width="20" height="20"><path fill-rule="evenodd" clip-rule="evenodd" d="M2.962 1.409C4.069.516 5.596 0 7.5 0c1.904 0 3.431.516 4.538 1.409 1.108.893 1.759 2.136 1.957 3.518.376 2.468-.155 4.806-1.583 6.857-.682.995-1.587 1.98-2.648 2.64l-.007.005c-1.454.872-3.06.872-4.514 0l-.007-.005c-1.06-.66-1.966-1.644-2.647-2.64C1.154 9.736.623 7.395 1.005 4.927c.198-1.381.849-2.624 1.957-3.517zM6.707 8L4.5 5.793l-.707.707L6 8.707 6.707 8zM6.7 11.042l-.458-.2-.4.916.458.2c.025.011.074.038.16.091l.088.055.186.115c.099.059.213.124.33.175.105.047.263.106.436.106s.331-.059.437-.106c.116-.05.23-.116.329-.175a12.506 12.506 0 00.274-.17 1.6 1.6 0 01.16-.09l.458-.2-.4-.917-.458.2a2.432 2.432 0 00-.284.155l-.109.068a9.59 9.59 0 01-.156.096 2.093 2.093 0 01-.251.132 2.093 2.093 0 01-.251-.132 9.516 9.516 0 01-.265-.164 2.432 2.432 0 00-.284-.155zM11.207 6.5L9 8.707 8.293 8 10.5 5.793l.707.707z" fill="#000"/></svg>