<svg fill="none" xmlns="http://www.w3.org/2000/svg" viewBox="0 0 15 16" width="20" height="20"><path fill-rule="evenodd" clip-rule="evenodd" d="M12.682 1.955A2.651 2.651 0 0010 4.636V11H9v-1H3v3H2V4.727a3.65 3.65 0 013.682-3.682v1A2.651 2.651 0 003 4.727V5h6v-.364A3.65 3.65 0 0112.682.955v1zM9 6H3v3h6V6zm-1.56 8.442c-.895.504-1.877 1.058-3.485 1.058-1.483 0-2.614-.762-3.33-1.568l.75-.664c.584.66 1.462 1.232 2.58 1.232 1.339 0 2.128-.442 3.004-.935l.01-.007c.895-.504 1.877-1.058 3.485-1.058 1.531 0 2.884.82 3.852 1.572l-.612.79c-.923-.716-2.052-1.362-3.24-1.362-1.339 0-2.128.442-3.004.935l-.01.007z" fill="#000"/></svg>