<svg xmlns="http://www.w3.org/2000/svg" viewBox="0 0 256 256" width="20" height="20"><path fill="none" d="M0 0h256v256H0z"/><ellipse cx="96" cy="84" rx="80" ry="36" fill="none" stroke="#000" stroke-linecap="round" stroke-linejoin="round" stroke-width="12"/><path d="M16 84v40c0 19.9 35.8 36 80 36s80-16.1 80-36V84M64 117v40" fill="none" stroke="#000" stroke-linecap="round" stroke-linejoin="round" stroke-width="12"/><path d="M176 96.7c36.5 3.4 64 17.9 64 35.3 0 19.9-35.8 36-80 36-19.6 0-37.6-3.2-51.5-8.4" fill="none" stroke="#000" stroke-linecap="round" stroke-linejoin="round" stroke-width="12"/><path d="M80 159.3V172c0 19.9 35.8 36 80 36s80-16.1 80-36v-40m-48 33v40m-64-88v88" fill="none" stroke="#000" stroke-linecap="round" stroke-linejoin="round" stroke-width="12"/></svg>