<svg xmlns="http://www.w3.org/2000/svg" viewBox="0 0 256 256" width="20" height="20"><path fill="none" d="M0 0h256v256H0z"/><path d="M120 208H40a8 8 0 01-8-8V64a8 8 0 018-8h53.3a8.1 8.1 0 014.8 1.6l27.8 20.8a8.1 8.1 0 004.8 1.6H216a8 8 0 018 8v32" fill="none" stroke="#000" stroke-linecap="round" stroke-linejoin="round" stroke-width="12"/><path fill="none" stroke="#000" stroke-linecap="round" stroke-linejoin="round" stroke-width="12" d="M188 198.5l29.7 17.5-8.1-32.6 26.4-21.8-34.7-2.7L188 128l-13.3 30.9-34.7 2.7 26.4 21.8-8.1 32.6 29.7-17.5z"/></svg>