<svg xmlns="http://www.w3.org/2000/svg" viewBox="0 0 256 256" width="20" height="20"><path fill="none" d="M0 0h256v256H0z"/><path d="M32 208V64a8 8 0 018-8h53.3a8.1 8.1 0 014.8 1.6l27.8 20.8a8.1 8.1 0 004.8 1.6H200a8 8 0 018 8v24" fill="none" stroke="#000" stroke-linecap="round" stroke-linejoin="round" stroke-width="12"/><path d="M32 208l30-75a7.9 7.9 0 017.4-5h48.2a8.4 8.4 0 004.4-1.3l20-13.4a8.4 8.4 0 014.4-1.3h82.5a8 8 0 017.6 10.5L208 208z" fill="none" stroke="#000" stroke-linecap="round" stroke-linejoin="round" stroke-width="12"/></svg>