<svg xmlns="http://www.w3.org/2000/svg" viewBox="0 0 256 256" width="20" height="20"><path fill="none" d="M0 0h256v256H0z"/><circle cx="212" cy="108" r="20" fill="none" stroke="#000" stroke-linecap="round" stroke-linejoin="round" stroke-width="12"/><circle cx="44" cy="108" r="20" fill="none" stroke="#000" stroke-linecap="round" stroke-linejoin="round" stroke-width="12"/><circle cx="92" cy="60" r="20" fill="none" stroke="#000" stroke-linecap="round" stroke-linejoin="round" stroke-width="12"/><circle cx="164" cy="60" r="20" fill="none" stroke="#000" stroke-linecap="round" stroke-linejoin="round" stroke-width="12"/><path d="M183.2 155.9a43.6 43.6 0 01-20.6-26h0a36 36 0 00-69.2 0h0a43.6 43.6 0 01-20.6 26A32 32 0 0088 216a32.4 32.4 0 0012.5-2.5 71.8 71.8 0 0155 0A32.4 32.4 0 00168 216a32 32 0 0015.2-60.1z" fill="none" stroke="#000" stroke-linecap="round" stroke-linejoin="round" stroke-width="12"/></svg>