<svg fill="none" xmlns="http://www.w3.org/2000/svg" viewBox="0 0 24 24" width="20" height="20"><path fill-rule="evenodd" clip-rule="evenodd" d="M16.5 3.75a1.5 1.5 0 011.5 1.5v13.5a1.5 1.5 0 01-1.5 1.5h-6a1.5 1.5 0 01-1.5-1.5V15a.75.75 0 00-1.5 0v3.75a3 3 0 003 3h6a3 3 0 003-3V5.25a3 3 0 00-3-3h-6a3 3 0 00-3 3V9A.75.75 0 109 9V5.25a1.5 1.5 0 011.5-1.5h6zM5.78 8.47a.75.75 0 00-1.06 0l-3 3a.75.75 0 000 1.06l3 3a.75.75 0 001.06-1.06l-1.72-1.72H15a.75.75 0 000-1.5H4.06l1.72-1.72a.75.75 0 000-1.06z" fill="#0F172A"/></svg>