<svg fill="none" xmlns="http://www.w3.org/2000/svg" viewBox="0 0 24 24" width="20" height="20"><path d="M12 11.993a.75.75 0 00-.75.75v.006c0 .414.336.75.75.75h.006a.75.75 0 00.75-.75v-.006a.75.75 0 00-.75-.75H12zm0 4.501a.75.75 0 00-.75.75v.005c0 .414.335.75.75.75h.005a.75.75 0 00.75-.75v-.005a.75.75 0 00-.75-.75H12zm-3.001.75a.75.75 0 01.75-.75h.006a.75.75 0 01.75.75v.006a.75.75 0 01-.75.75h-.006a.75.75 0 01-.75-.75v-.006zm-1.5-.75a.75.75 0 00-.75.75v.005c0 .414.336.75.75.75h.005a.75.75 0 00.75-.75v-.005a.75.75 0 00-.75-.75H7.5zm6-1.497a.75.75 0 01.75-.75h.006a.75.75 0 01.75.75v.005a.75.75 0 01-.75.75h-.006a.75.75 0 01-.75-.75v-.005zm.751 1.497a.75.75 0 00-.75.75v.006c0 .414.335.75.75.75h.005a.75.75 0 00.75-.75v-.006a.75.75 0 00-.75-.75h-.005zm1.5-1.499a.75.75 0 01.75-.75h.005a.75.75 0 01.75.75v.006a.75.75 0 01-.75.75H16.5a.75.75 0 01-.75-.75v-.006zm-2.252-2.252a.75.75 0 01.75-.75h2.25a.75.75 0 110 1.5h-2.25a.75.75 0 01-.75-.75zm-6.75 2.25a.75.75 0 01.75-.75h4.5a.75.75 0 010 1.5h-4.5a.75.75 0 01-.75-.75z" fill="#000"/><path fill-rule="evenodd" clip-rule="evenodd" d="M18 2.993a.75.75 0 00-1.5 0v1.5h-9V2.994a.75.75 0 10-1.5 0v1.497h-.752a3 3 0 00-3 3v11.252a3 3 0 003 3h13.5a3 3 0 003-3V7.492a3 3 0 00-3-3H18V2.993zM3.748 18.743v-7.5a1.5 1.5 0 011.5-1.5h13.5a1.5 1.5 0 011.5 1.5v7.5a1.5 1.5 0 01-1.5 1.5h-13.5a1.5 1.5 0 01-1.5-1.5z" fill="#000"/></svg>