<svg fill="none" xmlns="http://www.w3.org/2000/svg" viewBox="0 0 24 24" width="20" height="20"><path fill-rule="evenodd" clip-rule="evenodd" d="M3.75 3.375c0-1.036.84-1.875 1.875-1.875H9a3.75 3.75 0 013.75 3.75v1.875c0 1.036.84 1.875 1.875 1.875H16.5a3.75 3.75 0 013.75 3.75v7.875c0 1.035-.84 1.875-1.875 1.875H5.625a1.875 1.875 0 01-1.875-1.875V3.375zm10.5 1.875a5.23 5.23 0 00-1.279-3.434 9.768 9.768 0 016.963 6.963A5.23 5.23 0 0016.5 7.5h-1.875a.375.375 0 01-.375-.375V5.25zm-3.75 5.56c0-1.336-1.616-2.005-2.56-1.06l-.22.22a.75.75 0 001.06 1.06l.22-.22v1.94h-.75a.75.75 0 000 1.5H9v3c0 .671.307 1.453 1.068 1.815a4.5 4.5 0 005.993-2.123c.233-.487.14-1-.136-1.37A1.459 1.459 0 0014.757 15h-.507a.75.75 0 000 1.5h.349a2.999 2.999 0 01-3.887 1.21c-.091-.043-.212-.186-.212-.46v-3h5.25a.75.75 0 100-1.5H10.5v-1.94z" fill="#000"/></svg>