<svg fill="none" xmlns="http://www.w3.org/2000/svg" viewBox="0 0 24 24" width="20" height="20"><path fill-rule="evenodd" clip-rule="evenodd" d="M7.491 5.992a.75.75 0 01.75-.75h12a.75.75 0 110 1.5h-12a.75.75 0 01-.75-.75zm-.001 6.003a.75.75 0 01.75-.75h12a.75.75 0 010 1.5h-12a.75.75 0 01-.75-.75zm.001 5.999a.75.75 0 01.75-.75h12a.75.75 0 110 1.5h-12a.75.75 0 01-.75-.75zM2.24 3.745a.75.75 0 01.75-.75h1.125a.75.75 0 01.75.75v3h.375a.75.75 0 010 1.5H2.99a.75.75 0 010-1.5h.375v-2.25H2.99a.75.75 0 01-.75-.75zm.55 6.857a.75.75 0 010-1.06 1.875 1.875 0 112.652 2.651l-.55.55h.35a.75.75 0 010 1.5h-2.16a.75.75 0 01-.53-1.281l1.83-1.83a.375.375 0 00-.53-.53.75.75 0 01-1.062 0zm-.55 5.143a.75.75 0 01.75-.75h1.125a1.875 1.875 0 011.501 2.999 1.875 1.875 0 01-1.501 3H2.99a.75.75 0 010-1.501h1.125a.375.375 0 00.036-.748H3.74a.75.75 0 01-.75-.75v-.002a.75.75 0 01.75-.75h.411a.375.375 0 00-.036-.748H2.99a.75.75 0 01-.75-.75z" fill="#000"/></svg>