<svg xmlns="http://www.w3.org/2000/svg" fill="none" viewBox="0 0 24 24" width="20" height="20"><path fill="currentColor" d="M8.5 10.5l-.6-.8a1 1 0 00.153 1.694L8.5 10.5zm4 2l.99.141a1 1 0 00-.543-1.035l-.447.894zm-1.49 3.359a1 1 0 101.98.282l-1.98-.282zM12.5 7.5l.707-.707A1 1 0 0011.9 6.7l.6.8zM15 10l-.707.707A1 1 0 0015 11v-1zm2 1a1 1 0 100-2v2zm-9 5a2 2 0 01-2 2v2a4 4 0 004-4H8zm-2 2a2 2 0 01-2-2H2a4 4 0 004 4v-2zm-2-2a2 2 0 012-2v-2a4 4 0 00-4 4h2zm2-2a2 2 0 012 2h2a4 4 0 00-4-4v2zm2.053-2.606l4 2 .894-1.788-4-2-.894 1.788zm3.457.965l-.5 3.5 1.98.282.5-3.5-1.98-.282zM9.1 11.3l4-3-1.2-1.6-4 3 1.2 1.6zm2.693-3.093l2.5 2.5 1.414-1.414-2.5-2.5-1.414 1.414zM15 11h2V9h-2v2zm5 5a2 2 0 01-2 2v2a4 4 0 004-4h-2zm-2 2a2 2 0 01-2-2h-2a4 4 0 004 4v-2zm-2-2a2 2 0 012-2v-2a4 4 0 00-4 4h2zm2-2a2 2 0 012 2h2a4 4 0 00-4-4v2zm-3-9v2a2 2 0 002-2h-2zm0 0h-2a2 2 0 002 2V5zm0 0V3a2 2 0 00-2 2h2zm0 0h2a2 2 0 00-2-2v2z"/></svg>