<svg xmlns="http://www.w3.org/2000/svg" fill="none" viewBox="0 0 24 24" width="20" height="20"><path stroke="currentColor" stroke-linecap="round" stroke-linejoin="round" stroke-width="2" d="M9 17v4l3-2 3 2v-4M13.957 4.275l-.323-.444a2.022 2.022 0 00-3.268 0l-.323.444L9.5 4.19A2.021 2.021 0 007.19 6.5l.085.543-.444.323a2.021 2.021 0 000 3.268l.444.323-.085.542A2.021 2.021 0 009.5 13.81l.543-.085.323.444a2.022 2.022 0 003.268 0l.323-.444.542.085a2.021 2.021 0 002.311-2.31l-.085-.543.444-.323a2.022 2.022 0 000-3.268l-.444-.323.085-.542A2.021 2.021 0 0014.5 4.19l-.543.085z"/></svg>