<svg xmlns="http://www.w3.org/2000/svg" fill="none" viewBox="0 0 24 24" width="20" height="20"><path stroke="currentColor" stroke-linecap="round" stroke-linejoin="round" stroke-width="2" d="M4 4l16 16M6.831 7.366a2.021 2.021 0 000 3.268l.444.323-.085.542A2.021 2.021 0 009.5 13.81l.543-.085.323.444a2.022 2.022 0 003.268 0M9 17v4l3-2 3 2v-2.5M8 4.55c.412-.3.94-.448 1.5-.36l.543.085.323-.444a2.022 2.022 0 013.268 0l.323.444.542-.085A2.021 2.021 0 0116.81 6.5l-.085.543.444.323a2.022 2.022 0 010 3.268l-.444.323.085.542c.088.56-.06 1.089-.36 1.501"/></svg>