<svg xmlns="http://www.w3.org/2000/svg" fill="none" viewBox="0 0 24 24" width="20" height="20"><path stroke="currentColor" stroke-linejoin="round" stroke-width="2" d="M9.882 15C13.261 15 16 12.538 16 9.5S13.261 4 9.882 4C6.504 4 3.765 6.462 3.765 9.5c0 .818.198 1.594.554 2.292L3 15l3.824-.736A6.62 6.62 0 009.882 15z"/><path stroke="currentColor" stroke-linecap="round" stroke-linejoin="round" stroke-width="2" d="M10.804 18.124a6.593 6.593 0 003.314.876 6.623 6.623 0 003.059-.736L21 19l-1.32-3.208a5.02 5.02 0 00.555-2.292c0-1.245-.46-2.393-1.235-3.315-.749-.89-1.792-1.569-3-1.92"/><circle r="1" fill="currentColor" transform="matrix(-1 0 0 1 13 9.5)"/><circle r="1" fill="currentColor" transform="matrix(-1 0 0 1 10 9.5)"/><circle r="1" fill="currentColor" transform="matrix(-1 0 0 1 7 9.5)"/></svg>