<svg xmlns="http://www.w3.org/2000/svg" fill="none" viewBox="0 0 24 24" width="20" height="20"><path stroke="currentColor" stroke-linejoin="round" stroke-width="2" d="M15 12a3 3 0 11-6 0 3 3 0 016 0z"/><path stroke="currentColor" stroke-linejoin="round" stroke-width="2" d="M10.47 4.32c.602-1.306 2.458-1.306 3.06 0l.218.473a1.684 1.684 0 002.112.875l.49-.18c1.348-.498 2.66.814 2.162 2.163l-.18.489a1.684 1.684 0 00.875 2.112l.474.218c1.305.602 1.305 2.458 0 3.06l-.474.218a1.684 1.684 0 00-.875 2.112l.18.49c.498 1.348-.814 2.66-2.163 2.162l-.489-.18a1.684 1.684 0 00-2.112.875l-.218.473c-.602 1.306-2.458 1.306-3.06 0l-.218-.473a1.684 1.684 0 00-2.112-.875l-.49.18c-1.348.498-2.66-.814-2.163-2.163l.181-.489a1.684 1.684 0 00-.875-2.112l-.474-.218c-1.305-.602-1.305-2.458 0-3.06l.474-.218a1.684 1.684 0 00.875-2.112l-.18-.49c-.498-1.348.814-2.66 2.163-2.163l.489.181a1.684 1.684 0 002.112-.875l.218-.474z"/></svg>