<svg xmlns="http://www.w3.org/2000/svg" viewBox="0 0 256 256" width="20" height="20"><path fill="none" d="M0 0h256v256H0z"/><path d="M92 60h72a48 48 0 0148 48v112a8 8 0 01-8 8H52a8 8 0 01-8-8V108a48 48 0 0148-48z" fill="none" stroke="#000" stroke-linecap="round" stroke-linejoin="round" stroke-width="24"/><path d="M84 228v-76a16 16 0 0116-16h56a16 16 0 0116 16v76M96 60V36a16 16 0 0116-16h32a16 16 0 0116 16v24m-52 40h40m-64 72h88m-32 0v16" fill="none" stroke="#000" stroke-linecap="round" stroke-linejoin="round" stroke-width="24"/></svg>