<svg xmlns="http://www.w3.org/2000/svg" viewBox="0 0 256 256" width="20" height="20"><path fill="none" d="M0 0h256v256H0z"/><path fill="none" stroke="#000" stroke-linecap="round" stroke-linejoin="round" stroke-width="24" d="M48 40l160 176M96 192v8a32 32 0 0064 0v-8"/><path d="M186.2 192H49a8 8 0 01-6.9-12c6.6-11.4 14.1-32.2 14.1-68v-8a72.4 72.4 0 0112.7-41M100 37.7a71.1 71.1 0 0128.5-5.7c39.6.3 71.3 33.2 71.3 72.9v7.1a187.1 187.1 0 003.8 39.7" fill="none" stroke="#000" stroke-linecap="round" stroke-linejoin="round" stroke-width="24"/></svg>