<svg xmlns="http://www.w3.org/2000/svg" viewBox="0 0 256 256" width="20" height="20"><path fill="none" d="M0 0h256v256H0z"/><path d="M179.8 115.8l4.9 4.9a16.1 16.1 0 010 22.6l-7 7a8 8 0 01-11.4 0l-60.6-60.6a8 8 0 010-11.4l7-7a16.1 16.1 0 0122.6 0l4.9 4.9 27.6-27.6c10.8-10.8 28.4-11.4 39.4-.9a28 28 0 01.6 40.1z" fill="none" stroke="#000" stroke-linecap="round" stroke-linejoin="round" stroke-width="24"/><path d="M158.6 142.6l-56 56a31.7 31.7 0 01-30.9 8.3l-23.4 10.2a8 8 0 01-8.8-1.6h0a5.7 5.7 0 01-1.2-6.4l10.8-24.8a31.7 31.7 0 018.3-30.9l56-56M52.3 160h89" fill="none" stroke="#000" stroke-linecap="round" stroke-linejoin="round" stroke-width="24"/></svg>