<svg xmlns="http://www.w3.org/2000/svg" viewBox="0 0 256 256" width="20" height="20"><path fill="none" d="M0 0h256v256H0z"/><path d="M132 180l-31 31a24 24 0 01-34 0l-22-22a24 24 0 010-34l31-31m-20 76l-32 32M232 24l-32 32m-60 92l-20 20" fill="none" stroke="#000" stroke-linecap="round" stroke-linejoin="round" stroke-width="24"/><path fill="#231f20" d="M140 148l-20 20"/><path fill="none" stroke="#000" stroke-linecap="round" stroke-linejoin="round" stroke-width="24" d="M108 116l-20 20"/><path fill="#231f20" d="M108 116l-20 20"/><path d="M180 132l31-31a24 24 0 000-34l-22-22a24 24 0 00-34 0l-31 31m-8-8l72 72M68 116l72 72" fill="none" stroke="#000" stroke-linecap="round" stroke-linejoin="round" stroke-width="24"/></svg>