<svg xmlns="http://www.w3.org/2000/svg" viewBox="0 0 256 256" width="20" height="20"><path fill="none" d="M0 0h256v256H0z"/><path fill="none" stroke="#000" stroke-linecap="round" stroke-linejoin="round" stroke-width="24" d="M128 24v165.4m92.2-72.8l8.7-7.3c5.9-4.9 2.9-14.8-4.8-15.3l-11.5-.7M173 216.5l9.8 6.2c6.5 4.1 14.5-2 12.6-9.5l-2.8-10.9M182 160.5l-1.2-4.7a8.7 8.7 0 012.9-8.8l3.4-2.9m-17.5-53.6l-4.5-.3a8.3 8.3 0 01-7.3-5.4L152.7 72l-16.9-42.6a8.3 8.3 0 00-15.6 0l-22 55.4a8.3 8.3 0 01-7.3 5.4l-59 3.8c-7.7.5-10.7 10.4-4.8 15.3L72.3 147a8.7 8.7 0 012.9 8.8L61.7 209c-2.3 9 7.3 16.3 15 11.4l46.9-29.7a8.2 8.2 0 018.8 0l4.3 2.7"/></svg>