<svg xmlns="http://www.w3.org/2000/svg" fill="none" stroke="currentColor" stroke-width="2" stroke-linecap="round" stroke-linejoin="round" viewBox="0 0 24 24" width="20" height="20"><path d="M17 10l-2-6m-8 6l2-6m1.5 16H7.244a3 3 0 01-2.965-2.544l-1.255-7.152A2 2 0 015.001 8H19a2 2 0 011.977 2.304l-.143.817m-8.232.971a2 2 0 00-2.233 3.066"/><path d="M18 22l3.35-3.284a2.143 2.143 0 00.005-3.071 2.242 2.242 0 00-3.129-.006l-.224.22-.223-.22a2.242 2.242 0 00-3.128-.006 2.143 2.143 0 00-.006 3.071L18 22z"/></svg>