<svg xmlns="http://www.w3.org/2000/svg" fill="none" stroke="currentColor" stroke-width="2" stroke-linecap="round" stroke-linejoin="round" viewBox="0 0 24 24" width="20" height="20"><path d="M9.65 6.956a5.39 5.39 0 007.494 7.495M3 12a9 9 0 1018 0 9 9 0 10-18 0m14.7.137A5.738 5.738 0 1111.963 6.4"/><path d="M17.7 12.338v-1.175c0-.47.171-.92.476-1.253a1.56 1.56 0 011.149-.52c.827 0 1.523.676 1.62 1.573.037.344.055.69.055 1.037m-9.338-5.6h1.175c.47 0 .92-.176 1.253-.49.333-.314.52-.74.52-1.184 0-.852-.676-1.57-1.573-1.67A9.496 9.496 0 0012 3"/></svg>