<svg xmlns="http://www.w3.org/2000/svg" fill="none" stroke="currentColor" stroke-width="2" stroke-linecap="round" stroke-linejoin="round" viewBox="0 0 24 24" width="20" height="20"><path d="M11.5 20H5a2 2 0 01-2-2V9a2 2 0 012-2h1a2 2 0 002-2 1 1 0 011-1h6a1 1 0 011 1 2 2 0 002 2h1a2 2 0 012 2v3.5m-6.185-.54a3.001 3.001 0 10-3.398 3.983"/><path d="M18.62 22c-2 0-3.62-1.58-3.62-3.53 0-1.727 1.273-3.165 2.954-3.47a3.4 3.4 0 00-.24 1.264c0 1.95 1.621 3.53 3.62 3.53q.342 0 .666-.06C21.479 21.06 20.162 22 18.62 22"/></svg>