<svg xmlns="http://www.w3.org/2000/svg" fill="none" stroke="currentColor" stroke-width="2" stroke-linecap="round" stroke-linejoin="round" viewBox="0 0 24 24" width="20" height="20"><path d="M4 3h2a1 1 0 011 1v2a1 1 0 01-1 1H4a1 1 0 01-1-1V4a1 1 0 011-1zm14 0h2a1 1 0 011 1v2a1 1 0 01-1 1h-2a1 1 0 01-1-1V4a1 1 0 011-1zm-7 0h2a1 1 0 011 1v2a1 1 0 01-1 1h-2a1 1 0 01-1-1V4a1 1 0 011-1zm-7 7h2a1 1 0 011 1v2a1 1 0 01-1 1H4a1 1 0 01-1-1v-2a1 1 0 011-1zm14 0h2a1 1 0 011 1v2a1 1 0 01-1 1h-2a1 1 0 01-1-1v-2a1 1 0 011-1zm-7 0h2a1 1 0 011 1v2a1 1 0 01-1 1h-2a1 1 0 01-1-1v-2a1 1 0 011-1zm0 7h2a1 1 0 011 1v2a1 1 0 01-1 1h-2a1 1 0 01-1-1v-2a1 1 0 011-1z"/></svg>