<svg xmlns="http://www.w3.org/2000/svg" fill="none" stroke="currentColor" stroke-width="2" stroke-linecap="round" stroke-linejoin="round" viewBox="0 0 24 24" width="20" height="20"><path d="M18.421 11.56a6.702 6.702 0 00-.357-.683l-4.89-7.26c-.42-.625-1.287-.803-1.936-.397a1.376 1.376 0 00-.41.397l-4.893 7.26C4.24 13.715 4.9 17.318 7.502 19.423a7.144 7.144 0 004.518 1.58M17.001 19a2 2 0 104 0 2 2 0 10-4 0m2-3.5V17m0 4v1.5m3.031-5.25l-1.299.75m-3.463 2l-1.3.75m0-3.5l1.3.75m3.463 2l1.3.75"/></svg>