<svg xmlns="http://www.w3.org/2000/svg" fill="none" stroke="currentColor" stroke-width="2" stroke-linecap="round" stroke-linejoin="round" viewBox="0 0 24 24" width="20" height="20"><path d="M4.072 20.3a2.999 2.999 0 003.856 0 3.002 3.002 0 00.67-3.798l-2.095-3.227a.6.6 0 00-1.005 0L3.4 16.502a3.003 3.003 0 00.671 3.798zm12 0a2.999 2.999 0 003.856 0 3.002 3.002 0 00.67-3.798l-2.095-3.227a.6.6 0 00-1.005 0L15.4 16.502a3.003 3.003 0 00.671 3.798zm-6-10a2.999 2.999 0 003.856 0 3.002 3.002 0 00.67-3.798l-2.095-3.227a.6.6 0 00-1.005 0L9.4 6.502a3.003 3.003 0 00.671 3.798z"/></svg>