<svg xmlns="http://www.w3.org/2000/svg" fill="none" stroke="currentColor" stroke-width="2" stroke-linecap="round" stroke-linejoin="round" viewBox="0 0 24 24" width="20" height="20"><path d="M11.042 20.32L9 21v-8.5L4.52 7.572A2 2 0 014 6.227V4h16v2.172a2 2 0 01-.586 1.414L15 12m2.8 8.817l-2.172 1.138a.392.392 0 01-.568-.41l.415-2.411-1.757-1.707a.389.389 0 01.217-.665l2.428-.352 1.086-2.193a.392.392 0 01.702 0l1.086 2.193 2.428.352a.39.39 0 01.217.665l-1.757 1.707.414 2.41a.39.39 0 01-.567.411L17.8 20.817z"/></svg>