<svg xmlns="http://www.w3.org/2000/svg" fill="none" stroke="currentColor" stroke-width="2" stroke-linecap="round" stroke-linejoin="round" viewBox="0 0 24 24" width="20" height="20"><path d="M2 20a2.4 2.4 0 002 1 2.4 2.4 0 002-1 2.4 2.4 0 012-1 2.4 2.4 0 012 1 2.4 2.4 0 002 1 2.4 2.4 0 002-1 2.4 2.4 0 012-1 2.4 2.4 0 012 1 2.4 2.4 0 002 1 2.4 2.4 0 002-1M2 16a2.4 2.4 0 002 1 2.4 2.4 0 002-1 2.4 2.4 0 012-1 2.4 2.4 0 012 1 2.4 2.4 0 002 1 2.4 2.4 0 002-1 2.4 2.4 0 012-1 2.4 2.4 0 012 1 2.4 2.4 0 002 1 2.4 2.4 0 002-1m-7-4V4.5a1.5 1.5 0 013 0M9 12V4.5a1.5 1.5 0 00-3 0m9 .5H9m0 5h6"/></svg>