<svg xmlns="http://www.w3.org/2000/svg" fill="none" stroke="currentColor" stroke-width="2" stroke-linecap="round" stroke-linejoin="round" viewBox="0 0 24 24" width="20" height="20"><path d="M10 4l2 1 2-1"/><path d="M12 2v6.5l3 1.72m2.928-3.952l.134 2.232 1.866 1.232"/><path d="M20.66 7l-5.629 3.25.01 3.458m4.887.56L18.062 15.5l-.134 2.232"/><path d="M20.66 17l-5.629-3.25-2.99 1.738M14 20l-2-1-2 1"/><path d="M12 22v-6.5l-3-1.72m-2.928 3.952L5.938 15.5l-1.866-1.232"/><path d="M3.34 17l5.629-3.25-.01-3.458m-4.887-.56L5.938 8.5l.134-2.232"/><path d="M3.34 7l5.629 3.25 2.99-1.738"/></svg>