<svg xmlns="http://www.w3.org/2000/svg" fill="none" stroke="currentColor" stroke-width="2" stroke-linecap="round" stroke-linejoin="round" viewBox="0 0 24 24" width="20" height="20"><path d="M3 11a1 1 0 011-1h2a1 1 0 011 1v2a1 1 0 01-1 1H4a1 1 0 01-1-1zm14 0a1 1 0 011-1h2a1 1 0 011 1v2a1 1 0 01-1 1h-2a1 1 0 01-1-1zm-7-7a1 1 0 011-1h2a1 1 0 011 1v2a1 1 0 01-1 1h-2a1 1 0 01-1-1zm0 14a1 1 0 011-1h2a1 1 0 011 1v2a1 1 0 01-1 1h-2a1 1 0 01-1-1zm9-8a5 5 0 00-5-5m-9 9a5 5 0 005 5m-5-9a5 5 0 015-5"/></svg>