<svg xmlns="http://www.w3.org/2000/svg" fill="none" stroke="currentColor" stroke-width="2" stroke-linecap="round" stroke-linejoin="round" viewBox="0 0 24 24" width="20" height="20"><path d="M3 6l1.721 10.329A2 2 0 006.694 18h10.612c.208 0 .41-.032.6-.092m1.521-2.472L21 6"/><path d="M3.486 8.965c.168.02.34.033.514.035.79.009 1.539-.178 2-.5.461-.32 1.21-.507 2-.5m4.92.919c.428-.083.805-.227 1.08-.418.461-.322 1.21-.508 2-.5.79-.008 1.539.178 2 .5.461.32 1.21.508 2 .5.17 0 .339-.015.503-.035M3 3l18 18"/></svg>