<svg xmlns="http://www.w3.org/2000/svg" fill="none" stroke="currentColor" stroke-width="2" stroke-linecap="round" stroke-linejoin="round" viewBox="0 0 24 24" width="20" height="20"><path d="M10 15h.01M3 6l1.721 10.329A2 2 0 006.694 18h10.612a2 2 0 001.973-1.671L21 6m-7 9h.01m.99-3h.01M12 12h.01M9 12h.01"/><path d="M3.486 8.965c.168.02.34.033.514.035.79.009 1.539-.178 2-.5.461-.32 1.21-.507 2-.5.79-.007 1.539.18 2 .5.461.322 1.21.509 2 .5.79.009 1.539-.178 2-.5.461-.32 1.21-.507 2-.5.79-.007 1.539.18 2 .5.461.322 1.21.509 2 .5.17 0 .339-.014.503-.034"/></svg>