<svg xmlns="http://www.w3.org/2000/svg" fill="none" stroke="currentColor" stroke-width="2" stroke-linecap="round" stroke-linejoin="round" viewBox="0 0 24 24" width="20" height="20"><path d="M3 12c.576-.643 1.512-1.017 2.5-1 .988-.017 1.924.357 2.5 1 .576.643 1.512 1.017 2.5 1 .988.017 1.924-.357 2.5-1M3 16c.576-.643 1.512-1.017 2.5-1 .988-.017 1.924.357 2.5 1 .576.643 1.512 1.017 2.5 1 .988.017 1.924-.357 2.5-1M3 8c.576-.643 1.512-1.017 2.5-1 .988-.017 1.924.357 2.5 1 .576.643 1.512 1.017 2.5 1 .988.017 1.924-.357 2.5-1m7-1l-3 5h4l-3 5"/></svg>