<svg xmlns="http://www.w3.org/2000/svg" viewBox="0 0 256 256" width="20" height="20"><path fill="none" d="M0 0h256v256H0z"/><circle cx="128" cy="128" r="96" fill="none" stroke="#000" stroke-linecap="round" stroke-linejoin="round" stroke-width="12"/><path d="M169.2 113a94.7 94.7 0 013.8-15.5M173 158.5a94.7 94.7 0 01-3.8-15.5M86.8 113A94.7 94.7 0 0083 97.5M83 158.5a94.7 94.7 0 003.8-15.5M186.8 70.9a103.8 103.8 0 019.2-10.7M196 195.8a115.6 115.6 0 01-9.2-10.7M60 195.8a115.6 115.6 0 009.2-10.7M69.2 70.9A103.8 103.8 0 0060 60.2" fill="none" stroke="#000" stroke-linecap="round" stroke-linejoin="round" stroke-width="12"/></svg>