<svg xmlns="http://www.w3.org/2000/svg" viewBox="0 0 256 256" width="20" height="20"><path fill="none" d="M0 0h256v256H0z"/><path d="M56.203 112a71.801 71.801 0 11143.602 0h0c0 35.816 7.493 56.599 14.093 67.958A7.999 7.999 0 01207.016 192H48.984a8 8 0 01-6.881-12.044c6.603-11.36 14.1-32.142 14.1-67.956zM96 192v8a32 32 0 0064 0v-8m23.432-168.012a104.466 104.466 0 0137.919 42.116m-186.701 0a104.466 104.466 0 0137.918-42.116" fill="none" stroke="#000" stroke-linecap="round" stroke-linejoin="round" stroke-width="12"/></svg>