<svg xmlns="http://www.w3.org/2000/svg" viewBox="0 0 256 256" width="20" height="20"><path fill="none" d="M0 0h256v256H0z"/><path fill="none" stroke="#000" stroke-linecap="round" stroke-linejoin="round" stroke-width="12" d="M128 88V64m0 0c46.2-16 0-56 0-56s-48 40 0 56zm34 62a34 34 0 01-68 0"/><path d="M94 126a34 34 0 01-33.3 34c-19.1.4-34.7-15.6-34.7-34.7V112a23.9 23.9 0 0124-24h156a23.9 23.9 0 0124 24v13.3c0 19.1-15.6 35.1-34.7 34.7a34 34 0 01-33.3-34" fill="none" stroke="#000" stroke-linecap="round" stroke-linejoin="round" stroke-width="12"/><path d="M216 153.3V208a8 8 0 01-8 8H48a8 8 0 01-8-8v-54.7" fill="none" stroke="#000" stroke-linecap="round" stroke-linejoin="round" stroke-width="12"/></svg>