<svg xmlns="http://www.w3.org/2000/svg" viewBox="0 0 256 256" width="20" height="20"><path fill="none" d="M0 0h256v256H0z"/><path d="M54.46 201.54c-9.203-9.205-3.098-28.528-7.783-39.85C41.82 149.951 24 140.504 24 128c0-12.505 17.82-21.952 22.677-33.69 4.685-11.322-1.42-30.645 7.784-39.85s28.527-3.098 39.85-7.783C106.048 41.82 115.495 24 128 24c12.504 0 21.951 17.82 33.688 22.677 11.323 4.685 30.646-1.42 39.85 7.784s3.1 28.527 7.784 39.85C214.18 106.048 232 115.495 232 128c0 12.504-17.82 21.951-22.677 33.688-4.685 11.323 1.42 30.646-7.784 39.85s-28.527 3.1-39.85 7.784C149.952 214.18 140.505 232 128 232c-12.504 0-21.951-17.82-33.688-22.677-11.323-4.685-30.646 1.42-39.85-7.784z" fill="none" stroke="#000" stroke-linecap="round" stroke-linejoin="round" stroke-width="12"/><path fill="none" stroke="#000" stroke-linecap="round" stroke-linejoin="round" stroke-width="12" d="M172 104l-58.667 56L84 132"/></svg>