<svg xmlns="http://www.w3.org/2000/svg" viewBox="0 0 256 256" width="20" height="20"><path fill="none" d="M0 0h256v256H0z"/><path fill="none" stroke="#000" stroke-linecap="round" stroke-linejoin="round" stroke-width="12" d="M48 40l160 176m-53.093-58.402a40 40 0 01-53.814-59.196"/><path d="M73.994 68.594C33.225 89.239 16 128 16 128s32 71.992 112 71.992a118.024 118.024 0 0053.998-12.594M208.61 169.1C230.41 149.571 240 128 240 128s-32-72.008-112-72.008a125.32 125.32 0 00-20.682 1.684m28.209 31.032a40.024 40.024 0 0132.298 35.529" fill="none" stroke="#000" stroke-linecap="round" stroke-linejoin="round" stroke-width="12"/></svg>