<svg xmlns="http://www.w3.org/2000/svg" viewBox="0 0 256 256" width="20" height="20"><path fill="none" d="M0 0h256v256H0z"/><path fill="none" stroke="#000" stroke-linecap="round" stroke-linejoin="round" stroke-width="12" d="M84 168H48M66 216v-48M112 212a25.2 25.2 0 0015 5c9 0 17-3 17-13 0-16-32-9-32-24 0-8 6-13 15-13a25.2 25.2 0 0115 5"/><path d="M184 224h16a8 8 0 008-8V88l-56-56H56a8 8 0 00-8 8v88" fill="none" stroke="#000" stroke-linecap="round" stroke-linejoin="round" stroke-width="12"/><path fill="none" stroke="#000" stroke-linecap="round" stroke-linejoin="round" stroke-width="12" d="M152 32v56h56"/></svg>