<svg xmlns="http://www.w3.org/2000/svg" viewBox="0 0 256 256" width="20" height="20"><path fill="none" d="M0 0h256v256H0z"/><path d="M44 200h16a16 16 0 000-32H44v48M108 216v-48l36 48v-48M204 194h12v11.8a21.5 21.5 0 01-18 10.2c-12.2 0-22-10.7-22-24s9.8-24 22-24a20.3 20.3 0 0112 3.9M48 128V40a8 8 0 018-8h96l56 56v40" fill="none" stroke="#000" stroke-linecap="round" stroke-linejoin="round" stroke-width="12"/><path fill="none" stroke="#000" stroke-linecap="round" stroke-linejoin="round" stroke-width="12" d="M152 32v56h56"/></svg>