<svg xmlns="http://www.w3.org/2000/svg" viewBox="0 0 256 256" width="20" height="20"><path fill="none" d="M0 0h256v256H0z"/><path d="M216 91.3V208a8 8 0 01-8 8H48a8 8 0 01-8-8V48a8 8 0 018-8h116.7a7.9 7.9 0 015.6 2.3l43.4 43.4a7.9 7.9 0 012.3 5.6z" fill="none" stroke="#000" stroke-linecap="round" stroke-linejoin="round" stroke-width="12"/><path d="M80 216v-64a8 8 0 018-8h80a8 8 0 018 8v64M152 72H96" fill="none" stroke="#000" stroke-linecap="round" stroke-linejoin="round" stroke-width="12"/></svg>