<svg xmlns="http://www.w3.org/2000/svg" viewBox="0 0 256 256" width="20" height="20"><path fill="none" d="M0 0h256v256H0z"/><path d="M128 80h88a8 8 0 018 8v112a8 8 0 01-8 8H40a8.024 8.024 0 01-8-8v-96" fill="none" stroke="#000" stroke-linecap="round" stroke-linejoin="round" stroke-width="12"/><path d="M93.333 104H32V64a8 8 0 018-8h53.333a8 8 0 014.8 1.6L128 80l-29.867 22.4a8 8 0 01-4.8 1.6zM103.997 148h48M127.997 124v48" fill="none" stroke="#000" stroke-linecap="round" stroke-linejoin="round" stroke-width="12"/></svg>