<svg xmlns="http://www.w3.org/2000/svg" viewBox="0 0 256 256" width="20" height="20"><path fill="none" d="M0 0h256v256H0z"/><rect x="32" y="80" width="192" height="48" rx="8" stroke-width="12" stroke="#000" stroke-linecap="round" stroke-linejoin="round" fill="none"/><path d="M208 128v72a8 8 0 01-8 8H56a8 8 0 01-8-8v-72M128 80v128M173.255 68.686C161.94 80 128 80 128 80s0-33.941 11.314-45.255a24 24 0 0133.94 33.941zM82.745 68.686C94.06 80 128 80 128 80s0-33.941-11.314-45.255a24 24 0 00-33.94 33.941z" fill="none" stroke="#000" stroke-linecap="round" stroke-linejoin="round" stroke-width="12"/></svg>