<svg xmlns="http://www.w3.org/2000/svg" viewBox="0 0 256 256" width="20" height="20"><path fill="none" d="M0 0h256v256H0z"/><path d="M84 240a23.9 23.9 0 0024-24v-48m64 72a23.9 23.9 0 01-24-24v-48m4 0h16a23.9 23.9 0 0124 24v8a23.9 23.9 0 0024 24m-112-56H88a23.9 23.9 0 00-24 24v8a23.9 23.9 0 01-24 24" fill="none" stroke="#000" stroke-linecap="round" stroke-linejoin="round" stroke-width="12"/><path d="M111.8 64A52 52 0 0068 40a52 52 0 00-3.5 44.7A49.3 49.3 0 0056 112v8a48 48 0 0048 48h48a48 48 0 0048-48v-8a49.3 49.3 0 00-8.5-27.3A52 52 0 00188 40a52 52 0 00-43.8 24z" fill="none" stroke="#000" stroke-linecap="round" stroke-linejoin="round" stroke-width="12"/></svg>