<svg xmlns="http://www.w3.org/2000/svg" viewBox="0 0 256 256" width="20" height="20"><path fill="none" d="M0 0h256v256H0z"/><path d="M88 68V36a20 20 0 0140 0v68M82.6 163.6a8.2 8.2 0 000 8.8c5.7 8.8 20.8 27.6 45.4 27.6s39.7-18.8 45.4-27.6a8.2 8.2 0 000-8.8c-5.7-8.8-20.8-27.6-45.4-27.6s-39.7 18.8-45.4 27.6zM128 52a20 20 0 0140 0v60" fill="none" stroke="#000" stroke-linecap="round" stroke-linejoin="round" stroke-width="12"/><path d="M168 116v-4a20 20 0 0140 0v40a80 80 0 01-160 0V68a20 20 0 0140 0v44" fill="none" stroke="#000" stroke-linecap="round" stroke-linejoin="round" stroke-width="12"/><circle cx="128" cy="168" r="10"/></svg>