<svg xmlns="http://www.w3.org/2000/svg" viewBox="0 0 256 256" width="20" height="20"><path fill="none" d="M0 0h256v256H0z"/><path d="M94 61.4a20 20 0 0134.6-20l30 51.9" fill="none" stroke="#000" stroke-linecap="round" stroke-linejoin="round" stroke-width="12"/><path d="M67.4 95.2l-16-27.7a20 20 0 0134.6-20l34 58.9" fill="none" stroke="#000" stroke-linecap="round" stroke-linejoin="round" stroke-width="12"/><path d="M154 165.3a39.9 39.9 0 0114.6-54.6l-10-17.4a20 20 0 0134.7-20l20 34.7a80 80 0 01-138.6 80l-42-72.8a20 20 0 0134.7-20l22 38.1M81.1 240A110.3 110.3 0 0148 204M176 31a51.7 51.7 0 0145 26" fill="none" stroke="#000" stroke-linecap="round" stroke-linejoin="round" stroke-width="12"/></svg>