<svg xmlns="http://www.w3.org/2000/svg" viewBox="0 0 256 256" width="20" height="20"><path fill="none" d="M0 0h256v256H0z"/><path d="M220 176v32a8 8 0 01-8 8h-24a8 8 0 01-8-8v-32m-104 0v32a8 8 0 01-8 8H44a8 8 0 01-8-8v-32M16 96h224m-96 32v48m-32-48v48" fill="none" stroke="#000" stroke-linecap="round" stroke-linejoin="round" stroke-width="12"/><path d="M220 176H36V96l7-49.1a8 8 0 017.9-6.9h154.2a8 8 0 017.9 6.9l7 49.1z" fill="none" stroke="#000" stroke-linecap="round" stroke-linejoin="round" stroke-width="12"/><circle cx="184" cy="132" r="10"/><circle cx="72" cy="132" r="10"/></svg>