<svg xmlns="http://www.w3.org/2000/svg" viewBox="0 0 256 256" width="20" height="20"><path fill="none" d="M0 0h256v256H0z"/><path fill="none" stroke="#000" stroke-linecap="round" stroke-linejoin="round" stroke-width="12" d="M88 232h80m-40-32v-56m-32-32l32 32 32-32"/><path d="M78.7 167A79.5 79.5 0 0148 104.5C47.8 61.1 82.7 25 126.1 24a80 80 0 0151.3 142.9A24.2 24.2 0 00168 186v6a8 8 0 01-8 8H96a8 8 0 01-8-8v-6a24.4 24.4 0 00-9.3-19z" fill="none" stroke="#000" stroke-linecap="round" stroke-linejoin="round" stroke-width="12"/></svg>