<svg xmlns="http://www.w3.org/2000/svg" viewBox="0 0 256 256" width="20" height="20"><path fill="none" d="M0 0h256v256H0z"/><path fill="none" stroke="#000" stroke-linecap="round" stroke-linejoin="round" stroke-width="12" d="M88 232h80m-40-32v-56m-32-32l32 32 32-32"/><path d="M78.704 167.011A79.86 79.86 0 0148 104.451c-.24-43.362 34.719-79.408 78.07-80.428a80.003 80.003 0 0151.342 142.897A24.288 24.288 0 00168 185.976V192a8 8 0 01-8 8H96a8 8 0 01-8-8v-6.031a24.1 24.1 0 00-9.296-18.958z" fill="none" stroke="#000" stroke-linecap="round" stroke-linejoin="round" stroke-width="12"/></svg>