<svg xmlns="http://www.w3.org/2000/svg" viewBox="0 0 256 256" width="20" height="20"><path fill="none" d="M0 0h256v256H0z"/><path fill="none" stroke="#000" stroke-linecap="round" stroke-linejoin="round" stroke-width="12" d="M88.002 232h80M78.706 167.011a79.86 79.86 0 01-30.702-62.56c-.24-43.362 34.718-79.408 78.07-80.428a80.003 80.003 0 0151.341 142.897 24.288 24.288 0 00-9.412 19.056V192a8 8 0 01-8 8h-64a8 8 0 01-8-8v-6.031a24.1 24.1 0 00-9.297-18.958zM136.122 56.784a47.923 47.923 0 0139.205 39.156"/></svg>