<svg xmlns="http://www.w3.org/2000/svg" viewBox="0 0 256 256" width="20" height="20"><path fill="none" d="M0 0h256v256H0z"/><path d="M178.77 71.667a46.108 46.108 0 01-14.87 33.705 53.135 53.135 0 01-71.8 0 45.635 45.635 0 010-67.41 53.135 53.135 0 0171.8 0 46.108 46.108 0 0114.87 33.705z" fill="none" stroke="#000" stroke-linecap="round" stroke-linejoin="round" stroke-width="12"/><path d="M188 175.667a54.491 54.491 0 01-17.574 39.833 62.796 62.796 0 01-84.852 0 53.932 53.932 0 010-79.667 62.796 62.796 0 0184.852 0A54.491 54.491 0 01188 175.667z" fill="none" stroke="#000" stroke-linecap="round" stroke-linejoin="round" stroke-width="12"/></svg>