<svg xmlns="http://www.w3.org/2000/svg" viewBox="0 0 256 256" width="20" height="20"><path fill="none" d="M0 0h256v256H0z"/><path d="M155.4 101.3a83.9 83.9 0 00-55.1.1 8 8 0 00-5.2 5.9l-5.8 29.5a8.2 8.2 0 01-4.9 5.9l-47.3 18.9a7.9 7.9 0 01-9.3-2.5 48 48 0 014-63.3 136.1 136.1 0 01192.4 0 48 48 0 014 63.3 7.9 7.9 0 01-9.3 2.5l-47.3-18.9a8.2 8.2 0 01-4.9-5.8l-6.2-29.7a7.9 7.9 0 00-5.1-5.9zM40 200h176" fill="none" stroke="#000" stroke-linecap="round" stroke-linejoin="round" stroke-width="12"/></svg>