<svg xmlns="http://www.w3.org/2000/svg" viewBox="0 0 256 256" width="20" height="20"><path fill="none" d="M0 0h256v256H0z"/><path fill="none" stroke="#000" stroke-linecap="round" stroke-linejoin="round" stroke-width="12" d="M48 40l160 176m-93.005-102.307a83.97 83.97 0 00-14.728 3.683 7.928 7.928 0 00-5.117 5.955l-5.898 29.507a8 8 0 01-4.874 5.86l-47.313 18.925a7.973 7.973 0 01-9.26-2.474 48.009 48.009 0 014.028-63.316A135.45 135.45 0 0183.78 79.357m36.746-7.153a135.66 135.66 0 01103.64 39.63 48.009 48.009 0 014.028 63.315 7.973 7.973 0 01-9.26 2.474l-4.048-1.62"/></svg>