<svg xmlns="http://www.w3.org/2000/svg" viewBox="0 0 256 256" width="20" height="20"><path fill="none" d="M0 0h256v256H0z"/><path d="M35.1 93.3l27.4 116.5a8.1 8.1 0 007.8 6.2h115.4a8.1 8.1 0 007.8-6.2l27.4-116.5a8.1 8.1 0 00-10-9.6L168 96l-37-14.8a7.8 7.8 0 00-6 0L88 96 45.1 83.7a8.1 8.1 0 00-10 9.6zM88 96l16 120M168 96l-16 120" fill="none" stroke="#000" stroke-linecap="round" stroke-linejoin="round" stroke-width="12"/><path d="M216 84a36 36 0 00-52.9-31.8 35.9 35.9 0 00-70.2 0A36 36 0 0040 84" fill="none" stroke="#000" stroke-linecap="round" stroke-linejoin="round" stroke-width="12"/></svg>