<svg xmlns="http://www.w3.org/2000/svg" viewBox="0 0 256 256" width="20" height="20"><path fill="none" d="M0 0h256v256H0z"/><path d="M94.1 184.6c-11.4 33.9-56.6 33.9-56.6 33.9s0-45.2 33.9-56.6m124.5-56.5L128 173.3 82.7 128l67.9-67.9C176.3 34.4 202 34.7 213 36.3a7.8 7.8 0 016.7 6.7c1.6 11 1.9 36.7-23.8 62.4z" fill="none" stroke="#000" stroke-linecap="round" stroke-linejoin="round" stroke-width="12"/><path d="M184.6 116.7v64.6a8 8 0 01-2.4 5.6l-32.3 32.4a8 8 0 01-13.5-4.1l-8.4-41.9m11.3-101.9H74.7a8 8 0 00-5.6 2.4l-32.4 32.3a8 8 0 004.1 13.5l41.9 8.4" fill="none" stroke="#000" stroke-linecap="round" stroke-linejoin="round" stroke-width="12"/></svg>