<svg xmlns="http://www.w3.org/2000/svg" viewBox="0 0 256 256" width="20" height="20"><path fill="none" d="M0 0h256v256H0z"/><path d="M48 139.588V208a8 8 0 008 8h144a8 8 0 008-8v-68.41M54.034 40h147.932a8 8 0 017.692 5.802L224 96H32l14.342-50.198A8 8 0 0154.034 40z" fill="none" stroke="#000" stroke-linecap="round" stroke-linejoin="round" stroke-width="12"/><path d="M96 96v16a32 32 0 01-64 0V96M160 96v16a32 32 0 01-64 0V96M224 96v16a32 32 0 01-64 0V96" fill="none" stroke="#000" stroke-linecap="round" stroke-linejoin="round" stroke-width="12"/></svg>