<svg xmlns="http://www.w3.org/2000/svg" viewBox="0 0 256 256" width="20" height="20"><path fill="none" d="M0 0h256v256H0z"/><path fill="none" stroke="#000" stroke-linecap="round" stroke-linejoin="round" stroke-width="12" d="M76.201 132.201l76-92L216 40l-.201 63.799-92 76M100 156l60-60"/><path d="M82.142 197.456l-29.941 29.941a8 8 0 01-11.314 0l-12.284-12.284a8 8 0 010-11.314l29.941-29.941a8 8 0 000-11.314l-20.887-20.887a8 8 0 010-11.314l12.686-12.686a8 8 0 0111.314 0l76.686 76.686a8 8 0 010 11.314l-12.686 12.686a8 8 0 01-11.314 0l-20.887-20.887a8 8 0 00-11.314 0z" fill="none" stroke="#000" stroke-linecap="round" stroke-linejoin="round" stroke-width="12"/></svg>