<svg xmlns="http://www.w3.org/2000/svg" viewBox="0 0 256 256" width="20" height="20"><path fill="none" d="M0 0h256v256H0z"/><path d="M45.4 177A95.9 95.9 0 1179 210.6h0L45.8 220a7.9 7.9 0 01-9.8-9.8l9.4-33.2z" fill="none" stroke="#000" stroke-linecap="round" stroke-linejoin="round" stroke-width="12"/><path d="M152.1 184A79.9 79.9 0 0172 103.9 28 28 0 01100 76h0a6.8 6.8 0 016 3.5l11.7 20.4a8.1 8.1 0 01-.1 8.1l-9.4 15.7h0a48 48 0 0024.1 24.1h0l15.7-9.4a8.1 8.1 0 018.1-.1l20.4 11.7a6.8 6.8 0 013.5 6h0a28.1 28.1 0 01-27.9 28z" fill="none" stroke="#000" stroke-linecap="round" stroke-linejoin="round" stroke-width="12"/></svg>