<svg xmlns="http://www.w3.org/2000/svg" viewBox="0 0 256 256" width="20" height="20"><path fill="none" d="M0 0h256v256H0z"/><path fill="none" stroke="#000" stroke-linecap="round" stroke-linejoin="round" stroke-width="12" d="M160 128l-48-32v64l48-32z"/><path d="M24 128c0 29.8 3.1 47.2 5.4 56.2a16.1 16.1 0 009.6 10.9c33.5 12.8 89 12.5 89 12.5s55.5.3 89-12.5a16.1 16.1 0 009.6-10.9c2.3-9 5.4-26.4 5.4-56.2s-3.1-47.2-5.4-56.2a16.1 16.1 0 00-9.6-10.9c-33.5-12.8-89-12.5-89-12.5s-55.5-.3-89 12.5a16.1 16.1 0 00-9.6 10.9c-2.3 9-5.4 26.4-5.4 56.2z" fill="none" stroke="#000" stroke-linecap="round" stroke-linejoin="round" stroke-width="12"/></svg>