<svg xmlns="http://www.w3.org/2000/svg" fill="currentColor" viewBox="0 0 24 24" width="20" height="20"><path d="M19 3.005H5a2 2 0 00-2 2v5a1 1 0 001 1h16a1 1 0 001-1v-5a2 2 0 00-2-2zM4 13.995a1 1 0 01.993.883l.007.127a1 1 0 01-1.993.117L3 14.995a1 1 0 011-1zm0 5a1 1 0 01.993.883l.007.127a1 1 0 01-1.993.117L3 19.995a1 1 0 011-1zm5 0a1 1 0 01.993.883l.007.127a1 1 0 01-1.993.117L8 19.995a1 1 0 011-1zm6 0a1 1 0 01.993.883l.007.127a1 1 0 01-1.993.117L14 19.995a1 1 0 011-1zm5 0a1 1 0 01.993.883l.007.127a1 1 0 01-1.993.117L19 19.995a1 1 0 011-1zm0-5a1 1 0 01.993.883l.007.127a1 1 0 01-1.993.117L19 14.995a1 1 0 011-1z"/></svg>