<svg xmlns="http://www.w3.org/2000/svg" fill="currentColor" viewBox="0 0 24 24" width="20" height="20"><path d="M6 2H4a2 2 0 00-2 2v2a2 2 0 002 2h2a2 2 0 002-2V4a2 2 0 00-2-2zm14 0h-2a2 2 0 00-2 2v2a2 2 0 002 2h2a2 2 0 002-2V4a2 2 0 00-2-2zm-7 0h-2a2 2 0 00-2 2v2a2 2 0 002 2h2a2 2 0 002-2V4a2 2 0 00-2-2zM6 9H4a2 2 0 00-2 2v2a2 2 0 002 2h2a2 2 0 002-2v-2a2 2 0 00-2-2zm14 0h-2a2 2 0 00-2 2v2a2 2 0 002 2h2a2 2 0 002-2v-2a2 2 0 00-2-2zm-7 0h-2a2 2 0 00-2 2v2a2 2 0 002 2h2a2 2 0 002-2v-2a2 2 0 00-2-2zm0 7h-2a2 2 0 00-2 2v2a2 2 0 002 2h2a2 2 0 002-2v-2a2 2 0 00-2-2z"/></svg>