<svg xmlns="http://www.w3.org/2000/svg" fill="currentColor" viewBox="0 0 24 24" width="20" height="20"><path d="M9.5 4A1.5 1.5 0 0111 5.5v4A1.5 1.5 0 019.5 11h-4A1.5 1.5 0 014 9.5v-4A1.5 1.5 0 015.5 4zm0 9a1.5 1.5 0 011.5 1.5v4A1.5 1.5 0 019.5 20h-4A1.5 1.5 0 014 18.5v-4A1.5 1.5 0 015.5 13zM17 5a1 1 0 011 1v9.584l1.293-1.291a1 1 0 011.32-.083l.094.083a1 1 0 010 1.414l-3 3a1 1 0 01-.112.097l-.11.071-.114.054-.105.035-.149.03L17 19l-.075-.003-.126-.017-.111-.03-.111-.044-.098-.052-.096-.067-.09-.08-3-3a1 1 0 011.414-1.414L16 15.586V6a1 1 0 011-1"/></svg>