<svg xmlns="http://www.w3.org/2000/svg" viewBox="0 0 512 512" width="20" height="20"><path d="M256 48a208 208 0 100 416 208 208 0 100-416zm256 208a256 256 0 11-512 0 256 256 0 11512 0zm-344 64c-13.3 0-24 10.7-24 24s10.7 24 24 24h8v-48h-8zm40 48h32v-48h-32v48zm96 0v-48h-32v48h32zm32 0h8c13.3 0 24-10.7 24-24s-10.7-24-24-24h-8v48zm-168-80h176c30.9 0 56 25.1 56 56s-25.1 56-56 56H168c-30.9 0-56-25.1-56-56s25.1-56 56-56zm-23.6-80a32 32 0 1164 0 32 32 0 11-64 0zm192-32a32 32 0 110 64 32 32 0 110-64z"/></svg>