<svg xmlns="http://www.w3.org/2000/svg" viewBox="0 0 512 512" width="20" height="20"><path d="M464 256a208 208 0 10-416 0 208 208 0 10416 0zM0 256a256 256 0 11512 0 256 256 0 11-512 0zm349.5 52.4c18.7-4.4 35.9 12 25.5 28.1-24.6 38.1-68.7 63.5-119.1 63.5s-94.5-25.4-119.1-63.5c-10.4-16.1 6.8-32.5 25.5-28.1 28.9 6.8 60.5 10.5 93.6 10.5s64.7-3.7 93.6-10.5zm-216-161.7l89.9 47.9c10.7 5.7 10.7 21.1 0 26.8l-89.9 47.9c-7.9 4.2-17.5-1.5-17.5-10.5 0-2.8 1-5.5 2.8-7.6l36-43.2-36-43.2c-1.8-2.1-2.8-4.8-2.8-7.6 0-9 9.6-14.7 17.5-10.5zM396 157.1c0 2.8-1 5.5-2.8 7.6l-36 43.2 36 43.2c1.8 2.1 2.8 4.8 2.8 7.6 0 9-9.6 14.7-17.5 10.5l-89.9-47.9c-10.7-5.7-10.7-21.1 0-26.8l89.9-47.9c7.9-4.2 17.5 1.5 17.5 10.5z"/></svg>