<svg xmlns="http://www.w3.org/2000/svg" viewBox="0 0 512 512" width="20" height="20"><path d="M256 48a208 208 0 110 416 208 208 0 110-416zm0 464a256 256 0 100-512 256 256 0 100 512zm-88-136c0 13.3 10.7 24 24 24h128c13.3 0 24-10.7 24-24s-10.7-24-24-24H192c-13.3 0-24 10.7-24 24zm-8-104c-26.5 0-48-21.5-48-48 0-14.3 6.3-27.2 16.2-36-.2 1.3-.2 2.6-.2 4 0 17.7 14.3 32 32 32s32-14.3 32-32c0-1.4-.1-2.7-.2-4 10 8.8 16.2 21.7 16.2 36 0 26.5-21.5 48-48 48zm0 32a80 80 0 100-160 80 80 0 100 160zm192-32c-26.5 0-48-21.5-48-48 0-14.3 6.3-27.2 16.2-36-.2 1.3-.2 2.6-.2 4 0 17.7 14.3 32 32 32s32-14.3 32-32c0-1.4-.1-2.7-.2-4 10 8.8 16.2 21.7 16.2 36 0 26.5-21.5 48-48 48zm0 32a80 80 0 100-160 80 80 0 100 160z"/></svg>