<svg xmlns="http://www.w3.org/2000/svg" viewBox="0 0 512 512" width="20" height="20"><path d="M464 256a208 208 0 10-416 0 208 208 0 10416 0zM0 256a256 256 0 11512 0 256 256 0 11-512 0zm256 32a64 64 0 110 128 64 64 0 110-128zM103 135c9.4-9.4 24.6-9.4 33.9 0l23 23 23-23c9.4-9.4 24.6-9.4 33.9 0s9.4 24.6 0 33.9l-23 23 23 23c9.4 9.4 9.4 24.6 0 33.9s-24.6 9.4-33.9 0l-23-23-23 23c-9.4 9.4-24.6 9.4-33.9 0s-9.4-24.6 0-33.9l23-23-23-23c-9.4-9.4-9.4-24.6 0-33.9zm192 0c9.4-9.4 24.6-9.4 33.9 0l23 23 23-23c9.4-9.4 24.6-9.4 33.9 0s9.4 24.6 0 33.9l-23 23 23 23c9.4 9.4 9.4 24.6 0 33.9s-24.6 9.4-33.9 0l-23-23-23 23c-9.4 9.4-24.6 9.4-33.9 0s-9.4-24.6 0-33.9l23-23-23-23c-9.4-9.4-9.4-24.6 0-33.9z"/></svg>