<svg xmlns="http://www.w3.org/2000/svg" viewBox="0 0 512 512" width="20" height="20"><path d="M464 256a208 208 0 10-416 0 208 208 0 10416 0zM0 256a256 256 0 11512 0 256 256 0 11-512 0zm130.7 57.9c-4.2-13.6 7.1-25.9 21.3-25.9h212.5c14.2 0 25.5 12.4 21.3 25.9C369 368.4 318.2 408 258.2 408s-110.8-39.6-127.5-94.1zm86.9-85.1l-.2-.2c-.2-.2-.4-.5-.7-.9-.6-.8-1.6-2-2.8-3.4-2.5-2.8-6-6.6-10.2-10.3-8.8-7.8-18.8-14-27.7-14s-18.9 6.2-27.7 14c-4.2 3.7-7.7 7.5-10.2 10.3-1.2 1.4-2.2 2.6-2.8 3.4-.3.4-.6.7-.7.9l-.2.2c-2.1 2.8-5.7 3.9-8.9 2.8s-5.5-4.1-5.5-7.6c0-17.9 6.7-35.6 16.6-48.8 9.8-13 23.9-23.2 39.4-23.2s29.6 10.2 39.4 23.2c9.9 13.2 16.6 30.9 16.6 48.8 0 3.4-2.2 6.5-5.5 7.6s-6.9 0-8.9-2.8zm160 0l-.2-.2c-.2-.2-.4-.5-.7-.9-.6-.8-1.6-2-2.8-3.4-2.5-2.8-6-6.6-10.2-10.3-8.8-7.8-18.8-14-27.7-14s-18.9 6.2-27.7 14c-4.2 3.7-7.7 7.5-10.2 10.3-1.2 1.4-2.2 2.6-2.8 3.4-.3.4-.6.7-.7.9l-.2.2c-2.1 2.8-5.7 3.9-8.9 2.8s-5.5-4.1-5.5-7.6c0-17.9 6.7-35.6 16.6-48.8 9.8-13 23.9-23.2 39.4-23.2s29.6 10.2 39.4 23.2c9.9 13.2 16.6 30.9 16.6 48.8 0 3.4-2.2 6.5-5.5 7.6s-6.9 0-8.9-2.8z"/></svg>