<svg xmlns="http://www.w3.org/2000/svg" viewBox="0 0 576 512" width="20" height="20"><path d="M64 80c-8.8 0-16 7.2-16 16v320c0 8.8 7.2 16 16 16h448c8.8 0 16-7.2 16-16V96c0-8.8-7.2-16-16-16H64zM0 96c0-35.3 28.7-64 64-64h448c35.3 0 64 28.7 64 64v320c0 35.3-28.7 64-64 64H64c-35.3 0-64-28.7-64-64V96zm96 64a32 32 0 1164 0 32 32 0 11-64 0zm104 0c0-13.3 10.7-24 24-24h224c13.3 0 24 10.7 24 24s-10.7 24-24 24H224c-13.3 0-24-10.7-24-24zm0 96c0-13.3 10.7-24 24-24h224c13.3 0 24 10.7 24 24s-10.7 24-24 24H224c-13.3 0-24-10.7-24-24zm0 96c0-13.3 10.7-24 24-24h224c13.3 0 24 10.7 24 24s-10.7 24-24 24H224c-13.3 0-24-10.7-24-24zm-72-64a32 32 0 110-64 32 32 0 110 64zm-32 64a32 32 0 1164 0 32 32 0 11-64 0z"/></svg>