<svg xmlns="http://www.w3.org/2000/svg" viewBox="0 0 512 512" width="20" height="20"><path d="M464 256a208 208 0 11-416 0 208 208 0 11416 0zM256 0a256 256 0 100 512 256 256 0 100-512zm-95.6 248a24 24 0 100-48 24 24 0 100 48zm216-24a24 24 0 10-48 0 24 24 0 1048 0zM192 336c-13.3 0-24 10.7-24 24s10.7 24 24 24h128c13.3 0 24-10.7 24-24s-10.7-24-24-24H192zm-32-160a48 48 0 110 96 48 48 0 110-96zm0 128a80 80 0 100-160 80 80 0 100 160zm144-80a48 48 0 1196 0 48 48 0 11-96 0zm128 0a80 80 0 10-160 0 80 80 0 10160 0z"/></svg>