<?xml version="1.0" encoding="UTF-8" standalone="no"?><!DOCTYPE svg PUBLIC "-//W3C//DTD SVG 1.1//EN" "http://www.w3.org/Graphics/SVG/1.1/DTD/svg11.dtd"><svg width="100%" height="100%" viewBox="0 0 125 125" version="1.1" xmlns="http://www.w3.org/2000/svg" xmlns:xlink="http://www.w3.org/1999/xlink" xml:space="preserve" xmlns:serif="http://www.serif.com/" style="fill-rule:evenodd;clip-rule:evenodd;stroke-linejoin:round;stroke-miterlimit:2;"><path id="phosporicons" d="M64.605,0.007l-44.47,-0c-0.854,-0 -1.673,0.339 -2.278,0.943c-0.604,0.605 -0.943,1.424 -0.943,2.278l-0,79.029c0.011,11.328 4.514,22.19 12.521,30.202c8.008,8.013 18.866,12.523 30.194,12.541c0.423,0 0.842,-0.083 1.233,-0.245c0.391,-0.162 0.746,-0.399 1.045,-0.699c0.299,-0.299 0.536,-0.654 0.698,-1.045c0.162,-0.391 0.246,-0.809 0.246,-1.233l-0,-36.299l1.727,-0c5.677,0.101 11.316,-0.929 16.59,-3.031c5.274,-2.102 10.077,-5.234 14.127,-9.212c4.051,-3.979 7.268,-8.724 9.464,-13.96c2.196,-5.235 3.327,-10.856 3.327,-16.533c0,-5.678 -1.131,-11.298 -3.327,-16.534c-2.196,-5.235 -5.413,-9.981 -9.464,-13.959c-4.05,-3.979 -8.853,-7.111 -14.127,-9.213c-5.274,-2.102 -10.913,-3.132 -16.59,-3.03l0.027,-0Zm-8.225,118.413c-8.466,-0.77 -16.394,-4.483 -22.405,-10.495c-6.011,-6.011 -9.725,-13.939 -10.495,-22.405l32.9,-0l0,32.9Zm0,-49.803l-31.022,-62.167l31.077,-0l-0.055,62.167Zm8.225,10.419l-1.727,-0l0,-72.586l1.727,-0c4.826,-0.094 9.621,0.775 14.107,2.557c4.485,1.782 8.57,4.44 12.016,7.82c3.446,3.379 6.183,7.412 8.051,11.862c1.869,4.45 2.831,9.227 2.831,14.054c0,4.826 -0.962,9.604 -2.831,14.054c-1.868,4.45 -4.605,8.482 -8.051,11.862c-3.446,3.379 -7.531,6.038 -12.016,7.819c-4.486,1.782 -9.281,2.652 -14.107,2.558Z" style="fill:#444;fill-rule:nonzero;"/></svg>