<svg xmlns="http://www.w3.org/2000/svg" viewBox="0 0 24 24" width="20" height="20"><path d="M19.24 3H4.76A1.76 1.76 0 003 4.76v14.48A1.76 1.76 0 004.76 21h14.48A1.76 1.76 0 0021 19.24V4.76A1.76 1.76 0 0019.24 3zm-5.8 10h-2.25v6.44H9.4V13H7.15v-1.46h6.29zm5.8 5.28a1.71 1.71 0 01-.67.74 3 3 0 01-1 .39 5.81 5.81 0 01-1.2.12 7 7 0 01-1.23-.11 4.52 4.52 0 01-1-.33v-1.71l-.06-.06h.06v.07a3.41 3.41 0 001 .54 3.06 3.06 0 001.13.2 2.58 2.58 0 00.6-.06 1.47 1.47 0 00.42-.17.75.75 0 00.25-.25.69.69 0 00-.06-.74 1.24 1.24 0 00-.35-.33 3.12 3.12 0 00-.53-.3l-.67-.28a3.57 3.57 0 01-1.37-1 2 2 0 01-.46-1.33 2.16 2.16 0 01.24-1.06 2.09 2.09 0 01.66-.71 2.88 2.88 0 011-.42 5.11 5.11 0 011.19-.13 7 7 0 011.09.07 4.53 4.53 0 01.88.23v1.65a2.42 2.42 0 00-.42-.24 3.58 3.58 0 00-.49-.17 3 3 0 00-.49-.1 2.45 2.45 0 00-.46 0 2.29 2.29 0 00-.56.06 1.54 1.54 0 00-.43.16.78.78 0 00-.26.25.63.63 0 00-.09.33.62.62 0 00.1.35 1.19 1.19 0 00.3.29 2.15 2.15 0 00.46.28l.63.28a6.56 6.56 0 01.84.42 2.65 2.65 0 01.64.49 1.79 1.79 0 01.42.63 2.48 2.48 0 01.14.85 2.68 2.68 0 01-.25 1.08z"/></svg>