<svg xmlns="http://www.w3.org/2000/svg" viewBox="0 0 24 24" width="20" height="20"><path d="M12 20.5l-.435-.432C10.02 18.541 9 17.534 9 16.298a1.712 1.712 0 011.65-1.798 1.74 1.74 0 011.35.683 1.74 1.74 0 011.35-.683A1.712 1.712 0 0115 16.298c0 1.236-1.02 2.243-2.565 3.774zM11 4h2v1h-2z"/><circle cx="9" cy="4" r="1"/><circle cx="15" cy="4" r="1"/><path d="M18 10h-5V8l3-.008A2.998 2.998 0 0019 5V3a3.004 3.004 0 00-3-3H8a3.004 3.004 0 00-3 3v2a3.004 3.004 0 003 3h3v2H6a3.005 3.005 0 00-3 3v8a3.004 3.004 0 003 3h12a3.004 3.004 0 003-3v-8a3.005 3.005 0 00-3-3zM8 6a1.001 1.001 0 01-1-1V3a1.001 1.001 0 011-1l7.992.002A1.006 1.006 0 0117 3v2a1.008 1.008 0 01-1.008 1zm11 15a1.001 1.001 0 01-1 1H6a1.001 1.001 0 01-1-1v-8a1.002 1.002 0 011-1h12a1.001 1.001 0 011 1z"/></svg>