<svg xmlns="http://www.w3.org/2000/svg" viewBox="0 0 24 24" width="20" height="20"><path d="M1 3v2h22V3a2.001 2.001 0 00-2-2H3a2.001 2.001 0 00-2 2zm3.007 1.008a1 1 0 11.999-1 1 1 0 01-1 1zm2.997-.001a1 1 0 111-1 1.002 1.002 0 01-1 1zM1 6v14a2 2 0 002 2h18a2 2 0 002-2V6zm20 14H3V8h18z"/><path d="M9 18l.7-.7.7-.7-1.3-1.3L7.8 14l1.3-1.3 1.3-1.3-.7-.7L9 10l-2 2-2 2 2 2 2 2zm4.6-1.4l.7.7.7.7 2-2 2-2-2-2-2-2-.7.7-.7.7 1.3 1.3 1.3 1.3-1.3 1.3-1.3 1.3z"/><path d="M9 18l.7-.7.7-.7-1.3-1.3L7.8 14l1.3-1.3 1.3-1.3-.7-.7L9 10l-2 2-2 2 2 2 2 2zm4.6-1.4l.7.7.7.7 2-2 2-2-2-2-2-2-.7.7-.7.7 1.3 1.3 1.3 1.3-1.3 1.3-1.3 1.3z"/></svg>