<svg xmlns="http://www.w3.org/2000/svg" viewBox="0 0 24 24" width="20" height="20"><path d="M22.69 18.37l1.14-1-1-1.73-1.45.49a3.647 3.647 0 00-1.08-.63L20 14h-2l-.3 1.49a3.646 3.646 0 00-1.08.63l-1.45-.49-1 1.73 1.14 1a3.337 3.337 0 000 1.26l-1.14 1 1 1.73 1.45-.49a3.645 3.645 0 001.08.63L18 24h2l.3-1.49a3.646 3.646 0 001.08-.63l1.45.49 1-1.73-1.14-1a3.39 3.39 0 000-1.27zM19 21a2 2 0 112-2 2.006 2.006 0 01-2 2zm4-10H1V1h22zM3 9h18V3H3zm10-4H4v2h9zm3 0a1 1 0 101 1 1 1 0 00-1-1zm3 0a1 1 0 101 1 1 1 0 00-1-1z"/><path d="M12.294 21H3v-6h10.26a7.026 7.026 0 012.148-2H1v10h12.26a6.962 6.962 0 01-.966-2z"/><path d="M4 19h8a6.994 6.994 0 01.294-2H4z"/></svg>