<svg xmlns="http://www.w3.org/2000/svg" viewBox="0 0 24 24" width="20" height="20"><path d="M13.691 15.778l-.63-.49a2.29 2.29 0 00.023-.288 1.548 1.548 0 00-.024-.289l.625-.49a.153.153 0 00.036-.188l-.59-1.02a.15.15 0 00-.183-.065l-.73.295a2.016 2.016 0 00-.502-.289l-.112-.778a.14.14 0 00-.141-.124h-1.18a.151.151 0 00-.147.124l-.112.778a2.355 2.355 0 00-.5.29l-.732-.296a.154.154 0 00-.183.065l-.59 1.02a.146.146 0 00.036.189l.625.49a2.366 2.366 0 000 .577l-.625.49a.153.153 0 00-.035.188l.59 1.02a.15.15 0 00.182.065l.731-.295a2.016 2.016 0 00.501.289l.112.778a.147.147 0 00.148.124h1.179a.151.151 0 00.147-.124l.112-.778a2.178 2.178 0 00.495-.29l.737.296a.154.154 0 00.183-.065l.59-1.02a.153.153 0 00-.036-.189zm-2.818.106a.884.884 0 11.885-.884.883.883 0 01-.885.884z"/><path d="M14 2H6a2.006 2.006 0 00-2 2v16a2.006 2.006 0 002 2h12a2.006 2.006 0 002-2V8zm4 18H6V4h7v5h5z"/></svg>