<svg xmlns="http://www.w3.org/2000/svg" viewBox="0 0 24 24" width="20" height="20"><path d="M20 10h-2l-4.79-3.5A1.854 1.854 0 0014 5a2.03 2.03 0 00-1-1.721V2h-1v2a1 1 0 11-1 1h-1a1.846 1.846 0 00.796 1.5L6 10H4a2.002 2.002 0 00-2 2v8a2.002 2.002 0 002 2h16a1.997 1.997 0 002-2v-8a2.002 2.002 0 00-2-2zm-8-3c.006 0 4 3 4 3H8zm8 13H4v-8h16z"/><path d="M14 19a1 1 0 001-1v-4a1 1 0 00-2 0v4a1 1 0 001 1zm4 0a1 1 0 001-1v-4a1 1 0 00-2 0v4a1 1 0 001 1zM6 19a1 1 0 001-1v-4a1 1 0 00-2 0v4a1 1 0 001 1zm4 0a1 1 0 001-1v-4a1 1 0 00-2 0v4a1 1 0 001 1z"/></svg>