<svg xmlns="http://www.w3.org/2000/svg" viewBox="0 0 24 24" width="20" height="20"><path d="M11 15h2v2h-2zm0-6h2v5h-2z"/><path d="M20 8h-2.81a5.985 5.985 0 00-1.82-1.96L17 4.41 15.59 3l-2.17 2.17A6.066 6.066 0 0012 5a5.919 5.919 0 00-1.41.17L8.41 3 7 4.41l1.62 1.63A6.062 6.062 0 006.81 8H4v2h2.09A6.63 6.63 0 006 11v1H4v2h2v1a6.632 6.632 0 00.09 1H4v2h2.81a5.99 5.99 0 0010.38 0H20v-2h-2.09a6.632 6.632 0 00.09-1v-1h2v-2h-2v-1a6.63 6.63 0 00-.09-1H20zm-4 4v3a4.26 4.26 0 01-.07.7l-.1.65-.37.65a3.993 3.993 0 01-6.92 0l-.37-.64-.1-.65A4.271 4.271 0 018 15v-4a4.053 4.053 0 01.07-.7l.1-.65.37-.65a4.1 4.1 0 011.21-1.31l.57-.39.74-.18A3.786 3.786 0 0112 7a3.865 3.865 0 01.95.12l.68.16.61.42a3.894 3.894 0 011.21 1.31l.38.65.1.65A4.038 4.038 0 0116 11z"/></svg>