<svg xmlns="http://www.w3.org/2000/svg" viewBox="0 0 24 24" width="20" height="20"><path d="M3 20V6H1v14a2.001 2.001 0 002 2h16v-2l-8-.001z"/><path d="M17.293 8.946q.05-.082.095-.17a1.941 1.941 0 00.08-.182 2.021 2.021 0 00-.041-1.536 1.977 1.977 0 00-1.11-1.055l-.005-.001L16.306 6a2.013 2.013 0 01.178 1.79v.002l-.001.001a3.616 3.616 0 00-1.123-.73 3.59 3.59 0 00-2.721 0 3.617 3.617 0 00-1.123.73v-.001l-.001-.002a1.949 1.949 0 01-.11-.932A2.084 2.084 0 0111.712 6l-.006.002-.006.001a2.018 2.018 0 00-1.17 2.59 1.944 1.944 0 00.08.183q.044.088.095.17a3.6 3.6 0 106.587 0zm-1.894-.15a.6.6 0 11-.425.175.598.598 0 01.425-.176zm-2.799 0a.6.6 0 11-.424.175.598.598 0 01.424-.176zm1.4 3.812a2.172 2.172 0 01-1.252-.394 2.22 2.22 0 01-.792-1.007h4.086a2.22 2.22 0 01-.792 1.007 2.172 2.172 0 01-1.25.394z"/><path d="M22.396 2.604A1.91 1.91 0 0021 2H7a1.91 1.91 0 00-1.396.604A1.911 1.911 0 005 4v12a1.911 1.911 0 00.604 1.396A1.911 1.911 0 007 18h14a2.067 2.067 0 002-2V4a1.91 1.91 0 00-.604-1.396zM21 16H7V4h14z"/></svg>