<svg xmlns="http://www.w3.org/2000/svg" viewBox="0 0 24 24" width="20" height="20"><path d="M15.5 9a1.492 1.492 0 00-1.064.427A1.522 1.522 0 0014 10.5a1.468 1.468 0 00.436 1.05A1.511 1.511 0 0015.5 12a1.496 1.496 0 001.058-.45A1.474 1.474 0 0017 10.5a1.527 1.527 0 00-.442-1.073A1.476 1.476 0 0015.5 9zm-7 0a1.499 1.499 0 101.06.439A1.496 1.496 0 008.5 9z"/><path d="M18 2a16.282 16.282 0 01.51 2.145 5.04 5.04 0 01-.083 1.56 8.987 8.987 0 00-12.853 0 4.922 4.922 0 01-.063-1.56A4.908 4.908 0 016 2a9.821 9.821 0 00-2.546 2.645 4.996 4.996 0 00-.128 3.84 4.851 4.851 0 00.2.455l.012.02a9 9 0 1016.923-.003l.01-.017a4.852 4.852 0 00.2-.455 5.053 5.053 0 00-.104-3.84A9.599 9.599 0 0018 2zm-6 17a7 7 0 117-7 7.008 7.008 0 01-7 7z"/><path d="M7 14a5.493 5.493 0 005 3 5.493 5.493 0 005-3z"/></svg>