<svg xmlns="http://www.w3.org/2000/svg" viewBox="0 0 24 24" width="20" height="20"><path d="M17.885 23.553c0-.685.23-.922.615-.922.396-.01.625.237.625.922V24H20v-.338C20 21.928 18.635 22 18.5 22c-.146 0-1.5-.082-1.5 1.662V24h.885zM21 5.662v.676C21 8.072 22.365 8 22.5 8c.146 0 1.5.082 1.5-1.662v-.676C24 3.928 22.635 4 22.5 4c-.146 0-1.5-.082-1.5 1.662zm2.125-.11v.886c0 .703-.219.94-.615.94s-.625-.237-.625-.94v-.885c0-.685.23-.922.615-.922.396-.01.625.237.625.922zM21 12.662v.676C21 15.072 22.365 15 22.5 15c.146 0 1.5.08 1.5-1.662v-.676C24 10.928 22.635 11 22.5 11c-.146 0-1.5-.08-1.5 1.662zm2.125-.11v.886c0 .703-.219.94-.615.94s-.625-.237-.625-.94v-.885c0-.685.23-.922.615-.922.396-.01.625.237.625.922zM21 19.662v.676C21 22.072 22.365 22 22.5 22c.146 0 1.5.082 1.5-1.662v-.676C24 17.928 22.635 18 22.5 18c-.146 0-1.5-.082-1.5 1.662zm2.125-.11v.886c0 .703-.219.94-.615.94s-.625-.237-.625-.94v-.885c0-.685.23-.922.615-.922.396-.01.625.237.625.922zM17 9.662v.676C17 12.072 18.365 12 18.5 12c.146 0 1.5.082 1.5-1.662v-.676C20 7.928 18.635 8 18.5 8c-.146 0-1.5-.082-1.5 1.662zm2.125-.11v.886c0 .703-.219.94-.615.94s-.625-.237-.625-.94v-.885c0-.685.23-.922.615-.922.396-.01.625.237.625.922zM17 1.59v.647L18 2v3h1V1m-2 14.59v.647L18 16v3h1v-4M8 10a2 2 0 11-2 2 2.006 2.006 0 012-2m0 9c2.7 0 5.8 1.29 6 2v1H2v-1c.2-.72 3.3-2 6-2M8 8a4 4 0 104 4 3.999 3.999 0 00-4-4zm0 9c-2.67 0-8 1.34-8 4v3h16v-3c0-2.66-5.33-4-8-4z"/></svg>