<svg xmlns="http://www.w3.org/2000/svg" viewBox="0 0 24 24" width="20" height="20"><path d="M19.09 13a1.5 1.5 0 100-1h-2.8A5.448 5.448 0 0014 10.37V5.91a1.5 1.5 0 10-1 0v4.18a5.551 5.551 0 00-1-.09 5.61 5.61 0 00-2.28.48L8 8.76V6h1V2H6v4h1v3.17l1.82 1.82a5.562 5.562 0 00-1.81 2.04 4.418 4.418 0 00-1.03.24l-2.13-2.13a1.519 1.519 0 10-.71.71l1.89 1.89A4.499 4.499 0 007.5 22h9.75a3.74 3.74 0 00.26-7.47 5.358 5.358 0 00-.54-1.53zm-1.72 3.53A1.736 1.736 0 0119 18.25 1.758 1.758 0 0117.25 20H7.5a2.498 2.498 0 01-.28-4.98l1.07-.11.5-.96a3.618 3.618 0 016.76.97l.3 1.5z"/></svg>