<svg xmlns="http://www.w3.org/2000/svg" viewBox="0 0 24 24" width="20" height="20"><path d="M21 8h-2.59l-1-1H15a2.006 2.006 0 00-2 2v4a2.006 2.006 0 002 2h6a2.006 2.006 0 002-2v-3a2.006 2.006 0 00-2-2zm0 5h-6V9h2l1 1h3zm0 4h-2.59l-1-1H15a2.006 2.006 0 00-2 2v4a2.006 2.006 0 002 2h6a2.006 2.006 0 002-2v-3a2.006 2.006 0 00-2-2zm0 5h-6v-4h2l1 1h3zM8 19v-7h5v-2H8V8H6v13h7v-2H8zm2-18H7.41l-1-1H4a2.006 2.006 0 00-2 2v4a2.006 2.006 0 002 2h6a2.006 2.006 0 002-2V3a2.006 2.006 0 00-2-2zm0 5H4V2h2l1 1h3z"/></svg>