<svg xmlns="http://www.w3.org/2000/svg" viewBox="0 0 24 24" width="20" height="20"><path d="M12 18H4v-8h16v2.078a6.94 6.94 0 012 .603V10a2.002 2.002 0 00-2-2l-1.488-.015-5.302-3.43A1.957 1.957 0 0014 3a2.03 2.03 0 00-1-1.721V0h-1v2a1 1 0 11-1 1h-1a1.957 1.957 0 00.796 1.56L5.5 7.984 4 8a2.002 2.002 0 00-2 2v8a2.002 2.002 0 002 2h8.08a7.013 7.013 0 01-.08-1.003A7.063 7.063 0 0112 18zm-.005-13.026L12 5c.006 0 .01-.027.017-.027L17 8H7z"/><path d="M15 13.26V12a1 1 0 00-2 0v3.408a7.027 7.027 0 012-2.148zM18 11a1 1 0 00-1 1v.294A6.994 6.994 0 0119 12a1 1 0 00-1-1zM6 11a1 1 0 00-1 1v4a1 1 0 002 0v-4a1 1 0 00-1-1zm4 0a1 1 0 00-1 1v4a1 1 0 002 0v-4a1 1 0 00-1-1zm13.879 9.319l-1.07-.83a3.885 3.885 0 00.04-.49 2.626 2.626 0 00-.04-.49l1.06-.83a.26.26 0 00.06-.32l-1-1.73a.253.253 0 00-.31-.11l-1.239.5a3.418 3.418 0 00-.85-.49l-.19-1.319a.239.239 0 00-.24-.21h-1.998a.257.257 0 00-.25.21l-.19 1.32a3.993 3.993 0 00-.85.49l-1.239-.5a.262.262 0 00-.31.11l-1 1.73a.248.248 0 00.06.32l1.06.829a4.013 4.013 0 000 .98l-1.06.83a.26.26 0 00-.06.32l1 1.73a.253.253 0 00.31.11l1.24-.5a3.418 3.418 0 00.849.49l.19 1.319a.249.249 0 00.25.21H20.1a.257.257 0 00.25-.21l.19-1.32a3.692 3.692 0 00.839-.49l1.25.5a.262.262 0 00.31-.11l.999-1.73a.26.26 0 00-.06-.32zm-4.758.18a1.5 1.5 0 111.5-1.5 1.497 1.497 0 01-1.5 1.5z"/></svg>