<svg xmlns="http://www.w3.org/2000/svg" viewBox="0 0 24 24" width="20" height="20"><path d="M4.26 12A8.243 8.243 0 014 10a8.243 8.243 0 01.26-2h3.38a16.513 16.513 0 00-.14 2 16.514 16.514 0 00.14 2h2.02a14.71 14.71 0 01-.16-2 14.581 14.581 0 01.16-2h4.68a14.59 14.59 0 01.16 2 14.72 14.72 0 01-.16 2h2.02a16.512 16.512 0 00.14-2 16.511 16.511 0 00-.14-2h3.38a8.24 8.24 0 01.26 2 8.24 8.24 0 01-.26 2L22 13v-3a10 10 0 10-20 0v3zm14.66-6h-2.95a15.65 15.65 0 00-1.38-3.56A8.03 8.03 0 0118.92 6zM12 2.04A14.086 14.086 0 0113.91 6h-3.82A14.086 14.086 0 0112 2.04zm-2.59.4A15.648 15.648 0 008.03 6H5.08a7.987 7.987 0 014.33-3.56z"/><path d="M21 14v8H3v-8h18m0-2H3a2 2 0 00-2 2v8a2 2 0 002 2h18a2 2 0 002-2v-8a2 2 0 00-2-2z"/><path d="M7 15h2v6H7zm9 0h-4v6h2v-2h2a1.473 1.473 0 001.5-1.5v-1A1.473 1.473 0 0016 15zm0 3h-2v-2h2z"/></svg>