<svg xmlns="http://www.w3.org/2000/svg" viewBox="0 0 24 24" width="20" height="20"><path d="M23.97 14.812a3.286 3.286 0 00-.271-.943l-2.16 2.147-1.507-1.498 2.16-2.196a3.293 3.293 0 00-4.47 4.094l-3.429 3.407c-.77.872-2.037 1.361-.565 2.409 1.132 1.504 1.47.306 2.424-.512l3.428-3.407a3.29 3.29 0 004.39-3.501zM16 2a1.004 1.004 0 00-1-1h-4a1.004 1.004 0 00-1 1v1h6z"/><circle cx="13" cy="9" r="1.5"/><path d="M9 1H7a1.004 1.004 0 00-1 1v1h2V2c0-.83.449-1 1-1zM6 4L1 15h2L8 4H6zM5 17.003V16H3v1.003A1.998 1.998 0 005 19h2a1.773 1.773 0 01-2-1.997zM16.06 13H8.1l3.18-7h3.42l2.5 5.467a5.583 5.583 0 011.694-1.092L15.99 4H10L5 15h10.496a5.018 5.018 0 01.563-2zm7.91 1.812a3.286 3.286 0 00-.271-.943l-2.16 2.147-1.507-1.498 2.16-2.196a3.293 3.293 0 00-4.47 4.094l-3.429 3.407c-.77.872-2.037 1.361-.565 2.409 1.132 1.504 1.47.306 2.424-.512l3.428-3.407a3.29 3.29 0 004.39-3.501zM14.297 17H9v-1H7v1.003A1.998 1.998 0 009 19h3.264c.053-.05 2.033-2 2.033-2z"/></svg>