<svg xmlns="http://www.w3.org/2000/svg" viewBox="0 0 24 24" width="20" height="20"><path d="M21 10a16.84 16.84 0 00-9 3.244A16.84 16.84 0 003 10v2.96a2.004 2.004 0 00-2 2.007v1.004c0 1.109 2 2.208 2 2.208v2.007a14.868 14.868 0 017.417 2.55A15.09 15.09 0 0112 24a15.09 15.09 0 011.583-1.264A14.868 14.868 0 0121 20.186v-2.208a2.004 2.004 0 002-2.007v-1.004a2.004 2.004 0 00-2-2.007zm-9 11.422a16.841 16.841 0 00-7-2.996v-6.15a14.8 14.8 0 015.417 2.282A15.09 15.09 0 0112 15.822a15.09 15.09 0 011.583-1.264A14.8 14.8 0 0119 12.275v6.151a16.841 16.841 0 00-7 2.996zM11 8h2v1h-2zm0-4h2v1h-2z"/><path d="M11 10h2v1h-2zM9 5a1 1 0 001-1 .983.983 0 00-.99-.99A.995.995 0 109 5z"/><circle cx="15" cy="4" r="1"/><path d="M16 8H8a3.003 3.003 0 01-3-3V3a3.003 3.003 0 013-3h8a3.003 3.003 0 013 3v2a3.003 3.003 0 01-3 3zM8 2a1.001 1.001 0 00-1 1v2a1.001 1.001 0 001 1h8a1.001 1.001 0 001-1V3a1.001 1.001 0 00-1-1z"/></svg>