<svg xmlns="http://www.w3.org/2000/svg" viewBox="0 0 24 24" width="20" height="20"><circle cx="7" cy="2" r="1"/><circle cx="3" cy="6" r="1"/><circle cx="12" cy="1" r="1"/><circle cx="17" cy="2" r="1"/><circle cx="21" cy="6" r="1"/><path d="M17.5 24l-.119-.029A8.623 8.623 0 0111 15.916v-4.218L17.5 9l6.5 2.698v4.218a8.623 8.623 0 01-6.381 8.055zM13 12.865v3.15a6.396 6.396 0 004.5 5.96 6.396 6.396 0 004.5-5.96v-3.15l-4.5-1.793zm10-.503z"/><circle cx="12" cy="23" r="1"/><path d="M10.4 10.4a.802.802 0 00.8-.8V8h1.6a1.6 1.6 0 001.59-1.5 6.027 6.027 0 012.353 1.857L18 7.833l1.08.45a7.997 7.997 0 10-8.39 11.6 9.57 9.57 0 01-.59-2.201 5.961 5.961 0 01-3.995-6.777L9.6 14.4v.8a1.585 1.585 0 00.4 1.045V12H8.8v-1.6z"/><circle cx="3" cy="18" r="1"/><circle cx="7" cy="22" r="1"/><circle cx="1" cy="12" r="1"/></svg>