<svg xmlns="http://www.w3.org/2000/svg" viewBox="0 0 24 24" width="20" height="20"><circle cx="12" cy="2" r="1"/><circle cx="21" cy="6" r="1"/><circle cx="21" cy="17" r="1"/><circle cx="12" cy="22" r="1"/><path d="M21 8a2.006 2.006 0 01-2-2 1.94 1.94 0 01.26-.96L14 2a2.005 2.005 0 01-1.01 1.73 1.95 1.95 0 01-1.98 0A2.005 2.005 0 0110 2L4.74 5.04A1.94 1.94 0 015 6a2.006 2.006 0 01-2 2 2.08 2.08 0 01-.5-.07v7.14A2.078 2.078 0 013 15a1.991 1.991 0 011.5.69 2.191 2.191 0 01.39.68A1.896 1.896 0 015 17a1.987 1.987 0 01-.58 1.41l3.84 2.21 1.78 1.03a1.278 1.278 0 01.07-.28.254.254 0 00.02-.07 1.789 1.789 0 01.12-.24c.01-.03.03-.06.04-.09.05-.07.09-.14.14-.2.03-.03.05-.06.08-.09a1.213 1.213 0 01.16-.16.525.525 0 01.11-.1 1.627 1.627 0 01.17-.11 1.19 1.19 0 01.15-.09c.06-.03.11-.05.17-.08l.21-.06a.742.742 0 01.14-.04 1.826 1.826 0 01.76 0 .742.742 0 01.14.04l.21.06c.06.03.11.05.17.08a1.19 1.19 0 01.15.09 1.627 1.627 0 01.17.11.525.525 0 01.11.1 1.213 1.213 0 01.16.16c.03.03.05.06.08.09.05.06.09.13.14.2.01.03.03.06.04.09a1.789 1.789 0 01.12.24.254.254 0 00.02.07 1.278 1.278 0 01.07.28l1.78-1.03 3.84-2.21A1.987 1.987 0 0119 17a1.896 1.896 0 01.11-.63 2.191 2.191 0 01.39-.68A1.991 1.991 0 0121 15a2.078 2.078 0 01.5.07V7.93A2.08 2.08 0 0121 8zm-9 5a1 1 0 111-1 1.003 1.003 0 01-1 1zm7.5.3A4.003 4.003 0 0017 17a3.554 3.554 0 00.06.56l-2.47 1.42a3.993 3.993 0 00-1.59-.84v-3.32a3 3 0 10-2 0v3.32a3.993 3.993 0 00-1.59.84l-2.47-1.42A3.554 3.554 0 007 17a4.003 4.003 0 00-2.5-3.7V9.7A4.004 4.004 0 007 6.04L9.15 4.8a3.984 3.984 0 005.7 0L17 6.04a4.004 4.004 0 002.5 3.66z"/><circle cx="3" cy="17" r="1"/><circle cx="3" cy="6" r="1"/></svg>