<svg xmlns="http://www.w3.org/2000/svg" viewBox="0 0 24 24" width="20" height="20"><path d="M21.5 11a1.5 1.5 0 00-.324.037L19.67 8.43A1.495 1.495 0 1017.092 7h-2.184a1.483 1.483 0 00-1.732-.963L11.67 3.428A1.495 1.495 0 109.092 2H6.908A1.496 1.496 0 104.33 3.428l-1.506 2.61a1.5 1.5 0 10.012 2.921l1.502 2.603a1.47 1.47 0 00-.008 1.866l-1.506 2.61a1.5 1.5 0 10.012 2.921l1.502 2.603A1.495 1.495 0 106.908 23h2.184a1.496 1.496 0 102.57-1.438l1.502-2.603A1.478 1.478 0 0014.908 18h2.184a1.496 1.496 0 102.57-1.438l1.502-2.603A1.499 1.499 0 1021.5 11zm-3-4a.5.5 0 11-.5.5.5.5 0 01.5-.5zm-5 0a.5.5 0 11-.5.5.5.5 0 01.5-.5zm-3-5a.5.5 0 11-.5.5.5.5 0 01.5-.5zm-5 0a.5.5 0 11-.5.5.5.5 0 01.5-.5zm-3 6a.5.5 0 11.5-.5.5.5 0 01-.5.5zm1.178.418a1.47 1.47 0 00-.008-1.846l1.506-2.61A1.483 1.483 0 006.908 3h2.184a1.483 1.483 0 001.732.963L12.33 6.57a1.47 1.47 0 00-.008 1.847l-1.51 2.615a1.49 1.49 0 00-1.72.967H6.908a1.49 1.49 0 00-1.72-.967zM11 12.5a.5.5 0 11-.5-.5.5.5 0 01.5.5zm-5 0a.5.5 0 11-.5-.5.5.5 0 01.5.5zM2.5 18a.5.5 0 11.5-.5.5.5 0 01-.5.5zm3 5a.5.5 0 11.5-.5.5.5 0 01-.5.5zm5 0a.5.5 0 11.5-.5.5.5 0 01-.5.5zm1.822-4.582l-1.51 2.615a1.489 1.489 0 00-1.72.967H6.908a1.489 1.489 0 00-1.72-.967l-1.51-2.615a1.47 1.47 0 00-.008-1.846l1.506-2.61A1.483 1.483 0 006.908 13h2.184a1.483 1.483 0 001.732.963l1.507 2.608a1.47 1.47 0 00-.01 1.847zM13.5 18a.5.5 0 11.5-.5.5.5 0 01-.5.5zm5 0a.5.5 0 11.5-.5.5.5 0 01-.5.5zm1.822-4.581l-1.51 2.615a1.489 1.489 0 00-1.72.966h-2.184a1.489 1.489 0 00-1.72-.966l-1.51-2.616a1.47 1.47 0 00-.016-1.856l1.502-2.603A1.478 1.478 0 0014.908 8h2.184a1.483 1.483 0 001.732.963l1.506 2.608a1.47 1.47 0 00-.008 1.848zM21.5 13a.5.5 0 11.5-.5.5.5 0 01-.5.5z"/></svg>