<svg data-name="Layer 1" xmlns="http://www.w3.org/2000/svg" viewBox="0 0 24 24" width="20" height="20"><path d="M13.5.67a21.494 21.494 0 01.74 4.8 3.47 3.47 0 01-3.41 3.73A3.64 3.64 0 017.2 5.47l.03-.36A13.768 13.768 0 004 14a7.945 7.945 0 009.076 7.92l.261-.04a7.954 7.954 0 001-.229l.021-.005a7.924 7.924 0 00.979-.382c.067-.031.133-.064.2-.096.173-.086.336-.19.503-.286l.01.01c.036-.022.067-.052.103-.074.084-.05.174-.091.256-.145l.021-.013.003-.002a7.944 7.944 0 00.701-.533l.027-.023a8.053 8.053 0 00.923-.916l.007-.007c.168-.198.327-.404.476-.617l.004-.004.004-.006a7.99 7.99 0 00.562-.952l.072-.148a7.933 7.933 0 00.405-1l.01-.029a7.952 7.952 0 00.252-1.062 6.9 6.9 0 00.037-.245A8.024 8.024 0 0020 14 17.115 17.115 0 0013.5.67zm1.862 15.763a3.278 3.278 0 00-4.443-4.119l2.147 2.16-1.498 1.507-2.197-2.16a3.293 3.293 0 004.094 4.47l1.112 1.119-.078.037a5.735 5.735 0 01-.744.291 6.003 6.003 0 01-.771.172l-.177.028A5.942 5.942 0 0112 20a6.007 6.007 0 01-6-6 11.875 11.875 0 01.858-4.433A5.561 5.561 0 0010.83 11.2a5.342 5.342 0 005.281-4.429A14.787 14.787 0 0118 14a5.975 5.975 0 01-.066.833l-.029.188a6.247 6.247 0 01-.17.74l-.027.082a5.792 5.792 0 01-.295.728l-.062.128a5.68 5.68 0 01-.409.695l-.016.025c-.08.115-.18.21-.267.319l-1.297-1.305z"/></svg>