<svg data-name="Layer 1" xmlns="http://www.w3.org/2000/svg" viewBox="0 0 24 24" width="20" height="20"><path d="M20.98 9.193V6.822a2.992 2.992 0 10-3.796-3.81h-2.368a2.992 2.992 0 10-3.806 3.813v2.37a2.972 2.972 0 000 5.624v2.37a2.986 2.986 0 00-1.828 1.822H6.818A2.986 2.986 0 005 17.193v-2.37a3.009 3.009 0 10-2-.007v2.377a2.99 2.99 0 103.815 3.814h2.37a2.992 2.992 0 103.825-3.81v-2.378a2.982 2.982 0 000-5.623V6.819a2.987 2.987 0 001.806-1.81h2.368a2.955 2.955 0 001.796 1.813v2.377A2.968 2.968 0 0017 12a3 3 0 103.98-2.807zM4 21a1 1 0 111-1 1 1 0 01-1 1zm0-8a1 1 0 111-1 1 1 0 01-1 1zm8 8a1 1 0 111-1 1 1 0 01-1 1zm0-8a1.033 1.033 0 01-1.02-1.017A1.003 1.003 0 0112 11a.969.969 0 01.98.983A.999.999 0 0112 13zm-.02-8.006a.999.999 0 010-1.997.999.999 0 110 1.997zM20 12.98a.984.984 0 01-1-.98 1.018 1.018 0 011.02-1 .99.99 0 01-.02 1.981zM20 5a1 1 0 111-1 1 1 0 01-1 1z"/><path d="M20 17a3 3 0 103 3 3 3 0 00-3-3zm0 4a1 1 0 111-1 1 1 0 01-1 1zM4 1a3 3 0 103 3 3 3 0 00-3-3zm0 4a1 1 0 111-1 1 1 0 01-1 1z"/></svg>