<svg xmlns="http://www.w3.org/2000/svg" viewBox="0 0 24 24" width="20" height="20"><path d="M19.75 12l-2.25-1-2.25 1L13 13v3a6.405 6.405 0 001.282 3.804A5.776 5.776 0 0017.5 22a5.776 5.776 0 003.218-2.196A6.405 6.405 0 0022 16v-3zm.098 7.287a4.787 4.787 0 01-2.348 1.678V16.5H14v-2.85l1.75-.777 1.75-.778v4.4H21a5.803 5.803 0 01-1.152 2.792zM13 4a1.004 1.004 0 00-1-1H8a1.004 1.004 0 00-1 1v1h6z"/><circle cx="10" cy="11" r="1.5"/><path d="M12 17v-2H5.1l3.18-7h3.42l1.704 3.726 1.825-.811L12.99 6H7L2 17h10zm2 4a5.797 5.797 0 01-.519-.597A7.488 7.488 0 0112.68 19H6v-1H4v1.003A1.998 1.998 0 006 21"/></svg>