<svg xmlns="http://www.w3.org/2000/svg" viewBox="0 0 24 24" width="20" height="20"><circle cx="5" cy="19" r="1"/><path d="M4 4h2v9H4z"/><path d="M7 2H3a1 1 0 00-1 1v18a1 1 0 001 1h4a1 1 0 001-1V3a1 1 0 00-1-1zm0 19H3V3h4z"/><circle cx="12" cy="19" r="1"/><path d="M11 4h2v9h-2z"/><path d="M14 2h-4a1 1 0 00-1 1v18a1 1 0 001 1h4a1 1 0 001-1V3a1 1 0 00-1-1zm0 19h-4V3h4z"/><circle cx="19" cy="19" r="1"/><path d="M18 4h2v9h-2z"/><path d="M21 2h-4a1 1 0 00-1 1v18a1 1 0 001 1h4a1 1 0 001-1V3a1 1 0 00-1-1zm0 19h-4V3h4z"/></svg>