<svg xmlns="http://www.w3.org/2000/svg" viewBox="0 0 24 24" width="20" height="20"><path d="M23 19a4 4 0 01-4 4h-2v-2h2a2 2 0 000-4h-2v-2h2a4 4 0 014 4zM9 19a4 4 0 014-4h2v2h-2a2 2 0 000 4h2v2h-2a4 4 0 01-4-4z"/><path d="M14 18h4v2h-4zM9 5a3 3 0 103 3 3.009 3.009 0 00-3-3zm0 4a1 1 0 111-1 1.003 1.003 0 01-1 1zm-3.69 6A7.011 7.011 0 019 13.88a5.641 5.641 0 01.778.064A5.965 5.965 0 0113 13h.254A9.398 9.398 0 009 11.89c-2.03 0-6 1.07-6 3.58V17h4.349a5.986 5.986 0 011.188-2z"/><path d="M16 2h-4.18a2.988 2.988 0 00-5.64 0H2a2.006 2.006 0 00-2 2v14a2.006 2.006 0 002 2h5.141a3.606 3.606 0 010-2H2V4h14v9h2V4a2.006 2.006 0 00-2-2zM9 3.25a.755.755 0 01-.75-.75.75.75 0 011.5 0 .755.755 0 01-.75.75z"/></svg>