<svg xmlns="http://www.w3.org/2000/svg" viewBox="0 0 24 24" width="20" height="20"><circle cx="9.537" cy="8.987" r="1"/><path d="M8.037 10.987a1 1 0 00-1 1 .984.984 0 00.482.834.972.972 0 00.518.166 1 1 0 001-1 1.016 1.016 0 00-1-1z"/><path d="M3 19a2 2 0 002 2h14a2.006 2.006 0 002-2V7.244l-2 2V15h-4a3 3 0 01-6 0H5L4.99 5h9.769l2-2H5a1.993 1.993 0 00-2 2zm2 0v-2h2.422a5.103 5.103 0 001.565 2zm14 0l-3.987-.033A4.998 4.998 0 0016.578 17H19z"/><path d="M13.943 7.071c-.376-.376-.88-.17-1.157.31l-1.164 1.914a2.08 2.08 0 011.487 1.15 1.618 1.618 0 01.592-.128l.01-.001a1.703 1.703 0 011.683 1.67l.018.014.38-.225.871-.516c.476-.29.687-.78.31-1.157l-.84-.84 5.274-5.274-1.415-1.415-5.273 5.274z"/><circle cx="11.037" cy="11.987" r="1"/></svg>