<svg xmlns="http://www.w3.org/2000/svg" viewBox="0 0 24 24" width="20" height="20"><path d="M4.172 19l2 2-1 1H2v-1a2.002 2.002 0 012-2h.172M5 17H4a4 4 0 00-4 4v3h8l-1-1 2-2-4-4zm14.828 2H20a2.002 2.002 0 012 2v1h-3.172l-1-1 2-2M19 17l-4 4 2 2-1 1h8v-3a4 4 0 00-4-4zm-7 1l-1 2v4h2v-4l-1-2zm5-13V2a2 2 0 00-2-2H9a2 2 0 00-2 2v3H4v1h16V5zm-2-1H9V2h6zm.5 3a2.488 2.488 0 00-1.989 1H10.49a2.436 2.436 0 10.46 1h2.101a2.5 2.5 0 102.45-2zm-7 3.5a1 1 0 111-1 1 1 0 01-1 1zm7 0a1 1 0 111-1 1 1 0 01-1 1z"/></svg>