<svg xmlns="http://www.w3.org/2000/svg" viewBox="0 0 24 24" width="20" height="20"><path d="M9 4L7 6 5 8l2 2 2 2 .7-.7.7-.7-1.3-1.3L7.8 8l1.3-1.3 1.3-1.3-.7-.7L9 4zm6 0l-.7.7-.7.7 1.3 1.3L16.2 8l-1.3 1.3-1.3 1.3.7.7.7.7 2-2 2-2-2-2-2-2zm5.977 15.09l-.388-1.532a.747.747 0 00-.356-.466.764.764 0 00-.587-.072l-4.552 1.284L12 17l3.915-1.003a1.88 1.88 0 00.558-.893L16.166 14 8 15H3v6h5l4.455.964a3.194 3.194 0 00.727-.017l7.26-1.954a.755.755 0 00.454-.344.738.738 0 00.081-.56zM6 20H4v-4h2v4zm6.922.982a.557.557 0 01-.138.018.538.538 0 01-.115-.012L8 19.963V16.02l7.329-.908L10 17l4.721 2.232.317.127.328-.093 4.316-1.217.264 1.042z"/></svg>