<svg xmlns="http://www.w3.org/2000/svg" viewBox="0 0 24 24" width="20" height="20"><path d="M8 16V4H6v12-.002A2.151 2.151 0 008 18h13v-2z"/><path d="M4 20V8H2v12a2.149 2.149 0 002 2h13v-2zm7.002-9.137a2.679 2.679 0 001.571 2.237 8.05 8.05 0 003.919.9h.016a8.049 8.049 0 003.919-.9 2.679 2.679 0 001.571-2.237H22V5.137a2.68 2.68 0 00-1.574-2.24A8.055 8.055 0 0016.502 2h-.004a8.055 8.055 0 00-3.924.898A2.68 2.68 0 0011 5.138v5.725h.002zm2.632-6.752a6.983 6.983 0 012.858-.547h.016a6.982 6.982 0 012.858.547c.681.313 1.063.706 1.063 1.026 0 .32-.382.713-1.063 1.026a6.982 6.982 0 01-2.858.547h-.016a6.983 6.983 0 01-2.858-.547c-.681-.313-1.063-.705-1.063-1.026 0-.32.382-.713 1.063-1.026zM12.571 9.12V7.374a6.508 6.508 0 001.744.66 9.647 9.647 0 002.183.24h.003a9.647 9.647 0 002.184-.24 6.507 6.507 0 001.744-.66v3.489h-.002c0 .32-.382.714-1.065 1.027a6.985 6.985 0 01-2.862.546 6.986 6.986 0 01-2.862-.546c-.682-.313-1.065-.707-1.065-1.027h-.002z"/></svg>