<svg xmlns="http://www.w3.org/2000/svg" viewBox="0 0 24 24" width="20" height="20"><path d="M14 18h4v2h-4z"/><path d="M19 15h-2v2h2a2 2 0 010 4h-2v2h2a4 4 0 000-8zm-6 2h2v-2h-2a4 4 0 000 8h2v-2h-2a2 2 0 010-4zM6 4a1 1 0 11-1-1 1 1 0 011 1zm10 0a1 1 0 11-1-1 1 1 0 011 1zM6 20a1 1 0 11-1-1 1 1 0 011 1z"/><path d="M9.69 24H3a2 2 0 01-2-2V2a2 2 0 012-2h14a2 2 0 012 2v11h-2V2H3v20h4.812a6.04 6.04 0 001.879 2z"/><path d="M14.578 13A4.998 4.998 0 106 14h3v.54A5.969 5.969 0 0113 13zM10 13a2 2 0 112-2 2 2 0 01-2 2z"/></svg>