<svg id="Layer_2" data-name="Layer 2" xmlns="http://www.w3.org/2000/svg" viewBox="0 0 45.35 32.79" width="20" height="20"><defs><style/></defs><path d="M7.79 28.4a20 20 0 015.9-14.25 1.24 1.24 0 000-1.78 1.26 1.26 0 00-1.78 0 22.66 22.66 0 000 32.05 1.25 1.25 0 00.89.37 1.22 1.22 0 00.89-.37 1.24 1.24 0 000-1.78 20 20 0 01-5.9-14.24M44 12.37a1.26 1.26 0 00-1.78 1.78 20.12 20.12 0 010 28.49 1.26 1.26 0 00.89 2.15 1.22 1.22 0 00.89-.37 22.63 22.63 0 000-32.05" transform="translate(-5.27 -12)"/><path d="M40.4 15.93a1.26 1.26 0 00-1.78 1.78 15.08 15.08 0 010 21.37 1.26 1.26 0 000 1.78 1.29 1.29 0 00.89.37 1.26 1.26 0 00.89-.37 17.61 17.61 0 000-24.93M12.82 28.4a15 15 0 014.44-10.69 1.26 1.26 0 10-1.79-1.78 17.61 17.61 0 000 24.93 1.26 1.26 0 101.79-1.78 15 15 0 01-4.44-10.68" transform="translate(-5.27 -12)"/><path d="M38 28.4a10 10 0 01-3 7.12 1.26 1.26 0 000 1.78 1.29 1.29 0 00.89.37 1.27 1.27 0 00.89-.37 12.57 12.57 0 000-17.81A1.26 1.26 0 0035 21.27a10 10 0 013 7.13m-19 8.9a1.26 1.26 0 00.89.37 1.29 1.29 0 00.89-.37 1.26 1.26 0 000-1.78 10.06 10.06 0 010-14.25A1.26 1.26 0 0019 19.49a12.57 12.57 0 000 17.81" transform="translate(-5.27 -12)"/><circle cx="22.94" cy="16.46" r="7.34"/></svg>